G04 #@! TF.GenerationSoftware,KiCad,Pcbnew,6.0.5*
G04 #@! TF.CreationDate,2022-09-29T12:45:26+03:00*
G04 #@! TF.ProjectId,opi-hat,6f70692d-6861-4742-9e6b-696361645f70,rev?*
G04 #@! TF.SameCoordinates,Original*
G04 #@! TF.FileFunction,Soldermask,Top*
G04 #@! TF.FilePolarity,Negative*
%FSLAX46Y46*%
G04 Gerber Fmt 4.6, Leading zero omitted, Abs format (unit mm)*
G04 Created by KiCad (PCBNEW 6.0.5) date 2022-09-29 12:45:26*
%MOMM*%
%LPD*%
G01*
G04 APERTURE LIST*
G04 Aperture macros list*
%AMRoundRect*
0 Rectangle with rounded corners*
0 $1 Rounding radius*
0 $2 $3 $4 $5 $6 $7 $8 $9 X,Y pos of 4 corners*
0 Add a 4 corners polygon primitive as box body*
4,1,4,$2,$3,$4,$5,$6,$7,$8,$9,$2,$3,0*
0 Add four circle primitives for the rounded corners*
1,1,$1+$1,$2,$3*
1,1,$1+$1,$4,$5*
1,1,$1+$1,$6,$7*
1,1,$1+$1,$8,$9*
0 Add four rect primitives between the rounded corners*
20,1,$1+$1,$2,$3,$4,$5,0*
20,1,$1+$1,$4,$5,$6,$7,0*
20,1,$1+$1,$6,$7,$8,$9,0*
20,1,$1+$1,$8,$9,$2,$3,0*%
G04 Aperture macros list end*
G04 #@! TA.AperFunction,Profile*
%ADD10C,0.127000*%
G04 #@! TD*
%ADD11R,4.600000X1.100000*%
%ADD12R,9.400000X10.800000*%
%ADD13C,5.000000*%
%ADD14RoundRect,0.101600X-0.754000X-0.754000X0.754000X-0.754000X0.754000X0.754000X-0.754000X0.754000X0*%
%ADD15C,1.711200*%
%ADD16RoundRect,0.250000X0.350000X0.625000X-0.350000X0.625000X-0.350000X-0.625000X0.350000X-0.625000X0*%
%ADD17O,1.200000X1.750000*%
%ADD18R,2.600000X2.600000*%
%ADD19O,2.600000X2.600000*%
%ADD20RoundRect,0.250000X-0.350000X-0.625000X0.350000X-0.625000X0.350000X0.625000X-0.350000X0.625000X0*%
%ADD21C,2.600000*%
%ADD22C,2.000000*%
%ADD23RoundRect,0.250000X-0.425000X0.537500X-0.425000X-0.537500X0.425000X-0.537500X0.425000X0.537500X0*%
%ADD24R,2.000000X1.500000*%
%ADD25R,2.000000X3.800000*%
%ADD26R,1.600000X1.600000*%
%ADD27O,1.600000X1.600000*%
%ADD28R,2.500000X2.500000*%
%ADD29RoundRect,0.250000X0.875000X0.925000X-0.875000X0.925000X-0.875000X-0.925000X0.875000X-0.925000X0*%
%ADD30C,0.900000*%
%ADD31C,0.650000*%
%ADD32O,1.600000X1.000000*%
%ADD33O,2.100000X1.000000*%
G04 APERTURE END LIST*
D10*
X126581299Y-51486900D02*
X84781300Y-51486900D01*
X129681299Y-57501509D02*
X129681299Y-54586900D01*
X81681300Y-54586900D02*
X81681300Y-94386900D01*
X129681299Y-57501509D02*
X115841253Y-57501509D01*
X115841253Y-57501509D02*
X115841253Y-83536509D01*
X115841253Y-83536509D02*
X121683253Y-83536509D01*
X121683253Y-90521509D02*
X129684253Y-90521509D01*
X129684253Y-90521509D02*
X129684253Y-94382309D01*
X84781300Y-97486899D02*
X126581299Y-97486899D01*
X121683253Y-83536509D02*
X121683253Y-90521509D01*
X126581299Y-97486894D02*
G75*
G03*
X129681298Y-94386900I4J3099995D01*
G01*
X81681300Y-94386900D02*
G75*
G03*
X84781300Y-97486900I3100000J0D01*
G01*
X84781300Y-51486900D02*
G75*
G03*
X81681300Y-54586900I0J-3100000D01*
G01*
X129681302Y-54586900D02*
G75*
G03*
X126581299Y-51486900I-3099999J1D01*
G01*
D11*
X101600000Y-67359000D03*
X101600000Y-65659000D03*
D12*
X92450000Y-63959000D03*
D11*
X101600000Y-63959000D03*
X101600000Y-62259000D03*
X101600000Y-60559000D03*
D13*
X126736709Y-54431488D03*
X126736709Y-94542406D03*
X84625794Y-54431488D03*
X84625794Y-94542406D03*
D14*
X90441253Y-96236509D03*
D15*
X90441253Y-93696509D03*
X92981253Y-96236509D03*
X92981253Y-93696509D03*
X95521253Y-96236509D03*
X95521253Y-93696509D03*
X98061253Y-96236509D03*
X98061253Y-93696509D03*
X100601253Y-96236509D03*
X100601253Y-93696509D03*
X103141253Y-96236509D03*
X103141253Y-93696509D03*
X105681253Y-96236509D03*
X105681253Y-93696509D03*
X108221253Y-96236509D03*
X108221253Y-93696509D03*
X110761253Y-96236509D03*
X110761253Y-93696509D03*
X113301253Y-96236509D03*
X113301253Y-93696509D03*
X115841253Y-96236509D03*
X115841253Y-93696509D03*
X118381253Y-96236509D03*
X118381253Y-93696509D03*
X120921253Y-96236509D03*
X120921253Y-93696509D03*
D14*
X120921253Y-53056509D03*
D15*
X118381253Y-53056509D03*
X115841253Y-53056509D03*
X113301253Y-53056509D03*
X110761253Y-53056509D03*
X108221253Y-53056509D03*
X105681253Y-53056509D03*
X103141253Y-53056509D03*
X100601253Y-53056509D03*
X98061253Y-53056509D03*
X95521253Y-53056509D03*
X92981253Y-53056509D03*
X90441253Y-53056509D03*
D16*
X113030000Y-57912000D03*
D17*
X111030000Y-57912000D03*
D18*
X106045000Y-71374000D03*
D19*
X102235000Y-71374000D03*
D20*
X111316000Y-88858000D03*
D17*
X113316000Y-88858000D03*
X115316000Y-88858000D03*
X117316000Y-88858000D03*
X119316000Y-88858000D03*
D18*
X86563000Y-83820000D03*
D21*
X86563000Y-88820000D03*
D22*
X112395000Y-61421000D03*
X112395000Y-71421000D03*
D23*
X104698800Y-75829300D03*
X104698800Y-78704300D03*
D24*
X114275000Y-80278000D03*
X114275000Y-77978000D03*
D25*
X107975000Y-77978000D03*
D24*
X114275000Y-75678000D03*
D26*
X98171000Y-88392000D03*
D27*
X98171000Y-90932000D03*
X105791000Y-90932000D03*
X105791000Y-88392000D03*
D28*
X108585000Y-84709000D03*
D16*
X103632000Y-84582000D03*
D17*
X101632000Y-84582000D03*
X99632000Y-84582000D03*
D16*
X98885000Y-77766000D03*
D17*
X96885000Y-77766000D03*
X94885000Y-77766000D03*
X92885000Y-77766000D03*
D29*
X100975000Y-56261000D03*
X95875000Y-56261000D03*
D30*
X86877000Y-65700000D03*
X86877000Y-61300000D03*
D31*
X86928000Y-72294000D03*
X86928000Y-78074000D03*
D32*
X83278000Y-79504000D03*
D33*
X87458000Y-79504000D03*
X87458000Y-70864000D03*
D32*
X83278000Y-70864000D03*
M02*
