G04 #@! TF.GenerationSoftware,KiCad,Pcbnew,6.0.5*
G04 #@! TF.CreationDate,2022-09-29T12:45:26+03:00*
G04 #@! TF.ProjectId,opi-hat,6f70692d-6861-4742-9e6b-696361645f70,rev?*
G04 #@! TF.SameCoordinates,Original*
G04 #@! TF.FileFunction,Legend,Top*
G04 #@! TF.FilePolarity,Positive*
%FSLAX46Y46*%
G04 Gerber Fmt 4.6, Leading zero omitted, Abs format (unit mm)*
G04 Created by KiCad (PCBNEW 6.0.5) date 2022-09-29 12:45:26*
%MOMM*%
%LPD*%
G01*
G04 APERTURE LIST*
%ADD10C,0.150000*%
%ADD11C,0.092659*%
%ADD12C,0.120000*%
G04 #@! TA.AperFunction,Profile*
%ADD13C,0.127000*%
G04 #@! TD*
G04 APERTURE END LIST*
D10*
X89027095Y-56856380D02*
X89027095Y-57665904D01*
X89074714Y-57761142D01*
X89122333Y-57808761D01*
X89217571Y-57856380D01*
X89408047Y-57856380D01*
X89503285Y-57808761D01*
X89550904Y-57761142D01*
X89598523Y-57665904D01*
X89598523Y-56856380D01*
X90027095Y-56951619D02*
X90074714Y-56904000D01*
X90169952Y-56856380D01*
X90408047Y-56856380D01*
X90503285Y-56904000D01*
X90550904Y-56951619D01*
X90598523Y-57046857D01*
X90598523Y-57142095D01*
X90550904Y-57284952D01*
X89979476Y-57856380D01*
X90598523Y-57856380D01*
D11*
X87837070Y-96476463D02*
X88609230Y-95961689D01*
X87837070Y-95961689D02*
X88609230Y-96476463D01*
X88609230Y-95263068D02*
X88609230Y-95704303D01*
X88609230Y-95483685D02*
X87837070Y-95483685D01*
X87947379Y-95557224D01*
X88020918Y-95630764D01*
X88057687Y-95704303D01*
D10*
X107275380Y-58657952D02*
X107275380Y-59134142D01*
X107751571Y-59181761D01*
X107703952Y-59134142D01*
X107656333Y-59038904D01*
X107656333Y-58800809D01*
X107703952Y-58705571D01*
X107751571Y-58657952D01*
X107846809Y-58610333D01*
X108084904Y-58610333D01*
X108180142Y-58657952D01*
X108227761Y-58705571D01*
X108275380Y-58800809D01*
X108275380Y-59038904D01*
X108227761Y-59134142D01*
X108180142Y-59181761D01*
X107275380Y-58324619D02*
X108275380Y-57991285D01*
X107275380Y-57657952D01*
X108275380Y-57181761D02*
X108227761Y-57277000D01*
X108180142Y-57324619D01*
X108084904Y-57372238D01*
X107799190Y-57372238D01*
X107703952Y-57324619D01*
X107656333Y-57277000D01*
X107608714Y-57181761D01*
X107608714Y-57038904D01*
X107656333Y-56943666D01*
X107703952Y-56896047D01*
X107799190Y-56848428D01*
X108084904Y-56848428D01*
X108180142Y-56896047D01*
X108227761Y-56943666D01*
X108275380Y-57038904D01*
X108275380Y-57181761D01*
X107608714Y-55991285D02*
X108275380Y-55991285D01*
X107608714Y-56419857D02*
X108132523Y-56419857D01*
X108227761Y-56372238D01*
X108275380Y-56277000D01*
X108275380Y-56134142D01*
X108227761Y-56038904D01*
X108180142Y-55991285D01*
X107608714Y-55657952D02*
X107608714Y-55277000D01*
X107275380Y-55515095D02*
X108132523Y-55515095D01*
X108227761Y-55467476D01*
X108275380Y-55372238D01*
X108275380Y-55277000D01*
X102278904Y-74112380D02*
X102278904Y-73112380D01*
X102517000Y-73112380D01*
X102659857Y-73160000D01*
X102755095Y-73255238D01*
X102802714Y-73350476D01*
X102850333Y-73540952D01*
X102850333Y-73683809D01*
X102802714Y-73874285D01*
X102755095Y-73969523D01*
X102659857Y-74064761D01*
X102517000Y-74112380D01*
X102278904Y-74112380D01*
X103755095Y-73112380D02*
X103278904Y-73112380D01*
X103231285Y-73588571D01*
X103278904Y-73540952D01*
X103374142Y-73493333D01*
X103612238Y-73493333D01*
X103707476Y-73540952D01*
X103755095Y-73588571D01*
X103802714Y-73683809D01*
X103802714Y-73921904D01*
X103755095Y-74017142D01*
X103707476Y-74064761D01*
X103612238Y-74112380D01*
X103374142Y-74112380D01*
X103278904Y-74064761D01*
X103231285Y-74017142D01*
X99964904Y-71413666D02*
X100441095Y-71413666D01*
X99869666Y-71699380D02*
X100203000Y-70699380D01*
X100536333Y-71699380D01*
X114292190Y-86383761D02*
X114435047Y-86431380D01*
X114673142Y-86431380D01*
X114768380Y-86383761D01*
X114816000Y-86336142D01*
X114863619Y-86240904D01*
X114863619Y-86145666D01*
X114816000Y-86050428D01*
X114768380Y-86002809D01*
X114673142Y-85955190D01*
X114482666Y-85907571D01*
X114387428Y-85859952D01*
X114339809Y-85812333D01*
X114292190Y-85717095D01*
X114292190Y-85621857D01*
X114339809Y-85526619D01*
X114387428Y-85479000D01*
X114482666Y-85431380D01*
X114720761Y-85431380D01*
X114863619Y-85479000D01*
X115292190Y-86431380D02*
X115292190Y-85431380D01*
X115673142Y-85431380D01*
X115768380Y-85479000D01*
X115816000Y-85526619D01*
X115863619Y-85621857D01*
X115863619Y-85764714D01*
X115816000Y-85859952D01*
X115768380Y-85907571D01*
X115673142Y-85955190D01*
X115292190Y-85955190D01*
X116292190Y-86431380D02*
X116292190Y-85431380D01*
X93543380Y-91352523D02*
X93543380Y-91923952D01*
X93543380Y-91638238D02*
X92543380Y-91638238D01*
X92686238Y-91733476D01*
X92781476Y-91828714D01*
X92829095Y-91923952D01*
X92638619Y-90971571D02*
X92591000Y-90923952D01*
X92543380Y-90828714D01*
X92543380Y-90590619D01*
X92591000Y-90495380D01*
X92638619Y-90447761D01*
X92733857Y-90400142D01*
X92829095Y-90400142D01*
X92971952Y-90447761D01*
X93543380Y-91019190D01*
X93543380Y-90400142D01*
X92543380Y-90114428D02*
X93543380Y-89781095D01*
X92543380Y-89447761D01*
X93543380Y-89114428D02*
X92876714Y-89114428D01*
X92543380Y-89114428D02*
X92591000Y-89162047D01*
X92638619Y-89114428D01*
X92591000Y-89066809D01*
X92543380Y-89114428D01*
X92638619Y-89114428D01*
X92876714Y-88638238D02*
X93543380Y-88638238D01*
X92971952Y-88638238D02*
X92924333Y-88590619D01*
X92876714Y-88495380D01*
X92876714Y-88352523D01*
X92924333Y-88257285D01*
X93019571Y-88209666D01*
X93543380Y-88209666D01*
X107910333Y-63698380D02*
X107434142Y-63698380D01*
X107434142Y-62698380D01*
X108767476Y-63698380D02*
X108196047Y-63698380D01*
X108481761Y-63698380D02*
X108481761Y-62698380D01*
X108386523Y-62841238D01*
X108291285Y-62936476D01*
X108196047Y-62984095D01*
X102373133Y-77710442D02*
X102325514Y-77758061D01*
X102182657Y-77805680D01*
X102087419Y-77805680D01*
X101944561Y-77758061D01*
X101849323Y-77662823D01*
X101801704Y-77567585D01*
X101754085Y-77377109D01*
X101754085Y-77234252D01*
X101801704Y-77043776D01*
X101849323Y-76948538D01*
X101944561Y-76853300D01*
X102087419Y-76805680D01*
X102182657Y-76805680D01*
X102325514Y-76853300D01*
X102373133Y-76900919D01*
X102706466Y-76805680D02*
X103373133Y-76805680D01*
X102944561Y-77805680D01*
X111633095Y-81930380D02*
X111633095Y-82739904D01*
X111680714Y-82835142D01*
X111728333Y-82882761D01*
X111823571Y-82930380D01*
X112014047Y-82930380D01*
X112109285Y-82882761D01*
X112156904Y-82835142D01*
X112204523Y-82739904D01*
X112204523Y-81930380D01*
X112585476Y-81930380D02*
X113204523Y-81930380D01*
X112871190Y-82311333D01*
X113014047Y-82311333D01*
X113109285Y-82358952D01*
X113156904Y-82406571D01*
X113204523Y-82501809D01*
X113204523Y-82739904D01*
X113156904Y-82835142D01*
X113109285Y-82882761D01*
X113014047Y-82930380D01*
X112728333Y-82930380D01*
X112633095Y-82882761D01*
X112585476Y-82835142D01*
X95123095Y-87717380D02*
X95123095Y-88526904D01*
X95170714Y-88622142D01*
X95218333Y-88669761D01*
X95313571Y-88717380D01*
X95504047Y-88717380D01*
X95599285Y-88669761D01*
X95646904Y-88622142D01*
X95694523Y-88526904D01*
X95694523Y-87717380D01*
X96694523Y-88717380D02*
X96123095Y-88717380D01*
X96408809Y-88717380D02*
X96408809Y-87717380D01*
X96313571Y-87860238D01*
X96218333Y-87955476D01*
X96123095Y-88003095D01*
X107092904Y-82748380D02*
X107092904Y-81748380D01*
X107473857Y-81748380D01*
X107569095Y-81796000D01*
X107616714Y-81843619D01*
X107664333Y-81938857D01*
X107664333Y-82081714D01*
X107616714Y-82176952D01*
X107569095Y-82224571D01*
X107473857Y-82272190D01*
X107092904Y-82272190D01*
X108664333Y-82653142D02*
X108616714Y-82700761D01*
X108473857Y-82748380D01*
X108378619Y-82748380D01*
X108235761Y-82700761D01*
X108140523Y-82605523D01*
X108092904Y-82510285D01*
X108045285Y-82319809D01*
X108045285Y-82176952D01*
X108092904Y-81986476D01*
X108140523Y-81891238D01*
X108235761Y-81796000D01*
X108378619Y-81748380D01*
X108473857Y-81748380D01*
X108616714Y-81796000D01*
X108664333Y-81843619D01*
X109569095Y-81748380D02*
X109092904Y-81748380D01*
X109045285Y-82224571D01*
X109092904Y-82176952D01*
X109188142Y-82129333D01*
X109426238Y-82129333D01*
X109521476Y-82176952D01*
X109569095Y-82224571D01*
X109616714Y-82319809D01*
X109616714Y-82557904D01*
X109569095Y-82653142D01*
X109521476Y-82700761D01*
X109426238Y-82748380D01*
X109188142Y-82748380D01*
X109092904Y-82700761D01*
X109045285Y-82653142D01*
X99346095Y-81097380D02*
X99346095Y-80097380D01*
X99346095Y-80573571D02*
X99917523Y-80573571D01*
X99917523Y-81097380D02*
X99917523Y-80097380D01*
X100298476Y-80430714D02*
X100536571Y-81097380D01*
X100774666Y-80430714D02*
X100536571Y-81097380D01*
X100441333Y-81335476D01*
X100393714Y-81383095D01*
X100298476Y-81430714D01*
X101584190Y-81097380D02*
X101584190Y-80097380D01*
X101584190Y-81049761D02*
X101488952Y-81097380D01*
X101298476Y-81097380D01*
X101203238Y-81049761D01*
X101155619Y-81002142D01*
X101108000Y-80906904D01*
X101108000Y-80621190D01*
X101155619Y-80525952D01*
X101203238Y-80478333D01*
X101298476Y-80430714D01*
X101488952Y-80430714D01*
X101584190Y-80478333D01*
X102060380Y-81097380D02*
X102060380Y-80430714D01*
X102060380Y-80621190D02*
X102108000Y-80525952D01*
X102155619Y-80478333D01*
X102250857Y-80430714D01*
X102346095Y-80430714D01*
X103060380Y-81049761D02*
X102965142Y-81097380D01*
X102774666Y-81097380D01*
X102679428Y-81049761D01*
X102631809Y-80954523D01*
X102631809Y-80573571D01*
X102679428Y-80478333D01*
X102774666Y-80430714D01*
X102965142Y-80430714D01*
X103060380Y-80478333D01*
X103108000Y-80573571D01*
X103108000Y-80668809D01*
X102631809Y-80764047D01*
X103679428Y-81097380D02*
X103584190Y-81049761D01*
X103536571Y-81002142D01*
X103488952Y-80906904D01*
X103488952Y-80621190D01*
X103536571Y-80525952D01*
X103584190Y-80478333D01*
X103679428Y-80430714D01*
X103822285Y-80430714D01*
X103917523Y-80478333D01*
X103965142Y-80525952D01*
X104012761Y-80621190D01*
X104012761Y-80906904D01*
X103965142Y-81002142D01*
X103917523Y-81049761D01*
X103822285Y-81097380D01*
X103679428Y-81097380D01*
X104441333Y-80430714D02*
X104441333Y-81097380D01*
X104441333Y-80525952D02*
X104488952Y-80478333D01*
X104584190Y-80430714D01*
X104727047Y-80430714D01*
X104822285Y-80478333D01*
X104869904Y-80573571D01*
X104869904Y-81097380D01*
X94908809Y-74218380D02*
X94908809Y-73218380D01*
X95337380Y-73313619D02*
X95385000Y-73266000D01*
X95480238Y-73218380D01*
X95718333Y-73218380D01*
X95813571Y-73266000D01*
X95861190Y-73313619D01*
X95908809Y-73408857D01*
X95908809Y-73504095D01*
X95861190Y-73646952D01*
X95289761Y-74218380D01*
X95908809Y-74218380D01*
X96908809Y-74123142D02*
X96861190Y-74170761D01*
X96718333Y-74218380D01*
X96623095Y-74218380D01*
X96480238Y-74170761D01*
X96385000Y-74075523D01*
X96337380Y-73980285D01*
X96289761Y-73789809D01*
X96289761Y-73646952D01*
X96337380Y-73456476D01*
X96385000Y-73361238D01*
X96480238Y-73266000D01*
X96623095Y-73218380D01*
X96718333Y-73218380D01*
X96861190Y-73266000D01*
X96908809Y-73313619D01*
X103338333Y-56618142D02*
X103290714Y-56665761D01*
X103147857Y-56713380D01*
X103052619Y-56713380D01*
X102909761Y-56665761D01*
X102814523Y-56570523D01*
X102766904Y-56475285D01*
X102719285Y-56284809D01*
X102719285Y-56141952D01*
X102766904Y-55951476D01*
X102814523Y-55856238D01*
X102909761Y-55761000D01*
X103052619Y-55713380D01*
X103147857Y-55713380D01*
X103290714Y-55761000D01*
X103338333Y-55808619D01*
X104243095Y-55713380D02*
X103766904Y-55713380D01*
X103719285Y-56189571D01*
X103766904Y-56141952D01*
X103862142Y-56094333D01*
X104100238Y-56094333D01*
X104195476Y-56141952D01*
X104243095Y-56189571D01*
X104290714Y-56284809D01*
X104290714Y-56522904D01*
X104243095Y-56618142D01*
X104195476Y-56665761D01*
X104100238Y-56713380D01*
X103862142Y-56713380D01*
X103766904Y-56665761D01*
X103719285Y-56618142D01*
D12*
X97275000Y-58759000D02*
X98775000Y-58759000D01*
X98775000Y-58759000D02*
X98775000Y-59709000D01*
X97275000Y-69159000D02*
X98775000Y-69159000D01*
X98775000Y-68209000D02*
X103900000Y-68209000D01*
X98775000Y-69159000D02*
X98775000Y-68209000D01*
X98775000Y-59709000D02*
X99875000Y-59709000D01*
D13*
X126581299Y-51486900D02*
X84781300Y-51486900D01*
X129681299Y-57501509D02*
X129681299Y-54586900D01*
X81681300Y-54586900D02*
X81681300Y-94386900D01*
X129681299Y-57501509D02*
X115841253Y-57501509D01*
X115841253Y-57501509D02*
X115841253Y-83536509D01*
X115841253Y-83536509D02*
X121683253Y-83536509D01*
X121683253Y-90521509D02*
X129684253Y-90521509D01*
X129684253Y-90521509D02*
X129684253Y-94382309D01*
X84781300Y-97486899D02*
X126581299Y-97486899D01*
X121683253Y-83536509D02*
X121683253Y-90521509D01*
X126581299Y-97486894D02*
G75*
G03*
X129681298Y-94386900I4J3099995D01*
G01*
X81681300Y-94386900D02*
G75*
G03*
X84781300Y-97486900I3100000J0D01*
G01*
X84781300Y-51486900D02*
G75*
G03*
X81681300Y-54586900I0J-3100000D01*
G01*
X129681302Y-54586900D02*
G75*
G03*
X126581299Y-51486900I-3099999J1D01*
G01*
D12*
X112530000Y-59112000D02*
X114480000Y-59112000D01*
X115090000Y-58412000D02*
X114480000Y-58412000D01*
X108970000Y-58412000D02*
X109580000Y-58412000D01*
X111530000Y-59112000D02*
X111530000Y-59722000D01*
X115090000Y-55002000D02*
X108970000Y-55002000D01*
X111930000Y-56112000D02*
X111930000Y-55612000D01*
X109580000Y-55612000D02*
X109580000Y-59112000D01*
X112530000Y-59722000D02*
X112530000Y-59112000D01*
X115090000Y-57112000D02*
X114480000Y-57112000D01*
X114480000Y-55612000D02*
X109580000Y-55612000D01*
X112130000Y-55612000D02*
X112130000Y-56112000D01*
X114140000Y-60022000D02*
X115390000Y-60022000D01*
X114480000Y-59112000D02*
X114480000Y-55612000D01*
X115090000Y-59722000D02*
X115090000Y-55002000D01*
X113330000Y-59822000D02*
X113630000Y-59822000D01*
X108970000Y-57112000D02*
X109580000Y-57112000D01*
X115390000Y-60022000D02*
X115390000Y-58772000D01*
X109580000Y-59112000D02*
X111530000Y-59112000D01*
X108970000Y-55002000D02*
X108970000Y-59722000D01*
X113630000Y-59922000D02*
X113630000Y-59722000D01*
X113330000Y-59722000D02*
X113330000Y-59922000D01*
X112030000Y-55612000D02*
X112030000Y-56112000D01*
X108970000Y-59722000D02*
X115090000Y-59722000D01*
X112130000Y-56112000D02*
X111930000Y-56112000D01*
X113330000Y-59922000D02*
X113630000Y-59922000D01*
X103683640Y-72674000D02*
G75*
G03*
X103735580Y-69983819I2361360J1300000D01*
G01*
X109256000Y-89658000D02*
X109866000Y-89658000D01*
X109256000Y-91768000D02*
X121376000Y-91768000D01*
X114216000Y-91158000D02*
X114216000Y-90658000D01*
X120766000Y-91158000D02*
X120766000Y-87658000D01*
X116216000Y-91158000D02*
X116216000Y-90658000D01*
X118816000Y-87658000D02*
X118816000Y-87048000D01*
X118316000Y-91158000D02*
X118316000Y-90658000D01*
X121376000Y-89658000D02*
X120766000Y-89658000D01*
X112216000Y-90658000D02*
X112416000Y-90658000D01*
X118216000Y-90658000D02*
X118416000Y-90658000D01*
X111816000Y-87658000D02*
X109866000Y-87658000D01*
X121376000Y-91768000D02*
X121376000Y-87048000D01*
X112216000Y-91158000D02*
X112216000Y-90658000D01*
X116316000Y-91158000D02*
X116316000Y-90658000D01*
X111016000Y-87048000D02*
X111016000Y-86848000D01*
X109256000Y-87048000D02*
X109256000Y-91768000D01*
X121376000Y-87048000D02*
X109256000Y-87048000D01*
X112316000Y-91158000D02*
X112316000Y-90658000D01*
X120766000Y-87658000D02*
X118816000Y-87658000D01*
X111016000Y-86948000D02*
X110716000Y-86948000D01*
X110716000Y-86848000D02*
X110716000Y-87048000D01*
X114316000Y-91158000D02*
X114316000Y-90658000D01*
X116416000Y-90658000D02*
X116416000Y-91158000D01*
X109256000Y-88358000D02*
X109866000Y-88358000D01*
X109866000Y-87658000D02*
X109866000Y-91158000D01*
X110206000Y-86748000D02*
X108956000Y-86748000D01*
X118416000Y-90658000D02*
X118416000Y-91158000D01*
X111016000Y-86848000D02*
X110716000Y-86848000D01*
X112416000Y-90658000D02*
X112416000Y-91158000D01*
X114416000Y-90658000D02*
X114416000Y-91158000D01*
X111816000Y-87048000D02*
X111816000Y-87658000D01*
X121376000Y-88358000D02*
X120766000Y-88358000D01*
X114216000Y-90658000D02*
X114416000Y-90658000D01*
X118216000Y-91158000D02*
X118216000Y-90658000D01*
X116216000Y-90658000D02*
X116416000Y-90658000D01*
X108956000Y-86748000D02*
X108956000Y-87998000D01*
X109866000Y-91158000D02*
X120766000Y-91158000D01*
X81903000Y-81260000D02*
X81903000Y-91380000D01*
X91824000Y-81260000D02*
X91824000Y-91380000D01*
X81663000Y-81020000D02*
X81663000Y-81520000D01*
X82403000Y-81020000D02*
X81663000Y-81020000D01*
X87838000Y-89890000D02*
X87802000Y-89855000D01*
X91824000Y-91380000D02*
X81903000Y-91380000D01*
X85540000Y-87593000D02*
X85494000Y-87546000D01*
X87632000Y-90095000D02*
X87586000Y-90048000D01*
X88864000Y-81260000D02*
X88864000Y-91380000D01*
X82463000Y-81260000D02*
X82463000Y-91380000D01*
X85324000Y-87786000D02*
X85289000Y-87751000D01*
X91824000Y-81260000D02*
X81903000Y-81260000D01*
X83963000Y-81260000D02*
X83963000Y-91380000D01*
X85879000Y-85355001D02*
G75*
G03*
X87246042Y-85355427I684000J1535001D01*
G01*
X85028000Y-83136000D02*
G75*
G03*
X84882747Y-83848805I1535001J-683999D01*
G01*
X87247000Y-82285000D02*
G75*
G03*
X85879958Y-82284573I-684001J-1534993D01*
G01*
X84883000Y-83820000D02*
G75*
G03*
X85028244Y-84503318I1680000J0D01*
G01*
X88098000Y-84504000D02*
G75*
G03*
X88098427Y-83136958I-1534993J684001D01*
G01*
X88243000Y-88820000D02*
G75*
G03*
X88243000Y-88820000I-1680000J0D01*
G01*
X113655000Y-69534185D02*
G75*
G03*
X113655000Y-63307815I-1260000J3113185D01*
G01*
X111135000Y-63307815D02*
G75*
G03*
X111135000Y-69534185I1260000J-3113185D01*
G01*
X113799000Y-66421000D02*
G75*
G03*
X113799000Y-66421000I-1404000J0D01*
G01*
X103763800Y-74781800D02*
X103763800Y-78866800D01*
X105633800Y-78866800D02*
X105633800Y-74781800D01*
X105633800Y-74781800D02*
X103763800Y-74781800D01*
X109215000Y-74568000D02*
X109215000Y-75828000D01*
X112975000Y-74568000D02*
X109215000Y-74568000D01*
X109215000Y-81388000D02*
X109215000Y-80128000D01*
X115225000Y-81388000D02*
X109215000Y-81388000D01*
X100981000Y-87062000D02*
X99331000Y-87062000D01*
X99331000Y-92262000D02*
X104631000Y-92262000D01*
X99331000Y-87062000D02*
X99331000Y-92262000D01*
X104631000Y-87062000D02*
X102981000Y-87062000D01*
X104631000Y-92262000D02*
X104631000Y-87062000D01*
X100981000Y-87062000D02*
G75*
G03*
X102981000Y-87062000I1000000J0D01*
G01*
X107135000Y-86159000D02*
X107135000Y-83259000D01*
X110035000Y-83259000D02*
X110035000Y-86159000D01*
X107135000Y-83259000D02*
X110035000Y-83259000D01*
X110035000Y-86159000D02*
X107135000Y-86159000D01*
X102632000Y-82282000D02*
X102632000Y-82782000D01*
X103132000Y-85782000D02*
X105082000Y-85782000D01*
X105082000Y-82282000D02*
X98182000Y-82282000D01*
X100632000Y-82282000D02*
X100632000Y-82782000D01*
X102732000Y-82282000D02*
X102732000Y-82782000D01*
X97572000Y-83782000D02*
X98182000Y-83782000D01*
X100732000Y-82282000D02*
X100732000Y-82782000D01*
X105082000Y-85782000D02*
X105082000Y-82282000D01*
X105692000Y-81672000D02*
X97572000Y-81672000D01*
X98182000Y-85782000D02*
X100132000Y-85782000D01*
X100532000Y-82782000D02*
X100532000Y-82282000D01*
X98182000Y-82282000D02*
X98182000Y-85782000D01*
X102732000Y-82782000D02*
X102532000Y-82782000D01*
X97572000Y-86392000D02*
X105692000Y-86392000D01*
X97572000Y-85082000D02*
X98182000Y-85082000D01*
X103932000Y-86392000D02*
X103932000Y-86592000D01*
X102532000Y-82782000D02*
X102532000Y-82282000D01*
X104742000Y-86692000D02*
X105992000Y-86692000D01*
X105992000Y-86692000D02*
X105992000Y-85442000D01*
X100132000Y-85782000D02*
X100132000Y-86392000D01*
X105692000Y-85082000D02*
X105082000Y-85082000D01*
X103932000Y-86592000D02*
X104232000Y-86592000D01*
X100732000Y-82782000D02*
X100532000Y-82782000D01*
X103932000Y-86492000D02*
X104232000Y-86492000D01*
X103132000Y-86392000D02*
X103132000Y-85782000D01*
X105692000Y-86392000D02*
X105692000Y-81672000D01*
X104232000Y-86592000D02*
X104232000Y-86392000D01*
X97572000Y-81672000D02*
X97572000Y-86392000D01*
X105692000Y-83782000D02*
X105082000Y-83782000D01*
X100945000Y-74856000D02*
X90825000Y-74856000D01*
X97985000Y-75466000D02*
X97985000Y-75966000D01*
X97985000Y-75966000D02*
X97785000Y-75966000D01*
X95885000Y-75466000D02*
X95885000Y-75966000D01*
X90825000Y-76966000D02*
X91435000Y-76966000D01*
X90825000Y-78266000D02*
X91435000Y-78266000D01*
X93885000Y-75466000D02*
X93885000Y-75966000D01*
X99185000Y-79776000D02*
X99485000Y-79776000D01*
X91435000Y-75466000D02*
X91435000Y-78966000D01*
X99185000Y-79676000D02*
X99485000Y-79676000D01*
X93385000Y-78966000D02*
X93385000Y-79576000D01*
X93985000Y-75966000D02*
X93785000Y-75966000D01*
X93985000Y-75466000D02*
X93985000Y-75966000D01*
X95985000Y-75966000D02*
X95785000Y-75966000D01*
X99185000Y-79576000D02*
X99185000Y-79776000D01*
X100945000Y-78266000D02*
X100335000Y-78266000D01*
X95785000Y-75966000D02*
X95785000Y-75466000D01*
X99995000Y-79876000D02*
X101245000Y-79876000D01*
X97885000Y-75466000D02*
X97885000Y-75966000D01*
X97785000Y-75966000D02*
X97785000Y-75466000D01*
X98385000Y-79576000D02*
X98385000Y-78966000D01*
X100335000Y-75466000D02*
X91435000Y-75466000D01*
X91435000Y-78966000D02*
X93385000Y-78966000D01*
X95985000Y-75466000D02*
X95985000Y-75966000D01*
X98385000Y-78966000D02*
X100335000Y-78966000D01*
X90825000Y-74856000D02*
X90825000Y-79576000D01*
X99485000Y-79776000D02*
X99485000Y-79576000D01*
X90825000Y-79576000D02*
X100945000Y-79576000D01*
X101245000Y-79876000D02*
X101245000Y-78626000D01*
X100945000Y-79576000D02*
X100945000Y-74856000D01*
X93785000Y-75966000D02*
X93785000Y-75466000D01*
X100335000Y-78966000D02*
X100335000Y-75466000D01*
X100945000Y-76966000D02*
X100335000Y-76966000D01*
X102360000Y-57971000D02*
X102360000Y-54551000D01*
X102360000Y-54551000D02*
X95425000Y-54551000D01*
X95425000Y-57971000D02*
X102360000Y-57971000D01*
M02*
