G04 #@! TF.GenerationSoftware,KiCad,Pcbnew,6.0.5*
G04 #@! TF.CreationDate,2022-09-29T12:45:26+03:00*
G04 #@! TF.ProjectId,opi-hat,6f70692d-6861-4742-9e6b-696361645f70,rev?*
G04 #@! TF.SameCoordinates,Original*
G04 #@! TF.FileFunction,Copper,L2,Bot*
G04 #@! TF.FilePolarity,Positive*
%FSLAX46Y46*%
G04 Gerber Fmt 4.6, Leading zero omitted, Abs format (unit mm)*
G04 Created by KiCad (PCBNEW 6.0.5) date 2022-09-29 12:45:26*
%MOMM*%
%LPD*%
G01*
G04 APERTURE LIST*
G04 Aperture macros list*
%AMRoundRect*
0 Rectangle with rounded corners*
0 $1 Rounding radius*
0 $2 $3 $4 $5 $6 $7 $8 $9 X,Y pos of 4 corners*
0 Add a 4 corners polygon primitive as box body*
4,1,4,$2,$3,$4,$5,$6,$7,$8,$9,$2,$3,0*
0 Add four circle primitives for the rounded corners*
1,1,$1+$1,$2,$3*
1,1,$1+$1,$4,$5*
1,1,$1+$1,$6,$7*
1,1,$1+$1,$8,$9*
0 Add four rect primitives between the rounded corners*
20,1,$1+$1,$2,$3,$4,$5,0*
20,1,$1+$1,$4,$5,$6,$7,0*
20,1,$1+$1,$6,$7,$8,$9,0*
20,1,$1+$1,$8,$9,$2,$3,0*%
%AMOutline4P*
0 Free polygon, 4 corners , with rotation*
0 The origin of the aperture is its center*
0 number of corners: always 4*
0 $1 to $8 corner X, Y*
0 $9 Rotation angle, in degrees counterclockwise*
0 create outline with 4 corners*
4,1,4,$1,$2,$3,$4,$5,$6,$7,$8,$1,$2,$9*%
G04 Aperture macros list end*
G04 #@! TA.AperFunction,Profile*
%ADD10C,0.127000*%
G04 #@! TD*
G04 #@! TA.AperFunction,WasherPad*
%ADD11C,5.000000*%
G04 #@! TD*
G04 #@! TA.AperFunction,ComponentPad*
%ADD12R,1.508000X1.508000*%
G04 #@! TD*
G04 #@! TA.AperFunction,ComponentPad*
%ADD13C,1.508000*%
G04 #@! TD*
G04 #@! TA.AperFunction,ComponentPad*
%ADD14RoundRect,0.250000X0.350000X0.625000X-0.350000X0.625000X-0.350000X-0.625000X0.350000X-0.625000X0*%
G04 #@! TD*
G04 #@! TA.AperFunction,ComponentPad*
%ADD15O,1.200000X1.750000*%
G04 #@! TD*
G04 #@! TA.AperFunction,ComponentPad*
%ADD16R,2.600000X2.600000*%
G04 #@! TD*
G04 #@! TA.AperFunction,ComponentPad*
%ADD17O,2.600000X2.600000*%
G04 #@! TD*
G04 #@! TA.AperFunction,ComponentPad*
%ADD18RoundRect,0.250000X-0.350000X-0.625000X0.350000X-0.625000X0.350000X0.625000X-0.350000X0.625000X0*%
G04 #@! TD*
G04 #@! TA.AperFunction,ComponentPad*
%ADD19C,2.600000*%
G04 #@! TD*
G04 #@! TA.AperFunction,ComponentPad*
%ADD20C,2.000000*%
G04 #@! TD*
G04 #@! TA.AperFunction,ComponentPad*
%ADD21R,1.600000X1.600000*%
G04 #@! TD*
G04 #@! TA.AperFunction,ComponentPad*
%ADD22O,1.600000X1.600000*%
G04 #@! TD*
G04 #@! TA.AperFunction,ComponentPad*
%ADD23R,2.500000X2.500000*%
G04 #@! TD*
G04 #@! TA.AperFunction,SMDPad,CuDef*
%ADD24RoundRect,0.237500X0.237500X-0.300000X0.237500X0.300000X-0.237500X0.300000X-0.237500X-0.300000X0*%
G04 #@! TD*
G04 #@! TA.AperFunction,SMDPad,CuDef*
%ADD25RoundRect,0.237500X-0.237500X0.250000X-0.237500X-0.250000X0.237500X-0.250000X0.237500X0.250000X0*%
G04 #@! TD*
G04 #@! TA.AperFunction,SMDPad,CuDef*
%ADD26R,1.560000X0.650000*%
G04 #@! TD*
G04 #@! TA.AperFunction,SMDPad,CuDef*
%ADD27RoundRect,0.237500X-0.250000X-0.237500X0.250000X-0.237500X0.250000X0.237500X-0.250000X0.237500X0*%
G04 #@! TD*
G04 #@! TA.AperFunction,SMDPad,CuDef*
%ADD28RoundRect,0.237500X0.300000X0.237500X-0.300000X0.237500X-0.300000X-0.237500X0.300000X-0.237500X0*%
G04 #@! TD*
G04 #@! TA.AperFunction,SMDPad,CuDef*
%ADD29RoundRect,0.237500X0.250000X0.237500X-0.250000X0.237500X-0.250000X-0.237500X0.250000X-0.237500X0*%
G04 #@! TD*
G04 #@! TA.AperFunction,SMDPad,CuDef*
%ADD30R,2.500000X0.500000*%
G04 #@! TD*
G04 #@! TA.AperFunction,SMDPad,CuDef*
%ADD31R,2.500000X2.000000*%
G04 #@! TD*
G04 #@! TA.AperFunction,SMDPad,CuDef*
%ADD32RoundRect,0.237500X0.237500X-0.250000X0.237500X0.250000X-0.237500X0.250000X-0.237500X-0.250000X0*%
G04 #@! TD*
G04 #@! TA.AperFunction,SMDPad,CuDef*
%ADD33Outline4P,-1.800000X-1.150000X1.800000X-0.550000X1.800000X0.550000X-1.800000X1.150000X90.000000*%
G04 #@! TD*
G04 #@! TA.AperFunction,SMDPad,CuDef*
%ADD34Outline4P,-1.800000X-1.150000X1.800000X-0.550000X1.800000X0.550000X-1.800000X1.150000X270.000000*%
G04 #@! TD*
G04 #@! TA.AperFunction,SMDPad,CuDef*
%ADD35R,1.450000X0.600000*%
G04 #@! TD*
G04 #@! TA.AperFunction,SMDPad,CuDef*
%ADD36R,1.450000X0.300000*%
G04 #@! TD*
G04 #@! TA.AperFunction,ComponentPad*
%ADD37O,1.600000X1.000000*%
G04 #@! TD*
G04 #@! TA.AperFunction,ComponentPad*
%ADD38O,2.100000X1.000000*%
G04 #@! TD*
G04 #@! TA.AperFunction,SMDPad,CuDef*
%ADD39RoundRect,0.150000X-0.150000X0.512500X-0.150000X-0.512500X0.150000X-0.512500X0.150000X0.512500X0*%
G04 #@! TD*
G04 #@! TA.AperFunction,SMDPad,CuDef*
%ADD40R,1.000000X1.000000*%
G04 #@! TD*
G04 #@! TA.AperFunction,SMDPad,CuDef*
%ADD41RoundRect,0.250000X0.925000X-0.875000X0.925000X0.875000X-0.925000X0.875000X-0.925000X-0.875000X0*%
G04 #@! TD*
G04 #@! TA.AperFunction,ViaPad*
%ADD42C,1.000000*%
G04 #@! TD*
G04 #@! TA.AperFunction,Conductor*
%ADD43C,0.300000*%
G04 #@! TD*
G04 #@! TA.AperFunction,Conductor*
%ADD44C,1.000000*%
G04 #@! TD*
G04 #@! TA.AperFunction,Conductor*
%ADD45C,0.500000*%
G04 #@! TD*
G04 APERTURE END LIST*
D10*
X126581299Y-51486900D02*
X84781300Y-51486900D01*
X129681299Y-57501509D02*
X129681299Y-54586900D01*
X81681300Y-54586900D02*
X81681300Y-94386900D01*
X129681299Y-57501509D02*
X115841253Y-57501509D01*
X115841253Y-57501509D02*
X115841253Y-83536509D01*
X115841253Y-83536509D02*
X121683253Y-83536509D01*
X121683253Y-90521509D02*
X129684253Y-90521509D01*
X129684253Y-90521509D02*
X129684253Y-94382309D01*
X84781300Y-97486899D02*
X126581299Y-97486899D01*
X121683253Y-83536509D02*
X121683253Y-90521509D01*
X126581299Y-97486894D02*
G75*
G03*
X129681298Y-94386900I4J3099995D01*
G01*
X81681300Y-94386900D02*
G75*
G03*
X84781300Y-97486900I3100000J0D01*
G01*
X84781300Y-51486900D02*
G75*
G03*
X81681300Y-54586900I0J-3100000D01*
G01*
X129681302Y-54586900D02*
G75*
G03*
X126581299Y-51486900I-3099999J1D01*
G01*
D11*
X126736709Y-54431488D03*
X126736709Y-94542406D03*
X84625794Y-54431488D03*
X84625794Y-94542406D03*
D12*
X90441253Y-96236509D03*
D13*
X90441253Y-93696509D03*
X92981253Y-96236509D03*
X92981253Y-93696509D03*
X95521253Y-96236509D03*
X95521253Y-93696509D03*
X98061253Y-96236509D03*
X98061253Y-93696509D03*
X100601253Y-96236509D03*
X100601253Y-93696509D03*
X103141253Y-96236509D03*
X103141253Y-93696509D03*
X105681253Y-96236509D03*
X105681253Y-93696509D03*
X108221253Y-96236509D03*
X108221253Y-93696509D03*
X110761253Y-96236509D03*
X110761253Y-93696509D03*
X113301253Y-96236509D03*
X113301253Y-93696509D03*
X115841253Y-96236509D03*
X115841253Y-93696509D03*
X118381253Y-96236509D03*
X118381253Y-93696509D03*
X120921253Y-96236509D03*
X120921253Y-93696509D03*
D12*
X120921253Y-53056509D03*
D13*
X118381253Y-53056509D03*
X115841253Y-53056509D03*
X113301253Y-53056509D03*
X110761253Y-53056509D03*
X108221253Y-53056509D03*
X105681253Y-53056509D03*
X103141253Y-53056509D03*
X100601253Y-53056509D03*
X98061253Y-53056509D03*
X95521253Y-53056509D03*
X92981253Y-53056509D03*
X90441253Y-53056509D03*
D14*
X113030000Y-57912000D03*
D15*
X111030000Y-57912000D03*
D16*
X106045000Y-71374000D03*
D17*
X102235000Y-71374000D03*
D18*
X111316000Y-88858000D03*
D15*
X113316000Y-88858000D03*
X115316000Y-88858000D03*
X117316000Y-88858000D03*
X119316000Y-88858000D03*
D16*
X86563000Y-83820000D03*
D19*
X86563000Y-88820000D03*
D20*
X112395000Y-61421000D03*
X112395000Y-71421000D03*
D21*
X98171000Y-88392000D03*
D22*
X98171000Y-90932000D03*
X105791000Y-90932000D03*
X105791000Y-88392000D03*
D23*
X108585000Y-84709000D03*
D14*
X103632000Y-84582000D03*
D15*
X101632000Y-84582000D03*
X99632000Y-84582000D03*
D14*
X98885000Y-77766000D03*
D15*
X96885000Y-77766000D03*
X94885000Y-77766000D03*
X92885000Y-77766000D03*
D24*
X83820000Y-87095500D03*
X83820000Y-85370500D03*
D25*
X100584000Y-77343000D03*
X100584000Y-79168000D03*
D26*
X96901000Y-74671000D03*
X96901000Y-73721000D03*
X96901000Y-72771000D03*
X99601000Y-72771000D03*
X99601000Y-73721000D03*
X99601000Y-74671000D03*
D27*
X92940500Y-63119000D03*
X94765500Y-63119000D03*
D28*
X114400500Y-77978000D03*
X112675500Y-77978000D03*
D27*
X93091000Y-74803000D03*
X94916000Y-74803000D03*
X92940500Y-64643000D03*
X94765500Y-64643000D03*
D29*
X101750500Y-90932000D03*
X99925500Y-90932000D03*
D30*
X89477000Y-65100000D03*
X89477000Y-64300000D03*
X89477000Y-63500000D03*
X89477000Y-62700000D03*
X89477000Y-61900000D03*
D31*
X83977000Y-59100000D03*
X83977000Y-67900000D03*
X89477000Y-67900000D03*
X89477000Y-59100000D03*
D32*
X91313000Y-72818000D03*
X91313000Y-70993000D03*
D27*
X96346000Y-80899000D03*
X98171000Y-80899000D03*
D25*
X90551000Y-77042000D03*
X90551000Y-78867000D03*
D26*
X97837000Y-64831000D03*
X97837000Y-63881000D03*
X97837000Y-62931000D03*
X100537000Y-62931000D03*
X100537000Y-63881000D03*
X100537000Y-64831000D03*
D28*
X114400500Y-75692000D03*
X112675500Y-75692000D03*
D27*
X93044000Y-73279000D03*
X94869000Y-73279000D03*
D25*
X105537000Y-84535000D03*
X105537000Y-86360000D03*
D33*
X90805000Y-88985000D03*
D34*
X90805000Y-83185000D03*
D35*
X88373000Y-78434000D03*
X88373000Y-77634000D03*
D36*
X88373000Y-76434000D03*
X88373000Y-75434000D03*
X88373000Y-74934000D03*
X88373000Y-73934000D03*
D35*
X88373000Y-72734000D03*
X88373000Y-71934000D03*
X88373000Y-71934000D03*
X88373000Y-72734000D03*
D36*
X88373000Y-73434000D03*
X88373000Y-74434000D03*
X88373000Y-75934000D03*
X88373000Y-76934000D03*
D35*
X88373000Y-77634000D03*
X88373000Y-78434000D03*
D37*
X83278000Y-79504000D03*
D38*
X87458000Y-79504000D03*
X87458000Y-70864000D03*
D37*
X83278000Y-70864000D03*
D39*
X113350000Y-84460500D03*
X114300000Y-84460500D03*
X115250000Y-84460500D03*
X115250000Y-86735500D03*
X113350000Y-86735500D03*
D25*
X101600000Y-86844500D03*
X101600000Y-88669500D03*
D40*
X94742000Y-80264000D03*
X92242000Y-80264000D03*
D41*
X94996000Y-88773000D03*
X94996000Y-83673000D03*
D42*
X109931200Y-75082400D03*
X99568000Y-82931000D03*
X105410000Y-80391000D03*
X107442000Y-90932000D03*
X110536744Y-90932000D03*
X97663000Y-70739000D03*
X84328000Y-81407000D03*
X114300000Y-82423000D03*
X119761000Y-55626000D03*
X109601000Y-65151000D03*
X96139000Y-91059000D03*
X107950000Y-82296000D03*
X106222800Y-77978000D03*
X118110000Y-85344000D03*
X111252000Y-79883000D03*
X93345000Y-81661000D03*
X94234000Y-94996000D03*
X96774000Y-94996000D03*
X96139000Y-79502000D03*
X117221000Y-91313000D03*
X113284000Y-91313000D03*
X106299000Y-67437000D03*
D43*
X114400500Y-74979700D02*
X113995200Y-74574400D01*
X114400500Y-75692000D02*
X114400500Y-74979700D01*
X113995200Y-74574400D02*
X110439200Y-74574400D01*
X110439200Y-74574400D02*
X109931200Y-75082400D01*
D44*
X86563000Y-88820000D02*
X90640000Y-88820000D01*
X90640000Y-88820000D02*
X90805000Y-88985000D01*
X98552000Y-84582000D02*
X99632000Y-84582000D01*
X90805000Y-88985000D02*
X94784000Y-88985000D01*
X99568000Y-82931000D02*
X99568000Y-84518000D01*
D43*
X84838500Y-87095500D02*
X83820000Y-87095500D01*
D44*
X99568000Y-84518000D02*
X99632000Y-84582000D01*
X94784000Y-88985000D02*
X94996000Y-88773000D01*
X94996000Y-88138000D02*
X98552000Y-84582000D01*
X94996000Y-88773000D02*
X94996000Y-88138000D01*
D43*
X86563000Y-88820000D02*
X84838500Y-87095500D01*
X103632000Y-82677000D02*
X103632000Y-84582000D01*
X90805000Y-79121000D02*
X90805000Y-83185000D01*
X112522000Y-56134000D02*
X113030000Y-56642000D01*
X90551000Y-78867000D02*
X88806000Y-78867000D01*
X92885000Y-76914000D02*
X93726000Y-76073000D01*
X94996000Y-83673000D02*
X97624598Y-83673000D01*
X90551000Y-78867000D02*
X90805000Y-79121000D01*
X100144598Y-81153000D02*
X100925000Y-81153000D01*
X100601253Y-96236509D02*
X101841762Y-94996000D01*
X85636000Y-62700000D02*
X85217000Y-63119000D01*
D44*
X90170000Y-83820000D02*
X90805000Y-83185000D01*
D43*
X96888762Y-92329000D02*
X99314000Y-92329000D01*
X96901000Y-73721000D02*
X97755022Y-73721000D01*
D44*
X94996000Y-83673000D02*
X91293000Y-83673000D01*
D43*
X89477000Y-61900000D02*
X98730000Y-61900000D01*
X113030000Y-81153000D02*
X114300000Y-82423000D01*
X98044000Y-75565000D02*
X98186511Y-75422489D01*
X99314000Y-92329000D02*
X99925500Y-91717500D01*
X93726000Y-76073000D02*
X95758000Y-76073000D01*
X96266000Y-75565000D02*
X98044000Y-75565000D01*
X83278000Y-79504000D02*
X87458000Y-79504000D01*
X104381762Y-94996000D02*
X105681253Y-93696509D01*
X107442000Y-90932000D02*
X105791000Y-90932000D01*
X95758000Y-76073000D02*
X96266000Y-75565000D01*
X89477000Y-61900000D02*
X89477000Y-62700000D01*
X110490000Y-56134000D02*
X112522000Y-56134000D01*
X84328000Y-81585000D02*
X86563000Y-83820000D01*
X87458000Y-79349000D02*
X88373000Y-78434000D01*
D44*
X86563000Y-83820000D02*
X90170000Y-83820000D01*
D43*
X104013000Y-69596000D02*
X104013000Y-68834000D01*
X95521253Y-93696509D02*
X96888762Y-92329000D01*
X109093000Y-81153000D02*
X110109000Y-81153000D01*
X102108000Y-81153000D02*
X105410000Y-81153000D01*
X110109000Y-81153000D02*
X113030000Y-81153000D01*
X89410000Y-70864000D02*
X91184000Y-70864000D01*
X83278000Y-79504000D02*
X83278000Y-70864000D01*
X104013000Y-62611000D02*
X110490000Y-56134000D01*
X85217000Y-65532000D02*
X87458000Y-67773000D01*
X84328000Y-81407000D02*
X84328000Y-81585000D01*
X112675500Y-77978000D02*
X111506000Y-77978000D01*
X114300000Y-85594960D02*
X114171480Y-85723480D01*
X98186511Y-74152489D02*
X98186511Y-75422489D01*
X87458000Y-79504000D02*
X87458000Y-79349000D01*
D44*
X91293000Y-83673000D02*
X90805000Y-83185000D01*
D43*
X101841762Y-94996000D02*
X104381762Y-94996000D01*
X111316000Y-88858000D02*
X111316000Y-90152744D01*
X85217000Y-63119000D02*
X85217000Y-65532000D01*
X105791000Y-90932000D02*
X105791000Y-93586762D01*
X99060000Y-62230000D02*
X99060000Y-63555572D01*
X111316000Y-86296000D02*
X111888520Y-85723480D01*
X87458000Y-70864000D02*
X89410000Y-70864000D01*
X114300000Y-84460500D02*
X114300000Y-82423000D01*
X99314000Y-94949256D02*
X99314000Y-92329000D01*
X105410000Y-80391000D02*
X105410000Y-81153000D01*
X99925500Y-91717500D02*
X99925500Y-90932000D01*
X110109000Y-79375000D02*
X110109000Y-81153000D01*
X89477000Y-62700000D02*
X85636000Y-62700000D01*
X88806000Y-78867000D02*
X88373000Y-78434000D01*
X85370500Y-83820000D02*
X83820000Y-85370500D01*
X100925000Y-81153000D02*
X102108000Y-81153000D01*
X102235000Y-71374000D02*
X104013000Y-69596000D01*
X92885000Y-77766000D02*
X92885000Y-79621000D01*
X105791000Y-93586762D02*
X105681253Y-93696509D01*
X91184000Y-70864000D02*
X91313000Y-70993000D01*
X98730000Y-61900000D02*
X99060000Y-62230000D01*
X113301253Y-93696509D02*
X110536744Y-90932000D01*
X88373000Y-71901000D02*
X89410000Y-70864000D01*
X111888520Y-85723480D02*
X114171480Y-85723480D01*
X91948000Y-80264000D02*
X90551000Y-78867000D01*
X92242000Y-80264000D02*
X91948000Y-80264000D01*
X97624598Y-83673000D02*
X100144598Y-81153000D01*
X104013000Y-68834000D02*
X99568000Y-68834000D01*
X102108000Y-81153000D02*
X103632000Y-82677000D01*
X114300000Y-84460500D02*
X114300000Y-85594960D01*
X83278000Y-70864000D02*
X87458000Y-70864000D01*
X100601253Y-96236509D02*
X99314000Y-94949256D01*
X104013000Y-68834000D02*
X104013000Y-62611000D01*
X98734572Y-63881000D02*
X97837000Y-63881000D01*
X111316000Y-90152744D02*
X110536744Y-90932000D01*
X105410000Y-81153000D02*
X109093000Y-81153000D01*
X99060000Y-63555572D02*
X98734572Y-63881000D01*
X88373000Y-71934000D02*
X88373000Y-71901000D01*
X111316000Y-88858000D02*
X111316000Y-86296000D01*
X99568000Y-68834000D02*
X97663000Y-70739000D01*
X92885000Y-77766000D02*
X92885000Y-76914000D01*
X112675500Y-75692000D02*
X112675500Y-77978000D01*
X86563000Y-83820000D02*
X85370500Y-83820000D01*
X92885000Y-79621000D02*
X92242000Y-80264000D01*
X97755022Y-73721000D02*
X98186511Y-74152489D01*
X87458000Y-67773000D02*
X87458000Y-70864000D01*
X113030000Y-56642000D02*
X113030000Y-57912000D01*
X111506000Y-77978000D02*
X110109000Y-79375000D01*
D44*
X112395000Y-62357000D02*
X109601000Y-65151000D01*
X120921253Y-54465747D02*
X119761000Y-55626000D01*
D45*
X111030000Y-57912000D02*
X111030000Y-60056000D01*
X111030000Y-60056000D02*
X112395000Y-61421000D01*
D44*
X92981253Y-93696509D02*
X90441253Y-93696509D01*
X95250000Y-91948000D02*
X94729762Y-91948000D01*
X96139000Y-91059000D02*
X95250000Y-91948000D01*
X120921253Y-53056509D02*
X120921253Y-54465747D01*
X94729762Y-91948000D02*
X92981253Y-93696509D01*
X112395000Y-61421000D02*
X112395000Y-62357000D01*
D45*
X119316000Y-88858000D02*
X119316000Y-86550000D01*
X100584000Y-79168000D02*
X103407200Y-79168000D01*
X98886000Y-79168000D02*
X98886000Y-77767000D01*
D43*
X98886000Y-79168000D02*
X98885000Y-79169000D01*
X113665000Y-79883000D02*
X111252000Y-79883000D01*
X98885000Y-80185000D02*
X98171000Y-80899000D01*
D45*
X104597200Y-77978000D02*
X106222800Y-77978000D01*
D43*
X114400500Y-77978000D02*
X114400500Y-79147500D01*
X105537000Y-84535000D02*
X105537000Y-83820000D01*
X98886000Y-77767000D02*
X98885000Y-77766000D01*
D45*
X100584000Y-79168000D02*
X98886000Y-79168000D01*
D43*
X98885000Y-79169000D02*
X98885000Y-80185000D01*
D45*
X119316000Y-86550000D02*
X118110000Y-85344000D01*
D43*
X107061000Y-82296000D02*
X107950000Y-82296000D01*
X105537000Y-83820000D02*
X107061000Y-82296000D01*
D45*
X103407200Y-79168000D02*
X104597200Y-77978000D01*
D43*
X114400500Y-79147500D02*
X113665000Y-79883000D01*
X92993491Y-96236509D02*
X94234000Y-94996000D01*
X94885000Y-80121000D02*
X94742000Y-80264000D01*
X94885000Y-77766000D02*
X94885000Y-80121000D01*
X93345000Y-81661000D02*
X94742000Y-80264000D01*
X92981253Y-96236509D02*
X92993491Y-96236509D01*
X96346000Y-80899000D02*
X95377000Y-80899000D01*
X95377000Y-80899000D02*
X94742000Y-80264000D01*
X96885000Y-77232000D02*
X97917000Y-76200000D01*
X100584000Y-76708000D02*
X100584000Y-77343000D01*
X96774000Y-94996000D02*
X96761762Y-94996000D01*
X96761762Y-94996000D02*
X95521253Y-96236509D01*
X96885000Y-77766000D02*
X96885000Y-78756000D01*
X96885000Y-78756000D02*
X96139000Y-79502000D01*
X97917000Y-76200000D02*
X100076000Y-76200000D01*
X96885000Y-77766000D02*
X96885000Y-77232000D01*
X100076000Y-76200000D02*
X100584000Y-76708000D01*
X107823000Y-92456000D02*
X107315000Y-92456000D01*
X106934000Y-92837000D02*
X106934000Y-94983762D01*
X113101500Y-84709000D02*
X108585000Y-84709000D01*
X106934000Y-92837000D02*
X107315000Y-92456000D01*
X108585000Y-84709000D02*
X108585000Y-91694000D01*
X108585000Y-91694000D02*
X107823000Y-92456000D01*
X113350000Y-84460500D02*
X113101500Y-84709000D01*
X106934000Y-94983762D02*
X105681253Y-96236509D01*
X117316000Y-86526500D02*
X115250000Y-84460500D01*
X117316000Y-89757000D02*
X119634000Y-92075000D01*
X119634000Y-94983762D02*
X118381253Y-96236509D01*
X117316000Y-88858000D02*
X117316000Y-86526500D01*
X117316000Y-88858000D02*
X117316000Y-89757000D01*
X119634000Y-92075000D02*
X119634000Y-94983762D01*
X115316000Y-88858000D02*
X115316000Y-86801500D01*
X114554000Y-92329000D02*
X114554000Y-94983762D01*
X115316000Y-86801500D02*
X115250000Y-86735500D01*
X114554000Y-94983762D02*
X113301253Y-96236509D01*
X115316000Y-88858000D02*
X115316000Y-91567000D01*
X115316000Y-91567000D02*
X114554000Y-92329000D01*
X113350000Y-88824000D02*
X113316000Y-88858000D01*
X115841253Y-96236509D02*
X117221000Y-94856762D01*
X117221000Y-94856762D02*
X117221000Y-91694000D01*
X113284000Y-91313000D02*
X113284000Y-88890000D01*
X113284000Y-88890000D02*
X113316000Y-88858000D01*
X117221000Y-91694000D02*
X117221000Y-91313000D01*
X113350000Y-86735500D02*
X113350000Y-88824000D01*
D44*
X106299000Y-67437000D02*
X106299000Y-71120000D01*
X112395000Y-71421000D02*
X106092000Y-71421000D01*
X106092000Y-71421000D02*
X106045000Y-71374000D01*
X106299000Y-71120000D02*
X106045000Y-71374000D01*
D43*
X101632000Y-84582000D02*
X101632000Y-86812500D01*
X101632000Y-86812500D02*
X101600000Y-86844500D01*
X100052500Y-88392000D02*
X98171000Y-88392000D01*
X101600000Y-86844500D02*
X100052500Y-88392000D01*
X88373000Y-76434000D02*
X89943000Y-76434000D01*
X89943000Y-76434000D02*
X90551000Y-77042000D01*
X114427000Y-72517000D02*
X113538000Y-73406000D01*
X99601000Y-72771000D02*
X101092000Y-72771000D01*
X101727000Y-73406000D02*
X113538000Y-73406000D01*
X113301253Y-55516253D02*
X114427000Y-56642000D01*
X113301253Y-53056509D02*
X113301253Y-55516253D01*
X101092000Y-72771000D02*
X101727000Y-73406000D01*
X114427000Y-56642000D02*
X114427000Y-72517000D01*
X113792000Y-73914000D02*
X104140000Y-73914000D01*
X115841253Y-55608747D02*
X114935000Y-56515000D01*
X114935000Y-56515000D02*
X114935000Y-72771000D01*
X103383000Y-74671000D02*
X104140000Y-73914000D01*
X99601000Y-74671000D02*
X103383000Y-74671000D01*
X114935000Y-72771000D02*
X113792000Y-73914000D01*
X115841253Y-53056509D02*
X115841253Y-55608747D01*
X88373000Y-73434000D02*
X90697000Y-73434000D01*
X90697000Y-73434000D02*
X91313000Y-72818000D01*
X101793000Y-64831000D02*
X100537000Y-64831000D01*
X110761253Y-54592747D02*
X102362000Y-62992000D01*
X102362000Y-64262000D02*
X101793000Y-64831000D01*
X102362000Y-62992000D02*
X102362000Y-64262000D01*
X110761253Y-53056509D02*
X110761253Y-54592747D01*
X108221253Y-56370747D02*
X108221253Y-53056509D01*
X100537000Y-62931000D02*
X101661000Y-62931000D01*
X101661000Y-62931000D02*
X108221253Y-56370747D01*
X100607500Y-89789000D02*
X101750500Y-90932000D01*
X99314000Y-89789000D02*
X100607500Y-89789000D01*
X101750500Y-88820000D02*
X101600000Y-88669500D01*
X101750500Y-90932000D02*
X101750500Y-88820000D01*
X98171000Y-90932000D02*
X99314000Y-89789000D01*
X102997000Y-91186000D02*
X105791000Y-88392000D01*
X102095762Y-92202000D02*
X102616000Y-92202000D01*
X102997000Y-91821000D02*
X102997000Y-91186000D01*
X102616000Y-92202000D02*
X102997000Y-91821000D01*
X105791000Y-88392000D02*
X105791000Y-86614000D01*
X105791000Y-86614000D02*
X105537000Y-86360000D01*
X100601253Y-93696509D02*
X102095762Y-92202000D01*
X96901000Y-72771000D02*
X95377000Y-72771000D01*
X95377000Y-72771000D02*
X94869000Y-73279000D01*
X96901000Y-74671000D02*
X95048000Y-74671000D01*
X95048000Y-74671000D02*
X94916000Y-74803000D01*
X88373000Y-72734000D02*
X89826000Y-72734000D01*
X87512629Y-77634000D02*
X88373000Y-77634000D01*
X86282814Y-76404186D02*
X87512629Y-77634000D01*
X98298000Y-72517000D02*
X98298000Y-73498000D01*
X88373000Y-72734000D02*
X87512629Y-72734000D01*
X98521000Y-73721000D02*
X99601000Y-73721000D01*
X89826000Y-72734000D02*
X90579020Y-71980980D01*
X98298000Y-73498000D02*
X98521000Y-73721000D01*
X87512629Y-72734000D02*
X86282814Y-73963814D01*
X97761980Y-71980980D02*
X98298000Y-72517000D01*
X90579020Y-71980980D02*
X97761980Y-71980980D01*
X86282814Y-73963814D02*
X86282814Y-76404186D01*
X87364000Y-74434000D02*
X86995000Y-74803000D01*
X88373000Y-74434000D02*
X91889000Y-74434000D01*
X88373000Y-74434000D02*
X87364000Y-74434000D01*
X86995000Y-74803000D02*
X86995000Y-75057000D01*
X87372000Y-75434000D02*
X88373000Y-75434000D01*
X86995000Y-75057000D02*
X87372000Y-75434000D01*
X91889000Y-74434000D02*
X93044000Y-73279000D01*
X92960000Y-74934000D02*
X93091000Y-74803000D01*
X89920000Y-75561000D02*
X89920000Y-74934000D01*
X88373000Y-74934000D02*
X89920000Y-74934000D01*
X88373000Y-75934000D02*
X89547000Y-75934000D01*
X89920000Y-74934000D02*
X92960000Y-74934000D01*
X89547000Y-75934000D02*
X89920000Y-75561000D01*
X91008000Y-65100000D02*
X92202000Y-66294000D01*
X99187000Y-64135000D02*
X99441000Y-63881000D01*
X89477000Y-65100000D02*
X91008000Y-65100000D01*
X92202000Y-66294000D02*
X99060000Y-66294000D01*
X99060000Y-66294000D02*
X99187000Y-66167000D01*
X99187000Y-66167000D02*
X99187000Y-64135000D01*
X99441000Y-63881000D02*
X100537000Y-63881000D01*
X91478000Y-64300000D02*
X91821000Y-64643000D01*
X91821000Y-64643000D02*
X92940500Y-64643000D01*
X89477000Y-64300000D02*
X91478000Y-64300000D01*
X91821000Y-63119000D02*
X91440000Y-63500000D01*
X91440000Y-63500000D02*
X89477000Y-63500000D01*
X92940500Y-63119000D02*
X91821000Y-63119000D01*
X94953500Y-64831000D02*
X94765500Y-64643000D01*
X97837000Y-64831000D02*
X94953500Y-64831000D01*
X97837000Y-62931000D02*
X94953500Y-62931000D01*
X94953500Y-62931000D02*
X94765500Y-63119000D01*
G04 #@! TA.AperFunction,Conductor*
G36*
X121116874Y-84065011D02*
G01*
X121163367Y-84118667D01*
X121174753Y-84171009D01*
X121174753Y-90512886D01*
X121174751Y-90513656D01*
X121174277Y-90591230D01*
X121176744Y-90599861D01*
X121182403Y-90619662D01*
X121185981Y-90636424D01*
X121190173Y-90665696D01*
X121193887Y-90673864D01*
X121193887Y-90673865D01*
X121200801Y-90689071D01*
X121207249Y-90706595D01*
X121214304Y-90731280D01*
X121219096Y-90738874D01*
X121219097Y-90738877D01*
X121230083Y-90756289D01*
X121238222Y-90771372D01*
X121250461Y-90798291D01*
X121256322Y-90805093D01*
X121267223Y-90817744D01*
X121278326Y-90832748D01*
X121292029Y-90854467D01*
X121298754Y-90860406D01*
X121298757Y-90860410D01*
X121314191Y-90874041D01*
X121326235Y-90886233D01*
X121339680Y-90901836D01*
X121339683Y-90901838D01*
X121345540Y-90908636D01*
X121353069Y-90913516D01*
X121353070Y-90913517D01*
X121367088Y-90922603D01*
X121381962Y-90933894D01*
X121393194Y-90943813D01*
X121401204Y-90950887D01*
X121427964Y-90963451D01*
X121442944Y-90971772D01*
X121460236Y-90982980D01*
X121460241Y-90982982D01*
X121467768Y-90987861D01*
X121476361Y-90990431D01*
X121476366Y-90990433D01*
X121492373Y-90995220D01*
X121509817Y-91001881D01*
X121524929Y-91008976D01*
X121524931Y-91008977D01*
X121533053Y-91012790D01*
X121541920Y-91014171D01*
X121541921Y-91014171D01*
X121551563Y-91015672D01*
X121562270Y-91017339D01*
X121578985Y-91021122D01*
X121598719Y-91027024D01*
X121598725Y-91027025D01*
X121607319Y-91029595D01*
X121616290Y-91029650D01*
X121616291Y-91029650D01*
X121626350Y-91029711D01*
X121641759Y-91029805D01*
X121642542Y-91029838D01*
X121643639Y-91030009D01*
X121674630Y-91030009D01*
X121675400Y-91030011D01*
X121749038Y-91030461D01*
X121749039Y-91030461D01*
X121752974Y-91030485D01*
X121754318Y-91030101D01*
X121755663Y-91030009D01*
X129049753Y-91030009D01*
X129117874Y-91050011D01*
X129164367Y-91103667D01*
X129175753Y-91156009D01*
X129175753Y-92426711D01*
X129155751Y-92494832D01*
X129102095Y-92541325D01*
X129031821Y-92551429D01*
X128967241Y-92521935D01*
X128957453Y-92512482D01*
X128929476Y-92482375D01*
X128822551Y-92367310D01*
X128558728Y-92141984D01*
X128541390Y-92130333D01*
X128473425Y-92084663D01*
X128270756Y-91948475D01*
X128243295Y-91934301D01*
X127965670Y-91791008D01*
X127962450Y-91789346D01*
X127637898Y-91666708D01*
X127634377Y-91665824D01*
X127634372Y-91665822D01*
X127434388Y-91615590D01*
X127301401Y-91582186D01*
X127279185Y-91579261D01*
X126961024Y-91537374D01*
X126961016Y-91537373D01*
X126957420Y-91536900D01*
X126812754Y-91534627D01*
X126614155Y-91531507D01*
X126614151Y-91531507D01*
X126610513Y-91531450D01*
X126606899Y-91531811D01*
X126606893Y-91531811D01*
X126377728Y-91554685D01*
X126265278Y-91565909D01*
X125926292Y-91639820D01*
X125922865Y-91640993D01*
X125922859Y-91640995D01*
X125607289Y-91749039D01*
X125598048Y-91752203D01*
X125284897Y-91901569D01*
X125281818Y-91903500D01*
X125281817Y-91903501D01*
X125232718Y-91934301D01*
X124990988Y-92085938D01*
X124988152Y-92088210D01*
X124988145Y-92088215D01*
X124792685Y-92244808D01*
X124720218Y-92302865D01*
X124623435Y-92400667D01*
X124503864Y-92521497D01*
X124476175Y-92549477D01*
X124473934Y-92552335D01*
X124267076Y-92816152D01*
X124262095Y-92822504D01*
X124260202Y-92825593D01*
X124260200Y-92825596D01*
X124213942Y-92901082D01*
X124080814Y-93118327D01*
X124079289Y-93121612D01*
X124079287Y-93121616D01*
X124040214Y-93205792D01*
X123934736Y-93433026D01*
X123904295Y-93525072D01*
X123833035Y-93740541D01*
X123825796Y-93762429D01*
X123755439Y-94102170D01*
X123747381Y-94192463D01*
X123730206Y-94384905D01*
X123724597Y-94447747D01*
X123724692Y-94451377D01*
X123724692Y-94451378D01*
X123733436Y-94785306D01*
X123733679Y-94794577D01*
X123782565Y-95138066D01*
X123870606Y-95473659D01*
X123996636Y-95796909D01*
X123998333Y-95800114D01*
X124131822Y-96052231D01*
X124158984Y-96103532D01*
X124161034Y-96106515D01*
X124161036Y-96106518D01*
X124353442Y-96386470D01*
X124353448Y-96386477D01*
X124355499Y-96389462D01*
X124583575Y-96650911D01*
X124614301Y-96678869D01*
X124702589Y-96759205D01*
X124739512Y-96819846D01*
X124737789Y-96890821D01*
X124697967Y-96949598D01*
X124632689Y-96977515D01*
X124617790Y-96978399D01*
X122165548Y-96978399D01*
X122097427Y-96958397D01*
X122050934Y-96904741D01*
X122040830Y-96834467D01*
X122051353Y-96799149D01*
X122109352Y-96674770D01*
X122113098Y-96664477D01*
X122167404Y-96461805D01*
X122169307Y-96451010D01*
X122187595Y-96241984D01*
X122187595Y-96231034D01*
X122169307Y-96022008D01*
X122167404Y-96011213D01*
X122113098Y-95808541D01*
X122109352Y-95798249D01*
X122020676Y-95608084D01*
X122015198Y-95598594D01*
X121985714Y-95556487D01*
X121975238Y-95548113D01*
X121961790Y-95555182D01*
X121010348Y-96506624D01*
X120948036Y-96540650D01*
X120877221Y-96535585D01*
X120832158Y-96506624D01*
X120651138Y-96325604D01*
X120617112Y-96263292D01*
X120622177Y-96192477D01*
X120651138Y-96147414D01*
X121603302Y-95195250D01*
X121609732Y-95183475D01*
X121600436Y-95171460D01*
X121559172Y-95142567D01*
X121549677Y-95137084D01*
X121429360Y-95080980D01*
X121376075Y-95034063D01*
X121356614Y-94965786D01*
X121377156Y-94897826D01*
X121429360Y-94852590D01*
X121549928Y-94796369D01*
X121549933Y-94796366D01*
X121554915Y-94794043D01*
X121595683Y-94765497D01*
X121731362Y-94670494D01*
X121731365Y-94670492D01*
X121735873Y-94667335D01*
X121892079Y-94511129D01*
X122018787Y-94330170D01*
X122100065Y-94155870D01*
X122109824Y-94134941D01*
X122109825Y-94134940D01*
X122112147Y-94129959D01*
X122169323Y-93916577D01*
X122188576Y-93696509D01*
X122169323Y-93476441D01*
X122112147Y-93263059D01*
X122085443Y-93205792D01*
X122021110Y-93067829D01*
X122021108Y-93067826D01*
X122018787Y-93062848D01*
X121892079Y-92881889D01*
X121735873Y-92725683D01*
X121731365Y-92722526D01*
X121731362Y-92722524D01*
X121559424Y-92602132D01*
X121559421Y-92602130D01*
X121554915Y-92598975D01*
X121549933Y-92596652D01*
X121549928Y-92596649D01*
X121359685Y-92507938D01*
X121359684Y-92507938D01*
X121354703Y-92505615D01*
X121349395Y-92504193D01*
X121349393Y-92504192D01*
X121267971Y-92482375D01*
X121141321Y-92448439D01*
X120921253Y-92429186D01*
X120701185Y-92448439D01*
X120574535Y-92482375D01*
X120493113Y-92504192D01*
X120493111Y-92504193D01*
X120487803Y-92505615D01*
X120471751Y-92513100D01*
X120401561Y-92523762D01*
X120336747Y-92494784D01*
X120297890Y-92435365D01*
X120292500Y-92398906D01*
X120292500Y-92157056D01*
X120293059Y-92145200D01*
X120293059Y-92145197D01*
X120294788Y-92137463D01*
X120292562Y-92066631D01*
X120292500Y-92062673D01*
X120292500Y-92033568D01*
X120291944Y-92029168D01*
X120291012Y-92017330D01*
X120290849Y-92012123D01*
X120289562Y-91971169D01*
X120283580Y-91950579D01*
X120279570Y-91931216D01*
X120277875Y-91917796D01*
X120277875Y-91917795D01*
X120276882Y-91909936D01*
X120273966Y-91902571D01*
X120273965Y-91902567D01*
X120259874Y-91866979D01*
X120256035Y-91855769D01*
X120243145Y-91811400D01*
X120232225Y-91792935D01*
X120223534Y-91775195D01*
X120215635Y-91755244D01*
X120188482Y-91717871D01*
X120181967Y-91707952D01*
X120162493Y-91675023D01*
X120162490Y-91675019D01*
X120158453Y-91668193D01*
X120143289Y-91653029D01*
X120130448Y-91637995D01*
X120122501Y-91627057D01*
X120117841Y-91620643D01*
X120082247Y-91591197D01*
X120073468Y-91583208D01*
X118908669Y-90418409D01*
X118874643Y-90356097D01*
X118879708Y-90285282D01*
X118922255Y-90228446D01*
X118988775Y-90203635D01*
X119039099Y-90210287D01*
X119052271Y-90214861D01*
X119058206Y-90215722D01*
X119058208Y-90215722D01*
X119255664Y-90244352D01*
X119255667Y-90244352D01*
X119261604Y-90245213D01*
X119472899Y-90235433D01*
X119604841Y-90203635D01*
X119672701Y-90187281D01*
X119672703Y-90187280D01*
X119678534Y-90185875D01*
X119683992Y-90183393D01*
X119683996Y-90183392D01*
X119814515Y-90124048D01*
X119871087Y-90098326D01*
X120027602Y-89987302D01*
X120038725Y-89979412D01*
X120038726Y-89979411D01*
X120043611Y-89975946D01*
X120189881Y-89823150D01*
X120304620Y-89645452D01*
X120340968Y-89555261D01*
X120381442Y-89454832D01*
X120381443Y-89454829D01*
X120383686Y-89449263D01*
X120424228Y-89241663D01*
X120424500Y-89236101D01*
X120424500Y-88530154D01*
X120409452Y-88372434D01*
X120349908Y-88169466D01*
X120335331Y-88141163D01*
X120255804Y-87986751D01*
X120255802Y-87986748D01*
X120253058Y-87981420D01*
X120122396Y-87815080D01*
X120117865Y-87811148D01*
X120113730Y-87806806D01*
X120114582Y-87805994D01*
X120079579Y-87751443D01*
X120074500Y-87716030D01*
X120074500Y-86617070D01*
X120075933Y-86598120D01*
X120078099Y-86583885D01*
X120078099Y-86583881D01*
X120079199Y-86576651D01*
X120078167Y-86563956D01*
X120074915Y-86523982D01*
X120074500Y-86513767D01*
X120074500Y-86505707D01*
X120073908Y-86500624D01*
X120071373Y-86478886D01*
X120071209Y-86477480D01*
X120070778Y-86473121D01*
X120070390Y-86468343D01*
X120068158Y-86440907D01*
X120065454Y-86407662D01*
X120065453Y-86407659D01*
X120064860Y-86400364D01*
X120062604Y-86393400D01*
X120061417Y-86387461D01*
X120060030Y-86381590D01*
X120059182Y-86374319D01*
X120056686Y-86367443D01*
X120056684Y-86367434D01*
X120034275Y-86305702D01*
X120032865Y-86301598D01*
X120010352Y-86232101D01*
X120006556Y-86225846D01*
X120004057Y-86220387D01*
X120001329Y-86214939D01*
X119998833Y-86208063D01*
X119958805Y-86147010D01*
X119956481Y-86143327D01*
X119955612Y-86141894D01*
X119918595Y-86080893D01*
X119911198Y-86072517D01*
X119911225Y-86072493D01*
X119908570Y-86069499D01*
X119905868Y-86066268D01*
X119901856Y-86060148D01*
X119845617Y-86006872D01*
X119843175Y-86004494D01*
X119148835Y-85310154D01*
X119114809Y-85247842D01*
X119112531Y-85233355D01*
X119104681Y-85153299D01*
X119104080Y-85147167D01*
X119046916Y-84957831D01*
X118954066Y-84783204D01*
X118882874Y-84695914D01*
X118832960Y-84634713D01*
X118832957Y-84634710D01*
X118829065Y-84629938D01*
X118822724Y-84624692D01*
X118681425Y-84507799D01*
X118681421Y-84507797D01*
X118676675Y-84503870D01*
X118502701Y-84409802D01*
X118313768Y-84351318D01*
X118307643Y-84350674D01*
X118307642Y-84350674D01*
X118123204Y-84331289D01*
X118123202Y-84331289D01*
X118117075Y-84330645D01*
X118039718Y-84337685D01*
X117926251Y-84348011D01*
X117926248Y-84348012D01*
X117920112Y-84348570D01*
X117914206Y-84350308D01*
X117914202Y-84350309D01*
X117831515Y-84374645D01*
X117730381Y-84404410D01*
X117724923Y-84407263D01*
X117724919Y-84407265D01*
X117634147Y-84454720D01*
X117555110Y-84496040D01*
X117400975Y-84619968D01*
X117273846Y-84771474D01*
X117270879Y-84776872D01*
X117270875Y-84776877D01*
X117215304Y-84877962D01*
X117178567Y-84944787D01*
X117176706Y-84950654D01*
X117176705Y-84950656D01*
X117124626Y-85114829D01*
X117118765Y-85133306D01*
X117117003Y-85132747D01*
X117087388Y-85187597D01*
X117025238Y-85221916D01*
X116954399Y-85217185D01*
X116908778Y-85188018D01*
X116095405Y-84374645D01*
X116061379Y-84312333D01*
X116058500Y-84285550D01*
X116058500Y-84171009D01*
X116078502Y-84102888D01*
X116132158Y-84056395D01*
X116184500Y-84045009D01*
X121048753Y-84045009D01*
X121116874Y-84065011D01*
G37*
G04 #@! TD.AperFunction*
G04 #@! TA.AperFunction,Conductor*
G36*
X89480847Y-52015402D02*
G01*
X89527340Y-52069058D01*
X89537444Y-52139332D01*
X89507950Y-52203912D01*
X89501821Y-52210495D01*
X89470427Y-52241889D01*
X89343719Y-52422848D01*
X89250359Y-52623059D01*
X89193183Y-52836441D01*
X89173930Y-53056509D01*
X89193183Y-53276577D01*
X89250359Y-53489959D01*
X89252681Y-53494940D01*
X89252682Y-53494941D01*
X89324086Y-53648066D01*
X89343719Y-53690170D01*
X89470427Y-53871129D01*
X89626633Y-54027335D01*
X89631141Y-54030492D01*
X89631144Y-54030494D01*
X89792028Y-54143146D01*
X89807591Y-54154043D01*
X89812573Y-54156366D01*
X89812578Y-54156369D01*
X89994715Y-54241300D01*
X90007803Y-54247403D01*
X90013111Y-54248825D01*
X90013113Y-54248826D01*
X90078505Y-54266348D01*
X90221185Y-54304579D01*
X90441253Y-54323832D01*
X90661321Y-54304579D01*
X90804001Y-54266348D01*
X90869393Y-54248826D01*
X90869395Y-54248825D01*
X90874703Y-54247403D01*
X90887791Y-54241300D01*
X91069928Y-54156369D01*
X91069933Y-54156366D01*
X91074915Y-54154043D01*
X91090478Y-54143146D01*
X91251362Y-54030494D01*
X91251365Y-54030492D01*
X91255873Y-54027335D01*
X91412079Y-53871129D01*
X91538787Y-53690170D01*
X91558421Y-53648066D01*
X91597058Y-53565208D01*
X91643975Y-53511923D01*
X91712253Y-53492462D01*
X91780213Y-53513004D01*
X91825448Y-53565208D01*
X91864086Y-53648066D01*
X91883719Y-53690170D01*
X92010427Y-53871129D01*
X92166633Y-54027335D01*
X92171141Y-54030492D01*
X92171144Y-54030494D01*
X92332028Y-54143146D01*
X92347591Y-54154043D01*
X92352573Y-54156366D01*
X92352578Y-54156369D01*
X92534715Y-54241300D01*
X92547803Y-54247403D01*
X92553111Y-54248825D01*
X92553113Y-54248826D01*
X92618505Y-54266348D01*
X92761185Y-54304579D01*
X92981253Y-54323832D01*
X93201321Y-54304579D01*
X93344001Y-54266348D01*
X93409393Y-54248826D01*
X93409395Y-54248825D01*
X93414703Y-54247403D01*
X93427791Y-54241300D01*
X93609928Y-54156369D01*
X93609933Y-54156366D01*
X93614915Y-54154043D01*
X93630478Y-54143146D01*
X93791362Y-54030494D01*
X93791365Y-54030492D01*
X93795873Y-54027335D01*
X93952079Y-53871129D01*
X94078787Y-53690170D01*
X94098421Y-53648066D01*
X94137058Y-53565208D01*
X94183975Y-53511923D01*
X94252253Y-53492462D01*
X94320213Y-53513004D01*
X94365448Y-53565208D01*
X94404086Y-53648066D01*
X94423719Y-53690170D01*
X94550427Y-53871129D01*
X94706633Y-54027335D01*
X94711141Y-54030492D01*
X94711144Y-54030494D01*
X94872028Y-54143146D01*
X94887591Y-54154043D01*
X94892573Y-54156366D01*
X94892578Y-54156369D01*
X95074715Y-54241300D01*
X95087803Y-54247403D01*
X95093111Y-54248825D01*
X95093113Y-54248826D01*
X95158505Y-54266348D01*
X95301185Y-54304579D01*
X95521253Y-54323832D01*
X95741321Y-54304579D01*
X95884001Y-54266348D01*
X95949393Y-54248826D01*
X95949395Y-54248825D01*
X95954703Y-54247403D01*
X95967791Y-54241300D01*
X96149928Y-54156369D01*
X96149933Y-54156366D01*
X96154915Y-54154043D01*
X96170478Y-54143146D01*
X96331362Y-54030494D01*
X96331365Y-54030492D01*
X96335873Y-54027335D01*
X96492079Y-53871129D01*
X96618787Y-53690170D01*
X96638421Y-53648066D01*
X96677058Y-53565208D01*
X96723975Y-53511923D01*
X96792253Y-53492462D01*
X96860213Y-53513004D01*
X96905448Y-53565208D01*
X96944086Y-53648066D01*
X96963719Y-53690170D01*
X97090427Y-53871129D01*
X97246633Y-54027335D01*
X97251141Y-54030492D01*
X97251144Y-54030494D01*
X97412028Y-54143146D01*
X97427591Y-54154043D01*
X97432573Y-54156366D01*
X97432578Y-54156369D01*
X97614715Y-54241300D01*
X97627803Y-54247403D01*
X97633111Y-54248825D01*
X97633113Y-54248826D01*
X97698505Y-54266348D01*
X97841185Y-54304579D01*
X98061253Y-54323832D01*
X98281321Y-54304579D01*
X98424001Y-54266348D01*
X98489393Y-54248826D01*
X98489395Y-54248825D01*
X98494703Y-54247403D01*
X98507791Y-54241300D01*
X98689928Y-54156369D01*
X98689933Y-54156366D01*
X98694915Y-54154043D01*
X98710478Y-54143146D01*
X98871362Y-54030494D01*
X98871365Y-54030492D01*
X98875873Y-54027335D01*
X99032079Y-53871129D01*
X99158787Y-53690170D01*
X99178421Y-53648066D01*
X99217058Y-53565208D01*
X99263975Y-53511923D01*
X99332253Y-53492462D01*
X99400213Y-53513004D01*
X99445448Y-53565208D01*
X99484086Y-53648066D01*
X99503719Y-53690170D01*
X99630427Y-53871129D01*
X99786633Y-54027335D01*
X99791141Y-54030492D01*
X99791144Y-54030494D01*
X99952028Y-54143146D01*
X99967591Y-54154043D01*
X99972573Y-54156366D01*
X99972578Y-54156369D01*
X100154715Y-54241300D01*
X100167803Y-54247403D01*
X100173111Y-54248825D01*
X100173113Y-54248826D01*
X100238505Y-54266348D01*
X100381185Y-54304579D01*
X100601253Y-54323832D01*
X100821321Y-54304579D01*
X100964001Y-54266348D01*
X101029393Y-54248826D01*
X101029395Y-54248825D01*
X101034703Y-54247403D01*
X101047791Y-54241300D01*
X101229928Y-54156369D01*
X101229933Y-54156366D01*
X101234915Y-54154043D01*
X101250478Y-54143146D01*
X101411362Y-54030494D01*
X101411365Y-54030492D01*
X101415873Y-54027335D01*
X101572079Y-53871129D01*
X101698787Y-53690170D01*
X101718421Y-53648066D01*
X101757058Y-53565208D01*
X101803975Y-53511923D01*
X101872253Y-53492462D01*
X101940213Y-53513004D01*
X101985448Y-53565208D01*
X102024086Y-53648066D01*
X102043719Y-53690170D01*
X102170427Y-53871129D01*
X102326633Y-54027335D01*
X102331141Y-54030492D01*
X102331144Y-54030494D01*
X102492028Y-54143146D01*
X102507591Y-54154043D01*
X102512573Y-54156366D01*
X102512578Y-54156369D01*
X102694715Y-54241300D01*
X102707803Y-54247403D01*
X102713111Y-54248825D01*
X102713113Y-54248826D01*
X102778505Y-54266348D01*
X102921185Y-54304579D01*
X103141253Y-54323832D01*
X103361321Y-54304579D01*
X103504001Y-54266348D01*
X103569393Y-54248826D01*
X103569395Y-54248825D01*
X103574703Y-54247403D01*
X103587791Y-54241300D01*
X103769928Y-54156369D01*
X103769933Y-54156366D01*
X103774915Y-54154043D01*
X103790478Y-54143146D01*
X103951362Y-54030494D01*
X103951365Y-54030492D01*
X103955873Y-54027335D01*
X104112079Y-53871129D01*
X104238787Y-53690170D01*
X104258421Y-53648066D01*
X104297058Y-53565208D01*
X104343975Y-53511923D01*
X104412253Y-53492462D01*
X104480213Y-53513004D01*
X104525448Y-53565208D01*
X104564086Y-53648066D01*
X104583719Y-53690170D01*
X104710427Y-53871129D01*
X104866633Y-54027335D01*
X104871141Y-54030492D01*
X104871144Y-54030494D01*
X105032028Y-54143146D01*
X105047591Y-54154043D01*
X105052573Y-54156366D01*
X105052578Y-54156369D01*
X105234715Y-54241300D01*
X105247803Y-54247403D01*
X105253111Y-54248825D01*
X105253113Y-54248826D01*
X105318505Y-54266348D01*
X105461185Y-54304579D01*
X105681253Y-54323832D01*
X105901321Y-54304579D01*
X106044001Y-54266348D01*
X106109393Y-54248826D01*
X106109395Y-54248825D01*
X106114703Y-54247403D01*
X106127791Y-54241300D01*
X106309928Y-54156369D01*
X106309933Y-54156366D01*
X106314915Y-54154043D01*
X106330478Y-54143146D01*
X106491362Y-54030494D01*
X106491365Y-54030492D01*
X106495873Y-54027335D01*
X106652079Y-53871129D01*
X106778787Y-53690170D01*
X106798421Y-53648066D01*
X106837058Y-53565208D01*
X106883975Y-53511923D01*
X106952253Y-53492462D01*
X107020213Y-53513004D01*
X107065448Y-53565208D01*
X107104086Y-53648066D01*
X107123719Y-53690170D01*
X107250427Y-53871129D01*
X107406633Y-54027335D01*
X107477048Y-54076640D01*
X107509023Y-54099029D01*
X107553352Y-54154486D01*
X107562753Y-54202242D01*
X107562753Y-56045797D01*
X107542751Y-56113918D01*
X107525848Y-56134892D01*
X101578629Y-62082111D01*
X101516317Y-62116137D01*
X101445307Y-62110999D01*
X101434717Y-62107029D01*
X101434713Y-62107028D01*
X101427316Y-62104255D01*
X101365134Y-62097500D01*
X99708866Y-62097500D01*
X99646684Y-62104255D01*
X99510295Y-62155385D01*
X99393739Y-62242739D01*
X99306385Y-62359295D01*
X99303233Y-62367703D01*
X99298923Y-62375575D01*
X99296543Y-62374272D01*
X99262336Y-62419804D01*
X99195773Y-62444501D01*
X99126425Y-62429291D01*
X99076309Y-62379003D01*
X99073067Y-62371903D01*
X99070766Y-62367701D01*
X99067615Y-62359295D01*
X98980261Y-62242739D01*
X98863705Y-62155385D01*
X98727316Y-62104255D01*
X98665134Y-62097500D01*
X97008866Y-62097500D01*
X96946684Y-62104255D01*
X96810295Y-62155385D01*
X96693739Y-62242739D01*
X96692537Y-62241135D01*
X96640370Y-62269621D01*
X96613587Y-62272500D01*
X95484967Y-62272500D01*
X95418851Y-62253760D01*
X95339150Y-62204631D01*
X95339148Y-62204630D01*
X95332920Y-62200791D01*
X95167809Y-62146026D01*
X95160973Y-62145326D01*
X95160970Y-62145325D01*
X95103869Y-62139475D01*
X95065072Y-62135500D01*
X94465928Y-62135500D01*
X94462682Y-62135837D01*
X94462678Y-62135837D01*
X94368765Y-62145581D01*
X94368761Y-62145582D01*
X94361907Y-62146293D01*
X94355371Y-62148474D01*
X94355369Y-62148474D01*
X94333216Y-62155865D01*
X94196893Y-62201346D01*
X94048969Y-62292884D01*
X94043796Y-62298066D01*
X93942253Y-62399786D01*
X93879970Y-62433865D01*
X93809150Y-62428862D01*
X93764063Y-62399941D01*
X93661188Y-62297246D01*
X93661183Y-62297242D01*
X93656003Y-62292071D01*
X93621583Y-62270854D01*
X93514150Y-62204631D01*
X93514148Y-62204630D01*
X93507920Y-62200791D01*
X93342809Y-62146026D01*
X93335973Y-62145326D01*
X93335970Y-62145325D01*
X93278869Y-62139475D01*
X93240072Y-62135500D01*
X92640928Y-62135500D01*
X92637682Y-62135837D01*
X92637678Y-62135837D01*
X92543765Y-62145581D01*
X92543761Y-62145582D01*
X92536907Y-62146293D01*
X92530371Y-62148474D01*
X92530369Y-62148474D01*
X92508216Y-62155865D01*
X92371893Y-62201346D01*
X92223969Y-62292884D01*
X92103574Y-62413489D01*
X92103572Y-62413491D01*
X92101071Y-62415997D01*
X92100642Y-62415569D01*
X92046920Y-62453656D01*
X92005958Y-62460500D01*
X91903056Y-62460500D01*
X91891200Y-62459941D01*
X91891197Y-62459941D01*
X91883463Y-62458212D01*
X91828446Y-62459941D01*
X91812631Y-62460438D01*
X91808673Y-62460500D01*
X91779568Y-62460500D01*
X91775168Y-62461056D01*
X91763336Y-62461988D01*
X91717169Y-62463438D01*
X91696579Y-62469420D01*
X91677218Y-62473430D01*
X91670230Y-62474312D01*
X91663796Y-62475125D01*
X91663795Y-62475125D01*
X91655936Y-62476118D01*
X91648571Y-62479034D01*
X91648567Y-62479035D01*
X91612979Y-62493126D01*
X91601769Y-62496965D01*
X91557400Y-62509855D01*
X91538943Y-62520771D01*
X91521193Y-62529466D01*
X91501244Y-62537365D01*
X91494833Y-62542023D01*
X91494831Y-62542024D01*
X91463864Y-62564523D01*
X91453946Y-62571038D01*
X91425138Y-62588075D01*
X91356323Y-62605535D01*
X91288992Y-62583019D01*
X91244522Y-62527675D01*
X91234999Y-62479622D01*
X91234999Y-62405331D01*
X91234629Y-62398510D01*
X91229105Y-62347646D01*
X91224706Y-62329143D01*
X91224706Y-62270854D01*
X91229105Y-62252351D01*
X91234631Y-62201486D01*
X91235000Y-62194672D01*
X91235000Y-62168115D01*
X91230525Y-62152876D01*
X91229135Y-62151671D01*
X91221452Y-62150000D01*
X89745115Y-62150000D01*
X89729876Y-62154475D01*
X89728671Y-62155865D01*
X89727000Y-62163548D01*
X89727000Y-62615500D01*
X89706998Y-62683621D01*
X89653342Y-62730114D01*
X89601000Y-62741500D01*
X88178866Y-62741500D01*
X88116684Y-62748255D01*
X87980295Y-62799385D01*
X87934498Y-62833708D01*
X87870922Y-62881355D01*
X87870919Y-62881358D01*
X87863739Y-62886739D01*
X87858358Y-62893919D01*
X87858355Y-62893922D01*
X87854127Y-62899564D01*
X87797269Y-62942079D01*
X87753300Y-62950000D01*
X87737116Y-62950000D01*
X87721877Y-62954475D01*
X87720672Y-62955865D01*
X87719001Y-62963548D01*
X87719001Y-62994669D01*
X87719371Y-63001490D01*
X87724895Y-63052349D01*
X87729035Y-63069764D01*
X87729034Y-63128058D01*
X87728029Y-63132284D01*
X87725255Y-63139684D01*
X87718500Y-63201866D01*
X87718500Y-63798134D01*
X87725255Y-63860316D01*
X87728029Y-63867715D01*
X87728775Y-63870854D01*
X87728775Y-63929146D01*
X87728029Y-63932285D01*
X87725255Y-63939684D01*
X87718500Y-64001866D01*
X87718500Y-64598134D01*
X87725255Y-64660316D01*
X87728029Y-64667715D01*
X87728775Y-64670854D01*
X87728775Y-64729146D01*
X87728029Y-64732285D01*
X87725255Y-64739684D01*
X87718500Y-64801866D01*
X87718500Y-64879286D01*
X87698498Y-64947407D01*
X87644842Y-64993900D01*
X87574568Y-65004004D01*
X87510414Y-64974781D01*
X87506534Y-64970678D01*
X87347025Y-64858989D01*
X87299013Y-64838212D01*
X87174175Y-64784190D01*
X87174171Y-64784189D01*
X87168316Y-64781655D01*
X87162069Y-64780350D01*
X87162066Y-64780349D01*
X86982443Y-64742824D01*
X86982438Y-64742823D01*
X86977707Y-64741835D01*
X86971315Y-64741500D01*
X86828337Y-64741500D01*
X86768874Y-64747540D01*
X86689622Y-64755590D01*
X86689621Y-64755590D01*
X86683273Y-64756235D01*
X86646889Y-64767637D01*
X86503549Y-64812556D01*
X86503544Y-64812558D01*
X86497459Y-64814465D01*
X86431457Y-64851051D01*
X86332729Y-64905777D01*
X86332726Y-64905779D01*
X86327150Y-64908870D01*
X86322309Y-64913019D01*
X86322305Y-64913022D01*
X86216155Y-65004004D01*
X86179302Y-65035591D01*
X86175391Y-65040633D01*
X86175390Y-65040634D01*
X86172399Y-65044490D01*
X86059954Y-65189453D01*
X86057138Y-65195176D01*
X86057136Y-65195179D01*
X86018020Y-65274674D01*
X85973982Y-65364171D01*
X85972373Y-65370349D01*
X85972372Y-65370351D01*
X85929559Y-65534714D01*
X85924898Y-65552607D01*
X85924447Y-65561209D01*
X85916001Y-65722379D01*
X85914707Y-65747064D01*
X85943825Y-65939599D01*
X85946028Y-65945585D01*
X85946029Y-65945591D01*
X86008860Y-66116360D01*
X86008862Y-66116365D01*
X86011063Y-66122346D01*
X86051676Y-66187848D01*
X86077032Y-66228742D01*
X86113674Y-66287840D01*
X86118055Y-66292473D01*
X86118056Y-66292474D01*
X86234119Y-66415208D01*
X86247466Y-66429322D01*
X86252696Y-66432984D01*
X86252697Y-66432985D01*
X86294798Y-66462464D01*
X86406975Y-66541011D01*
X86412838Y-66543548D01*
X86579825Y-66615810D01*
X86579829Y-66615811D01*
X86585684Y-66618345D01*
X86591931Y-66619650D01*
X86591934Y-66619651D01*
X86771557Y-66657176D01*
X86771562Y-66657177D01*
X86776293Y-66658165D01*
X86782685Y-66658500D01*
X86925663Y-66658500D01*
X87047651Y-66646109D01*
X87064378Y-66644410D01*
X87064379Y-66644410D01*
X87070727Y-66643765D01*
X87151843Y-66618345D01*
X87250451Y-66587444D01*
X87250456Y-66587442D01*
X87256541Y-66585535D01*
X87381923Y-66516034D01*
X87421271Y-66494223D01*
X87421274Y-66494221D01*
X87426850Y-66491130D01*
X87431691Y-66486981D01*
X87431695Y-66486978D01*
X87569855Y-66368560D01*
X87574698Y-66364409D01*
X87628603Y-66294916D01*
X87690131Y-66215594D01*
X87694046Y-66210547D01*
X87701363Y-66195678D01*
X87777200Y-66041556D01*
X87780018Y-66035829D01*
X87789119Y-66000892D01*
X87818410Y-65888439D01*
X87854937Y-65827560D01*
X87918579Y-65796093D01*
X87984571Y-65802218D01*
X88116684Y-65851745D01*
X88178866Y-65858500D01*
X90775134Y-65858500D01*
X90776251Y-65858379D01*
X90844927Y-65874564D01*
X90871738Y-65894998D01*
X91678345Y-66701605D01*
X91686335Y-66710385D01*
X91690584Y-66717080D01*
X91696362Y-66722506D01*
X91696363Y-66722507D01*
X91742257Y-66765604D01*
X91745099Y-66768359D01*
X91765667Y-66788927D01*
X91769170Y-66791644D01*
X91778195Y-66799352D01*
X91811867Y-66830972D01*
X91818818Y-66834793D01*
X91818819Y-66834794D01*
X91830658Y-66841303D01*
X91847182Y-66852157D01*
X91856968Y-66859747D01*
X91864132Y-66865304D01*
X91871404Y-66868451D01*
X91871406Y-66868452D01*
X91906535Y-66883654D01*
X91917195Y-66888876D01*
X91947168Y-66905354D01*
X91957663Y-66911124D01*
X91978441Y-66916459D01*
X91997131Y-66922858D01*
X92016824Y-66931380D01*
X92051563Y-66936882D01*
X92062448Y-66938606D01*
X92074071Y-66941013D01*
X92098754Y-66947350D01*
X92118812Y-66952500D01*
X92140259Y-66952500D01*
X92159969Y-66954051D01*
X92181152Y-66957406D01*
X92227141Y-66953059D01*
X92238996Y-66952500D01*
X98977944Y-66952500D01*
X98989800Y-66953059D01*
X98989803Y-66953059D01*
X98997537Y-66954788D01*
X99068369Y-66952562D01*
X99072327Y-66952500D01*
X99101432Y-66952500D01*
X99105832Y-66951944D01*
X99117664Y-66951012D01*
X99163831Y-66949562D01*
X99184421Y-66943580D01*
X99203782Y-66939570D01*
X99211416Y-66938606D01*
X99217204Y-66937875D01*
X99217205Y-66937875D01*
X99225064Y-66936882D01*
X99232429Y-66933966D01*
X99232433Y-66933965D01*
X99268021Y-66919874D01*
X99279231Y-66916035D01*
X99323600Y-66903145D01*
X99342065Y-66892225D01*
X99359805Y-66883534D01*
X99379756Y-66875635D01*
X99417129Y-66848482D01*
X99427048Y-66841967D01*
X99459977Y-66822493D01*
X99459981Y-66822490D01*
X99466807Y-66818453D01*
X99481971Y-66803289D01*
X99497005Y-66790448D01*
X99498057Y-66789684D01*
X99514357Y-66777841D01*
X99543803Y-66742247D01*
X99551792Y-66733468D01*
X99594605Y-66690655D01*
X99603385Y-66682665D01*
X99603387Y-66682663D01*
X99610080Y-66678416D01*
X99658605Y-66626742D01*
X99661359Y-66623901D01*
X99681927Y-66603333D01*
X99684647Y-66599826D01*
X99692353Y-66590804D01*
X99723972Y-66557133D01*
X99727794Y-66550181D01*
X99734303Y-66538342D01*
X99745157Y-66521818D01*
X99753443Y-66511135D01*
X99753444Y-66511134D01*
X99758304Y-66504868D01*
X99776654Y-66462464D01*
X99781869Y-66451819D01*
X99804124Y-66411337D01*
X99806094Y-66403663D01*
X99806097Y-66403656D01*
X99809455Y-66390574D01*
X99815861Y-66371862D01*
X99817290Y-66368560D01*
X99824380Y-66352177D01*
X99831608Y-66306541D01*
X99834012Y-66294930D01*
X99845500Y-66250188D01*
X99845500Y-66228742D01*
X99847051Y-66209032D01*
X99849166Y-66195678D01*
X99849166Y-66195677D01*
X99850406Y-66187848D01*
X99846059Y-66141859D01*
X99845500Y-66130004D01*
X99845500Y-65790500D01*
X99865502Y-65722379D01*
X99919158Y-65675886D01*
X99971500Y-65664500D01*
X101365134Y-65664500D01*
X101427316Y-65657745D01*
X101563705Y-65606615D01*
X101680261Y-65519261D01*
X101681815Y-65521334D01*
X101732173Y-65493836D01*
X101754996Y-65491019D01*
X101796785Y-65489706D01*
X101801370Y-65489562D01*
X101805327Y-65489500D01*
X101834432Y-65489500D01*
X101838832Y-65488944D01*
X101850664Y-65488012D01*
X101896831Y-65486562D01*
X101917421Y-65480580D01*
X101936782Y-65476570D01*
X101943770Y-65475688D01*
X101950204Y-65474875D01*
X101950205Y-65474875D01*
X101958064Y-65473882D01*
X101965429Y-65470966D01*
X101965433Y-65470965D01*
X102001021Y-65456874D01*
X102012231Y-65453035D01*
X102056600Y-65440145D01*
X102075065Y-65429225D01*
X102092805Y-65420534D01*
X102112756Y-65412635D01*
X102150129Y-65385482D01*
X102160048Y-65378967D01*
X102192977Y-65359493D01*
X102192981Y-65359490D01*
X102199807Y-65355453D01*
X102214971Y-65340289D01*
X102230005Y-65327448D01*
X102240943Y-65319501D01*
X102247357Y-65314841D01*
X102276803Y-65279247D01*
X102284792Y-65270468D01*
X102769605Y-64785655D01*
X102778385Y-64777665D01*
X102778387Y-64777663D01*
X102785080Y-64773416D01*
X102810468Y-64746381D01*
X102833604Y-64721743D01*
X102836359Y-64718901D01*
X102856927Y-64698333D01*
X102859647Y-64694826D01*
X102867353Y-64685804D01*
X102883052Y-64669086D01*
X102898972Y-64652133D01*
X102902794Y-64645181D01*
X102909303Y-64633342D01*
X102920157Y-64616818D01*
X102928445Y-64606132D01*
X102933304Y-64599868D01*
X102936452Y-64592594D01*
X102951654Y-64557465D01*
X102956876Y-64546805D01*
X102975305Y-64513284D01*
X102975306Y-64513282D01*
X102979124Y-64506337D01*
X102984459Y-64485559D01*
X102990858Y-64466869D01*
X102999380Y-64447176D01*
X103006608Y-64401543D01*
X103009015Y-64389921D01*
X103018529Y-64352867D01*
X103018530Y-64352863D01*
X103020500Y-64345188D01*
X103020500Y-64323747D01*
X103022051Y-64304036D01*
X103024167Y-64290676D01*
X103025407Y-64282848D01*
X103021059Y-64236852D01*
X103020500Y-64224994D01*
X103020500Y-63316950D01*
X103040502Y-63248829D01*
X103057405Y-63227855D01*
X111168858Y-55116402D01*
X111177638Y-55108412D01*
X111177640Y-55108410D01*
X111184333Y-55104163D01*
X111232858Y-55052489D01*
X111235612Y-55049648D01*
X111256180Y-55029080D01*
X111258900Y-55025573D01*
X111266606Y-55016551D01*
X111292797Y-54988660D01*
X111298225Y-54982880D01*
X111306032Y-54968679D01*
X111308556Y-54964089D01*
X111319410Y-54947565D01*
X111327698Y-54936879D01*
X111332557Y-54930615D01*
X111335705Y-54923341D01*
X111350907Y-54888212D01*
X111356129Y-54877552D01*
X111374558Y-54844031D01*
X111374559Y-54844029D01*
X111378377Y-54837084D01*
X111383712Y-54816306D01*
X111390111Y-54797616D01*
X111398633Y-54777923D01*
X111400478Y-54766279D01*
X111405861Y-54732290D01*
X111408268Y-54720668D01*
X111417782Y-54683614D01*
X111417783Y-54683610D01*
X111419753Y-54675935D01*
X111419753Y-54654494D01*
X111421304Y-54634783D01*
X111423420Y-54621423D01*
X111424660Y-54613595D01*
X111423323Y-54599452D01*
X111420312Y-54567599D01*
X111419753Y-54555741D01*
X111419753Y-54202242D01*
X111439755Y-54134121D01*
X111473483Y-54099029D01*
X111505458Y-54076640D01*
X111575873Y-54027335D01*
X111732079Y-53871129D01*
X111858787Y-53690170D01*
X111878421Y-53648066D01*
X111917058Y-53565208D01*
X111963975Y-53511923D01*
X112032253Y-53492462D01*
X112100213Y-53513004D01*
X112145448Y-53565208D01*
X112184086Y-53648066D01*
X112203719Y-53690170D01*
X112330427Y-53871129D01*
X112486633Y-54027335D01*
X112557048Y-54076640D01*
X112589023Y-54099029D01*
X112633352Y-54154486D01*
X112642753Y-54202242D01*
X112642753Y-55434197D01*
X112642194Y-55446053D01*
X112640465Y-55453790D01*
X112640714Y-55461712D01*
X112642691Y-55524622D01*
X112642753Y-55528580D01*
X112642753Y-55557685D01*
X112643309Y-55562085D01*
X112644241Y-55573917D01*
X112645691Y-55620084D01*
X112649028Y-55631568D01*
X112651672Y-55640669D01*
X112655683Y-55660035D01*
X112658371Y-55681317D01*
X112661287Y-55688682D01*
X112661288Y-55688686D01*
X112675379Y-55724274D01*
X112679218Y-55735484D01*
X112692108Y-55779853D01*
X112703028Y-55798318D01*
X112711719Y-55816058D01*
X112719618Y-55836009D01*
X112746769Y-55873379D01*
X112753286Y-55883301D01*
X112772760Y-55916230D01*
X112772763Y-55916234D01*
X112776800Y-55923060D01*
X112791964Y-55938224D01*
X112804804Y-55953257D01*
X112817412Y-55970610D01*
X112844628Y-55993125D01*
X112853005Y-56000055D01*
X112861785Y-56008045D01*
X113255412Y-56401672D01*
X113289438Y-56463984D01*
X113289438Y-56517550D01*
X113284000Y-56542548D01*
X113284000Y-59276884D01*
X113288475Y-59292123D01*
X113289865Y-59293328D01*
X113297548Y-59294999D01*
X113427095Y-59294999D01*
X113433614Y-59294662D01*
X113529206Y-59284743D01*
X113542603Y-59281850D01*
X113602625Y-59261826D01*
X113673574Y-59259242D01*
X113734658Y-59295426D01*
X113766482Y-59358890D01*
X113768500Y-59381350D01*
X113768500Y-60364882D01*
X113748498Y-60433003D01*
X113694842Y-60479496D01*
X113624568Y-60489600D01*
X113559988Y-60460106D01*
X113546689Y-60446712D01*
X113468182Y-60354792D01*
X113468177Y-60354787D01*
X113464969Y-60351031D01*
X113284416Y-60196824D01*
X113280208Y-60194245D01*
X113280202Y-60194241D01*
X113086183Y-60075346D01*
X113081963Y-60072760D01*
X113077393Y-60070867D01*
X113077389Y-60070865D01*
X112867167Y-59983789D01*
X112867165Y-59983788D01*
X112862594Y-59981895D01*
X112781012Y-59962309D01*
X112636524Y-59927620D01*
X112636518Y-59927619D01*
X112631711Y-59926465D01*
X112395000Y-59907835D01*
X112158289Y-59926465D01*
X112153482Y-59927619D01*
X112153476Y-59927620D01*
X112077602Y-59945836D01*
X112006694Y-59942289D01*
X111959093Y-59912412D01*
X111825405Y-59778724D01*
X111791379Y-59716412D01*
X111788500Y-59689629D01*
X111788500Y-59048266D01*
X111808502Y-58980145D01*
X111823482Y-58961136D01*
X111829227Y-58955135D01*
X111849164Y-58934309D01*
X111910718Y-58898932D01*
X111981627Y-58902451D01*
X112039378Y-58943747D01*
X112047325Y-58955135D01*
X112078066Y-59004810D01*
X112087099Y-59016208D01*
X112201829Y-59130739D01*
X112213240Y-59139751D01*
X112351243Y-59224816D01*
X112364424Y-59230963D01*
X112518710Y-59282138D01*
X112532086Y-59285005D01*
X112626438Y-59294672D01*
X112632854Y-59295000D01*
X112757885Y-59295000D01*
X112773124Y-59290525D01*
X112774329Y-59289135D01*
X112776000Y-59281452D01*
X112776000Y-56547116D01*
X112771525Y-56531877D01*
X112770135Y-56530672D01*
X112762452Y-56529001D01*
X112632905Y-56529001D01*
X112626386Y-56529338D01*
X112530794Y-56539257D01*
X112517400Y-56542149D01*
X112363216Y-56593588D01*
X112350038Y-56599761D01*
X112212193Y-56685063D01*
X112200792Y-56694099D01*
X112086261Y-56808829D01*
X112077249Y-56820240D01*
X112049255Y-56865655D01*
X111996483Y-56913148D01*
X111926411Y-56924572D01*
X111861287Y-56896298D01*
X111842912Y-56877375D01*
X111836396Y-56869080D01*
X111831865Y-56865148D01*
X111831862Y-56865145D01*
X111681167Y-56734379D01*
X111676637Y-56730448D01*
X111671451Y-56727448D01*
X111671447Y-56727445D01*
X111498742Y-56627533D01*
X111493546Y-56624527D01*
X111293729Y-56555139D01*
X111287794Y-56554278D01*
X111287792Y-56554278D01*
X111090336Y-56525648D01*
X111090333Y-56525648D01*
X111084396Y-56524787D01*
X110873101Y-56534567D01*
X110750678Y-56564071D01*
X110673299Y-56582719D01*
X110673297Y-56582720D01*
X110667466Y-56584125D01*
X110662008Y-56586607D01*
X110662004Y-56586608D01*
X110564113Y-56631117D01*
X110474913Y-56671674D01*
X110302389Y-56794054D01*
X110270312Y-56827562D01*
X110182444Y-56919351D01*
X110156119Y-56946850D01*
X110041380Y-57124548D01*
X110017160Y-57184646D01*
X109979354Y-57278456D01*
X109962314Y-57320737D01*
X109921772Y-57528337D01*
X109921500Y-57533899D01*
X109921500Y-58239846D01*
X109936548Y-58397566D01*
X109996092Y-58600534D01*
X110092942Y-58788580D01*
X110223604Y-58954920D01*
X110228135Y-58958852D01*
X110232270Y-58963194D01*
X110231418Y-58964006D01*
X110266421Y-59018557D01*
X110271500Y-59053970D01*
X110271500Y-59988930D01*
X110270067Y-60007880D01*
X110266801Y-60029349D01*
X110267394Y-60036641D01*
X110267394Y-60036644D01*
X110271085Y-60082018D01*
X110271500Y-60092233D01*
X110271500Y-60100293D01*
X110271925Y-60103937D01*
X110274789Y-60128507D01*
X110275222Y-60132882D01*
X110281140Y-60205637D01*
X110283396Y-60212601D01*
X110284587Y-60218560D01*
X110285971Y-60224415D01*
X110286818Y-60231681D01*
X110311735Y-60300327D01*
X110313152Y-60304455D01*
X110329927Y-60356235D01*
X110335649Y-60373899D01*
X110339445Y-60380154D01*
X110341951Y-60385628D01*
X110344670Y-60391058D01*
X110347167Y-60397937D01*
X110351180Y-60404057D01*
X110351180Y-60404058D01*
X110387186Y-60458976D01*
X110389523Y-60462680D01*
X110427405Y-60525107D01*
X110431121Y-60529315D01*
X110431122Y-60529316D01*
X110434803Y-60533484D01*
X110434776Y-60533508D01*
X110437429Y-60536500D01*
X110440132Y-60539733D01*
X110444144Y-60545852D01*
X110449456Y-60550884D01*
X110500383Y-60599128D01*
X110502825Y-60601506D01*
X110886412Y-60985093D01*
X110920438Y-61047405D01*
X110919836Y-61103602D01*
X110901620Y-61179476D01*
X110901619Y-61179482D01*
X110900465Y-61184289D01*
X110881835Y-61421000D01*
X110900465Y-61657711D01*
X110955895Y-61888594D01*
X110957788Y-61893165D01*
X110957789Y-61893167D01*
X111039788Y-62091130D01*
X111046760Y-62107963D01*
X111059850Y-62129323D01*
X111078389Y-62197854D01*
X111056934Y-62265531D01*
X111041513Y-62284253D01*
X108931621Y-64394145D01*
X108921478Y-64403247D01*
X108891975Y-64426968D01*
X108859709Y-64465421D01*
X108856528Y-64469069D01*
X108854885Y-64470881D01*
X108852691Y-64473075D01*
X108825369Y-64506337D01*
X108824696Y-64507147D01*
X108764846Y-64578474D01*
X108762278Y-64583144D01*
X108758897Y-64587261D01*
X108751246Y-64601531D01*
X108715023Y-64669086D01*
X108714394Y-64670245D01*
X108672538Y-64746381D01*
X108672535Y-64746389D01*
X108669567Y-64751787D01*
X108667955Y-64756869D01*
X108665438Y-64761563D01*
X108638238Y-64850531D01*
X108637918Y-64851559D01*
X108609765Y-64940306D01*
X108609171Y-64945602D01*
X108607613Y-64950698D01*
X108598477Y-65040634D01*
X108598219Y-65043178D01*
X108598086Y-65044427D01*
X108587719Y-65136851D01*
X108588165Y-65142159D01*
X108587626Y-65147462D01*
X108592137Y-65195179D01*
X108596375Y-65240016D01*
X108596492Y-65241331D01*
X108604268Y-65333934D01*
X108605738Y-65339060D01*
X108606239Y-65344362D01*
X108610437Y-65358444D01*
X108632792Y-65433433D01*
X108633160Y-65434691D01*
X108658783Y-65524050D01*
X108661219Y-65528789D01*
X108662741Y-65533896D01*
X108706145Y-65616221D01*
X108706666Y-65617221D01*
X108730775Y-65664131D01*
X108738331Y-65678832D01*
X108749187Y-65699956D01*
X108752496Y-65704131D01*
X108754982Y-65708846D01*
X108813418Y-65781008D01*
X108814242Y-65782037D01*
X108855651Y-65834282D01*
X108872035Y-65854953D01*
X108876097Y-65858410D01*
X108879447Y-65862547D01*
X108884182Y-65866492D01*
X108884186Y-65866496D01*
X108950766Y-65921967D01*
X108951776Y-65922818D01*
X109017954Y-65979140D01*
X109017958Y-65979143D01*
X109022650Y-65983136D01*
X109027305Y-65985738D01*
X109031396Y-65989146D01*
X109105683Y-66029649D01*
X109113003Y-66033640D01*
X109114158Y-66034278D01*
X109189911Y-66076616D01*
X109189915Y-66076618D01*
X109195294Y-66079624D01*
X109200361Y-66081270D01*
X109205041Y-66083822D01*
X109293841Y-66111650D01*
X109294949Y-66112004D01*
X109383392Y-66140740D01*
X109388680Y-66141371D01*
X109393768Y-66142965D01*
X109399895Y-66143631D01*
X109399897Y-66143631D01*
X109486108Y-66152996D01*
X109487420Y-66153145D01*
X109570043Y-66162997D01*
X109579777Y-66164158D01*
X109585094Y-66163749D01*
X109590388Y-66164324D01*
X109651038Y-66159018D01*
X109682969Y-66156225D01*
X109684282Y-66156117D01*
X109770829Y-66149457D01*
X109770832Y-66149457D01*
X109776972Y-66148984D01*
X109782102Y-66147552D01*
X109787413Y-66147087D01*
X109876706Y-66121144D01*
X109877971Y-66120784D01*
X109961532Y-66097454D01*
X109961533Y-66097454D01*
X109967463Y-66095798D01*
X109972219Y-66093396D01*
X109977336Y-66091909D01*
X110059847Y-66049139D01*
X110061015Y-66048541D01*
X110138493Y-66009405D01*
X110138495Y-66009404D01*
X110143996Y-66006625D01*
X110148195Y-66003344D01*
X110152926Y-66000892D01*
X110225652Y-65942836D01*
X110226684Y-65942022D01*
X110294991Y-65888655D01*
X110294992Y-65888655D01*
X110299847Y-65884861D01*
X110337668Y-65841045D01*
X110343953Y-65834282D01*
X113064379Y-63113855D01*
X113074522Y-63104753D01*
X113099218Y-63084897D01*
X113104025Y-63081032D01*
X113136292Y-63042578D01*
X113139472Y-63038931D01*
X113141115Y-63037119D01*
X113143309Y-63034925D01*
X113170642Y-63001651D01*
X113171348Y-63000800D01*
X113227195Y-62934244D01*
X113231154Y-62929526D01*
X113233722Y-62924856D01*
X113237103Y-62920739D01*
X113281015Y-62838842D01*
X113281624Y-62837720D01*
X113323466Y-62761611D01*
X113323468Y-62761606D01*
X113326433Y-62756213D01*
X113328044Y-62751135D01*
X113330563Y-62746437D01*
X113357753Y-62657504D01*
X113358136Y-62656273D01*
X113379471Y-62589016D01*
X113417743Y-62531304D01*
X113464969Y-62490969D01*
X113468182Y-62487207D01*
X113468190Y-62487199D01*
X113546689Y-62395288D01*
X113606139Y-62356478D01*
X113677134Y-62355971D01*
X113737133Y-62393928D01*
X113767086Y-62458296D01*
X113768500Y-62477118D01*
X113768500Y-70364882D01*
X113748498Y-70433003D01*
X113694842Y-70479496D01*
X113624568Y-70489600D01*
X113559988Y-70460106D01*
X113546689Y-70446712D01*
X113468182Y-70354792D01*
X113468177Y-70354787D01*
X113464969Y-70351031D01*
X113284416Y-70196824D01*
X113280208Y-70194245D01*
X113280202Y-70194241D01*
X113086183Y-70075346D01*
X113081963Y-70072760D01*
X113077393Y-70070867D01*
X113077389Y-70070865D01*
X112867167Y-69983789D01*
X112867165Y-69983788D01*
X112862594Y-69981895D01*
X112781025Y-69962312D01*
X112636524Y-69927620D01*
X112636518Y-69927619D01*
X112631711Y-69926465D01*
X112395000Y-69907835D01*
X112158289Y-69926465D01*
X112153482Y-69927619D01*
X112153476Y-69927620D01*
X112008975Y-69962312D01*
X111927406Y-69981895D01*
X111922835Y-69983788D01*
X111922833Y-69983789D01*
X111712611Y-70070865D01*
X111712607Y-70070867D01*
X111708037Y-70072760D01*
X111703817Y-70075346D01*
X111509798Y-70194241D01*
X111509792Y-70194245D01*
X111505584Y-70196824D01*
X111325031Y-70351031D01*
X111321823Y-70354787D01*
X111321822Y-70354788D01*
X111310254Y-70368332D01*
X111250803Y-70407140D01*
X111214444Y-70412500D01*
X107979500Y-70412500D01*
X107911379Y-70392498D01*
X107864886Y-70338842D01*
X107853500Y-70286500D01*
X107853500Y-70025866D01*
X107846745Y-69963684D01*
X107795615Y-69827295D01*
X107708261Y-69710739D01*
X107591705Y-69623385D01*
X107455316Y-69572255D01*
X107447464Y-69571402D01*
X107447460Y-69571401D01*
X107423834Y-69568835D01*
X107419893Y-69568407D01*
X107354331Y-69541166D01*
X107313904Y-69482803D01*
X107307500Y-69443144D01*
X107307500Y-67508722D01*
X107308492Y-67492944D01*
X107311985Y-67465295D01*
X107312380Y-67437000D01*
X107293080Y-67240167D01*
X107235916Y-67050831D01*
X107143066Y-66876204D01*
X107055110Y-66768359D01*
X107021960Y-66727713D01*
X107021957Y-66727710D01*
X107018065Y-66722938D01*
X107010984Y-66717080D01*
X106870425Y-66600799D01*
X106870421Y-66600797D01*
X106865675Y-66596870D01*
X106691701Y-66502802D01*
X106502768Y-66444318D01*
X106496643Y-66443674D01*
X106496642Y-66443674D01*
X106312204Y-66424289D01*
X106312202Y-66424289D01*
X106306075Y-66423645D01*
X106223576Y-66431153D01*
X106115251Y-66441011D01*
X106115248Y-66441012D01*
X106109112Y-66441570D01*
X106103206Y-66443308D01*
X106103202Y-66443309D01*
X106038119Y-66462464D01*
X105919381Y-66497410D01*
X105913923Y-66500263D01*
X105913919Y-66500265D01*
X105857710Y-66529651D01*
X105744110Y-66589040D01*
X105589975Y-66712968D01*
X105462846Y-66864474D01*
X105459879Y-66869872D01*
X105459875Y-66869877D01*
X105381095Y-67013180D01*
X105367567Y-67037787D01*
X105365706Y-67043654D01*
X105365705Y-67043656D01*
X105309627Y-67220436D01*
X105307765Y-67226306D01*
X105285719Y-67422851D01*
X105286235Y-67428995D01*
X105290058Y-67474524D01*
X105290500Y-67485067D01*
X105290500Y-69439500D01*
X105270498Y-69507621D01*
X105216842Y-69554114D01*
X105164500Y-69565500D01*
X104696866Y-69565500D01*
X104634684Y-69572255D01*
X104498295Y-69623385D01*
X104381739Y-69710739D01*
X104294385Y-69827295D01*
X104243255Y-69963684D01*
X104236500Y-70025866D01*
X104236500Y-70899008D01*
X104216498Y-70967129D01*
X104162842Y-71013622D01*
X104092568Y-71023726D01*
X104027988Y-70994232D01*
X103989604Y-70934506D01*
X103987607Y-70926816D01*
X103969878Y-70848467D01*
X103967154Y-70839556D01*
X103873143Y-70597806D01*
X103869132Y-70589397D01*
X103740422Y-70364202D01*
X103735211Y-70356476D01*
X103574627Y-70152776D01*
X103568333Y-70145908D01*
X103379410Y-69968186D01*
X103372156Y-69962312D01*
X103159045Y-69814471D01*
X103151010Y-69809738D01*
X102918376Y-69695016D01*
X102909743Y-69691528D01*
X102662711Y-69612452D01*
X102653629Y-69610272D01*
X102506880Y-69586372D01*
X102493286Y-69588068D01*
X102489000Y-69602178D01*
X102489000Y-71502000D01*
X102468998Y-71570121D01*
X102415342Y-71616614D01*
X102363000Y-71628000D01*
X100460132Y-71628000D01*
X100447731Y-71631641D01*
X100445888Y-71647460D01*
X100473628Y-71786918D01*
X100467300Y-71857632D01*
X100423746Y-71913700D01*
X100350049Y-71937500D01*
X98772866Y-71937500D01*
X98769471Y-71937869D01*
X98769467Y-71937869D01*
X98721837Y-71943043D01*
X98651955Y-71930515D01*
X98619135Y-71906875D01*
X98285635Y-71573375D01*
X98277645Y-71564595D01*
X98277643Y-71564593D01*
X98273396Y-71557900D01*
X98255945Y-71541512D01*
X98221723Y-71509376D01*
X98218881Y-71506621D01*
X98198313Y-71486053D01*
X98194806Y-71483333D01*
X98185784Y-71475627D01*
X98181593Y-71471691D01*
X98152113Y-71444008D01*
X98145161Y-71440186D01*
X98133322Y-71433677D01*
X98116798Y-71422823D01*
X98106112Y-71414535D01*
X98099848Y-71409676D01*
X98092576Y-71406529D01*
X98092574Y-71406528D01*
X98057445Y-71391326D01*
X98046785Y-71386104D01*
X98013264Y-71367675D01*
X98013262Y-71367674D01*
X98006317Y-71363856D01*
X97985539Y-71358521D01*
X97966849Y-71352122D01*
X97947156Y-71343600D01*
X97901532Y-71336374D01*
X97889909Y-71333967D01*
X97856611Y-71325418D01*
X97845168Y-71322480D01*
X97823721Y-71322480D01*
X97804011Y-71320929D01*
X97790657Y-71318814D01*
X97782828Y-71317574D01*
X97736839Y-71321921D01*
X97724984Y-71322480D01*
X92407166Y-71322480D01*
X92339045Y-71302478D01*
X92299311Y-71256622D01*
X92290135Y-71248671D01*
X92282452Y-71247000D01*
X90348115Y-71247000D01*
X90332876Y-71251475D01*
X90331671Y-71252865D01*
X90330000Y-71260548D01*
X90330000Y-71287076D01*
X90309998Y-71355197D01*
X90265253Y-71396974D01*
X90259264Y-71399345D01*
X90226135Y-71423415D01*
X90221894Y-71426496D01*
X90211972Y-71433013D01*
X90179043Y-71452487D01*
X90179039Y-71452490D01*
X90172213Y-71456527D01*
X90157049Y-71471691D01*
X90142016Y-71484531D01*
X90124663Y-71497139D01*
X90096115Y-71531648D01*
X90095218Y-71532732D01*
X90087228Y-71541512D01*
X89821094Y-71807646D01*
X89758782Y-71841672D01*
X89687967Y-71836607D01*
X89631131Y-71794060D01*
X89606320Y-71727540D01*
X89605999Y-71718551D01*
X89605999Y-71589331D01*
X89605629Y-71582510D01*
X89600105Y-71531648D01*
X89596479Y-71516396D01*
X89551324Y-71395946D01*
X89542786Y-71380351D01*
X89466285Y-71278276D01*
X89453724Y-71265715D01*
X89351649Y-71189214D01*
X89336054Y-71180676D01*
X89215606Y-71135522D01*
X89200351Y-71131895D01*
X89149486Y-71126369D01*
X89142672Y-71126000D01*
X89017934Y-71126000D01*
X88983892Y-71118335D01*
X88979648Y-71118000D01*
X88645115Y-71118000D01*
X88629876Y-71122475D01*
X88628671Y-71123865D01*
X88627000Y-71131548D01*
X88627000Y-71799500D01*
X88606998Y-71867621D01*
X88553342Y-71914114D01*
X88501000Y-71925500D01*
X88141137Y-71925500D01*
X88073016Y-71905498D01*
X88026523Y-71851842D01*
X88016419Y-71781568D01*
X88045913Y-71716988D01*
X88105639Y-71678604D01*
X88116124Y-71675525D01*
X88117329Y-71674135D01*
X88119000Y-71666452D01*
X88119000Y-71136115D01*
X88114525Y-71120876D01*
X88113135Y-71119671D01*
X88105452Y-71118000D01*
X87730115Y-71118000D01*
X87714876Y-71122475D01*
X87713671Y-71123865D01*
X87712000Y-71131548D01*
X87712000Y-71589874D01*
X87691998Y-71657995D01*
X87638342Y-71704488D01*
X87568068Y-71714592D01*
X87507461Y-71685176D01*
X87506187Y-71686843D01*
X87367743Y-71580994D01*
X87367739Y-71580991D01*
X87362322Y-71576850D01*
X87356142Y-71573968D01*
X87356140Y-71573967D01*
X87276750Y-71536947D01*
X87223465Y-71490030D01*
X87204000Y-71422752D01*
X87204000Y-71136115D01*
X87199525Y-71120876D01*
X87198135Y-71119671D01*
X87190452Y-71118000D01*
X85950076Y-71118000D01*
X85936545Y-71121973D01*
X85935425Y-71129768D01*
X85967138Y-71237521D01*
X85971731Y-71248889D01*
X86057607Y-71413154D01*
X86064321Y-71423415D01*
X86180468Y-71567873D01*
X86189045Y-71576632D01*
X86241110Y-71620319D01*
X86280436Y-71679428D01*
X86281563Y-71750416D01*
X86264331Y-71787663D01*
X86187723Y-71900388D01*
X86120470Y-72068534D01*
X86119356Y-72075262D01*
X86119355Y-72075266D01*
X86102184Y-72178990D01*
X86090892Y-72247198D01*
X86091249Y-72254015D01*
X86091249Y-72254019D01*
X86096635Y-72356776D01*
X86100370Y-72428047D01*
X86102181Y-72434620D01*
X86102181Y-72434623D01*
X86127265Y-72525689D01*
X86148461Y-72602641D01*
X86232922Y-72762836D01*
X86237327Y-72768049D01*
X86237330Y-72768053D01*
X86304524Y-72847565D01*
X86333216Y-72912506D01*
X86322243Y-72982649D01*
X86297381Y-73017988D01*
X85875214Y-73440155D01*
X85866433Y-73448145D01*
X85866424Y-73448153D01*
X85859734Y-73452398D01*
X85854311Y-73458173D01*
X85811194Y-73504088D01*
X85808439Y-73506930D01*
X85787888Y-73527481D01*
X85785457Y-73530615D01*
X85785176Y-73530977D01*
X85777466Y-73540005D01*
X85745842Y-73573681D01*
X85742021Y-73580632D01*
X85742020Y-73580633D01*
X85735513Y-73592469D01*
X85724657Y-73608997D01*
X85711510Y-73625945D01*
X85693155Y-73668359D01*
X85687943Y-73678997D01*
X85665690Y-73719477D01*
X85663719Y-73727154D01*
X85663717Y-73727159D01*
X85660359Y-73740240D01*
X85653954Y-73758948D01*
X85645434Y-73778637D01*
X85644195Y-73786463D01*
X85644194Y-73786465D01*
X85638207Y-73824270D01*
X85635802Y-73835884D01*
X85624314Y-73880626D01*
X85624314Y-73902072D01*
X85622763Y-73921782D01*
X85619408Y-73942965D01*
X85620154Y-73950856D01*
X85623755Y-73988951D01*
X85624314Y-74000809D01*
X85624314Y-76322130D01*
X85623755Y-76333986D01*
X85622026Y-76341723D01*
X85623393Y-76385215D01*
X85624252Y-76412555D01*
X85624314Y-76416513D01*
X85624314Y-76445618D01*
X85624870Y-76450018D01*
X85625802Y-76461850D01*
X85627252Y-76508017D01*
X85631662Y-76523194D01*
X85633233Y-76528602D01*
X85637244Y-76547968D01*
X85639932Y-76569250D01*
X85642848Y-76576615D01*
X85642849Y-76576619D01*
X85656940Y-76612207D01*
X85660779Y-76623417D01*
X85673669Y-76667786D01*
X85677703Y-76674607D01*
X85684583Y-76686240D01*
X85693280Y-76703993D01*
X85701179Y-76723942D01*
X85705837Y-76730353D01*
X85705838Y-76730355D01*
X85728337Y-76761322D01*
X85734852Y-76771240D01*
X85758362Y-76810993D01*
X85773519Y-76826150D01*
X85786360Y-76841183D01*
X85798973Y-76858543D01*
X85805080Y-76863595D01*
X85834572Y-76887993D01*
X85843352Y-76895983D01*
X86294758Y-77347389D01*
X86328784Y-77409701D01*
X86323719Y-77480516D01*
X86297739Y-77519736D01*
X86298896Y-77520721D01*
X86294472Y-77525920D01*
X86289515Y-77530607D01*
X86187723Y-77680388D01*
X86120470Y-77848534D01*
X86119356Y-77855262D01*
X86119355Y-77855266D01*
X86092007Y-78020461D01*
X86090892Y-78027198D01*
X86091249Y-78034015D01*
X86091249Y-78034019D01*
X86092804Y-78063688D01*
X86100370Y-78208047D01*
X86102181Y-78214620D01*
X86102181Y-78214623D01*
X86127226Y-78305547D01*
X86148461Y-78382641D01*
X86232922Y-78542836D01*
X86237327Y-78548049D01*
X86237330Y-78548053D01*
X86255694Y-78569783D01*
X86284386Y-78634724D01*
X86273413Y-78704868D01*
X86239092Y-78748754D01*
X86199067Y-78781397D01*
X86190363Y-78790041D01*
X86072216Y-78932856D01*
X86065356Y-78943027D01*
X85977196Y-79106076D01*
X85972444Y-79117381D01*
X85936750Y-79232692D01*
X85936544Y-79246795D01*
X85943299Y-79250000D01*
X87185885Y-79250000D01*
X87201124Y-79245525D01*
X87202329Y-79244135D01*
X87204000Y-79236452D01*
X87204000Y-78949830D01*
X87224002Y-78881709D01*
X87276218Y-78836257D01*
X87279675Y-78835094D01*
X87288438Y-78829829D01*
X87415794Y-78753306D01*
X87434905Y-78741823D01*
X87439862Y-78737135D01*
X87439865Y-78737133D01*
X87499427Y-78680807D01*
X87562664Y-78648535D01*
X87633311Y-78655575D01*
X87688937Y-78699691D01*
X87712000Y-78772355D01*
X87712000Y-79231885D01*
X87716475Y-79247124D01*
X87717865Y-79248329D01*
X87725548Y-79250000D01*
X88100885Y-79250000D01*
X88116124Y-79245525D01*
X88117329Y-79244135D01*
X88119000Y-79236452D01*
X88119000Y-78706115D01*
X88114525Y-78690876D01*
X88103947Y-78681710D01*
X88059786Y-78657596D01*
X88025761Y-78595284D01*
X88030825Y-78524468D01*
X88073372Y-78467632D01*
X88139892Y-78442821D01*
X88148881Y-78442500D01*
X88501000Y-78442500D01*
X88569121Y-78462502D01*
X88615614Y-78516158D01*
X88627000Y-78568500D01*
X88627000Y-79231885D01*
X88631475Y-79247124D01*
X88632865Y-79248329D01*
X88640548Y-79250000D01*
X88965924Y-79250000D01*
X88975790Y-79247103D01*
X89011288Y-79241999D01*
X89142669Y-79241999D01*
X89149490Y-79241629D01*
X89200352Y-79236105D01*
X89215604Y-79232479D01*
X89336054Y-79187324D01*
X89351648Y-79178786D01*
X89375627Y-79160815D01*
X89442133Y-79135967D01*
X89511516Y-79151020D01*
X89561746Y-79201194D01*
X89576519Y-79248634D01*
X89578076Y-79263633D01*
X89580968Y-79277028D01*
X89631488Y-79428453D01*
X89637653Y-79441615D01*
X89721426Y-79576992D01*
X89730460Y-79588390D01*
X89843129Y-79700863D01*
X89854540Y-79709875D01*
X89990063Y-79793412D01*
X90003241Y-79799556D01*
X90154766Y-79849815D01*
X90168132Y-79852681D01*
X90260770Y-79862172D01*
X90267185Y-79862500D01*
X90278885Y-79862500D01*
X90294124Y-79858025D01*
X90295329Y-79856635D01*
X90297000Y-79848952D01*
X90297000Y-79844385D01*
X90805000Y-79844385D01*
X90809475Y-79859624D01*
X90810865Y-79860829D01*
X90818548Y-79862500D01*
X90834766Y-79862500D01*
X90841282Y-79862163D01*
X90935132Y-79852425D01*
X90948534Y-79849530D01*
X91068123Y-79809632D01*
X91139073Y-79807047D01*
X91200157Y-79843230D01*
X91231982Y-79906694D01*
X91234000Y-79929155D01*
X91234000Y-79991885D01*
X91238475Y-80007124D01*
X91239865Y-80008329D01*
X91247548Y-80010000D01*
X91969885Y-80010000D01*
X91985124Y-80005525D01*
X91986329Y-80004135D01*
X91988000Y-79996452D01*
X91988000Y-79274116D01*
X91983525Y-79258877D01*
X91982135Y-79257672D01*
X91974452Y-79256001D01*
X91697331Y-79256001D01*
X91690517Y-79256370D01*
X91673608Y-79258207D01*
X91603725Y-79245679D01*
X91551710Y-79197358D01*
X91540373Y-79156125D01*
X91539104Y-79156498D01*
X91529525Y-79123876D01*
X91528135Y-79122671D01*
X91520452Y-79121000D01*
X90823115Y-79121000D01*
X90807876Y-79125475D01*
X90806671Y-79126865D01*
X90805000Y-79134548D01*
X90805000Y-79844385D01*
X90297000Y-79844385D01*
X90297000Y-78739000D01*
X90317002Y-78670879D01*
X90370658Y-78624386D01*
X90423000Y-78613000D01*
X91515885Y-78613000D01*
X91531124Y-78608525D01*
X91532329Y-78607135D01*
X91534000Y-78599452D01*
X91534000Y-78570734D01*
X91533663Y-78564218D01*
X91523925Y-78470368D01*
X91521032Y-78456972D01*
X91470512Y-78305547D01*
X91464347Y-78292385D01*
X91380574Y-78157008D01*
X91371540Y-78145610D01*
X91269860Y-78044107D01*
X91235781Y-77981824D01*
X91240784Y-77911004D01*
X91269705Y-77865916D01*
X91280337Y-77855266D01*
X91377929Y-77757503D01*
X91399611Y-77722329D01*
X91465369Y-77615650D01*
X91465370Y-77615648D01*
X91469209Y-77609420D01*
X91523974Y-77444309D01*
X91525656Y-77427892D01*
X91540698Y-77391059D01*
X91761361Y-77391059D01*
X91774885Y-77417742D01*
X91777000Y-77440734D01*
X91777000Y-77493885D01*
X91781475Y-77509124D01*
X91782865Y-77510329D01*
X91790548Y-77512000D01*
X92612885Y-77512000D01*
X92628124Y-77507525D01*
X92629329Y-77506135D01*
X92631000Y-77498452D01*
X92631000Y-76430598D01*
X92627027Y-76417067D01*
X92617601Y-76415712D01*
X92528463Y-76437194D01*
X92517168Y-76441083D01*
X92335618Y-76523629D01*
X92325276Y-76529576D01*
X92162603Y-76644968D01*
X92153575Y-76652761D01*
X92015658Y-76796831D01*
X92008262Y-76806196D01*
X91900079Y-76973741D01*
X91894583Y-76984345D01*
X91820039Y-77169312D01*
X91816645Y-77180770D01*
X91784164Y-77347094D01*
X91761361Y-77391059D01*
X91540698Y-77391059D01*
X91549201Y-77370236D01*
X91535041Y-77334613D01*
X91534500Y-77322944D01*
X91534500Y-76742428D01*
X91534163Y-76739178D01*
X91524419Y-76645265D01*
X91524418Y-76645261D01*
X91523707Y-76638407D01*
X91517999Y-76621296D01*
X91470972Y-76480341D01*
X91468654Y-76473393D01*
X91377116Y-76325469D01*
X91371934Y-76320296D01*
X91259184Y-76207742D01*
X91259179Y-76207738D01*
X91254003Y-76202571D01*
X91247772Y-76198730D01*
X91112150Y-76115131D01*
X91112148Y-76115130D01*
X91105920Y-76111291D01*
X90940809Y-76056526D01*
X90933973Y-76055826D01*
X90933970Y-76055825D01*
X90882474Y-76050549D01*
X90838072Y-76046000D01*
X90619451Y-76046000D01*
X90551330Y-76025998D01*
X90504837Y-75972342D01*
X90494733Y-75902068D01*
X90503816Y-75869955D01*
X90509656Y-75856461D01*
X90514876Y-75845805D01*
X90533305Y-75812284D01*
X90533306Y-75812282D01*
X90537124Y-75805337D01*
X90542459Y-75784559D01*
X90548858Y-75765869D01*
X90557380Y-75746176D01*
X90564606Y-75700552D01*
X90567019Y-75688906D01*
X90567472Y-75687143D01*
X90603798Y-75626143D01*
X90667336Y-75594466D01*
X90689508Y-75592500D01*
X92285876Y-75592500D01*
X92353997Y-75612502D01*
X92364187Y-75620707D01*
X92364571Y-75620220D01*
X92370317Y-75624758D01*
X92375497Y-75629929D01*
X92381727Y-75633769D01*
X92381728Y-75633770D01*
X92497403Y-75705073D01*
X92523580Y-75721209D01*
X92688691Y-75775974D01*
X92695527Y-75776674D01*
X92695530Y-75776675D01*
X92742851Y-75781523D01*
X92791428Y-75786500D01*
X93390572Y-75786500D01*
X93393818Y-75786163D01*
X93393822Y-75786163D01*
X93487735Y-75776419D01*
X93487739Y-75776418D01*
X93494593Y-75775707D01*
X93501129Y-75773526D01*
X93501131Y-75773526D01*
X93644662Y-75725640D01*
X93659607Y-75720654D01*
X93807531Y-75629116D01*
X93815925Y-75620707D01*
X93914247Y-75522214D01*
X93976530Y-75488135D01*
X94047350Y-75493138D01*
X94092437Y-75522059D01*
X94195312Y-75624754D01*
X94195317Y-75624758D01*
X94200497Y-75629929D01*
X94206727Y-75633769D01*
X94206728Y-75633770D01*
X94322403Y-75705073D01*
X94348580Y-75721209D01*
X94513691Y-75775974D01*
X94520527Y-75776674D01*
X94520530Y-75776675D01*
X94567851Y-75781523D01*
X94616428Y-75786500D01*
X95215572Y-75786500D01*
X95218818Y-75786163D01*
X95218822Y-75786163D01*
X95312735Y-75776419D01*
X95312739Y-75776418D01*
X95319593Y-75775707D01*
X95326129Y-75773526D01*
X95326131Y-75773526D01*
X95469662Y-75725640D01*
X95484607Y-75720654D01*
X95632531Y-75629116D01*
X95641412Y-75620220D01*
X95750259Y-75511182D01*
X95755429Y-75506003D01*
X95759269Y-75499774D01*
X95760939Y-75497659D01*
X95818856Y-75456597D01*
X95889779Y-75453366D01*
X95904049Y-75457770D01*
X96003282Y-75494971D01*
X96003288Y-75494973D01*
X96010684Y-75497745D01*
X96072866Y-75504500D01*
X97371249Y-75504500D01*
X97439370Y-75524502D01*
X97485863Y-75578158D01*
X97495967Y-75648432D01*
X97466473Y-75713012D01*
X97465314Y-75714218D01*
X97462643Y-75716159D01*
X97457643Y-75722203D01*
X97457642Y-75722204D01*
X97433194Y-75751757D01*
X97425204Y-75760537D01*
X96835039Y-76350702D01*
X96772727Y-76384728D01*
X96751771Y-76387472D01*
X96728101Y-76388567D01*
X96722277Y-76389971D01*
X96722274Y-76389971D01*
X96528299Y-76436719D01*
X96528297Y-76436720D01*
X96522466Y-76438125D01*
X96517008Y-76440607D01*
X96517004Y-76440608D01*
X96425990Y-76481990D01*
X96329913Y-76525674D01*
X96157389Y-76648054D01*
X96011119Y-76800850D01*
X96007866Y-76805888D01*
X95990254Y-76833163D01*
X95936499Y-76879540D01*
X95866203Y-76889493D01*
X95801686Y-76859861D01*
X95785317Y-76842647D01*
X95777871Y-76833167D01*
X95691396Y-76723080D01*
X95686865Y-76719148D01*
X95686862Y-76719145D01*
X95536167Y-76588379D01*
X95531637Y-76584448D01*
X95526451Y-76581448D01*
X95526447Y-76581445D01*
X95353742Y-76481533D01*
X95348546Y-76478527D01*
X95148729Y-76409139D01*
X95142794Y-76408278D01*
X95142792Y-76408278D01*
X94945336Y-76379648D01*
X94945333Y-76379648D01*
X94939396Y-76378787D01*
X94728101Y-76388567D01*
X94609844Y-76417067D01*
X94528299Y-76436719D01*
X94528297Y-76436720D01*
X94522466Y-76438125D01*
X94517008Y-76440607D01*
X94517004Y-76440608D01*
X94425990Y-76481990D01*
X94329913Y-76525674D01*
X94157389Y-76648054D01*
X94011119Y-76800850D01*
X94007870Y-76805881D01*
X94007865Y-76805888D01*
X93989967Y-76833607D01*
X93936211Y-76879984D01*
X93865915Y-76889937D01*
X93801398Y-76860304D01*
X93785030Y-76843091D01*
X93694738Y-76728143D01*
X93686501Y-76719494D01*
X93535877Y-76588788D01*
X93526153Y-76581853D01*
X93353533Y-76481990D01*
X93342669Y-76477016D01*
X93154273Y-76411593D01*
X93153284Y-76411352D01*
X93142992Y-76412820D01*
X93139000Y-76426385D01*
X93139000Y-77894000D01*
X93118998Y-77962121D01*
X93065342Y-78008614D01*
X93013000Y-78020000D01*
X91795115Y-78020000D01*
X91779876Y-78024475D01*
X91778671Y-78025865D01*
X91777000Y-78033548D01*
X91777000Y-78090832D01*
X91777285Y-78096808D01*
X91791471Y-78245494D01*
X91793730Y-78257228D01*
X91849872Y-78448599D01*
X91854302Y-78459675D01*
X91945619Y-78636978D01*
X91952069Y-78647024D01*
X92075262Y-78803857D01*
X92083499Y-78812506D01*
X92234123Y-78943212D01*
X92243847Y-78950147D01*
X92416467Y-79050010D01*
X92427334Y-79054985D01*
X92443531Y-79060610D01*
X92501321Y-79101851D01*
X92527641Y-79167789D01*
X92514133Y-79237489D01*
X92497697Y-79261746D01*
X92496000Y-79269548D01*
X92496000Y-79991885D01*
X92500475Y-80007124D01*
X92501865Y-80008329D01*
X92509548Y-80010000D01*
X93231884Y-80010000D01*
X93247123Y-80005525D01*
X93248328Y-80004135D01*
X93249999Y-79996452D01*
X93249999Y-79719331D01*
X93249629Y-79712510D01*
X93244105Y-79661648D01*
X93240479Y-79646396D01*
X93195324Y-79525946D01*
X93186786Y-79510351D01*
X93110285Y-79408276D01*
X93097725Y-79395716D01*
X93043177Y-79354835D01*
X93000661Y-79297976D01*
X92995635Y-79227157D01*
X93029695Y-79164864D01*
X93089220Y-79131515D01*
X93241536Y-79094806D01*
X93252832Y-79090917D01*
X93434382Y-79008371D01*
X93444724Y-79002424D01*
X93607397Y-78887032D01*
X93616425Y-78879239D01*
X93754342Y-78735169D01*
X93761741Y-78725800D01*
X93779418Y-78698423D01*
X93833172Y-78652045D01*
X93903468Y-78642091D01*
X93967985Y-78671722D01*
X93984356Y-78688937D01*
X94074898Y-78804203D01*
X94074902Y-78804207D01*
X94078604Y-78808920D01*
X94083134Y-78812851D01*
X94083135Y-78812852D01*
X94183081Y-78899581D01*
X94221422Y-78959334D01*
X94226500Y-78994746D01*
X94226500Y-79141171D01*
X94206498Y-79209292D01*
X94152842Y-79255785D01*
X94135082Y-79261886D01*
X94131684Y-79262255D01*
X93995295Y-79313385D01*
X93878739Y-79400739D01*
X93791385Y-79517295D01*
X93740255Y-79653684D01*
X93733500Y-79715866D01*
X93733500Y-80289050D01*
X93713498Y-80357171D01*
X93696595Y-80378146D01*
X93465095Y-80609645D01*
X93402783Y-80643670D01*
X93331967Y-80638605D01*
X93275132Y-80596058D01*
X93258848Y-80552399D01*
X93255104Y-80553498D01*
X93245525Y-80520876D01*
X93244135Y-80519671D01*
X93236452Y-80518000D01*
X91252116Y-80518000D01*
X91236877Y-80522475D01*
X91235672Y-80523865D01*
X91234001Y-80531548D01*
X91234001Y-80751000D01*
X91213999Y-80819121D01*
X91160343Y-80865614D01*
X91108001Y-80877000D01*
X91077115Y-80877000D01*
X91061876Y-80881475D01*
X91060671Y-80882865D01*
X91059000Y-80890548D01*
X91059000Y-82912885D01*
X91063475Y-82928124D01*
X91064865Y-82929329D01*
X91072548Y-82931000D01*
X92194226Y-82931000D01*
X92209465Y-82926525D01*
X92213949Y-82921350D01*
X92313755Y-82322517D01*
X92344684Y-82258611D01*
X92405253Y-82221572D01*
X92476232Y-82223158D01*
X92536786Y-82264966D01*
X92607153Y-82353747D01*
X92616035Y-82364953D01*
X92620728Y-82368947D01*
X92620729Y-82368948D01*
X92745726Y-82475328D01*
X92766650Y-82493136D01*
X92939294Y-82589624D01*
X93127392Y-82650740D01*
X93196527Y-82658984D01*
X93201919Y-82659627D01*
X93267192Y-82687555D01*
X93307005Y-82746338D01*
X93313000Y-82784741D01*
X93313000Y-83400885D01*
X93317475Y-83416124D01*
X93318865Y-83417329D01*
X93326548Y-83419000D01*
X94723885Y-83419000D01*
X94739124Y-83414525D01*
X94740329Y-83413135D01*
X94742000Y-83405452D01*
X94742000Y-82058116D01*
X94737525Y-82042877D01*
X94736135Y-82041672D01*
X94728452Y-82040001D01*
X94455319Y-82040001D01*
X94387198Y-82019999D01*
X94340705Y-81966343D01*
X94330601Y-81896069D01*
X94331751Y-81889861D01*
X94333197Y-81885513D01*
X94357985Y-81689295D01*
X94358380Y-81661000D01*
X94356859Y-81645489D01*
X94370118Y-81575742D01*
X94393162Y-81544098D01*
X94627854Y-81309405D01*
X94690167Y-81275380D01*
X94716950Y-81272500D01*
X94766566Y-81272500D01*
X94834687Y-81292502D01*
X94862419Y-81317092D01*
X94865584Y-81322080D01*
X94871361Y-81327505D01*
X94917257Y-81370604D01*
X94920099Y-81373359D01*
X94940667Y-81393927D01*
X94944170Y-81396644D01*
X94953195Y-81404352D01*
X94986867Y-81435972D01*
X94993818Y-81439793D01*
X94993819Y-81439794D01*
X95005658Y-81446303D01*
X95022182Y-81457157D01*
X95032271Y-81464982D01*
X95039132Y-81470304D01*
X95046404Y-81473451D01*
X95046406Y-81473452D01*
X95081535Y-81488654D01*
X95092196Y-81493876D01*
X95132663Y-81516124D01*
X95153441Y-81521459D01*
X95172131Y-81527858D01*
X95191824Y-81536380D01*
X95235596Y-81543313D01*
X95237448Y-81543606D01*
X95249071Y-81546013D01*
X95277072Y-81553202D01*
X95293812Y-81557500D01*
X95315259Y-81557500D01*
X95334969Y-81559051D01*
X95356152Y-81562406D01*
X95399788Y-81558281D01*
X95469486Y-81571783D01*
X95507326Y-81602937D01*
X95507384Y-81603031D01*
X95512567Y-81608205D01*
X95625316Y-81720758D01*
X95625321Y-81720762D01*
X95630497Y-81725929D01*
X95636727Y-81729769D01*
X95636728Y-81729770D01*
X95761596Y-81806740D01*
X95809089Y-81859512D01*
X95820513Y-81929584D01*
X95792239Y-81994708D01*
X95733245Y-82034207D01*
X95695480Y-82040000D01*
X95268115Y-82040000D01*
X95252876Y-82044475D01*
X95251671Y-82045865D01*
X95250000Y-82053548D01*
X95250000Y-83400885D01*
X95254475Y-83416124D01*
X95255865Y-83417329D01*
X95263548Y-83419000D01*
X96660884Y-83419000D01*
X96676123Y-83414525D01*
X96677328Y-83413135D01*
X96678999Y-83405452D01*
X96678999Y-82750905D01*
X96678662Y-82744386D01*
X96668743Y-82648794D01*
X96665851Y-82635400D01*
X96614412Y-82481216D01*
X96608239Y-82468038D01*
X96522937Y-82330193D01*
X96513901Y-82318792D01*
X96399171Y-82204261D01*
X96387760Y-82195249D01*
X96258804Y-82115760D01*
X96211311Y-82062988D01*
X96199887Y-81992917D01*
X96228161Y-81927793D01*
X96287155Y-81888293D01*
X96324920Y-81882500D01*
X96645572Y-81882500D01*
X96648818Y-81882163D01*
X96648822Y-81882163D01*
X96742735Y-81872419D01*
X96742739Y-81872418D01*
X96749593Y-81871707D01*
X96756129Y-81869526D01*
X96756131Y-81869526D01*
X96888895Y-81825232D01*
X96914607Y-81816654D01*
X97062531Y-81725116D01*
X97076175Y-81711448D01*
X97169247Y-81618214D01*
X97231530Y-81584135D01*
X97302350Y-81589138D01*
X97347437Y-81618059D01*
X97450312Y-81720754D01*
X97450317Y-81720758D01*
X97455497Y-81725929D01*
X97461727Y-81729769D01*
X97461728Y-81729770D01*
X97587831Y-81807501D01*
X97603580Y-81817209D01*
X97768691Y-81871974D01*
X97775527Y-81872674D01*
X97775530Y-81872675D01*
X97827026Y-81877951D01*
X97871428Y-81882500D01*
X98470572Y-81882500D01*
X98473818Y-81882163D01*
X98473822Y-81882163D01*
X98567735Y-81872419D01*
X98567739Y-81872418D01*
X98574593Y-81871707D01*
X98581129Y-81869526D01*
X98581131Y-81869526D01*
X98713895Y-81825232D01*
X98739607Y-81816654D01*
X98887531Y-81725116D01*
X98901175Y-81711448D01*
X99005258Y-81607184D01*
X99005262Y-81607179D01*
X99010429Y-81602003D01*
X99035297Y-81561660D01*
X99097869Y-81460150D01*
X99097870Y-81460148D01*
X99101709Y-81453920D01*
X99156474Y-81288809D01*
X99167000Y-81186072D01*
X99167000Y-80886449D01*
X99187002Y-80818328D01*
X99203905Y-80797354D01*
X99292600Y-80708659D01*
X99301381Y-80700669D01*
X99301390Y-80700661D01*
X99308080Y-80696416D01*
X99356620Y-80644726D01*
X99359374Y-80641885D01*
X99379926Y-80621333D01*
X99382638Y-80617837D01*
X99390349Y-80608808D01*
X99410872Y-80586953D01*
X99421972Y-80575133D01*
X99432301Y-80556345D01*
X99443158Y-80539816D01*
X99451447Y-80529131D01*
X99451448Y-80529129D01*
X99456304Y-80522869D01*
X99474657Y-80480456D01*
X99479868Y-80469819D01*
X99502124Y-80429337D01*
X99506706Y-80411493D01*
X99507457Y-80408566D01*
X99513859Y-80389864D01*
X99522379Y-80370177D01*
X99526730Y-80342708D01*
X99529605Y-80324552D01*
X99532013Y-80312926D01*
X99541529Y-80275865D01*
X99541529Y-80275864D01*
X99543500Y-80268188D01*
X99543500Y-80246742D01*
X99545051Y-80227031D01*
X99547166Y-80213678D01*
X99548406Y-80205849D01*
X99544059Y-80159864D01*
X99543500Y-80148006D01*
X99543500Y-80052500D01*
X99563502Y-79984379D01*
X99617158Y-79937886D01*
X99669500Y-79926500D01*
X99747800Y-79926500D01*
X99815921Y-79946502D01*
X99836816Y-79963325D01*
X99880997Y-80007429D01*
X99887227Y-80011269D01*
X99887228Y-80011270D01*
X100006662Y-80084890D01*
X100029080Y-80098709D01*
X100194191Y-80153474D01*
X100201027Y-80154174D01*
X100201030Y-80154175D01*
X100252526Y-80159451D01*
X100296928Y-80164000D01*
X100871072Y-80164000D01*
X100874318Y-80163663D01*
X100874322Y-80163663D01*
X100968235Y-80153919D01*
X100968239Y-80153918D01*
X100975093Y-80153207D01*
X100981629Y-80151026D01*
X100981631Y-80151026D01*
X101114395Y-80106732D01*
X101140107Y-80098154D01*
X101288031Y-80006616D01*
X101331089Y-79963482D01*
X101393373Y-79929403D01*
X101420263Y-79926500D01*
X103340130Y-79926500D01*
X103359080Y-79927933D01*
X103373315Y-79930099D01*
X103373319Y-79930099D01*
X103380549Y-79931199D01*
X103387841Y-79930606D01*
X103387844Y-79930606D01*
X103433218Y-79926915D01*
X103443433Y-79926500D01*
X103451493Y-79926500D01*
X103464783Y-79924951D01*
X103479707Y-79923211D01*
X103484082Y-79922778D01*
X103549539Y-79917454D01*
X103549542Y-79917453D01*
X103556837Y-79916860D01*
X103563801Y-79914604D01*
X103569760Y-79913413D01*
X103575615Y-79912029D01*
X103582881Y-79911182D01*
X103651527Y-79886265D01*
X103655655Y-79884848D01*
X103718136Y-79864607D01*
X103718138Y-79864606D01*
X103725099Y-79862351D01*
X103731354Y-79858555D01*
X103736828Y-79856049D01*
X103742258Y-79853330D01*
X103749137Y-79850833D01*
X103758972Y-79844385D01*
X103810176Y-79810814D01*
X103813880Y-79808477D01*
X103876307Y-79770595D01*
X103884684Y-79763197D01*
X103884708Y-79763224D01*
X103887700Y-79760571D01*
X103890933Y-79757868D01*
X103897052Y-79753856D01*
X103950328Y-79697617D01*
X103952706Y-79695175D01*
X104874476Y-78773405D01*
X104936788Y-78739379D01*
X104963571Y-78736500D01*
X105511569Y-78736500D01*
X105579690Y-78756502D01*
X105593231Y-78766546D01*
X105601291Y-78773405D01*
X105637377Y-78804116D01*
X105644450Y-78810136D01*
X105817094Y-78906624D01*
X106005192Y-78967740D01*
X106201577Y-78991158D01*
X106207712Y-78990686D01*
X106207714Y-78990686D01*
X106392630Y-78976457D01*
X106392634Y-78976456D01*
X106398772Y-78975984D01*
X106589263Y-78922798D01*
X106594767Y-78920018D01*
X106594769Y-78920017D01*
X106760295Y-78836404D01*
X106760297Y-78836403D01*
X106765796Y-78833625D01*
X106921647Y-78711861D01*
X107022273Y-78595284D01*
X107046849Y-78566813D01*
X107046850Y-78566811D01*
X107050878Y-78562145D01*
X107148569Y-78390179D01*
X107191286Y-78261766D01*
X111630000Y-78261766D01*
X111630337Y-78268282D01*
X111640075Y-78362132D01*
X111642968Y-78375528D01*
X111693488Y-78526953D01*
X111699653Y-78540115D01*
X111783426Y-78675492D01*
X111792460Y-78686890D01*
X111905129Y-78799363D01*
X111916540Y-78808375D01*
X111931892Y-78817838D01*
X111939030Y-78825770D01*
X111961425Y-78836043D01*
X112052059Y-78891910D01*
X112065241Y-78898056D01*
X112216766Y-78948315D01*
X112230132Y-78951181D01*
X112322770Y-78960672D01*
X112329185Y-78961000D01*
X112403385Y-78961000D01*
X112418624Y-78956525D01*
X112419829Y-78955135D01*
X112421500Y-78947452D01*
X112421500Y-78250115D01*
X112417025Y-78234876D01*
X112415635Y-78233671D01*
X112407952Y-78232000D01*
X111648115Y-78232000D01*
X111632876Y-78236475D01*
X111631671Y-78237865D01*
X111630000Y-78245548D01*
X111630000Y-78261766D01*
X107191286Y-78261766D01*
X107210997Y-78202513D01*
X107235785Y-78006295D01*
X107236180Y-77978000D01*
X107216880Y-77781167D01*
X107211300Y-77762683D01*
X107194151Y-77705885D01*
X111630000Y-77705885D01*
X111634475Y-77721124D01*
X111635865Y-77722329D01*
X111643548Y-77724000D01*
X112403385Y-77724000D01*
X112418624Y-77719525D01*
X112419829Y-77718135D01*
X112421500Y-77710452D01*
X112421500Y-77013115D01*
X112417025Y-76997876D01*
X112415635Y-76996671D01*
X112407952Y-76995000D01*
X112329234Y-76995000D01*
X112322718Y-76995337D01*
X112228868Y-77005075D01*
X112215472Y-77007968D01*
X112064047Y-77058488D01*
X112050885Y-77064653D01*
X111915508Y-77148426D01*
X111904110Y-77157460D01*
X111791637Y-77270129D01*
X111782625Y-77281540D01*
X111699088Y-77417063D01*
X111692944Y-77430241D01*
X111642685Y-77581766D01*
X111639819Y-77595132D01*
X111630328Y-77687770D01*
X111630000Y-77694185D01*
X111630000Y-77705885D01*
X107194151Y-77705885D01*
X107176001Y-77645771D01*
X107159716Y-77591831D01*
X107066866Y-77417204D01*
X106967335Y-77295167D01*
X106945760Y-77268713D01*
X106945757Y-77268710D01*
X106941865Y-77263938D01*
X106906665Y-77234818D01*
X106794225Y-77141799D01*
X106794221Y-77141797D01*
X106789475Y-77137870D01*
X106615501Y-77043802D01*
X106426568Y-76985318D01*
X106420443Y-76984674D01*
X106420442Y-76984674D01*
X106236004Y-76965289D01*
X106236002Y-76965289D01*
X106229875Y-76964645D01*
X106147376Y-76972153D01*
X106039051Y-76982011D01*
X106039048Y-76982012D01*
X106032912Y-76982570D01*
X106027006Y-76984308D01*
X106027002Y-76984309D01*
X105944645Y-77008548D01*
X105843181Y-77038410D01*
X105837723Y-77041263D01*
X105837719Y-77041265D01*
X105792983Y-77064653D01*
X105667910Y-77130040D01*
X105663112Y-77133898D01*
X105663110Y-77133899D01*
X105591224Y-77191697D01*
X105525602Y-77218793D01*
X105512272Y-77219500D01*
X104664269Y-77219500D01*
X104645321Y-77218067D01*
X104637980Y-77216950D01*
X104631083Y-77215901D01*
X104631081Y-77215901D01*
X104623851Y-77214801D01*
X104616559Y-77215394D01*
X104616556Y-77215394D01*
X104571182Y-77219085D01*
X104560967Y-77219500D01*
X104552907Y-77219500D01*
X104539617Y-77221049D01*
X104524693Y-77222789D01*
X104520318Y-77223222D01*
X104454861Y-77228546D01*
X104454858Y-77228547D01*
X104447563Y-77229140D01*
X104440599Y-77231396D01*
X104434640Y-77232587D01*
X104428785Y-77233971D01*
X104421519Y-77234818D01*
X104352873Y-77259735D01*
X104348745Y-77261152D01*
X104286264Y-77281393D01*
X104286262Y-77281394D01*
X104279301Y-77283649D01*
X104273046Y-77287445D01*
X104267572Y-77289951D01*
X104262142Y-77292670D01*
X104255263Y-77295167D01*
X104249143Y-77299180D01*
X104249142Y-77299180D01*
X104194224Y-77335186D01*
X104190520Y-77337523D01*
X104128093Y-77375405D01*
X104119716Y-77382803D01*
X104119692Y-77382776D01*
X104116700Y-77385429D01*
X104113467Y-77388132D01*
X104107348Y-77392144D01*
X104102316Y-77397456D01*
X104054072Y-77448383D01*
X104051694Y-77450825D01*
X103129924Y-78372595D01*
X103067612Y-78406621D01*
X103040829Y-78409500D01*
X101420200Y-78409500D01*
X101352079Y-78389498D01*
X101331181Y-78372672D01*
X101303213Y-78344752D01*
X101269135Y-78282469D01*
X101274139Y-78211649D01*
X101303059Y-78166563D01*
X101405754Y-78063688D01*
X101405758Y-78063683D01*
X101410929Y-78058503D01*
X101430226Y-78027198D01*
X101498369Y-77916650D01*
X101498370Y-77916648D01*
X101502209Y-77910420D01*
X101556974Y-77745309D01*
X101559329Y-77722329D01*
X101562976Y-77686725D01*
X101567500Y-77642572D01*
X101567500Y-77043428D01*
X101567163Y-77040178D01*
X101557419Y-76946265D01*
X101557418Y-76946261D01*
X101556707Y-76939407D01*
X101540817Y-76891777D01*
X101503972Y-76781341D01*
X101501654Y-76774393D01*
X101410116Y-76626469D01*
X101372369Y-76588788D01*
X101292184Y-76508742D01*
X101292179Y-76508738D01*
X101287003Y-76503571D01*
X101251993Y-76481990D01*
X101222483Y-76463800D01*
X101174989Y-76411027D01*
X101171447Y-76402922D01*
X101168555Y-76395617D01*
X101168552Y-76395612D01*
X101165635Y-76388244D01*
X101138480Y-76350868D01*
X101131965Y-76340949D01*
X101112492Y-76308023D01*
X101112489Y-76308019D01*
X101108452Y-76301193D01*
X101093291Y-76286032D01*
X101080449Y-76270997D01*
X101067841Y-76253643D01*
X101032248Y-76224198D01*
X101023467Y-76216208D01*
X100599651Y-75792391D01*
X100591663Y-75783612D01*
X100587416Y-75776920D01*
X100535741Y-75728394D01*
X100532900Y-75725640D01*
X100512333Y-75705073D01*
X100508826Y-75702353D01*
X100499809Y-75694652D01*
X100495237Y-75690358D01*
X100459269Y-75629149D01*
X100462103Y-75558209D01*
X100502841Y-75500063D01*
X100537256Y-75480523D01*
X100619297Y-75449767D01*
X100627705Y-75446615D01*
X100744261Y-75359261D01*
X100745463Y-75360865D01*
X100797630Y-75332379D01*
X100824413Y-75329500D01*
X103300944Y-75329500D01*
X103312800Y-75330059D01*
X103312803Y-75330059D01*
X103320537Y-75331788D01*
X103391369Y-75329562D01*
X103395327Y-75329500D01*
X103424432Y-75329500D01*
X103428832Y-75328944D01*
X103440664Y-75328012D01*
X103486831Y-75326562D01*
X103507421Y-75320580D01*
X103526782Y-75316570D01*
X103533770Y-75315688D01*
X103540204Y-75314875D01*
X103540205Y-75314875D01*
X103548064Y-75313882D01*
X103555429Y-75310966D01*
X103555433Y-75310965D01*
X103591021Y-75296874D01*
X103602231Y-75293035D01*
X103646600Y-75280145D01*
X103665065Y-75269225D01*
X103682805Y-75260534D01*
X103702756Y-75252635D01*
X103740129Y-75225482D01*
X103750048Y-75218967D01*
X103782977Y-75199493D01*
X103782981Y-75199490D01*
X103789807Y-75195453D01*
X103804971Y-75180289D01*
X103820005Y-75167448D01*
X103830943Y-75159501D01*
X103837357Y-75154841D01*
X103866803Y-75119247D01*
X103874792Y-75110468D01*
X104375855Y-74609405D01*
X104438167Y-74575379D01*
X104464950Y-74572500D01*
X108862722Y-74572500D01*
X108930843Y-74592502D01*
X108977336Y-74646158D01*
X108987440Y-74716432D01*
X108982825Y-74736595D01*
X108939965Y-74871706D01*
X108917919Y-75068251D01*
X108918435Y-75074395D01*
X108933647Y-75255551D01*
X108934468Y-75265334D01*
X108942409Y-75293027D01*
X108986450Y-75446615D01*
X108988983Y-75455450D01*
X108991802Y-75460935D01*
X109075573Y-75623934D01*
X109079387Y-75631356D01*
X109202235Y-75786353D01*
X109352850Y-75914536D01*
X109525494Y-76011024D01*
X109713592Y-76072140D01*
X109909977Y-76095558D01*
X109916112Y-76095086D01*
X109916114Y-76095086D01*
X110101030Y-76080857D01*
X110101034Y-76080856D01*
X110107172Y-76080384D01*
X110297663Y-76027198D01*
X110303167Y-76024418D01*
X110303169Y-76024417D01*
X110399482Y-75975766D01*
X111630000Y-75975766D01*
X111630337Y-75982282D01*
X111640075Y-76076132D01*
X111642968Y-76089528D01*
X111693488Y-76240953D01*
X111699653Y-76254115D01*
X111783426Y-76389492D01*
X111792460Y-76400890D01*
X111905129Y-76513363D01*
X111916540Y-76522375D01*
X112052063Y-76605912D01*
X112065241Y-76612056D01*
X112216766Y-76662315D01*
X112230132Y-76665181D01*
X112322770Y-76674672D01*
X112329185Y-76675000D01*
X112403385Y-76675000D01*
X112418624Y-76670525D01*
X112419829Y-76669135D01*
X112421500Y-76661452D01*
X112421500Y-75964115D01*
X112417025Y-75948876D01*
X112415635Y-75947671D01*
X112407952Y-75946000D01*
X111648115Y-75946000D01*
X111632876Y-75950475D01*
X111631671Y-75951865D01*
X111630000Y-75959548D01*
X111630000Y-75975766D01*
X110399482Y-75975766D01*
X110468695Y-75940804D01*
X110468697Y-75940803D01*
X110474196Y-75938025D01*
X110630047Y-75816261D01*
X110739977Y-75688906D01*
X110755249Y-75671213D01*
X110755250Y-75671211D01*
X110759278Y-75666545D01*
X110856969Y-75494579D01*
X110869604Y-75456597D01*
X110915334Y-75319128D01*
X110955815Y-75260804D01*
X111021403Y-75233624D01*
X111034892Y-75232900D01*
X111508060Y-75232900D01*
X111576181Y-75252902D01*
X111622674Y-75306558D01*
X111633404Y-75371742D01*
X111630328Y-75401767D01*
X111630000Y-75408185D01*
X111630000Y-75419885D01*
X111634475Y-75435124D01*
X111635865Y-75436329D01*
X111643548Y-75438000D01*
X112803500Y-75438000D01*
X112871621Y-75458002D01*
X112918114Y-75511658D01*
X112929500Y-75564000D01*
X112929500Y-76656885D01*
X112933975Y-76672124D01*
X112935365Y-76673329D01*
X112943048Y-76675000D01*
X113021766Y-76675000D01*
X113028282Y-76674663D01*
X113122132Y-76664925D01*
X113135528Y-76662032D01*
X113286953Y-76611512D01*
X113300115Y-76605347D01*
X113435492Y-76521574D01*
X113446894Y-76512536D01*
X113448567Y-76510861D01*
X113449993Y-76510081D01*
X113452627Y-76507993D01*
X113452984Y-76508444D01*
X113510849Y-76476781D01*
X113581669Y-76481784D01*
X113626754Y-76510701D01*
X113628593Y-76512536D01*
X113634997Y-76518929D01*
X113641227Y-76522769D01*
X113641228Y-76522770D01*
X113748329Y-76588788D01*
X113783080Y-76610209D01*
X113948191Y-76664974D01*
X113955027Y-76665674D01*
X113955030Y-76665675D01*
X114002370Y-76670525D01*
X114050928Y-76675500D01*
X114750072Y-76675500D01*
X114753318Y-76675163D01*
X114753322Y-76675163D01*
X114847235Y-76665419D01*
X114847239Y-76665418D01*
X114854093Y-76664707D01*
X114860629Y-76662526D01*
X114860631Y-76662526D01*
X114994906Y-76617728D01*
X115019107Y-76609654D01*
X115140452Y-76534563D01*
X115208902Y-76515727D01*
X115276672Y-76536888D01*
X115322243Y-76591329D01*
X115332753Y-76641709D01*
X115332753Y-77028175D01*
X115312751Y-77096296D01*
X115259095Y-77142789D01*
X115188821Y-77152893D01*
X115140637Y-77135435D01*
X115024150Y-77063631D01*
X115024148Y-77063630D01*
X115017920Y-77059791D01*
X114852809Y-77005026D01*
X114845973Y-77004326D01*
X114845970Y-77004325D01*
X114794474Y-76999049D01*
X114750072Y-76994500D01*
X114050928Y-76994500D01*
X114047682Y-76994837D01*
X114047678Y-76994837D01*
X113953765Y-77004581D01*
X113953761Y-77004582D01*
X113946907Y-77005293D01*
X113940371Y-77007474D01*
X113940369Y-77007474D01*
X113832602Y-77043428D01*
X113781893Y-77060346D01*
X113633969Y-77151884D01*
X113628797Y-77157065D01*
X113626727Y-77159139D01*
X113624962Y-77160105D01*
X113623059Y-77161613D01*
X113622801Y-77161287D01*
X113564446Y-77193219D01*
X113493625Y-77188218D01*
X113448530Y-77159292D01*
X113445869Y-77156636D01*
X113434460Y-77147625D01*
X113298937Y-77064088D01*
X113285759Y-77057944D01*
X113134234Y-77007685D01*
X113120868Y-77004819D01*
X113028230Y-76995328D01*
X113021815Y-76995000D01*
X112947615Y-76995000D01*
X112932376Y-76999475D01*
X112931171Y-77000865D01*
X112929500Y-77008548D01*
X112929500Y-78942885D01*
X112933975Y-78958124D01*
X112935365Y-78959329D01*
X112943048Y-78961000D01*
X113021766Y-78961000D01*
X113028282Y-78960663D01*
X113122132Y-78950925D01*
X113135528Y-78948032D01*
X113286953Y-78897512D01*
X113300115Y-78891347D01*
X113435492Y-78807574D01*
X113446894Y-78798536D01*
X113448567Y-78796861D01*
X113449993Y-78796081D01*
X113452627Y-78793993D01*
X113452984Y-78794444D01*
X113510849Y-78762781D01*
X113581669Y-78767784D01*
X113626752Y-78796699D01*
X113634225Y-78804158D01*
X113668308Y-78866438D01*
X113663310Y-78937259D01*
X113634308Y-78982432D01*
X113429145Y-79187595D01*
X113366833Y-79221621D01*
X113340050Y-79224500D01*
X112076209Y-79224500D01*
X112008088Y-79204498D01*
X111978567Y-79178136D01*
X111974960Y-79173713D01*
X111974956Y-79173709D01*
X111971065Y-79168938D01*
X111818675Y-79042870D01*
X111819737Y-79041586D01*
X111819632Y-79041460D01*
X111805847Y-79035934D01*
X111796476Y-79030867D01*
X111644701Y-78948802D01*
X111455768Y-78890318D01*
X111449643Y-78889674D01*
X111449642Y-78889674D01*
X111265204Y-78870289D01*
X111265202Y-78870289D01*
X111259075Y-78869645D01*
X111176576Y-78877153D01*
X111068251Y-78887011D01*
X111068248Y-78887012D01*
X111062112Y-78887570D01*
X111056206Y-78889308D01*
X111056202Y-78889309D01*
X110951865Y-78920017D01*
X110872381Y-78943410D01*
X110866923Y-78946263D01*
X110866919Y-78946265D01*
X110813244Y-78974326D01*
X110697110Y-79035040D01*
X110542975Y-79158968D01*
X110415846Y-79310474D01*
X110412879Y-79315872D01*
X110412875Y-79315877D01*
X110362079Y-79408276D01*
X110320567Y-79483787D01*
X110318706Y-79489654D01*
X110318705Y-79489656D01*
X110264180Y-79661540D01*
X110260765Y-79672306D01*
X110238719Y-79868851D01*
X110239235Y-79874995D01*
X110250611Y-80010470D01*
X110255268Y-80065934D01*
X110256967Y-80071858D01*
X110298861Y-80217959D01*
X110309783Y-80256050D01*
X110312602Y-80261535D01*
X110353566Y-80341241D01*
X110400187Y-80431956D01*
X110523035Y-80586953D01*
X110527728Y-80590947D01*
X110527729Y-80590948D01*
X110666040Y-80708659D01*
X110673650Y-80715136D01*
X110846294Y-80811624D01*
X111034392Y-80872740D01*
X111230777Y-80896158D01*
X111236912Y-80895686D01*
X111236914Y-80895686D01*
X111421830Y-80881457D01*
X111421834Y-80881456D01*
X111427972Y-80880984D01*
X111618463Y-80827798D01*
X111623967Y-80825018D01*
X111623969Y-80825017D01*
X111789495Y-80741404D01*
X111789497Y-80741403D01*
X111794996Y-80738625D01*
X111950847Y-80616861D01*
X111978203Y-80585169D01*
X112037856Y-80546672D01*
X112073584Y-80541500D01*
X113582944Y-80541500D01*
X113594800Y-80542059D01*
X113594803Y-80542059D01*
X113602537Y-80543788D01*
X113673369Y-80541562D01*
X113677327Y-80541500D01*
X113706432Y-80541500D01*
X113710832Y-80540944D01*
X113722664Y-80540012D01*
X113768831Y-80538562D01*
X113789421Y-80532580D01*
X113808782Y-80528570D01*
X113815770Y-80527688D01*
X113822204Y-80526875D01*
X113822205Y-80526875D01*
X113830064Y-80525882D01*
X113837429Y-80522966D01*
X113837433Y-80522965D01*
X113873021Y-80508874D01*
X113884231Y-80505035D01*
X113928600Y-80492145D01*
X113947065Y-80481225D01*
X113964805Y-80472534D01*
X113984756Y-80464635D01*
X114022129Y-80437482D01*
X114032048Y-80430967D01*
X114064977Y-80411493D01*
X114064981Y-80411490D01*
X114071807Y-80407453D01*
X114086971Y-80392289D01*
X114102005Y-80379448D01*
X114112943Y-80371501D01*
X114119357Y-80366841D01*
X114148803Y-80331247D01*
X114156792Y-80322468D01*
X114808105Y-79671155D01*
X114816885Y-79663165D01*
X114816887Y-79663163D01*
X114823580Y-79658916D01*
X114872105Y-79607242D01*
X114874859Y-79604401D01*
X114895427Y-79583833D01*
X114898147Y-79580326D01*
X114905853Y-79571304D01*
X114932044Y-79543413D01*
X114937472Y-79537633D01*
X114943166Y-79527276D01*
X114947803Y-79518842D01*
X114958657Y-79502318D01*
X114966945Y-79491632D01*
X114971804Y-79485368D01*
X114974952Y-79478094D01*
X114990154Y-79442965D01*
X114995376Y-79432305D01*
X115013805Y-79398784D01*
X115013806Y-79398782D01*
X115017624Y-79391837D01*
X115022959Y-79371059D01*
X115029358Y-79352369D01*
X115037880Y-79332676D01*
X115045106Y-79287052D01*
X115047513Y-79275429D01*
X115057028Y-79238368D01*
X115059000Y-79230688D01*
X115059000Y-79209241D01*
X115060551Y-79189531D01*
X115062666Y-79176177D01*
X115063906Y-79168348D01*
X115059559Y-79122359D01*
X115059000Y-79110504D01*
X115059000Y-78941170D01*
X115079002Y-78873049D01*
X115118697Y-78834026D01*
X115140452Y-78820564D01*
X115208903Y-78801727D01*
X115276672Y-78822889D01*
X115322243Y-78877330D01*
X115332753Y-78927709D01*
X115332753Y-83163500D01*
X115312751Y-83231621D01*
X115259095Y-83278114D01*
X115206753Y-83289500D01*
X115033498Y-83289500D01*
X115031050Y-83289693D01*
X115031042Y-83289693D01*
X115002579Y-83291933D01*
X115002574Y-83291934D01*
X114996169Y-83292438D01*
X114896231Y-83321472D01*
X114844012Y-83336643D01*
X114844010Y-83336644D01*
X114836399Y-83338855D01*
X114829577Y-83342889D01*
X114824404Y-83345128D01*
X114753942Y-83353824D01*
X114724326Y-83345128D01*
X114705790Y-83337107D01*
X114571395Y-83298061D01*
X114557294Y-83298101D01*
X114554000Y-83305370D01*
X114554000Y-83543158D01*
X114536453Y-83607297D01*
X114524777Y-83627040D01*
X114490855Y-83684399D01*
X114444438Y-83844169D01*
X114443934Y-83850574D01*
X114443933Y-83850579D01*
X114441693Y-83879042D01*
X114441500Y-83881498D01*
X114441500Y-85039502D01*
X114444438Y-85076831D01*
X114463158Y-85141265D01*
X114486589Y-85221916D01*
X114490855Y-85236601D01*
X114494892Y-85243427D01*
X114536453Y-85313703D01*
X114554000Y-85377842D01*
X114554000Y-85609878D01*
X114558474Y-85625116D01*
X114567882Y-85633268D01*
X114606266Y-85692994D01*
X114606266Y-85763990D01*
X114584929Y-85805720D01*
X114581156Y-85810584D01*
X114575547Y-85816193D01*
X114571511Y-85823017D01*
X114571509Y-85823020D01*
X114529049Y-85894816D01*
X114490855Y-85959399D01*
X114488644Y-85967010D01*
X114488643Y-85967012D01*
X114473472Y-86019231D01*
X114444438Y-86119169D01*
X114443934Y-86125574D01*
X114443933Y-86125579D01*
X114442198Y-86147627D01*
X114441500Y-86156498D01*
X114441500Y-87314502D01*
X114441693Y-87316950D01*
X114441693Y-87316958D01*
X114443924Y-87345295D01*
X114444438Y-87351831D01*
X114465607Y-87424697D01*
X114485485Y-87493116D01*
X114490855Y-87511601D01*
X114562975Y-87633548D01*
X114580433Y-87702362D01*
X114557916Y-87769693D01*
X114545538Y-87784815D01*
X114446269Y-87888514D01*
X114446265Y-87888519D01*
X114442119Y-87892850D01*
X114438866Y-87897888D01*
X114421254Y-87925163D01*
X114367499Y-87971540D01*
X114297203Y-87981493D01*
X114232686Y-87951861D01*
X114216317Y-87934647D01*
X114203729Y-87918621D01*
X114122396Y-87815080D01*
X114074387Y-87773420D01*
X114036048Y-87713669D01*
X114036098Y-87642673D01*
X114048513Y-87614124D01*
X114109145Y-87511601D01*
X114114516Y-87493116D01*
X114134393Y-87424697D01*
X114155562Y-87351831D01*
X114156077Y-87345295D01*
X114158307Y-87316958D01*
X114158307Y-87316950D01*
X114158500Y-87314502D01*
X114158500Y-86156498D01*
X114157802Y-86147627D01*
X114156067Y-86125579D01*
X114156066Y-86125574D01*
X114155562Y-86119169D01*
X114126528Y-86019231D01*
X114111357Y-85967012D01*
X114111356Y-85967010D01*
X114109145Y-85959399D01*
X114024453Y-85816193D01*
X114018844Y-85810584D01*
X114014601Y-85805114D01*
X113988654Y-85739029D01*
X114002555Y-85669406D01*
X114040446Y-85627884D01*
X114046000Y-85615630D01*
X114046000Y-85377842D01*
X114063547Y-85313703D01*
X114105108Y-85243427D01*
X114109145Y-85236601D01*
X114113412Y-85221916D01*
X114136842Y-85141265D01*
X114155562Y-85076831D01*
X114158500Y-85039502D01*
X114158500Y-83881498D01*
X114158307Y-83879042D01*
X114156067Y-83850579D01*
X114156066Y-83850574D01*
X114155562Y-83844169D01*
X114109145Y-83684399D01*
X114075223Y-83627040D01*
X114063547Y-83607297D01*
X114046000Y-83543158D01*
X114046000Y-83311122D01*
X114042027Y-83297591D01*
X114034129Y-83296456D01*
X113894210Y-83337107D01*
X113875674Y-83345128D01*
X113805212Y-83353824D01*
X113775596Y-83345128D01*
X113770423Y-83342889D01*
X113763601Y-83338855D01*
X113755990Y-83336644D01*
X113755988Y-83336643D01*
X113703769Y-83321472D01*
X113603831Y-83292438D01*
X113597426Y-83291934D01*
X113597421Y-83291933D01*
X113568958Y-83289693D01*
X113568950Y-83289693D01*
X113566502Y-83289500D01*
X113133498Y-83289500D01*
X113131050Y-83289693D01*
X113131042Y-83289693D01*
X113102579Y-83291933D01*
X113102574Y-83291934D01*
X113096169Y-83292438D01*
X112996231Y-83321472D01*
X112944012Y-83336643D01*
X112944010Y-83336644D01*
X112936399Y-83338855D01*
X112929572Y-83342892D01*
X112929573Y-83342892D01*
X112800020Y-83419509D01*
X112800017Y-83419511D01*
X112793193Y-83423547D01*
X112675547Y-83541193D01*
X112671511Y-83548017D01*
X112671509Y-83548020D01*
X112624777Y-83627040D01*
X112590855Y-83684399D01*
X112544438Y-83844169D01*
X112543934Y-83850574D01*
X112543933Y-83850579D01*
X112541693Y-83879042D01*
X112541500Y-83881498D01*
X112541500Y-83924500D01*
X112521498Y-83992621D01*
X112467842Y-84039114D01*
X112415500Y-84050500D01*
X110469500Y-84050500D01*
X110401379Y-84030498D01*
X110354886Y-83976842D01*
X110343500Y-83924500D01*
X110343500Y-83410866D01*
X110336745Y-83348684D01*
X110285615Y-83212295D01*
X110198261Y-83095739D01*
X110081705Y-83008385D01*
X109945316Y-82957255D01*
X109883134Y-82950500D01*
X108954601Y-82950500D01*
X108886480Y-82930498D01*
X108839987Y-82876842D01*
X108829883Y-82806568D01*
X108845045Y-82762263D01*
X108868880Y-82720306D01*
X108875769Y-82708179D01*
X108938197Y-82520513D01*
X108962985Y-82324295D01*
X108963380Y-82296000D01*
X108944080Y-82099167D01*
X108934271Y-82066676D01*
X108896067Y-81940140D01*
X108886916Y-81909831D01*
X108794066Y-81735204D01*
X108716777Y-81640438D01*
X108672960Y-81586713D01*
X108672957Y-81586710D01*
X108669065Y-81581938D01*
X108664316Y-81578009D01*
X108521425Y-81459799D01*
X108521421Y-81459797D01*
X108516675Y-81455870D01*
X108342701Y-81361802D01*
X108153768Y-81303318D01*
X108147643Y-81302674D01*
X108147642Y-81302674D01*
X107963204Y-81283289D01*
X107963202Y-81283289D01*
X107957075Y-81282645D01*
X107889344Y-81288809D01*
X107766251Y-81300011D01*
X107766248Y-81300012D01*
X107760112Y-81300570D01*
X107754206Y-81302308D01*
X107754202Y-81302309D01*
X107687026Y-81322080D01*
X107570381Y-81356410D01*
X107564923Y-81359263D01*
X107564919Y-81359265D01*
X107478675Y-81404353D01*
X107395110Y-81448040D01*
X107240975Y-81571968D01*
X107237013Y-81576690D01*
X107224916Y-81591106D01*
X107165806Y-81630432D01*
X107123451Y-81634837D01*
X107123463Y-81635212D01*
X107118271Y-81635375D01*
X107118269Y-81635375D01*
X107052631Y-81637438D01*
X107048673Y-81637500D01*
X107019568Y-81637500D01*
X107015168Y-81638056D01*
X107003336Y-81638988D01*
X106957169Y-81640438D01*
X106936579Y-81646420D01*
X106917218Y-81650430D01*
X106910230Y-81651312D01*
X106903796Y-81652125D01*
X106903795Y-81652125D01*
X106895936Y-81653118D01*
X106888571Y-81656034D01*
X106888567Y-81656035D01*
X106852982Y-81670124D01*
X106841752Y-81673969D01*
X106797399Y-81686855D01*
X106783082Y-81695323D01*
X106778943Y-81697770D01*
X106761187Y-81706469D01*
X106741244Y-81714365D01*
X106732445Y-81720758D01*
X106703868Y-81741520D01*
X106693949Y-81748035D01*
X106661023Y-81767508D01*
X106661019Y-81767511D01*
X106654193Y-81771548D01*
X106639032Y-81786709D01*
X106624000Y-81799548D01*
X106606643Y-81812159D01*
X106601593Y-81818263D01*
X106601591Y-81818265D01*
X106577188Y-81847763D01*
X106569199Y-81856541D01*
X105129396Y-83296345D01*
X105120613Y-83304337D01*
X105113920Y-83308584D01*
X105108494Y-83314362D01*
X105065395Y-83360258D01*
X105062640Y-83363100D01*
X105042073Y-83383667D01*
X105039356Y-83387170D01*
X105031648Y-83396195D01*
X105000028Y-83429867D01*
X104996207Y-83436818D01*
X104996206Y-83436819D01*
X104989697Y-83448658D01*
X104978843Y-83465182D01*
X104971018Y-83475271D01*
X104965696Y-83482132D01*
X104962549Y-83489404D01*
X104962548Y-83489406D01*
X104947346Y-83524535D01*
X104942124Y-83535195D01*
X104924032Y-83568104D01*
X104919876Y-83575663D01*
X104914541Y-83596441D01*
X104908142Y-83615131D01*
X104903319Y-83626276D01*
X104853990Y-83683376D01*
X104851584Y-83684865D01*
X104783133Y-83703705D01*
X104715362Y-83682546D01*
X104671174Y-83631169D01*
X104669240Y-83627040D01*
X104583937Y-83489193D01*
X104574901Y-83477792D01*
X104460171Y-83363261D01*
X104448760Y-83354249D01*
X104310757Y-83269184D01*
X104297576Y-83263037D01*
X104143290Y-83211862D01*
X104129914Y-83208995D01*
X104035562Y-83199328D01*
X104029145Y-83199000D01*
X103904115Y-83199000D01*
X103888876Y-83203475D01*
X103887671Y-83204865D01*
X103886000Y-83212548D01*
X103886000Y-85946884D01*
X103890475Y-85962123D01*
X103891865Y-85963328D01*
X103899548Y-85964999D01*
X104029095Y-85964999D01*
X104035614Y-85964662D01*
X104131206Y-85954743D01*
X104144600Y-85951851D01*
X104298784Y-85900412D01*
X104311962Y-85894239D01*
X104370285Y-85858147D01*
X104438736Y-85839309D01*
X104506506Y-85860470D01*
X104552077Y-85914911D01*
X104561932Y-85978132D01*
X104553500Y-86060428D01*
X104553500Y-86659572D01*
X104553837Y-86662818D01*
X104553837Y-86662822D01*
X104563484Y-86755795D01*
X104564293Y-86763593D01*
X104619346Y-86928607D01*
X104710884Y-87076531D01*
X104716066Y-87081704D01*
X104828816Y-87194258D01*
X104828821Y-87194262D01*
X104833997Y-87199429D01*
X104840229Y-87203271D01*
X104840231Y-87203272D01*
X104883329Y-87229838D01*
X104930823Y-87282610D01*
X104942247Y-87352681D01*
X104913973Y-87417805D01*
X104906309Y-87426193D01*
X104784802Y-87547700D01*
X104781645Y-87552208D01*
X104781643Y-87552211D01*
X104751844Y-87594769D01*
X104653477Y-87735251D01*
X104651154Y-87740233D01*
X104651151Y-87740238D01*
X104568529Y-87917424D01*
X104556716Y-87942757D01*
X104555294Y-87948065D01*
X104555293Y-87948067D01*
X104498881Y-88158598D01*
X104497457Y-88163913D01*
X104477502Y-88392000D01*
X104497457Y-88620087D01*
X104498881Y-88625402D01*
X104498882Y-88625405D01*
X104506988Y-88655659D01*
X104505298Y-88726635D01*
X104474376Y-88777364D01*
X102867781Y-90383959D01*
X102805469Y-90417985D01*
X102734654Y-90412920D01*
X102677818Y-90370373D01*
X102671542Y-90361167D01*
X102592970Y-90234197D01*
X102589116Y-90227969D01*
X102466003Y-90105071D01*
X102459775Y-90101232D01*
X102456907Y-90098967D01*
X102415845Y-90041050D01*
X102409000Y-90000086D01*
X102409000Y-89449803D01*
X102427740Y-89383687D01*
X102514369Y-89243150D01*
X102514370Y-89243148D01*
X102518209Y-89236920D01*
X102572974Y-89071809D01*
X102576758Y-89034882D01*
X102580214Y-89001145D01*
X102583500Y-88969072D01*
X102583500Y-88369928D01*
X102572707Y-88265907D01*
X102542450Y-88175214D01*
X102519972Y-88107841D01*
X102517654Y-88100893D01*
X102426116Y-87952969D01*
X102415886Y-87942757D01*
X102319214Y-87846253D01*
X102285135Y-87783970D01*
X102290138Y-87713150D01*
X102319059Y-87668063D01*
X102421754Y-87565188D01*
X102421758Y-87565183D01*
X102426929Y-87560003D01*
X102436915Y-87543803D01*
X102514369Y-87418150D01*
X102514370Y-87418148D01*
X102518209Y-87411920D01*
X102572974Y-87246809D01*
X102574826Y-87228739D01*
X102581557Y-87163036D01*
X102583500Y-87144072D01*
X102583500Y-86544928D01*
X102581327Y-86523982D01*
X102573419Y-86447765D01*
X102573418Y-86447761D01*
X102572707Y-86440907D01*
X102570181Y-86433334D01*
X102519972Y-86282841D01*
X102517654Y-86275893D01*
X102426116Y-86127969D01*
X102367544Y-86069499D01*
X102327482Y-86029507D01*
X102293403Y-85967225D01*
X102290500Y-85940334D01*
X102290500Y-85814073D01*
X102310502Y-85745952D01*
X102343602Y-85711302D01*
X102354723Y-85703414D01*
X102354727Y-85703410D01*
X102359611Y-85699946D01*
X102363749Y-85695623D01*
X102363754Y-85695619D01*
X102451164Y-85604309D01*
X102512720Y-85568933D01*
X102583629Y-85572452D01*
X102641379Y-85613749D01*
X102649326Y-85625137D01*
X102680063Y-85674807D01*
X102689099Y-85686208D01*
X102803829Y-85800739D01*
X102815240Y-85809751D01*
X102953243Y-85894816D01*
X102966424Y-85900963D01*
X103120710Y-85952138D01*
X103134086Y-85955005D01*
X103228438Y-85964672D01*
X103234854Y-85965000D01*
X103359885Y-85965000D01*
X103375124Y-85960525D01*
X103376329Y-85959135D01*
X103378000Y-85951452D01*
X103378000Y-83217116D01*
X103373525Y-83201877D01*
X103372135Y-83200672D01*
X103364452Y-83199001D01*
X103234905Y-83199001D01*
X103228386Y-83199338D01*
X103132794Y-83209257D01*
X103119400Y-83212149D01*
X102965216Y-83263588D01*
X102952038Y-83269761D01*
X102814193Y-83355063D01*
X102802792Y-83364099D01*
X102688261Y-83478829D01*
X102679249Y-83490240D01*
X102651255Y-83535655D01*
X102598483Y-83583148D01*
X102528411Y-83594572D01*
X102463287Y-83566298D01*
X102444912Y-83547375D01*
X102438396Y-83539080D01*
X102433865Y-83535148D01*
X102433862Y-83535145D01*
X102283167Y-83404379D01*
X102278637Y-83400448D01*
X102273451Y-83397448D01*
X102273447Y-83397445D01*
X102100742Y-83297533D01*
X102095546Y-83294527D01*
X101895729Y-83225139D01*
X101889794Y-83224278D01*
X101889792Y-83224278D01*
X101692336Y-83195648D01*
X101692333Y-83195648D01*
X101686396Y-83194787D01*
X101475101Y-83204567D01*
X101343923Y-83236181D01*
X101275299Y-83252719D01*
X101275297Y-83252720D01*
X101269466Y-83254125D01*
X101264008Y-83256607D01*
X101264004Y-83256608D01*
X101173868Y-83297591D01*
X101076913Y-83341674D01*
X100967186Y-83419509D01*
X100931441Y-83444865D01*
X100904389Y-83464054D01*
X100900247Y-83468381D01*
X100900241Y-83468386D01*
X100793518Y-83579871D01*
X100731963Y-83615248D01*
X100661054Y-83611729D01*
X100603303Y-83570433D01*
X100577047Y-83504470D01*
X100576500Y-83492741D01*
X100576500Y-83002722D01*
X100577492Y-82986944D01*
X100580985Y-82959295D01*
X100581380Y-82931000D01*
X100562080Y-82734167D01*
X100504916Y-82544831D01*
X100412066Y-82370204D01*
X100340084Y-82281946D01*
X100290960Y-82221713D01*
X100290957Y-82221710D01*
X100287065Y-82216938D01*
X100280724Y-82211692D01*
X100139425Y-82094799D01*
X100139421Y-82094797D01*
X100134675Y-82090870D01*
X99960701Y-81996802D01*
X99771768Y-81938318D01*
X99765643Y-81937674D01*
X99765642Y-81937674D01*
X99581204Y-81918289D01*
X99581202Y-81918289D01*
X99575075Y-81917645D01*
X99492576Y-81925153D01*
X99384251Y-81935011D01*
X99384248Y-81935012D01*
X99378112Y-81935570D01*
X99372206Y-81937308D01*
X99372202Y-81937309D01*
X99273553Y-81966343D01*
X99188381Y-81991410D01*
X99182923Y-81994263D01*
X99182919Y-81994265D01*
X99092239Y-82041672D01*
X99013110Y-82083040D01*
X98858975Y-82206968D01*
X98731846Y-82358474D01*
X98728879Y-82363872D01*
X98728875Y-82363877D01*
X98657815Y-82493136D01*
X98636567Y-82531787D01*
X98634706Y-82537654D01*
X98634705Y-82537656D01*
X98591404Y-82674158D01*
X98576765Y-82720306D01*
X98564128Y-82832972D01*
X98554719Y-82916851D01*
X98557987Y-82955771D01*
X98559058Y-82968524D01*
X98559500Y-82979067D01*
X98559500Y-83453490D01*
X98539498Y-83521611D01*
X98485842Y-83568104D01*
X98444481Y-83579011D01*
X98425121Y-83580705D01*
X98365587Y-83585913D01*
X98360468Y-83587400D01*
X98355167Y-83587920D01*
X98266194Y-83614782D01*
X98265054Y-83615120D01*
X98175663Y-83641091D01*
X98170929Y-83643545D01*
X98165831Y-83645084D01*
X98160387Y-83647978D01*
X98160386Y-83647979D01*
X98083831Y-83688684D01*
X98082663Y-83689298D01*
X98023684Y-83719870D01*
X98000074Y-83732108D01*
X97995911Y-83735431D01*
X97991204Y-83737934D01*
X97986430Y-83741828D01*
X97986428Y-83741829D01*
X97919105Y-83796737D01*
X97918160Y-83797500D01*
X97879027Y-83828739D01*
X97876536Y-83831230D01*
X97875809Y-83831880D01*
X97871463Y-83835592D01*
X97860947Y-83844169D01*
X97837938Y-83862935D01*
X97834015Y-83867677D01*
X97834013Y-83867679D01*
X97808703Y-83898273D01*
X97800713Y-83907053D01*
X96877196Y-84830570D01*
X96814884Y-84864596D01*
X96744069Y-84859531D01*
X96687233Y-84816984D01*
X96662422Y-84750464D01*
X96664900Y-84715063D01*
X96669005Y-84695914D01*
X96678672Y-84601562D01*
X96679000Y-84595146D01*
X96679000Y-83945115D01*
X96674525Y-83929876D01*
X96673135Y-83928671D01*
X96665452Y-83927000D01*
X95268115Y-83927000D01*
X95252876Y-83931475D01*
X95251671Y-83932865D01*
X95250000Y-83940548D01*
X95250000Y-85287884D01*
X95254475Y-85303123D01*
X95255865Y-85304328D01*
X95263548Y-85305999D01*
X95968095Y-85305999D01*
X95974614Y-85305662D01*
X96070202Y-85295744D01*
X96087897Y-85291923D01*
X96158705Y-85297097D01*
X96215475Y-85339731D01*
X96240184Y-85406290D01*
X96224986Y-85475640D01*
X96203586Y-85504180D01*
X94605171Y-87102595D01*
X94542859Y-87136621D01*
X94516076Y-87139500D01*
X94020600Y-87139500D01*
X94017354Y-87139837D01*
X94017350Y-87139837D01*
X93921692Y-87149762D01*
X93921688Y-87149763D01*
X93914834Y-87150474D01*
X93908298Y-87152655D01*
X93908296Y-87152655D01*
X93877181Y-87163036D01*
X93747054Y-87206450D01*
X93596652Y-87299522D01*
X93471695Y-87424697D01*
X93467855Y-87430927D01*
X93467854Y-87430928D01*
X93385095Y-87565188D01*
X93378885Y-87575262D01*
X93362080Y-87625927D01*
X93325377Y-87736586D01*
X93323203Y-87743139D01*
X93322503Y-87749975D01*
X93322502Y-87749978D01*
X93318248Y-87791498D01*
X93312500Y-87847600D01*
X93312500Y-87850819D01*
X93312336Y-87854028D01*
X93311477Y-87853984D01*
X93292498Y-87918621D01*
X93238842Y-87965114D01*
X93186500Y-87976500D01*
X92109169Y-87976500D01*
X92041048Y-87956498D01*
X91994555Y-87902842D01*
X91984883Y-87871214D01*
X91983182Y-87861003D01*
X91850387Y-87064232D01*
X91849088Y-87060083D01*
X91849086Y-87060076D01*
X91822095Y-86973890D01*
X91822095Y-86973889D01*
X91819453Y-86965454D01*
X91739166Y-86843922D01*
X91686409Y-86799260D01*
X91634847Y-86755609D01*
X91634844Y-86755607D01*
X91627995Y-86749809D01*
X91619794Y-86746166D01*
X91619792Y-86746165D01*
X91547871Y-86714219D01*
X91494878Y-86690681D01*
X91486126Y-86689467D01*
X91486124Y-86689466D01*
X91396994Y-86677098D01*
X91396991Y-86677098D01*
X91392683Y-86676500D01*
X90805405Y-86676500D01*
X90217318Y-86676501D01*
X90213010Y-86677101D01*
X90213006Y-86677101D01*
X90183010Y-86681277D01*
X90114797Y-86690773D01*
X89981719Y-86749988D01*
X89967130Y-86762355D01*
X89877748Y-86838124D01*
X89870611Y-86844174D01*
X89865666Y-86851670D01*
X89811588Y-86933646D01*
X89790403Y-86965759D01*
X89787767Y-86974190D01*
X89787766Y-86974192D01*
X89766245Y-87043024D01*
X89759614Y-87064233D01*
X89654645Y-87694048D01*
X89652617Y-87706214D01*
X89621688Y-87770120D01*
X89561119Y-87807159D01*
X89528331Y-87811500D01*
X88132076Y-87811500D01*
X88063955Y-87791498D01*
X88033126Y-87763506D01*
X87981276Y-87697735D01*
X87900105Y-87594769D01*
X87704317Y-87410591D01*
X87531509Y-87290709D01*
X87487299Y-87260039D01*
X87487296Y-87260037D01*
X87483457Y-87257374D01*
X87475267Y-87253335D01*
X87246564Y-87140551D01*
X87246561Y-87140550D01*
X87242376Y-87138486D01*
X87236560Y-87136624D01*
X87070599Y-87083500D01*
X86986370Y-87056538D01*
X86981763Y-87055788D01*
X86981760Y-87055787D01*
X86725674Y-87014081D01*
X86725675Y-87014081D01*
X86721063Y-87013330D01*
X86590719Y-87011624D01*
X86456961Y-87009873D01*
X86456958Y-87009873D01*
X86452284Y-87009812D01*
X86185937Y-87046060D01*
X85927874Y-87121278D01*
X85923626Y-87123236D01*
X85923627Y-87123236D01*
X85917042Y-87126271D01*
X85846804Y-87136624D01*
X85782119Y-87107361D01*
X85775198Y-87100939D01*
X85362155Y-86687896D01*
X85354165Y-86679116D01*
X85349916Y-86672420D01*
X85298240Y-86623894D01*
X85295430Y-86621171D01*
X85274833Y-86600573D01*
X85271326Y-86597853D01*
X85262304Y-86590147D01*
X85247932Y-86576651D01*
X85228633Y-86558528D01*
X85221681Y-86554706D01*
X85209842Y-86548197D01*
X85193318Y-86537343D01*
X85182632Y-86529055D01*
X85176368Y-86524196D01*
X85169096Y-86521049D01*
X85169094Y-86521048D01*
X85133965Y-86505846D01*
X85123305Y-86500624D01*
X85089784Y-86482195D01*
X85089782Y-86482194D01*
X85082837Y-86478376D01*
X85062059Y-86473041D01*
X85043369Y-86466642D01*
X85023676Y-86458120D01*
X84978052Y-86450894D01*
X84966429Y-86448487D01*
X84936905Y-86440907D01*
X84921688Y-86437000D01*
X84900241Y-86437000D01*
X84880531Y-86435449D01*
X84867177Y-86433334D01*
X84859348Y-86432094D01*
X84813359Y-86436441D01*
X84801504Y-86437000D01*
X84783170Y-86437000D01*
X84715049Y-86416998D01*
X84676026Y-86377303D01*
X84646116Y-86328969D01*
X84638861Y-86321726D01*
X84637895Y-86319962D01*
X84636387Y-86318059D01*
X84636713Y-86317801D01*
X84604781Y-86259446D01*
X84609782Y-86188625D01*
X84638708Y-86143530D01*
X84641364Y-86140869D01*
X84650375Y-86129460D01*
X84733912Y-85993937D01*
X84740056Y-85980759D01*
X84790315Y-85829234D01*
X84793181Y-85815867D01*
X84802672Y-85723230D01*
X84803000Y-85716815D01*
X84803000Y-85662025D01*
X84823002Y-85593904D01*
X84876658Y-85547411D01*
X84946932Y-85537307D01*
X85004564Y-85561198D01*
X85009352Y-85564786D01*
X85024946Y-85573324D01*
X85145394Y-85618478D01*
X85160649Y-85622105D01*
X85211514Y-85627631D01*
X85218328Y-85628000D01*
X86290885Y-85628000D01*
X86306124Y-85623525D01*
X86307329Y-85622135D01*
X86309000Y-85614452D01*
X86309000Y-85609884D01*
X86817000Y-85609884D01*
X86821475Y-85625123D01*
X86822865Y-85626328D01*
X86830548Y-85627999D01*
X87907669Y-85627999D01*
X87914490Y-85627629D01*
X87965352Y-85622105D01*
X87980604Y-85618479D01*
X88101054Y-85573324D01*
X88116649Y-85564786D01*
X88218724Y-85488285D01*
X88231285Y-85475724D01*
X88307786Y-85373649D01*
X88316324Y-85358054D01*
X88361478Y-85237606D01*
X88365105Y-85222351D01*
X88370631Y-85171486D01*
X88371000Y-85164672D01*
X88371000Y-84092115D01*
X88366525Y-84076876D01*
X88365135Y-84075671D01*
X88357452Y-84074000D01*
X86835115Y-84074000D01*
X86819876Y-84078475D01*
X86818671Y-84079865D01*
X86817000Y-84087548D01*
X86817000Y-85609884D01*
X86309000Y-85609884D01*
X86309000Y-84092115D01*
X86304525Y-84076876D01*
X86303135Y-84075671D01*
X86295452Y-84074000D01*
X84773116Y-84074000D01*
X84757877Y-84078475D01*
X84756672Y-84079865D01*
X84755001Y-84087548D01*
X84755001Y-84409555D01*
X84734999Y-84477676D01*
X84681343Y-84524169D01*
X84611069Y-84534273D01*
X84546489Y-84504779D01*
X84539983Y-84498728D01*
X84527871Y-84486637D01*
X84516460Y-84477625D01*
X84380937Y-84394088D01*
X84367759Y-84387944D01*
X84216234Y-84337685D01*
X84202868Y-84334819D01*
X84110230Y-84325328D01*
X84103815Y-84325000D01*
X84092115Y-84325000D01*
X84076876Y-84329475D01*
X84075671Y-84330865D01*
X84074000Y-84338548D01*
X84074000Y-85498500D01*
X84053998Y-85566621D01*
X84000342Y-85613114D01*
X83948000Y-85624500D01*
X82855115Y-85624500D01*
X82839876Y-85628975D01*
X82838671Y-85630365D01*
X82837000Y-85638048D01*
X82837000Y-85716766D01*
X82837337Y-85723282D01*
X82847075Y-85817132D01*
X82849968Y-85830528D01*
X82900488Y-85981953D01*
X82906653Y-85995115D01*
X82990426Y-86130492D01*
X82999464Y-86141894D01*
X83001139Y-86143567D01*
X83001919Y-86144993D01*
X83004007Y-86147627D01*
X83003556Y-86147984D01*
X83035219Y-86205849D01*
X83030216Y-86276669D01*
X83001299Y-86321754D01*
X83000793Y-86322261D01*
X82993071Y-86329997D01*
X82989231Y-86336227D01*
X82989230Y-86336228D01*
X82908313Y-86467500D01*
X82901791Y-86478080D01*
X82847026Y-86643191D01*
X82846326Y-86650027D01*
X82846325Y-86650030D01*
X82841049Y-86701526D01*
X82836500Y-86745928D01*
X82836500Y-87445072D01*
X82836837Y-87448318D01*
X82836837Y-87448322D01*
X82846403Y-87540513D01*
X82847293Y-87549093D01*
X82849474Y-87555629D01*
X82849474Y-87555631D01*
X82887133Y-87668509D01*
X82902346Y-87714107D01*
X82993884Y-87862031D01*
X82999066Y-87867204D01*
X83111816Y-87979758D01*
X83111821Y-87979762D01*
X83116997Y-87984929D01*
X83265080Y-88076209D01*
X83430191Y-88130974D01*
X83437027Y-88131674D01*
X83437030Y-88131675D01*
X83488526Y-88136951D01*
X83532928Y-88141500D01*
X84107072Y-88141500D01*
X84110318Y-88141163D01*
X84110322Y-88141163D01*
X84204235Y-88131419D01*
X84204239Y-88131418D01*
X84211093Y-88130707D01*
X84217629Y-88128526D01*
X84217631Y-88128526D01*
X84350395Y-88084232D01*
X84376107Y-88075654D01*
X84524031Y-87984116D01*
X84570730Y-87937336D01*
X84633012Y-87903256D01*
X84703832Y-87908259D01*
X84748998Y-87937258D01*
X84846305Y-88034565D01*
X84880331Y-88096877D01*
X84873407Y-88172385D01*
X84867759Y-88185855D01*
X84843148Y-88244545D01*
X84776981Y-88505077D01*
X84750050Y-88772526D01*
X84762947Y-89041019D01*
X84815388Y-89304656D01*
X84906220Y-89557646D01*
X85033450Y-89794431D01*
X85036241Y-89798168D01*
X85036245Y-89798175D01*
X85115905Y-89904852D01*
X85194281Y-90009810D01*
X85197590Y-90013090D01*
X85197595Y-90013096D01*
X85362899Y-90176963D01*
X85385180Y-90199050D01*
X85388942Y-90201808D01*
X85388945Y-90201811D01*
X85570192Y-90334706D01*
X85601954Y-90357995D01*
X85606089Y-90360171D01*
X85606093Y-90360173D01*
X85835698Y-90480975D01*
X85839840Y-90483154D01*
X86093613Y-90571775D01*
X86098206Y-90572647D01*
X86353109Y-90621042D01*
X86353112Y-90621042D01*
X86357698Y-90621913D01*
X86485370Y-90626929D01*
X86621625Y-90632283D01*
X86621630Y-90632283D01*
X86626293Y-90632466D01*
X86722654Y-90621913D01*
X86888844Y-90603713D01*
X86888850Y-90603712D01*
X86893497Y-90603203D01*
X86906191Y-90599861D01*
X87148918Y-90535956D01*
X87148920Y-90535955D01*
X87153441Y-90534765D01*
X87169671Y-90527792D01*
X87396120Y-90430502D01*
X87396122Y-90430501D01*
X87400414Y-90428657D01*
X87539773Y-90342419D01*
X87625017Y-90289669D01*
X87625021Y-90289666D01*
X87628990Y-90287210D01*
X87834149Y-90113530D01*
X88011382Y-89911434D01*
X88027525Y-89886337D01*
X88081199Y-89839866D01*
X88133496Y-89828500D01*
X89150164Y-89828500D01*
X89218285Y-89848502D01*
X89264778Y-89902158D01*
X89274450Y-89975213D01*
X89142372Y-90767682D01*
X89141284Y-90781414D01*
X89142195Y-90788108D01*
X89142195Y-90788109D01*
X89151226Y-90854467D01*
X89160926Y-90925741D01*
X89164584Y-90933938D01*
X89164585Y-90933941D01*
X89216384Y-91050011D01*
X89220286Y-91058754D01*
X89226095Y-91065592D01*
X89226096Y-91065593D01*
X89302911Y-91156009D01*
X89314593Y-91169760D01*
X89358194Y-91198455D01*
X89428767Y-91244902D01*
X89428771Y-91244904D01*
X89436265Y-91249836D01*
X89444844Y-91252467D01*
X89444846Y-91252468D01*
X89568888Y-91290510D01*
X89568890Y-91290510D01*
X89575521Y-91292544D01*
X89583911Y-91293197D01*
X89585361Y-91293310D01*
X89585368Y-91293310D01*
X89587806Y-91293500D01*
X92022189Y-91293500D01*
X92025803Y-91293188D01*
X92029184Y-91292897D01*
X92029187Y-91292896D01*
X92035917Y-91292316D01*
X92175052Y-91249214D01*
X92182534Y-91244259D01*
X92182537Y-91244258D01*
X92289009Y-91173752D01*
X92289010Y-91173752D01*
X92296496Y-91168794D01*
X92307296Y-91156009D01*
X92384695Y-91064379D01*
X92390488Y-91057521D01*
X92449471Y-90924340D01*
X92451596Y-90908392D01*
X92467789Y-90786828D01*
X92467789Y-90786827D01*
X92468704Y-90779958D01*
X92467627Y-90767678D01*
X92456015Y-90698002D01*
X92401410Y-90370373D01*
X92363050Y-90140213D01*
X92371581Y-90069732D01*
X92416864Y-90015051D01*
X92487336Y-89993500D01*
X93322586Y-89993500D01*
X93390707Y-90013502D01*
X93429730Y-90053197D01*
X93472522Y-90122348D01*
X93597697Y-90247305D01*
X93603927Y-90251145D01*
X93603928Y-90251146D01*
X93662435Y-90287210D01*
X93748262Y-90340115D01*
X93811732Y-90361167D01*
X93909611Y-90393632D01*
X93909613Y-90393632D01*
X93916139Y-90395797D01*
X93922975Y-90396497D01*
X93922978Y-90396498D01*
X93966031Y-90400909D01*
X94020600Y-90406500D01*
X95061074Y-90406500D01*
X95129195Y-90426502D01*
X95175688Y-90480158D01*
X95185792Y-90550432D01*
X95156298Y-90615012D01*
X95150170Y-90621595D01*
X94870301Y-90901465D01*
X94807988Y-90935490D01*
X94767599Y-90937633D01*
X94746501Y-90935341D01*
X94746494Y-90935341D01*
X94740373Y-90934676D01*
X94722373Y-90936251D01*
X94690371Y-90939050D01*
X94685546Y-90939379D01*
X94683075Y-90939500D01*
X94679993Y-90939500D01*
X94657525Y-90941703D01*
X94637251Y-90943691D01*
X94635936Y-90943813D01*
X94603675Y-90946636D01*
X94543349Y-90951913D01*
X94538230Y-90953400D01*
X94532929Y-90953920D01*
X94443928Y-90980791D01*
X94442795Y-90981126D01*
X94359348Y-91005370D01*
X94359344Y-91005372D01*
X94353426Y-91007091D01*
X94348694Y-91009544D01*
X94343593Y-91011084D01*
X94338150Y-91013978D01*
X94261502Y-91054731D01*
X94260336Y-91055343D01*
X94183309Y-91095271D01*
X94177836Y-91098108D01*
X94173673Y-91101431D01*
X94168966Y-91103934D01*
X94164189Y-91107830D01*
X94161205Y-91110264D01*
X94096844Y-91162755D01*
X94095988Y-91163446D01*
X94056789Y-91194738D01*
X94054285Y-91197242D01*
X94053567Y-91197884D01*
X94049234Y-91201585D01*
X94015700Y-91228935D01*
X94011773Y-91233682D01*
X94011771Y-91233684D01*
X93986475Y-91264262D01*
X93978485Y-91273042D01*
X93395051Y-91856477D01*
X92839536Y-92411992D01*
X92777224Y-92446017D01*
X92772049Y-92446807D01*
X92772084Y-92447004D01*
X92766662Y-92447960D01*
X92761185Y-92448439D01*
X92755877Y-92449861D01*
X92755873Y-92449862D01*
X92553113Y-92504192D01*
X92553111Y-92504193D01*
X92547803Y-92505615D01*
X92542822Y-92507937D01*
X92542821Y-92507938D01*
X92352573Y-92596652D01*
X92352570Y-92596654D01*
X92347592Y-92598975D01*
X92260006Y-92660303D01*
X92252981Y-92665222D01*
X92180711Y-92688009D01*
X91241797Y-92688009D01*
X91169527Y-92665222D01*
X91079429Y-92602135D01*
X91079423Y-92602132D01*
X91074915Y-92598975D01*
X91069933Y-92596652D01*
X91069928Y-92596649D01*
X90879685Y-92507938D01*
X90879684Y-92507938D01*
X90874703Y-92505615D01*
X90869395Y-92504193D01*
X90869393Y-92504192D01*
X90787971Y-92482375D01*
X90661321Y-92448439D01*
X90441253Y-92429186D01*
X90221185Y-92448439D01*
X90094535Y-92482375D01*
X90013113Y-92504192D01*
X90013111Y-92504193D01*
X90007803Y-92505615D01*
X90002822Y-92507937D01*
X90002821Y-92507938D01*
X89812573Y-92596652D01*
X89812570Y-92596654D01*
X89807592Y-92598975D01*
X89626633Y-92725683D01*
X89470427Y-92881889D01*
X89343719Y-93062848D01*
X89341398Y-93067826D01*
X89341396Y-93067829D01*
X89277063Y-93205792D01*
X89250359Y-93263059D01*
X89193183Y-93476441D01*
X89173930Y-93696509D01*
X89193183Y-93916577D01*
X89250359Y-94129959D01*
X89252681Y-94134940D01*
X89252682Y-94134941D01*
X89262442Y-94155870D01*
X89343719Y-94330170D01*
X89470427Y-94511129D01*
X89626633Y-94667335D01*
X89631141Y-94670492D01*
X89631144Y-94670494D01*
X89680437Y-94705009D01*
X89737258Y-94744795D01*
X89737259Y-94744796D01*
X89781587Y-94800253D01*
X89788896Y-94870872D01*
X89756865Y-94934233D01*
X89695664Y-94970218D01*
X89664988Y-94974009D01*
X89639119Y-94974009D01*
X89576937Y-94980764D01*
X89440548Y-95031894D01*
X89323992Y-95119248D01*
X89236638Y-95235804D01*
X89185508Y-95372193D01*
X89178753Y-95434375D01*
X89178753Y-96852399D01*
X89158751Y-96920520D01*
X89105095Y-96967013D01*
X89052753Y-96978399D01*
X86745330Y-96978399D01*
X86677209Y-96958397D01*
X86630716Y-96904741D01*
X86620612Y-96834467D01*
X86650106Y-96769887D01*
X86658597Y-96761002D01*
X86754536Y-96669959D01*
X86822613Y-96605356D01*
X87045164Y-96339189D01*
X87109016Y-96241984D01*
X87171136Y-96147414D01*
X87235647Y-96049205D01*
X87326925Y-95867719D01*
X87389911Y-95742486D01*
X87389914Y-95742478D01*
X87391538Y-95739250D01*
X87395508Y-95728402D01*
X87509523Y-95416843D01*
X87509524Y-95416839D01*
X87510771Y-95413432D01*
X87511616Y-95409910D01*
X87511619Y-95409902D01*
X87590918Y-95079597D01*
X87590919Y-95079593D01*
X87591765Y-95076068D01*
X87592412Y-95070725D01*
X87633110Y-94734410D01*
X87633110Y-94734403D01*
X87633446Y-94731631D01*
X87634095Y-94711002D01*
X87639305Y-94545203D01*
X87639393Y-94542406D01*
X87637590Y-94511129D01*
X87619630Y-94199652D01*
X87619629Y-94199647D01*
X87619421Y-94196032D01*
X87585321Y-94000650D01*
X87560394Y-93857821D01*
X87560392Y-93857814D01*
X87559770Y-93854248D01*
X87526089Y-93740541D01*
X87505112Y-93669726D01*
X87461231Y-93521586D01*
X87422057Y-93429743D01*
X87326534Y-93205792D01*
X87326532Y-93205789D01*
X87325110Y-93202454D01*
X87316758Y-93187810D01*
X87155002Y-92904222D01*
X87153211Y-92901082D01*
X87139113Y-92881889D01*
X87024367Y-92725683D01*
X86947812Y-92621466D01*
X86924754Y-92596652D01*
X86818561Y-92482375D01*
X86711636Y-92367310D01*
X86447813Y-92141984D01*
X86430475Y-92130333D01*
X86362510Y-92084663D01*
X86159841Y-91948475D01*
X86132380Y-91934301D01*
X85854755Y-91791008D01*
X85851535Y-91789346D01*
X85526983Y-91666708D01*
X85523462Y-91665824D01*
X85523457Y-91665822D01*
X85323473Y-91615590D01*
X85190486Y-91582186D01*
X85168270Y-91579261D01*
X84850109Y-91537374D01*
X84850101Y-91537373D01*
X84846505Y-91536900D01*
X84701839Y-91534627D01*
X84503240Y-91531507D01*
X84503236Y-91531507D01*
X84499598Y-91531450D01*
X84495984Y-91531811D01*
X84495978Y-91531811D01*
X84266813Y-91554685D01*
X84154363Y-91565909D01*
X83815377Y-91639820D01*
X83811950Y-91640993D01*
X83811944Y-91640995D01*
X83496374Y-91749039D01*
X83487133Y-91752203D01*
X83173982Y-91901569D01*
X83170903Y-91903500D01*
X83170902Y-91903501D01*
X83121803Y-91934301D01*
X82880073Y-92085938D01*
X82877237Y-92088210D01*
X82877230Y-92088215D01*
X82681770Y-92244808D01*
X82609303Y-92302865D01*
X82432695Y-92481332D01*
X82405361Y-92508954D01*
X82343228Y-92543305D01*
X82272386Y-92538611D01*
X82215329Y-92496362D01*
X82190170Y-92429973D01*
X82189800Y-92420326D01*
X82189800Y-85098385D01*
X82837000Y-85098385D01*
X82841475Y-85113624D01*
X82842865Y-85114829D01*
X82850548Y-85116500D01*
X83547885Y-85116500D01*
X83563124Y-85112025D01*
X83564329Y-85110635D01*
X83566000Y-85102952D01*
X83566000Y-84343115D01*
X83561525Y-84327876D01*
X83560135Y-84326671D01*
X83552452Y-84325000D01*
X83536234Y-84325000D01*
X83529718Y-84325337D01*
X83435868Y-84335075D01*
X83422472Y-84337968D01*
X83271047Y-84388488D01*
X83257885Y-84394653D01*
X83122508Y-84478426D01*
X83111110Y-84487460D01*
X82998637Y-84600129D01*
X82989625Y-84611540D01*
X82906088Y-84747063D01*
X82899944Y-84760241D01*
X82849685Y-84911766D01*
X82846819Y-84925132D01*
X82837328Y-85017770D01*
X82837000Y-85024185D01*
X82837000Y-85098385D01*
X82189800Y-85098385D01*
X82189800Y-83547885D01*
X84755000Y-83547885D01*
X84759475Y-83563124D01*
X84760865Y-83564329D01*
X84768548Y-83566000D01*
X86290885Y-83566000D01*
X86306124Y-83561525D01*
X86307329Y-83560135D01*
X86309000Y-83552452D01*
X86309000Y-83547885D01*
X86817000Y-83547885D01*
X86821475Y-83563124D01*
X86822865Y-83564329D01*
X86830548Y-83566000D01*
X88352884Y-83566000D01*
X88368123Y-83561525D01*
X88369328Y-83560135D01*
X88370999Y-83552452D01*
X88370999Y-83457577D01*
X89485422Y-83457577D01*
X89759385Y-85101356D01*
X89761403Y-85109807D01*
X89788359Y-85195888D01*
X89795879Y-85211711D01*
X89866263Y-85318252D01*
X89878063Y-85331543D01*
X89975421Y-85413963D01*
X89990479Y-85423408D01*
X90107179Y-85475244D01*
X90124016Y-85480048D01*
X90213042Y-85492402D01*
X90221704Y-85493000D01*
X90532885Y-85493000D01*
X90548124Y-85488525D01*
X90549329Y-85487135D01*
X90551000Y-85479452D01*
X90551000Y-85474885D01*
X91059000Y-85474885D01*
X91063475Y-85490124D01*
X91064865Y-85491329D01*
X91072548Y-85493000D01*
X91388289Y-85493000D01*
X91396958Y-85492400D01*
X91486308Y-85479961D01*
X91503144Y-85475147D01*
X91619807Y-85423235D01*
X91634863Y-85413776D01*
X91732161Y-85331299D01*
X91743957Y-85317994D01*
X91814276Y-85211401D01*
X91821778Y-85195593D01*
X91848603Y-85109796D01*
X91850614Y-85101364D01*
X91934992Y-84595095D01*
X93313001Y-84595095D01*
X93313338Y-84601614D01*
X93323257Y-84697206D01*
X93326149Y-84710600D01*
X93377588Y-84864784D01*
X93383761Y-84877962D01*
X93469063Y-85015807D01*
X93478099Y-85027208D01*
X93592829Y-85141739D01*
X93604240Y-85150751D01*
X93742243Y-85235816D01*
X93755424Y-85241963D01*
X93909710Y-85293138D01*
X93923086Y-85296005D01*
X94017438Y-85305672D01*
X94023854Y-85306000D01*
X94723885Y-85306000D01*
X94739124Y-85301525D01*
X94740329Y-85300135D01*
X94742000Y-85292452D01*
X94742000Y-83945115D01*
X94737525Y-83929876D01*
X94736135Y-83928671D01*
X94728452Y-83927000D01*
X93331116Y-83927000D01*
X93315877Y-83931475D01*
X93314672Y-83932865D01*
X93313001Y-83940548D01*
X93313001Y-84595095D01*
X91934992Y-84595095D01*
X92124697Y-83456868D01*
X92123061Y-83443349D01*
X92108839Y-83439000D01*
X91077115Y-83439000D01*
X91061876Y-83443475D01*
X91060671Y-83444865D01*
X91059000Y-83452548D01*
X91059000Y-85474885D01*
X90551000Y-85474885D01*
X90551000Y-83457115D01*
X90546525Y-83441876D01*
X90545135Y-83440671D01*
X90537452Y-83439000D01*
X89500441Y-83439000D01*
X89487374Y-83442837D01*
X89485422Y-83457577D01*
X88370999Y-83457577D01*
X88370999Y-82475331D01*
X88370629Y-82468510D01*
X88365105Y-82417648D01*
X88361479Y-82402396D01*
X88316324Y-82281946D01*
X88307786Y-82266351D01*
X88231285Y-82164276D01*
X88218724Y-82151715D01*
X88116649Y-82075214D01*
X88101054Y-82066676D01*
X87980606Y-82021522D01*
X87965351Y-82017895D01*
X87914486Y-82012369D01*
X87907672Y-82012000D01*
X86835115Y-82012000D01*
X86819876Y-82016475D01*
X86818671Y-82017865D01*
X86817000Y-82025548D01*
X86817000Y-83547885D01*
X86309000Y-83547885D01*
X86309000Y-82030116D01*
X86304525Y-82014877D01*
X86303135Y-82013672D01*
X86295452Y-82012001D01*
X85218331Y-82012001D01*
X85211510Y-82012371D01*
X85160648Y-82017895D01*
X85145396Y-82021521D01*
X85024946Y-82066676D01*
X85009351Y-82075214D01*
X84907276Y-82151715D01*
X84894715Y-82164276D01*
X84818214Y-82266351D01*
X84809676Y-82281946D01*
X84764522Y-82402394D01*
X84760895Y-82417649D01*
X84755369Y-82468514D01*
X84755000Y-82475328D01*
X84755000Y-83547885D01*
X82189800Y-83547885D01*
X82189800Y-81396944D01*
X89142407Y-81396944D01*
X89142664Y-81399876D01*
X89143277Y-81404707D01*
X89394681Y-82913133D01*
X89401599Y-82927427D01*
X89407442Y-82931000D01*
X90532885Y-82931000D01*
X90548124Y-82926525D01*
X90549329Y-82925135D01*
X90551000Y-82917452D01*
X90551000Y-80895115D01*
X90546525Y-80879876D01*
X90545135Y-80878671D01*
X90537452Y-80877000D01*
X89590592Y-80877000D01*
X89585179Y-80877233D01*
X89580898Y-80877602D01*
X89567703Y-80880183D01*
X89443742Y-80918585D01*
X89427679Y-80926199D01*
X89321321Y-80996628D01*
X89308049Y-81008438D01*
X89225733Y-81105889D01*
X89216305Y-81120955D01*
X89164651Y-81237587D01*
X89159829Y-81254697D01*
X89142716Y-81383167D01*
X89142407Y-81396944D01*
X82189800Y-81396944D01*
X82189800Y-80428736D01*
X82209802Y-80360615D01*
X82263458Y-80314122D01*
X82333732Y-80304018D01*
X82396790Y-80332213D01*
X82401039Y-80335779D01*
X82411159Y-80342708D01*
X82573585Y-80432002D01*
X82584858Y-80436834D01*
X82761538Y-80492880D01*
X82773532Y-80495430D01*
X82917761Y-80511607D01*
X82924785Y-80512000D01*
X83005885Y-80512000D01*
X83021124Y-80507525D01*
X83022329Y-80506135D01*
X83024000Y-80498452D01*
X83024000Y-80493885D01*
X83532000Y-80493885D01*
X83536475Y-80509124D01*
X83537865Y-80510329D01*
X83545548Y-80512000D01*
X83624657Y-80512000D01*
X83630805Y-80511699D01*
X83768603Y-80498188D01*
X83780638Y-80495805D01*
X83958076Y-80442233D01*
X83969416Y-80437559D01*
X84133077Y-80350540D01*
X84143294Y-80343751D01*
X84286933Y-80226603D01*
X84295637Y-80217959D01*
X84413784Y-80075144D01*
X84420644Y-80064973D01*
X84508804Y-79901924D01*
X84513556Y-79890619D01*
X84549250Y-79775308D01*
X84549331Y-79769768D01*
X85935425Y-79769768D01*
X85967138Y-79877521D01*
X85971731Y-79888889D01*
X86057607Y-80053154D01*
X86064321Y-80063415D01*
X86180468Y-80207873D01*
X86189046Y-80216632D01*
X86331039Y-80335778D01*
X86341159Y-80342708D01*
X86503585Y-80432002D01*
X86514858Y-80436834D01*
X86691538Y-80492880D01*
X86703532Y-80495430D01*
X86847761Y-80511607D01*
X86854785Y-80512000D01*
X87185885Y-80512000D01*
X87201124Y-80507525D01*
X87202329Y-80506135D01*
X87204000Y-80498452D01*
X87204000Y-80493885D01*
X87712000Y-80493885D01*
X87716475Y-80509124D01*
X87717865Y-80510329D01*
X87725548Y-80512000D01*
X88054657Y-80512000D01*
X88060805Y-80511699D01*
X88198603Y-80498188D01*
X88210638Y-80495805D01*
X88388076Y-80442233D01*
X88399416Y-80437559D01*
X88563077Y-80350540D01*
X88573294Y-80343751D01*
X88716933Y-80226603D01*
X88725637Y-80217959D01*
X88843784Y-80075144D01*
X88850644Y-80064973D01*
X88938804Y-79901924D01*
X88943556Y-79890619D01*
X88979250Y-79775308D01*
X88979456Y-79761205D01*
X88972701Y-79758000D01*
X87730115Y-79758000D01*
X87714876Y-79762475D01*
X87713671Y-79763865D01*
X87712000Y-79771548D01*
X87712000Y-80493885D01*
X87204000Y-80493885D01*
X87204000Y-79776115D01*
X87199525Y-79760876D01*
X87198135Y-79759671D01*
X87190452Y-79758000D01*
X85950076Y-79758000D01*
X85936545Y-79761973D01*
X85935425Y-79769768D01*
X84549331Y-79769768D01*
X84549456Y-79761205D01*
X84542701Y-79758000D01*
X83550115Y-79758000D01*
X83534876Y-79762475D01*
X83533671Y-79763865D01*
X83532000Y-79771548D01*
X83532000Y-80493885D01*
X83024000Y-80493885D01*
X83024000Y-79231885D01*
X83532000Y-79231885D01*
X83536475Y-79247124D01*
X83537865Y-79248329D01*
X83545548Y-79250000D01*
X84535924Y-79250000D01*
X84549455Y-79246027D01*
X84550575Y-79238232D01*
X84518862Y-79130479D01*
X84514269Y-79119111D01*
X84428393Y-78954846D01*
X84421679Y-78944585D01*
X84305532Y-78800127D01*
X84296954Y-78791368D01*
X84154961Y-78672222D01*
X84144841Y-78665292D01*
X83982415Y-78575998D01*
X83971142Y-78571166D01*
X83794462Y-78515120D01*
X83782468Y-78512570D01*
X83638239Y-78496393D01*
X83631215Y-78496000D01*
X83550115Y-78496000D01*
X83534876Y-78500475D01*
X83533671Y-78501865D01*
X83532000Y-78509548D01*
X83532000Y-79231885D01*
X83024000Y-79231885D01*
X83024000Y-78514115D01*
X83019525Y-78498876D01*
X83018135Y-78497671D01*
X83010452Y-78496000D01*
X82931343Y-78496000D01*
X82925195Y-78496301D01*
X82787397Y-78509812D01*
X82775362Y-78512195D01*
X82597924Y-78565767D01*
X82586584Y-78570441D01*
X82422923Y-78657460D01*
X82412706Y-78664248D01*
X82395435Y-78678334D01*
X82330003Y-78705887D01*
X82260062Y-78693691D01*
X82207817Y-78645618D01*
X82189800Y-78580690D01*
X82189800Y-71788736D01*
X82209802Y-71720615D01*
X82263458Y-71674122D01*
X82333732Y-71664018D01*
X82396790Y-71692213D01*
X82401039Y-71695779D01*
X82411159Y-71702708D01*
X82573585Y-71792002D01*
X82584858Y-71796834D01*
X82761538Y-71852880D01*
X82773532Y-71855430D01*
X82917761Y-71871607D01*
X82924785Y-71872000D01*
X83005885Y-71872000D01*
X83021124Y-71867525D01*
X83022329Y-71866135D01*
X83024000Y-71858452D01*
X83024000Y-71853885D01*
X83532000Y-71853885D01*
X83536475Y-71869124D01*
X83537865Y-71870329D01*
X83545548Y-71872000D01*
X83624657Y-71872000D01*
X83630805Y-71871699D01*
X83768603Y-71858188D01*
X83780638Y-71855805D01*
X83958076Y-71802233D01*
X83969416Y-71797559D01*
X84133077Y-71710540D01*
X84143294Y-71703751D01*
X84286933Y-71586603D01*
X84295637Y-71577959D01*
X84413784Y-71435144D01*
X84420644Y-71424973D01*
X84508804Y-71261924D01*
X84513556Y-71250619D01*
X84549250Y-71135308D01*
X84549456Y-71121205D01*
X84542701Y-71118000D01*
X83550115Y-71118000D01*
X83534876Y-71122475D01*
X83533671Y-71123865D01*
X83532000Y-71131548D01*
X83532000Y-71853885D01*
X83024000Y-71853885D01*
X83024000Y-71101974D01*
X100445164Y-71101974D01*
X100447924Y-71116703D01*
X100460102Y-71120000D01*
X101962885Y-71120000D01*
X101978124Y-71115525D01*
X101979329Y-71114135D01*
X101981000Y-71106452D01*
X101981000Y-69601931D01*
X101976982Y-69588247D01*
X101963290Y-69586226D01*
X101862682Y-69599918D01*
X101853546Y-69601860D01*
X101604543Y-69674439D01*
X101595800Y-69677707D01*
X101360252Y-69786296D01*
X101352097Y-69790816D01*
X101135186Y-69933029D01*
X101127781Y-69938712D01*
X100934279Y-70111419D01*
X100927794Y-70118135D01*
X100761941Y-70317551D01*
X100756529Y-70325138D01*
X100621965Y-70546891D01*
X100617736Y-70555192D01*
X100517432Y-70794389D01*
X100514471Y-70803239D01*
X100450628Y-71054625D01*
X100449006Y-71063822D01*
X100445164Y-71101974D01*
X83024000Y-71101974D01*
X83024000Y-70720885D01*
X90330000Y-70720885D01*
X90334475Y-70736124D01*
X90335865Y-70737329D01*
X90343548Y-70739000D01*
X91040885Y-70739000D01*
X91056124Y-70734525D01*
X91057329Y-70733135D01*
X91059000Y-70725452D01*
X91059000Y-70720885D01*
X91567000Y-70720885D01*
X91571475Y-70736124D01*
X91572865Y-70737329D01*
X91580548Y-70739000D01*
X92277885Y-70739000D01*
X92293124Y-70734525D01*
X92294329Y-70733135D01*
X92296000Y-70725452D01*
X92296000Y-70696734D01*
X92295663Y-70690218D01*
X92285925Y-70596368D01*
X92283032Y-70582972D01*
X92232512Y-70431547D01*
X92226347Y-70418385D01*
X92142574Y-70283008D01*
X92133540Y-70271610D01*
X92020871Y-70159137D01*
X92009460Y-70150125D01*
X91873937Y-70066588D01*
X91860759Y-70060444D01*
X91709234Y-70010185D01*
X91695868Y-70007319D01*
X91603230Y-69997828D01*
X91596815Y-69997500D01*
X91585115Y-69997500D01*
X91569876Y-70001975D01*
X91568671Y-70003365D01*
X91567000Y-70011048D01*
X91567000Y-70720885D01*
X91059000Y-70720885D01*
X91059000Y-70015615D01*
X91054525Y-70000376D01*
X91053135Y-69999171D01*
X91045452Y-69997500D01*
X91029234Y-69997500D01*
X91022718Y-69997837D01*
X90928868Y-70007575D01*
X90915472Y-70010468D01*
X90764047Y-70060988D01*
X90750885Y-70067153D01*
X90615508Y-70150926D01*
X90604110Y-70159960D01*
X90491637Y-70272629D01*
X90482625Y-70284040D01*
X90399088Y-70419563D01*
X90392944Y-70432741D01*
X90342685Y-70584266D01*
X90339819Y-70597632D01*
X90330328Y-70690270D01*
X90330000Y-70696685D01*
X90330000Y-70720885D01*
X83024000Y-70720885D01*
X83024000Y-70591885D01*
X83532000Y-70591885D01*
X83536475Y-70607124D01*
X83537865Y-70608329D01*
X83545548Y-70610000D01*
X84535924Y-70610000D01*
X84546839Y-70606795D01*
X85936544Y-70606795D01*
X85943299Y-70610000D01*
X87185885Y-70610000D01*
X87201124Y-70605525D01*
X87202329Y-70604135D01*
X87204000Y-70596452D01*
X87204000Y-70591885D01*
X87712000Y-70591885D01*
X87716475Y-70607124D01*
X87717865Y-70608329D01*
X87725548Y-70610000D01*
X88965924Y-70610000D01*
X88979455Y-70606027D01*
X88980575Y-70598232D01*
X88948862Y-70490479D01*
X88944269Y-70479111D01*
X88858393Y-70314846D01*
X88851679Y-70304585D01*
X88735532Y-70160127D01*
X88726954Y-70151368D01*
X88584961Y-70032222D01*
X88574841Y-70025292D01*
X88412415Y-69935998D01*
X88401142Y-69931166D01*
X88224462Y-69875120D01*
X88212468Y-69872570D01*
X88068239Y-69856393D01*
X88061215Y-69856000D01*
X87730115Y-69856000D01*
X87714876Y-69860475D01*
X87713671Y-69861865D01*
X87712000Y-69869548D01*
X87712000Y-70591885D01*
X87204000Y-70591885D01*
X87204000Y-69874115D01*
X87199525Y-69858876D01*
X87198135Y-69857671D01*
X87190452Y-69856000D01*
X86861343Y-69856000D01*
X86855195Y-69856301D01*
X86717397Y-69869812D01*
X86705362Y-69872195D01*
X86527924Y-69925767D01*
X86516584Y-69930441D01*
X86352923Y-70017460D01*
X86342706Y-70024249D01*
X86199067Y-70141397D01*
X86190363Y-70150041D01*
X86072216Y-70292856D01*
X86065356Y-70303027D01*
X85977196Y-70466076D01*
X85972444Y-70477381D01*
X85936750Y-70592692D01*
X85936544Y-70606795D01*
X84546839Y-70606795D01*
X84549455Y-70606027D01*
X84550575Y-70598232D01*
X84518862Y-70490479D01*
X84514269Y-70479111D01*
X84428393Y-70314846D01*
X84421679Y-70304585D01*
X84305532Y-70160127D01*
X84296954Y-70151368D01*
X84154961Y-70032222D01*
X84144841Y-70025292D01*
X83982415Y-69935998D01*
X83971142Y-69931166D01*
X83794462Y-69875120D01*
X83782468Y-69872570D01*
X83638239Y-69856393D01*
X83631215Y-69856000D01*
X83550115Y-69856000D01*
X83534876Y-69860475D01*
X83533671Y-69861865D01*
X83532000Y-69869548D01*
X83532000Y-70591885D01*
X83024000Y-70591885D01*
X83024000Y-69874115D01*
X83019525Y-69858876D01*
X83018135Y-69857671D01*
X83010452Y-69856000D01*
X82931343Y-69856000D01*
X82925195Y-69856301D01*
X82787397Y-69869812D01*
X82775362Y-69872195D01*
X82597924Y-69925767D01*
X82586584Y-69930441D01*
X82422923Y-70017460D01*
X82412706Y-70024248D01*
X82395435Y-70038334D01*
X82330003Y-70065887D01*
X82260062Y-70053691D01*
X82207817Y-70005618D01*
X82189800Y-69940690D01*
X82189800Y-69384792D01*
X82209802Y-69316671D01*
X82263458Y-69270178D01*
X82333732Y-69260074D01*
X82391365Y-69283966D01*
X82473108Y-69345229D01*
X82480295Y-69350615D01*
X82616684Y-69401745D01*
X82678866Y-69408500D01*
X85275134Y-69408500D01*
X85337316Y-69401745D01*
X85473705Y-69350615D01*
X85590261Y-69263261D01*
X85677615Y-69146705D01*
X85728745Y-69010316D01*
X85735500Y-68948134D01*
X87718500Y-68948134D01*
X87725255Y-69010316D01*
X87776385Y-69146705D01*
X87863739Y-69263261D01*
X87980295Y-69350615D01*
X88116684Y-69401745D01*
X88178866Y-69408500D01*
X90775134Y-69408500D01*
X90837316Y-69401745D01*
X90973705Y-69350615D01*
X91090261Y-69263261D01*
X91177615Y-69146705D01*
X91228745Y-69010316D01*
X91235500Y-68948134D01*
X91235500Y-66851866D01*
X91228745Y-66789684D01*
X91177615Y-66653295D01*
X91090261Y-66536739D01*
X90973705Y-66449385D01*
X90837316Y-66398255D01*
X90775134Y-66391500D01*
X88178866Y-66391500D01*
X88116684Y-66398255D01*
X87980295Y-66449385D01*
X87863739Y-66536739D01*
X87776385Y-66653295D01*
X87725255Y-66789684D01*
X87718500Y-66851866D01*
X87718500Y-68948134D01*
X85735500Y-68948134D01*
X85735500Y-66851866D01*
X85728745Y-66789684D01*
X85677615Y-66653295D01*
X85590261Y-66536739D01*
X85473705Y-66449385D01*
X85337316Y-66398255D01*
X85275134Y-66391500D01*
X82678866Y-66391500D01*
X82616684Y-66398255D01*
X82480295Y-66449385D01*
X82473110Y-66454770D01*
X82473108Y-66454771D01*
X82391365Y-66516034D01*
X82324858Y-66540882D01*
X82255476Y-66525829D01*
X82205246Y-66475655D01*
X82189800Y-66415208D01*
X82189800Y-61347064D01*
X85914707Y-61347064D01*
X85943825Y-61539599D01*
X85946028Y-61545585D01*
X85946029Y-61545591D01*
X86008860Y-61716360D01*
X86008862Y-61716365D01*
X86011063Y-61722346D01*
X86113674Y-61887840D01*
X86247466Y-62029322D01*
X86406975Y-62141011D01*
X86441301Y-62155865D01*
X86579825Y-62215810D01*
X86579829Y-62215811D01*
X86585684Y-62218345D01*
X86591931Y-62219650D01*
X86591934Y-62219651D01*
X86771557Y-62257176D01*
X86771562Y-62257177D01*
X86776293Y-62258165D01*
X86782685Y-62258500D01*
X86925663Y-62258500D01*
X87010142Y-62249919D01*
X87064378Y-62244410D01*
X87064379Y-62244410D01*
X87070727Y-62243765D01*
X87151843Y-62218345D01*
X87250451Y-62187444D01*
X87250456Y-62187442D01*
X87256541Y-62185535D01*
X87346805Y-62135500D01*
X87421271Y-62094223D01*
X87421274Y-62094221D01*
X87426850Y-62091130D01*
X87431691Y-62086981D01*
X87431695Y-62086978D01*
X87511003Y-62019002D01*
X87575742Y-61989858D01*
X87645961Y-62000340D01*
X87699365Y-62047122D01*
X87719001Y-62114670D01*
X87719001Y-62194669D01*
X87719371Y-62201490D01*
X87724895Y-62252354D01*
X87729294Y-62270857D01*
X87729294Y-62329146D01*
X87724895Y-62347649D01*
X87719369Y-62398514D01*
X87719000Y-62405328D01*
X87719000Y-62431885D01*
X87723475Y-62447124D01*
X87724865Y-62448329D01*
X87732548Y-62450000D01*
X89208885Y-62450000D01*
X89224124Y-62445525D01*
X89225329Y-62444135D01*
X89227000Y-62436452D01*
X89227000Y-61631885D01*
X89727000Y-61631885D01*
X89731475Y-61647124D01*
X89732865Y-61648329D01*
X89740548Y-61650000D01*
X91216884Y-61650000D01*
X91232123Y-61645525D01*
X91233328Y-61644135D01*
X91234999Y-61636452D01*
X91234999Y-61605331D01*
X91234629Y-61598510D01*
X91229105Y-61547648D01*
X91225479Y-61532396D01*
X91180324Y-61411946D01*
X91171786Y-61396351D01*
X91095285Y-61294276D01*
X91082724Y-61281715D01*
X90980649Y-61205214D01*
X90965054Y-61196676D01*
X90844606Y-61151522D01*
X90829351Y-61147895D01*
X90778486Y-61142369D01*
X90771672Y-61142000D01*
X89745115Y-61142000D01*
X89729876Y-61146475D01*
X89728671Y-61147865D01*
X89727000Y-61155548D01*
X89727000Y-61631885D01*
X89227000Y-61631885D01*
X89227000Y-61160116D01*
X89222525Y-61144877D01*
X89221135Y-61143672D01*
X89213452Y-61142001D01*
X88182331Y-61142001D01*
X88175510Y-61142371D01*
X88124648Y-61147895D01*
X88109394Y-61151522D01*
X87984836Y-61198216D01*
X87914029Y-61203399D01*
X87851660Y-61169478D01*
X87817531Y-61107223D01*
X87816024Y-61099076D01*
X87811130Y-61066714D01*
X87811129Y-61066712D01*
X87810175Y-61060401D01*
X87807972Y-61054415D01*
X87807971Y-61054409D01*
X87745140Y-60883640D01*
X87745138Y-60883635D01*
X87742937Y-60877654D01*
X87685121Y-60784406D01*
X87643688Y-60717582D01*
X87643687Y-60717581D01*
X87640326Y-60712160D01*
X87506534Y-60570678D01*
X87347025Y-60458989D01*
X87286975Y-60433003D01*
X87174175Y-60384190D01*
X87174171Y-60384189D01*
X87168316Y-60381655D01*
X87162069Y-60380350D01*
X87162066Y-60380349D01*
X86982443Y-60342824D01*
X86982438Y-60342823D01*
X86977707Y-60341835D01*
X86971315Y-60341500D01*
X86828337Y-60341500D01*
X86777095Y-60346705D01*
X86689622Y-60355590D01*
X86689621Y-60355590D01*
X86683273Y-60356235D01*
X86649126Y-60366936D01*
X86503549Y-60412556D01*
X86503544Y-60412558D01*
X86497459Y-60414465D01*
X86413848Y-60460812D01*
X86332729Y-60505777D01*
X86332726Y-60505779D01*
X86327150Y-60508870D01*
X86322309Y-60513019D01*
X86322305Y-60513022D01*
X86184145Y-60631440D01*
X86179302Y-60635591D01*
X86059954Y-60789453D01*
X86057138Y-60795176D01*
X86057136Y-60795179D01*
X86013608Y-60883640D01*
X85973982Y-60964171D01*
X85972373Y-60970349D01*
X85972372Y-60970351D01*
X85926912Y-61144877D01*
X85924898Y-61152607D01*
X85914707Y-61347064D01*
X82189800Y-61347064D01*
X82189800Y-60584792D01*
X82209802Y-60516671D01*
X82263458Y-60470178D01*
X82333732Y-60460074D01*
X82391365Y-60483966D01*
X82454902Y-60531584D01*
X82480295Y-60550615D01*
X82616684Y-60601745D01*
X82678866Y-60608500D01*
X85275134Y-60608500D01*
X85337316Y-60601745D01*
X85473705Y-60550615D01*
X85590261Y-60463261D01*
X85677615Y-60346705D01*
X85728745Y-60210316D01*
X85735500Y-60148134D01*
X87718500Y-60148134D01*
X87725255Y-60210316D01*
X87776385Y-60346705D01*
X87863739Y-60463261D01*
X87980295Y-60550615D01*
X88116684Y-60601745D01*
X88178866Y-60608500D01*
X90775134Y-60608500D01*
X90837316Y-60601745D01*
X90973705Y-60550615D01*
X91090261Y-60463261D01*
X91177615Y-60346705D01*
X91228745Y-60210316D01*
X91235500Y-60148134D01*
X91235500Y-58051866D01*
X91228745Y-57989684D01*
X91177615Y-57853295D01*
X91090261Y-57736739D01*
X90973705Y-57649385D01*
X90837316Y-57598255D01*
X90775134Y-57591500D01*
X88178866Y-57591500D01*
X88116684Y-57598255D01*
X87980295Y-57649385D01*
X87863739Y-57736739D01*
X87776385Y-57853295D01*
X87725255Y-57989684D01*
X87718500Y-58051866D01*
X87718500Y-60148134D01*
X85735500Y-60148134D01*
X85735500Y-58051866D01*
X85728745Y-57989684D01*
X85677615Y-57853295D01*
X85590261Y-57736739D01*
X85473705Y-57649385D01*
X85337316Y-57598255D01*
X85338191Y-57595921D01*
X85287206Y-57566789D01*
X85254391Y-57503831D01*
X85260823Y-57433127D01*
X85304459Y-57377123D01*
X85344773Y-57358534D01*
X85344638Y-57358097D01*
X85347893Y-57357096D01*
X85347895Y-57357095D01*
X85676250Y-57256080D01*
X85993939Y-57116624D01*
X86102953Y-57052922D01*
X86290354Y-56943414D01*
X86290356Y-56943413D01*
X86293494Y-56941579D01*
X86392812Y-56867009D01*
X86568038Y-56735446D01*
X86568042Y-56735443D01*
X86570945Y-56733263D01*
X86822613Y-56494438D01*
X86842026Y-56471221D01*
X86961163Y-56328735D01*
X87045164Y-56228271D01*
X87074609Y-56183446D01*
X87140405Y-56083279D01*
X87235647Y-55938287D01*
X87337634Y-55735508D01*
X87389911Y-55631568D01*
X87389914Y-55631560D01*
X87391538Y-55628332D01*
X87411449Y-55573923D01*
X87509523Y-55305925D01*
X87509524Y-55305921D01*
X87510771Y-55302514D01*
X87511616Y-55298992D01*
X87511619Y-55298984D01*
X87590918Y-54968679D01*
X87590919Y-54968675D01*
X87591765Y-54965150D01*
X87595944Y-54930615D01*
X87633110Y-54623492D01*
X87633110Y-54623485D01*
X87633446Y-54620713D01*
X87634802Y-54577589D01*
X87639305Y-54434285D01*
X87639393Y-54431488D01*
X87635092Y-54356892D01*
X87619630Y-54088734D01*
X87619629Y-54088729D01*
X87619421Y-54085114D01*
X87583984Y-53882067D01*
X87560394Y-53746903D01*
X87560392Y-53746896D01*
X87559770Y-53743330D01*
X87558357Y-53738558D01*
X87491224Y-53511923D01*
X87461231Y-53410668D01*
X87406303Y-53281890D01*
X87326534Y-53094874D01*
X87326532Y-53094871D01*
X87325110Y-53091536D01*
X87310596Y-53066089D01*
X87155002Y-52793304D01*
X87153211Y-52790164D01*
X86947812Y-52510548D01*
X86711636Y-52256392D01*
X86665759Y-52217209D01*
X86626951Y-52157761D01*
X86626445Y-52086766D01*
X86664401Y-52026767D01*
X86728769Y-51996814D01*
X86747591Y-51995400D01*
X89412726Y-51995400D01*
X89480847Y-52015402D01*
G37*
G04 #@! TD.AperFunction*
G04 #@! TA.AperFunction,Conductor*
G36*
X101940213Y-94153004D02*
G01*
X101985448Y-94205208D01*
X102043719Y-94330170D01*
X102170427Y-94511129D01*
X102326633Y-94667335D01*
X102331141Y-94670492D01*
X102331144Y-94670494D01*
X102466823Y-94765497D01*
X102507591Y-94794043D01*
X102512573Y-94796366D01*
X102512578Y-94796369D01*
X102632554Y-94852314D01*
X102685839Y-94899231D01*
X102705300Y-94967508D01*
X102684758Y-95035468D01*
X102632554Y-95080704D01*
X102512573Y-95136652D01*
X102512570Y-95136654D01*
X102507592Y-95138975D01*
X102326633Y-95265683D01*
X102170427Y-95421889D01*
X102043719Y-95602848D01*
X102041398Y-95607826D01*
X102041396Y-95607829D01*
X101985172Y-95728402D01*
X101938255Y-95781687D01*
X101869977Y-95801148D01*
X101802017Y-95780606D01*
X101756782Y-95728402D01*
X101700677Y-95608084D01*
X101695198Y-95598594D01*
X101665714Y-95556487D01*
X101655238Y-95548113D01*
X101641790Y-95555182D01*
X100690348Y-96506624D01*
X100628036Y-96540650D01*
X100557221Y-96535585D01*
X100512158Y-96506624D01*
X99559994Y-95554460D01*
X99548220Y-95548030D01*
X99536204Y-95557326D01*
X99507308Y-95598594D01*
X99501829Y-95608084D01*
X99445724Y-95728402D01*
X99398807Y-95781687D01*
X99330529Y-95801148D01*
X99262569Y-95780606D01*
X99217334Y-95728402D01*
X99161110Y-95607829D01*
X99161108Y-95607826D01*
X99158787Y-95602848D01*
X99032079Y-95421889D01*
X98875873Y-95265683D01*
X98871365Y-95262526D01*
X98871362Y-95262524D01*
X98699424Y-95142132D01*
X98699421Y-95142130D01*
X98694915Y-95138975D01*
X98689933Y-95136652D01*
X98689928Y-95136649D01*
X98569952Y-95080704D01*
X98516667Y-95033787D01*
X98497206Y-94965510D01*
X98517748Y-94897550D01*
X98569952Y-94852314D01*
X98689928Y-94796369D01*
X98689933Y-94796366D01*
X98694915Y-94794043D01*
X98735683Y-94765497D01*
X98871362Y-94670494D01*
X98871365Y-94670492D01*
X98875873Y-94667335D01*
X99032079Y-94511129D01*
X99158787Y-94330170D01*
X99217058Y-94205208D01*
X99263975Y-94151923D01*
X99332253Y-94132462D01*
X99400213Y-94153004D01*
X99445448Y-94205208D01*
X99503719Y-94330170D01*
X99630427Y-94511129D01*
X99786633Y-94667335D01*
X99791141Y-94670492D01*
X99791144Y-94670494D01*
X99926823Y-94765497D01*
X99967591Y-94794043D01*
X99972573Y-94796366D01*
X99972578Y-94796369D01*
X100093146Y-94852590D01*
X100146431Y-94899507D01*
X100165892Y-94967784D01*
X100145350Y-95035744D01*
X100093146Y-95080980D01*
X99972828Y-95137085D01*
X99963338Y-95142564D01*
X99921231Y-95172048D01*
X99912857Y-95182524D01*
X99919926Y-95195972D01*
X100588441Y-95864487D01*
X100602385Y-95872101D01*
X100604218Y-95871970D01*
X100610833Y-95867719D01*
X101283302Y-95195250D01*
X101289732Y-95183475D01*
X101280436Y-95171460D01*
X101239172Y-95142567D01*
X101229677Y-95137084D01*
X101109360Y-95080980D01*
X101056075Y-95034063D01*
X101036614Y-94965786D01*
X101057156Y-94897826D01*
X101109360Y-94852590D01*
X101229928Y-94796369D01*
X101229933Y-94796366D01*
X101234915Y-94794043D01*
X101275683Y-94765497D01*
X101411362Y-94670494D01*
X101411365Y-94670492D01*
X101415873Y-94667335D01*
X101572079Y-94511129D01*
X101698787Y-94330170D01*
X101757058Y-94205208D01*
X101803975Y-94151923D01*
X101872253Y-94132462D01*
X101940213Y-94153004D01*
G37*
G04 #@! TD.AperFunction*
G04 #@! TA.AperFunction,Conductor*
G36*
X112679171Y-85387502D02*
G01*
X112700145Y-85404405D01*
X112793193Y-85497453D01*
X112797002Y-85499706D01*
X112837655Y-85555996D01*
X112841506Y-85626888D01*
X112806418Y-85688609D01*
X112798724Y-85695276D01*
X112793193Y-85698547D01*
X112675547Y-85816193D01*
X112671511Y-85823017D01*
X112671509Y-85823020D01*
X112629049Y-85894816D01*
X112590855Y-85959399D01*
X112588644Y-85967010D01*
X112588643Y-85967012D01*
X112573472Y-86019231D01*
X112544438Y-86119169D01*
X112543934Y-86125574D01*
X112543933Y-86125579D01*
X112542198Y-86147627D01*
X112541500Y-86156498D01*
X112541500Y-87314502D01*
X112541693Y-87316950D01*
X112541693Y-87316958D01*
X112543924Y-87345295D01*
X112544438Y-87351831D01*
X112565607Y-87424697D01*
X112585485Y-87493116D01*
X112590855Y-87511601D01*
X112594890Y-87518423D01*
X112594892Y-87518427D01*
X112626274Y-87571491D01*
X112643734Y-87640307D01*
X112621217Y-87707638D01*
X112597161Y-87731902D01*
X112597820Y-87732665D01*
X112593273Y-87736589D01*
X112588389Y-87740054D01*
X112584251Y-87744377D01*
X112584246Y-87744381D01*
X112496836Y-87835691D01*
X112435280Y-87871067D01*
X112364371Y-87867548D01*
X112306621Y-87826251D01*
X112298674Y-87814863D01*
X112267937Y-87765193D01*
X112258901Y-87753792D01*
X112144171Y-87639261D01*
X112132760Y-87630249D01*
X111994757Y-87545184D01*
X111981576Y-87539037D01*
X111827290Y-87487862D01*
X111813914Y-87484995D01*
X111719562Y-87475328D01*
X111713145Y-87475000D01*
X111588115Y-87475000D01*
X111572876Y-87479475D01*
X111571671Y-87480865D01*
X111570000Y-87488548D01*
X111570000Y-90222884D01*
X111574475Y-90238123D01*
X111575865Y-90239328D01*
X111583548Y-90240999D01*
X111713095Y-90240999D01*
X111719614Y-90240662D01*
X111815206Y-90230743D01*
X111828600Y-90227851D01*
X111982784Y-90176412D01*
X111995962Y-90170239D01*
X112133807Y-90084937D01*
X112145208Y-90075901D01*
X112259739Y-89961171D01*
X112268751Y-89949760D01*
X112296745Y-89904345D01*
X112349517Y-89856852D01*
X112419589Y-89845428D01*
X112484713Y-89873702D01*
X112503088Y-89892625D01*
X112509604Y-89900920D01*
X112514134Y-89904851D01*
X112514135Y-89904852D01*
X112582081Y-89963813D01*
X112620422Y-90023567D01*
X112625500Y-90058978D01*
X112625500Y-90487975D01*
X112605498Y-90556096D01*
X112583719Y-90580317D01*
X112584184Y-90580792D01*
X112579782Y-90585103D01*
X112574975Y-90588968D01*
X112447846Y-90740474D01*
X112444879Y-90745872D01*
X112444875Y-90745877D01*
X112367715Y-90886233D01*
X112352567Y-90913787D01*
X112350706Y-90919654D01*
X112350705Y-90919656D01*
X112304796Y-91064379D01*
X112292765Y-91102306D01*
X112270719Y-91298851D01*
X112271235Y-91304995D01*
X112286611Y-91488107D01*
X112287268Y-91495934D01*
X112299015Y-91536900D01*
X112339058Y-91676546D01*
X112341783Y-91686050D01*
X112344602Y-91691535D01*
X112417806Y-91833973D01*
X112432187Y-91861956D01*
X112555035Y-92016953D01*
X112559728Y-92020947D01*
X112559729Y-92020948D01*
X112678623Y-92122134D01*
X112705650Y-92145136D01*
X112878294Y-92241624D01*
X112915156Y-92253601D01*
X112973759Y-92293672D01*
X113001397Y-92359068D01*
X112989291Y-92429025D01*
X112941286Y-92481332D01*
X112908830Y-92495140D01*
X112873282Y-92504665D01*
X112862993Y-92508410D01*
X112672828Y-92597086D01*
X112663338Y-92602564D01*
X112621231Y-92632048D01*
X112612857Y-92642524D01*
X112619926Y-92655972D01*
X113571368Y-93607414D01*
X113605394Y-93669726D01*
X113600329Y-93740541D01*
X113571368Y-93785604D01*
X112619204Y-94737768D01*
X112612774Y-94749543D01*
X112622070Y-94761558D01*
X112663334Y-94790451D01*
X112672829Y-94795934D01*
X112793146Y-94852038D01*
X112846431Y-94898955D01*
X112865892Y-94967232D01*
X112845350Y-95035192D01*
X112793146Y-95080428D01*
X112672573Y-95136652D01*
X112672570Y-95136654D01*
X112667592Y-95138975D01*
X112486633Y-95265683D01*
X112330427Y-95421889D01*
X112203719Y-95602848D01*
X112201398Y-95607826D01*
X112201396Y-95607829D01*
X112145448Y-95727810D01*
X112098531Y-95781095D01*
X112030253Y-95800556D01*
X111962293Y-95780014D01*
X111917058Y-95727810D01*
X111861110Y-95607829D01*
X111861108Y-95607826D01*
X111858787Y-95602848D01*
X111732079Y-95421889D01*
X111575873Y-95265683D01*
X111571365Y-95262526D01*
X111571362Y-95262524D01*
X111399424Y-95142132D01*
X111399421Y-95142130D01*
X111394915Y-95138975D01*
X111389933Y-95136652D01*
X111389928Y-95136649D01*
X111269952Y-95080704D01*
X111216667Y-95033787D01*
X111197206Y-94965510D01*
X111217748Y-94897550D01*
X111269952Y-94852314D01*
X111389928Y-94796369D01*
X111389933Y-94796366D01*
X111394915Y-94794043D01*
X111435683Y-94765497D01*
X111571362Y-94670494D01*
X111571365Y-94670492D01*
X111575873Y-94667335D01*
X111732079Y-94511129D01*
X111858787Y-94330170D01*
X111917334Y-94204616D01*
X111964251Y-94151331D01*
X112032529Y-94131870D01*
X112100489Y-94152412D01*
X112145724Y-94204616D01*
X112201829Y-94324934D01*
X112207308Y-94334424D01*
X112236792Y-94376531D01*
X112247268Y-94384905D01*
X112260716Y-94377836D01*
X112929231Y-93709321D01*
X112936845Y-93695377D01*
X112936714Y-93693544D01*
X112932463Y-93686929D01*
X112259994Y-93014460D01*
X112248220Y-93008030D01*
X112236204Y-93017326D01*
X112207308Y-93058594D01*
X112201829Y-93068084D01*
X112145724Y-93188402D01*
X112098807Y-93241687D01*
X112030529Y-93261148D01*
X111962569Y-93240606D01*
X111917334Y-93188402D01*
X111861110Y-93067829D01*
X111861108Y-93067826D01*
X111858787Y-93062848D01*
X111732079Y-92881889D01*
X111575873Y-92725683D01*
X111571365Y-92722526D01*
X111571362Y-92722524D01*
X111399424Y-92602132D01*
X111399421Y-92602130D01*
X111394915Y-92598975D01*
X111389933Y-92596652D01*
X111389928Y-92596649D01*
X111199685Y-92507938D01*
X111199684Y-92507938D01*
X111194703Y-92505615D01*
X111189395Y-92504193D01*
X111189393Y-92504192D01*
X111107971Y-92482375D01*
X110981321Y-92448439D01*
X110761253Y-92429186D01*
X110541185Y-92448439D01*
X110414535Y-92482375D01*
X110333113Y-92504192D01*
X110333111Y-92504193D01*
X110327803Y-92505615D01*
X110322822Y-92507937D01*
X110322821Y-92507938D01*
X110132573Y-92596652D01*
X110132570Y-92596654D01*
X110127592Y-92598975D01*
X109946633Y-92725683D01*
X109790427Y-92881889D01*
X109663719Y-93062848D01*
X109661398Y-93067826D01*
X109661396Y-93067829D01*
X109605448Y-93187810D01*
X109558531Y-93241095D01*
X109490253Y-93260556D01*
X109422293Y-93240014D01*
X109377058Y-93187810D01*
X109321110Y-93067829D01*
X109321108Y-93067826D01*
X109318787Y-93062848D01*
X109192079Y-92881889D01*
X109035873Y-92725683D01*
X109031365Y-92722526D01*
X109031362Y-92722524D01*
X108859424Y-92602132D01*
X108859421Y-92602130D01*
X108854915Y-92598975D01*
X108849927Y-92596649D01*
X108845164Y-92593899D01*
X108846024Y-92592410D01*
X108798577Y-92550649D01*
X108779103Y-92482375D01*
X108799632Y-92414411D01*
X108816004Y-92394256D01*
X108992605Y-92217655D01*
X109001385Y-92209665D01*
X109001387Y-92209663D01*
X109008080Y-92205416D01*
X109020355Y-92192345D01*
X109056604Y-92153743D01*
X109059359Y-92150901D01*
X109079927Y-92130333D01*
X109082647Y-92126826D01*
X109090353Y-92117804D01*
X109116544Y-92089913D01*
X109121972Y-92084133D01*
X109128292Y-92072637D01*
X109132303Y-92065342D01*
X109143157Y-92048818D01*
X109151445Y-92038132D01*
X109156304Y-92031868D01*
X109159752Y-92023901D01*
X109174654Y-91989465D01*
X109179876Y-91978805D01*
X109198305Y-91945284D01*
X109198306Y-91945282D01*
X109202124Y-91938337D01*
X109207459Y-91917559D01*
X109213858Y-91898869D01*
X109222380Y-91879176D01*
X109229606Y-91833552D01*
X109232013Y-91821929D01*
X109241528Y-91784868D01*
X109243500Y-91777188D01*
X109243500Y-91755741D01*
X109245051Y-91736031D01*
X109247166Y-91722677D01*
X109248406Y-91714848D01*
X109244059Y-91668859D01*
X109243500Y-91657004D01*
X109243500Y-89530095D01*
X110208001Y-89530095D01*
X110208338Y-89536614D01*
X110218257Y-89632206D01*
X110221149Y-89645600D01*
X110272588Y-89799784D01*
X110278761Y-89812962D01*
X110364063Y-89950807D01*
X110373099Y-89962208D01*
X110487829Y-90076739D01*
X110499240Y-90085751D01*
X110637243Y-90170816D01*
X110650424Y-90176963D01*
X110804710Y-90228138D01*
X110818086Y-90231005D01*
X110912438Y-90240672D01*
X110918854Y-90241000D01*
X111043885Y-90241000D01*
X111059124Y-90236525D01*
X111060329Y-90235135D01*
X111062000Y-90227452D01*
X111062000Y-89130115D01*
X111057525Y-89114876D01*
X111056135Y-89113671D01*
X111048452Y-89112000D01*
X110226116Y-89112000D01*
X110210877Y-89116475D01*
X110209672Y-89117865D01*
X110208001Y-89125548D01*
X110208001Y-89530095D01*
X109243500Y-89530095D01*
X109243500Y-88585885D01*
X110208000Y-88585885D01*
X110212475Y-88601124D01*
X110213865Y-88602329D01*
X110221548Y-88604000D01*
X111043885Y-88604000D01*
X111059124Y-88599525D01*
X111060329Y-88598135D01*
X111062000Y-88590452D01*
X111062000Y-87493116D01*
X111057525Y-87477877D01*
X111056135Y-87476672D01*
X111048452Y-87475001D01*
X110918905Y-87475001D01*
X110912386Y-87475338D01*
X110816794Y-87485257D01*
X110803400Y-87488149D01*
X110649216Y-87539588D01*
X110636038Y-87545761D01*
X110498193Y-87631063D01*
X110486792Y-87640099D01*
X110372261Y-87754829D01*
X110363249Y-87766240D01*
X110278184Y-87904243D01*
X110272037Y-87917424D01*
X110220862Y-88071710D01*
X110217995Y-88085086D01*
X110208328Y-88179438D01*
X110208000Y-88185855D01*
X110208000Y-88585885D01*
X109243500Y-88585885D01*
X109243500Y-86593500D01*
X109263502Y-86525379D01*
X109317158Y-86478886D01*
X109369500Y-86467500D01*
X109883134Y-86467500D01*
X109945316Y-86460745D01*
X110081705Y-86409615D01*
X110198261Y-86322261D01*
X110285615Y-86205705D01*
X110336745Y-86069316D01*
X110343500Y-86007134D01*
X110343500Y-85493500D01*
X110363502Y-85425379D01*
X110417158Y-85378886D01*
X110469500Y-85367500D01*
X112611050Y-85367500D01*
X112679171Y-85387502D01*
G37*
G04 #@! TD.AperFunction*
G04 #@! TA.AperFunction,Conductor*
G36*
X106744532Y-83647895D02*
G01*
X106801368Y-83690442D01*
X106826179Y-83756962D01*
X106826500Y-83765951D01*
X106826500Y-86007134D01*
X106833255Y-86069316D01*
X106884385Y-86205705D01*
X106971739Y-86322261D01*
X107088295Y-86409615D01*
X107224684Y-86460745D01*
X107286866Y-86467500D01*
X107800500Y-86467500D01*
X107868621Y-86487502D01*
X107915114Y-86541158D01*
X107926500Y-86593500D01*
X107926500Y-91369050D01*
X107906498Y-91437171D01*
X107889595Y-91458145D01*
X107587145Y-91760595D01*
X107524833Y-91794621D01*
X107498050Y-91797500D01*
X107397056Y-91797500D01*
X107385200Y-91796941D01*
X107385197Y-91796941D01*
X107377463Y-91795212D01*
X107322446Y-91796941D01*
X107306631Y-91797438D01*
X107302673Y-91797500D01*
X107273568Y-91797500D01*
X107269168Y-91798056D01*
X107257336Y-91798988D01*
X107211169Y-91800438D01*
X107190579Y-91806420D01*
X107171218Y-91810430D01*
X107164803Y-91811240D01*
X107157796Y-91812125D01*
X107157795Y-91812125D01*
X107149936Y-91813118D01*
X107142571Y-91816034D01*
X107142567Y-91816035D01*
X107106979Y-91830126D01*
X107095769Y-91833965D01*
X107051400Y-91846855D01*
X107043030Y-91851805D01*
X107033789Y-91857270D01*
X106964972Y-91874729D01*
X106897641Y-91852212D01*
X106853172Y-91796867D01*
X106845684Y-91726267D01*
X106866437Y-91676546D01*
X106924928Y-91593012D01*
X106930414Y-91583511D01*
X107022490Y-91386053D01*
X107026236Y-91375761D01*
X107072394Y-91203497D01*
X107072058Y-91189401D01*
X107064116Y-91186000D01*
X104523033Y-91186000D01*
X104509502Y-91189973D01*
X104508273Y-91198522D01*
X104555764Y-91375761D01*
X104559510Y-91386053D01*
X104651586Y-91583511D01*
X104657069Y-91593007D01*
X104782028Y-91771467D01*
X104789084Y-91779875D01*
X104943125Y-91933916D01*
X104951533Y-91940972D01*
X105129993Y-92065931D01*
X105139489Y-92071414D01*
X105336947Y-92163490D01*
X105347239Y-92167236D01*
X105478669Y-92202452D01*
X105539292Y-92239404D01*
X105570313Y-92303264D01*
X105561885Y-92373759D01*
X105516682Y-92428506D01*
X105467941Y-92448244D01*
X105455965Y-92450356D01*
X105253285Y-92504664D01*
X105242993Y-92508410D01*
X105052828Y-92597086D01*
X105043338Y-92602564D01*
X105001231Y-92632048D01*
X104992857Y-92642524D01*
X104999926Y-92655972D01*
X105951368Y-93607414D01*
X105985394Y-93669726D01*
X105980329Y-93740541D01*
X105951368Y-93785604D01*
X104999204Y-94737768D01*
X104992774Y-94749543D01*
X105002070Y-94761558D01*
X105043334Y-94790451D01*
X105052829Y-94795934D01*
X105173146Y-94852038D01*
X105226431Y-94898955D01*
X105245892Y-94967232D01*
X105225350Y-95035192D01*
X105173146Y-95080428D01*
X105052573Y-95136652D01*
X105052570Y-95136654D01*
X105047592Y-95138975D01*
X104866633Y-95265683D01*
X104710427Y-95421889D01*
X104583719Y-95602848D01*
X104581398Y-95607826D01*
X104581396Y-95607829D01*
X104525448Y-95727810D01*
X104478531Y-95781095D01*
X104410253Y-95800556D01*
X104342293Y-95780014D01*
X104297058Y-95727810D01*
X104241110Y-95607829D01*
X104241108Y-95607826D01*
X104238787Y-95602848D01*
X104112079Y-95421889D01*
X103955873Y-95265683D01*
X103951365Y-95262526D01*
X103951362Y-95262524D01*
X103779424Y-95142132D01*
X103779421Y-95142130D01*
X103774915Y-95138975D01*
X103769933Y-95136652D01*
X103769928Y-95136649D01*
X103649952Y-95080704D01*
X103596667Y-95033787D01*
X103577206Y-94965510D01*
X103597748Y-94897550D01*
X103649952Y-94852314D01*
X103769928Y-94796369D01*
X103769933Y-94796366D01*
X103774915Y-94794043D01*
X103815683Y-94765497D01*
X103951362Y-94670494D01*
X103951365Y-94670492D01*
X103955873Y-94667335D01*
X104112079Y-94511129D01*
X104238787Y-94330170D01*
X104297334Y-94204616D01*
X104344251Y-94151331D01*
X104412529Y-94131870D01*
X104480489Y-94152412D01*
X104525724Y-94204616D01*
X104581829Y-94324934D01*
X104587308Y-94334424D01*
X104616792Y-94376531D01*
X104627268Y-94384905D01*
X104640716Y-94377836D01*
X105309231Y-93709321D01*
X105316845Y-93695377D01*
X105316714Y-93693544D01*
X105312463Y-93686929D01*
X104639994Y-93014460D01*
X104628220Y-93008030D01*
X104616204Y-93017326D01*
X104587308Y-93058594D01*
X104581829Y-93068084D01*
X104525724Y-93188402D01*
X104478807Y-93241687D01*
X104410529Y-93261148D01*
X104342569Y-93240606D01*
X104297334Y-93188402D01*
X104241110Y-93067829D01*
X104241108Y-93067826D01*
X104238787Y-93062848D01*
X104112079Y-92881889D01*
X103955873Y-92725683D01*
X103951365Y-92722526D01*
X103951362Y-92722524D01*
X103779424Y-92602132D01*
X103779421Y-92602130D01*
X103774915Y-92598975D01*
X103769933Y-92596652D01*
X103769928Y-92596649D01*
X103579685Y-92507938D01*
X103579684Y-92507938D01*
X103574703Y-92505615D01*
X103524574Y-92492183D01*
X103463952Y-92455231D01*
X103432930Y-92391370D01*
X103441359Y-92320876D01*
X103465336Y-92284223D01*
X103468619Y-92280727D01*
X103471374Y-92277885D01*
X103491926Y-92257333D01*
X103494638Y-92253837D01*
X103502349Y-92244808D01*
X103507424Y-92239404D01*
X103533972Y-92211133D01*
X103537794Y-92204181D01*
X103544301Y-92192345D01*
X103555158Y-92175816D01*
X103563447Y-92165131D01*
X103563448Y-92165129D01*
X103568304Y-92158869D01*
X103586657Y-92116456D01*
X103591868Y-92105819D01*
X103614124Y-92065337D01*
X103619457Y-92044566D01*
X103625859Y-92025864D01*
X103634379Y-92006177D01*
X103637889Y-91984018D01*
X103641605Y-91960552D01*
X103644013Y-91948926D01*
X103653529Y-91911865D01*
X103653529Y-91911864D01*
X103655500Y-91904188D01*
X103655500Y-91882742D01*
X103657051Y-91863031D01*
X103657964Y-91857270D01*
X103660406Y-91841849D01*
X103656059Y-91795864D01*
X103655500Y-91784006D01*
X103655500Y-91510950D01*
X103675502Y-91442829D01*
X103692405Y-91421855D01*
X104400432Y-90713828D01*
X104462744Y-90679802D01*
X104497108Y-90683103D01*
X104497452Y-90677332D01*
X104508666Y-90678000D01*
X107058967Y-90678000D01*
X107072498Y-90674027D01*
X107073727Y-90665478D01*
X107026236Y-90488239D01*
X107022490Y-90477947D01*
X106930414Y-90280489D01*
X106924931Y-90270993D01*
X106799972Y-90092533D01*
X106792916Y-90084125D01*
X106638875Y-89930084D01*
X106630467Y-89923028D01*
X106452007Y-89798069D01*
X106442511Y-89792586D01*
X106407951Y-89776471D01*
X106354666Y-89729554D01*
X106335205Y-89661277D01*
X106355747Y-89593317D01*
X106407951Y-89548081D01*
X106442762Y-89531849D01*
X106442767Y-89531846D01*
X106447749Y-89529523D01*
X106552611Y-89456098D01*
X106630789Y-89401357D01*
X106630792Y-89401355D01*
X106635300Y-89398198D01*
X106797198Y-89236300D01*
X106832527Y-89185846D01*
X106874715Y-89125594D01*
X106928523Y-89048749D01*
X106930846Y-89043767D01*
X106930849Y-89043762D01*
X107022961Y-88846225D01*
X107022961Y-88846224D01*
X107025284Y-88841243D01*
X107042401Y-88777364D01*
X107083119Y-88625402D01*
X107083119Y-88625400D01*
X107084543Y-88620087D01*
X107104498Y-88392000D01*
X107084543Y-88163913D01*
X107083119Y-88158598D01*
X107026707Y-87948067D01*
X107026706Y-87948065D01*
X107025284Y-87942757D01*
X107013471Y-87917424D01*
X106930849Y-87740238D01*
X106930846Y-87740233D01*
X106928523Y-87735251D01*
X106830156Y-87594769D01*
X106800357Y-87552211D01*
X106800355Y-87552208D01*
X106797198Y-87547700D01*
X106635300Y-87385802D01*
X106630792Y-87382645D01*
X106630789Y-87382643D01*
X106519480Y-87304704D01*
X106503228Y-87293324D01*
X106458901Y-87237868D01*
X106449500Y-87190112D01*
X106449500Y-86964983D01*
X106455907Y-86925316D01*
X106482696Y-86844550D01*
X106509974Y-86762309D01*
X106511237Y-86749988D01*
X106518704Y-86677098D01*
X106520500Y-86659572D01*
X106520500Y-86060428D01*
X106517292Y-86029507D01*
X106510419Y-85963265D01*
X106510418Y-85963261D01*
X106509707Y-85956407D01*
X106504141Y-85939722D01*
X106456972Y-85798341D01*
X106454654Y-85791393D01*
X106363116Y-85643469D01*
X106348597Y-85628975D01*
X106256214Y-85536753D01*
X106222135Y-85474470D01*
X106227138Y-85403650D01*
X106256059Y-85358563D01*
X106358754Y-85255688D01*
X106358758Y-85255683D01*
X106363929Y-85250503D01*
X106381282Y-85222351D01*
X106451369Y-85108650D01*
X106451370Y-85108648D01*
X106455209Y-85102420D01*
X106509974Y-84937309D01*
X106520500Y-84834572D01*
X106520500Y-84235428D01*
X106509707Y-84131407D01*
X106495075Y-84087548D01*
X106456969Y-83973333D01*
X106454654Y-83966393D01*
X106450804Y-83960171D01*
X106449153Y-83956647D01*
X106438369Y-83886474D01*
X106467235Y-83821610D01*
X106474159Y-83814102D01*
X106611405Y-83676856D01*
X106673717Y-83642830D01*
X106744532Y-83647895D01*
G37*
G04 #@! TD.AperFunction*
G04 #@! TA.AperFunction,Conductor*
G36*
X97109453Y-91698466D02*
G01*
X97117603Y-91708893D01*
X97159872Y-91769259D01*
X97164802Y-91776300D01*
X97326700Y-91938198D01*
X97331208Y-91941355D01*
X97331211Y-91941357D01*
X97399917Y-91989465D01*
X97514251Y-92069523D01*
X97519233Y-92071846D01*
X97519238Y-92071849D01*
X97701967Y-92157056D01*
X97721757Y-92166284D01*
X97727065Y-92167706D01*
X97727067Y-92167707D01*
X97856356Y-92202350D01*
X97916979Y-92239302D01*
X97948000Y-92303163D01*
X97939572Y-92373657D01*
X97894369Y-92428404D01*
X97845915Y-92448025D01*
X97841185Y-92448439D01*
X97835877Y-92449861D01*
X97835873Y-92449862D01*
X97633113Y-92504192D01*
X97633111Y-92504193D01*
X97627803Y-92505615D01*
X97622822Y-92507937D01*
X97622821Y-92507938D01*
X97432573Y-92596652D01*
X97432570Y-92596654D01*
X97427592Y-92598975D01*
X97246633Y-92725683D01*
X97090427Y-92881889D01*
X96963719Y-93062848D01*
X96961398Y-93067826D01*
X96961396Y-93067829D01*
X96905172Y-93188402D01*
X96858255Y-93241687D01*
X96789977Y-93261148D01*
X96722017Y-93240606D01*
X96676782Y-93188402D01*
X96620677Y-93068084D01*
X96615198Y-93058594D01*
X96585714Y-93016487D01*
X96575238Y-93008113D01*
X96561790Y-93015182D01*
X95610348Y-93966624D01*
X95548036Y-94000650D01*
X95477221Y-93995585D01*
X95432158Y-93966624D01*
X95251138Y-93785604D01*
X95217112Y-93723292D01*
X95222177Y-93652477D01*
X95251138Y-93607414D01*
X96203302Y-92655250D01*
X96209732Y-92643475D01*
X96188939Y-92616599D01*
X96156973Y-92576606D01*
X96149665Y-92505987D01*
X96184477Y-92439758D01*
X96802800Y-91821434D01*
X96814323Y-91811240D01*
X96832991Y-91796655D01*
X96832992Y-91796655D01*
X96837847Y-91792861D01*
X96875687Y-91749023D01*
X96881959Y-91742275D01*
X96887309Y-91736925D01*
X96909558Y-91709838D01*
X96911509Y-91707522D01*
X96911997Y-91706957D01*
X96919007Y-91698835D01*
X96978656Y-91660337D01*
X97049653Y-91660199D01*
X97109453Y-91698466D01*
G37*
G04 #@! TD.AperFunction*
G04 #@! TA.AperFunction,Conductor*
G36*
X100121621Y-90698002D02*
G01*
X100168114Y-90751658D01*
X100179500Y-90804000D01*
X100179500Y-91896885D01*
X100183975Y-91912124D01*
X100185365Y-91913329D01*
X100193048Y-91915000D01*
X100221766Y-91915000D01*
X100228282Y-91914663D01*
X100322132Y-91904925D01*
X100335528Y-91902032D01*
X100486953Y-91851512D01*
X100500115Y-91845347D01*
X100635492Y-91761574D01*
X100646890Y-91752540D01*
X100748393Y-91650860D01*
X100810676Y-91616781D01*
X100881496Y-91621784D01*
X100926583Y-91650704D01*
X101034997Y-91758929D01*
X101041227Y-91762769D01*
X101041228Y-91762770D01*
X101176106Y-91845910D01*
X101183080Y-91850209D01*
X101190025Y-91852513D01*
X101190026Y-91852513D01*
X101239473Y-91868914D01*
X101297833Y-91909346D01*
X101325069Y-91974910D01*
X101312535Y-92044791D01*
X101288900Y-92077602D01*
X100949059Y-92417443D01*
X100886747Y-92451469D01*
X100832166Y-92450170D01*
X100832052Y-92450818D01*
X100827789Y-92450066D01*
X100827358Y-92450056D01*
X100826641Y-92449864D01*
X100826636Y-92449863D01*
X100821321Y-92448439D01*
X100601253Y-92429186D01*
X100381185Y-92448439D01*
X100254535Y-92482375D01*
X100173113Y-92504192D01*
X100173111Y-92504193D01*
X100167803Y-92505615D01*
X100162822Y-92507937D01*
X100162821Y-92507938D01*
X99972573Y-92596652D01*
X99972570Y-92596654D01*
X99967592Y-92598975D01*
X99786633Y-92725683D01*
X99630427Y-92881889D01*
X99503719Y-93062848D01*
X99501398Y-93067826D01*
X99501396Y-93067829D01*
X99445448Y-93187810D01*
X99398531Y-93241095D01*
X99330253Y-93260556D01*
X99262293Y-93240014D01*
X99217058Y-93187810D01*
X99161110Y-93067829D01*
X99161108Y-93067826D01*
X99158787Y-93062848D01*
X99032079Y-92881889D01*
X98875873Y-92725683D01*
X98871365Y-92722526D01*
X98871362Y-92722524D01*
X98699424Y-92602132D01*
X98699421Y-92602130D01*
X98694915Y-92598975D01*
X98689933Y-92596652D01*
X98689928Y-92596649D01*
X98499685Y-92507938D01*
X98499684Y-92507938D01*
X98494703Y-92505615D01*
X98489395Y-92504193D01*
X98489393Y-92504192D01*
X98455610Y-92495140D01*
X98373438Y-92473122D01*
X98312817Y-92436171D01*
X98281796Y-92372311D01*
X98290224Y-92301816D01*
X98335427Y-92247069D01*
X98388413Y-92228255D01*
X98388188Y-92226978D01*
X98393607Y-92226022D01*
X98399087Y-92225543D01*
X98404400Y-92224119D01*
X98404402Y-92224119D01*
X98614933Y-92167707D01*
X98614935Y-92167706D01*
X98620243Y-92166284D01*
X98640033Y-92157056D01*
X98822762Y-92071849D01*
X98822767Y-92071846D01*
X98827749Y-92069523D01*
X98942083Y-91989465D01*
X99010789Y-91941357D01*
X99010792Y-91941355D01*
X99015300Y-91938198D01*
X99130389Y-91823109D01*
X99192701Y-91789083D01*
X99263516Y-91794148D01*
X99285599Y-91804944D01*
X99352059Y-91845910D01*
X99365241Y-91852056D01*
X99516766Y-91902315D01*
X99530132Y-91905181D01*
X99622770Y-91914672D01*
X99629185Y-91915000D01*
X99653385Y-91915000D01*
X99668624Y-91910525D01*
X99669829Y-91909135D01*
X99671500Y-91901452D01*
X99671500Y-90804000D01*
X99691502Y-90735879D01*
X99745158Y-90689386D01*
X99797500Y-90678000D01*
X100053500Y-90678000D01*
X100121621Y-90698002D01*
G37*
G04 #@! TD.AperFunction*
G04 #@! TA.AperFunction,Conductor*
G36*
X117695285Y-52015402D02*
G01*
X117716259Y-52032305D01*
X118368441Y-52684487D01*
X118382385Y-52692101D01*
X118384218Y-52691970D01*
X118390833Y-52687719D01*
X119046247Y-52032305D01*
X119108559Y-51998279D01*
X119135342Y-51995400D01*
X119557484Y-51995400D01*
X119625605Y-52015402D01*
X119672098Y-52069058D01*
X119682202Y-52139332D01*
X119675466Y-52165629D01*
X119668282Y-52184791D01*
X119668280Y-52184797D01*
X119665508Y-52192193D01*
X119658753Y-52254375D01*
X119658753Y-52284754D01*
X119638751Y-52352875D01*
X119585095Y-52399368D01*
X119514821Y-52409472D01*
X119454081Y-52383175D01*
X119435238Y-52368113D01*
X119421790Y-52375182D01*
X118753275Y-53043697D01*
X118745661Y-53057641D01*
X118745792Y-53059474D01*
X118750043Y-53066089D01*
X119422512Y-53738558D01*
X119434287Y-53744988D01*
X119455654Y-53728458D01*
X119521772Y-53702595D01*
X119591377Y-53716585D01*
X119642369Y-53765984D01*
X119658753Y-53828116D01*
X119658753Y-53858643D01*
X119665508Y-53920825D01*
X119716638Y-54057214D01*
X119722024Y-54064400D01*
X119731197Y-54076640D01*
X119756045Y-54143146D01*
X119740992Y-54212529D01*
X119719466Y-54241300D01*
X119091621Y-54869145D01*
X119081478Y-54878247D01*
X119051975Y-54901968D01*
X119048008Y-54906696D01*
X119019709Y-54940421D01*
X119016528Y-54944069D01*
X119014885Y-54945881D01*
X119012691Y-54948075D01*
X118985358Y-54981349D01*
X118984696Y-54982147D01*
X118924846Y-55053474D01*
X118922278Y-55058144D01*
X118918897Y-55062261D01*
X118899528Y-55098384D01*
X118875023Y-55144086D01*
X118874394Y-55145245D01*
X118832538Y-55221381D01*
X118832535Y-55221389D01*
X118829567Y-55226787D01*
X118827955Y-55231869D01*
X118825438Y-55236563D01*
X118798238Y-55325531D01*
X118797918Y-55326559D01*
X118769765Y-55415306D01*
X118769171Y-55420602D01*
X118767613Y-55425698D01*
X118763955Y-55461712D01*
X118758219Y-55518178D01*
X118758086Y-55519427D01*
X118747719Y-55611851D01*
X118748165Y-55617159D01*
X118747626Y-55622462D01*
X118752166Y-55670489D01*
X118756375Y-55715016D01*
X118756492Y-55716331D01*
X118763008Y-55793924D01*
X118764268Y-55808934D01*
X118765738Y-55814060D01*
X118766239Y-55819362D01*
X118774231Y-55846171D01*
X118792792Y-55908433D01*
X118793162Y-55909699D01*
X118816938Y-55992614D01*
X118818783Y-55999050D01*
X118821219Y-56003789D01*
X118822741Y-56008896D01*
X118866145Y-56091221D01*
X118866666Y-56092221D01*
X118909187Y-56174956D01*
X118912496Y-56179131D01*
X118914982Y-56183846D01*
X118973418Y-56256008D01*
X118974242Y-56257037D01*
X118993458Y-56281281D01*
X119032035Y-56329953D01*
X119036097Y-56333410D01*
X119039447Y-56337547D01*
X119044182Y-56341492D01*
X119044186Y-56341496D01*
X119110766Y-56396967D01*
X119111776Y-56397818D01*
X119177954Y-56454140D01*
X119177958Y-56454143D01*
X119182650Y-56458136D01*
X119187305Y-56460738D01*
X119191396Y-56464146D01*
X119273003Y-56508640D01*
X119274158Y-56509278D01*
X119349911Y-56551616D01*
X119349915Y-56551618D01*
X119355294Y-56554624D01*
X119360361Y-56556270D01*
X119365041Y-56558822D01*
X119453841Y-56586650D01*
X119454949Y-56587004D01*
X119543392Y-56615740D01*
X119548680Y-56616371D01*
X119553768Y-56617965D01*
X119559895Y-56618631D01*
X119559897Y-56618631D01*
X119646108Y-56627996D01*
X119647420Y-56628145D01*
X119730043Y-56637997D01*
X119739777Y-56639158D01*
X119745094Y-56638749D01*
X119750388Y-56639324D01*
X119811038Y-56634018D01*
X119842969Y-56631225D01*
X119844282Y-56631117D01*
X119930829Y-56624457D01*
X119930832Y-56624457D01*
X119936972Y-56623984D01*
X119942102Y-56622552D01*
X119947413Y-56622087D01*
X120036706Y-56596144D01*
X120037971Y-56595784D01*
X120121532Y-56572454D01*
X120121533Y-56572454D01*
X120127463Y-56570798D01*
X120132219Y-56568396D01*
X120137336Y-56566909D01*
X120219847Y-56524139D01*
X120221015Y-56523541D01*
X120298493Y-56484405D01*
X120298495Y-56484404D01*
X120303996Y-56481625D01*
X120308195Y-56478344D01*
X120312926Y-56475892D01*
X120385652Y-56417836D01*
X120386684Y-56417022D01*
X120454986Y-56363659D01*
X120454987Y-56363658D01*
X120459847Y-56359861D01*
X120497673Y-56316039D01*
X120503960Y-56309275D01*
X121590637Y-55222598D01*
X121600780Y-55213496D01*
X121625471Y-55193644D01*
X121630278Y-55189779D01*
X121662568Y-55151297D01*
X121665720Y-55147685D01*
X121667376Y-55145859D01*
X121669563Y-55143672D01*
X121671525Y-55141284D01*
X121696829Y-55110479D01*
X121697671Y-55109464D01*
X121706968Y-55098384D01*
X121757407Y-55038273D01*
X121759976Y-55033600D01*
X121763356Y-55029485D01*
X121767970Y-55020881D01*
X121807281Y-54947567D01*
X121807910Y-54946409D01*
X121849718Y-54870359D01*
X121849718Y-54870358D01*
X121852686Y-54864960D01*
X121854297Y-54859882D01*
X121856816Y-54855184D01*
X121884006Y-54766249D01*
X121884389Y-54765019D01*
X121894772Y-54732290D01*
X121912488Y-54676441D01*
X121913081Y-54671150D01*
X121914641Y-54666049D01*
X121924048Y-54573436D01*
X121924168Y-54572316D01*
X121929753Y-54522520D01*
X121929753Y-54518991D01*
X121929808Y-54518008D01*
X121930257Y-54512303D01*
X121934005Y-54475411D01*
X121934005Y-54475408D01*
X121934627Y-54469284D01*
X121930312Y-54423635D01*
X121929753Y-54411778D01*
X121929753Y-54318309D01*
X121949755Y-54250188D01*
X121980188Y-54217483D01*
X122031334Y-54179151D01*
X122038514Y-54173770D01*
X122125868Y-54057214D01*
X122176998Y-53920825D01*
X122183753Y-53858643D01*
X122183753Y-52254375D01*
X122176998Y-52192193D01*
X122174226Y-52184797D01*
X122174224Y-52184791D01*
X122167040Y-52165629D01*
X122161857Y-52094822D01*
X122195778Y-52032453D01*
X122258033Y-51998324D01*
X122285022Y-51995400D01*
X124612764Y-51995400D01*
X124680885Y-52015402D01*
X124727378Y-52069058D01*
X124737482Y-52139332D01*
X124707988Y-52203912D01*
X124702325Y-52210028D01*
X124670796Y-52241889D01*
X124476175Y-52438559D01*
X124473934Y-52441417D01*
X124348267Y-52601687D01*
X124262095Y-52711586D01*
X124260202Y-52714675D01*
X124260200Y-52714678D01*
X124213942Y-52790164D01*
X124080814Y-53007409D01*
X124079289Y-53010694D01*
X124079287Y-53010698D01*
X124040214Y-53094874D01*
X123934736Y-53322108D01*
X123825796Y-53651511D01*
X123825060Y-53655066D01*
X123825059Y-53655069D01*
X123770024Y-53920825D01*
X123755439Y-53991252D01*
X123739150Y-54173770D01*
X123725845Y-54322851D01*
X123724597Y-54336829D01*
X123724692Y-54340459D01*
X123724692Y-54340460D01*
X123727076Y-54431488D01*
X123733679Y-54683659D01*
X123782565Y-55027148D01*
X123870606Y-55362741D01*
X123996636Y-55685991D01*
X123998333Y-55689196D01*
X124147334Y-55970610D01*
X124158984Y-55992614D01*
X124161034Y-55995597D01*
X124161036Y-55995600D01*
X124353442Y-56275552D01*
X124353448Y-56275559D01*
X124355499Y-56278544D01*
X124458806Y-56396967D01*
X124578842Y-56534567D01*
X124583575Y-56539993D01*
X124728291Y-56671674D01*
X124840190Y-56773494D01*
X124839026Y-56774774D01*
X124875453Y-56827562D01*
X124877783Y-56898521D01*
X124841380Y-56959474D01*
X124777802Y-56991071D01*
X124755787Y-56993009D01*
X115849876Y-56993009D01*
X115849106Y-56993007D01*
X115848290Y-56993002D01*
X115771532Y-56992533D01*
X115754125Y-56997508D01*
X115683130Y-56996996D01*
X115623683Y-56958182D01*
X115594656Y-56893390D01*
X115593500Y-56876359D01*
X115593500Y-56839951D01*
X115613502Y-56771830D01*
X115630404Y-56750856D01*
X116248857Y-56132402D01*
X116257638Y-56124412D01*
X116257640Y-56124411D01*
X116264333Y-56120163D01*
X116270198Y-56113918D01*
X116312872Y-56068474D01*
X116315627Y-56065632D01*
X116336179Y-56045080D01*
X116338891Y-56041584D01*
X116346602Y-56032555D01*
X116372797Y-56004660D01*
X116378225Y-55998880D01*
X116382047Y-55991928D01*
X116388554Y-55980092D01*
X116399411Y-55963563D01*
X116407700Y-55952878D01*
X116407701Y-55952876D01*
X116412557Y-55946616D01*
X116430910Y-55904203D01*
X116436121Y-55893566D01*
X116458377Y-55853084D01*
X116463710Y-55832313D01*
X116470112Y-55813611D01*
X116478632Y-55793924D01*
X116485858Y-55748299D01*
X116488266Y-55736673D01*
X116497782Y-55699612D01*
X116497782Y-55699611D01*
X116499753Y-55691935D01*
X116499753Y-55670489D01*
X116501304Y-55650778D01*
X116503419Y-55637424D01*
X116504659Y-55629596D01*
X116500312Y-55583607D01*
X116499753Y-55571752D01*
X116499753Y-54202242D01*
X116519755Y-54134121D01*
X116543378Y-54109543D01*
X117692774Y-54109543D01*
X117702070Y-54121558D01*
X117743334Y-54150451D01*
X117752829Y-54155934D01*
X117942993Y-54244608D01*
X117953285Y-54248354D01*
X118155957Y-54302660D01*
X118166752Y-54304563D01*
X118375778Y-54322851D01*
X118386728Y-54322851D01*
X118595754Y-54304563D01*
X118606549Y-54302660D01*
X118809221Y-54248354D01*
X118819513Y-54244608D01*
X119009677Y-54155934D01*
X119019172Y-54150451D01*
X119061274Y-54120971D01*
X119069649Y-54110494D01*
X119062581Y-54097047D01*
X118394065Y-53428531D01*
X118380121Y-53420917D01*
X118378288Y-53421048D01*
X118371673Y-53425299D01*
X117699204Y-54097768D01*
X117692774Y-54109543D01*
X116543378Y-54109543D01*
X116553483Y-54099029D01*
X116585458Y-54076640D01*
X116655873Y-54027335D01*
X116812079Y-53871129D01*
X116938787Y-53690170D01*
X116958421Y-53648066D01*
X116997334Y-53564616D01*
X117044251Y-53511331D01*
X117112529Y-53491870D01*
X117180489Y-53512412D01*
X117225724Y-53564616D01*
X117281829Y-53684934D01*
X117287308Y-53694424D01*
X117316792Y-53736531D01*
X117327268Y-53744905D01*
X117340716Y-53737836D01*
X118009231Y-53069321D01*
X118016845Y-53055377D01*
X118016714Y-53053544D01*
X118012463Y-53046929D01*
X117339994Y-52374460D01*
X117328220Y-52368030D01*
X117316204Y-52377326D01*
X117287308Y-52418594D01*
X117281829Y-52428084D01*
X117225724Y-52548402D01*
X117178807Y-52601687D01*
X117110529Y-52621148D01*
X117042569Y-52600606D01*
X116997334Y-52548402D01*
X116941110Y-52427829D01*
X116941108Y-52427826D01*
X116938787Y-52422848D01*
X116812079Y-52241889D01*
X116780685Y-52210495D01*
X116746659Y-52148183D01*
X116751724Y-52077368D01*
X116794271Y-52020532D01*
X116860791Y-51995721D01*
X116869780Y-51995400D01*
X117627164Y-51995400D01*
X117695285Y-52015402D01*
G37*
G04 #@! TD.AperFunction*
M02*
