G04 #@! TF.GenerationSoftware,KiCad,Pcbnew,6.0.5*
G04 #@! TF.CreationDate,2022-09-29T12:45:26+03:00*
G04 #@! TF.ProjectId,opi-hat,6f70692d-6861-4742-9e6b-696361645f70,rev?*
G04 #@! TF.SameCoordinates,Original*
G04 #@! TF.FileFunction,Legend,Bot*
G04 #@! TF.FilePolarity,Positive*
%FSLAX46Y46*%
G04 Gerber Fmt 4.6, Leading zero omitted, Abs format (unit mm)*
G04 Created by KiCad (PCBNEW 6.0.5) date 2022-09-29 12:45:26*
%MOMM*%
%LPD*%
G01*
G04 APERTURE LIST*
%ADD10C,0.150000*%
%ADD11C,0.127000*%
G04 #@! TA.AperFunction,Profile*
%ADD12C,0.127000*%
G04 #@! TD*
%ADD13C,0.120000*%
G04 APERTURE END LIST*
D10*
X83859666Y-84177142D02*
X83907285Y-84224761D01*
X84050142Y-84272380D01*
X84145380Y-84272380D01*
X84288238Y-84224761D01*
X84383476Y-84129523D01*
X84431095Y-84034285D01*
X84478714Y-83843809D01*
X84478714Y-83700952D01*
X84431095Y-83510476D01*
X84383476Y-83415238D01*
X84288238Y-83320000D01*
X84145380Y-83272380D01*
X84050142Y-83272380D01*
X83907285Y-83320000D01*
X83859666Y-83367619D01*
X82907285Y-84272380D02*
X83478714Y-84272380D01*
X83193000Y-84272380D02*
X83193000Y-83272380D01*
X83288238Y-83415238D01*
X83383476Y-83510476D01*
X83478714Y-83558095D01*
X102477866Y-78684380D02*
X102811200Y-78208190D01*
X103049295Y-78684380D02*
X103049295Y-77684380D01*
X102668342Y-77684380D01*
X102573104Y-77732000D01*
X102525485Y-77779619D01*
X102477866Y-77874857D01*
X102477866Y-78017714D01*
X102525485Y-78112952D01*
X102573104Y-78160571D01*
X102668342Y-78208190D01*
X103049295Y-78208190D01*
X101620723Y-78017714D02*
X101620723Y-78684380D01*
X101858819Y-77636761D02*
X102096914Y-78351047D01*
X101477866Y-78351047D01*
X100202904Y-70699380D02*
X100202904Y-71508904D01*
X100155285Y-71604142D01*
X100107666Y-71651761D01*
X100012428Y-71699380D01*
X99821952Y-71699380D01*
X99726714Y-71651761D01*
X99679095Y-71604142D01*
X99631476Y-71508904D01*
X99631476Y-70699380D01*
X98726714Y-71032714D02*
X98726714Y-71699380D01*
X98964809Y-70651761D02*
X99202904Y-71366047D01*
X98583857Y-71366047D01*
X94472357Y-62174380D02*
X94805690Y-61698190D01*
X95043785Y-62174380D02*
X95043785Y-61174380D01*
X94662833Y-61174380D01*
X94567595Y-61222000D01*
X94519976Y-61269619D01*
X94472357Y-61364857D01*
X94472357Y-61507714D01*
X94519976Y-61602952D01*
X94567595Y-61650571D01*
X94662833Y-61698190D01*
X95043785Y-61698190D01*
X93519976Y-62174380D02*
X94091404Y-62174380D01*
X93805690Y-62174380D02*
X93805690Y-61174380D01*
X93900928Y-61317238D01*
X93996166Y-61412476D01*
X94091404Y-61460095D01*
X92567595Y-62174380D02*
X93139023Y-62174380D01*
X92853309Y-62174380D02*
X92853309Y-61174380D01*
X92948547Y-61317238D01*
X93043785Y-61412476D01*
X93139023Y-61460095D01*
X113704666Y-79859142D02*
X113752285Y-79906761D01*
X113895142Y-79954380D01*
X113990380Y-79954380D01*
X114133238Y-79906761D01*
X114228476Y-79811523D01*
X114276095Y-79716285D01*
X114323714Y-79525809D01*
X114323714Y-79382952D01*
X114276095Y-79192476D01*
X114228476Y-79097238D01*
X114133238Y-79002000D01*
X113990380Y-78954380D01*
X113895142Y-78954380D01*
X113752285Y-79002000D01*
X113704666Y-79049619D01*
X112847523Y-79287714D02*
X112847523Y-79954380D01*
X113085619Y-78906761D02*
X113323714Y-79621047D01*
X112704666Y-79621047D01*
X93892666Y-76652380D02*
X94226000Y-76176190D01*
X94464095Y-76652380D02*
X94464095Y-75652380D01*
X94083142Y-75652380D01*
X93987904Y-75700000D01*
X93940285Y-75747619D01*
X93892666Y-75842857D01*
X93892666Y-75985714D01*
X93940285Y-76080952D01*
X93987904Y-76128571D01*
X94083142Y-76176190D01*
X94464095Y-76176190D01*
X93416476Y-76652380D02*
X93226000Y-76652380D01*
X93130761Y-76604761D01*
X93083142Y-76557142D01*
X92987904Y-76414285D01*
X92940285Y-76223809D01*
X92940285Y-75842857D01*
X92987904Y-75747619D01*
X93035523Y-75700000D01*
X93130761Y-75652380D01*
X93321238Y-75652380D01*
X93416476Y-75700000D01*
X93464095Y-75747619D01*
X93511714Y-75842857D01*
X93511714Y-76080952D01*
X93464095Y-76176190D01*
X93416476Y-76223809D01*
X93321238Y-76271428D01*
X93130761Y-76271428D01*
X93035523Y-76223809D01*
X92987904Y-76176190D01*
X92940285Y-76080952D01*
X94495857Y-66525380D02*
X94829190Y-66049190D01*
X95067285Y-66525380D02*
X95067285Y-65525380D01*
X94686333Y-65525380D01*
X94591095Y-65573000D01*
X94543476Y-65620619D01*
X94495857Y-65715857D01*
X94495857Y-65858714D01*
X94543476Y-65953952D01*
X94591095Y-66001571D01*
X94686333Y-66049190D01*
X95067285Y-66049190D01*
X93543476Y-66525380D02*
X94114904Y-66525380D01*
X93829190Y-66525380D02*
X93829190Y-65525380D01*
X93924428Y-65668238D01*
X94019666Y-65763476D01*
X94114904Y-65811095D01*
X92924428Y-65525380D02*
X92829190Y-65525380D01*
X92733952Y-65573000D01*
X92686333Y-65620619D01*
X92638714Y-65715857D01*
X92591095Y-65906333D01*
X92591095Y-66144428D01*
X92638714Y-66334904D01*
X92686333Y-66430142D01*
X92733952Y-66477761D01*
X92829190Y-66525380D01*
X92924428Y-66525380D01*
X93019666Y-66477761D01*
X93067285Y-66430142D01*
X93114904Y-66334904D01*
X93162523Y-66144428D01*
X93162523Y-65906333D01*
X93114904Y-65715857D01*
X93067285Y-65620619D01*
X93019666Y-65573000D01*
X92924428Y-65525380D01*
X103671666Y-91384380D02*
X104005000Y-90908190D01*
X104243095Y-91384380D02*
X104243095Y-90384380D01*
X103862142Y-90384380D01*
X103766904Y-90432000D01*
X103719285Y-90479619D01*
X103671666Y-90574857D01*
X103671666Y-90717714D01*
X103719285Y-90812952D01*
X103766904Y-90860571D01*
X103862142Y-90908190D01*
X104243095Y-90908190D01*
X103338333Y-90384380D02*
X102719285Y-90384380D01*
X103052619Y-90765333D01*
X102909761Y-90765333D01*
X102814523Y-90812952D01*
X102766904Y-90860571D01*
X102719285Y-90955809D01*
X102719285Y-91193904D01*
X102766904Y-91289142D01*
X102814523Y-91336761D01*
X102909761Y-91384380D01*
X103195476Y-91384380D01*
X103290714Y-91336761D01*
X103338333Y-91289142D01*
X89868333Y-56094380D02*
X89868333Y-56808666D01*
X89915952Y-56951523D01*
X90011190Y-57046761D01*
X90154047Y-57094380D01*
X90249285Y-57094380D01*
X88963571Y-56094380D02*
X89154047Y-56094380D01*
X89249285Y-56142000D01*
X89296904Y-56189619D01*
X89392142Y-56332476D01*
X89439761Y-56522952D01*
X89439761Y-56903904D01*
X89392142Y-56999142D01*
X89344523Y-57046761D01*
X89249285Y-57094380D01*
X89058809Y-57094380D01*
X88963571Y-57046761D01*
X88915952Y-56999142D01*
X88868333Y-56903904D01*
X88868333Y-56665809D01*
X88915952Y-56570571D01*
X88963571Y-56522952D01*
X89058809Y-56475333D01*
X89249285Y-56475333D01*
X89344523Y-56522952D01*
X89392142Y-56570571D01*
X89439761Y-56665809D01*
X93130666Y-70556380D02*
X93464000Y-70080190D01*
X93702095Y-70556380D02*
X93702095Y-69556380D01*
X93321142Y-69556380D01*
X93225904Y-69604000D01*
X93178285Y-69651619D01*
X93130666Y-69746857D01*
X93130666Y-69889714D01*
X93178285Y-69984952D01*
X93225904Y-70032571D01*
X93321142Y-70080190D01*
X93702095Y-70080190D01*
X92273523Y-69556380D02*
X92464000Y-69556380D01*
X92559238Y-69604000D01*
X92606857Y-69651619D01*
X92702095Y-69794476D01*
X92749714Y-69984952D01*
X92749714Y-70365904D01*
X92702095Y-70461142D01*
X92654476Y-70508761D01*
X92559238Y-70556380D01*
X92368761Y-70556380D01*
X92273523Y-70508761D01*
X92225904Y-70461142D01*
X92178285Y-70365904D01*
X92178285Y-70127809D01*
X92225904Y-70032571D01*
X92273523Y-69984952D01*
X92368761Y-69937333D01*
X92559238Y-69937333D01*
X92654476Y-69984952D01*
X92702095Y-70032571D01*
X92749714Y-70127809D01*
X99965166Y-81732380D02*
X100298500Y-81256190D01*
X100536595Y-81732380D02*
X100536595Y-80732380D01*
X100155642Y-80732380D01*
X100060404Y-80780000D01*
X100012785Y-80827619D01*
X99965166Y-80922857D01*
X99965166Y-81065714D01*
X100012785Y-81160952D01*
X100060404Y-81208571D01*
X100155642Y-81256190D01*
X100536595Y-81256190D01*
X99012785Y-81732380D02*
X99584214Y-81732380D01*
X99298500Y-81732380D02*
X99298500Y-80732380D01*
X99393738Y-80875238D01*
X99488976Y-80970476D01*
X99584214Y-81018095D01*
X91352666Y-76144380D02*
X91686000Y-75668190D01*
X91924095Y-76144380D02*
X91924095Y-75144380D01*
X91543142Y-75144380D01*
X91447904Y-75192000D01*
X91400285Y-75239619D01*
X91352666Y-75334857D01*
X91352666Y-75477714D01*
X91400285Y-75572952D01*
X91447904Y-75620571D01*
X91543142Y-75668190D01*
X91924095Y-75668190D01*
X91019333Y-75144380D02*
X90352666Y-75144380D01*
X90781238Y-76144380D01*
X99694904Y-66000380D02*
X99694904Y-66809904D01*
X99647285Y-66905142D01*
X99599666Y-66952761D01*
X99504428Y-67000380D01*
X99313952Y-67000380D01*
X99218714Y-66952761D01*
X99171095Y-66905142D01*
X99123476Y-66809904D01*
X99123476Y-66000380D01*
X98171095Y-66000380D02*
X98647285Y-66000380D01*
X98694904Y-66476571D01*
X98647285Y-66428952D01*
X98552047Y-66381333D01*
X98313952Y-66381333D01*
X98218714Y-66428952D01*
X98171095Y-66476571D01*
X98123476Y-66571809D01*
X98123476Y-66809904D01*
X98171095Y-66905142D01*
X98218714Y-66952761D01*
X98313952Y-67000380D01*
X98552047Y-67000380D01*
X98647285Y-66952761D01*
X98694904Y-66905142D01*
X113831666Y-74652142D02*
X113879285Y-74699761D01*
X114022142Y-74747380D01*
X114117380Y-74747380D01*
X114260238Y-74699761D01*
X114355476Y-74604523D01*
X114403095Y-74509285D01*
X114450714Y-74318809D01*
X114450714Y-74175952D01*
X114403095Y-73985476D01*
X114355476Y-73890238D01*
X114260238Y-73795000D01*
X114117380Y-73747380D01*
X114022142Y-73747380D01*
X113879285Y-73795000D01*
X113831666Y-73842619D01*
X113498333Y-73747380D02*
X112879285Y-73747380D01*
X113212619Y-74128333D01*
X113069761Y-74128333D01*
X112974523Y-74175952D01*
X112926904Y-74223571D01*
X112879285Y-74318809D01*
X112879285Y-74556904D01*
X112926904Y-74652142D01*
X112974523Y-74699761D01*
X113069761Y-74747380D01*
X113355476Y-74747380D01*
X113450714Y-74699761D01*
X113498333Y-74652142D01*
X94273666Y-72334380D02*
X94607000Y-71858190D01*
X94845095Y-72334380D02*
X94845095Y-71334380D01*
X94464142Y-71334380D01*
X94368904Y-71382000D01*
X94321285Y-71429619D01*
X94273666Y-71524857D01*
X94273666Y-71667714D01*
X94321285Y-71762952D01*
X94368904Y-71810571D01*
X94464142Y-71858190D01*
X94845095Y-71858190D01*
X93702238Y-71762952D02*
X93797476Y-71715333D01*
X93845095Y-71667714D01*
X93892714Y-71572476D01*
X93892714Y-71524857D01*
X93845095Y-71429619D01*
X93797476Y-71382000D01*
X93702238Y-71334380D01*
X93511761Y-71334380D01*
X93416523Y-71382000D01*
X93368904Y-71429619D01*
X93321285Y-71524857D01*
X93321285Y-71572476D01*
X93368904Y-71667714D01*
X93416523Y-71715333D01*
X93511761Y-71762952D01*
X93702238Y-71762952D01*
X93797476Y-71810571D01*
X93845095Y-71858190D01*
X93892714Y-71953428D01*
X93892714Y-72143904D01*
X93845095Y-72239142D01*
X93797476Y-72286761D01*
X93702238Y-72334380D01*
X93511761Y-72334380D01*
X93416523Y-72286761D01*
X93368904Y-72239142D01*
X93321285Y-72143904D01*
X93321285Y-71953428D01*
X93368904Y-71858190D01*
X93416523Y-71810571D01*
X93511761Y-71762952D01*
X105703666Y-83486880D02*
X106037000Y-83010690D01*
X106275095Y-83486880D02*
X106275095Y-82486880D01*
X105894142Y-82486880D01*
X105798904Y-82534500D01*
X105751285Y-82582119D01*
X105703666Y-82677357D01*
X105703666Y-82820214D01*
X105751285Y-82915452D01*
X105798904Y-82963071D01*
X105894142Y-83010690D01*
X106275095Y-83010690D01*
X104798904Y-82486880D02*
X105275095Y-82486880D01*
X105322714Y-82963071D01*
X105275095Y-82915452D01*
X105179857Y-82867833D01*
X104941761Y-82867833D01*
X104846523Y-82915452D01*
X104798904Y-82963071D01*
X104751285Y-83058309D01*
X104751285Y-83296404D01*
X104798904Y-83391642D01*
X104846523Y-83439261D01*
X104941761Y-83486880D01*
X105179857Y-83486880D01*
X105275095Y-83439261D01*
X105322714Y-83391642D01*
X88241095Y-86939380D02*
X88241095Y-85939380D01*
X88003000Y-85939380D01*
X87860142Y-85987000D01*
X87764904Y-86082238D01*
X87717285Y-86177476D01*
X87669666Y-86367952D01*
X87669666Y-86510809D01*
X87717285Y-86701285D01*
X87764904Y-86796523D01*
X87860142Y-86891761D01*
X88003000Y-86939380D01*
X88241095Y-86939380D01*
X86812523Y-86272714D02*
X86812523Y-86939380D01*
X87050619Y-85891761D02*
X87288714Y-86606047D01*
X86669666Y-86606047D01*
X83391333Y-80732380D02*
X83391333Y-81446666D01*
X83438952Y-81589523D01*
X83534190Y-81684761D01*
X83677047Y-81732380D01*
X83772285Y-81732380D01*
X82438952Y-80732380D02*
X82915142Y-80732380D01*
X82962761Y-81208571D01*
X82915142Y-81160952D01*
X82819904Y-81113333D01*
X82581809Y-81113333D01*
X82486571Y-81160952D01*
X82438952Y-81208571D01*
X82391333Y-81303809D01*
X82391333Y-81541904D01*
X82438952Y-81637142D01*
X82486571Y-81684761D01*
X82581809Y-81732380D01*
X82819904Y-81732380D01*
X82915142Y-81684761D01*
X82962761Y-81637142D01*
X112371095Y-86304380D02*
X112371095Y-85304380D01*
X112133000Y-85304380D01*
X111990142Y-85352000D01*
X111894904Y-85447238D01*
X111847285Y-85542476D01*
X111799666Y-85732952D01*
X111799666Y-85875809D01*
X111847285Y-86066285D01*
X111894904Y-86161523D01*
X111990142Y-86256761D01*
X112133000Y-86304380D01*
X112371095Y-86304380D01*
X111466333Y-85304380D02*
X110847285Y-85304380D01*
X111180619Y-85685333D01*
X111037761Y-85685333D01*
X110942523Y-85732952D01*
X110894904Y-85780571D01*
X110847285Y-85875809D01*
X110847285Y-86113904D01*
X110894904Y-86209142D01*
X110942523Y-86256761D01*
X111037761Y-86304380D01*
X111323476Y-86304380D01*
X111418714Y-86256761D01*
X111466333Y-86209142D01*
X103417666Y-88971380D02*
X103751000Y-88495190D01*
X103989095Y-88971380D02*
X103989095Y-87971380D01*
X103608142Y-87971380D01*
X103512904Y-88019000D01*
X103465285Y-88066619D01*
X103417666Y-88161857D01*
X103417666Y-88304714D01*
X103465285Y-88399952D01*
X103512904Y-88447571D01*
X103608142Y-88495190D01*
X103989095Y-88495190D01*
X103036714Y-88066619D02*
X102989095Y-88019000D01*
X102893857Y-87971380D01*
X102655761Y-87971380D01*
X102560523Y-88019000D01*
X102512904Y-88066619D01*
X102465285Y-88161857D01*
X102465285Y-88257095D01*
X102512904Y-88399952D01*
X103084333Y-88971380D01*
X102465285Y-88971380D01*
X91162095Y-80843380D02*
X91162095Y-79843380D01*
X90924000Y-79843380D01*
X90781142Y-79891000D01*
X90685904Y-79986238D01*
X90638285Y-80081476D01*
X90590666Y-80271952D01*
X90590666Y-80414809D01*
X90638285Y-80605285D01*
X90685904Y-80700523D01*
X90781142Y-80795761D01*
X90924000Y-80843380D01*
X91162095Y-80843380D01*
X89638285Y-80843380D02*
X90209714Y-80843380D01*
X89924000Y-80843380D02*
X89924000Y-79843380D01*
X90019238Y-79986238D01*
X90114476Y-80081476D01*
X90209714Y-80129095D01*
X97956666Y-86082142D02*
X98004285Y-86129761D01*
X98147142Y-86177380D01*
X98242380Y-86177380D01*
X98385238Y-86129761D01*
X98480476Y-86034523D01*
X98528095Y-85939285D01*
X98575714Y-85748809D01*
X98575714Y-85605952D01*
X98528095Y-85415476D01*
X98480476Y-85320238D01*
X98385238Y-85225000D01*
X98242380Y-85177380D01*
X98147142Y-85177380D01*
X98004285Y-85225000D01*
X97956666Y-85272619D01*
X97575714Y-85272619D02*
X97528095Y-85225000D01*
X97432857Y-85177380D01*
X97194761Y-85177380D01*
X97099523Y-85225000D01*
X97051904Y-85272619D01*
X97004285Y-85367857D01*
X97004285Y-85463095D01*
X97051904Y-85605952D01*
X97623333Y-86177380D01*
X97004285Y-86177380D01*
D11*
X89171253Y-54326509D02*
X122191253Y-54326509D01*
X89171253Y-51786509D02*
X122191253Y-51786509D01*
X89171253Y-92426509D02*
X122191253Y-92426509D01*
X122191253Y-54326509D02*
X122191253Y-51786509D01*
X89171253Y-51786509D02*
X89171253Y-54326509D01*
X122191253Y-92426509D02*
X122191253Y-97506509D01*
X89171253Y-97506509D02*
X122191253Y-97506509D01*
X89171253Y-97506509D02*
X89171253Y-92426509D01*
D12*
X126581299Y-51486900D02*
X84781300Y-51486900D01*
X129681299Y-57501509D02*
X129681299Y-54586900D01*
X81681300Y-54586900D02*
X81681300Y-94386900D01*
X129681299Y-57501509D02*
X115841253Y-57501509D01*
X115841253Y-57501509D02*
X115841253Y-83536509D01*
X115841253Y-83536509D02*
X121683253Y-83536509D01*
X121683253Y-90521509D02*
X129684253Y-90521509D01*
X129684253Y-90521509D02*
X129684253Y-94382309D01*
X84781300Y-97486899D02*
X126581299Y-97486899D01*
X121683253Y-83536509D02*
X121683253Y-90521509D01*
X126581299Y-97486894D02*
G75*
G03*
X129681298Y-94386900I4J3099995D01*
G01*
X81681300Y-94386900D02*
G75*
G03*
X84781300Y-97486900I3100000J0D01*
G01*
X84781300Y-51486900D02*
G75*
G03*
X81681300Y-54586900I0J-3100000D01*
G01*
X129681302Y-54586900D02*
G75*
G03*
X126581299Y-51486900I-3099999J1D01*
G01*
D13*
X84330000Y-86379267D02*
X84330000Y-86086733D01*
X83310000Y-86379267D02*
X83310000Y-86086733D01*
X101106500Y-78000776D02*
X101106500Y-78510224D01*
X100061500Y-78000776D02*
X100061500Y-78510224D01*
X99151000Y-75331000D02*
X96201000Y-75331000D01*
X97351000Y-72111000D02*
X99151000Y-72111000D01*
X93598276Y-63641500D02*
X94107724Y-63641500D01*
X93598276Y-62596500D02*
X94107724Y-62596500D01*
X113684267Y-77468000D02*
X113391733Y-77468000D01*
X113684267Y-78488000D02*
X113391733Y-78488000D01*
X93748776Y-75325500D02*
X94258224Y-75325500D01*
X93748776Y-74280500D02*
X94258224Y-74280500D01*
X93598276Y-65165500D02*
X94107724Y-65165500D01*
X93598276Y-64120500D02*
X94107724Y-64120500D01*
X101092724Y-91454500D02*
X100583276Y-91454500D01*
X101092724Y-90409500D02*
X100583276Y-90409500D01*
X90927000Y-65550000D02*
X90927000Y-64850000D01*
X90337000Y-61450000D02*
X90337000Y-60300000D01*
X82527000Y-67460000D02*
X80867000Y-67460000D01*
X80867000Y-67460000D02*
X80867000Y-59540000D01*
X80867000Y-59540000D02*
X82527000Y-59540000D01*
X90337000Y-65550000D02*
X90927000Y-65550000D01*
X85427000Y-67460000D02*
X88027000Y-67460000D01*
X90337000Y-66700000D02*
X90337000Y-65550000D01*
X88027000Y-59540000D02*
X85427000Y-59540000D01*
X90790500Y-72160224D02*
X90790500Y-71650776D01*
X91835500Y-72160224D02*
X91835500Y-71650776D01*
X97003776Y-80376500D02*
X97513224Y-80376500D01*
X97003776Y-81421500D02*
X97513224Y-81421500D01*
X91073500Y-77699776D02*
X91073500Y-78209224D01*
X90028500Y-77699776D02*
X90028500Y-78209224D01*
X98287000Y-62271000D02*
X100087000Y-62271000D01*
X100087000Y-65491000D02*
X97137000Y-65491000D01*
X113684267Y-76202000D02*
X113391733Y-76202000D01*
X113684267Y-75182000D02*
X113391733Y-75182000D01*
X93701776Y-73801500D02*
X94211224Y-73801500D01*
X93701776Y-72756500D02*
X94211224Y-72756500D01*
X106059500Y-85192776D02*
X106059500Y-85702224D01*
X105014500Y-85192776D02*
X105014500Y-85702224D01*
X92955000Y-90935000D02*
X88655000Y-90935000D01*
X88655000Y-90935000D02*
X88655000Y-83385000D01*
X92955000Y-90935000D02*
X92955000Y-83385000D01*
X86228000Y-79884000D02*
X84228000Y-79884000D01*
X82328000Y-70484000D02*
X80428000Y-70484000D01*
X82328000Y-79884000D02*
X80428000Y-79884000D01*
X86228000Y-70484000D02*
X84228000Y-70484000D01*
X80428000Y-79884000D02*
X80428000Y-70484000D01*
X112740000Y-85598000D02*
X112740000Y-86398000D01*
X115860000Y-85598000D02*
X115860000Y-86398000D01*
X115860000Y-85598000D02*
X115860000Y-84798000D01*
X112740000Y-85598000D02*
X112740000Y-83798000D01*
X101077500Y-87502276D02*
X101077500Y-88011724D01*
X102122500Y-87502276D02*
X102122500Y-88011724D01*
X95392000Y-81114000D02*
X92242000Y-81114000D01*
X95392000Y-79414000D02*
X95392000Y-81114000D01*
X95392000Y-79414000D02*
X92242000Y-79414000D01*
X93286000Y-90158000D02*
X93286000Y-83223000D01*
X96706000Y-90158000D02*
X93286000Y-90158000D01*
X96706000Y-83223000D02*
X96706000Y-90158000D01*
M02*
