M48
; DRILL file {KiCad 8.99.0-unknown} date 2024-03-12T12:42:05+0300
; FORMAT={-:-/ absolute / metric / decimal}
; #@! TF.CreationDate,2024-03-12T12:42:05+03:00
; #@! TF.GenerationSoftware,Kicad,Pcbnew,8.99.0-unknown
; #@! TF.FileFunction,MixedPlating,1,2
FMAT,2
METRIC
; #@! TA.AperFunction,Plated,PTH,ViaDrill
T1C0.600
; #@! TA.AperFunction,Plated,PTH,ComponentDrill
T2C0.600
; #@! TA.AperFunction,Plated,PTH,ComponentDrill
T3C0.750
; #@! TA.AperFunction,Plated,PTH,ComponentDrill
T4C0.800
; #@! TA.AperFunction,Plated,PTH,ComponentDrill
T5C1.000
; #@! TA.AperFunction,Plated,PTH,ComponentDrill
T6C1.200
; #@! TA.AperFunction,Plated,PTH,ComponentDrill
T7C1.300
; #@! TA.AperFunction,NonPlated,NPTH,ComponentDrill
T8C0.650
; #@! TA.AperFunction,NonPlated,NPTH,ComponentDrill
T9C0.900
; #@! TA.AperFunction,NonPlated,NPTH,ComponentDrill
T10C3.000
%
G90
G05
T1
X84.328Y-81.407
X93.345Y-81.661
X94.234Y-94.996
X96.139Y-79.502
X96.139Y-91.059
X96.774Y-94.996
X97.663Y-70.739
X99.568Y-82.931
X105.41Y-80.391
X106.223Y-77.978
X106.299Y-67.437
X107.442Y-90.932
X107.95Y-82.296
X109.601Y-65.151
X109.931Y-75.082
X110.537Y-90.932
X111.252Y-79.883
X113.284Y-91.313
X114.3Y-82.423
X117.221Y-91.313
X118.11Y-85.344
X119.761Y-55.626
T3
X92.885Y-77.766
X94.885Y-77.766
X96.885Y-77.766
X98.885Y-77.766
X99.632Y-84.582
X101.632Y-84.582
X103.632Y-84.582
X111.03Y-57.912
X111.316Y-88.858
X113.03Y-57.912
X113.316Y-88.858
X115.316Y-88.858
X117.316Y-88.858
X119.316Y-88.858
T4
X98.171Y-88.392
X98.171Y-90.932
X105.791Y-88.392
X105.791Y-90.932
T5
X90.441Y-53.057
X90.441Y-93.697
X90.441Y-96.237
X92.981Y-53.057
X92.981Y-93.697
X92.981Y-96.237
X95.521Y-53.057
X95.521Y-93.697
X95.521Y-96.237
X98.061Y-53.057
X98.061Y-93.697
X98.061Y-96.237
X100.601Y-53.057
X100.601Y-93.697
X100.601Y-96.237
X103.141Y-53.057
X103.141Y-93.697
X103.141Y-96.237
X105.681Y-53.057
X105.681Y-93.697
X105.681Y-96.237
X108.221Y-53.057
X108.221Y-93.697
X108.221Y-96.237
X110.761Y-53.057
X110.761Y-93.697
X110.761Y-96.237
X112.395Y-61.421
X112.395Y-71.421
X113.301Y-53.057
X113.301Y-93.697
X113.301Y-96.237
X115.841Y-53.057
X115.841Y-93.697
X115.841Y-96.237
X118.381Y-53.057
X118.381Y-93.697
X118.381Y-96.237
X120.921Y-53.057
X120.921Y-93.697
X120.921Y-96.237
T6
X108.585Y-84.709
T7
X86.563Y-83.82
X86.563Y-88.82
X102.235Y-71.374
X106.045Y-71.374
T8
X86.928Y-72.294
X86.928Y-78.074
T9
X86.877Y-61.3
X86.877Y-65.7
T10
X84.626Y-54.431
X84.626Y-94.542
X126.737Y-54.431
X126.737Y-94.542
T2
G00X82.978Y-70.864
M15
G01X83.578Y-70.864
M16
G05
G00X82.978Y-79.504
M15
G01X83.578Y-79.504
M16
G05
G00X86.908Y-70.864
M15
G01X88.008Y-70.864
M16
G05
G00X86.908Y-79.504
M15
G01X88.008Y-79.504
M16
G05
M30
