%TF.GenerationSoftware,KiCad,Pcbnew,8.99.0-unknown*%
%TF.CreationDate,2024-03-12T12:42:01+03:00*%
%TF.ProjectId,opi-hat,6f70692d-6861-4742-9e6b-696361645f70,rev?*%
%TF.SameCoordinates,Original*%
%TF.FileFunction,Drillmap*%
%TF.FilePolarity,Positive*%
%FSLAX45Y45*%
G04 Gerber Fmt 4.5, Leading zero omitted, Abs format (unit mm)*
G04 Created by KiCad (PCBNEW 8.99.0-unknown) date 2024-03-12 12:42:01*
%MOMM*%
%LPD*%
G01*
G04 APERTURE LIST*
%ADD10C,0.127000*%
%ADD11C,0.200000*%
%ADD12C,0.100000*%
%ADD13C,0.120000*%
%ADD14C,0.130000*%
%ADD15C,0.300000*%
G04 APERTURE END LIST*
D10*
X8168130Y-5458690D02*
X8168130Y-9438690D01*
X8478130Y-9748690D02*
X12658130Y-9748690D01*
X11584125Y-5750151D02*
X11584125Y-8353651D01*
X11584125Y-8353651D02*
X12168325Y-8353651D01*
X12168325Y-8353651D02*
X12168325Y-9052151D01*
X12168325Y-9052151D02*
X12968425Y-9052151D01*
X12658130Y-5148690D02*
X8478130Y-5148690D01*
X12968130Y-5750151D02*
X11584125Y-5750151D01*
X12968130Y-5750151D02*
X12968130Y-5458690D01*
X12968425Y-9052151D02*
X12968425Y-9438231D01*
X8168130Y-5458690D02*
G75*
G02*
X8478130Y-5148690I310000J0D01*
G01*
X8478130Y-9748690D02*
G75*
G02*
X8168130Y-9438690I0J310000D01*
G01*
X12658130Y-5148690D02*
G75*
G02*
X12968130Y-5458690I0J-310000D01*
G01*
X12968130Y-9438690D02*
G75*
G02*
X12658130Y-9748689I-310000J0D01*
G01*
D11*
D12*
X8402800Y-8110700D02*
X8462800Y-8170700D01*
X8462800Y-8110700D02*
X8402800Y-8170700D01*
X9304500Y-8136100D02*
X9364500Y-8196100D01*
X9364500Y-8136100D02*
X9304500Y-8196100D01*
X9393400Y-9469600D02*
X9453400Y-9529600D01*
X9453400Y-9469600D02*
X9393400Y-9529600D01*
X9583900Y-7920200D02*
X9643900Y-7980200D01*
X9643900Y-7920200D02*
X9583900Y-7980200D01*
X9583900Y-9075900D02*
X9643900Y-9135900D01*
X9643900Y-9075900D02*
X9583900Y-9135900D01*
X9647400Y-9469600D02*
X9707400Y-9529600D01*
X9707400Y-9469600D02*
X9647400Y-9529600D01*
X9736300Y-7043900D02*
X9796300Y-7103900D01*
X9796300Y-7043900D02*
X9736300Y-7103900D01*
X9926800Y-8263100D02*
X9986800Y-8323100D01*
X9986800Y-8263100D02*
X9926800Y-8323100D01*
X10511000Y-8009100D02*
X10571000Y-8069100D01*
X10571000Y-8009100D02*
X10511000Y-8069100D01*
X10592280Y-7767800D02*
X10652280Y-7827800D01*
X10652280Y-7767800D02*
X10592280Y-7827800D01*
X10599900Y-6713700D02*
X10659900Y-6773700D01*
X10659900Y-6713700D02*
X10599900Y-6773700D01*
X10714200Y-9063200D02*
X10774200Y-9123200D01*
X10774200Y-9063200D02*
X10714200Y-9123200D01*
X10765000Y-8199600D02*
X10825000Y-8259600D01*
X10825000Y-8199600D02*
X10765000Y-8259600D01*
X10930100Y-6485100D02*
X10990100Y-6545100D01*
X10990100Y-6485100D02*
X10930100Y-6545100D01*
X10963120Y-7478240D02*
X11023120Y-7538240D01*
X11023120Y-7478240D02*
X10963120Y-7538240D01*
X11023674Y-9063200D02*
X11083674Y-9123200D01*
X11083674Y-9063200D02*
X11023674Y-9123200D01*
X11095200Y-7958300D02*
X11155200Y-8018300D01*
X11155200Y-7958300D02*
X11095200Y-8018300D01*
X11298400Y-9101300D02*
X11358400Y-9161300D01*
X11358400Y-9101300D02*
X11298400Y-9161300D01*
X11400000Y-8212300D02*
X11460000Y-8272300D01*
X11460000Y-8212300D02*
X11400000Y-8272300D01*
X11692100Y-9101300D02*
X11752100Y-9161300D01*
X11752100Y-9101300D02*
X11692100Y-9161300D01*
X11781000Y-8504400D02*
X11841000Y-8564400D01*
X11841000Y-8504400D02*
X11781000Y-8564400D01*
X11946100Y-5532600D02*
X12006100Y-5592600D01*
X12006100Y-5532600D02*
X11946100Y-5592600D01*
X8357800Y-7086400D02*
G75*
G02*
X8297800Y-7086400I-30000J0D01*
G01*
X8297800Y-7086400D02*
G75*
G02*
X8357800Y-7086400I30000J0D01*
G01*
X8297800Y-7116400D02*
X8357800Y-7116400D01*
X8357800Y-7056400D02*
G75*
G02*
X8357800Y-7116400I0J-30000D01*
G01*
X8357800Y-7056400D02*
X8297800Y-7056400D01*
X8297800Y-7056400D02*
G75*
G03*
X8297800Y-7116400I0J-30000D01*
G01*
X8357800Y-7950400D02*
G75*
G02*
X8297800Y-7950400I-30000J0D01*
G01*
X8297800Y-7950400D02*
G75*
G02*
X8357800Y-7950400I30000J0D01*
G01*
X8297800Y-7980400D02*
X8357800Y-7980400D01*
X8357800Y-7920400D02*
G75*
G02*
X8357800Y-7980400I0J-30000D01*
G01*
X8357800Y-7920400D02*
X8297800Y-7920400D01*
X8297800Y-7920400D02*
G75*
G03*
X8297800Y-7980400I0J-30000D01*
G01*
X8775800Y-7086400D02*
G75*
G02*
X8715800Y-7086400I-30000J0D01*
G01*
X8715800Y-7086400D02*
G75*
G02*
X8775800Y-7086400I30000J0D01*
G01*
X8690800Y-7116400D02*
X8800800Y-7116400D01*
X8800800Y-7056400D02*
G75*
G02*
X8800800Y-7116400I0J-30000D01*
G01*
X8800800Y-7056400D02*
X8690800Y-7056400D01*
X8690800Y-7056400D02*
G75*
G03*
X8690800Y-7116400I0J-30000D01*
G01*
X8775800Y-7950400D02*
G75*
G02*
X8715800Y-7950400I-30000J0D01*
G01*
X8715800Y-7950400D02*
G75*
G02*
X8775800Y-7950400I30000J0D01*
G01*
X8690800Y-7980400D02*
X8800800Y-7980400D01*
X8800800Y-7920400D02*
G75*
G02*
X8800800Y-7980400I0J-30000D01*
G01*
X8800800Y-7920400D02*
X8690800Y-7920400D01*
X8690800Y-7920400D02*
G75*
G03*
X8690800Y-7980400I0J-30000D01*
G01*
X9288500Y-7739100D02*
X9288500Y-7814100D01*
X9251000Y-7776600D02*
X9326000Y-7776600D01*
X9488500Y-7739100D02*
X9488500Y-7814100D01*
X9451000Y-7776600D02*
X9526000Y-7776600D01*
X9688500Y-7739100D02*
X9688500Y-7814100D01*
X9651000Y-7776600D02*
X9726000Y-7776600D01*
X9888500Y-7739100D02*
X9888500Y-7814100D01*
X9851000Y-7776600D02*
X9926000Y-7776600D01*
X9963200Y-8420700D02*
X9963200Y-8495700D01*
X9925700Y-8458200D02*
X10000700Y-8458200D01*
X10163200Y-8420700D02*
X10163200Y-8495700D01*
X10125700Y-8458200D02*
X10200700Y-8458200D01*
X10363200Y-8420700D02*
X10363200Y-8495700D01*
X10325700Y-8458200D02*
X10400700Y-8458200D01*
X11103000Y-5753700D02*
X11103000Y-5828700D01*
X11065500Y-5791200D02*
X11140500Y-5791200D01*
X11131600Y-8848300D02*
X11131600Y-8923300D01*
X11094100Y-8885800D02*
X11169100Y-8885800D01*
X11303000Y-5753700D02*
X11303000Y-5828700D01*
X11265500Y-5791200D02*
X11340500Y-5791200D01*
X11331600Y-8848300D02*
X11331600Y-8923300D01*
X11294100Y-8885800D02*
X11369100Y-8885800D01*
X11531600Y-8848300D02*
X11531600Y-8923300D01*
X11494100Y-8885800D02*
X11569100Y-8885800D01*
X11731600Y-8848300D02*
X11731600Y-8923300D01*
X11694100Y-8885800D02*
X11769100Y-8885800D01*
X11931600Y-8848300D02*
X11931600Y-8923300D01*
X11894100Y-8885800D02*
X11969100Y-8885800D01*
X9845385Y-8867485D02*
X9845385Y-8810916D01*
X9788816Y-8810916D01*
X9788816Y-8867485D01*
X9845385Y-8867485D01*
X9845385Y-9121485D02*
X9845385Y-9064916D01*
X9788816Y-9064916D01*
X9788816Y-9121485D01*
X9845385Y-9121485D01*
X10607385Y-8867485D02*
X10607385Y-8810916D01*
X10550816Y-8810916D01*
X10550816Y-8867485D01*
X10607385Y-8867485D01*
X10607385Y-9121485D02*
X10607385Y-9064916D01*
X10550816Y-9064916D01*
X10550816Y-9121485D01*
X10607385Y-9121485D01*
X9044125Y-5355651D02*
X9094125Y-5305651D01*
X9044125Y-5255651D01*
X8994125Y-5305651D01*
X9044125Y-5355651D01*
X9044125Y-9419651D02*
X9094125Y-9369651D01*
X9044125Y-9319651D01*
X8994125Y-9369651D01*
X9044125Y-9419651D01*
X9044125Y-9673651D02*
X9094125Y-9623651D01*
X9044125Y-9573651D01*
X8994125Y-9623651D01*
X9044125Y-9673651D01*
X9298125Y-5355651D02*
X9348125Y-5305651D01*
X9298125Y-5255651D01*
X9248125Y-5305651D01*
X9298125Y-5355651D01*
X9298125Y-9419651D02*
X9348125Y-9369651D01*
X9298125Y-9319651D01*
X9248125Y-9369651D01*
X9298125Y-9419651D01*
X9298125Y-9673651D02*
X9348125Y-9623651D01*
X9298125Y-9573651D01*
X9248125Y-9623651D01*
X9298125Y-9673651D01*
X9552125Y-5355651D02*
X9602125Y-5305651D01*
X9552125Y-5255651D01*
X9502125Y-5305651D01*
X9552125Y-5355651D01*
X9552125Y-9419651D02*
X9602125Y-9369651D01*
X9552125Y-9319651D01*
X9502125Y-9369651D01*
X9552125Y-9419651D01*
X9552125Y-9673651D02*
X9602125Y-9623651D01*
X9552125Y-9573651D01*
X9502125Y-9623651D01*
X9552125Y-9673651D01*
X9806125Y-5355651D02*
X9856125Y-5305651D01*
X9806125Y-5255651D01*
X9756125Y-5305651D01*
X9806125Y-5355651D01*
X9806125Y-9419651D02*
X9856125Y-9369651D01*
X9806125Y-9319651D01*
X9756125Y-9369651D01*
X9806125Y-9419651D01*
X9806125Y-9673651D02*
X9856125Y-9623651D01*
X9806125Y-9573651D01*
X9756125Y-9623651D01*
X9806125Y-9673651D01*
X10060125Y-5355651D02*
X10110125Y-5305651D01*
X10060125Y-5255651D01*
X10010125Y-5305651D01*
X10060125Y-5355651D01*
X10060125Y-9419651D02*
X10110125Y-9369651D01*
X10060125Y-9319651D01*
X10010125Y-9369651D01*
X10060125Y-9419651D01*
X10060125Y-9673651D02*
X10110125Y-9623651D01*
X10060125Y-9573651D01*
X10010125Y-9623651D01*
X10060125Y-9673651D01*
X10314125Y-5355651D02*
X10364125Y-5305651D01*
X10314125Y-5255651D01*
X10264125Y-5305651D01*
X10314125Y-5355651D01*
X10314125Y-9419651D02*
X10364125Y-9369651D01*
X10314125Y-9319651D01*
X10264125Y-9369651D01*
X10314125Y-9419651D01*
X10314125Y-9673651D02*
X10364125Y-9623651D01*
X10314125Y-9573651D01*
X10264125Y-9623651D01*
X10314125Y-9673651D01*
X10568125Y-5355651D02*
X10618125Y-5305651D01*
X10568125Y-5255651D01*
X10518125Y-5305651D01*
X10568125Y-5355651D01*
X10568125Y-9419651D02*
X10618125Y-9369651D01*
X10568125Y-9319651D01*
X10518125Y-9369651D01*
X10568125Y-9419651D01*
X10568125Y-9673651D02*
X10618125Y-9623651D01*
X10568125Y-9573651D01*
X10518125Y-9623651D01*
X10568125Y-9673651D01*
X10822125Y-5355651D02*
X10872125Y-5305651D01*
X10822125Y-5255651D01*
X10772125Y-5305651D01*
X10822125Y-5355651D01*
X10822125Y-9419651D02*
X10872125Y-9369651D01*
X10822125Y-9319651D01*
X10772125Y-9369651D01*
X10822125Y-9419651D01*
X10822125Y-9673651D02*
X10872125Y-9623651D01*
X10822125Y-9573651D01*
X10772125Y-9623651D01*
X10822125Y-9673651D01*
X11076125Y-5355651D02*
X11126125Y-5305651D01*
X11076125Y-5255651D01*
X11026125Y-5305651D01*
X11076125Y-5355651D01*
X11076125Y-9419651D02*
X11126125Y-9369651D01*
X11076125Y-9319651D01*
X11026125Y-9369651D01*
X11076125Y-9419651D01*
X11076125Y-9673651D02*
X11126125Y-9623651D01*
X11076125Y-9573651D01*
X11026125Y-9623651D01*
X11076125Y-9673651D01*
X11239500Y-6192100D02*
X11289500Y-6142100D01*
X11239500Y-6092100D01*
X11189500Y-6142100D01*
X11239500Y-6192100D01*
X11239500Y-7192100D02*
X11289500Y-7142100D01*
X11239500Y-7092100D01*
X11189500Y-7142100D01*
X11239500Y-7192100D01*
X11330125Y-5355651D02*
X11380125Y-5305651D01*
X11330125Y-5255651D01*
X11280125Y-5305651D01*
X11330125Y-5355651D01*
X11330125Y-9419651D02*
X11380125Y-9369651D01*
X11330125Y-9319651D01*
X11280125Y-9369651D01*
X11330125Y-9419651D01*
X11330125Y-9673651D02*
X11380125Y-9623651D01*
X11330125Y-9573651D01*
X11280125Y-9623651D01*
X11330125Y-9673651D01*
X11584125Y-5355651D02*
X11634125Y-5305651D01*
X11584125Y-5255651D01*
X11534125Y-5305651D01*
X11584125Y-5355651D01*
X11584125Y-9419651D02*
X11634125Y-9369651D01*
X11584125Y-9319651D01*
X11534125Y-9369651D01*
X11584125Y-9419651D01*
X11584125Y-9673651D02*
X11634125Y-9623651D01*
X11584125Y-9573651D01*
X11534125Y-9623651D01*
X11584125Y-9673651D01*
X11838125Y-5355651D02*
X11888125Y-5305651D01*
X11838125Y-5255651D01*
X11788125Y-5305651D01*
X11838125Y-5355651D01*
X11838125Y-9419651D02*
X11888125Y-9369651D01*
X11838125Y-9319651D01*
X11788125Y-9369651D01*
X11838125Y-9419651D01*
X11838125Y-9673651D02*
X11888125Y-9623651D01*
X11838125Y-9573651D01*
X11788125Y-9623651D01*
X11838125Y-9673651D01*
X12092125Y-5355651D02*
X12142125Y-5305651D01*
X12092125Y-5255651D01*
X12042125Y-5305651D01*
X12092125Y-5355651D01*
X12092125Y-9419651D02*
X12142125Y-9369651D01*
X12092125Y-9319651D01*
X12042125Y-9369651D01*
X12092125Y-9419651D01*
X12092125Y-9673651D02*
X12142125Y-9623651D01*
X12092125Y-9573651D01*
X12042125Y-9623651D01*
X12092125Y-9673651D01*
D13*
X10798500Y-8410900D02*
X10918500Y-8530900D01*
X10918500Y-8410900D02*
X10798500Y-8530900D01*
X10918500Y-8470900D02*
G75*
G02*
X10798500Y-8470900I-60000J0D01*
G01*
X10798500Y-8470900D02*
G75*
G02*
X10918500Y-8470900I60000J0D01*
G01*
D14*
X8591300Y-8317000D02*
X8721300Y-8447000D01*
X8721300Y-8317000D02*
X8591300Y-8447000D01*
X8656300Y-8317000D02*
X8656300Y-8447000D01*
X8591300Y-8382000D02*
X8721300Y-8382000D01*
X8591300Y-8817000D02*
X8721300Y-8947000D01*
X8721300Y-8817000D02*
X8591300Y-8947000D01*
X8656300Y-8817000D02*
X8656300Y-8947000D01*
X8591300Y-8882000D02*
X8721300Y-8882000D01*
X10158500Y-7072400D02*
X10288500Y-7202400D01*
X10288500Y-7072400D02*
X10158500Y-7202400D01*
X10223500Y-7072400D02*
X10223500Y-7202400D01*
X10158500Y-7137400D02*
X10288500Y-7137400D01*
X10539500Y-7072400D02*
X10669500Y-7202400D01*
X10669500Y-7072400D02*
X10539500Y-7202400D01*
X10604500Y-7072400D02*
X10604500Y-7202400D01*
X10539500Y-7137400D02*
X10669500Y-7137400D01*
D12*
X8660300Y-7196900D02*
X8725300Y-7261900D01*
X8725300Y-7196900D02*
X8660300Y-7261900D01*
X8715781Y-7252381D02*
X8715781Y-7206419D01*
X8669819Y-7206419D01*
X8669819Y-7252381D01*
X8715781Y-7252381D01*
X8660300Y-7774900D02*
X8725300Y-7839900D01*
X8725300Y-7774900D02*
X8660300Y-7839900D01*
X8715781Y-7830381D02*
X8715781Y-7784419D01*
X8669819Y-7784419D01*
X8669819Y-7830381D01*
X8715781Y-7830381D01*
X8642700Y-6085000D02*
X8732700Y-6175000D01*
X8732700Y-6085000D02*
X8642700Y-6175000D01*
X8687700Y-6175000D02*
X8732700Y-6130000D01*
X8687700Y-6085000D01*
X8642700Y-6130000D01*
X8687700Y-6175000D01*
X8642700Y-6525000D02*
X8732700Y-6615000D01*
X8732700Y-6525000D02*
X8642700Y-6615000D01*
X8687700Y-6615000D02*
X8732700Y-6570000D01*
X8687700Y-6525000D01*
X8642700Y-6570000D01*
X8687700Y-6615000D01*
D15*
X8462579Y-5293149D02*
X8462579Y-5593149D01*
X8312579Y-5443149D02*
X8612579Y-5443149D01*
X8612579Y-5443149D02*
G75*
G02*
X8312579Y-5443149I-150000J0D01*
G01*
X8312579Y-5443149D02*
G75*
G02*
X8612579Y-5443149I150000J0D01*
G01*
X8462579Y-9304241D02*
X8462579Y-9604241D01*
X8312579Y-9454241D02*
X8612579Y-9454241D01*
X8612579Y-9454241D02*
G75*
G02*
X8312579Y-9454241I-150000J0D01*
G01*
X8312579Y-9454241D02*
G75*
G02*
X8612579Y-9454241I150000J0D01*
G01*
X12673671Y-5293149D02*
X12673671Y-5593149D01*
X12523671Y-5443149D02*
X12823671Y-5443149D01*
X12823671Y-5443149D02*
G75*
G02*
X12523671Y-5443149I-150000J0D01*
G01*
X12523671Y-5443149D02*
G75*
G02*
X12823671Y-5443149I150000J0D01*
G01*
X12673671Y-9304241D02*
X12673671Y-9604241D01*
X12523671Y-9454241D02*
X12823671Y-9454241D01*
X12823671Y-9454241D02*
G75*
G02*
X12523671Y-9454241I-150000J0D01*
G01*
X12523671Y-9454241D02*
G75*
G02*
X12823671Y-9454241I150000J0D01*
G01*
D11*
X260777Y-311484D02*
X260777Y-111484D01*
X260777Y-111484D02*
X308396Y-111484D01*
X308396Y-111484D02*
X336967Y-121008D01*
X336967Y-121008D02*
X356015Y-140055D01*
X356015Y-140055D02*
X365539Y-159103D01*
X365539Y-159103D02*
X375062Y-197198D01*
X375062Y-197198D02*
X375062Y-225769D01*
X375062Y-225769D02*
X365539Y-263865D01*
X365539Y-263865D02*
X356015Y-282912D01*
X356015Y-282912D02*
X336967Y-301960D01*
X336967Y-301960D02*
X308396Y-311484D01*
X308396Y-311484D02*
X260777Y-311484D01*
X460777Y-311484D02*
X460777Y-178150D01*
X460777Y-216246D02*
X470301Y-197198D01*
X470301Y-197198D02*
X479824Y-187674D01*
X479824Y-187674D02*
X498872Y-178150D01*
X498872Y-178150D02*
X517920Y-178150D01*
X584586Y-311484D02*
X584586Y-178150D01*
X584586Y-111484D02*
X575063Y-121008D01*
X575063Y-121008D02*
X584586Y-130531D01*
X584586Y-130531D02*
X594110Y-121008D01*
X594110Y-121008D02*
X584586Y-111484D01*
X584586Y-111484D02*
X584586Y-130531D01*
X708396Y-311484D02*
X689348Y-301960D01*
X689348Y-301960D02*
X679824Y-282912D01*
X679824Y-282912D02*
X679824Y-111484D01*
X813158Y-311484D02*
X794110Y-301960D01*
X794110Y-301960D02*
X784586Y-282912D01*
X784586Y-282912D02*
X784586Y-111484D01*
X1041729Y-311484D02*
X1041729Y-111484D01*
X1041729Y-111484D02*
X1108396Y-254341D01*
X1108396Y-254341D02*
X1175063Y-111484D01*
X1175063Y-111484D02*
X1175063Y-311484D01*
X1356015Y-311484D02*
X1356015Y-206722D01*
X1356015Y-206722D02*
X1346491Y-187674D01*
X1346491Y-187674D02*
X1327444Y-178150D01*
X1327444Y-178150D02*
X1289348Y-178150D01*
X1289348Y-178150D02*
X1270301Y-187674D01*
X1356015Y-301960D02*
X1336967Y-311484D01*
X1336967Y-311484D02*
X1289348Y-311484D01*
X1289348Y-311484D02*
X1270301Y-301960D01*
X1270301Y-301960D02*
X1260777Y-282912D01*
X1260777Y-282912D02*
X1260777Y-263865D01*
X1260777Y-263865D02*
X1270301Y-244817D01*
X1270301Y-244817D02*
X1289348Y-235293D01*
X1289348Y-235293D02*
X1336967Y-235293D01*
X1336967Y-235293D02*
X1356015Y-225769D01*
X1451253Y-178150D02*
X1451253Y-378150D01*
X1451253Y-187674D02*
X1470301Y-178150D01*
X1470301Y-178150D02*
X1508396Y-178150D01*
X1508396Y-178150D02*
X1527443Y-187674D01*
X1527443Y-187674D02*
X1536967Y-197198D01*
X1536967Y-197198D02*
X1546491Y-216246D01*
X1546491Y-216246D02*
X1546491Y-273389D01*
X1546491Y-273389D02*
X1536967Y-292436D01*
X1536967Y-292436D02*
X1527443Y-301960D01*
X1527443Y-301960D02*
X1508396Y-311484D01*
X1508396Y-311484D02*
X1470301Y-311484D01*
X1470301Y-311484D02*
X1451253Y-301960D01*
X1632205Y-292436D02*
X1641729Y-301960D01*
X1641729Y-301960D02*
X1632205Y-311484D01*
X1632205Y-311484D02*
X1622682Y-301960D01*
X1622682Y-301960D02*
X1632205Y-292436D01*
X1632205Y-292436D02*
X1632205Y-311484D01*
X1632205Y-187674D02*
X1641729Y-197198D01*
X1641729Y-197198D02*
X1632205Y-206722D01*
X1632205Y-206722D02*
X1622682Y-197198D01*
X1622682Y-197198D02*
X1632205Y-187674D01*
X1632205Y-187674D02*
X1632205Y-206722D01*
D12*
X-60000Y-610000D02*
X0Y-670000D01*
X0Y-610000D02*
X-60000Y-670000D01*
D11*
X298872Y-531484D02*
X317920Y-531484D01*
X317920Y-531484D02*
X336967Y-541008D01*
X336967Y-541008D02*
X346491Y-550531D01*
X346491Y-550531D02*
X356015Y-569579D01*
X356015Y-569579D02*
X365539Y-607674D01*
X365539Y-607674D02*
X365539Y-655293D01*
X365539Y-655293D02*
X356015Y-693389D01*
X356015Y-693389D02*
X346491Y-712436D01*
X346491Y-712436D02*
X336967Y-721960D01*
X336967Y-721960D02*
X317920Y-731484D01*
X317920Y-731484D02*
X298872Y-731484D01*
X298872Y-731484D02*
X279824Y-721960D01*
X279824Y-721960D02*
X270301Y-712436D01*
X270301Y-712436D02*
X260777Y-693389D01*
X260777Y-693389D02*
X251253Y-655293D01*
X251253Y-655293D02*
X251253Y-607674D01*
X251253Y-607674D02*
X260777Y-569579D01*
X260777Y-569579D02*
X270301Y-550531D01*
X270301Y-550531D02*
X279824Y-541008D01*
X279824Y-541008D02*
X298872Y-531484D01*
X451253Y-712436D02*
X460777Y-721960D01*
X460777Y-721960D02*
X451253Y-731484D01*
X451253Y-731484D02*
X441729Y-721960D01*
X441729Y-721960D02*
X451253Y-712436D01*
X451253Y-712436D02*
X451253Y-731484D01*
X632205Y-531484D02*
X594110Y-531484D01*
X594110Y-531484D02*
X575063Y-541008D01*
X575063Y-541008D02*
X565539Y-550531D01*
X565539Y-550531D02*
X546491Y-579103D01*
X546491Y-579103D02*
X536967Y-617198D01*
X536967Y-617198D02*
X536967Y-693389D01*
X536967Y-693389D02*
X546491Y-712436D01*
X546491Y-712436D02*
X556015Y-721960D01*
X556015Y-721960D02*
X575063Y-731484D01*
X575063Y-731484D02*
X613158Y-731484D01*
X613158Y-731484D02*
X632205Y-721960D01*
X632205Y-721960D02*
X641729Y-712436D01*
X641729Y-712436D02*
X651253Y-693389D01*
X651253Y-693389D02*
X651253Y-645770D01*
X651253Y-645770D02*
X641729Y-626722D01*
X641729Y-626722D02*
X632205Y-617198D01*
X632205Y-617198D02*
X613158Y-607674D01*
X613158Y-607674D02*
X575063Y-607674D01*
X575063Y-607674D02*
X556015Y-617198D01*
X556015Y-617198D02*
X546491Y-626722D01*
X546491Y-626722D02*
X536967Y-645770D01*
X775062Y-531484D02*
X794110Y-531484D01*
X794110Y-531484D02*
X813158Y-541008D01*
X813158Y-541008D02*
X822682Y-550531D01*
X822682Y-550531D02*
X832205Y-569579D01*
X832205Y-569579D02*
X841729Y-607674D01*
X841729Y-607674D02*
X841729Y-655293D01*
X841729Y-655293D02*
X832205Y-693389D01*
X832205Y-693389D02*
X822682Y-712436D01*
X822682Y-712436D02*
X813158Y-721960D01*
X813158Y-721960D02*
X794110Y-731484D01*
X794110Y-731484D02*
X775062Y-731484D01*
X775062Y-731484D02*
X756015Y-721960D01*
X756015Y-721960D02*
X746491Y-712436D01*
X746491Y-712436D02*
X736967Y-693389D01*
X736967Y-693389D02*
X727443Y-655293D01*
X727443Y-655293D02*
X727443Y-607674D01*
X727443Y-607674D02*
X736967Y-569579D01*
X736967Y-569579D02*
X746491Y-550531D01*
X746491Y-550531D02*
X756015Y-541008D01*
X756015Y-541008D02*
X775062Y-531484D01*
X965539Y-531484D02*
X984586Y-531484D01*
X984586Y-531484D02*
X1003634Y-541008D01*
X1003634Y-541008D02*
X1013158Y-550531D01*
X1013158Y-550531D02*
X1022682Y-569579D01*
X1022682Y-569579D02*
X1032205Y-607674D01*
X1032205Y-607674D02*
X1032205Y-655293D01*
X1032205Y-655293D02*
X1022682Y-693389D01*
X1022682Y-693389D02*
X1013158Y-712436D01*
X1013158Y-712436D02*
X1003634Y-721960D01*
X1003634Y-721960D02*
X984586Y-731484D01*
X984586Y-731484D02*
X965539Y-731484D01*
X965539Y-731484D02*
X946491Y-721960D01*
X946491Y-721960D02*
X936967Y-712436D01*
X936967Y-712436D02*
X927443Y-693389D01*
X927443Y-693389D02*
X917920Y-655293D01*
X917920Y-655293D02*
X917920Y-607674D01*
X917920Y-607674D02*
X927443Y-569579D01*
X927443Y-569579D02*
X936967Y-550531D01*
X936967Y-550531D02*
X946491Y-541008D01*
X946491Y-541008D02*
X965539Y-531484D01*
X1117920Y-731484D02*
X1117920Y-598150D01*
X1117920Y-617198D02*
X1127444Y-607674D01*
X1127444Y-607674D02*
X1146491Y-598150D01*
X1146491Y-598150D02*
X1175063Y-598150D01*
X1175063Y-598150D02*
X1194110Y-607674D01*
X1194110Y-607674D02*
X1203634Y-626722D01*
X1203634Y-626722D02*
X1203634Y-731484D01*
X1203634Y-626722D02*
X1213158Y-607674D01*
X1213158Y-607674D02*
X1232205Y-598150D01*
X1232205Y-598150D02*
X1260777Y-598150D01*
X1260777Y-598150D02*
X1279825Y-607674D01*
X1279825Y-607674D02*
X1289348Y-626722D01*
X1289348Y-626722D02*
X1289348Y-731484D01*
X1384586Y-731484D02*
X1384586Y-598150D01*
X1384586Y-617198D02*
X1394110Y-607674D01*
X1394110Y-607674D02*
X1413158Y-598150D01*
X1413158Y-598150D02*
X1441729Y-598150D01*
X1441729Y-598150D02*
X1460777Y-607674D01*
X1460777Y-607674D02*
X1470301Y-626722D01*
X1470301Y-626722D02*
X1470301Y-731484D01*
X1470301Y-626722D02*
X1479824Y-607674D01*
X1479824Y-607674D02*
X1498872Y-598150D01*
X1498872Y-598150D02*
X1527443Y-598150D01*
X1527443Y-598150D02*
X1546491Y-607674D01*
X1546491Y-607674D02*
X1556015Y-626722D01*
X1556015Y-626722D02*
X1556015Y-731484D01*
X1946491Y-521960D02*
X1775063Y-779103D01*
X2203634Y-531484D02*
X2222682Y-531484D01*
X2222682Y-531484D02*
X2241729Y-541008D01*
X2241729Y-541008D02*
X2251253Y-550531D01*
X2251253Y-550531D02*
X2260777Y-569579D01*
X2260777Y-569579D02*
X2270301Y-607674D01*
X2270301Y-607674D02*
X2270301Y-655293D01*
X2270301Y-655293D02*
X2260777Y-693389D01*
X2260777Y-693389D02*
X2251253Y-712436D01*
X2251253Y-712436D02*
X2241729Y-721960D01*
X2241729Y-721960D02*
X2222682Y-731484D01*
X2222682Y-731484D02*
X2203634Y-731484D01*
X2203634Y-731484D02*
X2184587Y-721960D01*
X2184587Y-721960D02*
X2175063Y-712436D01*
X2175063Y-712436D02*
X2165539Y-693389D01*
X2165539Y-693389D02*
X2156015Y-655293D01*
X2156015Y-655293D02*
X2156015Y-607674D01*
X2156015Y-607674D02*
X2165539Y-569579D01*
X2165539Y-569579D02*
X2175063Y-550531D01*
X2175063Y-550531D02*
X2184587Y-541008D01*
X2184587Y-541008D02*
X2203634Y-531484D01*
X2356015Y-712436D02*
X2365539Y-721960D01*
X2365539Y-721960D02*
X2356015Y-731484D01*
X2356015Y-731484D02*
X2346491Y-721960D01*
X2346491Y-721960D02*
X2356015Y-712436D01*
X2356015Y-712436D02*
X2356015Y-731484D01*
X2489348Y-531484D02*
X2508396Y-531484D01*
X2508396Y-531484D02*
X2527444Y-541008D01*
X2527444Y-541008D02*
X2536968Y-550531D01*
X2536968Y-550531D02*
X2546491Y-569579D01*
X2546491Y-569579D02*
X2556015Y-607674D01*
X2556015Y-607674D02*
X2556015Y-655293D01*
X2556015Y-655293D02*
X2546491Y-693389D01*
X2546491Y-693389D02*
X2536968Y-712436D01*
X2536968Y-712436D02*
X2527444Y-721960D01*
X2527444Y-721960D02*
X2508396Y-731484D01*
X2508396Y-731484D02*
X2489348Y-731484D01*
X2489348Y-731484D02*
X2470301Y-721960D01*
X2470301Y-721960D02*
X2460777Y-712436D01*
X2460777Y-712436D02*
X2451253Y-693389D01*
X2451253Y-693389D02*
X2441729Y-655293D01*
X2441729Y-655293D02*
X2441729Y-607674D01*
X2441729Y-607674D02*
X2451253Y-569579D01*
X2451253Y-569579D02*
X2460777Y-550531D01*
X2460777Y-550531D02*
X2470301Y-541008D01*
X2470301Y-541008D02*
X2489348Y-531484D01*
X2632206Y-550531D02*
X2641729Y-541008D01*
X2641729Y-541008D02*
X2660777Y-531484D01*
X2660777Y-531484D02*
X2708396Y-531484D01*
X2708396Y-531484D02*
X2727444Y-541008D01*
X2727444Y-541008D02*
X2736968Y-550531D01*
X2736968Y-550531D02*
X2746491Y-569579D01*
X2746491Y-569579D02*
X2746491Y-588627D01*
X2746491Y-588627D02*
X2736968Y-617198D01*
X2736968Y-617198D02*
X2622682Y-731484D01*
X2622682Y-731484D02*
X2746491Y-731484D01*
X2813158Y-531484D02*
X2936967Y-531484D01*
X2936967Y-531484D02*
X2870301Y-607674D01*
X2870301Y-607674D02*
X2898872Y-607674D01*
X2898872Y-607674D02*
X2917920Y-617198D01*
X2917920Y-617198D02*
X2927444Y-626722D01*
X2927444Y-626722D02*
X2936967Y-645770D01*
X2936967Y-645770D02*
X2936967Y-693389D01*
X2936967Y-693389D02*
X2927444Y-712436D01*
X2927444Y-712436D02*
X2917920Y-721960D01*
X2917920Y-721960D02*
X2898872Y-731484D01*
X2898872Y-731484D02*
X2841729Y-731484D01*
X2841729Y-731484D02*
X2822682Y-721960D01*
X2822682Y-721960D02*
X2813158Y-712436D01*
X3108396Y-531484D02*
X3070301Y-531484D01*
X3070301Y-531484D02*
X3051253Y-541008D01*
X3051253Y-541008D02*
X3041729Y-550531D01*
X3041729Y-550531D02*
X3022682Y-579103D01*
X3022682Y-579103D02*
X3013158Y-617198D01*
X3013158Y-617198D02*
X3013158Y-693389D01*
X3013158Y-693389D02*
X3022682Y-712436D01*
X3022682Y-712436D02*
X3032206Y-721960D01*
X3032206Y-721960D02*
X3051253Y-731484D01*
X3051253Y-731484D02*
X3089348Y-731484D01*
X3089348Y-731484D02*
X3108396Y-721960D01*
X3108396Y-721960D02*
X3117920Y-712436D01*
X3117920Y-712436D02*
X3127444Y-693389D01*
X3127444Y-693389D02*
X3127444Y-645770D01*
X3127444Y-645770D02*
X3117920Y-626722D01*
X3117920Y-626722D02*
X3108396Y-617198D01*
X3108396Y-617198D02*
X3089348Y-607674D01*
X3089348Y-607674D02*
X3051253Y-607674D01*
X3051253Y-607674D02*
X3032206Y-617198D01*
X3032206Y-617198D02*
X3022682Y-626722D01*
X3022682Y-626722D02*
X3013158Y-645770D01*
X3203634Y-531484D02*
X3203634Y-569579D01*
X3279825Y-531484D02*
X3279825Y-569579D01*
X3575063Y-807674D02*
X3565539Y-798150D01*
X3565539Y-798150D02*
X3546491Y-769579D01*
X3546491Y-769579D02*
X3536968Y-750531D01*
X3536968Y-750531D02*
X3527444Y-721960D01*
X3527444Y-721960D02*
X3517920Y-674341D01*
X3517920Y-674341D02*
X3517920Y-636246D01*
X3517920Y-636246D02*
X3527444Y-588627D01*
X3527444Y-588627D02*
X3536968Y-560055D01*
X3536968Y-560055D02*
X3546491Y-541008D01*
X3546491Y-541008D02*
X3565539Y-512436D01*
X3565539Y-512436D02*
X3575063Y-502912D01*
X3641729Y-550531D02*
X3651253Y-541008D01*
X3651253Y-541008D02*
X3670301Y-531484D01*
X3670301Y-531484D02*
X3717920Y-531484D01*
X3717920Y-531484D02*
X3736968Y-541008D01*
X3736968Y-541008D02*
X3746491Y-550531D01*
X3746491Y-550531D02*
X3756015Y-569579D01*
X3756015Y-569579D02*
X3756015Y-588627D01*
X3756015Y-588627D02*
X3746491Y-617198D01*
X3746491Y-617198D02*
X3632206Y-731484D01*
X3632206Y-731484D02*
X3756015Y-731484D01*
X3832206Y-550531D02*
X3841729Y-541008D01*
X3841729Y-541008D02*
X3860777Y-531484D01*
X3860777Y-531484D02*
X3908396Y-531484D01*
X3908396Y-531484D02*
X3927444Y-541008D01*
X3927444Y-541008D02*
X3936968Y-550531D01*
X3936968Y-550531D02*
X3946491Y-569579D01*
X3946491Y-569579D02*
X3946491Y-588627D01*
X3946491Y-588627D02*
X3936968Y-617198D01*
X3936968Y-617198D02*
X3822682Y-731484D01*
X3822682Y-731484D02*
X3946491Y-731484D01*
X4184587Y-731484D02*
X4184587Y-531484D01*
X4270301Y-731484D02*
X4270301Y-626722D01*
X4270301Y-626722D02*
X4260777Y-607674D01*
X4260777Y-607674D02*
X4241730Y-598150D01*
X4241730Y-598150D02*
X4213158Y-598150D01*
X4213158Y-598150D02*
X4194110Y-607674D01*
X4194110Y-607674D02*
X4184587Y-617198D01*
X4394111Y-731484D02*
X4375063Y-721960D01*
X4375063Y-721960D02*
X4365539Y-712436D01*
X4365539Y-712436D02*
X4356015Y-693389D01*
X4356015Y-693389D02*
X4356015Y-636246D01*
X4356015Y-636246D02*
X4365539Y-617198D01*
X4365539Y-617198D02*
X4375063Y-607674D01*
X4375063Y-607674D02*
X4394111Y-598150D01*
X4394111Y-598150D02*
X4422682Y-598150D01*
X4422682Y-598150D02*
X4441730Y-607674D01*
X4441730Y-607674D02*
X4451253Y-617198D01*
X4451253Y-617198D02*
X4460777Y-636246D01*
X4460777Y-636246D02*
X4460777Y-693389D01*
X4460777Y-693389D02*
X4451253Y-712436D01*
X4451253Y-712436D02*
X4441730Y-721960D01*
X4441730Y-721960D02*
X4422682Y-731484D01*
X4422682Y-731484D02*
X4394111Y-731484D01*
X4575063Y-731484D02*
X4556015Y-721960D01*
X4556015Y-721960D02*
X4546492Y-702912D01*
X4546492Y-702912D02*
X4546492Y-531484D01*
X4727444Y-721960D02*
X4708396Y-731484D01*
X4708396Y-731484D02*
X4670301Y-731484D01*
X4670301Y-731484D02*
X4651253Y-721960D01*
X4651253Y-721960D02*
X4641730Y-702912D01*
X4641730Y-702912D02*
X4641730Y-626722D01*
X4641730Y-626722D02*
X4651253Y-607674D01*
X4651253Y-607674D02*
X4670301Y-598150D01*
X4670301Y-598150D02*
X4708396Y-598150D01*
X4708396Y-598150D02*
X4727444Y-607674D01*
X4727444Y-607674D02*
X4736968Y-626722D01*
X4736968Y-626722D02*
X4736968Y-645770D01*
X4736968Y-645770D02*
X4641730Y-664817D01*
X4813158Y-721960D02*
X4832206Y-731484D01*
X4832206Y-731484D02*
X4870301Y-731484D01*
X4870301Y-731484D02*
X4889349Y-721960D01*
X4889349Y-721960D02*
X4898873Y-702912D01*
X4898873Y-702912D02*
X4898873Y-693389D01*
X4898873Y-693389D02*
X4889349Y-674341D01*
X4889349Y-674341D02*
X4870301Y-664817D01*
X4870301Y-664817D02*
X4841730Y-664817D01*
X4841730Y-664817D02*
X4822682Y-655293D01*
X4822682Y-655293D02*
X4813158Y-636246D01*
X4813158Y-636246D02*
X4813158Y-626722D01*
X4813158Y-626722D02*
X4822682Y-607674D01*
X4822682Y-607674D02*
X4841730Y-598150D01*
X4841730Y-598150D02*
X4870301Y-598150D01*
X4870301Y-598150D02*
X4889349Y-607674D01*
X4965539Y-807674D02*
X4975063Y-798150D01*
X4975063Y-798150D02*
X4994111Y-769579D01*
X4994111Y-769579D02*
X5003634Y-750531D01*
X5003634Y-750531D02*
X5013158Y-721960D01*
X5013158Y-721960D02*
X5022682Y-674341D01*
X5022682Y-674341D02*
X5022682Y-636246D01*
X5022682Y-636246D02*
X5013158Y-588627D01*
X5013158Y-588627D02*
X5003634Y-560055D01*
X5003634Y-560055D02*
X4994111Y-541008D01*
X4994111Y-541008D02*
X4975063Y-512436D01*
X4975063Y-512436D02*
X4965539Y-502912D01*
D12*
X0Y-904000D02*
G75*
G02*
X-60000Y-904000I-30000J0D01*
G01*
X-60000Y-904000D02*
G75*
G02*
X0Y-904000I30000J0D01*
G01*
D11*
X298872Y-795484D02*
X317920Y-795484D01*
X317920Y-795484D02*
X336967Y-805008D01*
X336967Y-805008D02*
X346491Y-814531D01*
X346491Y-814531D02*
X356015Y-833579D01*
X356015Y-833579D02*
X365539Y-871674D01*
X365539Y-871674D02*
X365539Y-919293D01*
X365539Y-919293D02*
X356015Y-957388D01*
X356015Y-957388D02*
X346491Y-976436D01*
X346491Y-976436D02*
X336967Y-985960D01*
X336967Y-985960D02*
X317920Y-995484D01*
X317920Y-995484D02*
X298872Y-995484D01*
X298872Y-995484D02*
X279824Y-985960D01*
X279824Y-985960D02*
X270301Y-976436D01*
X270301Y-976436D02*
X260777Y-957388D01*
X260777Y-957388D02*
X251253Y-919293D01*
X251253Y-919293D02*
X251253Y-871674D01*
X251253Y-871674D02*
X260777Y-833579D01*
X260777Y-833579D02*
X270301Y-814531D01*
X270301Y-814531D02*
X279824Y-805008D01*
X279824Y-805008D02*
X298872Y-795484D01*
X451253Y-976436D02*
X460777Y-985960D01*
X460777Y-985960D02*
X451253Y-995484D01*
X451253Y-995484D02*
X441729Y-985960D01*
X441729Y-985960D02*
X451253Y-976436D01*
X451253Y-976436D02*
X451253Y-995484D01*
X632205Y-795484D02*
X594110Y-795484D01*
X594110Y-795484D02*
X575063Y-805008D01*
X575063Y-805008D02*
X565539Y-814531D01*
X565539Y-814531D02*
X546491Y-843103D01*
X546491Y-843103D02*
X536967Y-881198D01*
X536967Y-881198D02*
X536967Y-957388D01*
X536967Y-957388D02*
X546491Y-976436D01*
X546491Y-976436D02*
X556015Y-985960D01*
X556015Y-985960D02*
X575063Y-995484D01*
X575063Y-995484D02*
X613158Y-995484D01*
X613158Y-995484D02*
X632205Y-985960D01*
X632205Y-985960D02*
X641729Y-976436D01*
X641729Y-976436D02*
X651253Y-957388D01*
X651253Y-957388D02*
X651253Y-909769D01*
X651253Y-909769D02*
X641729Y-890722D01*
X641729Y-890722D02*
X632205Y-881198D01*
X632205Y-881198D02*
X613158Y-871674D01*
X613158Y-871674D02*
X575063Y-871674D01*
X575063Y-871674D02*
X556015Y-881198D01*
X556015Y-881198D02*
X546491Y-890722D01*
X546491Y-890722D02*
X536967Y-909769D01*
X775062Y-795484D02*
X794110Y-795484D01*
X794110Y-795484D02*
X813158Y-805008D01*
X813158Y-805008D02*
X822682Y-814531D01*
X822682Y-814531D02*
X832205Y-833579D01*
X832205Y-833579D02*
X841729Y-871674D01*
X841729Y-871674D02*
X841729Y-919293D01*
X841729Y-919293D02*
X832205Y-957388D01*
X832205Y-957388D02*
X822682Y-976436D01*
X822682Y-976436D02*
X813158Y-985960D01*
X813158Y-985960D02*
X794110Y-995484D01*
X794110Y-995484D02*
X775062Y-995484D01*
X775062Y-995484D02*
X756015Y-985960D01*
X756015Y-985960D02*
X746491Y-976436D01*
X746491Y-976436D02*
X736967Y-957388D01*
X736967Y-957388D02*
X727443Y-919293D01*
X727443Y-919293D02*
X727443Y-871674D01*
X727443Y-871674D02*
X736967Y-833579D01*
X736967Y-833579D02*
X746491Y-814531D01*
X746491Y-814531D02*
X756015Y-805008D01*
X756015Y-805008D02*
X775062Y-795484D01*
X965539Y-795484D02*
X984586Y-795484D01*
X984586Y-795484D02*
X1003634Y-805008D01*
X1003634Y-805008D02*
X1013158Y-814531D01*
X1013158Y-814531D02*
X1022682Y-833579D01*
X1022682Y-833579D02*
X1032205Y-871674D01*
X1032205Y-871674D02*
X1032205Y-919293D01*
X1032205Y-919293D02*
X1022682Y-957388D01*
X1022682Y-957388D02*
X1013158Y-976436D01*
X1013158Y-976436D02*
X1003634Y-985960D01*
X1003634Y-985960D02*
X984586Y-995484D01*
X984586Y-995484D02*
X965539Y-995484D01*
X965539Y-995484D02*
X946491Y-985960D01*
X946491Y-985960D02*
X936967Y-976436D01*
X936967Y-976436D02*
X927443Y-957388D01*
X927443Y-957388D02*
X917920Y-919293D01*
X917920Y-919293D02*
X917920Y-871674D01*
X917920Y-871674D02*
X927443Y-833579D01*
X927443Y-833579D02*
X936967Y-814531D01*
X936967Y-814531D02*
X946491Y-805008D01*
X946491Y-805008D02*
X965539Y-795484D01*
X1117920Y-995484D02*
X1117920Y-862150D01*
X1117920Y-881198D02*
X1127444Y-871674D01*
X1127444Y-871674D02*
X1146491Y-862150D01*
X1146491Y-862150D02*
X1175063Y-862150D01*
X1175063Y-862150D02*
X1194110Y-871674D01*
X1194110Y-871674D02*
X1203634Y-890722D01*
X1203634Y-890722D02*
X1203634Y-995484D01*
X1203634Y-890722D02*
X1213158Y-871674D01*
X1213158Y-871674D02*
X1232205Y-862150D01*
X1232205Y-862150D02*
X1260777Y-862150D01*
X1260777Y-862150D02*
X1279825Y-871674D01*
X1279825Y-871674D02*
X1289348Y-890722D01*
X1289348Y-890722D02*
X1289348Y-995484D01*
X1384586Y-995484D02*
X1384586Y-862150D01*
X1384586Y-881198D02*
X1394110Y-871674D01*
X1394110Y-871674D02*
X1413158Y-862150D01*
X1413158Y-862150D02*
X1441729Y-862150D01*
X1441729Y-862150D02*
X1460777Y-871674D01*
X1460777Y-871674D02*
X1470301Y-890722D01*
X1470301Y-890722D02*
X1470301Y-995484D01*
X1470301Y-890722D02*
X1479824Y-871674D01*
X1479824Y-871674D02*
X1498872Y-862150D01*
X1498872Y-862150D02*
X1527443Y-862150D01*
X1527443Y-862150D02*
X1546491Y-871674D01*
X1546491Y-871674D02*
X1556015Y-890722D01*
X1556015Y-890722D02*
X1556015Y-995484D01*
X1946491Y-785960D02*
X1775063Y-1043103D01*
X2203634Y-795484D02*
X2222682Y-795484D01*
X2222682Y-795484D02*
X2241729Y-805008D01*
X2241729Y-805008D02*
X2251253Y-814531D01*
X2251253Y-814531D02*
X2260777Y-833579D01*
X2260777Y-833579D02*
X2270301Y-871674D01*
X2270301Y-871674D02*
X2270301Y-919293D01*
X2270301Y-919293D02*
X2260777Y-957388D01*
X2260777Y-957388D02*
X2251253Y-976436D01*
X2251253Y-976436D02*
X2241729Y-985960D01*
X2241729Y-985960D02*
X2222682Y-995484D01*
X2222682Y-995484D02*
X2203634Y-995484D01*
X2203634Y-995484D02*
X2184587Y-985960D01*
X2184587Y-985960D02*
X2175063Y-976436D01*
X2175063Y-976436D02*
X2165539Y-957388D01*
X2165539Y-957388D02*
X2156015Y-919293D01*
X2156015Y-919293D02*
X2156015Y-871674D01*
X2156015Y-871674D02*
X2165539Y-833579D01*
X2165539Y-833579D02*
X2175063Y-814531D01*
X2175063Y-814531D02*
X2184587Y-805008D01*
X2184587Y-805008D02*
X2203634Y-795484D01*
X2356015Y-976436D02*
X2365539Y-985960D01*
X2365539Y-985960D02*
X2356015Y-995484D01*
X2356015Y-995484D02*
X2346491Y-985960D01*
X2346491Y-985960D02*
X2356015Y-976436D01*
X2356015Y-976436D02*
X2356015Y-995484D01*
X2489348Y-795484D02*
X2508396Y-795484D01*
X2508396Y-795484D02*
X2527444Y-805008D01*
X2527444Y-805008D02*
X2536968Y-814531D01*
X2536968Y-814531D02*
X2546491Y-833579D01*
X2546491Y-833579D02*
X2556015Y-871674D01*
X2556015Y-871674D02*
X2556015Y-919293D01*
X2556015Y-919293D02*
X2546491Y-957388D01*
X2546491Y-957388D02*
X2536968Y-976436D01*
X2536968Y-976436D02*
X2527444Y-985960D01*
X2527444Y-985960D02*
X2508396Y-995484D01*
X2508396Y-995484D02*
X2489348Y-995484D01*
X2489348Y-995484D02*
X2470301Y-985960D01*
X2470301Y-985960D02*
X2460777Y-976436D01*
X2460777Y-976436D02*
X2451253Y-957388D01*
X2451253Y-957388D02*
X2441729Y-919293D01*
X2441729Y-919293D02*
X2441729Y-871674D01*
X2441729Y-871674D02*
X2451253Y-833579D01*
X2451253Y-833579D02*
X2460777Y-814531D01*
X2460777Y-814531D02*
X2470301Y-805008D01*
X2470301Y-805008D02*
X2489348Y-795484D01*
X2632206Y-814531D02*
X2641729Y-805008D01*
X2641729Y-805008D02*
X2660777Y-795484D01*
X2660777Y-795484D02*
X2708396Y-795484D01*
X2708396Y-795484D02*
X2727444Y-805008D01*
X2727444Y-805008D02*
X2736968Y-814531D01*
X2736968Y-814531D02*
X2746491Y-833579D01*
X2746491Y-833579D02*
X2746491Y-852627D01*
X2746491Y-852627D02*
X2736968Y-881198D01*
X2736968Y-881198D02*
X2622682Y-995484D01*
X2622682Y-995484D02*
X2746491Y-995484D01*
X2813158Y-795484D02*
X2936967Y-795484D01*
X2936967Y-795484D02*
X2870301Y-871674D01*
X2870301Y-871674D02*
X2898872Y-871674D01*
X2898872Y-871674D02*
X2917920Y-881198D01*
X2917920Y-881198D02*
X2927444Y-890722D01*
X2927444Y-890722D02*
X2936967Y-909769D01*
X2936967Y-909769D02*
X2936967Y-957388D01*
X2936967Y-957388D02*
X2927444Y-976436D01*
X2927444Y-976436D02*
X2917920Y-985960D01*
X2917920Y-985960D02*
X2898872Y-995484D01*
X2898872Y-995484D02*
X2841729Y-995484D01*
X2841729Y-995484D02*
X2822682Y-985960D01*
X2822682Y-985960D02*
X2813158Y-976436D01*
X3108396Y-795484D02*
X3070301Y-795484D01*
X3070301Y-795484D02*
X3051253Y-805008D01*
X3051253Y-805008D02*
X3041729Y-814531D01*
X3041729Y-814531D02*
X3022682Y-843103D01*
X3022682Y-843103D02*
X3013158Y-881198D01*
X3013158Y-881198D02*
X3013158Y-957388D01*
X3013158Y-957388D02*
X3022682Y-976436D01*
X3022682Y-976436D02*
X3032206Y-985960D01*
X3032206Y-985960D02*
X3051253Y-995484D01*
X3051253Y-995484D02*
X3089348Y-995484D01*
X3089348Y-995484D02*
X3108396Y-985960D01*
X3108396Y-985960D02*
X3117920Y-976436D01*
X3117920Y-976436D02*
X3127444Y-957388D01*
X3127444Y-957388D02*
X3127444Y-909769D01*
X3127444Y-909769D02*
X3117920Y-890722D01*
X3117920Y-890722D02*
X3108396Y-881198D01*
X3108396Y-881198D02*
X3089348Y-871674D01*
X3089348Y-871674D02*
X3051253Y-871674D01*
X3051253Y-871674D02*
X3032206Y-881198D01*
X3032206Y-881198D02*
X3022682Y-890722D01*
X3022682Y-890722D02*
X3013158Y-909769D01*
X3203634Y-795484D02*
X3203634Y-833579D01*
X3279825Y-795484D02*
X3279825Y-833579D01*
X3575063Y-1071674D02*
X3565539Y-1062150D01*
X3565539Y-1062150D02*
X3546491Y-1033579D01*
X3546491Y-1033579D02*
X3536968Y-1014531D01*
X3536968Y-1014531D02*
X3527444Y-985960D01*
X3527444Y-985960D02*
X3517920Y-938341D01*
X3517920Y-938341D02*
X3517920Y-900246D01*
X3517920Y-900246D02*
X3527444Y-852627D01*
X3527444Y-852627D02*
X3536968Y-824055D01*
X3536968Y-824055D02*
X3546491Y-805008D01*
X3546491Y-805008D02*
X3565539Y-776436D01*
X3565539Y-776436D02*
X3575063Y-766912D01*
X3689348Y-795484D02*
X3708396Y-795484D01*
X3708396Y-795484D02*
X3727444Y-805008D01*
X3727444Y-805008D02*
X3736968Y-814531D01*
X3736968Y-814531D02*
X3746491Y-833579D01*
X3746491Y-833579D02*
X3756015Y-871674D01*
X3756015Y-871674D02*
X3756015Y-919293D01*
X3756015Y-919293D02*
X3746491Y-957388D01*
X3746491Y-957388D02*
X3736968Y-976436D01*
X3736968Y-976436D02*
X3727444Y-985960D01*
X3727444Y-985960D02*
X3708396Y-995484D01*
X3708396Y-995484D02*
X3689348Y-995484D01*
X3689348Y-995484D02*
X3670301Y-985960D01*
X3670301Y-985960D02*
X3660777Y-976436D01*
X3660777Y-976436D02*
X3651253Y-957388D01*
X3651253Y-957388D02*
X3641729Y-919293D01*
X3641729Y-919293D02*
X3641729Y-871674D01*
X3641729Y-871674D02*
X3651253Y-833579D01*
X3651253Y-833579D02*
X3660777Y-814531D01*
X3660777Y-814531D02*
X3670301Y-805008D01*
X3670301Y-805008D02*
X3689348Y-795484D01*
X3994110Y-995484D02*
X3994110Y-795484D01*
X4079825Y-995484D02*
X4079825Y-890722D01*
X4079825Y-890722D02*
X4070301Y-871674D01*
X4070301Y-871674D02*
X4051253Y-862150D01*
X4051253Y-862150D02*
X4022682Y-862150D01*
X4022682Y-862150D02*
X4003634Y-871674D01*
X4003634Y-871674D02*
X3994110Y-881198D01*
X4203634Y-995484D02*
X4184587Y-985960D01*
X4184587Y-985960D02*
X4175063Y-976436D01*
X4175063Y-976436D02*
X4165539Y-957388D01*
X4165539Y-957388D02*
X4165539Y-900246D01*
X4165539Y-900246D02*
X4175063Y-881198D01*
X4175063Y-881198D02*
X4184587Y-871674D01*
X4184587Y-871674D02*
X4203634Y-862150D01*
X4203634Y-862150D02*
X4232206Y-862150D01*
X4232206Y-862150D02*
X4251253Y-871674D01*
X4251253Y-871674D02*
X4260777Y-881198D01*
X4260777Y-881198D02*
X4270301Y-900246D01*
X4270301Y-900246D02*
X4270301Y-957388D01*
X4270301Y-957388D02*
X4260777Y-976436D01*
X4260777Y-976436D02*
X4251253Y-985960D01*
X4251253Y-985960D02*
X4232206Y-995484D01*
X4232206Y-995484D02*
X4203634Y-995484D01*
X4384587Y-995484D02*
X4365539Y-985960D01*
X4365539Y-985960D02*
X4356015Y-966912D01*
X4356015Y-966912D02*
X4356015Y-795484D01*
X4536968Y-985960D02*
X4517920Y-995484D01*
X4517920Y-995484D02*
X4479825Y-995484D01*
X4479825Y-995484D02*
X4460777Y-985960D01*
X4460777Y-985960D02*
X4451253Y-966912D01*
X4451253Y-966912D02*
X4451253Y-890722D01*
X4451253Y-890722D02*
X4460777Y-871674D01*
X4460777Y-871674D02*
X4479825Y-862150D01*
X4479825Y-862150D02*
X4517920Y-862150D01*
X4517920Y-862150D02*
X4536968Y-871674D01*
X4536968Y-871674D02*
X4546492Y-890722D01*
X4546492Y-890722D02*
X4546492Y-909769D01*
X4546492Y-909769D02*
X4451253Y-928817D01*
X4622682Y-985960D02*
X4641730Y-995484D01*
X4641730Y-995484D02*
X4679825Y-995484D01*
X4679825Y-995484D02*
X4698873Y-985960D01*
X4698873Y-985960D02*
X4708396Y-966912D01*
X4708396Y-966912D02*
X4708396Y-957388D01*
X4708396Y-957388D02*
X4698873Y-938341D01*
X4698873Y-938341D02*
X4679825Y-928817D01*
X4679825Y-928817D02*
X4651253Y-928817D01*
X4651253Y-928817D02*
X4632206Y-919293D01*
X4632206Y-919293D02*
X4622682Y-900246D01*
X4622682Y-900246D02*
X4622682Y-890722D01*
X4622682Y-890722D02*
X4632206Y-871674D01*
X4632206Y-871674D02*
X4651253Y-862150D01*
X4651253Y-862150D02*
X4679825Y-862150D01*
X4679825Y-862150D02*
X4698873Y-871674D01*
X4946492Y-919293D02*
X5098873Y-919293D01*
X5022682Y-995484D02*
X5022682Y-843103D01*
X5432206Y-862150D02*
X5432206Y-995484D01*
X5384587Y-785960D02*
X5336968Y-928817D01*
X5336968Y-928817D02*
X5460777Y-928817D01*
X5679825Y-985960D02*
X5698873Y-995484D01*
X5698873Y-995484D02*
X5736968Y-995484D01*
X5736968Y-995484D02*
X5756015Y-985960D01*
X5756015Y-985960D02*
X5765539Y-966912D01*
X5765539Y-966912D02*
X5765539Y-957388D01*
X5765539Y-957388D02*
X5756015Y-938341D01*
X5756015Y-938341D02*
X5736968Y-928817D01*
X5736968Y-928817D02*
X5708396Y-928817D01*
X5708396Y-928817D02*
X5689349Y-919293D01*
X5689349Y-919293D02*
X5679825Y-900246D01*
X5679825Y-900246D02*
X5679825Y-890722D01*
X5679825Y-890722D02*
X5689349Y-871674D01*
X5689349Y-871674D02*
X5708396Y-862150D01*
X5708396Y-862150D02*
X5736968Y-862150D01*
X5736968Y-862150D02*
X5756015Y-871674D01*
X5879825Y-995484D02*
X5860777Y-985960D01*
X5860777Y-985960D02*
X5851254Y-966912D01*
X5851254Y-966912D02*
X5851254Y-795484D01*
X5984587Y-995484D02*
X5965539Y-985960D01*
X5965539Y-985960D02*
X5956015Y-976436D01*
X5956015Y-976436D02*
X5946492Y-957388D01*
X5946492Y-957388D02*
X5946492Y-900246D01*
X5946492Y-900246D02*
X5956015Y-881198D01*
X5956015Y-881198D02*
X5965539Y-871674D01*
X5965539Y-871674D02*
X5984587Y-862150D01*
X5984587Y-862150D02*
X6013158Y-862150D01*
X6013158Y-862150D02*
X6032206Y-871674D01*
X6032206Y-871674D02*
X6041730Y-881198D01*
X6041730Y-881198D02*
X6051254Y-900246D01*
X6051254Y-900246D02*
X6051254Y-957388D01*
X6051254Y-957388D02*
X6041730Y-976436D01*
X6041730Y-976436D02*
X6032206Y-985960D01*
X6032206Y-985960D02*
X6013158Y-995484D01*
X6013158Y-995484D02*
X5984587Y-995484D01*
X6108396Y-862150D02*
X6184587Y-862150D01*
X6136968Y-795484D02*
X6136968Y-966912D01*
X6136968Y-966912D02*
X6146492Y-985960D01*
X6146492Y-985960D02*
X6165539Y-995484D01*
X6165539Y-995484D02*
X6184587Y-995484D01*
X6241730Y-985960D02*
X6260777Y-995484D01*
X6260777Y-995484D02*
X6298873Y-995484D01*
X6298873Y-995484D02*
X6317920Y-985960D01*
X6317920Y-985960D02*
X6327444Y-966912D01*
X6327444Y-966912D02*
X6327444Y-957388D01*
X6327444Y-957388D02*
X6317920Y-938341D01*
X6317920Y-938341D02*
X6298873Y-928817D01*
X6298873Y-928817D02*
X6270301Y-928817D01*
X6270301Y-928817D02*
X6251254Y-919293D01*
X6251254Y-919293D02*
X6241730Y-900246D01*
X6241730Y-900246D02*
X6241730Y-890722D01*
X6241730Y-890722D02*
X6251254Y-871674D01*
X6251254Y-871674D02*
X6270301Y-862150D01*
X6270301Y-862150D02*
X6298873Y-862150D01*
X6298873Y-862150D02*
X6317920Y-871674D01*
X6394111Y-1071674D02*
X6403635Y-1062150D01*
X6403635Y-1062150D02*
X6422682Y-1033579D01*
X6422682Y-1033579D02*
X6432206Y-1014531D01*
X6432206Y-1014531D02*
X6441730Y-985960D01*
X6441730Y-985960D02*
X6451254Y-938341D01*
X6451254Y-938341D02*
X6451254Y-900246D01*
X6451254Y-900246D02*
X6441730Y-852627D01*
X6441730Y-852627D02*
X6432206Y-824055D01*
X6432206Y-824055D02*
X6422682Y-805008D01*
X6422682Y-805008D02*
X6403635Y-776436D01*
X6403635Y-776436D02*
X6394111Y-766912D01*
D12*
X-37500Y-1130500D02*
X-37500Y-1205500D01*
X-75000Y-1168000D02*
X0Y-1168000D01*
D11*
X298872Y-1059484D02*
X317920Y-1059484D01*
X317920Y-1059484D02*
X336967Y-1069008D01*
X336967Y-1069008D02*
X346491Y-1078531D01*
X346491Y-1078531D02*
X356015Y-1097579D01*
X356015Y-1097579D02*
X365539Y-1135674D01*
X365539Y-1135674D02*
X365539Y-1183293D01*
X365539Y-1183293D02*
X356015Y-1221389D01*
X356015Y-1221389D02*
X346491Y-1240436D01*
X346491Y-1240436D02*
X336967Y-1249960D01*
X336967Y-1249960D02*
X317920Y-1259484D01*
X317920Y-1259484D02*
X298872Y-1259484D01*
X298872Y-1259484D02*
X279824Y-1249960D01*
X279824Y-1249960D02*
X270301Y-1240436D01*
X270301Y-1240436D02*
X260777Y-1221389D01*
X260777Y-1221389D02*
X251253Y-1183293D01*
X251253Y-1183293D02*
X251253Y-1135674D01*
X251253Y-1135674D02*
X260777Y-1097579D01*
X260777Y-1097579D02*
X270301Y-1078531D01*
X270301Y-1078531D02*
X279824Y-1069008D01*
X279824Y-1069008D02*
X298872Y-1059484D01*
X451253Y-1240436D02*
X460777Y-1249960D01*
X460777Y-1249960D02*
X451253Y-1259484D01*
X451253Y-1259484D02*
X441729Y-1249960D01*
X441729Y-1249960D02*
X451253Y-1240436D01*
X451253Y-1240436D02*
X451253Y-1259484D01*
X527444Y-1059484D02*
X660777Y-1059484D01*
X660777Y-1059484D02*
X575063Y-1259484D01*
X832205Y-1059484D02*
X736967Y-1059484D01*
X736967Y-1059484D02*
X727443Y-1154722D01*
X727443Y-1154722D02*
X736967Y-1145198D01*
X736967Y-1145198D02*
X756015Y-1135674D01*
X756015Y-1135674D02*
X803634Y-1135674D01*
X803634Y-1135674D02*
X822682Y-1145198D01*
X822682Y-1145198D02*
X832205Y-1154722D01*
X832205Y-1154722D02*
X841729Y-1173770D01*
X841729Y-1173770D02*
X841729Y-1221389D01*
X841729Y-1221389D02*
X832205Y-1240436D01*
X832205Y-1240436D02*
X822682Y-1249960D01*
X822682Y-1249960D02*
X803634Y-1259484D01*
X803634Y-1259484D02*
X756015Y-1259484D01*
X756015Y-1259484D02*
X736967Y-1249960D01*
X736967Y-1249960D02*
X727443Y-1240436D01*
X965539Y-1059484D02*
X984586Y-1059484D01*
X984586Y-1059484D02*
X1003634Y-1069008D01*
X1003634Y-1069008D02*
X1013158Y-1078531D01*
X1013158Y-1078531D02*
X1022682Y-1097579D01*
X1022682Y-1097579D02*
X1032205Y-1135674D01*
X1032205Y-1135674D02*
X1032205Y-1183293D01*
X1032205Y-1183293D02*
X1022682Y-1221389D01*
X1022682Y-1221389D02*
X1013158Y-1240436D01*
X1013158Y-1240436D02*
X1003634Y-1249960D01*
X1003634Y-1249960D02*
X984586Y-1259484D01*
X984586Y-1259484D02*
X965539Y-1259484D01*
X965539Y-1259484D02*
X946491Y-1249960D01*
X946491Y-1249960D02*
X936967Y-1240436D01*
X936967Y-1240436D02*
X927443Y-1221389D01*
X927443Y-1221389D02*
X917920Y-1183293D01*
X917920Y-1183293D02*
X917920Y-1135674D01*
X917920Y-1135674D02*
X927443Y-1097579D01*
X927443Y-1097579D02*
X936967Y-1078531D01*
X936967Y-1078531D02*
X946491Y-1069008D01*
X946491Y-1069008D02*
X965539Y-1059484D01*
X1117920Y-1259484D02*
X1117920Y-1126150D01*
X1117920Y-1145198D02*
X1127444Y-1135674D01*
X1127444Y-1135674D02*
X1146491Y-1126150D01*
X1146491Y-1126150D02*
X1175063Y-1126150D01*
X1175063Y-1126150D02*
X1194110Y-1135674D01*
X1194110Y-1135674D02*
X1203634Y-1154722D01*
X1203634Y-1154722D02*
X1203634Y-1259484D01*
X1203634Y-1154722D02*
X1213158Y-1135674D01*
X1213158Y-1135674D02*
X1232205Y-1126150D01*
X1232205Y-1126150D02*
X1260777Y-1126150D01*
X1260777Y-1126150D02*
X1279825Y-1135674D01*
X1279825Y-1135674D02*
X1289348Y-1154722D01*
X1289348Y-1154722D02*
X1289348Y-1259484D01*
X1384586Y-1259484D02*
X1384586Y-1126150D01*
X1384586Y-1145198D02*
X1394110Y-1135674D01*
X1394110Y-1135674D02*
X1413158Y-1126150D01*
X1413158Y-1126150D02*
X1441729Y-1126150D01*
X1441729Y-1126150D02*
X1460777Y-1135674D01*
X1460777Y-1135674D02*
X1470301Y-1154722D01*
X1470301Y-1154722D02*
X1470301Y-1259484D01*
X1470301Y-1154722D02*
X1479824Y-1135674D01*
X1479824Y-1135674D02*
X1498872Y-1126150D01*
X1498872Y-1126150D02*
X1527443Y-1126150D01*
X1527443Y-1126150D02*
X1546491Y-1135674D01*
X1546491Y-1135674D02*
X1556015Y-1154722D01*
X1556015Y-1154722D02*
X1556015Y-1259484D01*
X1946491Y-1049960D02*
X1775063Y-1307103D01*
X2203634Y-1059484D02*
X2222682Y-1059484D01*
X2222682Y-1059484D02*
X2241729Y-1069008D01*
X2241729Y-1069008D02*
X2251253Y-1078531D01*
X2251253Y-1078531D02*
X2260777Y-1097579D01*
X2260777Y-1097579D02*
X2270301Y-1135674D01*
X2270301Y-1135674D02*
X2270301Y-1183293D01*
X2270301Y-1183293D02*
X2260777Y-1221389D01*
X2260777Y-1221389D02*
X2251253Y-1240436D01*
X2251253Y-1240436D02*
X2241729Y-1249960D01*
X2241729Y-1249960D02*
X2222682Y-1259484D01*
X2222682Y-1259484D02*
X2203634Y-1259484D01*
X2203634Y-1259484D02*
X2184587Y-1249960D01*
X2184587Y-1249960D02*
X2175063Y-1240436D01*
X2175063Y-1240436D02*
X2165539Y-1221389D01*
X2165539Y-1221389D02*
X2156015Y-1183293D01*
X2156015Y-1183293D02*
X2156015Y-1135674D01*
X2156015Y-1135674D02*
X2165539Y-1097579D01*
X2165539Y-1097579D02*
X2175063Y-1078531D01*
X2175063Y-1078531D02*
X2184587Y-1069008D01*
X2184587Y-1069008D02*
X2203634Y-1059484D01*
X2356015Y-1240436D02*
X2365539Y-1249960D01*
X2365539Y-1249960D02*
X2356015Y-1259484D01*
X2356015Y-1259484D02*
X2346491Y-1249960D01*
X2346491Y-1249960D02*
X2356015Y-1240436D01*
X2356015Y-1240436D02*
X2356015Y-1259484D01*
X2489348Y-1059484D02*
X2508396Y-1059484D01*
X2508396Y-1059484D02*
X2527444Y-1069008D01*
X2527444Y-1069008D02*
X2536968Y-1078531D01*
X2536968Y-1078531D02*
X2546491Y-1097579D01*
X2546491Y-1097579D02*
X2556015Y-1135674D01*
X2556015Y-1135674D02*
X2556015Y-1183293D01*
X2556015Y-1183293D02*
X2546491Y-1221389D01*
X2546491Y-1221389D02*
X2536968Y-1240436D01*
X2536968Y-1240436D02*
X2527444Y-1249960D01*
X2527444Y-1249960D02*
X2508396Y-1259484D01*
X2508396Y-1259484D02*
X2489348Y-1259484D01*
X2489348Y-1259484D02*
X2470301Y-1249960D01*
X2470301Y-1249960D02*
X2460777Y-1240436D01*
X2460777Y-1240436D02*
X2451253Y-1221389D01*
X2451253Y-1221389D02*
X2441729Y-1183293D01*
X2441729Y-1183293D02*
X2441729Y-1135674D01*
X2441729Y-1135674D02*
X2451253Y-1097579D01*
X2451253Y-1097579D02*
X2460777Y-1078531D01*
X2460777Y-1078531D02*
X2470301Y-1069008D01*
X2470301Y-1069008D02*
X2489348Y-1059484D01*
X2632206Y-1078531D02*
X2641729Y-1069008D01*
X2641729Y-1069008D02*
X2660777Y-1059484D01*
X2660777Y-1059484D02*
X2708396Y-1059484D01*
X2708396Y-1059484D02*
X2727444Y-1069008D01*
X2727444Y-1069008D02*
X2736968Y-1078531D01*
X2736968Y-1078531D02*
X2746491Y-1097579D01*
X2746491Y-1097579D02*
X2746491Y-1116627D01*
X2746491Y-1116627D02*
X2736968Y-1145198D01*
X2736968Y-1145198D02*
X2622682Y-1259484D01*
X2622682Y-1259484D02*
X2746491Y-1259484D01*
X2841729Y-1259484D02*
X2879825Y-1259484D01*
X2879825Y-1259484D02*
X2898872Y-1249960D01*
X2898872Y-1249960D02*
X2908396Y-1240436D01*
X2908396Y-1240436D02*
X2927444Y-1211865D01*
X2927444Y-1211865D02*
X2936967Y-1173770D01*
X2936967Y-1173770D02*
X2936967Y-1097579D01*
X2936967Y-1097579D02*
X2927444Y-1078531D01*
X2927444Y-1078531D02*
X2917920Y-1069008D01*
X2917920Y-1069008D02*
X2898872Y-1059484D01*
X2898872Y-1059484D02*
X2860777Y-1059484D01*
X2860777Y-1059484D02*
X2841729Y-1069008D01*
X2841729Y-1069008D02*
X2832206Y-1078531D01*
X2832206Y-1078531D02*
X2822682Y-1097579D01*
X2822682Y-1097579D02*
X2822682Y-1145198D01*
X2822682Y-1145198D02*
X2832206Y-1164246D01*
X2832206Y-1164246D02*
X2841729Y-1173770D01*
X2841729Y-1173770D02*
X2860777Y-1183293D01*
X2860777Y-1183293D02*
X2898872Y-1183293D01*
X2898872Y-1183293D02*
X2917920Y-1173770D01*
X2917920Y-1173770D02*
X2927444Y-1164246D01*
X2927444Y-1164246D02*
X2936967Y-1145198D01*
X3117920Y-1059484D02*
X3022682Y-1059484D01*
X3022682Y-1059484D02*
X3013158Y-1154722D01*
X3013158Y-1154722D02*
X3022682Y-1145198D01*
X3022682Y-1145198D02*
X3041729Y-1135674D01*
X3041729Y-1135674D02*
X3089348Y-1135674D01*
X3089348Y-1135674D02*
X3108396Y-1145198D01*
X3108396Y-1145198D02*
X3117920Y-1154722D01*
X3117920Y-1154722D02*
X3127444Y-1173770D01*
X3127444Y-1173770D02*
X3127444Y-1221389D01*
X3127444Y-1221389D02*
X3117920Y-1240436D01*
X3117920Y-1240436D02*
X3108396Y-1249960D01*
X3108396Y-1249960D02*
X3089348Y-1259484D01*
X3089348Y-1259484D02*
X3041729Y-1259484D01*
X3041729Y-1259484D02*
X3022682Y-1249960D01*
X3022682Y-1249960D02*
X3013158Y-1240436D01*
X3203634Y-1059484D02*
X3203634Y-1097579D01*
X3279825Y-1059484D02*
X3279825Y-1097579D01*
X3575063Y-1335674D02*
X3565539Y-1326150D01*
X3565539Y-1326150D02*
X3546491Y-1297579D01*
X3546491Y-1297579D02*
X3536968Y-1278531D01*
X3536968Y-1278531D02*
X3527444Y-1249960D01*
X3527444Y-1249960D02*
X3517920Y-1202341D01*
X3517920Y-1202341D02*
X3517920Y-1164246D01*
X3517920Y-1164246D02*
X3527444Y-1116627D01*
X3527444Y-1116627D02*
X3536968Y-1088055D01*
X3536968Y-1088055D02*
X3546491Y-1069008D01*
X3546491Y-1069008D02*
X3565539Y-1040436D01*
X3565539Y-1040436D02*
X3575063Y-1030912D01*
X3756015Y-1259484D02*
X3641729Y-1259484D01*
X3698872Y-1259484D02*
X3698872Y-1059484D01*
X3698872Y-1059484D02*
X3679825Y-1088055D01*
X3679825Y-1088055D02*
X3660777Y-1107103D01*
X3660777Y-1107103D02*
X3641729Y-1116627D01*
X3927444Y-1126150D02*
X3927444Y-1259484D01*
X3879825Y-1049960D02*
X3832206Y-1192817D01*
X3832206Y-1192817D02*
X3956015Y-1192817D01*
X4184587Y-1259484D02*
X4184587Y-1059484D01*
X4270301Y-1259484D02*
X4270301Y-1154722D01*
X4270301Y-1154722D02*
X4260777Y-1135674D01*
X4260777Y-1135674D02*
X4241730Y-1126150D01*
X4241730Y-1126150D02*
X4213158Y-1126150D01*
X4213158Y-1126150D02*
X4194110Y-1135674D01*
X4194110Y-1135674D02*
X4184587Y-1145198D01*
X4394111Y-1259484D02*
X4375063Y-1249960D01*
X4375063Y-1249960D02*
X4365539Y-1240436D01*
X4365539Y-1240436D02*
X4356015Y-1221389D01*
X4356015Y-1221389D02*
X4356015Y-1164246D01*
X4356015Y-1164246D02*
X4365539Y-1145198D01*
X4365539Y-1145198D02*
X4375063Y-1135674D01*
X4375063Y-1135674D02*
X4394111Y-1126150D01*
X4394111Y-1126150D02*
X4422682Y-1126150D01*
X4422682Y-1126150D02*
X4441730Y-1135674D01*
X4441730Y-1135674D02*
X4451253Y-1145198D01*
X4451253Y-1145198D02*
X4460777Y-1164246D01*
X4460777Y-1164246D02*
X4460777Y-1221389D01*
X4460777Y-1221389D02*
X4451253Y-1240436D01*
X4451253Y-1240436D02*
X4441730Y-1249960D01*
X4441730Y-1249960D02*
X4422682Y-1259484D01*
X4422682Y-1259484D02*
X4394111Y-1259484D01*
X4575063Y-1259484D02*
X4556015Y-1249960D01*
X4556015Y-1249960D02*
X4546492Y-1230912D01*
X4546492Y-1230912D02*
X4546492Y-1059484D01*
X4727444Y-1249960D02*
X4708396Y-1259484D01*
X4708396Y-1259484D02*
X4670301Y-1259484D01*
X4670301Y-1259484D02*
X4651253Y-1249960D01*
X4651253Y-1249960D02*
X4641730Y-1230912D01*
X4641730Y-1230912D02*
X4641730Y-1154722D01*
X4641730Y-1154722D02*
X4651253Y-1135674D01*
X4651253Y-1135674D02*
X4670301Y-1126150D01*
X4670301Y-1126150D02*
X4708396Y-1126150D01*
X4708396Y-1126150D02*
X4727444Y-1135674D01*
X4727444Y-1135674D02*
X4736968Y-1154722D01*
X4736968Y-1154722D02*
X4736968Y-1173770D01*
X4736968Y-1173770D02*
X4641730Y-1192817D01*
X4813158Y-1249960D02*
X4832206Y-1259484D01*
X4832206Y-1259484D02*
X4870301Y-1259484D01*
X4870301Y-1259484D02*
X4889349Y-1249960D01*
X4889349Y-1249960D02*
X4898873Y-1230912D01*
X4898873Y-1230912D02*
X4898873Y-1221389D01*
X4898873Y-1221389D02*
X4889349Y-1202341D01*
X4889349Y-1202341D02*
X4870301Y-1192817D01*
X4870301Y-1192817D02*
X4841730Y-1192817D01*
X4841730Y-1192817D02*
X4822682Y-1183293D01*
X4822682Y-1183293D02*
X4813158Y-1164246D01*
X4813158Y-1164246D02*
X4813158Y-1154722D01*
X4813158Y-1154722D02*
X4822682Y-1135674D01*
X4822682Y-1135674D02*
X4841730Y-1126150D01*
X4841730Y-1126150D02*
X4870301Y-1126150D01*
X4870301Y-1126150D02*
X4889349Y-1135674D01*
X4965539Y-1335674D02*
X4975063Y-1326150D01*
X4975063Y-1326150D02*
X4994111Y-1297579D01*
X4994111Y-1297579D02*
X5003634Y-1278531D01*
X5003634Y-1278531D02*
X5013158Y-1249960D01*
X5013158Y-1249960D02*
X5022682Y-1202341D01*
X5022682Y-1202341D02*
X5022682Y-1164246D01*
X5022682Y-1164246D02*
X5013158Y-1116627D01*
X5013158Y-1116627D02*
X5003634Y-1088055D01*
X5003634Y-1088055D02*
X4994111Y-1069008D01*
X4994111Y-1069008D02*
X4975063Y-1040436D01*
X4975063Y-1040436D02*
X4965539Y-1030912D01*
D12*
X-11715Y-1460284D02*
X-11715Y-1403715D01*
X-68285Y-1403715D01*
X-68285Y-1460284D01*
X-11715Y-1460284D01*
D11*
X298872Y-1323484D02*
X317920Y-1323484D01*
X317920Y-1323484D02*
X336967Y-1333008D01*
X336967Y-1333008D02*
X346491Y-1342531D01*
X346491Y-1342531D02*
X356015Y-1361579D01*
X356015Y-1361579D02*
X365539Y-1399674D01*
X365539Y-1399674D02*
X365539Y-1447293D01*
X365539Y-1447293D02*
X356015Y-1485388D01*
X356015Y-1485388D02*
X346491Y-1504436D01*
X346491Y-1504436D02*
X336967Y-1513960D01*
X336967Y-1513960D02*
X317920Y-1523484D01*
X317920Y-1523484D02*
X298872Y-1523484D01*
X298872Y-1523484D02*
X279824Y-1513960D01*
X279824Y-1513960D02*
X270301Y-1504436D01*
X270301Y-1504436D02*
X260777Y-1485388D01*
X260777Y-1485388D02*
X251253Y-1447293D01*
X251253Y-1447293D02*
X251253Y-1399674D01*
X251253Y-1399674D02*
X260777Y-1361579D01*
X260777Y-1361579D02*
X270301Y-1342531D01*
X270301Y-1342531D02*
X279824Y-1333008D01*
X279824Y-1333008D02*
X298872Y-1323484D01*
X451253Y-1504436D02*
X460777Y-1513960D01*
X460777Y-1513960D02*
X451253Y-1523484D01*
X451253Y-1523484D02*
X441729Y-1513960D01*
X441729Y-1513960D02*
X451253Y-1504436D01*
X451253Y-1504436D02*
X451253Y-1523484D01*
X575063Y-1409198D02*
X556015Y-1399674D01*
X556015Y-1399674D02*
X546491Y-1390150D01*
X546491Y-1390150D02*
X536967Y-1371103D01*
X536967Y-1371103D02*
X536967Y-1361579D01*
X536967Y-1361579D02*
X546491Y-1342531D01*
X546491Y-1342531D02*
X556015Y-1333008D01*
X556015Y-1333008D02*
X575063Y-1323484D01*
X575063Y-1323484D02*
X613158Y-1323484D01*
X613158Y-1323484D02*
X632205Y-1333008D01*
X632205Y-1333008D02*
X641729Y-1342531D01*
X641729Y-1342531D02*
X651253Y-1361579D01*
X651253Y-1361579D02*
X651253Y-1371103D01*
X651253Y-1371103D02*
X641729Y-1390150D01*
X641729Y-1390150D02*
X632205Y-1399674D01*
X632205Y-1399674D02*
X613158Y-1409198D01*
X613158Y-1409198D02*
X575063Y-1409198D01*
X575063Y-1409198D02*
X556015Y-1418722D01*
X556015Y-1418722D02*
X546491Y-1428246D01*
X546491Y-1428246D02*
X536967Y-1447293D01*
X536967Y-1447293D02*
X536967Y-1485388D01*
X536967Y-1485388D02*
X546491Y-1504436D01*
X546491Y-1504436D02*
X556015Y-1513960D01*
X556015Y-1513960D02*
X575063Y-1523484D01*
X575063Y-1523484D02*
X613158Y-1523484D01*
X613158Y-1523484D02*
X632205Y-1513960D01*
X632205Y-1513960D02*
X641729Y-1504436D01*
X641729Y-1504436D02*
X651253Y-1485388D01*
X651253Y-1485388D02*
X651253Y-1447293D01*
X651253Y-1447293D02*
X641729Y-1428246D01*
X641729Y-1428246D02*
X632205Y-1418722D01*
X632205Y-1418722D02*
X613158Y-1409198D01*
X775062Y-1323484D02*
X794110Y-1323484D01*
X794110Y-1323484D02*
X813158Y-1333008D01*
X813158Y-1333008D02*
X822682Y-1342531D01*
X822682Y-1342531D02*
X832205Y-1361579D01*
X832205Y-1361579D02*
X841729Y-1399674D01*
X841729Y-1399674D02*
X841729Y-1447293D01*
X841729Y-1447293D02*
X832205Y-1485388D01*
X832205Y-1485388D02*
X822682Y-1504436D01*
X822682Y-1504436D02*
X813158Y-1513960D01*
X813158Y-1513960D02*
X794110Y-1523484D01*
X794110Y-1523484D02*
X775062Y-1523484D01*
X775062Y-1523484D02*
X756015Y-1513960D01*
X756015Y-1513960D02*
X746491Y-1504436D01*
X746491Y-1504436D02*
X736967Y-1485388D01*
X736967Y-1485388D02*
X727443Y-1447293D01*
X727443Y-1447293D02*
X727443Y-1399674D01*
X727443Y-1399674D02*
X736967Y-1361579D01*
X736967Y-1361579D02*
X746491Y-1342531D01*
X746491Y-1342531D02*
X756015Y-1333008D01*
X756015Y-1333008D02*
X775062Y-1323484D01*
X965539Y-1323484D02*
X984586Y-1323484D01*
X984586Y-1323484D02*
X1003634Y-1333008D01*
X1003634Y-1333008D02*
X1013158Y-1342531D01*
X1013158Y-1342531D02*
X1022682Y-1361579D01*
X1022682Y-1361579D02*
X1032205Y-1399674D01*
X1032205Y-1399674D02*
X1032205Y-1447293D01*
X1032205Y-1447293D02*
X1022682Y-1485388D01*
X1022682Y-1485388D02*
X1013158Y-1504436D01*
X1013158Y-1504436D02*
X1003634Y-1513960D01*
X1003634Y-1513960D02*
X984586Y-1523484D01*
X984586Y-1523484D02*
X965539Y-1523484D01*
X965539Y-1523484D02*
X946491Y-1513960D01*
X946491Y-1513960D02*
X936967Y-1504436D01*
X936967Y-1504436D02*
X927443Y-1485388D01*
X927443Y-1485388D02*
X917920Y-1447293D01*
X917920Y-1447293D02*
X917920Y-1399674D01*
X917920Y-1399674D02*
X927443Y-1361579D01*
X927443Y-1361579D02*
X936967Y-1342531D01*
X936967Y-1342531D02*
X946491Y-1333008D01*
X946491Y-1333008D02*
X965539Y-1323484D01*
X1117920Y-1523484D02*
X1117920Y-1390150D01*
X1117920Y-1409198D02*
X1127444Y-1399674D01*
X1127444Y-1399674D02*
X1146491Y-1390150D01*
X1146491Y-1390150D02*
X1175063Y-1390150D01*
X1175063Y-1390150D02*
X1194110Y-1399674D01*
X1194110Y-1399674D02*
X1203634Y-1418722D01*
X1203634Y-1418722D02*
X1203634Y-1523484D01*
X1203634Y-1418722D02*
X1213158Y-1399674D01*
X1213158Y-1399674D02*
X1232205Y-1390150D01*
X1232205Y-1390150D02*
X1260777Y-1390150D01*
X1260777Y-1390150D02*
X1279825Y-1399674D01*
X1279825Y-1399674D02*
X1289348Y-1418722D01*
X1289348Y-1418722D02*
X1289348Y-1523484D01*
X1384586Y-1523484D02*
X1384586Y-1390150D01*
X1384586Y-1409198D02*
X1394110Y-1399674D01*
X1394110Y-1399674D02*
X1413158Y-1390150D01*
X1413158Y-1390150D02*
X1441729Y-1390150D01*
X1441729Y-1390150D02*
X1460777Y-1399674D01*
X1460777Y-1399674D02*
X1470301Y-1418722D01*
X1470301Y-1418722D02*
X1470301Y-1523484D01*
X1470301Y-1418722D02*
X1479824Y-1399674D01*
X1479824Y-1399674D02*
X1498872Y-1390150D01*
X1498872Y-1390150D02*
X1527443Y-1390150D01*
X1527443Y-1390150D02*
X1546491Y-1399674D01*
X1546491Y-1399674D02*
X1556015Y-1418722D01*
X1556015Y-1418722D02*
X1556015Y-1523484D01*
X1946491Y-1313960D02*
X1775063Y-1571103D01*
X2203634Y-1323484D02*
X2222682Y-1323484D01*
X2222682Y-1323484D02*
X2241729Y-1333008D01*
X2241729Y-1333008D02*
X2251253Y-1342531D01*
X2251253Y-1342531D02*
X2260777Y-1361579D01*
X2260777Y-1361579D02*
X2270301Y-1399674D01*
X2270301Y-1399674D02*
X2270301Y-1447293D01*
X2270301Y-1447293D02*
X2260777Y-1485388D01*
X2260777Y-1485388D02*
X2251253Y-1504436D01*
X2251253Y-1504436D02*
X2241729Y-1513960D01*
X2241729Y-1513960D02*
X2222682Y-1523484D01*
X2222682Y-1523484D02*
X2203634Y-1523484D01*
X2203634Y-1523484D02*
X2184587Y-1513960D01*
X2184587Y-1513960D02*
X2175063Y-1504436D01*
X2175063Y-1504436D02*
X2165539Y-1485388D01*
X2165539Y-1485388D02*
X2156015Y-1447293D01*
X2156015Y-1447293D02*
X2156015Y-1399674D01*
X2156015Y-1399674D02*
X2165539Y-1361579D01*
X2165539Y-1361579D02*
X2175063Y-1342531D01*
X2175063Y-1342531D02*
X2184587Y-1333008D01*
X2184587Y-1333008D02*
X2203634Y-1323484D01*
X2356015Y-1504436D02*
X2365539Y-1513960D01*
X2365539Y-1513960D02*
X2356015Y-1523484D01*
X2356015Y-1523484D02*
X2346491Y-1513960D01*
X2346491Y-1513960D02*
X2356015Y-1504436D01*
X2356015Y-1504436D02*
X2356015Y-1523484D01*
X2489348Y-1323484D02*
X2508396Y-1323484D01*
X2508396Y-1323484D02*
X2527444Y-1333008D01*
X2527444Y-1333008D02*
X2536968Y-1342531D01*
X2536968Y-1342531D02*
X2546491Y-1361579D01*
X2546491Y-1361579D02*
X2556015Y-1399674D01*
X2556015Y-1399674D02*
X2556015Y-1447293D01*
X2556015Y-1447293D02*
X2546491Y-1485388D01*
X2546491Y-1485388D02*
X2536968Y-1504436D01*
X2536968Y-1504436D02*
X2527444Y-1513960D01*
X2527444Y-1513960D02*
X2508396Y-1523484D01*
X2508396Y-1523484D02*
X2489348Y-1523484D01*
X2489348Y-1523484D02*
X2470301Y-1513960D01*
X2470301Y-1513960D02*
X2460777Y-1504436D01*
X2460777Y-1504436D02*
X2451253Y-1485388D01*
X2451253Y-1485388D02*
X2441729Y-1447293D01*
X2441729Y-1447293D02*
X2441729Y-1399674D01*
X2441729Y-1399674D02*
X2451253Y-1361579D01*
X2451253Y-1361579D02*
X2460777Y-1342531D01*
X2460777Y-1342531D02*
X2470301Y-1333008D01*
X2470301Y-1333008D02*
X2489348Y-1323484D01*
X2622682Y-1323484D02*
X2746491Y-1323484D01*
X2746491Y-1323484D02*
X2679825Y-1399674D01*
X2679825Y-1399674D02*
X2708396Y-1399674D01*
X2708396Y-1399674D02*
X2727444Y-1409198D01*
X2727444Y-1409198D02*
X2736968Y-1418722D01*
X2736968Y-1418722D02*
X2746491Y-1437769D01*
X2746491Y-1437769D02*
X2746491Y-1485388D01*
X2746491Y-1485388D02*
X2736968Y-1504436D01*
X2736968Y-1504436D02*
X2727444Y-1513960D01*
X2727444Y-1513960D02*
X2708396Y-1523484D01*
X2708396Y-1523484D02*
X2651253Y-1523484D01*
X2651253Y-1523484D02*
X2632206Y-1513960D01*
X2632206Y-1513960D02*
X2622682Y-1504436D01*
X2936967Y-1523484D02*
X2822682Y-1523484D01*
X2879825Y-1523484D02*
X2879825Y-1323484D01*
X2879825Y-1323484D02*
X2860777Y-1352055D01*
X2860777Y-1352055D02*
X2841729Y-1371103D01*
X2841729Y-1371103D02*
X2822682Y-1380627D01*
X3117920Y-1323484D02*
X3022682Y-1323484D01*
X3022682Y-1323484D02*
X3013158Y-1418722D01*
X3013158Y-1418722D02*
X3022682Y-1409198D01*
X3022682Y-1409198D02*
X3041729Y-1399674D01*
X3041729Y-1399674D02*
X3089348Y-1399674D01*
X3089348Y-1399674D02*
X3108396Y-1409198D01*
X3108396Y-1409198D02*
X3117920Y-1418722D01*
X3117920Y-1418722D02*
X3127444Y-1437769D01*
X3127444Y-1437769D02*
X3127444Y-1485388D01*
X3127444Y-1485388D02*
X3117920Y-1504436D01*
X3117920Y-1504436D02*
X3108396Y-1513960D01*
X3108396Y-1513960D02*
X3089348Y-1523484D01*
X3089348Y-1523484D02*
X3041729Y-1523484D01*
X3041729Y-1523484D02*
X3022682Y-1513960D01*
X3022682Y-1513960D02*
X3013158Y-1504436D01*
X3203634Y-1323484D02*
X3203634Y-1361579D01*
X3279825Y-1323484D02*
X3279825Y-1361579D01*
X3575063Y-1599674D02*
X3565539Y-1590150D01*
X3565539Y-1590150D02*
X3546491Y-1561579D01*
X3546491Y-1561579D02*
X3536968Y-1542531D01*
X3536968Y-1542531D02*
X3527444Y-1513960D01*
X3527444Y-1513960D02*
X3517920Y-1466341D01*
X3517920Y-1466341D02*
X3517920Y-1428246D01*
X3517920Y-1428246D02*
X3527444Y-1380627D01*
X3527444Y-1380627D02*
X3536968Y-1352055D01*
X3536968Y-1352055D02*
X3546491Y-1333008D01*
X3546491Y-1333008D02*
X3565539Y-1304436D01*
X3565539Y-1304436D02*
X3575063Y-1294912D01*
X3736968Y-1390150D02*
X3736968Y-1523484D01*
X3689348Y-1313960D02*
X3641729Y-1456817D01*
X3641729Y-1456817D02*
X3765539Y-1456817D01*
X3994110Y-1523484D02*
X3994110Y-1323484D01*
X4079825Y-1523484D02*
X4079825Y-1418722D01*
X4079825Y-1418722D02*
X4070301Y-1399674D01*
X4070301Y-1399674D02*
X4051253Y-1390150D01*
X4051253Y-1390150D02*
X4022682Y-1390150D01*
X4022682Y-1390150D02*
X4003634Y-1399674D01*
X4003634Y-1399674D02*
X3994110Y-1409198D01*
X4203634Y-1523484D02*
X4184587Y-1513960D01*
X4184587Y-1513960D02*
X4175063Y-1504436D01*
X4175063Y-1504436D02*
X4165539Y-1485388D01*
X4165539Y-1485388D02*
X4165539Y-1428246D01*
X4165539Y-1428246D02*
X4175063Y-1409198D01*
X4175063Y-1409198D02*
X4184587Y-1399674D01*
X4184587Y-1399674D02*
X4203634Y-1390150D01*
X4203634Y-1390150D02*
X4232206Y-1390150D01*
X4232206Y-1390150D02*
X4251253Y-1399674D01*
X4251253Y-1399674D02*
X4260777Y-1409198D01*
X4260777Y-1409198D02*
X4270301Y-1428246D01*
X4270301Y-1428246D02*
X4270301Y-1485388D01*
X4270301Y-1485388D02*
X4260777Y-1504436D01*
X4260777Y-1504436D02*
X4251253Y-1513960D01*
X4251253Y-1513960D02*
X4232206Y-1523484D01*
X4232206Y-1523484D02*
X4203634Y-1523484D01*
X4384587Y-1523484D02*
X4365539Y-1513960D01*
X4365539Y-1513960D02*
X4356015Y-1494912D01*
X4356015Y-1494912D02*
X4356015Y-1323484D01*
X4536968Y-1513960D02*
X4517920Y-1523484D01*
X4517920Y-1523484D02*
X4479825Y-1523484D01*
X4479825Y-1523484D02*
X4460777Y-1513960D01*
X4460777Y-1513960D02*
X4451253Y-1494912D01*
X4451253Y-1494912D02*
X4451253Y-1418722D01*
X4451253Y-1418722D02*
X4460777Y-1399674D01*
X4460777Y-1399674D02*
X4479825Y-1390150D01*
X4479825Y-1390150D02*
X4517920Y-1390150D01*
X4517920Y-1390150D02*
X4536968Y-1399674D01*
X4536968Y-1399674D02*
X4546492Y-1418722D01*
X4546492Y-1418722D02*
X4546492Y-1437769D01*
X4546492Y-1437769D02*
X4451253Y-1456817D01*
X4622682Y-1513960D02*
X4641730Y-1523484D01*
X4641730Y-1523484D02*
X4679825Y-1523484D01*
X4679825Y-1523484D02*
X4698873Y-1513960D01*
X4698873Y-1513960D02*
X4708396Y-1494912D01*
X4708396Y-1494912D02*
X4708396Y-1485388D01*
X4708396Y-1485388D02*
X4698873Y-1466341D01*
X4698873Y-1466341D02*
X4679825Y-1456817D01*
X4679825Y-1456817D02*
X4651253Y-1456817D01*
X4651253Y-1456817D02*
X4632206Y-1447293D01*
X4632206Y-1447293D02*
X4622682Y-1428246D01*
X4622682Y-1428246D02*
X4622682Y-1418722D01*
X4622682Y-1418722D02*
X4632206Y-1399674D01*
X4632206Y-1399674D02*
X4651253Y-1390150D01*
X4651253Y-1390150D02*
X4679825Y-1390150D01*
X4679825Y-1390150D02*
X4698873Y-1399674D01*
X4775063Y-1599674D02*
X4784587Y-1590150D01*
X4784587Y-1590150D02*
X4803634Y-1561579D01*
X4803634Y-1561579D02*
X4813158Y-1542531D01*
X4813158Y-1542531D02*
X4822682Y-1513960D01*
X4822682Y-1513960D02*
X4832206Y-1466341D01*
X4832206Y-1466341D02*
X4832206Y-1428246D01*
X4832206Y-1428246D02*
X4822682Y-1380627D01*
X4822682Y-1380627D02*
X4813158Y-1352055D01*
X4813158Y-1352055D02*
X4803634Y-1333008D01*
X4803634Y-1333008D02*
X4784587Y-1304436D01*
X4784587Y-1304436D02*
X4775063Y-1294912D01*
D12*
X-50000Y-1746000D02*
X0Y-1696000D01*
X-50000Y-1646000D01*
X-100000Y-1696000D01*
X-50000Y-1746000D01*
D11*
X365539Y-1787484D02*
X251253Y-1787484D01*
X308396Y-1787484D02*
X308396Y-1587484D01*
X308396Y-1587484D02*
X289348Y-1616055D01*
X289348Y-1616055D02*
X270301Y-1635103D01*
X270301Y-1635103D02*
X251253Y-1644627D01*
X451253Y-1768436D02*
X460777Y-1777960D01*
X460777Y-1777960D02*
X451253Y-1787484D01*
X451253Y-1787484D02*
X441729Y-1777960D01*
X441729Y-1777960D02*
X451253Y-1768436D01*
X451253Y-1768436D02*
X451253Y-1787484D01*
X584586Y-1587484D02*
X603634Y-1587484D01*
X603634Y-1587484D02*
X622682Y-1597008D01*
X622682Y-1597008D02*
X632205Y-1606531D01*
X632205Y-1606531D02*
X641729Y-1625579D01*
X641729Y-1625579D02*
X651253Y-1663674D01*
X651253Y-1663674D02*
X651253Y-1711293D01*
X651253Y-1711293D02*
X641729Y-1749388D01*
X641729Y-1749388D02*
X632205Y-1768436D01*
X632205Y-1768436D02*
X622682Y-1777960D01*
X622682Y-1777960D02*
X603634Y-1787484D01*
X603634Y-1787484D02*
X584586Y-1787484D01*
X584586Y-1787484D02*
X565539Y-1777960D01*
X565539Y-1777960D02*
X556015Y-1768436D01*
X556015Y-1768436D02*
X546491Y-1749388D01*
X546491Y-1749388D02*
X536967Y-1711293D01*
X536967Y-1711293D02*
X536967Y-1663674D01*
X536967Y-1663674D02*
X546491Y-1625579D01*
X546491Y-1625579D02*
X556015Y-1606531D01*
X556015Y-1606531D02*
X565539Y-1597008D01*
X565539Y-1597008D02*
X584586Y-1587484D01*
X775062Y-1587484D02*
X794110Y-1587484D01*
X794110Y-1587484D02*
X813158Y-1597008D01*
X813158Y-1597008D02*
X822682Y-1606531D01*
X822682Y-1606531D02*
X832205Y-1625579D01*
X832205Y-1625579D02*
X841729Y-1663674D01*
X841729Y-1663674D02*
X841729Y-1711293D01*
X841729Y-1711293D02*
X832205Y-1749388D01*
X832205Y-1749388D02*
X822682Y-1768436D01*
X822682Y-1768436D02*
X813158Y-1777960D01*
X813158Y-1777960D02*
X794110Y-1787484D01*
X794110Y-1787484D02*
X775062Y-1787484D01*
X775062Y-1787484D02*
X756015Y-1777960D01*
X756015Y-1777960D02*
X746491Y-1768436D01*
X746491Y-1768436D02*
X736967Y-1749388D01*
X736967Y-1749388D02*
X727443Y-1711293D01*
X727443Y-1711293D02*
X727443Y-1663674D01*
X727443Y-1663674D02*
X736967Y-1625579D01*
X736967Y-1625579D02*
X746491Y-1606531D01*
X746491Y-1606531D02*
X756015Y-1597008D01*
X756015Y-1597008D02*
X775062Y-1587484D01*
X965539Y-1587484D02*
X984586Y-1587484D01*
X984586Y-1587484D02*
X1003634Y-1597008D01*
X1003634Y-1597008D02*
X1013158Y-1606531D01*
X1013158Y-1606531D02*
X1022682Y-1625579D01*
X1022682Y-1625579D02*
X1032205Y-1663674D01*
X1032205Y-1663674D02*
X1032205Y-1711293D01*
X1032205Y-1711293D02*
X1022682Y-1749388D01*
X1022682Y-1749388D02*
X1013158Y-1768436D01*
X1013158Y-1768436D02*
X1003634Y-1777960D01*
X1003634Y-1777960D02*
X984586Y-1787484D01*
X984586Y-1787484D02*
X965539Y-1787484D01*
X965539Y-1787484D02*
X946491Y-1777960D01*
X946491Y-1777960D02*
X936967Y-1768436D01*
X936967Y-1768436D02*
X927443Y-1749388D01*
X927443Y-1749388D02*
X917920Y-1711293D01*
X917920Y-1711293D02*
X917920Y-1663674D01*
X917920Y-1663674D02*
X927443Y-1625579D01*
X927443Y-1625579D02*
X936967Y-1606531D01*
X936967Y-1606531D02*
X946491Y-1597008D01*
X946491Y-1597008D02*
X965539Y-1587484D01*
X1117920Y-1787484D02*
X1117920Y-1654150D01*
X1117920Y-1673198D02*
X1127444Y-1663674D01*
X1127444Y-1663674D02*
X1146491Y-1654150D01*
X1146491Y-1654150D02*
X1175063Y-1654150D01*
X1175063Y-1654150D02*
X1194110Y-1663674D01*
X1194110Y-1663674D02*
X1203634Y-1682722D01*
X1203634Y-1682722D02*
X1203634Y-1787484D01*
X1203634Y-1682722D02*
X1213158Y-1663674D01*
X1213158Y-1663674D02*
X1232205Y-1654150D01*
X1232205Y-1654150D02*
X1260777Y-1654150D01*
X1260777Y-1654150D02*
X1279825Y-1663674D01*
X1279825Y-1663674D02*
X1289348Y-1682722D01*
X1289348Y-1682722D02*
X1289348Y-1787484D01*
X1384586Y-1787484D02*
X1384586Y-1654150D01*
X1384586Y-1673198D02*
X1394110Y-1663674D01*
X1394110Y-1663674D02*
X1413158Y-1654150D01*
X1413158Y-1654150D02*
X1441729Y-1654150D01*
X1441729Y-1654150D02*
X1460777Y-1663674D01*
X1460777Y-1663674D02*
X1470301Y-1682722D01*
X1470301Y-1682722D02*
X1470301Y-1787484D01*
X1470301Y-1682722D02*
X1479824Y-1663674D01*
X1479824Y-1663674D02*
X1498872Y-1654150D01*
X1498872Y-1654150D02*
X1527443Y-1654150D01*
X1527443Y-1654150D02*
X1546491Y-1663674D01*
X1546491Y-1663674D02*
X1556015Y-1682722D01*
X1556015Y-1682722D02*
X1556015Y-1787484D01*
X1946491Y-1577960D02*
X1775063Y-1835103D01*
X2203634Y-1587484D02*
X2222682Y-1587484D01*
X2222682Y-1587484D02*
X2241729Y-1597008D01*
X2241729Y-1597008D02*
X2251253Y-1606531D01*
X2251253Y-1606531D02*
X2260777Y-1625579D01*
X2260777Y-1625579D02*
X2270301Y-1663674D01*
X2270301Y-1663674D02*
X2270301Y-1711293D01*
X2270301Y-1711293D02*
X2260777Y-1749388D01*
X2260777Y-1749388D02*
X2251253Y-1768436D01*
X2251253Y-1768436D02*
X2241729Y-1777960D01*
X2241729Y-1777960D02*
X2222682Y-1787484D01*
X2222682Y-1787484D02*
X2203634Y-1787484D01*
X2203634Y-1787484D02*
X2184587Y-1777960D01*
X2184587Y-1777960D02*
X2175063Y-1768436D01*
X2175063Y-1768436D02*
X2165539Y-1749388D01*
X2165539Y-1749388D02*
X2156015Y-1711293D01*
X2156015Y-1711293D02*
X2156015Y-1663674D01*
X2156015Y-1663674D02*
X2165539Y-1625579D01*
X2165539Y-1625579D02*
X2175063Y-1606531D01*
X2175063Y-1606531D02*
X2184587Y-1597008D01*
X2184587Y-1597008D02*
X2203634Y-1587484D01*
X2356015Y-1768436D02*
X2365539Y-1777960D01*
X2365539Y-1777960D02*
X2356015Y-1787484D01*
X2356015Y-1787484D02*
X2346491Y-1777960D01*
X2346491Y-1777960D02*
X2356015Y-1768436D01*
X2356015Y-1768436D02*
X2356015Y-1787484D01*
X2489348Y-1587484D02*
X2508396Y-1587484D01*
X2508396Y-1587484D02*
X2527444Y-1597008D01*
X2527444Y-1597008D02*
X2536968Y-1606531D01*
X2536968Y-1606531D02*
X2546491Y-1625579D01*
X2546491Y-1625579D02*
X2556015Y-1663674D01*
X2556015Y-1663674D02*
X2556015Y-1711293D01*
X2556015Y-1711293D02*
X2546491Y-1749388D01*
X2546491Y-1749388D02*
X2536968Y-1768436D01*
X2536968Y-1768436D02*
X2527444Y-1777960D01*
X2527444Y-1777960D02*
X2508396Y-1787484D01*
X2508396Y-1787484D02*
X2489348Y-1787484D01*
X2489348Y-1787484D02*
X2470301Y-1777960D01*
X2470301Y-1777960D02*
X2460777Y-1768436D01*
X2460777Y-1768436D02*
X2451253Y-1749388D01*
X2451253Y-1749388D02*
X2441729Y-1711293D01*
X2441729Y-1711293D02*
X2441729Y-1663674D01*
X2441729Y-1663674D02*
X2451253Y-1625579D01*
X2451253Y-1625579D02*
X2460777Y-1606531D01*
X2460777Y-1606531D02*
X2470301Y-1597008D01*
X2470301Y-1597008D02*
X2489348Y-1587484D01*
X2622682Y-1587484D02*
X2746491Y-1587484D01*
X2746491Y-1587484D02*
X2679825Y-1663674D01*
X2679825Y-1663674D02*
X2708396Y-1663674D01*
X2708396Y-1663674D02*
X2727444Y-1673198D01*
X2727444Y-1673198D02*
X2736968Y-1682722D01*
X2736968Y-1682722D02*
X2746491Y-1701769D01*
X2746491Y-1701769D02*
X2746491Y-1749388D01*
X2746491Y-1749388D02*
X2736968Y-1768436D01*
X2736968Y-1768436D02*
X2727444Y-1777960D01*
X2727444Y-1777960D02*
X2708396Y-1787484D01*
X2708396Y-1787484D02*
X2651253Y-1787484D01*
X2651253Y-1787484D02*
X2632206Y-1777960D01*
X2632206Y-1777960D02*
X2622682Y-1768436D01*
X2841729Y-1787484D02*
X2879825Y-1787484D01*
X2879825Y-1787484D02*
X2898872Y-1777960D01*
X2898872Y-1777960D02*
X2908396Y-1768436D01*
X2908396Y-1768436D02*
X2927444Y-1739865D01*
X2927444Y-1739865D02*
X2936967Y-1701769D01*
X2936967Y-1701769D02*
X2936967Y-1625579D01*
X2936967Y-1625579D02*
X2927444Y-1606531D01*
X2927444Y-1606531D02*
X2917920Y-1597008D01*
X2917920Y-1597008D02*
X2898872Y-1587484D01*
X2898872Y-1587484D02*
X2860777Y-1587484D01*
X2860777Y-1587484D02*
X2841729Y-1597008D01*
X2841729Y-1597008D02*
X2832206Y-1606531D01*
X2832206Y-1606531D02*
X2822682Y-1625579D01*
X2822682Y-1625579D02*
X2822682Y-1673198D01*
X2822682Y-1673198D02*
X2832206Y-1692246D01*
X2832206Y-1692246D02*
X2841729Y-1701769D01*
X2841729Y-1701769D02*
X2860777Y-1711293D01*
X2860777Y-1711293D02*
X2898872Y-1711293D01*
X2898872Y-1711293D02*
X2917920Y-1701769D01*
X2917920Y-1701769D02*
X2927444Y-1692246D01*
X2927444Y-1692246D02*
X2936967Y-1673198D01*
X3108396Y-1654150D02*
X3108396Y-1787484D01*
X3060777Y-1577960D02*
X3013158Y-1720817D01*
X3013158Y-1720817D02*
X3136967Y-1720817D01*
X3203634Y-1587484D02*
X3203634Y-1625579D01*
X3279825Y-1587484D02*
X3279825Y-1625579D01*
X3575063Y-1863674D02*
X3565539Y-1854150D01*
X3565539Y-1854150D02*
X3546491Y-1825579D01*
X3546491Y-1825579D02*
X3536968Y-1806531D01*
X3536968Y-1806531D02*
X3527444Y-1777960D01*
X3527444Y-1777960D02*
X3517920Y-1730341D01*
X3517920Y-1730341D02*
X3517920Y-1692246D01*
X3517920Y-1692246D02*
X3527444Y-1644627D01*
X3527444Y-1644627D02*
X3536968Y-1616055D01*
X3536968Y-1616055D02*
X3546491Y-1597008D01*
X3546491Y-1597008D02*
X3565539Y-1568436D01*
X3565539Y-1568436D02*
X3575063Y-1558912D01*
X3736968Y-1654150D02*
X3736968Y-1787484D01*
X3689348Y-1577960D02*
X3641729Y-1720817D01*
X3641729Y-1720817D02*
X3765539Y-1720817D01*
X3946491Y-1787484D02*
X3832206Y-1787484D01*
X3889348Y-1787484D02*
X3889348Y-1587484D01*
X3889348Y-1587484D02*
X3870301Y-1616055D01*
X3870301Y-1616055D02*
X3851253Y-1635103D01*
X3851253Y-1635103D02*
X3832206Y-1644627D01*
X4184587Y-1787484D02*
X4184587Y-1587484D01*
X4270301Y-1787484D02*
X4270301Y-1682722D01*
X4270301Y-1682722D02*
X4260777Y-1663674D01*
X4260777Y-1663674D02*
X4241730Y-1654150D01*
X4241730Y-1654150D02*
X4213158Y-1654150D01*
X4213158Y-1654150D02*
X4194110Y-1663674D01*
X4194110Y-1663674D02*
X4184587Y-1673198D01*
X4394111Y-1787484D02*
X4375063Y-1777960D01*
X4375063Y-1777960D02*
X4365539Y-1768436D01*
X4365539Y-1768436D02*
X4356015Y-1749388D01*
X4356015Y-1749388D02*
X4356015Y-1692246D01*
X4356015Y-1692246D02*
X4365539Y-1673198D01*
X4365539Y-1673198D02*
X4375063Y-1663674D01*
X4375063Y-1663674D02*
X4394111Y-1654150D01*
X4394111Y-1654150D02*
X4422682Y-1654150D01*
X4422682Y-1654150D02*
X4441730Y-1663674D01*
X4441730Y-1663674D02*
X4451253Y-1673198D01*
X4451253Y-1673198D02*
X4460777Y-1692246D01*
X4460777Y-1692246D02*
X4460777Y-1749388D01*
X4460777Y-1749388D02*
X4451253Y-1768436D01*
X4451253Y-1768436D02*
X4441730Y-1777960D01*
X4441730Y-1777960D02*
X4422682Y-1787484D01*
X4422682Y-1787484D02*
X4394111Y-1787484D01*
X4575063Y-1787484D02*
X4556015Y-1777960D01*
X4556015Y-1777960D02*
X4546492Y-1758912D01*
X4546492Y-1758912D02*
X4546492Y-1587484D01*
X4727444Y-1777960D02*
X4708396Y-1787484D01*
X4708396Y-1787484D02*
X4670301Y-1787484D01*
X4670301Y-1787484D02*
X4651253Y-1777960D01*
X4651253Y-1777960D02*
X4641730Y-1758912D01*
X4641730Y-1758912D02*
X4641730Y-1682722D01*
X4641730Y-1682722D02*
X4651253Y-1663674D01*
X4651253Y-1663674D02*
X4670301Y-1654150D01*
X4670301Y-1654150D02*
X4708396Y-1654150D01*
X4708396Y-1654150D02*
X4727444Y-1663674D01*
X4727444Y-1663674D02*
X4736968Y-1682722D01*
X4736968Y-1682722D02*
X4736968Y-1701769D01*
X4736968Y-1701769D02*
X4641730Y-1720817D01*
X4813158Y-1777960D02*
X4832206Y-1787484D01*
X4832206Y-1787484D02*
X4870301Y-1787484D01*
X4870301Y-1787484D02*
X4889349Y-1777960D01*
X4889349Y-1777960D02*
X4898873Y-1758912D01*
X4898873Y-1758912D02*
X4898873Y-1749388D01*
X4898873Y-1749388D02*
X4889349Y-1730341D01*
X4889349Y-1730341D02*
X4870301Y-1720817D01*
X4870301Y-1720817D02*
X4841730Y-1720817D01*
X4841730Y-1720817D02*
X4822682Y-1711293D01*
X4822682Y-1711293D02*
X4813158Y-1692246D01*
X4813158Y-1692246D02*
X4813158Y-1682722D01*
X4813158Y-1682722D02*
X4822682Y-1663674D01*
X4822682Y-1663674D02*
X4841730Y-1654150D01*
X4841730Y-1654150D02*
X4870301Y-1654150D01*
X4870301Y-1654150D02*
X4889349Y-1663674D01*
X4965539Y-1863674D02*
X4975063Y-1854150D01*
X4975063Y-1854150D02*
X4994111Y-1825579D01*
X4994111Y-1825579D02*
X5003634Y-1806531D01*
X5003634Y-1806531D02*
X5013158Y-1777960D01*
X5013158Y-1777960D02*
X5022682Y-1730341D01*
X5022682Y-1730341D02*
X5022682Y-1692246D01*
X5022682Y-1692246D02*
X5013158Y-1644627D01*
X5013158Y-1644627D02*
X5003634Y-1616055D01*
X5003634Y-1616055D02*
X4994111Y-1597008D01*
X4994111Y-1597008D02*
X4975063Y-1568436D01*
X4975063Y-1568436D02*
X4965539Y-1558912D01*
D13*
X-120000Y-1900000D02*
X0Y-2020000D01*
X0Y-1900000D02*
X-120000Y-2020000D01*
X0Y-1960000D02*
G75*
G02*
X-120000Y-1960000I-60000J0D01*
G01*
X-120000Y-1960000D02*
G75*
G02*
X0Y-1960000I60000J0D01*
G01*
D11*
X365539Y-2051484D02*
X251253Y-2051484D01*
X308396Y-2051484D02*
X308396Y-1851484D01*
X308396Y-1851484D02*
X289348Y-1880055D01*
X289348Y-1880055D02*
X270301Y-1899103D01*
X270301Y-1899103D02*
X251253Y-1908627D01*
X451253Y-2032436D02*
X460777Y-2041960D01*
X460777Y-2041960D02*
X451253Y-2051484D01*
X451253Y-2051484D02*
X441729Y-2041960D01*
X441729Y-2041960D02*
X451253Y-2032436D01*
X451253Y-2032436D02*
X451253Y-2051484D01*
X536967Y-1870531D02*
X546491Y-1861008D01*
X546491Y-1861008D02*
X565539Y-1851484D01*
X565539Y-1851484D02*
X613158Y-1851484D01*
X613158Y-1851484D02*
X632205Y-1861008D01*
X632205Y-1861008D02*
X641729Y-1870531D01*
X641729Y-1870531D02*
X651253Y-1889579D01*
X651253Y-1889579D02*
X651253Y-1908627D01*
X651253Y-1908627D02*
X641729Y-1937198D01*
X641729Y-1937198D02*
X527444Y-2051484D01*
X527444Y-2051484D02*
X651253Y-2051484D01*
X775062Y-1851484D02*
X794110Y-1851484D01*
X794110Y-1851484D02*
X813158Y-1861008D01*
X813158Y-1861008D02*
X822682Y-1870531D01*
X822682Y-1870531D02*
X832205Y-1889579D01*
X832205Y-1889579D02*
X841729Y-1927674D01*
X841729Y-1927674D02*
X841729Y-1975293D01*
X841729Y-1975293D02*
X832205Y-2013388D01*
X832205Y-2013388D02*
X822682Y-2032436D01*
X822682Y-2032436D02*
X813158Y-2041960D01*
X813158Y-2041960D02*
X794110Y-2051484D01*
X794110Y-2051484D02*
X775062Y-2051484D01*
X775062Y-2051484D02*
X756015Y-2041960D01*
X756015Y-2041960D02*
X746491Y-2032436D01*
X746491Y-2032436D02*
X736967Y-2013388D01*
X736967Y-2013388D02*
X727443Y-1975293D01*
X727443Y-1975293D02*
X727443Y-1927674D01*
X727443Y-1927674D02*
X736967Y-1889579D01*
X736967Y-1889579D02*
X746491Y-1870531D01*
X746491Y-1870531D02*
X756015Y-1861008D01*
X756015Y-1861008D02*
X775062Y-1851484D01*
X965539Y-1851484D02*
X984586Y-1851484D01*
X984586Y-1851484D02*
X1003634Y-1861008D01*
X1003634Y-1861008D02*
X1013158Y-1870531D01*
X1013158Y-1870531D02*
X1022682Y-1889579D01*
X1022682Y-1889579D02*
X1032205Y-1927674D01*
X1032205Y-1927674D02*
X1032205Y-1975293D01*
X1032205Y-1975293D02*
X1022682Y-2013388D01*
X1022682Y-2013388D02*
X1013158Y-2032436D01*
X1013158Y-2032436D02*
X1003634Y-2041960D01*
X1003634Y-2041960D02*
X984586Y-2051484D01*
X984586Y-2051484D02*
X965539Y-2051484D01*
X965539Y-2051484D02*
X946491Y-2041960D01*
X946491Y-2041960D02*
X936967Y-2032436D01*
X936967Y-2032436D02*
X927443Y-2013388D01*
X927443Y-2013388D02*
X917920Y-1975293D01*
X917920Y-1975293D02*
X917920Y-1927674D01*
X917920Y-1927674D02*
X927443Y-1889579D01*
X927443Y-1889579D02*
X936967Y-1870531D01*
X936967Y-1870531D02*
X946491Y-1861008D01*
X946491Y-1861008D02*
X965539Y-1851484D01*
X1117920Y-2051484D02*
X1117920Y-1918150D01*
X1117920Y-1937198D02*
X1127444Y-1927674D01*
X1127444Y-1927674D02*
X1146491Y-1918150D01*
X1146491Y-1918150D02*
X1175063Y-1918150D01*
X1175063Y-1918150D02*
X1194110Y-1927674D01*
X1194110Y-1927674D02*
X1203634Y-1946722D01*
X1203634Y-1946722D02*
X1203634Y-2051484D01*
X1203634Y-1946722D02*
X1213158Y-1927674D01*
X1213158Y-1927674D02*
X1232205Y-1918150D01*
X1232205Y-1918150D02*
X1260777Y-1918150D01*
X1260777Y-1918150D02*
X1279825Y-1927674D01*
X1279825Y-1927674D02*
X1289348Y-1946722D01*
X1289348Y-1946722D02*
X1289348Y-2051484D01*
X1384586Y-2051484D02*
X1384586Y-1918150D01*
X1384586Y-1937198D02*
X1394110Y-1927674D01*
X1394110Y-1927674D02*
X1413158Y-1918150D01*
X1413158Y-1918150D02*
X1441729Y-1918150D01*
X1441729Y-1918150D02*
X1460777Y-1927674D01*
X1460777Y-1927674D02*
X1470301Y-1946722D01*
X1470301Y-1946722D02*
X1470301Y-2051484D01*
X1470301Y-1946722D02*
X1479824Y-1927674D01*
X1479824Y-1927674D02*
X1498872Y-1918150D01*
X1498872Y-1918150D02*
X1527443Y-1918150D01*
X1527443Y-1918150D02*
X1546491Y-1927674D01*
X1546491Y-1927674D02*
X1556015Y-1946722D01*
X1556015Y-1946722D02*
X1556015Y-2051484D01*
X1946491Y-1841960D02*
X1775063Y-2099103D01*
X2203634Y-1851484D02*
X2222682Y-1851484D01*
X2222682Y-1851484D02*
X2241729Y-1861008D01*
X2241729Y-1861008D02*
X2251253Y-1870531D01*
X2251253Y-1870531D02*
X2260777Y-1889579D01*
X2260777Y-1889579D02*
X2270301Y-1927674D01*
X2270301Y-1927674D02*
X2270301Y-1975293D01*
X2270301Y-1975293D02*
X2260777Y-2013388D01*
X2260777Y-2013388D02*
X2251253Y-2032436D01*
X2251253Y-2032436D02*
X2241729Y-2041960D01*
X2241729Y-2041960D02*
X2222682Y-2051484D01*
X2222682Y-2051484D02*
X2203634Y-2051484D01*
X2203634Y-2051484D02*
X2184587Y-2041960D01*
X2184587Y-2041960D02*
X2175063Y-2032436D01*
X2175063Y-2032436D02*
X2165539Y-2013388D01*
X2165539Y-2013388D02*
X2156015Y-1975293D01*
X2156015Y-1975293D02*
X2156015Y-1927674D01*
X2156015Y-1927674D02*
X2165539Y-1889579D01*
X2165539Y-1889579D02*
X2175063Y-1870531D01*
X2175063Y-1870531D02*
X2184587Y-1861008D01*
X2184587Y-1861008D02*
X2203634Y-1851484D01*
X2356015Y-2032436D02*
X2365539Y-2041960D01*
X2365539Y-2041960D02*
X2356015Y-2051484D01*
X2356015Y-2051484D02*
X2346491Y-2041960D01*
X2346491Y-2041960D02*
X2356015Y-2032436D01*
X2356015Y-2032436D02*
X2356015Y-2051484D01*
X2489348Y-1851484D02*
X2508396Y-1851484D01*
X2508396Y-1851484D02*
X2527444Y-1861008D01*
X2527444Y-1861008D02*
X2536968Y-1870531D01*
X2536968Y-1870531D02*
X2546491Y-1889579D01*
X2546491Y-1889579D02*
X2556015Y-1927674D01*
X2556015Y-1927674D02*
X2556015Y-1975293D01*
X2556015Y-1975293D02*
X2546491Y-2013388D01*
X2546491Y-2013388D02*
X2536968Y-2032436D01*
X2536968Y-2032436D02*
X2527444Y-2041960D01*
X2527444Y-2041960D02*
X2508396Y-2051484D01*
X2508396Y-2051484D02*
X2489348Y-2051484D01*
X2489348Y-2051484D02*
X2470301Y-2041960D01*
X2470301Y-2041960D02*
X2460777Y-2032436D01*
X2460777Y-2032436D02*
X2451253Y-2013388D01*
X2451253Y-2013388D02*
X2441729Y-1975293D01*
X2441729Y-1975293D02*
X2441729Y-1927674D01*
X2441729Y-1927674D02*
X2451253Y-1889579D01*
X2451253Y-1889579D02*
X2460777Y-1870531D01*
X2460777Y-1870531D02*
X2470301Y-1861008D01*
X2470301Y-1861008D02*
X2489348Y-1851484D01*
X2727444Y-1918150D02*
X2727444Y-2051484D01*
X2679825Y-1841960D02*
X2632206Y-1984817D01*
X2632206Y-1984817D02*
X2756015Y-1984817D01*
X2813158Y-1851484D02*
X2946491Y-1851484D01*
X2946491Y-1851484D02*
X2860777Y-2051484D01*
X3013158Y-1870531D02*
X3022682Y-1861008D01*
X3022682Y-1861008D02*
X3041729Y-1851484D01*
X3041729Y-1851484D02*
X3089348Y-1851484D01*
X3089348Y-1851484D02*
X3108396Y-1861008D01*
X3108396Y-1861008D02*
X3117920Y-1870531D01*
X3117920Y-1870531D02*
X3127444Y-1889579D01*
X3127444Y-1889579D02*
X3127444Y-1908627D01*
X3127444Y-1908627D02*
X3117920Y-1937198D01*
X3117920Y-1937198D02*
X3003634Y-2051484D01*
X3003634Y-2051484D02*
X3127444Y-2051484D01*
X3203634Y-1851484D02*
X3203634Y-1889579D01*
X3279825Y-1851484D02*
X3279825Y-1889579D01*
X3575063Y-2127674D02*
X3565539Y-2118150D01*
X3565539Y-2118150D02*
X3546491Y-2089579D01*
X3546491Y-2089579D02*
X3536968Y-2070531D01*
X3536968Y-2070531D02*
X3527444Y-2041960D01*
X3527444Y-2041960D02*
X3517920Y-1994341D01*
X3517920Y-1994341D02*
X3517920Y-1956246D01*
X3517920Y-1956246D02*
X3527444Y-1908627D01*
X3527444Y-1908627D02*
X3536968Y-1880055D01*
X3536968Y-1880055D02*
X3546491Y-1861008D01*
X3546491Y-1861008D02*
X3565539Y-1832436D01*
X3565539Y-1832436D02*
X3575063Y-1822912D01*
X3756015Y-2051484D02*
X3641729Y-2051484D01*
X3698872Y-2051484D02*
X3698872Y-1851484D01*
X3698872Y-1851484D02*
X3679825Y-1880055D01*
X3679825Y-1880055D02*
X3660777Y-1899103D01*
X3660777Y-1899103D02*
X3641729Y-1908627D01*
X3994110Y-2051484D02*
X3994110Y-1851484D01*
X4079825Y-2051484D02*
X4079825Y-1946722D01*
X4079825Y-1946722D02*
X4070301Y-1927674D01*
X4070301Y-1927674D02*
X4051253Y-1918150D01*
X4051253Y-1918150D02*
X4022682Y-1918150D01*
X4022682Y-1918150D02*
X4003634Y-1927674D01*
X4003634Y-1927674D02*
X3994110Y-1937198D01*
X4203634Y-2051484D02*
X4184587Y-2041960D01*
X4184587Y-2041960D02*
X4175063Y-2032436D01*
X4175063Y-2032436D02*
X4165539Y-2013388D01*
X4165539Y-2013388D02*
X4165539Y-1956246D01*
X4165539Y-1956246D02*
X4175063Y-1937198D01*
X4175063Y-1937198D02*
X4184587Y-1927674D01*
X4184587Y-1927674D02*
X4203634Y-1918150D01*
X4203634Y-1918150D02*
X4232206Y-1918150D01*
X4232206Y-1918150D02*
X4251253Y-1927674D01*
X4251253Y-1927674D02*
X4260777Y-1937198D01*
X4260777Y-1937198D02*
X4270301Y-1956246D01*
X4270301Y-1956246D02*
X4270301Y-2013388D01*
X4270301Y-2013388D02*
X4260777Y-2032436D01*
X4260777Y-2032436D02*
X4251253Y-2041960D01*
X4251253Y-2041960D02*
X4232206Y-2051484D01*
X4232206Y-2051484D02*
X4203634Y-2051484D01*
X4384587Y-2051484D02*
X4365539Y-2041960D01*
X4365539Y-2041960D02*
X4356015Y-2022912D01*
X4356015Y-2022912D02*
X4356015Y-1851484D01*
X4536968Y-2041960D02*
X4517920Y-2051484D01*
X4517920Y-2051484D02*
X4479825Y-2051484D01*
X4479825Y-2051484D02*
X4460777Y-2041960D01*
X4460777Y-2041960D02*
X4451253Y-2022912D01*
X4451253Y-2022912D02*
X4451253Y-1946722D01*
X4451253Y-1946722D02*
X4460777Y-1927674D01*
X4460777Y-1927674D02*
X4479825Y-1918150D01*
X4479825Y-1918150D02*
X4517920Y-1918150D01*
X4517920Y-1918150D02*
X4536968Y-1927674D01*
X4536968Y-1927674D02*
X4546492Y-1946722D01*
X4546492Y-1946722D02*
X4546492Y-1965769D01*
X4546492Y-1965769D02*
X4451253Y-1984817D01*
X4613158Y-2127674D02*
X4622682Y-2118150D01*
X4622682Y-2118150D02*
X4641730Y-2089579D01*
X4641730Y-2089579D02*
X4651253Y-2070531D01*
X4651253Y-2070531D02*
X4660777Y-2041960D01*
X4660777Y-2041960D02*
X4670301Y-1994341D01*
X4670301Y-1994341D02*
X4670301Y-1956246D01*
X4670301Y-1956246D02*
X4660777Y-1908627D01*
X4660777Y-1908627D02*
X4651253Y-1880055D01*
X4651253Y-1880055D02*
X4641730Y-1861008D01*
X4641730Y-1861008D02*
X4622682Y-1832436D01*
X4622682Y-1832436D02*
X4613158Y-1822912D01*
D14*
X-130000Y-2159000D02*
X0Y-2289000D01*
X0Y-2159000D02*
X-130000Y-2289000D01*
X-65000Y-2159000D02*
X-65000Y-2289000D01*
X-130000Y-2224000D02*
X0Y-2224000D01*
D11*
X365539Y-2315484D02*
X251253Y-2315484D01*
X308396Y-2315484D02*
X308396Y-2115484D01*
X308396Y-2115484D02*
X289348Y-2144055D01*
X289348Y-2144055D02*
X270301Y-2163103D01*
X270301Y-2163103D02*
X251253Y-2172627D01*
X451253Y-2296436D02*
X460777Y-2305960D01*
X460777Y-2305960D02*
X451253Y-2315484D01*
X451253Y-2315484D02*
X441729Y-2305960D01*
X441729Y-2305960D02*
X451253Y-2296436D01*
X451253Y-2296436D02*
X451253Y-2315484D01*
X527444Y-2115484D02*
X651253Y-2115484D01*
X651253Y-2115484D02*
X584586Y-2191674D01*
X584586Y-2191674D02*
X613158Y-2191674D01*
X613158Y-2191674D02*
X632205Y-2201198D01*
X632205Y-2201198D02*
X641729Y-2210722D01*
X641729Y-2210722D02*
X651253Y-2229770D01*
X651253Y-2229770D02*
X651253Y-2277389D01*
X651253Y-2277389D02*
X641729Y-2296436D01*
X641729Y-2296436D02*
X632205Y-2305960D01*
X632205Y-2305960D02*
X613158Y-2315484D01*
X613158Y-2315484D02*
X556015Y-2315484D01*
X556015Y-2315484D02*
X536967Y-2305960D01*
X536967Y-2305960D02*
X527444Y-2296436D01*
X775062Y-2115484D02*
X794110Y-2115484D01*
X794110Y-2115484D02*
X813158Y-2125008D01*
X813158Y-2125008D02*
X822682Y-2134531D01*
X822682Y-2134531D02*
X832205Y-2153579D01*
X832205Y-2153579D02*
X841729Y-2191674D01*
X841729Y-2191674D02*
X841729Y-2239293D01*
X841729Y-2239293D02*
X832205Y-2277389D01*
X832205Y-2277389D02*
X822682Y-2296436D01*
X822682Y-2296436D02*
X813158Y-2305960D01*
X813158Y-2305960D02*
X794110Y-2315484D01*
X794110Y-2315484D02*
X775062Y-2315484D01*
X775062Y-2315484D02*
X756015Y-2305960D01*
X756015Y-2305960D02*
X746491Y-2296436D01*
X746491Y-2296436D02*
X736967Y-2277389D01*
X736967Y-2277389D02*
X727443Y-2239293D01*
X727443Y-2239293D02*
X727443Y-2191674D01*
X727443Y-2191674D02*
X736967Y-2153579D01*
X736967Y-2153579D02*
X746491Y-2134531D01*
X746491Y-2134531D02*
X756015Y-2125008D01*
X756015Y-2125008D02*
X775062Y-2115484D01*
X965539Y-2115484D02*
X984586Y-2115484D01*
X984586Y-2115484D02*
X1003634Y-2125008D01*
X1003634Y-2125008D02*
X1013158Y-2134531D01*
X1013158Y-2134531D02*
X1022682Y-2153579D01*
X1022682Y-2153579D02*
X1032205Y-2191674D01*
X1032205Y-2191674D02*
X1032205Y-2239293D01*
X1032205Y-2239293D02*
X1022682Y-2277389D01*
X1022682Y-2277389D02*
X1013158Y-2296436D01*
X1013158Y-2296436D02*
X1003634Y-2305960D01*
X1003634Y-2305960D02*
X984586Y-2315484D01*
X984586Y-2315484D02*
X965539Y-2315484D01*
X965539Y-2315484D02*
X946491Y-2305960D01*
X946491Y-2305960D02*
X936967Y-2296436D01*
X936967Y-2296436D02*
X927443Y-2277389D01*
X927443Y-2277389D02*
X917920Y-2239293D01*
X917920Y-2239293D02*
X917920Y-2191674D01*
X917920Y-2191674D02*
X927443Y-2153579D01*
X927443Y-2153579D02*
X936967Y-2134531D01*
X936967Y-2134531D02*
X946491Y-2125008D01*
X946491Y-2125008D02*
X965539Y-2115484D01*
X1117920Y-2315484D02*
X1117920Y-2182150D01*
X1117920Y-2201198D02*
X1127444Y-2191674D01*
X1127444Y-2191674D02*
X1146491Y-2182150D01*
X1146491Y-2182150D02*
X1175063Y-2182150D01*
X1175063Y-2182150D02*
X1194110Y-2191674D01*
X1194110Y-2191674D02*
X1203634Y-2210722D01*
X1203634Y-2210722D02*
X1203634Y-2315484D01*
X1203634Y-2210722D02*
X1213158Y-2191674D01*
X1213158Y-2191674D02*
X1232205Y-2182150D01*
X1232205Y-2182150D02*
X1260777Y-2182150D01*
X1260777Y-2182150D02*
X1279825Y-2191674D01*
X1279825Y-2191674D02*
X1289348Y-2210722D01*
X1289348Y-2210722D02*
X1289348Y-2315484D01*
X1384586Y-2315484D02*
X1384586Y-2182150D01*
X1384586Y-2201198D02*
X1394110Y-2191674D01*
X1394110Y-2191674D02*
X1413158Y-2182150D01*
X1413158Y-2182150D02*
X1441729Y-2182150D01*
X1441729Y-2182150D02*
X1460777Y-2191674D01*
X1460777Y-2191674D02*
X1470301Y-2210722D01*
X1470301Y-2210722D02*
X1470301Y-2315484D01*
X1470301Y-2210722D02*
X1479824Y-2191674D01*
X1479824Y-2191674D02*
X1498872Y-2182150D01*
X1498872Y-2182150D02*
X1527443Y-2182150D01*
X1527443Y-2182150D02*
X1546491Y-2191674D01*
X1546491Y-2191674D02*
X1556015Y-2210722D01*
X1556015Y-2210722D02*
X1556015Y-2315484D01*
X1946491Y-2105960D02*
X1775063Y-2363103D01*
X2203634Y-2115484D02*
X2222682Y-2115484D01*
X2222682Y-2115484D02*
X2241729Y-2125008D01*
X2241729Y-2125008D02*
X2251253Y-2134531D01*
X2251253Y-2134531D02*
X2260777Y-2153579D01*
X2260777Y-2153579D02*
X2270301Y-2191674D01*
X2270301Y-2191674D02*
X2270301Y-2239293D01*
X2270301Y-2239293D02*
X2260777Y-2277389D01*
X2260777Y-2277389D02*
X2251253Y-2296436D01*
X2251253Y-2296436D02*
X2241729Y-2305960D01*
X2241729Y-2305960D02*
X2222682Y-2315484D01*
X2222682Y-2315484D02*
X2203634Y-2315484D01*
X2203634Y-2315484D02*
X2184587Y-2305960D01*
X2184587Y-2305960D02*
X2175063Y-2296436D01*
X2175063Y-2296436D02*
X2165539Y-2277389D01*
X2165539Y-2277389D02*
X2156015Y-2239293D01*
X2156015Y-2239293D02*
X2156015Y-2191674D01*
X2156015Y-2191674D02*
X2165539Y-2153579D01*
X2165539Y-2153579D02*
X2175063Y-2134531D01*
X2175063Y-2134531D02*
X2184587Y-2125008D01*
X2184587Y-2125008D02*
X2203634Y-2115484D01*
X2356015Y-2296436D02*
X2365539Y-2305960D01*
X2365539Y-2305960D02*
X2356015Y-2315484D01*
X2356015Y-2315484D02*
X2346491Y-2305960D01*
X2346491Y-2305960D02*
X2356015Y-2296436D01*
X2356015Y-2296436D02*
X2356015Y-2315484D01*
X2489348Y-2115484D02*
X2508396Y-2115484D01*
X2508396Y-2115484D02*
X2527444Y-2125008D01*
X2527444Y-2125008D02*
X2536968Y-2134531D01*
X2536968Y-2134531D02*
X2546491Y-2153579D01*
X2546491Y-2153579D02*
X2556015Y-2191674D01*
X2556015Y-2191674D02*
X2556015Y-2239293D01*
X2556015Y-2239293D02*
X2546491Y-2277389D01*
X2546491Y-2277389D02*
X2536968Y-2296436D01*
X2536968Y-2296436D02*
X2527444Y-2305960D01*
X2527444Y-2305960D02*
X2508396Y-2315484D01*
X2508396Y-2315484D02*
X2489348Y-2315484D01*
X2489348Y-2315484D02*
X2470301Y-2305960D01*
X2470301Y-2305960D02*
X2460777Y-2296436D01*
X2460777Y-2296436D02*
X2451253Y-2277389D01*
X2451253Y-2277389D02*
X2441729Y-2239293D01*
X2441729Y-2239293D02*
X2441729Y-2191674D01*
X2441729Y-2191674D02*
X2451253Y-2153579D01*
X2451253Y-2153579D02*
X2460777Y-2134531D01*
X2460777Y-2134531D02*
X2470301Y-2125008D01*
X2470301Y-2125008D02*
X2489348Y-2115484D01*
X2736968Y-2115484D02*
X2641729Y-2115484D01*
X2641729Y-2115484D02*
X2632206Y-2210722D01*
X2632206Y-2210722D02*
X2641729Y-2201198D01*
X2641729Y-2201198D02*
X2660777Y-2191674D01*
X2660777Y-2191674D02*
X2708396Y-2191674D01*
X2708396Y-2191674D02*
X2727444Y-2201198D01*
X2727444Y-2201198D02*
X2736968Y-2210722D01*
X2736968Y-2210722D02*
X2746491Y-2229770D01*
X2746491Y-2229770D02*
X2746491Y-2277389D01*
X2746491Y-2277389D02*
X2736968Y-2296436D01*
X2736968Y-2296436D02*
X2727444Y-2305960D01*
X2727444Y-2305960D02*
X2708396Y-2315484D01*
X2708396Y-2315484D02*
X2660777Y-2315484D01*
X2660777Y-2315484D02*
X2641729Y-2305960D01*
X2641729Y-2305960D02*
X2632206Y-2296436D01*
X2936967Y-2315484D02*
X2822682Y-2315484D01*
X2879825Y-2315484D02*
X2879825Y-2115484D01*
X2879825Y-2115484D02*
X2860777Y-2144055D01*
X2860777Y-2144055D02*
X2841729Y-2163103D01*
X2841729Y-2163103D02*
X2822682Y-2172627D01*
X3013158Y-2134531D02*
X3022682Y-2125008D01*
X3022682Y-2125008D02*
X3041729Y-2115484D01*
X3041729Y-2115484D02*
X3089348Y-2115484D01*
X3089348Y-2115484D02*
X3108396Y-2125008D01*
X3108396Y-2125008D02*
X3117920Y-2134531D01*
X3117920Y-2134531D02*
X3127444Y-2153579D01*
X3127444Y-2153579D02*
X3127444Y-2172627D01*
X3127444Y-2172627D02*
X3117920Y-2201198D01*
X3117920Y-2201198D02*
X3003634Y-2315484D01*
X3003634Y-2315484D02*
X3127444Y-2315484D01*
X3203634Y-2115484D02*
X3203634Y-2153579D01*
X3279825Y-2115484D02*
X3279825Y-2153579D01*
X3575063Y-2391674D02*
X3565539Y-2382150D01*
X3565539Y-2382150D02*
X3546491Y-2353579D01*
X3546491Y-2353579D02*
X3536968Y-2334531D01*
X3536968Y-2334531D02*
X3527444Y-2305960D01*
X3527444Y-2305960D02*
X3517920Y-2258341D01*
X3517920Y-2258341D02*
X3517920Y-2220246D01*
X3517920Y-2220246D02*
X3527444Y-2172627D01*
X3527444Y-2172627D02*
X3536968Y-2144055D01*
X3536968Y-2144055D02*
X3546491Y-2125008D01*
X3546491Y-2125008D02*
X3565539Y-2096436D01*
X3565539Y-2096436D02*
X3575063Y-2086912D01*
X3736968Y-2182150D02*
X3736968Y-2315484D01*
X3689348Y-2105960D02*
X3641729Y-2248817D01*
X3641729Y-2248817D02*
X3765539Y-2248817D01*
X3994110Y-2315484D02*
X3994110Y-2115484D01*
X4079825Y-2315484D02*
X4079825Y-2210722D01*
X4079825Y-2210722D02*
X4070301Y-2191674D01*
X4070301Y-2191674D02*
X4051253Y-2182150D01*
X4051253Y-2182150D02*
X4022682Y-2182150D01*
X4022682Y-2182150D02*
X4003634Y-2191674D01*
X4003634Y-2191674D02*
X3994110Y-2201198D01*
X4203634Y-2315484D02*
X4184587Y-2305960D01*
X4184587Y-2305960D02*
X4175063Y-2296436D01*
X4175063Y-2296436D02*
X4165539Y-2277389D01*
X4165539Y-2277389D02*
X4165539Y-2220246D01*
X4165539Y-2220246D02*
X4175063Y-2201198D01*
X4175063Y-2201198D02*
X4184587Y-2191674D01*
X4184587Y-2191674D02*
X4203634Y-2182150D01*
X4203634Y-2182150D02*
X4232206Y-2182150D01*
X4232206Y-2182150D02*
X4251253Y-2191674D01*
X4251253Y-2191674D02*
X4260777Y-2201198D01*
X4260777Y-2201198D02*
X4270301Y-2220246D01*
X4270301Y-2220246D02*
X4270301Y-2277389D01*
X4270301Y-2277389D02*
X4260777Y-2296436D01*
X4260777Y-2296436D02*
X4251253Y-2305960D01*
X4251253Y-2305960D02*
X4232206Y-2315484D01*
X4232206Y-2315484D02*
X4203634Y-2315484D01*
X4384587Y-2315484D02*
X4365539Y-2305960D01*
X4365539Y-2305960D02*
X4356015Y-2286912D01*
X4356015Y-2286912D02*
X4356015Y-2115484D01*
X4536968Y-2305960D02*
X4517920Y-2315484D01*
X4517920Y-2315484D02*
X4479825Y-2315484D01*
X4479825Y-2315484D02*
X4460777Y-2305960D01*
X4460777Y-2305960D02*
X4451253Y-2286912D01*
X4451253Y-2286912D02*
X4451253Y-2210722D01*
X4451253Y-2210722D02*
X4460777Y-2191674D01*
X4460777Y-2191674D02*
X4479825Y-2182150D01*
X4479825Y-2182150D02*
X4517920Y-2182150D01*
X4517920Y-2182150D02*
X4536968Y-2191674D01*
X4536968Y-2191674D02*
X4546492Y-2210722D01*
X4546492Y-2210722D02*
X4546492Y-2229770D01*
X4546492Y-2229770D02*
X4451253Y-2248817D01*
X4622682Y-2305960D02*
X4641730Y-2315484D01*
X4641730Y-2315484D02*
X4679825Y-2315484D01*
X4679825Y-2315484D02*
X4698873Y-2305960D01*
X4698873Y-2305960D02*
X4708396Y-2286912D01*
X4708396Y-2286912D02*
X4708396Y-2277389D01*
X4708396Y-2277389D02*
X4698873Y-2258341D01*
X4698873Y-2258341D02*
X4679825Y-2248817D01*
X4679825Y-2248817D02*
X4651253Y-2248817D01*
X4651253Y-2248817D02*
X4632206Y-2239293D01*
X4632206Y-2239293D02*
X4622682Y-2220246D01*
X4622682Y-2220246D02*
X4622682Y-2210722D01*
X4622682Y-2210722D02*
X4632206Y-2191674D01*
X4632206Y-2191674D02*
X4651253Y-2182150D01*
X4651253Y-2182150D02*
X4679825Y-2182150D01*
X4679825Y-2182150D02*
X4698873Y-2191674D01*
X4775063Y-2391674D02*
X4784587Y-2382150D01*
X4784587Y-2382150D02*
X4803634Y-2353579D01*
X4803634Y-2353579D02*
X4813158Y-2334531D01*
X4813158Y-2334531D02*
X4822682Y-2305960D01*
X4822682Y-2305960D02*
X4832206Y-2258341D01*
X4832206Y-2258341D02*
X4832206Y-2220246D01*
X4832206Y-2220246D02*
X4822682Y-2172627D01*
X4822682Y-2172627D02*
X4813158Y-2144055D01*
X4813158Y-2144055D02*
X4803634Y-2125008D01*
X4803634Y-2125008D02*
X4784587Y-2096436D01*
X4784587Y-2096436D02*
X4775063Y-2086912D01*
D12*
X-65000Y-2455500D02*
X0Y-2520500D01*
X0Y-2455500D02*
X-65000Y-2520500D01*
X-9519Y-2510981D02*
X-9519Y-2465019D01*
X-55481Y-2465019D01*
X-55481Y-2510981D01*
X-9519Y-2510981D01*
D11*
X298872Y-2379484D02*
X317920Y-2379484D01*
X317920Y-2379484D02*
X336967Y-2389008D01*
X336967Y-2389008D02*
X346491Y-2398531D01*
X346491Y-2398531D02*
X356015Y-2417579D01*
X356015Y-2417579D02*
X365539Y-2455674D01*
X365539Y-2455674D02*
X365539Y-2503293D01*
X365539Y-2503293D02*
X356015Y-2541389D01*
X356015Y-2541389D02*
X346491Y-2560436D01*
X346491Y-2560436D02*
X336967Y-2569960D01*
X336967Y-2569960D02*
X317920Y-2579484D01*
X317920Y-2579484D02*
X298872Y-2579484D01*
X298872Y-2579484D02*
X279824Y-2569960D01*
X279824Y-2569960D02*
X270301Y-2560436D01*
X270301Y-2560436D02*
X260777Y-2541389D01*
X260777Y-2541389D02*
X251253Y-2503293D01*
X251253Y-2503293D02*
X251253Y-2455674D01*
X251253Y-2455674D02*
X260777Y-2417579D01*
X260777Y-2417579D02*
X270301Y-2398531D01*
X270301Y-2398531D02*
X279824Y-2389008D01*
X279824Y-2389008D02*
X298872Y-2379484D01*
X451253Y-2560436D02*
X460777Y-2569960D01*
X460777Y-2569960D02*
X451253Y-2579484D01*
X451253Y-2579484D02*
X441729Y-2569960D01*
X441729Y-2569960D02*
X451253Y-2560436D01*
X451253Y-2560436D02*
X451253Y-2579484D01*
X632205Y-2379484D02*
X594110Y-2379484D01*
X594110Y-2379484D02*
X575063Y-2389008D01*
X575063Y-2389008D02*
X565539Y-2398531D01*
X565539Y-2398531D02*
X546491Y-2427103D01*
X546491Y-2427103D02*
X536967Y-2465198D01*
X536967Y-2465198D02*
X536967Y-2541389D01*
X536967Y-2541389D02*
X546491Y-2560436D01*
X546491Y-2560436D02*
X556015Y-2569960D01*
X556015Y-2569960D02*
X575063Y-2579484D01*
X575063Y-2579484D02*
X613158Y-2579484D01*
X613158Y-2579484D02*
X632205Y-2569960D01*
X632205Y-2569960D02*
X641729Y-2560436D01*
X641729Y-2560436D02*
X651253Y-2541389D01*
X651253Y-2541389D02*
X651253Y-2493770D01*
X651253Y-2493770D02*
X641729Y-2474722D01*
X641729Y-2474722D02*
X632205Y-2465198D01*
X632205Y-2465198D02*
X613158Y-2455674D01*
X613158Y-2455674D02*
X575063Y-2455674D01*
X575063Y-2455674D02*
X556015Y-2465198D01*
X556015Y-2465198D02*
X546491Y-2474722D01*
X546491Y-2474722D02*
X536967Y-2493770D01*
X832205Y-2379484D02*
X736967Y-2379484D01*
X736967Y-2379484D02*
X727443Y-2474722D01*
X727443Y-2474722D02*
X736967Y-2465198D01*
X736967Y-2465198D02*
X756015Y-2455674D01*
X756015Y-2455674D02*
X803634Y-2455674D01*
X803634Y-2455674D02*
X822682Y-2465198D01*
X822682Y-2465198D02*
X832205Y-2474722D01*
X832205Y-2474722D02*
X841729Y-2493770D01*
X841729Y-2493770D02*
X841729Y-2541389D01*
X841729Y-2541389D02*
X832205Y-2560436D01*
X832205Y-2560436D02*
X822682Y-2569960D01*
X822682Y-2569960D02*
X803634Y-2579484D01*
X803634Y-2579484D02*
X756015Y-2579484D01*
X756015Y-2579484D02*
X736967Y-2569960D01*
X736967Y-2569960D02*
X727443Y-2560436D01*
X965539Y-2379484D02*
X984586Y-2379484D01*
X984586Y-2379484D02*
X1003634Y-2389008D01*
X1003634Y-2389008D02*
X1013158Y-2398531D01*
X1013158Y-2398531D02*
X1022682Y-2417579D01*
X1022682Y-2417579D02*
X1032205Y-2455674D01*
X1032205Y-2455674D02*
X1032205Y-2503293D01*
X1032205Y-2503293D02*
X1022682Y-2541389D01*
X1022682Y-2541389D02*
X1013158Y-2560436D01*
X1013158Y-2560436D02*
X1003634Y-2569960D01*
X1003634Y-2569960D02*
X984586Y-2579484D01*
X984586Y-2579484D02*
X965539Y-2579484D01*
X965539Y-2579484D02*
X946491Y-2569960D01*
X946491Y-2569960D02*
X936967Y-2560436D01*
X936967Y-2560436D02*
X927443Y-2541389D01*
X927443Y-2541389D02*
X917920Y-2503293D01*
X917920Y-2503293D02*
X917920Y-2455674D01*
X917920Y-2455674D02*
X927443Y-2417579D01*
X927443Y-2417579D02*
X936967Y-2398531D01*
X936967Y-2398531D02*
X946491Y-2389008D01*
X946491Y-2389008D02*
X965539Y-2379484D01*
X1117920Y-2579484D02*
X1117920Y-2446150D01*
X1117920Y-2465198D02*
X1127444Y-2455674D01*
X1127444Y-2455674D02*
X1146491Y-2446150D01*
X1146491Y-2446150D02*
X1175063Y-2446150D01*
X1175063Y-2446150D02*
X1194110Y-2455674D01*
X1194110Y-2455674D02*
X1203634Y-2474722D01*
X1203634Y-2474722D02*
X1203634Y-2579484D01*
X1203634Y-2474722D02*
X1213158Y-2455674D01*
X1213158Y-2455674D02*
X1232205Y-2446150D01*
X1232205Y-2446150D02*
X1260777Y-2446150D01*
X1260777Y-2446150D02*
X1279825Y-2455674D01*
X1279825Y-2455674D02*
X1289348Y-2474722D01*
X1289348Y-2474722D02*
X1289348Y-2579484D01*
X1384586Y-2579484D02*
X1384586Y-2446150D01*
X1384586Y-2465198D02*
X1394110Y-2455674D01*
X1394110Y-2455674D02*
X1413158Y-2446150D01*
X1413158Y-2446150D02*
X1441729Y-2446150D01*
X1441729Y-2446150D02*
X1460777Y-2455674D01*
X1460777Y-2455674D02*
X1470301Y-2474722D01*
X1470301Y-2474722D02*
X1470301Y-2579484D01*
X1470301Y-2474722D02*
X1479824Y-2455674D01*
X1479824Y-2455674D02*
X1498872Y-2446150D01*
X1498872Y-2446150D02*
X1527443Y-2446150D01*
X1527443Y-2446150D02*
X1546491Y-2455674D01*
X1546491Y-2455674D02*
X1556015Y-2474722D01*
X1556015Y-2474722D02*
X1556015Y-2579484D01*
X1946491Y-2369960D02*
X1775063Y-2627103D01*
X2203634Y-2379484D02*
X2222682Y-2379484D01*
X2222682Y-2379484D02*
X2241729Y-2389008D01*
X2241729Y-2389008D02*
X2251253Y-2398531D01*
X2251253Y-2398531D02*
X2260777Y-2417579D01*
X2260777Y-2417579D02*
X2270301Y-2455674D01*
X2270301Y-2455674D02*
X2270301Y-2503293D01*
X2270301Y-2503293D02*
X2260777Y-2541389D01*
X2260777Y-2541389D02*
X2251253Y-2560436D01*
X2251253Y-2560436D02*
X2241729Y-2569960D01*
X2241729Y-2569960D02*
X2222682Y-2579484D01*
X2222682Y-2579484D02*
X2203634Y-2579484D01*
X2203634Y-2579484D02*
X2184587Y-2569960D01*
X2184587Y-2569960D02*
X2175063Y-2560436D01*
X2175063Y-2560436D02*
X2165539Y-2541389D01*
X2165539Y-2541389D02*
X2156015Y-2503293D01*
X2156015Y-2503293D02*
X2156015Y-2455674D01*
X2156015Y-2455674D02*
X2165539Y-2417579D01*
X2165539Y-2417579D02*
X2175063Y-2398531D01*
X2175063Y-2398531D02*
X2184587Y-2389008D01*
X2184587Y-2389008D02*
X2203634Y-2379484D01*
X2356015Y-2560436D02*
X2365539Y-2569960D01*
X2365539Y-2569960D02*
X2356015Y-2579484D01*
X2356015Y-2579484D02*
X2346491Y-2569960D01*
X2346491Y-2569960D02*
X2356015Y-2560436D01*
X2356015Y-2560436D02*
X2356015Y-2579484D01*
X2489348Y-2379484D02*
X2508396Y-2379484D01*
X2508396Y-2379484D02*
X2527444Y-2389008D01*
X2527444Y-2389008D02*
X2536968Y-2398531D01*
X2536968Y-2398531D02*
X2546491Y-2417579D01*
X2546491Y-2417579D02*
X2556015Y-2455674D01*
X2556015Y-2455674D02*
X2556015Y-2503293D01*
X2556015Y-2503293D02*
X2546491Y-2541389D01*
X2546491Y-2541389D02*
X2536968Y-2560436D01*
X2536968Y-2560436D02*
X2527444Y-2569960D01*
X2527444Y-2569960D02*
X2508396Y-2579484D01*
X2508396Y-2579484D02*
X2489348Y-2579484D01*
X2489348Y-2579484D02*
X2470301Y-2569960D01*
X2470301Y-2569960D02*
X2460777Y-2560436D01*
X2460777Y-2560436D02*
X2451253Y-2541389D01*
X2451253Y-2541389D02*
X2441729Y-2503293D01*
X2441729Y-2503293D02*
X2441729Y-2455674D01*
X2441729Y-2455674D02*
X2451253Y-2417579D01*
X2451253Y-2417579D02*
X2460777Y-2398531D01*
X2460777Y-2398531D02*
X2470301Y-2389008D01*
X2470301Y-2389008D02*
X2489348Y-2379484D01*
X2632206Y-2398531D02*
X2641729Y-2389008D01*
X2641729Y-2389008D02*
X2660777Y-2379484D01*
X2660777Y-2379484D02*
X2708396Y-2379484D01*
X2708396Y-2379484D02*
X2727444Y-2389008D01*
X2727444Y-2389008D02*
X2736968Y-2398531D01*
X2736968Y-2398531D02*
X2746491Y-2417579D01*
X2746491Y-2417579D02*
X2746491Y-2436627D01*
X2746491Y-2436627D02*
X2736968Y-2465198D01*
X2736968Y-2465198D02*
X2622682Y-2579484D01*
X2622682Y-2579484D02*
X2746491Y-2579484D01*
X2927444Y-2379484D02*
X2832206Y-2379484D01*
X2832206Y-2379484D02*
X2822682Y-2474722D01*
X2822682Y-2474722D02*
X2832206Y-2465198D01*
X2832206Y-2465198D02*
X2851253Y-2455674D01*
X2851253Y-2455674D02*
X2898872Y-2455674D01*
X2898872Y-2455674D02*
X2917920Y-2465198D01*
X2917920Y-2465198D02*
X2927444Y-2474722D01*
X2927444Y-2474722D02*
X2936967Y-2493770D01*
X2936967Y-2493770D02*
X2936967Y-2541389D01*
X2936967Y-2541389D02*
X2927444Y-2560436D01*
X2927444Y-2560436D02*
X2917920Y-2569960D01*
X2917920Y-2569960D02*
X2898872Y-2579484D01*
X2898872Y-2579484D02*
X2851253Y-2579484D01*
X2851253Y-2579484D02*
X2832206Y-2569960D01*
X2832206Y-2569960D02*
X2822682Y-2560436D01*
X3108396Y-2379484D02*
X3070301Y-2379484D01*
X3070301Y-2379484D02*
X3051253Y-2389008D01*
X3051253Y-2389008D02*
X3041729Y-2398531D01*
X3041729Y-2398531D02*
X3022682Y-2427103D01*
X3022682Y-2427103D02*
X3013158Y-2465198D01*
X3013158Y-2465198D02*
X3013158Y-2541389D01*
X3013158Y-2541389D02*
X3022682Y-2560436D01*
X3022682Y-2560436D02*
X3032206Y-2569960D01*
X3032206Y-2569960D02*
X3051253Y-2579484D01*
X3051253Y-2579484D02*
X3089348Y-2579484D01*
X3089348Y-2579484D02*
X3108396Y-2569960D01*
X3108396Y-2569960D02*
X3117920Y-2560436D01*
X3117920Y-2560436D02*
X3127444Y-2541389D01*
X3127444Y-2541389D02*
X3127444Y-2493770D01*
X3127444Y-2493770D02*
X3117920Y-2474722D01*
X3117920Y-2474722D02*
X3108396Y-2465198D01*
X3108396Y-2465198D02*
X3089348Y-2455674D01*
X3089348Y-2455674D02*
X3051253Y-2455674D01*
X3051253Y-2455674D02*
X3032206Y-2465198D01*
X3032206Y-2465198D02*
X3022682Y-2474722D01*
X3022682Y-2474722D02*
X3013158Y-2493770D01*
X3203634Y-2379484D02*
X3203634Y-2417579D01*
X3279825Y-2379484D02*
X3279825Y-2417579D01*
X3575063Y-2655674D02*
X3565539Y-2646150D01*
X3565539Y-2646150D02*
X3546491Y-2617579D01*
X3546491Y-2617579D02*
X3536968Y-2598531D01*
X3536968Y-2598531D02*
X3527444Y-2569960D01*
X3527444Y-2569960D02*
X3517920Y-2522341D01*
X3517920Y-2522341D02*
X3517920Y-2484246D01*
X3517920Y-2484246D02*
X3527444Y-2436627D01*
X3527444Y-2436627D02*
X3536968Y-2408055D01*
X3536968Y-2408055D02*
X3546491Y-2389008D01*
X3546491Y-2389008D02*
X3565539Y-2360436D01*
X3565539Y-2360436D02*
X3575063Y-2350912D01*
X3641729Y-2398531D02*
X3651253Y-2389008D01*
X3651253Y-2389008D02*
X3670301Y-2379484D01*
X3670301Y-2379484D02*
X3717920Y-2379484D01*
X3717920Y-2379484D02*
X3736968Y-2389008D01*
X3736968Y-2389008D02*
X3746491Y-2398531D01*
X3746491Y-2398531D02*
X3756015Y-2417579D01*
X3756015Y-2417579D02*
X3756015Y-2436627D01*
X3756015Y-2436627D02*
X3746491Y-2465198D01*
X3746491Y-2465198D02*
X3632206Y-2579484D01*
X3632206Y-2579484D02*
X3756015Y-2579484D01*
X3994110Y-2579484D02*
X3994110Y-2379484D01*
X4079825Y-2579484D02*
X4079825Y-2474722D01*
X4079825Y-2474722D02*
X4070301Y-2455674D01*
X4070301Y-2455674D02*
X4051253Y-2446150D01*
X4051253Y-2446150D02*
X4022682Y-2446150D01*
X4022682Y-2446150D02*
X4003634Y-2455674D01*
X4003634Y-2455674D02*
X3994110Y-2465198D01*
X4203634Y-2579484D02*
X4184587Y-2569960D01*
X4184587Y-2569960D02*
X4175063Y-2560436D01*
X4175063Y-2560436D02*
X4165539Y-2541389D01*
X4165539Y-2541389D02*
X4165539Y-2484246D01*
X4165539Y-2484246D02*
X4175063Y-2465198D01*
X4175063Y-2465198D02*
X4184587Y-2455674D01*
X4184587Y-2455674D02*
X4203634Y-2446150D01*
X4203634Y-2446150D02*
X4232206Y-2446150D01*
X4232206Y-2446150D02*
X4251253Y-2455674D01*
X4251253Y-2455674D02*
X4260777Y-2465198D01*
X4260777Y-2465198D02*
X4270301Y-2484246D01*
X4270301Y-2484246D02*
X4270301Y-2541389D01*
X4270301Y-2541389D02*
X4260777Y-2560436D01*
X4260777Y-2560436D02*
X4251253Y-2569960D01*
X4251253Y-2569960D02*
X4232206Y-2579484D01*
X4232206Y-2579484D02*
X4203634Y-2579484D01*
X4384587Y-2579484D02*
X4365539Y-2569960D01*
X4365539Y-2569960D02*
X4356015Y-2550912D01*
X4356015Y-2550912D02*
X4356015Y-2379484D01*
X4536968Y-2569960D02*
X4517920Y-2579484D01*
X4517920Y-2579484D02*
X4479825Y-2579484D01*
X4479825Y-2579484D02*
X4460777Y-2569960D01*
X4460777Y-2569960D02*
X4451253Y-2550912D01*
X4451253Y-2550912D02*
X4451253Y-2474722D01*
X4451253Y-2474722D02*
X4460777Y-2455674D01*
X4460777Y-2455674D02*
X4479825Y-2446150D01*
X4479825Y-2446150D02*
X4517920Y-2446150D01*
X4517920Y-2446150D02*
X4536968Y-2455674D01*
X4536968Y-2455674D02*
X4546492Y-2474722D01*
X4546492Y-2474722D02*
X4546492Y-2493770D01*
X4546492Y-2493770D02*
X4451253Y-2512817D01*
X4622682Y-2569960D02*
X4641730Y-2579484D01*
X4641730Y-2579484D02*
X4679825Y-2579484D01*
X4679825Y-2579484D02*
X4698873Y-2569960D01*
X4698873Y-2569960D02*
X4708396Y-2550912D01*
X4708396Y-2550912D02*
X4708396Y-2541389D01*
X4708396Y-2541389D02*
X4698873Y-2522341D01*
X4698873Y-2522341D02*
X4679825Y-2512817D01*
X4679825Y-2512817D02*
X4651253Y-2512817D01*
X4651253Y-2512817D02*
X4632206Y-2503293D01*
X4632206Y-2503293D02*
X4622682Y-2484246D01*
X4622682Y-2484246D02*
X4622682Y-2474722D01*
X4622682Y-2474722D02*
X4632206Y-2455674D01*
X4632206Y-2455674D02*
X4651253Y-2446150D01*
X4651253Y-2446150D02*
X4679825Y-2446150D01*
X4679825Y-2446150D02*
X4698873Y-2455674D01*
X4775063Y-2655674D02*
X4784587Y-2646150D01*
X4784587Y-2646150D02*
X4803634Y-2617579D01*
X4803634Y-2617579D02*
X4813158Y-2598531D01*
X4813158Y-2598531D02*
X4822682Y-2569960D01*
X4822682Y-2569960D02*
X4832206Y-2522341D01*
X4832206Y-2522341D02*
X4832206Y-2484246D01*
X4832206Y-2484246D02*
X4822682Y-2436627D01*
X4822682Y-2436627D02*
X4813158Y-2408055D01*
X4813158Y-2408055D02*
X4803634Y-2389008D01*
X4803634Y-2389008D02*
X4784587Y-2360436D01*
X4784587Y-2360436D02*
X4775063Y-2350912D01*
X5136968Y-2655674D02*
X5127444Y-2646150D01*
X5127444Y-2646150D02*
X5108396Y-2617579D01*
X5108396Y-2617579D02*
X5098873Y-2598531D01*
X5098873Y-2598531D02*
X5089349Y-2569960D01*
X5089349Y-2569960D02*
X5079825Y-2522341D01*
X5079825Y-2522341D02*
X5079825Y-2484246D01*
X5079825Y-2484246D02*
X5089349Y-2436627D01*
X5089349Y-2436627D02*
X5098873Y-2408055D01*
X5098873Y-2408055D02*
X5108396Y-2389008D01*
X5108396Y-2389008D02*
X5127444Y-2360436D01*
X5127444Y-2360436D02*
X5136968Y-2350912D01*
X5213158Y-2446150D02*
X5213158Y-2579484D01*
X5213158Y-2465198D02*
X5222682Y-2455674D01*
X5222682Y-2455674D02*
X5241730Y-2446150D01*
X5241730Y-2446150D02*
X5270301Y-2446150D01*
X5270301Y-2446150D02*
X5289349Y-2455674D01*
X5289349Y-2455674D02*
X5298873Y-2474722D01*
X5298873Y-2474722D02*
X5298873Y-2579484D01*
X5422682Y-2579484D02*
X5403634Y-2569960D01*
X5403634Y-2569960D02*
X5394111Y-2560436D01*
X5394111Y-2560436D02*
X5384587Y-2541389D01*
X5384587Y-2541389D02*
X5384587Y-2484246D01*
X5384587Y-2484246D02*
X5394111Y-2465198D01*
X5394111Y-2465198D02*
X5403634Y-2455674D01*
X5403634Y-2455674D02*
X5422682Y-2446150D01*
X5422682Y-2446150D02*
X5451254Y-2446150D01*
X5451254Y-2446150D02*
X5470301Y-2455674D01*
X5470301Y-2455674D02*
X5479825Y-2465198D01*
X5479825Y-2465198D02*
X5489349Y-2484246D01*
X5489349Y-2484246D02*
X5489349Y-2541389D01*
X5489349Y-2541389D02*
X5479825Y-2560436D01*
X5479825Y-2560436D02*
X5470301Y-2569960D01*
X5470301Y-2569960D02*
X5451254Y-2579484D01*
X5451254Y-2579484D02*
X5422682Y-2579484D01*
X5546492Y-2446150D02*
X5622682Y-2446150D01*
X5575063Y-2379484D02*
X5575063Y-2550912D01*
X5575063Y-2550912D02*
X5584587Y-2569960D01*
X5584587Y-2569960D02*
X5603634Y-2579484D01*
X5603634Y-2579484D02*
X5622682Y-2579484D01*
X5841730Y-2446150D02*
X5841730Y-2646150D01*
X5841730Y-2455674D02*
X5860777Y-2446150D01*
X5860777Y-2446150D02*
X5898873Y-2446150D01*
X5898873Y-2446150D02*
X5917920Y-2455674D01*
X5917920Y-2455674D02*
X5927444Y-2465198D01*
X5927444Y-2465198D02*
X5936968Y-2484246D01*
X5936968Y-2484246D02*
X5936968Y-2541389D01*
X5936968Y-2541389D02*
X5927444Y-2560436D01*
X5927444Y-2560436D02*
X5917920Y-2569960D01*
X5917920Y-2569960D02*
X5898873Y-2579484D01*
X5898873Y-2579484D02*
X5860777Y-2579484D01*
X5860777Y-2579484D02*
X5841730Y-2569960D01*
X6051253Y-2579484D02*
X6032206Y-2569960D01*
X6032206Y-2569960D02*
X6022682Y-2550912D01*
X6022682Y-2550912D02*
X6022682Y-2379484D01*
X6213158Y-2579484D02*
X6213158Y-2474722D01*
X6213158Y-2474722D02*
X6203634Y-2455674D01*
X6203634Y-2455674D02*
X6184587Y-2446150D01*
X6184587Y-2446150D02*
X6146492Y-2446150D01*
X6146492Y-2446150D02*
X6127444Y-2455674D01*
X6213158Y-2569960D02*
X6194111Y-2579484D01*
X6194111Y-2579484D02*
X6146492Y-2579484D01*
X6146492Y-2579484D02*
X6127444Y-2569960D01*
X6127444Y-2569960D02*
X6117920Y-2550912D01*
X6117920Y-2550912D02*
X6117920Y-2531865D01*
X6117920Y-2531865D02*
X6127444Y-2512817D01*
X6127444Y-2512817D02*
X6146492Y-2503293D01*
X6146492Y-2503293D02*
X6194111Y-2503293D01*
X6194111Y-2503293D02*
X6213158Y-2493770D01*
X6279825Y-2446150D02*
X6356015Y-2446150D01*
X6308396Y-2379484D02*
X6308396Y-2550912D01*
X6308396Y-2550912D02*
X6317920Y-2569960D01*
X6317920Y-2569960D02*
X6336968Y-2579484D01*
X6336968Y-2579484D02*
X6356015Y-2579484D01*
X6498873Y-2569960D02*
X6479825Y-2579484D01*
X6479825Y-2579484D02*
X6441730Y-2579484D01*
X6441730Y-2579484D02*
X6422682Y-2569960D01*
X6422682Y-2569960D02*
X6413158Y-2550912D01*
X6413158Y-2550912D02*
X6413158Y-2474722D01*
X6413158Y-2474722D02*
X6422682Y-2455674D01*
X6422682Y-2455674D02*
X6441730Y-2446150D01*
X6441730Y-2446150D02*
X6479825Y-2446150D01*
X6479825Y-2446150D02*
X6498873Y-2455674D01*
X6498873Y-2455674D02*
X6508396Y-2474722D01*
X6508396Y-2474722D02*
X6508396Y-2493770D01*
X6508396Y-2493770D02*
X6413158Y-2512817D01*
X6679825Y-2579484D02*
X6679825Y-2379484D01*
X6679825Y-2569960D02*
X6660777Y-2579484D01*
X6660777Y-2579484D02*
X6622682Y-2579484D01*
X6622682Y-2579484D02*
X6603634Y-2569960D01*
X6603634Y-2569960D02*
X6594111Y-2560436D01*
X6594111Y-2560436D02*
X6584587Y-2541389D01*
X6584587Y-2541389D02*
X6584587Y-2484246D01*
X6584587Y-2484246D02*
X6594111Y-2465198D01*
X6594111Y-2465198D02*
X6603634Y-2455674D01*
X6603634Y-2455674D02*
X6622682Y-2446150D01*
X6622682Y-2446150D02*
X6660777Y-2446150D01*
X6660777Y-2446150D02*
X6679825Y-2455674D01*
X6756015Y-2655674D02*
X6765539Y-2646150D01*
X6765539Y-2646150D02*
X6784587Y-2617579D01*
X6784587Y-2617579D02*
X6794111Y-2598531D01*
X6794111Y-2598531D02*
X6803634Y-2569960D01*
X6803634Y-2569960D02*
X6813158Y-2522341D01*
X6813158Y-2522341D02*
X6813158Y-2484246D01*
X6813158Y-2484246D02*
X6803634Y-2436627D01*
X6803634Y-2436627D02*
X6794111Y-2408055D01*
X6794111Y-2408055D02*
X6784587Y-2389008D01*
X6784587Y-2389008D02*
X6765539Y-2360436D01*
X6765539Y-2360436D02*
X6756015Y-2350912D01*
D12*
X-90000Y-2707000D02*
X0Y-2797000D01*
X0Y-2707000D02*
X-90000Y-2797000D01*
X-45000Y-2797000D02*
X0Y-2752000D01*
X-45000Y-2707000D01*
X-90000Y-2752000D01*
X-45000Y-2797000D01*
D11*
X298872Y-2643484D02*
X317920Y-2643484D01*
X317920Y-2643484D02*
X336967Y-2653008D01*
X336967Y-2653008D02*
X346491Y-2662531D01*
X346491Y-2662531D02*
X356015Y-2681579D01*
X356015Y-2681579D02*
X365539Y-2719674D01*
X365539Y-2719674D02*
X365539Y-2767293D01*
X365539Y-2767293D02*
X356015Y-2805388D01*
X356015Y-2805388D02*
X346491Y-2824436D01*
X346491Y-2824436D02*
X336967Y-2833960D01*
X336967Y-2833960D02*
X317920Y-2843484D01*
X317920Y-2843484D02*
X298872Y-2843484D01*
X298872Y-2843484D02*
X279824Y-2833960D01*
X279824Y-2833960D02*
X270301Y-2824436D01*
X270301Y-2824436D02*
X260777Y-2805388D01*
X260777Y-2805388D02*
X251253Y-2767293D01*
X251253Y-2767293D02*
X251253Y-2719674D01*
X251253Y-2719674D02*
X260777Y-2681579D01*
X260777Y-2681579D02*
X270301Y-2662531D01*
X270301Y-2662531D02*
X279824Y-2653008D01*
X279824Y-2653008D02*
X298872Y-2643484D01*
X451253Y-2824436D02*
X460777Y-2833960D01*
X460777Y-2833960D02*
X451253Y-2843484D01*
X451253Y-2843484D02*
X441729Y-2833960D01*
X441729Y-2833960D02*
X451253Y-2824436D01*
X451253Y-2824436D02*
X451253Y-2843484D01*
X556015Y-2843484D02*
X594110Y-2843484D01*
X594110Y-2843484D02*
X613158Y-2833960D01*
X613158Y-2833960D02*
X622682Y-2824436D01*
X622682Y-2824436D02*
X641729Y-2795865D01*
X641729Y-2795865D02*
X651253Y-2757770D01*
X651253Y-2757770D02*
X651253Y-2681579D01*
X651253Y-2681579D02*
X641729Y-2662531D01*
X641729Y-2662531D02*
X632205Y-2653008D01*
X632205Y-2653008D02*
X613158Y-2643484D01*
X613158Y-2643484D02*
X575063Y-2643484D01*
X575063Y-2643484D02*
X556015Y-2653008D01*
X556015Y-2653008D02*
X546491Y-2662531D01*
X546491Y-2662531D02*
X536967Y-2681579D01*
X536967Y-2681579D02*
X536967Y-2729198D01*
X536967Y-2729198D02*
X546491Y-2748246D01*
X546491Y-2748246D02*
X556015Y-2757770D01*
X556015Y-2757770D02*
X575063Y-2767293D01*
X575063Y-2767293D02*
X613158Y-2767293D01*
X613158Y-2767293D02*
X632205Y-2757770D01*
X632205Y-2757770D02*
X641729Y-2748246D01*
X641729Y-2748246D02*
X651253Y-2729198D01*
X775062Y-2643484D02*
X794110Y-2643484D01*
X794110Y-2643484D02*
X813158Y-2653008D01*
X813158Y-2653008D02*
X822682Y-2662531D01*
X822682Y-2662531D02*
X832205Y-2681579D01*
X832205Y-2681579D02*
X841729Y-2719674D01*
X841729Y-2719674D02*
X841729Y-2767293D01*
X841729Y-2767293D02*
X832205Y-2805388D01*
X832205Y-2805388D02*
X822682Y-2824436D01*
X822682Y-2824436D02*
X813158Y-2833960D01*
X813158Y-2833960D02*
X794110Y-2843484D01*
X794110Y-2843484D02*
X775062Y-2843484D01*
X775062Y-2843484D02*
X756015Y-2833960D01*
X756015Y-2833960D02*
X746491Y-2824436D01*
X746491Y-2824436D02*
X736967Y-2805388D01*
X736967Y-2805388D02*
X727443Y-2767293D01*
X727443Y-2767293D02*
X727443Y-2719674D01*
X727443Y-2719674D02*
X736967Y-2681579D01*
X736967Y-2681579D02*
X746491Y-2662531D01*
X746491Y-2662531D02*
X756015Y-2653008D01*
X756015Y-2653008D02*
X775062Y-2643484D01*
X965539Y-2643484D02*
X984586Y-2643484D01*
X984586Y-2643484D02*
X1003634Y-2653008D01*
X1003634Y-2653008D02*
X1013158Y-2662531D01*
X1013158Y-2662531D02*
X1022682Y-2681579D01*
X1022682Y-2681579D02*
X1032205Y-2719674D01*
X1032205Y-2719674D02*
X1032205Y-2767293D01*
X1032205Y-2767293D02*
X1022682Y-2805388D01*
X1022682Y-2805388D02*
X1013158Y-2824436D01*
X1013158Y-2824436D02*
X1003634Y-2833960D01*
X1003634Y-2833960D02*
X984586Y-2843484D01*
X984586Y-2843484D02*
X965539Y-2843484D01*
X965539Y-2843484D02*
X946491Y-2833960D01*
X946491Y-2833960D02*
X936967Y-2824436D01*
X936967Y-2824436D02*
X927443Y-2805388D01*
X927443Y-2805388D02*
X917920Y-2767293D01*
X917920Y-2767293D02*
X917920Y-2719674D01*
X917920Y-2719674D02*
X927443Y-2681579D01*
X927443Y-2681579D02*
X936967Y-2662531D01*
X936967Y-2662531D02*
X946491Y-2653008D01*
X946491Y-2653008D02*
X965539Y-2643484D01*
X1117920Y-2843484D02*
X1117920Y-2710150D01*
X1117920Y-2729198D02*
X1127444Y-2719674D01*
X1127444Y-2719674D02*
X1146491Y-2710150D01*
X1146491Y-2710150D02*
X1175063Y-2710150D01*
X1175063Y-2710150D02*
X1194110Y-2719674D01*
X1194110Y-2719674D02*
X1203634Y-2738722D01*
X1203634Y-2738722D02*
X1203634Y-2843484D01*
X1203634Y-2738722D02*
X1213158Y-2719674D01*
X1213158Y-2719674D02*
X1232205Y-2710150D01*
X1232205Y-2710150D02*
X1260777Y-2710150D01*
X1260777Y-2710150D02*
X1279825Y-2719674D01*
X1279825Y-2719674D02*
X1289348Y-2738722D01*
X1289348Y-2738722D02*
X1289348Y-2843484D01*
X1384586Y-2843484D02*
X1384586Y-2710150D01*
X1384586Y-2729198D02*
X1394110Y-2719674D01*
X1394110Y-2719674D02*
X1413158Y-2710150D01*
X1413158Y-2710150D02*
X1441729Y-2710150D01*
X1441729Y-2710150D02*
X1460777Y-2719674D01*
X1460777Y-2719674D02*
X1470301Y-2738722D01*
X1470301Y-2738722D02*
X1470301Y-2843484D01*
X1470301Y-2738722D02*
X1479824Y-2719674D01*
X1479824Y-2719674D02*
X1498872Y-2710150D01*
X1498872Y-2710150D02*
X1527443Y-2710150D01*
X1527443Y-2710150D02*
X1546491Y-2719674D01*
X1546491Y-2719674D02*
X1556015Y-2738722D01*
X1556015Y-2738722D02*
X1556015Y-2843484D01*
X1946491Y-2633960D02*
X1775063Y-2891103D01*
X2203634Y-2643484D02*
X2222682Y-2643484D01*
X2222682Y-2643484D02*
X2241729Y-2653008D01*
X2241729Y-2653008D02*
X2251253Y-2662531D01*
X2251253Y-2662531D02*
X2260777Y-2681579D01*
X2260777Y-2681579D02*
X2270301Y-2719674D01*
X2270301Y-2719674D02*
X2270301Y-2767293D01*
X2270301Y-2767293D02*
X2260777Y-2805388D01*
X2260777Y-2805388D02*
X2251253Y-2824436D01*
X2251253Y-2824436D02*
X2241729Y-2833960D01*
X2241729Y-2833960D02*
X2222682Y-2843484D01*
X2222682Y-2843484D02*
X2203634Y-2843484D01*
X2203634Y-2843484D02*
X2184587Y-2833960D01*
X2184587Y-2833960D02*
X2175063Y-2824436D01*
X2175063Y-2824436D02*
X2165539Y-2805388D01*
X2165539Y-2805388D02*
X2156015Y-2767293D01*
X2156015Y-2767293D02*
X2156015Y-2719674D01*
X2156015Y-2719674D02*
X2165539Y-2681579D01*
X2165539Y-2681579D02*
X2175063Y-2662531D01*
X2175063Y-2662531D02*
X2184587Y-2653008D01*
X2184587Y-2653008D02*
X2203634Y-2643484D01*
X2356015Y-2824436D02*
X2365539Y-2833960D01*
X2365539Y-2833960D02*
X2356015Y-2843484D01*
X2356015Y-2843484D02*
X2346491Y-2833960D01*
X2346491Y-2833960D02*
X2356015Y-2824436D01*
X2356015Y-2824436D02*
X2356015Y-2843484D01*
X2489348Y-2643484D02*
X2508396Y-2643484D01*
X2508396Y-2643484D02*
X2527444Y-2653008D01*
X2527444Y-2653008D02*
X2536968Y-2662531D01*
X2536968Y-2662531D02*
X2546491Y-2681579D01*
X2546491Y-2681579D02*
X2556015Y-2719674D01*
X2556015Y-2719674D02*
X2556015Y-2767293D01*
X2556015Y-2767293D02*
X2546491Y-2805388D01*
X2546491Y-2805388D02*
X2536968Y-2824436D01*
X2536968Y-2824436D02*
X2527444Y-2833960D01*
X2527444Y-2833960D02*
X2508396Y-2843484D01*
X2508396Y-2843484D02*
X2489348Y-2843484D01*
X2489348Y-2843484D02*
X2470301Y-2833960D01*
X2470301Y-2833960D02*
X2460777Y-2824436D01*
X2460777Y-2824436D02*
X2451253Y-2805388D01*
X2451253Y-2805388D02*
X2441729Y-2767293D01*
X2441729Y-2767293D02*
X2441729Y-2719674D01*
X2441729Y-2719674D02*
X2451253Y-2681579D01*
X2451253Y-2681579D02*
X2460777Y-2662531D01*
X2460777Y-2662531D02*
X2470301Y-2653008D01*
X2470301Y-2653008D02*
X2489348Y-2643484D01*
X2622682Y-2643484D02*
X2746491Y-2643484D01*
X2746491Y-2643484D02*
X2679825Y-2719674D01*
X2679825Y-2719674D02*
X2708396Y-2719674D01*
X2708396Y-2719674D02*
X2727444Y-2729198D01*
X2727444Y-2729198D02*
X2736968Y-2738722D01*
X2736968Y-2738722D02*
X2746491Y-2757770D01*
X2746491Y-2757770D02*
X2746491Y-2805388D01*
X2746491Y-2805388D02*
X2736968Y-2824436D01*
X2736968Y-2824436D02*
X2727444Y-2833960D01*
X2727444Y-2833960D02*
X2708396Y-2843484D01*
X2708396Y-2843484D02*
X2651253Y-2843484D01*
X2651253Y-2843484D02*
X2632206Y-2833960D01*
X2632206Y-2833960D02*
X2622682Y-2824436D01*
X2927444Y-2643484D02*
X2832206Y-2643484D01*
X2832206Y-2643484D02*
X2822682Y-2738722D01*
X2822682Y-2738722D02*
X2832206Y-2729198D01*
X2832206Y-2729198D02*
X2851253Y-2719674D01*
X2851253Y-2719674D02*
X2898872Y-2719674D01*
X2898872Y-2719674D02*
X2917920Y-2729198D01*
X2917920Y-2729198D02*
X2927444Y-2738722D01*
X2927444Y-2738722D02*
X2936967Y-2757770D01*
X2936967Y-2757770D02*
X2936967Y-2805388D01*
X2936967Y-2805388D02*
X2927444Y-2824436D01*
X2927444Y-2824436D02*
X2917920Y-2833960D01*
X2917920Y-2833960D02*
X2898872Y-2843484D01*
X2898872Y-2843484D02*
X2851253Y-2843484D01*
X2851253Y-2843484D02*
X2832206Y-2833960D01*
X2832206Y-2833960D02*
X2822682Y-2824436D01*
X3108396Y-2710150D02*
X3108396Y-2843484D01*
X3060777Y-2633960D02*
X3013158Y-2776817D01*
X3013158Y-2776817D02*
X3136967Y-2776817D01*
X3203634Y-2643484D02*
X3203634Y-2681579D01*
X3279825Y-2643484D02*
X3279825Y-2681579D01*
X3575063Y-2919674D02*
X3565539Y-2910150D01*
X3565539Y-2910150D02*
X3546491Y-2881579D01*
X3546491Y-2881579D02*
X3536968Y-2862531D01*
X3536968Y-2862531D02*
X3527444Y-2833960D01*
X3527444Y-2833960D02*
X3517920Y-2786341D01*
X3517920Y-2786341D02*
X3517920Y-2748246D01*
X3517920Y-2748246D02*
X3527444Y-2700627D01*
X3527444Y-2700627D02*
X3536968Y-2672055D01*
X3536968Y-2672055D02*
X3546491Y-2653008D01*
X3546491Y-2653008D02*
X3565539Y-2624436D01*
X3565539Y-2624436D02*
X3575063Y-2614912D01*
X3641729Y-2662531D02*
X3651253Y-2653008D01*
X3651253Y-2653008D02*
X3670301Y-2643484D01*
X3670301Y-2643484D02*
X3717920Y-2643484D01*
X3717920Y-2643484D02*
X3736968Y-2653008D01*
X3736968Y-2653008D02*
X3746491Y-2662531D01*
X3746491Y-2662531D02*
X3756015Y-2681579D01*
X3756015Y-2681579D02*
X3756015Y-2700627D01*
X3756015Y-2700627D02*
X3746491Y-2729198D01*
X3746491Y-2729198D02*
X3632206Y-2843484D01*
X3632206Y-2843484D02*
X3756015Y-2843484D01*
X3994110Y-2843484D02*
X3994110Y-2643484D01*
X4079825Y-2843484D02*
X4079825Y-2738722D01*
X4079825Y-2738722D02*
X4070301Y-2719674D01*
X4070301Y-2719674D02*
X4051253Y-2710150D01*
X4051253Y-2710150D02*
X4022682Y-2710150D01*
X4022682Y-2710150D02*
X4003634Y-2719674D01*
X4003634Y-2719674D02*
X3994110Y-2729198D01*
X4203634Y-2843484D02*
X4184587Y-2833960D01*
X4184587Y-2833960D02*
X4175063Y-2824436D01*
X4175063Y-2824436D02*
X4165539Y-2805388D01*
X4165539Y-2805388D02*
X4165539Y-2748246D01*
X4165539Y-2748246D02*
X4175063Y-2729198D01*
X4175063Y-2729198D02*
X4184587Y-2719674D01*
X4184587Y-2719674D02*
X4203634Y-2710150D01*
X4203634Y-2710150D02*
X4232206Y-2710150D01*
X4232206Y-2710150D02*
X4251253Y-2719674D01*
X4251253Y-2719674D02*
X4260777Y-2729198D01*
X4260777Y-2729198D02*
X4270301Y-2748246D01*
X4270301Y-2748246D02*
X4270301Y-2805388D01*
X4270301Y-2805388D02*
X4260777Y-2824436D01*
X4260777Y-2824436D02*
X4251253Y-2833960D01*
X4251253Y-2833960D02*
X4232206Y-2843484D01*
X4232206Y-2843484D02*
X4203634Y-2843484D01*
X4384587Y-2843484D02*
X4365539Y-2833960D01*
X4365539Y-2833960D02*
X4356015Y-2814912D01*
X4356015Y-2814912D02*
X4356015Y-2643484D01*
X4536968Y-2833960D02*
X4517920Y-2843484D01*
X4517920Y-2843484D02*
X4479825Y-2843484D01*
X4479825Y-2843484D02*
X4460777Y-2833960D01*
X4460777Y-2833960D02*
X4451253Y-2814912D01*
X4451253Y-2814912D02*
X4451253Y-2738722D01*
X4451253Y-2738722D02*
X4460777Y-2719674D01*
X4460777Y-2719674D02*
X4479825Y-2710150D01*
X4479825Y-2710150D02*
X4517920Y-2710150D01*
X4517920Y-2710150D02*
X4536968Y-2719674D01*
X4536968Y-2719674D02*
X4546492Y-2738722D01*
X4546492Y-2738722D02*
X4546492Y-2757770D01*
X4546492Y-2757770D02*
X4451253Y-2776817D01*
X4622682Y-2833960D02*
X4641730Y-2843484D01*
X4641730Y-2843484D02*
X4679825Y-2843484D01*
X4679825Y-2843484D02*
X4698873Y-2833960D01*
X4698873Y-2833960D02*
X4708396Y-2814912D01*
X4708396Y-2814912D02*
X4708396Y-2805388D01*
X4708396Y-2805388D02*
X4698873Y-2786341D01*
X4698873Y-2786341D02*
X4679825Y-2776817D01*
X4679825Y-2776817D02*
X4651253Y-2776817D01*
X4651253Y-2776817D02*
X4632206Y-2767293D01*
X4632206Y-2767293D02*
X4622682Y-2748246D01*
X4622682Y-2748246D02*
X4622682Y-2738722D01*
X4622682Y-2738722D02*
X4632206Y-2719674D01*
X4632206Y-2719674D02*
X4651253Y-2710150D01*
X4651253Y-2710150D02*
X4679825Y-2710150D01*
X4679825Y-2710150D02*
X4698873Y-2719674D01*
X4775063Y-2919674D02*
X4784587Y-2910150D01*
X4784587Y-2910150D02*
X4803634Y-2881579D01*
X4803634Y-2881579D02*
X4813158Y-2862531D01*
X4813158Y-2862531D02*
X4822682Y-2833960D01*
X4822682Y-2833960D02*
X4832206Y-2786341D01*
X4832206Y-2786341D02*
X4832206Y-2748246D01*
X4832206Y-2748246D02*
X4822682Y-2700627D01*
X4822682Y-2700627D02*
X4813158Y-2672055D01*
X4813158Y-2672055D02*
X4803634Y-2653008D01*
X4803634Y-2653008D02*
X4784587Y-2624436D01*
X4784587Y-2624436D02*
X4775063Y-2614912D01*
X5136968Y-2919674D02*
X5127444Y-2910150D01*
X5127444Y-2910150D02*
X5108396Y-2881579D01*
X5108396Y-2881579D02*
X5098873Y-2862531D01*
X5098873Y-2862531D02*
X5089349Y-2833960D01*
X5089349Y-2833960D02*
X5079825Y-2786341D01*
X5079825Y-2786341D02*
X5079825Y-2748246D01*
X5079825Y-2748246D02*
X5089349Y-2700627D01*
X5089349Y-2700627D02*
X5098873Y-2672055D01*
X5098873Y-2672055D02*
X5108396Y-2653008D01*
X5108396Y-2653008D02*
X5127444Y-2624436D01*
X5127444Y-2624436D02*
X5136968Y-2614912D01*
X5213158Y-2710150D02*
X5213158Y-2843484D01*
X5213158Y-2729198D02*
X5222682Y-2719674D01*
X5222682Y-2719674D02*
X5241730Y-2710150D01*
X5241730Y-2710150D02*
X5270301Y-2710150D01*
X5270301Y-2710150D02*
X5289349Y-2719674D01*
X5289349Y-2719674D02*
X5298873Y-2738722D01*
X5298873Y-2738722D02*
X5298873Y-2843484D01*
X5422682Y-2843484D02*
X5403634Y-2833960D01*
X5403634Y-2833960D02*
X5394111Y-2824436D01*
X5394111Y-2824436D02*
X5384587Y-2805388D01*
X5384587Y-2805388D02*
X5384587Y-2748246D01*
X5384587Y-2748246D02*
X5394111Y-2729198D01*
X5394111Y-2729198D02*
X5403634Y-2719674D01*
X5403634Y-2719674D02*
X5422682Y-2710150D01*
X5422682Y-2710150D02*
X5451254Y-2710150D01*
X5451254Y-2710150D02*
X5470301Y-2719674D01*
X5470301Y-2719674D02*
X5479825Y-2729198D01*
X5479825Y-2729198D02*
X5489349Y-2748246D01*
X5489349Y-2748246D02*
X5489349Y-2805388D01*
X5489349Y-2805388D02*
X5479825Y-2824436D01*
X5479825Y-2824436D02*
X5470301Y-2833960D01*
X5470301Y-2833960D02*
X5451254Y-2843484D01*
X5451254Y-2843484D02*
X5422682Y-2843484D01*
X5546492Y-2710150D02*
X5622682Y-2710150D01*
X5575063Y-2643484D02*
X5575063Y-2814912D01*
X5575063Y-2814912D02*
X5584587Y-2833960D01*
X5584587Y-2833960D02*
X5603634Y-2843484D01*
X5603634Y-2843484D02*
X5622682Y-2843484D01*
X5841730Y-2710150D02*
X5841730Y-2910150D01*
X5841730Y-2719674D02*
X5860777Y-2710150D01*
X5860777Y-2710150D02*
X5898873Y-2710150D01*
X5898873Y-2710150D02*
X5917920Y-2719674D01*
X5917920Y-2719674D02*
X5927444Y-2729198D01*
X5927444Y-2729198D02*
X5936968Y-2748246D01*
X5936968Y-2748246D02*
X5936968Y-2805388D01*
X5936968Y-2805388D02*
X5927444Y-2824436D01*
X5927444Y-2824436D02*
X5917920Y-2833960D01*
X5917920Y-2833960D02*
X5898873Y-2843484D01*
X5898873Y-2843484D02*
X5860777Y-2843484D01*
X5860777Y-2843484D02*
X5841730Y-2833960D01*
X6051253Y-2843484D02*
X6032206Y-2833960D01*
X6032206Y-2833960D02*
X6022682Y-2814912D01*
X6022682Y-2814912D02*
X6022682Y-2643484D01*
X6213158Y-2843484D02*
X6213158Y-2738722D01*
X6213158Y-2738722D02*
X6203634Y-2719674D01*
X6203634Y-2719674D02*
X6184587Y-2710150D01*
X6184587Y-2710150D02*
X6146492Y-2710150D01*
X6146492Y-2710150D02*
X6127444Y-2719674D01*
X6213158Y-2833960D02*
X6194111Y-2843484D01*
X6194111Y-2843484D02*
X6146492Y-2843484D01*
X6146492Y-2843484D02*
X6127444Y-2833960D01*
X6127444Y-2833960D02*
X6117920Y-2814912D01*
X6117920Y-2814912D02*
X6117920Y-2795865D01*
X6117920Y-2795865D02*
X6127444Y-2776817D01*
X6127444Y-2776817D02*
X6146492Y-2767293D01*
X6146492Y-2767293D02*
X6194111Y-2767293D01*
X6194111Y-2767293D02*
X6213158Y-2757770D01*
X6279825Y-2710150D02*
X6356015Y-2710150D01*
X6308396Y-2643484D02*
X6308396Y-2814912D01*
X6308396Y-2814912D02*
X6317920Y-2833960D01*
X6317920Y-2833960D02*
X6336968Y-2843484D01*
X6336968Y-2843484D02*
X6356015Y-2843484D01*
X6498873Y-2833960D02*
X6479825Y-2843484D01*
X6479825Y-2843484D02*
X6441730Y-2843484D01*
X6441730Y-2843484D02*
X6422682Y-2833960D01*
X6422682Y-2833960D02*
X6413158Y-2814912D01*
X6413158Y-2814912D02*
X6413158Y-2738722D01*
X6413158Y-2738722D02*
X6422682Y-2719674D01*
X6422682Y-2719674D02*
X6441730Y-2710150D01*
X6441730Y-2710150D02*
X6479825Y-2710150D01*
X6479825Y-2710150D02*
X6498873Y-2719674D01*
X6498873Y-2719674D02*
X6508396Y-2738722D01*
X6508396Y-2738722D02*
X6508396Y-2757770D01*
X6508396Y-2757770D02*
X6413158Y-2776817D01*
X6679825Y-2843484D02*
X6679825Y-2643484D01*
X6679825Y-2833960D02*
X6660777Y-2843484D01*
X6660777Y-2843484D02*
X6622682Y-2843484D01*
X6622682Y-2843484D02*
X6603634Y-2833960D01*
X6603634Y-2833960D02*
X6594111Y-2824436D01*
X6594111Y-2824436D02*
X6584587Y-2805388D01*
X6584587Y-2805388D02*
X6584587Y-2748246D01*
X6584587Y-2748246D02*
X6594111Y-2729198D01*
X6594111Y-2729198D02*
X6603634Y-2719674D01*
X6603634Y-2719674D02*
X6622682Y-2710150D01*
X6622682Y-2710150D02*
X6660777Y-2710150D01*
X6660777Y-2710150D02*
X6679825Y-2719674D01*
X6756015Y-2919674D02*
X6765539Y-2910150D01*
X6765539Y-2910150D02*
X6784587Y-2881579D01*
X6784587Y-2881579D02*
X6794111Y-2862531D01*
X6794111Y-2862531D02*
X6803634Y-2833960D01*
X6803634Y-2833960D02*
X6813158Y-2786341D01*
X6813158Y-2786341D02*
X6813158Y-2748246D01*
X6813158Y-2748246D02*
X6803634Y-2700627D01*
X6803634Y-2700627D02*
X6794111Y-2672055D01*
X6794111Y-2672055D02*
X6784587Y-2653008D01*
X6784587Y-2653008D02*
X6765539Y-2624436D01*
X6765539Y-2624436D02*
X6756015Y-2614912D01*
X-100000Y-2916000D02*
X-100000Y-3116000D01*
X-200000Y-3016000D02*
X0Y-3016000D01*
X0Y-3016000D02*
G75*
G02*
X-200000Y-3016000I-100000J0D01*
G01*
X-200000Y-3016000D02*
G75*
G02*
X0Y-3016000I100000J0D01*
G01*
X241729Y-2907484D02*
X365539Y-2907484D01*
X365539Y-2907484D02*
X298872Y-2983674D01*
X298872Y-2983674D02*
X327444Y-2983674D01*
X327444Y-2983674D02*
X346491Y-2993198D01*
X346491Y-2993198D02*
X356015Y-3002722D01*
X356015Y-3002722D02*
X365539Y-3021769D01*
X365539Y-3021769D02*
X365539Y-3069388D01*
X365539Y-3069388D02*
X356015Y-3088436D01*
X356015Y-3088436D02*
X346491Y-3097960D01*
X346491Y-3097960D02*
X327444Y-3107484D01*
X327444Y-3107484D02*
X270301Y-3107484D01*
X270301Y-3107484D02*
X251253Y-3097960D01*
X251253Y-3097960D02*
X241729Y-3088436D01*
X451253Y-3088436D02*
X460777Y-3097960D01*
X460777Y-3097960D02*
X451253Y-3107484D01*
X451253Y-3107484D02*
X441729Y-3097960D01*
X441729Y-3097960D02*
X451253Y-3088436D01*
X451253Y-3088436D02*
X451253Y-3107484D01*
X584586Y-2907484D02*
X603634Y-2907484D01*
X603634Y-2907484D02*
X622682Y-2917008D01*
X622682Y-2917008D02*
X632205Y-2926531D01*
X632205Y-2926531D02*
X641729Y-2945579D01*
X641729Y-2945579D02*
X651253Y-2983674D01*
X651253Y-2983674D02*
X651253Y-3031293D01*
X651253Y-3031293D02*
X641729Y-3069388D01*
X641729Y-3069388D02*
X632205Y-3088436D01*
X632205Y-3088436D02*
X622682Y-3097960D01*
X622682Y-3097960D02*
X603634Y-3107484D01*
X603634Y-3107484D02*
X584586Y-3107484D01*
X584586Y-3107484D02*
X565539Y-3097960D01*
X565539Y-3097960D02*
X556015Y-3088436D01*
X556015Y-3088436D02*
X546491Y-3069388D01*
X546491Y-3069388D02*
X536967Y-3031293D01*
X536967Y-3031293D02*
X536967Y-2983674D01*
X536967Y-2983674D02*
X546491Y-2945579D01*
X546491Y-2945579D02*
X556015Y-2926531D01*
X556015Y-2926531D02*
X565539Y-2917008D01*
X565539Y-2917008D02*
X584586Y-2907484D01*
X775062Y-2907484D02*
X794110Y-2907484D01*
X794110Y-2907484D02*
X813158Y-2917008D01*
X813158Y-2917008D02*
X822682Y-2926531D01*
X822682Y-2926531D02*
X832205Y-2945579D01*
X832205Y-2945579D02*
X841729Y-2983674D01*
X841729Y-2983674D02*
X841729Y-3031293D01*
X841729Y-3031293D02*
X832205Y-3069388D01*
X832205Y-3069388D02*
X822682Y-3088436D01*
X822682Y-3088436D02*
X813158Y-3097960D01*
X813158Y-3097960D02*
X794110Y-3107484D01*
X794110Y-3107484D02*
X775062Y-3107484D01*
X775062Y-3107484D02*
X756015Y-3097960D01*
X756015Y-3097960D02*
X746491Y-3088436D01*
X746491Y-3088436D02*
X736967Y-3069388D01*
X736967Y-3069388D02*
X727443Y-3031293D01*
X727443Y-3031293D02*
X727443Y-2983674D01*
X727443Y-2983674D02*
X736967Y-2945579D01*
X736967Y-2945579D02*
X746491Y-2926531D01*
X746491Y-2926531D02*
X756015Y-2917008D01*
X756015Y-2917008D02*
X775062Y-2907484D01*
X965539Y-2907484D02*
X984586Y-2907484D01*
X984586Y-2907484D02*
X1003634Y-2917008D01*
X1003634Y-2917008D02*
X1013158Y-2926531D01*
X1013158Y-2926531D02*
X1022682Y-2945579D01*
X1022682Y-2945579D02*
X1032205Y-2983674D01*
X1032205Y-2983674D02*
X1032205Y-3031293D01*
X1032205Y-3031293D02*
X1022682Y-3069388D01*
X1022682Y-3069388D02*
X1013158Y-3088436D01*
X1013158Y-3088436D02*
X1003634Y-3097960D01*
X1003634Y-3097960D02*
X984586Y-3107484D01*
X984586Y-3107484D02*
X965539Y-3107484D01*
X965539Y-3107484D02*
X946491Y-3097960D01*
X946491Y-3097960D02*
X936967Y-3088436D01*
X936967Y-3088436D02*
X927443Y-3069388D01*
X927443Y-3069388D02*
X917920Y-3031293D01*
X917920Y-3031293D02*
X917920Y-2983674D01*
X917920Y-2983674D02*
X927443Y-2945579D01*
X927443Y-2945579D02*
X936967Y-2926531D01*
X936967Y-2926531D02*
X946491Y-2917008D01*
X946491Y-2917008D02*
X965539Y-2907484D01*
X1117920Y-3107484D02*
X1117920Y-2974150D01*
X1117920Y-2993198D02*
X1127444Y-2983674D01*
X1127444Y-2983674D02*
X1146491Y-2974150D01*
X1146491Y-2974150D02*
X1175063Y-2974150D01*
X1175063Y-2974150D02*
X1194110Y-2983674D01*
X1194110Y-2983674D02*
X1203634Y-3002722D01*
X1203634Y-3002722D02*
X1203634Y-3107484D01*
X1203634Y-3002722D02*
X1213158Y-2983674D01*
X1213158Y-2983674D02*
X1232205Y-2974150D01*
X1232205Y-2974150D02*
X1260777Y-2974150D01*
X1260777Y-2974150D02*
X1279825Y-2983674D01*
X1279825Y-2983674D02*
X1289348Y-3002722D01*
X1289348Y-3002722D02*
X1289348Y-3107484D01*
X1384586Y-3107484D02*
X1384586Y-2974150D01*
X1384586Y-2993198D02*
X1394110Y-2983674D01*
X1394110Y-2983674D02*
X1413158Y-2974150D01*
X1413158Y-2974150D02*
X1441729Y-2974150D01*
X1441729Y-2974150D02*
X1460777Y-2983674D01*
X1460777Y-2983674D02*
X1470301Y-3002722D01*
X1470301Y-3002722D02*
X1470301Y-3107484D01*
X1470301Y-3002722D02*
X1479824Y-2983674D01*
X1479824Y-2983674D02*
X1498872Y-2974150D01*
X1498872Y-2974150D02*
X1527443Y-2974150D01*
X1527443Y-2974150D02*
X1546491Y-2983674D01*
X1546491Y-2983674D02*
X1556015Y-3002722D01*
X1556015Y-3002722D02*
X1556015Y-3107484D01*
X1946491Y-2897960D02*
X1775063Y-3155103D01*
X2203634Y-2907484D02*
X2222682Y-2907484D01*
X2222682Y-2907484D02*
X2241729Y-2917008D01*
X2241729Y-2917008D02*
X2251253Y-2926531D01*
X2251253Y-2926531D02*
X2260777Y-2945579D01*
X2260777Y-2945579D02*
X2270301Y-2983674D01*
X2270301Y-2983674D02*
X2270301Y-3031293D01*
X2270301Y-3031293D02*
X2260777Y-3069388D01*
X2260777Y-3069388D02*
X2251253Y-3088436D01*
X2251253Y-3088436D02*
X2241729Y-3097960D01*
X2241729Y-3097960D02*
X2222682Y-3107484D01*
X2222682Y-3107484D02*
X2203634Y-3107484D01*
X2203634Y-3107484D02*
X2184587Y-3097960D01*
X2184587Y-3097960D02*
X2175063Y-3088436D01*
X2175063Y-3088436D02*
X2165539Y-3069388D01*
X2165539Y-3069388D02*
X2156015Y-3031293D01*
X2156015Y-3031293D02*
X2156015Y-2983674D01*
X2156015Y-2983674D02*
X2165539Y-2945579D01*
X2165539Y-2945579D02*
X2175063Y-2926531D01*
X2175063Y-2926531D02*
X2184587Y-2917008D01*
X2184587Y-2917008D02*
X2203634Y-2907484D01*
X2356015Y-3088436D02*
X2365539Y-3097960D01*
X2365539Y-3097960D02*
X2356015Y-3107484D01*
X2356015Y-3107484D02*
X2346491Y-3097960D01*
X2346491Y-3097960D02*
X2356015Y-3088436D01*
X2356015Y-3088436D02*
X2356015Y-3107484D01*
X2556015Y-3107484D02*
X2441729Y-3107484D01*
X2498872Y-3107484D02*
X2498872Y-2907484D01*
X2498872Y-2907484D02*
X2479825Y-2936055D01*
X2479825Y-2936055D02*
X2460777Y-2955103D01*
X2460777Y-2955103D02*
X2441729Y-2964627D01*
X2746491Y-3107484D02*
X2632206Y-3107484D01*
X2689348Y-3107484D02*
X2689348Y-2907484D01*
X2689348Y-2907484D02*
X2670301Y-2936055D01*
X2670301Y-2936055D02*
X2651253Y-2955103D01*
X2651253Y-2955103D02*
X2632206Y-2964627D01*
X2860777Y-2993198D02*
X2841729Y-2983674D01*
X2841729Y-2983674D02*
X2832206Y-2974150D01*
X2832206Y-2974150D02*
X2822682Y-2955103D01*
X2822682Y-2955103D02*
X2822682Y-2945579D01*
X2822682Y-2945579D02*
X2832206Y-2926531D01*
X2832206Y-2926531D02*
X2841729Y-2917008D01*
X2841729Y-2917008D02*
X2860777Y-2907484D01*
X2860777Y-2907484D02*
X2898872Y-2907484D01*
X2898872Y-2907484D02*
X2917920Y-2917008D01*
X2917920Y-2917008D02*
X2927444Y-2926531D01*
X2927444Y-2926531D02*
X2936967Y-2945579D01*
X2936967Y-2945579D02*
X2936967Y-2955103D01*
X2936967Y-2955103D02*
X2927444Y-2974150D01*
X2927444Y-2974150D02*
X2917920Y-2983674D01*
X2917920Y-2983674D02*
X2898872Y-2993198D01*
X2898872Y-2993198D02*
X2860777Y-2993198D01*
X2860777Y-2993198D02*
X2841729Y-3002722D01*
X2841729Y-3002722D02*
X2832206Y-3012246D01*
X2832206Y-3012246D02*
X2822682Y-3031293D01*
X2822682Y-3031293D02*
X2822682Y-3069388D01*
X2822682Y-3069388D02*
X2832206Y-3088436D01*
X2832206Y-3088436D02*
X2841729Y-3097960D01*
X2841729Y-3097960D02*
X2860777Y-3107484D01*
X2860777Y-3107484D02*
X2898872Y-3107484D01*
X2898872Y-3107484D02*
X2917920Y-3097960D01*
X2917920Y-3097960D02*
X2927444Y-3088436D01*
X2927444Y-3088436D02*
X2936967Y-3069388D01*
X2936967Y-3069388D02*
X2936967Y-3031293D01*
X2936967Y-3031293D02*
X2927444Y-3012246D01*
X2927444Y-3012246D02*
X2917920Y-3002722D01*
X2917920Y-3002722D02*
X2898872Y-2993198D01*
X3127444Y-3107484D02*
X3013158Y-3107484D01*
X3070301Y-3107484D02*
X3070301Y-2907484D01*
X3070301Y-2907484D02*
X3051253Y-2936055D01*
X3051253Y-2936055D02*
X3032206Y-2955103D01*
X3032206Y-2955103D02*
X3013158Y-2964627D01*
X3203634Y-2907484D02*
X3203634Y-2945579D01*
X3279825Y-2907484D02*
X3279825Y-2945579D01*
X3575063Y-3183674D02*
X3565539Y-3174150D01*
X3565539Y-3174150D02*
X3546491Y-3145579D01*
X3546491Y-3145579D02*
X3536968Y-3126531D01*
X3536968Y-3126531D02*
X3527444Y-3097960D01*
X3527444Y-3097960D02*
X3517920Y-3050341D01*
X3517920Y-3050341D02*
X3517920Y-3012246D01*
X3517920Y-3012246D02*
X3527444Y-2964627D01*
X3527444Y-2964627D02*
X3536968Y-2936055D01*
X3536968Y-2936055D02*
X3546491Y-2917008D01*
X3546491Y-2917008D02*
X3565539Y-2888436D01*
X3565539Y-2888436D02*
X3575063Y-2878912D01*
X3736968Y-2974150D02*
X3736968Y-3107484D01*
X3689348Y-2897960D02*
X3641729Y-3040817D01*
X3641729Y-3040817D02*
X3765539Y-3040817D01*
X3994110Y-3107484D02*
X3994110Y-2907484D01*
X4079825Y-3107484D02*
X4079825Y-3002722D01*
X4079825Y-3002722D02*
X4070301Y-2983674D01*
X4070301Y-2983674D02*
X4051253Y-2974150D01*
X4051253Y-2974150D02*
X4022682Y-2974150D01*
X4022682Y-2974150D02*
X4003634Y-2983674D01*
X4003634Y-2983674D02*
X3994110Y-2993198D01*
X4203634Y-3107484D02*
X4184587Y-3097960D01*
X4184587Y-3097960D02*
X4175063Y-3088436D01*
X4175063Y-3088436D02*
X4165539Y-3069388D01*
X4165539Y-3069388D02*
X4165539Y-3012246D01*
X4165539Y-3012246D02*
X4175063Y-2993198D01*
X4175063Y-2993198D02*
X4184587Y-2983674D01*
X4184587Y-2983674D02*
X4203634Y-2974150D01*
X4203634Y-2974150D02*
X4232206Y-2974150D01*
X4232206Y-2974150D02*
X4251253Y-2983674D01*
X4251253Y-2983674D02*
X4260777Y-2993198D01*
X4260777Y-2993198D02*
X4270301Y-3012246D01*
X4270301Y-3012246D02*
X4270301Y-3069388D01*
X4270301Y-3069388D02*
X4260777Y-3088436D01*
X4260777Y-3088436D02*
X4251253Y-3097960D01*
X4251253Y-3097960D02*
X4232206Y-3107484D01*
X4232206Y-3107484D02*
X4203634Y-3107484D01*
X4384587Y-3107484D02*
X4365539Y-3097960D01*
X4365539Y-3097960D02*
X4356015Y-3078912D01*
X4356015Y-3078912D02*
X4356015Y-2907484D01*
X4536968Y-3097960D02*
X4517920Y-3107484D01*
X4517920Y-3107484D02*
X4479825Y-3107484D01*
X4479825Y-3107484D02*
X4460777Y-3097960D01*
X4460777Y-3097960D02*
X4451253Y-3078912D01*
X4451253Y-3078912D02*
X4451253Y-3002722D01*
X4451253Y-3002722D02*
X4460777Y-2983674D01*
X4460777Y-2983674D02*
X4479825Y-2974150D01*
X4479825Y-2974150D02*
X4517920Y-2974150D01*
X4517920Y-2974150D02*
X4536968Y-2983674D01*
X4536968Y-2983674D02*
X4546492Y-3002722D01*
X4546492Y-3002722D02*
X4546492Y-3021769D01*
X4546492Y-3021769D02*
X4451253Y-3040817D01*
X4622682Y-3097960D02*
X4641730Y-3107484D01*
X4641730Y-3107484D02*
X4679825Y-3107484D01*
X4679825Y-3107484D02*
X4698873Y-3097960D01*
X4698873Y-3097960D02*
X4708396Y-3078912D01*
X4708396Y-3078912D02*
X4708396Y-3069388D01*
X4708396Y-3069388D02*
X4698873Y-3050341D01*
X4698873Y-3050341D02*
X4679825Y-3040817D01*
X4679825Y-3040817D02*
X4651253Y-3040817D01*
X4651253Y-3040817D02*
X4632206Y-3031293D01*
X4632206Y-3031293D02*
X4622682Y-3012246D01*
X4622682Y-3012246D02*
X4622682Y-3002722D01*
X4622682Y-3002722D02*
X4632206Y-2983674D01*
X4632206Y-2983674D02*
X4651253Y-2974150D01*
X4651253Y-2974150D02*
X4679825Y-2974150D01*
X4679825Y-2974150D02*
X4698873Y-2983674D01*
X4775063Y-3183674D02*
X4784587Y-3174150D01*
X4784587Y-3174150D02*
X4803634Y-3145579D01*
X4803634Y-3145579D02*
X4813158Y-3126531D01*
X4813158Y-3126531D02*
X4822682Y-3097960D01*
X4822682Y-3097960D02*
X4832206Y-3050341D01*
X4832206Y-3050341D02*
X4832206Y-3012246D01*
X4832206Y-3012246D02*
X4822682Y-2964627D01*
X4822682Y-2964627D02*
X4813158Y-2936055D01*
X4813158Y-2936055D02*
X4803634Y-2917008D01*
X4803634Y-2917008D02*
X4784587Y-2888436D01*
X4784587Y-2888436D02*
X4775063Y-2878912D01*
X5136968Y-3183674D02*
X5127444Y-3174150D01*
X5127444Y-3174150D02*
X5108396Y-3145579D01*
X5108396Y-3145579D02*
X5098873Y-3126531D01*
X5098873Y-3126531D02*
X5089349Y-3097960D01*
X5089349Y-3097960D02*
X5079825Y-3050341D01*
X5079825Y-3050341D02*
X5079825Y-3012246D01*
X5079825Y-3012246D02*
X5089349Y-2964627D01*
X5089349Y-2964627D02*
X5098873Y-2936055D01*
X5098873Y-2936055D02*
X5108396Y-2917008D01*
X5108396Y-2917008D02*
X5127444Y-2888436D01*
X5127444Y-2888436D02*
X5136968Y-2878912D01*
X5213158Y-2974150D02*
X5213158Y-3107484D01*
X5213158Y-2993198D02*
X5222682Y-2983674D01*
X5222682Y-2983674D02*
X5241730Y-2974150D01*
X5241730Y-2974150D02*
X5270301Y-2974150D01*
X5270301Y-2974150D02*
X5289349Y-2983674D01*
X5289349Y-2983674D02*
X5298873Y-3002722D01*
X5298873Y-3002722D02*
X5298873Y-3107484D01*
X5422682Y-3107484D02*
X5403634Y-3097960D01*
X5403634Y-3097960D02*
X5394111Y-3088436D01*
X5394111Y-3088436D02*
X5384587Y-3069388D01*
X5384587Y-3069388D02*
X5384587Y-3012246D01*
X5384587Y-3012246D02*
X5394111Y-2993198D01*
X5394111Y-2993198D02*
X5403634Y-2983674D01*
X5403634Y-2983674D02*
X5422682Y-2974150D01*
X5422682Y-2974150D02*
X5451254Y-2974150D01*
X5451254Y-2974150D02*
X5470301Y-2983674D01*
X5470301Y-2983674D02*
X5479825Y-2993198D01*
X5479825Y-2993198D02*
X5489349Y-3012246D01*
X5489349Y-3012246D02*
X5489349Y-3069388D01*
X5489349Y-3069388D02*
X5479825Y-3088436D01*
X5479825Y-3088436D02*
X5470301Y-3097960D01*
X5470301Y-3097960D02*
X5451254Y-3107484D01*
X5451254Y-3107484D02*
X5422682Y-3107484D01*
X5546492Y-2974150D02*
X5622682Y-2974150D01*
X5575063Y-2907484D02*
X5575063Y-3078912D01*
X5575063Y-3078912D02*
X5584587Y-3097960D01*
X5584587Y-3097960D02*
X5603634Y-3107484D01*
X5603634Y-3107484D02*
X5622682Y-3107484D01*
X5841730Y-2974150D02*
X5841730Y-3174150D01*
X5841730Y-2983674D02*
X5860777Y-2974150D01*
X5860777Y-2974150D02*
X5898873Y-2974150D01*
X5898873Y-2974150D02*
X5917920Y-2983674D01*
X5917920Y-2983674D02*
X5927444Y-2993198D01*
X5927444Y-2993198D02*
X5936968Y-3012246D01*
X5936968Y-3012246D02*
X5936968Y-3069388D01*
X5936968Y-3069388D02*
X5927444Y-3088436D01*
X5927444Y-3088436D02*
X5917920Y-3097960D01*
X5917920Y-3097960D02*
X5898873Y-3107484D01*
X5898873Y-3107484D02*
X5860777Y-3107484D01*
X5860777Y-3107484D02*
X5841730Y-3097960D01*
X6051253Y-3107484D02*
X6032206Y-3097960D01*
X6032206Y-3097960D02*
X6022682Y-3078912D01*
X6022682Y-3078912D02*
X6022682Y-2907484D01*
X6213158Y-3107484D02*
X6213158Y-3002722D01*
X6213158Y-3002722D02*
X6203634Y-2983674D01*
X6203634Y-2983674D02*
X6184587Y-2974150D01*
X6184587Y-2974150D02*
X6146492Y-2974150D01*
X6146492Y-2974150D02*
X6127444Y-2983674D01*
X6213158Y-3097960D02*
X6194111Y-3107484D01*
X6194111Y-3107484D02*
X6146492Y-3107484D01*
X6146492Y-3107484D02*
X6127444Y-3097960D01*
X6127444Y-3097960D02*
X6117920Y-3078912D01*
X6117920Y-3078912D02*
X6117920Y-3059865D01*
X6117920Y-3059865D02*
X6127444Y-3040817D01*
X6127444Y-3040817D02*
X6146492Y-3031293D01*
X6146492Y-3031293D02*
X6194111Y-3031293D01*
X6194111Y-3031293D02*
X6213158Y-3021769D01*
X6279825Y-2974150D02*
X6356015Y-2974150D01*
X6308396Y-2907484D02*
X6308396Y-3078912D01*
X6308396Y-3078912D02*
X6317920Y-3097960D01*
X6317920Y-3097960D02*
X6336968Y-3107484D01*
X6336968Y-3107484D02*
X6356015Y-3107484D01*
X6498873Y-3097960D02*
X6479825Y-3107484D01*
X6479825Y-3107484D02*
X6441730Y-3107484D01*
X6441730Y-3107484D02*
X6422682Y-3097960D01*
X6422682Y-3097960D02*
X6413158Y-3078912D01*
X6413158Y-3078912D02*
X6413158Y-3002722D01*
X6413158Y-3002722D02*
X6422682Y-2983674D01*
X6422682Y-2983674D02*
X6441730Y-2974150D01*
X6441730Y-2974150D02*
X6479825Y-2974150D01*
X6479825Y-2974150D02*
X6498873Y-2983674D01*
X6498873Y-2983674D02*
X6508396Y-3002722D01*
X6508396Y-3002722D02*
X6508396Y-3021769D01*
X6508396Y-3021769D02*
X6413158Y-3040817D01*
X6679825Y-3107484D02*
X6679825Y-2907484D01*
X6679825Y-3097960D02*
X6660777Y-3107484D01*
X6660777Y-3107484D02*
X6622682Y-3107484D01*
X6622682Y-3107484D02*
X6603634Y-3097960D01*
X6603634Y-3097960D02*
X6594111Y-3088436D01*
X6594111Y-3088436D02*
X6584587Y-3069388D01*
X6584587Y-3069388D02*
X6584587Y-3012246D01*
X6584587Y-3012246D02*
X6594111Y-2993198D01*
X6594111Y-2993198D02*
X6603634Y-2983674D01*
X6603634Y-2983674D02*
X6622682Y-2974150D01*
X6622682Y-2974150D02*
X6660777Y-2974150D01*
X6660777Y-2974150D02*
X6679825Y-2983674D01*
X6756015Y-3183674D02*
X6765539Y-3174150D01*
X6765539Y-3174150D02*
X6784587Y-3145579D01*
X6784587Y-3145579D02*
X6794111Y-3126531D01*
X6794111Y-3126531D02*
X6803634Y-3097960D01*
X6803634Y-3097960D02*
X6813158Y-3050341D01*
X6813158Y-3050341D02*
X6813158Y-3012246D01*
X6813158Y-3012246D02*
X6803634Y-2964627D01*
X6803634Y-2964627D02*
X6794111Y-2936055D01*
X6794111Y-2936055D02*
X6784587Y-2917008D01*
X6784587Y-2917008D02*
X6765539Y-2888436D01*
X6765539Y-2888436D02*
X6756015Y-2878912D01*
M02*
