G04 #@! TF.GenerationSoftware,KiCad,Pcbnew,8.99.0-unknown*
G04 #@! TF.CreationDate,2024-03-12T12:42:11+03:00*
G04 #@! TF.ProjectId,opi-hat,6f70692d-6861-4742-9e6b-696361645f70,rev?*
G04 #@! TF.SameCoordinates,Original*
G04 #@! TF.FileFunction,Legend,Top*
G04 #@! TF.FilePolarity,Positive*
%FSLAX46Y46*%
G04 Gerber Fmt 4.6, Leading zero omitted, Abs format (unit mm)*
G04 Created by KiCad (PCBNEW 8.99.0-unknown) date 2024-03-12 12:42:11*
%MOMM*%
%LPD*%
G01*
G04 APERTURE LIST*
%ADD10C,0.150000*%
%ADD11C,0.092659*%
%ADD12C,0.120000*%
G04 #@! TA.AperFunction,Profile*
%ADD13C,0.127000*%
G04 #@! TD*
G04 APERTURE END LIST*
D10*
X89027095Y-56858819D02*
X89027095Y-57668342D01*
X89027095Y-57668342D02*
X89074714Y-57763580D01*
X89074714Y-57763580D02*
X89122333Y-57811200D01*
X89122333Y-57811200D02*
X89217571Y-57858819D01*
X89217571Y-57858819D02*
X89408047Y-57858819D01*
X89408047Y-57858819D02*
X89503285Y-57811200D01*
X89503285Y-57811200D02*
X89550904Y-57763580D01*
X89550904Y-57763580D02*
X89598523Y-57668342D01*
X89598523Y-57668342D02*
X89598523Y-56858819D01*
X90027095Y-56954057D02*
X90074714Y-56906438D01*
X90074714Y-56906438D02*
X90169952Y-56858819D01*
X90169952Y-56858819D02*
X90408047Y-56858819D01*
X90408047Y-56858819D02*
X90503285Y-56906438D01*
X90503285Y-56906438D02*
X90550904Y-56954057D01*
X90550904Y-56954057D02*
X90598523Y-57049295D01*
X90598523Y-57049295D02*
X90598523Y-57144533D01*
X90598523Y-57144533D02*
X90550904Y-57287390D01*
X90550904Y-57287390D02*
X89979476Y-57858819D01*
X89979476Y-57858819D02*
X90598523Y-57858819D01*
D11*
X87774523Y-96475732D02*
X88546683Y-95960959D01*
X87774523Y-95960959D02*
X88546683Y-96475732D01*
X88546683Y-95262338D02*
X88546683Y-95703572D01*
X88546683Y-95482955D02*
X87774523Y-95482955D01*
X87774523Y-95482955D02*
X87884832Y-95556494D01*
X87884832Y-95556494D02*
X87958371Y-95630033D01*
X87958371Y-95630033D02*
X87995140Y-95703572D01*
D10*
X107277819Y-58657952D02*
X107277819Y-59134142D01*
X107277819Y-59134142D02*
X107754009Y-59181761D01*
X107754009Y-59181761D02*
X107706390Y-59134142D01*
X107706390Y-59134142D02*
X107658771Y-59038904D01*
X107658771Y-59038904D02*
X107658771Y-58800809D01*
X107658771Y-58800809D02*
X107706390Y-58705571D01*
X107706390Y-58705571D02*
X107754009Y-58657952D01*
X107754009Y-58657952D02*
X107849247Y-58610333D01*
X107849247Y-58610333D02*
X108087342Y-58610333D01*
X108087342Y-58610333D02*
X108182580Y-58657952D01*
X108182580Y-58657952D02*
X108230200Y-58705571D01*
X108230200Y-58705571D02*
X108277819Y-58800809D01*
X108277819Y-58800809D02*
X108277819Y-59038904D01*
X108277819Y-59038904D02*
X108230200Y-59134142D01*
X108230200Y-59134142D02*
X108182580Y-59181761D01*
X107277819Y-58324618D02*
X108277819Y-57991285D01*
X108277819Y-57991285D02*
X107277819Y-57657952D01*
X108277819Y-57181761D02*
X108230200Y-57276999D01*
X108230200Y-57276999D02*
X108182580Y-57324618D01*
X108182580Y-57324618D02*
X108087342Y-57372237D01*
X108087342Y-57372237D02*
X107801628Y-57372237D01*
X107801628Y-57372237D02*
X107706390Y-57324618D01*
X107706390Y-57324618D02*
X107658771Y-57276999D01*
X107658771Y-57276999D02*
X107611152Y-57181761D01*
X107611152Y-57181761D02*
X107611152Y-57038904D01*
X107611152Y-57038904D02*
X107658771Y-56943666D01*
X107658771Y-56943666D02*
X107706390Y-56896047D01*
X107706390Y-56896047D02*
X107801628Y-56848428D01*
X107801628Y-56848428D02*
X108087342Y-56848428D01*
X108087342Y-56848428D02*
X108182580Y-56896047D01*
X108182580Y-56896047D02*
X108230200Y-56943666D01*
X108230200Y-56943666D02*
X108277819Y-57038904D01*
X108277819Y-57038904D02*
X108277819Y-57181761D01*
X107611152Y-55991285D02*
X108277819Y-55991285D01*
X107611152Y-56419856D02*
X108134961Y-56419856D01*
X108134961Y-56419856D02*
X108230200Y-56372237D01*
X108230200Y-56372237D02*
X108277819Y-56276999D01*
X108277819Y-56276999D02*
X108277819Y-56134142D01*
X108277819Y-56134142D02*
X108230200Y-56038904D01*
X108230200Y-56038904D02*
X108182580Y-55991285D01*
X107611152Y-55657951D02*
X107611152Y-55276999D01*
X107277819Y-55515094D02*
X108134961Y-55515094D01*
X108134961Y-55515094D02*
X108230200Y-55467475D01*
X108230200Y-55467475D02*
X108277819Y-55372237D01*
X108277819Y-55372237D02*
X108277819Y-55276999D01*
X102278905Y-74114819D02*
X102278905Y-73114819D01*
X102278905Y-73114819D02*
X102517000Y-73114819D01*
X102517000Y-73114819D02*
X102659857Y-73162438D01*
X102659857Y-73162438D02*
X102755095Y-73257676D01*
X102755095Y-73257676D02*
X102802714Y-73352914D01*
X102802714Y-73352914D02*
X102850333Y-73543390D01*
X102850333Y-73543390D02*
X102850333Y-73686247D01*
X102850333Y-73686247D02*
X102802714Y-73876723D01*
X102802714Y-73876723D02*
X102755095Y-73971961D01*
X102755095Y-73971961D02*
X102659857Y-74067200D01*
X102659857Y-74067200D02*
X102517000Y-74114819D01*
X102517000Y-74114819D02*
X102278905Y-74114819D01*
X103755095Y-73114819D02*
X103278905Y-73114819D01*
X103278905Y-73114819D02*
X103231286Y-73591009D01*
X103231286Y-73591009D02*
X103278905Y-73543390D01*
X103278905Y-73543390D02*
X103374143Y-73495771D01*
X103374143Y-73495771D02*
X103612238Y-73495771D01*
X103612238Y-73495771D02*
X103707476Y-73543390D01*
X103707476Y-73543390D02*
X103755095Y-73591009D01*
X103755095Y-73591009D02*
X103802714Y-73686247D01*
X103802714Y-73686247D02*
X103802714Y-73924342D01*
X103802714Y-73924342D02*
X103755095Y-74019580D01*
X103755095Y-74019580D02*
X103707476Y-74067200D01*
X103707476Y-74067200D02*
X103612238Y-74114819D01*
X103612238Y-74114819D02*
X103374143Y-74114819D01*
X103374143Y-74114819D02*
X103278905Y-74067200D01*
X103278905Y-74067200D02*
X103231286Y-74019580D01*
X99964905Y-71416104D02*
X100441095Y-71416104D01*
X99869667Y-71701819D02*
X100203000Y-70701819D01*
X100203000Y-70701819D02*
X100536333Y-71701819D01*
X114292191Y-86386200D02*
X114435048Y-86433819D01*
X114435048Y-86433819D02*
X114673143Y-86433819D01*
X114673143Y-86433819D02*
X114768381Y-86386200D01*
X114768381Y-86386200D02*
X114816000Y-86338580D01*
X114816000Y-86338580D02*
X114863619Y-86243342D01*
X114863619Y-86243342D02*
X114863619Y-86148104D01*
X114863619Y-86148104D02*
X114816000Y-86052866D01*
X114816000Y-86052866D02*
X114768381Y-86005247D01*
X114768381Y-86005247D02*
X114673143Y-85957628D01*
X114673143Y-85957628D02*
X114482667Y-85910009D01*
X114482667Y-85910009D02*
X114387429Y-85862390D01*
X114387429Y-85862390D02*
X114339810Y-85814771D01*
X114339810Y-85814771D02*
X114292191Y-85719533D01*
X114292191Y-85719533D02*
X114292191Y-85624295D01*
X114292191Y-85624295D02*
X114339810Y-85529057D01*
X114339810Y-85529057D02*
X114387429Y-85481438D01*
X114387429Y-85481438D02*
X114482667Y-85433819D01*
X114482667Y-85433819D02*
X114720762Y-85433819D01*
X114720762Y-85433819D02*
X114863619Y-85481438D01*
X115292191Y-86433819D02*
X115292191Y-85433819D01*
X115292191Y-85433819D02*
X115673143Y-85433819D01*
X115673143Y-85433819D02*
X115768381Y-85481438D01*
X115768381Y-85481438D02*
X115816000Y-85529057D01*
X115816000Y-85529057D02*
X115863619Y-85624295D01*
X115863619Y-85624295D02*
X115863619Y-85767152D01*
X115863619Y-85767152D02*
X115816000Y-85862390D01*
X115816000Y-85862390D02*
X115768381Y-85910009D01*
X115768381Y-85910009D02*
X115673143Y-85957628D01*
X115673143Y-85957628D02*
X115292191Y-85957628D01*
X116292191Y-86433819D02*
X116292191Y-85433819D01*
X93545819Y-91352523D02*
X93545819Y-91923951D01*
X93545819Y-91638237D02*
X92545819Y-91638237D01*
X92545819Y-91638237D02*
X92688676Y-91733475D01*
X92688676Y-91733475D02*
X92783914Y-91828713D01*
X92783914Y-91828713D02*
X92831533Y-91923951D01*
X92641057Y-90971570D02*
X92593438Y-90923951D01*
X92593438Y-90923951D02*
X92545819Y-90828713D01*
X92545819Y-90828713D02*
X92545819Y-90590618D01*
X92545819Y-90590618D02*
X92593438Y-90495380D01*
X92593438Y-90495380D02*
X92641057Y-90447761D01*
X92641057Y-90447761D02*
X92736295Y-90400142D01*
X92736295Y-90400142D02*
X92831533Y-90400142D01*
X92831533Y-90400142D02*
X92974390Y-90447761D01*
X92974390Y-90447761D02*
X93545819Y-91019189D01*
X93545819Y-91019189D02*
X93545819Y-90400142D01*
X92545819Y-90114427D02*
X93545819Y-89781094D01*
X93545819Y-89781094D02*
X92545819Y-89447761D01*
X93545819Y-89114427D02*
X92879152Y-89114427D01*
X92545819Y-89114427D02*
X92593438Y-89162046D01*
X92593438Y-89162046D02*
X92641057Y-89114427D01*
X92641057Y-89114427D02*
X92593438Y-89066808D01*
X92593438Y-89066808D02*
X92545819Y-89114427D01*
X92545819Y-89114427D02*
X92641057Y-89114427D01*
X92879152Y-88638237D02*
X93545819Y-88638237D01*
X92974390Y-88638237D02*
X92926771Y-88590618D01*
X92926771Y-88590618D02*
X92879152Y-88495380D01*
X92879152Y-88495380D02*
X92879152Y-88352523D01*
X92879152Y-88352523D02*
X92926771Y-88257285D01*
X92926771Y-88257285D02*
X93022009Y-88209666D01*
X93022009Y-88209666D02*
X93545819Y-88209666D01*
X107910333Y-63700819D02*
X107434143Y-63700819D01*
X107434143Y-63700819D02*
X107434143Y-62700819D01*
X108767476Y-63700819D02*
X108196048Y-63700819D01*
X108481762Y-63700819D02*
X108481762Y-62700819D01*
X108481762Y-62700819D02*
X108386524Y-62843676D01*
X108386524Y-62843676D02*
X108291286Y-62938914D01*
X108291286Y-62938914D02*
X108196048Y-62986533D01*
X102373133Y-77712880D02*
X102325514Y-77760500D01*
X102325514Y-77760500D02*
X102182657Y-77808119D01*
X102182657Y-77808119D02*
X102087419Y-77808119D01*
X102087419Y-77808119D02*
X101944562Y-77760500D01*
X101944562Y-77760500D02*
X101849324Y-77665261D01*
X101849324Y-77665261D02*
X101801705Y-77570023D01*
X101801705Y-77570023D02*
X101754086Y-77379547D01*
X101754086Y-77379547D02*
X101754086Y-77236690D01*
X101754086Y-77236690D02*
X101801705Y-77046214D01*
X101801705Y-77046214D02*
X101849324Y-76950976D01*
X101849324Y-76950976D02*
X101944562Y-76855738D01*
X101944562Y-76855738D02*
X102087419Y-76808119D01*
X102087419Y-76808119D02*
X102182657Y-76808119D01*
X102182657Y-76808119D02*
X102325514Y-76855738D01*
X102325514Y-76855738D02*
X102373133Y-76903357D01*
X102706467Y-76808119D02*
X103373133Y-76808119D01*
X103373133Y-76808119D02*
X102944562Y-77808119D01*
X111633095Y-81932819D02*
X111633095Y-82742342D01*
X111633095Y-82742342D02*
X111680714Y-82837580D01*
X111680714Y-82837580D02*
X111728333Y-82885200D01*
X111728333Y-82885200D02*
X111823571Y-82932819D01*
X111823571Y-82932819D02*
X112014047Y-82932819D01*
X112014047Y-82932819D02*
X112109285Y-82885200D01*
X112109285Y-82885200D02*
X112156904Y-82837580D01*
X112156904Y-82837580D02*
X112204523Y-82742342D01*
X112204523Y-82742342D02*
X112204523Y-81932819D01*
X112585476Y-81932819D02*
X113204523Y-81932819D01*
X113204523Y-81932819D02*
X112871190Y-82313771D01*
X112871190Y-82313771D02*
X113014047Y-82313771D01*
X113014047Y-82313771D02*
X113109285Y-82361390D01*
X113109285Y-82361390D02*
X113156904Y-82409009D01*
X113156904Y-82409009D02*
X113204523Y-82504247D01*
X113204523Y-82504247D02*
X113204523Y-82742342D01*
X113204523Y-82742342D02*
X113156904Y-82837580D01*
X113156904Y-82837580D02*
X113109285Y-82885200D01*
X113109285Y-82885200D02*
X113014047Y-82932819D01*
X113014047Y-82932819D02*
X112728333Y-82932819D01*
X112728333Y-82932819D02*
X112633095Y-82885200D01*
X112633095Y-82885200D02*
X112585476Y-82837580D01*
X95123095Y-87719819D02*
X95123095Y-88529342D01*
X95123095Y-88529342D02*
X95170714Y-88624580D01*
X95170714Y-88624580D02*
X95218333Y-88672200D01*
X95218333Y-88672200D02*
X95313571Y-88719819D01*
X95313571Y-88719819D02*
X95504047Y-88719819D01*
X95504047Y-88719819D02*
X95599285Y-88672200D01*
X95599285Y-88672200D02*
X95646904Y-88624580D01*
X95646904Y-88624580D02*
X95694523Y-88529342D01*
X95694523Y-88529342D02*
X95694523Y-87719819D01*
X96694523Y-88719819D02*
X96123095Y-88719819D01*
X96408809Y-88719819D02*
X96408809Y-87719819D01*
X96408809Y-87719819D02*
X96313571Y-87862676D01*
X96313571Y-87862676D02*
X96218333Y-87957914D01*
X96218333Y-87957914D02*
X96123095Y-88005533D01*
X107092905Y-82750819D02*
X107092905Y-81750819D01*
X107092905Y-81750819D02*
X107473857Y-81750819D01*
X107473857Y-81750819D02*
X107569095Y-81798438D01*
X107569095Y-81798438D02*
X107616714Y-81846057D01*
X107616714Y-81846057D02*
X107664333Y-81941295D01*
X107664333Y-81941295D02*
X107664333Y-82084152D01*
X107664333Y-82084152D02*
X107616714Y-82179390D01*
X107616714Y-82179390D02*
X107569095Y-82227009D01*
X107569095Y-82227009D02*
X107473857Y-82274628D01*
X107473857Y-82274628D02*
X107092905Y-82274628D01*
X108664333Y-82655580D02*
X108616714Y-82703200D01*
X108616714Y-82703200D02*
X108473857Y-82750819D01*
X108473857Y-82750819D02*
X108378619Y-82750819D01*
X108378619Y-82750819D02*
X108235762Y-82703200D01*
X108235762Y-82703200D02*
X108140524Y-82607961D01*
X108140524Y-82607961D02*
X108092905Y-82512723D01*
X108092905Y-82512723D02*
X108045286Y-82322247D01*
X108045286Y-82322247D02*
X108045286Y-82179390D01*
X108045286Y-82179390D02*
X108092905Y-81988914D01*
X108092905Y-81988914D02*
X108140524Y-81893676D01*
X108140524Y-81893676D02*
X108235762Y-81798438D01*
X108235762Y-81798438D02*
X108378619Y-81750819D01*
X108378619Y-81750819D02*
X108473857Y-81750819D01*
X108473857Y-81750819D02*
X108616714Y-81798438D01*
X108616714Y-81798438D02*
X108664333Y-81846057D01*
X109569095Y-81750819D02*
X109092905Y-81750819D01*
X109092905Y-81750819D02*
X109045286Y-82227009D01*
X109045286Y-82227009D02*
X109092905Y-82179390D01*
X109092905Y-82179390D02*
X109188143Y-82131771D01*
X109188143Y-82131771D02*
X109426238Y-82131771D01*
X109426238Y-82131771D02*
X109521476Y-82179390D01*
X109521476Y-82179390D02*
X109569095Y-82227009D01*
X109569095Y-82227009D02*
X109616714Y-82322247D01*
X109616714Y-82322247D02*
X109616714Y-82560342D01*
X109616714Y-82560342D02*
X109569095Y-82655580D01*
X109569095Y-82655580D02*
X109521476Y-82703200D01*
X109521476Y-82703200D02*
X109426238Y-82750819D01*
X109426238Y-82750819D02*
X109188143Y-82750819D01*
X109188143Y-82750819D02*
X109092905Y-82703200D01*
X109092905Y-82703200D02*
X109045286Y-82655580D01*
X99346095Y-81099819D02*
X99346095Y-80099819D01*
X99346095Y-80576009D02*
X99917523Y-80576009D01*
X99917523Y-81099819D02*
X99917523Y-80099819D01*
X100298476Y-80433152D02*
X100536571Y-81099819D01*
X100774666Y-80433152D02*
X100536571Y-81099819D01*
X100536571Y-81099819D02*
X100441333Y-81337914D01*
X100441333Y-81337914D02*
X100393714Y-81385533D01*
X100393714Y-81385533D02*
X100298476Y-81433152D01*
X101584190Y-81099819D02*
X101584190Y-80099819D01*
X101584190Y-81052200D02*
X101488952Y-81099819D01*
X101488952Y-81099819D02*
X101298476Y-81099819D01*
X101298476Y-81099819D02*
X101203238Y-81052200D01*
X101203238Y-81052200D02*
X101155619Y-81004580D01*
X101155619Y-81004580D02*
X101108000Y-80909342D01*
X101108000Y-80909342D02*
X101108000Y-80623628D01*
X101108000Y-80623628D02*
X101155619Y-80528390D01*
X101155619Y-80528390D02*
X101203238Y-80480771D01*
X101203238Y-80480771D02*
X101298476Y-80433152D01*
X101298476Y-80433152D02*
X101488952Y-80433152D01*
X101488952Y-80433152D02*
X101584190Y-80480771D01*
X102060381Y-81099819D02*
X102060381Y-80433152D01*
X102060381Y-80623628D02*
X102108000Y-80528390D01*
X102108000Y-80528390D02*
X102155619Y-80480771D01*
X102155619Y-80480771D02*
X102250857Y-80433152D01*
X102250857Y-80433152D02*
X102346095Y-80433152D01*
X103060381Y-81052200D02*
X102965143Y-81099819D01*
X102965143Y-81099819D02*
X102774667Y-81099819D01*
X102774667Y-81099819D02*
X102679429Y-81052200D01*
X102679429Y-81052200D02*
X102631810Y-80956961D01*
X102631810Y-80956961D02*
X102631810Y-80576009D01*
X102631810Y-80576009D02*
X102679429Y-80480771D01*
X102679429Y-80480771D02*
X102774667Y-80433152D01*
X102774667Y-80433152D02*
X102965143Y-80433152D01*
X102965143Y-80433152D02*
X103060381Y-80480771D01*
X103060381Y-80480771D02*
X103108000Y-80576009D01*
X103108000Y-80576009D02*
X103108000Y-80671247D01*
X103108000Y-80671247D02*
X102631810Y-80766485D01*
X103679429Y-81099819D02*
X103584191Y-81052200D01*
X103584191Y-81052200D02*
X103536572Y-81004580D01*
X103536572Y-81004580D02*
X103488953Y-80909342D01*
X103488953Y-80909342D02*
X103488953Y-80623628D01*
X103488953Y-80623628D02*
X103536572Y-80528390D01*
X103536572Y-80528390D02*
X103584191Y-80480771D01*
X103584191Y-80480771D02*
X103679429Y-80433152D01*
X103679429Y-80433152D02*
X103822286Y-80433152D01*
X103822286Y-80433152D02*
X103917524Y-80480771D01*
X103917524Y-80480771D02*
X103965143Y-80528390D01*
X103965143Y-80528390D02*
X104012762Y-80623628D01*
X104012762Y-80623628D02*
X104012762Y-80909342D01*
X104012762Y-80909342D02*
X103965143Y-81004580D01*
X103965143Y-81004580D02*
X103917524Y-81052200D01*
X103917524Y-81052200D02*
X103822286Y-81099819D01*
X103822286Y-81099819D02*
X103679429Y-81099819D01*
X104441334Y-80433152D02*
X104441334Y-81099819D01*
X104441334Y-80528390D02*
X104488953Y-80480771D01*
X104488953Y-80480771D02*
X104584191Y-80433152D01*
X104584191Y-80433152D02*
X104727048Y-80433152D01*
X104727048Y-80433152D02*
X104822286Y-80480771D01*
X104822286Y-80480771D02*
X104869905Y-80576009D01*
X104869905Y-80576009D02*
X104869905Y-81099819D01*
X94908810Y-74220819D02*
X94908810Y-73220819D01*
X95337381Y-73316057D02*
X95385000Y-73268438D01*
X95385000Y-73268438D02*
X95480238Y-73220819D01*
X95480238Y-73220819D02*
X95718333Y-73220819D01*
X95718333Y-73220819D02*
X95813571Y-73268438D01*
X95813571Y-73268438D02*
X95861190Y-73316057D01*
X95861190Y-73316057D02*
X95908809Y-73411295D01*
X95908809Y-73411295D02*
X95908809Y-73506533D01*
X95908809Y-73506533D02*
X95861190Y-73649390D01*
X95861190Y-73649390D02*
X95289762Y-74220819D01*
X95289762Y-74220819D02*
X95908809Y-74220819D01*
X96908809Y-74125580D02*
X96861190Y-74173200D01*
X96861190Y-74173200D02*
X96718333Y-74220819D01*
X96718333Y-74220819D02*
X96623095Y-74220819D01*
X96623095Y-74220819D02*
X96480238Y-74173200D01*
X96480238Y-74173200D02*
X96385000Y-74077961D01*
X96385000Y-74077961D02*
X96337381Y-73982723D01*
X96337381Y-73982723D02*
X96289762Y-73792247D01*
X96289762Y-73792247D02*
X96289762Y-73649390D01*
X96289762Y-73649390D02*
X96337381Y-73458914D01*
X96337381Y-73458914D02*
X96385000Y-73363676D01*
X96385000Y-73363676D02*
X96480238Y-73268438D01*
X96480238Y-73268438D02*
X96623095Y-73220819D01*
X96623095Y-73220819D02*
X96718333Y-73220819D01*
X96718333Y-73220819D02*
X96861190Y-73268438D01*
X96861190Y-73268438D02*
X96908809Y-73316057D01*
X103338333Y-56620580D02*
X103290714Y-56668200D01*
X103290714Y-56668200D02*
X103147857Y-56715819D01*
X103147857Y-56715819D02*
X103052619Y-56715819D01*
X103052619Y-56715819D02*
X102909762Y-56668200D01*
X102909762Y-56668200D02*
X102814524Y-56572961D01*
X102814524Y-56572961D02*
X102766905Y-56477723D01*
X102766905Y-56477723D02*
X102719286Y-56287247D01*
X102719286Y-56287247D02*
X102719286Y-56144390D01*
X102719286Y-56144390D02*
X102766905Y-55953914D01*
X102766905Y-55953914D02*
X102814524Y-55858676D01*
X102814524Y-55858676D02*
X102909762Y-55763438D01*
X102909762Y-55763438D02*
X103052619Y-55715819D01*
X103052619Y-55715819D02*
X103147857Y-55715819D01*
X103147857Y-55715819D02*
X103290714Y-55763438D01*
X103290714Y-55763438D02*
X103338333Y-55811057D01*
X104243095Y-55715819D02*
X103766905Y-55715819D01*
X103766905Y-55715819D02*
X103719286Y-56192009D01*
X103719286Y-56192009D02*
X103766905Y-56144390D01*
X103766905Y-56144390D02*
X103862143Y-56096771D01*
X103862143Y-56096771D02*
X104100238Y-56096771D01*
X104100238Y-56096771D02*
X104195476Y-56144390D01*
X104195476Y-56144390D02*
X104243095Y-56192009D01*
X104243095Y-56192009D02*
X104290714Y-56287247D01*
X104290714Y-56287247D02*
X104290714Y-56525342D01*
X104290714Y-56525342D02*
X104243095Y-56620580D01*
X104243095Y-56620580D02*
X104195476Y-56668200D01*
X104195476Y-56668200D02*
X104100238Y-56715819D01*
X104100238Y-56715819D02*
X103862143Y-56715819D01*
X103862143Y-56715819D02*
X103766905Y-56668200D01*
X103766905Y-56668200D02*
X103719286Y-56620580D01*
D12*
X97275000Y-58759000D02*
X98775000Y-58759000D01*
X97275000Y-69159000D02*
X98775000Y-69159000D01*
X98775000Y-58759000D02*
X98775000Y-59709000D01*
X98775000Y-59709000D02*
X99875000Y-59709000D01*
X98775000Y-68209000D02*
X103900000Y-68209000D01*
X98775000Y-69159000D02*
X98775000Y-68209000D01*
X108970000Y-55002000D02*
X108970000Y-59722000D01*
X108970000Y-57112000D02*
X109580000Y-57112000D01*
X108970000Y-58412000D02*
X109580000Y-58412000D01*
X108970000Y-59722000D02*
X115090000Y-59722000D01*
X109580000Y-55612000D02*
X109580000Y-59112000D01*
X109580000Y-59112000D02*
X111530000Y-59112000D01*
X111530000Y-59112000D02*
X111530000Y-59722000D01*
X111930000Y-56112000D02*
X111930000Y-55612000D01*
X112030000Y-55612000D02*
X112030000Y-56112000D01*
X112130000Y-55612000D02*
X112130000Y-56112000D01*
X112130000Y-56112000D02*
X111930000Y-56112000D01*
X112530000Y-59112000D02*
X114480000Y-59112000D01*
X112530000Y-59722000D02*
X112530000Y-59112000D01*
X113330000Y-59722000D02*
X113330000Y-59922000D01*
X113330000Y-59822000D02*
X113630000Y-59822000D01*
X113330000Y-59922000D02*
X113630000Y-59922000D01*
X113630000Y-59922000D02*
X113630000Y-59722000D01*
X114140000Y-60022000D02*
X115390000Y-60022000D01*
X114480000Y-55612000D02*
X109580000Y-55612000D01*
X114480000Y-59112000D02*
X114480000Y-55612000D01*
X115090000Y-55002000D02*
X108970000Y-55002000D01*
X115090000Y-57112000D02*
X114480000Y-57112000D01*
X115090000Y-58412000D02*
X114480000Y-58412000D01*
X115090000Y-59722000D02*
X115090000Y-55002000D01*
X115390000Y-60022000D02*
X115390000Y-58772000D01*
X103735580Y-69983819D02*
G75*
G02*
X103683640Y-72674000I2309420J-1390181D01*
G01*
X108956000Y-86748000D02*
X108956000Y-87998000D01*
X109256000Y-87048000D02*
X109256000Y-91768000D01*
X109256000Y-88358000D02*
X109866000Y-88358000D01*
X109256000Y-89658000D02*
X109866000Y-89658000D01*
X109256000Y-91768000D02*
X121376000Y-91768000D01*
X109866000Y-87658000D02*
X109866000Y-91158000D01*
X109866000Y-91158000D02*
X120766000Y-91158000D01*
X110206000Y-86748000D02*
X108956000Y-86748000D01*
X110716000Y-86848000D02*
X110716000Y-87048000D01*
X111016000Y-86848000D02*
X110716000Y-86848000D01*
X111016000Y-86948000D02*
X110716000Y-86948000D01*
X111016000Y-87048000D02*
X111016000Y-86848000D01*
X111816000Y-87048000D02*
X111816000Y-87658000D01*
X111816000Y-87658000D02*
X109866000Y-87658000D01*
X112216000Y-90658000D02*
X112416000Y-90658000D01*
X112216000Y-91158000D02*
X112216000Y-90658000D01*
X112316000Y-91158000D02*
X112316000Y-90658000D01*
X112416000Y-90658000D02*
X112416000Y-91158000D01*
X114216000Y-90658000D02*
X114416000Y-90658000D01*
X114216000Y-91158000D02*
X114216000Y-90658000D01*
X114316000Y-91158000D02*
X114316000Y-90658000D01*
X114416000Y-90658000D02*
X114416000Y-91158000D01*
X116216000Y-90658000D02*
X116416000Y-90658000D01*
X116216000Y-91158000D02*
X116216000Y-90658000D01*
X116316000Y-91158000D02*
X116316000Y-90658000D01*
X116416000Y-90658000D02*
X116416000Y-91158000D01*
X118216000Y-90658000D02*
X118416000Y-90658000D01*
X118216000Y-91158000D02*
X118216000Y-90658000D01*
X118316000Y-91158000D02*
X118316000Y-90658000D01*
X118416000Y-90658000D02*
X118416000Y-91158000D01*
X118816000Y-87658000D02*
X118816000Y-87048000D01*
X120766000Y-87658000D02*
X118816000Y-87658000D01*
X120766000Y-91158000D02*
X120766000Y-87658000D01*
X121376000Y-87048000D02*
X109256000Y-87048000D01*
X121376000Y-88358000D02*
X120766000Y-88358000D01*
X121376000Y-89658000D02*
X120766000Y-89658000D01*
X121376000Y-91768000D02*
X121376000Y-87048000D01*
X81663000Y-81020000D02*
X81663000Y-81520000D01*
X81903000Y-81260000D02*
X81903000Y-91380000D01*
X82403000Y-81020000D02*
X81663000Y-81020000D01*
X82463000Y-81260000D02*
X82463000Y-91380000D01*
X83963000Y-81260000D02*
X83963000Y-91380000D01*
X85324000Y-87786000D02*
X85289000Y-87751000D01*
X85540000Y-87593000D02*
X85494000Y-87546000D01*
X87632000Y-90095000D02*
X87586000Y-90048000D01*
X87838000Y-89890000D02*
X87802000Y-89855000D01*
X88864000Y-81260000D02*
X88864000Y-91380000D01*
X91824000Y-81260000D02*
X81903000Y-81260000D01*
X91824000Y-81260000D02*
X91824000Y-91380000D01*
X91824000Y-91380000D02*
X81903000Y-91380000D01*
X84882748Y-83848805D02*
G75*
G02*
X85028001Y-83136000I1680253J28806D01*
G01*
X85028245Y-84503318D02*
G75*
G02*
X84883001Y-83820000I1534755J683318D01*
G01*
X85879958Y-82284574D02*
G75*
G02*
X87246999Y-82285001I683041J-1535419D01*
G01*
X87246042Y-85355426D02*
G75*
G02*
X85879000Y-85355000I-683042J1535426D01*
G01*
X88098426Y-83136958D02*
G75*
G02*
X88097999Y-84503999I-1535419J-683041D01*
G01*
X88243000Y-88820000D02*
G75*
G02*
X84883000Y-88820000I-1680000J0D01*
G01*
X84883000Y-88820000D02*
G75*
G02*
X88243000Y-88820000I1680000J0D01*
G01*
X111135000Y-69534184D02*
G75*
G02*
X111135000Y-63307816I1260000J3113184D01*
G01*
X113655000Y-63307816D02*
G75*
G02*
X113655000Y-69534184I-1260000J-3113184D01*
G01*
X113799000Y-66421000D02*
G75*
G02*
X110991000Y-66421000I-1404000J0D01*
G01*
X110991000Y-66421000D02*
G75*
G02*
X113799000Y-66421000I1404000J0D01*
G01*
X103763800Y-74781800D02*
X103763800Y-78866800D01*
X105633800Y-74781800D02*
X103763800Y-74781800D01*
X105633800Y-78866800D02*
X105633800Y-74781800D01*
X109215000Y-74568000D02*
X109215000Y-75828000D01*
X109215000Y-81388000D02*
X109215000Y-80128000D01*
X112975000Y-74568000D02*
X109215000Y-74568000D01*
X115225000Y-81388000D02*
X109215000Y-81388000D01*
X99331000Y-87062000D02*
X99331000Y-92262000D01*
X99331000Y-92262000D02*
X104631000Y-92262000D01*
X100981000Y-87062000D02*
X99331000Y-87062000D01*
X104631000Y-87062000D02*
X102981000Y-87062000D01*
X104631000Y-92262000D02*
X104631000Y-87062000D01*
X102981000Y-87062000D02*
G75*
G02*
X100981000Y-87062000I-1000000J0D01*
G01*
X107135000Y-83259000D02*
X110035000Y-83259000D01*
X107135000Y-86159000D02*
X107135000Y-83259000D01*
X110035000Y-83259000D02*
X110035000Y-86159000D01*
X110035000Y-86159000D02*
X107135000Y-86159000D01*
X97572000Y-81672000D02*
X97572000Y-86392000D01*
X97572000Y-83782000D02*
X98182000Y-83782000D01*
X97572000Y-85082000D02*
X98182000Y-85082000D01*
X97572000Y-86392000D02*
X105692000Y-86392000D01*
X98182000Y-82282000D02*
X98182000Y-85782000D01*
X98182000Y-85782000D02*
X100132000Y-85782000D01*
X100132000Y-85782000D02*
X100132000Y-86392000D01*
X100532000Y-82782000D02*
X100532000Y-82282000D01*
X100632000Y-82282000D02*
X100632000Y-82782000D01*
X100732000Y-82282000D02*
X100732000Y-82782000D01*
X100732000Y-82782000D02*
X100532000Y-82782000D01*
X102532000Y-82782000D02*
X102532000Y-82282000D01*
X102632000Y-82282000D02*
X102632000Y-82782000D01*
X102732000Y-82282000D02*
X102732000Y-82782000D01*
X102732000Y-82782000D02*
X102532000Y-82782000D01*
X103132000Y-85782000D02*
X105082000Y-85782000D01*
X103132000Y-86392000D02*
X103132000Y-85782000D01*
X103932000Y-86392000D02*
X103932000Y-86592000D01*
X103932000Y-86492000D02*
X104232000Y-86492000D01*
X103932000Y-86592000D02*
X104232000Y-86592000D01*
X104232000Y-86592000D02*
X104232000Y-86392000D01*
X104742000Y-86692000D02*
X105992000Y-86692000D01*
X105082000Y-82282000D02*
X98182000Y-82282000D01*
X105082000Y-85782000D02*
X105082000Y-82282000D01*
X105692000Y-81672000D02*
X97572000Y-81672000D01*
X105692000Y-83782000D02*
X105082000Y-83782000D01*
X105692000Y-85082000D02*
X105082000Y-85082000D01*
X105692000Y-86392000D02*
X105692000Y-81672000D01*
X105992000Y-86692000D02*
X105992000Y-85442000D01*
X90825000Y-74856000D02*
X90825000Y-79576000D01*
X90825000Y-76966000D02*
X91435000Y-76966000D01*
X90825000Y-78266000D02*
X91435000Y-78266000D01*
X90825000Y-79576000D02*
X100945000Y-79576000D01*
X91435000Y-75466000D02*
X91435000Y-78966000D01*
X91435000Y-78966000D02*
X93385000Y-78966000D01*
X93385000Y-78966000D02*
X93385000Y-79576000D01*
X93785000Y-75966000D02*
X93785000Y-75466000D01*
X93885000Y-75466000D02*
X93885000Y-75966000D01*
X93985000Y-75466000D02*
X93985000Y-75966000D01*
X93985000Y-75966000D02*
X93785000Y-75966000D01*
X95785000Y-75966000D02*
X95785000Y-75466000D01*
X95885000Y-75466000D02*
X95885000Y-75966000D01*
X95985000Y-75466000D02*
X95985000Y-75966000D01*
X95985000Y-75966000D02*
X95785000Y-75966000D01*
X97785000Y-75966000D02*
X97785000Y-75466000D01*
X97885000Y-75466000D02*
X97885000Y-75966000D01*
X97985000Y-75466000D02*
X97985000Y-75966000D01*
X97985000Y-75966000D02*
X97785000Y-75966000D01*
X98385000Y-78966000D02*
X100335000Y-78966000D01*
X98385000Y-79576000D02*
X98385000Y-78966000D01*
X99185000Y-79576000D02*
X99185000Y-79776000D01*
X99185000Y-79676000D02*
X99485000Y-79676000D01*
X99185000Y-79776000D02*
X99485000Y-79776000D01*
X99485000Y-79776000D02*
X99485000Y-79576000D01*
X99995000Y-79876000D02*
X101245000Y-79876000D01*
X100335000Y-75466000D02*
X91435000Y-75466000D01*
X100335000Y-78966000D02*
X100335000Y-75466000D01*
X100945000Y-74856000D02*
X90825000Y-74856000D01*
X100945000Y-76966000D02*
X100335000Y-76966000D01*
X100945000Y-78266000D02*
X100335000Y-78266000D01*
X100945000Y-79576000D02*
X100945000Y-74856000D01*
X101245000Y-79876000D02*
X101245000Y-78626000D01*
X95425000Y-57971000D02*
X102360000Y-57971000D01*
X102360000Y-54551000D02*
X95425000Y-54551000D01*
X102360000Y-57971000D02*
X102360000Y-54551000D01*
D13*
X81681300Y-54586900D02*
X81681300Y-94386900D01*
X84781300Y-97486899D02*
X126581299Y-97486899D01*
X115841253Y-57501509D02*
X115841253Y-83536509D01*
X115841253Y-83536509D02*
X121683253Y-83536509D01*
X121683253Y-83536509D02*
X121683253Y-90521509D01*
X121683253Y-90521509D02*
X129684253Y-90521509D01*
X126581299Y-51486900D02*
X84781300Y-51486900D01*
X129681299Y-57501509D02*
X115841253Y-57501509D01*
X129681299Y-57501509D02*
X129681299Y-54586900D01*
X129684253Y-90521509D02*
X129684253Y-94382309D01*
X81681300Y-54586900D02*
G75*
G02*
X84781300Y-51486900I3100000J0D01*
G01*
X84781300Y-97486900D02*
G75*
G02*
X81681300Y-94386900I0J3100000D01*
G01*
X126581299Y-51486900D02*
G75*
G02*
X129681302Y-54586900I4J-3099999D01*
G01*
X129681298Y-94386900D02*
G75*
G02*
X126581299Y-97486894I-3099995J1D01*
G01*
M02*
