G04 #@! TF.GenerationSoftware,KiCad,Pcbnew,6.0.5*
G04 #@! TF.CreationDate,2022-10-03T09:57:02+03:00*
G04 #@! TF.ProjectId,opi-hat,6f70692d-6861-4742-9e6b-696361645f70,rev?*
G04 #@! TF.SameCoordinates,Original*
G04 #@! TF.FileFunction,Copper,L1,Top*
G04 #@! TF.FilePolarity,Positive*
%FSLAX46Y46*%
G04 Gerber Fmt 4.6, Leading zero omitted, Abs format (unit mm)*
G04 Created by KiCad (PCBNEW 6.0.5) date 2022-10-03 09:57:02*
%MOMM*%
%LPD*%
G01*
G04 APERTURE LIST*
G04 Aperture macros list*
%AMRoundRect*
0 Rectangle with rounded corners*
0 $1 Rounding radius*
0 $2 $3 $4 $5 $6 $7 $8 $9 X,Y pos of 4 corners*
0 Add a 4 corners polygon primitive as box body*
4,1,4,$2,$3,$4,$5,$6,$7,$8,$9,$2,$3,0*
0 Add four circle primitives for the rounded corners*
1,1,$1+$1,$2,$3*
1,1,$1+$1,$4,$5*
1,1,$1+$1,$6,$7*
1,1,$1+$1,$8,$9*
0 Add four rect primitives between the rounded corners*
20,1,$1+$1,$2,$3,$4,$5,0*
20,1,$1+$1,$4,$5,$6,$7,0*
20,1,$1+$1,$6,$7,$8,$9,0*
20,1,$1+$1,$8,$9,$2,$3,0*%
G04 Aperture macros list end*
G04 #@! TA.AperFunction,Profile*
%ADD10C,0.200000*%
G04 #@! TD*
G04 #@! TA.AperFunction,ComponentPad*
%ADD11R,2.500000X2.500000*%
G04 #@! TD*
G04 #@! TA.AperFunction,ComponentPad*
%ADD12R,1.000000X1.000000*%
G04 #@! TD*
G04 #@! TA.AperFunction,ComponentPad*
%ADD13C,2.000000*%
G04 #@! TD*
G04 #@! TA.AperFunction,ComponentPad*
%ADD14C,1.508000*%
G04 #@! TD*
G04 #@! TA.AperFunction,ComponentPad*
%ADD15R,1.508000X1.508000*%
G04 #@! TD*
G04 #@! TA.AperFunction,WasherPad*
%ADD16C,5.000000*%
G04 #@! TD*
G04 #@! TA.AperFunction,ComponentPad*
%ADD17RoundRect,0.250000X-0.350000X-0.625000X0.350000X-0.625000X0.350000X0.625000X-0.350000X0.625000X0*%
G04 #@! TD*
G04 #@! TA.AperFunction,ComponentPad*
%ADD18O,1.200000X1.750000*%
G04 #@! TD*
G04 #@! TA.AperFunction,ComponentPad*
%ADD19O,2.600000X2.600000*%
G04 #@! TD*
G04 #@! TA.AperFunction,ComponentPad*
%ADD20R,2.600000X2.600000*%
G04 #@! TD*
G04 #@! TA.AperFunction,ComponentPad*
%ADD21O,1.750000X1.200000*%
G04 #@! TD*
G04 #@! TA.AperFunction,ComponentPad*
%ADD22RoundRect,0.250000X0.625000X-0.350000X0.625000X0.350000X-0.625000X0.350000X-0.625000X-0.350000X0*%
G04 #@! TD*
G04 #@! TA.AperFunction,ComponentPad*
%ADD23C,2.600000*%
G04 #@! TD*
G04 #@! TA.AperFunction,ComponentPad*
%ADD24R,1.600000X1.600000*%
G04 #@! TD*
G04 #@! TA.AperFunction,ComponentPad*
%ADD25O,1.600000X1.600000*%
G04 #@! TD*
G04 #@! TA.AperFunction,ComponentPad*
%ADD26RoundRect,0.250000X0.350000X0.625000X-0.350000X0.625000X-0.350000X-0.625000X0.350000X-0.625000X0*%
G04 #@! TD*
G04 #@! TA.AperFunction,ComponentPad*
%ADD27O,1.600000X1.000000*%
G04 #@! TD*
G04 #@! TA.AperFunction,ComponentPad*
%ADD28O,2.100000X1.000000*%
G04 #@! TD*
G04 #@! TA.AperFunction,ViaPad*
%ADD29C,1.000000*%
G04 #@! TD*
G04 #@! TA.AperFunction,Conductor*
%ADD30C,0.300000*%
G04 #@! TD*
G04 #@! TA.AperFunction,Conductor*
%ADD31C,1.000000*%
G04 #@! TD*
G04 APERTURE END LIST*
D10*
X81784059Y-107635933D02*
G75*
G03*
X84324059Y-110175933I2540001J1D01*
G01*
X136147941Y-110175927D02*
G75*
G03*
X138687941Y-107635933I2J2539998D01*
G01*
X138687955Y-48828067D02*
G75*
G03*
X136147941Y-46288067I-2539992J8D01*
G01*
X84324059Y-46288067D02*
G75*
G03*
X81784059Y-48828067I1J-2540001D01*
G01*
X120095391Y-94355031D02*
X138687941Y-94355031D01*
X138687941Y-107635933D02*
X138687941Y-101975031D01*
X84324059Y-110175933D02*
X136147941Y-110175933D01*
X138687941Y-53509289D02*
X138687941Y-48828067D01*
X120095391Y-101975031D02*
X120095391Y-94355031D01*
X138687941Y-53509289D02*
X115068983Y-53509289D01*
X138687941Y-94355031D02*
X138687941Y-71003289D01*
X115068983Y-53509289D02*
X115068983Y-71003289D01*
X136147941Y-46288067D02*
X84324059Y-46288067D01*
X81784059Y-48828067D02*
X81784059Y-107635933D01*
X138687941Y-101975031D02*
X120095391Y-101975031D01*
X115068983Y-71003289D02*
X138687941Y-71003289D01*
D11*
X101727000Y-56515000D03*
X124460000Y-88773000D03*
X98171000Y-56515000D03*
X94615000Y-56515000D03*
X128270000Y-88773000D03*
D12*
X104521000Y-54991000D03*
X106553000Y-52959000D03*
X104521000Y-52959000D03*
D11*
X98171000Y-52959000D03*
X94615000Y-52959000D03*
X101727000Y-52959000D03*
X128930400Y-104495600D03*
X124460000Y-92329000D03*
X110744000Y-59944000D03*
X128270000Y-92329000D03*
X105664000Y-66548000D03*
D13*
X106506000Y-74422000D03*
X116506000Y-74422000D03*
D14*
X94943041Y-49609629D03*
X97483041Y-49609629D03*
X100023041Y-49609629D03*
X102563041Y-49609629D03*
X105103041Y-49609629D03*
X107643041Y-49609629D03*
X110183041Y-49609629D03*
X112723041Y-49609629D03*
X115263041Y-49609629D03*
X117803041Y-49609629D03*
X120343041Y-49609629D03*
X122883041Y-49609629D03*
D15*
X125423041Y-49609629D03*
D14*
X125423041Y-104473629D03*
X125423041Y-107013629D03*
X122883041Y-104473629D03*
X122883041Y-107013629D03*
X120343041Y-104473629D03*
X120343041Y-107013629D03*
X117803041Y-104473629D03*
X117803041Y-107013629D03*
X115263041Y-104473629D03*
X115263041Y-107013629D03*
X112723041Y-104473629D03*
X112723041Y-107013629D03*
X110183041Y-104473629D03*
X110183041Y-107013629D03*
X107643041Y-104473629D03*
X107643041Y-107013629D03*
X105103041Y-104473629D03*
X105103041Y-107013629D03*
X102563041Y-104473629D03*
X102563041Y-107013629D03*
X100023041Y-104473629D03*
X100023041Y-107013629D03*
X97483041Y-104473629D03*
X97483041Y-107013629D03*
X94943041Y-104473629D03*
D15*
X94943041Y-107013629D03*
D16*
X134057263Y-105666159D03*
X86305263Y-50802159D03*
X86305263Y-105666159D03*
X134565263Y-50802159D03*
D17*
X110236000Y-66802000D03*
D18*
X112236000Y-66802000D03*
D19*
X114808000Y-80772000D03*
D20*
X118618000Y-80772000D03*
D21*
X115274000Y-89472000D03*
X115274000Y-91472000D03*
X115274000Y-93472000D03*
X115274000Y-95472000D03*
D22*
X115274000Y-97472000D03*
D20*
X86918600Y-83047200D03*
D23*
X86918600Y-88047200D03*
D24*
X99669600Y-97891600D03*
D25*
X99669600Y-100431600D03*
X107289600Y-100431600D03*
X107289600Y-97891600D03*
D11*
X111302800Y-99263200D03*
D26*
X103261000Y-93975000D03*
D18*
X101261000Y-93975000D03*
X99261000Y-93975000D03*
D26*
X91315800Y-98570500D03*
D18*
X89315800Y-98570500D03*
X87315800Y-98570500D03*
X85315800Y-98570500D03*
D27*
X83555500Y-76583000D03*
D28*
X87735500Y-76583000D03*
X87735500Y-67943000D03*
D27*
X83555500Y-67943000D03*
D29*
X112217200Y-87782400D03*
X121285000Y-86487000D03*
X107645200Y-89357200D03*
X92659200Y-102209600D03*
X115316000Y-102362000D03*
X110185200Y-102362000D03*
X103327200Y-74422000D03*
X94945200Y-99060000D03*
X99263200Y-84785200D03*
X121564400Y-84836000D03*
X113538000Y-62738000D03*
X124206000Y-52070000D03*
D30*
X121285000Y-86487000D02*
X113512600Y-86487000D01*
X113512600Y-86487000D02*
X112217200Y-87782400D01*
X115263041Y-107013629D02*
X113107470Y-109169200D01*
X113107470Y-109169200D02*
X96418400Y-109169200D01*
X96418400Y-109169200D02*
X94943041Y-107693841D01*
X94943041Y-107693841D02*
X94943041Y-107013629D01*
X125423041Y-107013629D02*
X126615571Y-107013629D01*
X127000000Y-106629200D02*
X127000000Y-102768400D01*
X126615571Y-107013629D02*
X127000000Y-106629200D01*
X115722400Y-102768400D02*
X117856000Y-102768400D01*
X117856000Y-102768400D02*
X127000000Y-102768400D01*
X117803041Y-104473629D02*
X117803041Y-102821359D01*
X117803041Y-102821359D02*
X117856000Y-102768400D01*
X115316000Y-102362000D02*
X115722400Y-102768400D01*
D31*
X96469200Y-100990400D02*
X96469200Y-91592400D01*
X92659200Y-102209600D02*
X95250000Y-102209600D01*
X95250000Y-102209600D02*
X96469200Y-100990400D01*
X96469200Y-91592400D02*
X98704400Y-89357200D01*
X98704400Y-89357200D02*
X107645200Y-89357200D01*
X94945200Y-99060000D02*
X94945200Y-82804000D01*
X94945200Y-82804000D02*
X103327200Y-74422000D01*
D30*
X110185200Y-102362000D02*
X115316000Y-102362000D01*
D31*
X99314000Y-84836000D02*
X99263200Y-84785200D01*
X121564400Y-84836000D02*
X99314000Y-84836000D01*
X113538000Y-53340000D02*
X113538000Y-62738000D01*
X124206000Y-52070000D02*
X114808000Y-52070000D01*
X114808000Y-52070000D02*
X113538000Y-53340000D01*
G04 #@! TA.AperFunction,Conductor*
G36*
X137030420Y-47002994D02*
G01*
X137089729Y-47032241D01*
X137141977Y-47080308D01*
X137160000Y-47145246D01*
X137160000Y-48868119D01*
X137139998Y-48936240D01*
X137086342Y-48982733D01*
X137016068Y-48992837D01*
X136951488Y-48963343D01*
X136932453Y-48942713D01*
X136889424Y-48884137D01*
X136887281Y-48881219D01*
X136847003Y-48837874D01*
X136653572Y-48629718D01*
X136651105Y-48627063D01*
X136387282Y-48401737D01*
X136099310Y-48208228D01*
X135791004Y-48049099D01*
X135466452Y-47926461D01*
X135462931Y-47925577D01*
X135462926Y-47925575D01*
X135300333Y-47884735D01*
X135129955Y-47841939D01*
X135107739Y-47839014D01*
X134789578Y-47797127D01*
X134789570Y-47797126D01*
X134785974Y-47796653D01*
X134641308Y-47794380D01*
X134442709Y-47791260D01*
X134442705Y-47791260D01*
X134439067Y-47791203D01*
X134435453Y-47791564D01*
X134435447Y-47791564D01*
X134192106Y-47815853D01*
X134093832Y-47825662D01*
X133754846Y-47899573D01*
X133751419Y-47900746D01*
X133751413Y-47900748D01*
X133672559Y-47927746D01*
X133426602Y-48011956D01*
X133113451Y-48161322D01*
X132819542Y-48345691D01*
X132816706Y-48347963D01*
X132816699Y-48347968D01*
X132607355Y-48515684D01*
X132548772Y-48562618D01*
X132510060Y-48601738D01*
X132309808Y-48804098D01*
X132304729Y-48809230D01*
X132302488Y-48812088D01*
X132168686Y-48982733D01*
X132090649Y-49082257D01*
X132088756Y-49085346D01*
X132088754Y-49085349D01*
X132042496Y-49160835D01*
X131909368Y-49378080D01*
X131907843Y-49381365D01*
X131907841Y-49381369D01*
X131868768Y-49465545D01*
X131763290Y-49692779D01*
X131654350Y-50022182D01*
X131653614Y-50025737D01*
X131653613Y-50025740D01*
X131597208Y-50298108D01*
X131583993Y-50361923D01*
X131573995Y-50473945D01*
X131553502Y-50703571D01*
X131553151Y-50707500D01*
X131553246Y-50711130D01*
X131553246Y-50711131D01*
X131555587Y-50800523D01*
X131562233Y-51054330D01*
X131611119Y-51397819D01*
X131699160Y-51733412D01*
X131825190Y-52056662D01*
X131838147Y-52081133D01*
X131983967Y-52356540D01*
X131987538Y-52363285D01*
X131989588Y-52366268D01*
X131989590Y-52366271D01*
X132181996Y-52646223D01*
X132182002Y-52646230D01*
X132184053Y-52649215D01*
X132224156Y-52695186D01*
X132308577Y-52791960D01*
X132338285Y-52856442D01*
X132328415Y-52926749D01*
X132282101Y-52980559D01*
X132213628Y-53000789D01*
X125011700Y-53000789D01*
X124943579Y-52980787D01*
X124897086Y-52927131D01*
X124886982Y-52856857D01*
X124916476Y-52792277D01*
X124917604Y-52791070D01*
X124920062Y-52789065D01*
X124926163Y-52781691D01*
X124975526Y-52722021D01*
X124977175Y-52720069D01*
X125034078Y-52654145D01*
X125037121Y-52648788D01*
X125039708Y-52645121D01*
X125042204Y-52641421D01*
X125046130Y-52636675D01*
X125087537Y-52560095D01*
X125088808Y-52557803D01*
X125128725Y-52487537D01*
X125131769Y-52482179D01*
X125133713Y-52476335D01*
X125135547Y-52472216D01*
X125137272Y-52468113D01*
X125140198Y-52462701D01*
X125165932Y-52379568D01*
X125166735Y-52377067D01*
X125173564Y-52356540D01*
X125194197Y-52294513D01*
X125194970Y-52288392D01*
X125195969Y-52283995D01*
X125196860Y-52279652D01*
X125198682Y-52273768D01*
X125207780Y-52187205D01*
X125208082Y-52184597D01*
X125218543Y-52101796D01*
X125218543Y-52101791D01*
X125218985Y-52098295D01*
X125219270Y-52077884D01*
X125219355Y-52077075D01*
X125219291Y-52076372D01*
X125219328Y-52073760D01*
X125219331Y-52073523D01*
X125219331Y-52073519D01*
X125219380Y-52070000D01*
X125210105Y-51975403D01*
X125210023Y-51974528D01*
X125201988Y-51886245D01*
X125201430Y-51880112D01*
X125200427Y-51876703D01*
X125200080Y-51873167D01*
X125172639Y-51782279D01*
X125172414Y-51781525D01*
X125158254Y-51733412D01*
X125145590Y-51690381D01*
X125143942Y-51687228D01*
X125142916Y-51683831D01*
X125098289Y-51599899D01*
X125097922Y-51599201D01*
X125056814Y-51520569D01*
X125053960Y-51515110D01*
X125051735Y-51512342D01*
X125050066Y-51509204D01*
X124997294Y-51444499D01*
X124990059Y-51435628D01*
X124989506Y-51434944D01*
X124933898Y-51365782D01*
X124933892Y-51365776D01*
X124930032Y-51360975D01*
X124927311Y-51358692D01*
X124925065Y-51355938D01*
X124919018Y-51350935D01*
X124875021Y-51314538D01*
X124851864Y-51295381D01*
X124851329Y-51294935D01*
X124778526Y-51233846D01*
X124775411Y-51232134D01*
X124772675Y-51229870D01*
X124689101Y-51184682D01*
X124688363Y-51184279D01*
X124610612Y-51141535D01*
X124610611Y-51141535D01*
X124605213Y-51138567D01*
X124601830Y-51137494D01*
X124598701Y-51135802D01*
X124560530Y-51123986D01*
X124524384Y-51112797D01*
X124465683Y-51073851D01*
X124431283Y-51081274D01*
X124419411Y-51079627D01*
X124416694Y-51078765D01*
X124413163Y-51078369D01*
X124409768Y-51077318D01*
X124315293Y-51067389D01*
X124314579Y-51067311D01*
X124262773Y-51061500D01*
X124260200Y-51061500D01*
X124256224Y-51061180D01*
X124219204Y-51057289D01*
X124219202Y-51057289D01*
X124213075Y-51056645D01*
X124165430Y-51060981D01*
X124154010Y-51061500D01*
X123297644Y-51061500D01*
X123229523Y-51041498D01*
X123183030Y-50987842D01*
X123172926Y-50917568D01*
X123202420Y-50852988D01*
X123265033Y-50813793D01*
X123311009Y-50801474D01*
X123321301Y-50797728D01*
X123511465Y-50709054D01*
X123520960Y-50703571D01*
X123563062Y-50674091D01*
X123571437Y-50663614D01*
X123564369Y-50650167D01*
X122895853Y-49981651D01*
X122881909Y-49974037D01*
X122880076Y-49974168D01*
X122873461Y-49978419D01*
X122200992Y-50650888D01*
X122194562Y-50662663D01*
X122203858Y-50674678D01*
X122245122Y-50703571D01*
X122254617Y-50709054D01*
X122444781Y-50797728D01*
X122455073Y-50801474D01*
X122501049Y-50813793D01*
X122561672Y-50850745D01*
X122592693Y-50914605D01*
X122584265Y-50985100D01*
X122539062Y-51039847D01*
X122468438Y-51061500D01*
X120759578Y-51061500D01*
X120691457Y-51041498D01*
X120644964Y-50987842D01*
X120634860Y-50917568D01*
X120664354Y-50852988D01*
X120726967Y-50813793D01*
X120771181Y-50801946D01*
X120771183Y-50801945D01*
X120776491Y-50800523D01*
X120782485Y-50797728D01*
X120971716Y-50709489D01*
X120971721Y-50709486D01*
X120976703Y-50707163D01*
X120981833Y-50703571D01*
X121153150Y-50583614D01*
X121153153Y-50583612D01*
X121157661Y-50580455D01*
X121313867Y-50424249D01*
X121440575Y-50243290D01*
X121499122Y-50117736D01*
X121546039Y-50064451D01*
X121614317Y-50044990D01*
X121682277Y-50065532D01*
X121727512Y-50117736D01*
X121783617Y-50238054D01*
X121789096Y-50247544D01*
X121818580Y-50289651D01*
X121829056Y-50298025D01*
X121842504Y-50290956D01*
X122511019Y-49622441D01*
X122517397Y-49610761D01*
X123247449Y-49610761D01*
X123247580Y-49612594D01*
X123251831Y-49619209D01*
X123924300Y-50291678D01*
X123936075Y-50298108D01*
X123957442Y-50281578D01*
X124023560Y-50255715D01*
X124093165Y-50269705D01*
X124144157Y-50319104D01*
X124160541Y-50381236D01*
X124160541Y-50411763D01*
X124167296Y-50473945D01*
X124218426Y-50610334D01*
X124305780Y-50726890D01*
X124422336Y-50814244D01*
X124430744Y-50817396D01*
X124484712Y-50837628D01*
X124533983Y-50874641D01*
X124563482Y-50866445D01*
X124575245Y-50867169D01*
X124620907Y-50872129D01*
X126225175Y-50872129D01*
X126287357Y-50865374D01*
X126423746Y-50814244D01*
X126540302Y-50726890D01*
X126627656Y-50610334D01*
X126678786Y-50473945D01*
X126685541Y-50411763D01*
X126685541Y-48807495D01*
X126678786Y-48745313D01*
X126627656Y-48608924D01*
X126540302Y-48492368D01*
X126423746Y-48405014D01*
X126287357Y-48353884D01*
X126225175Y-48347129D01*
X124620907Y-48347129D01*
X124558725Y-48353884D01*
X124422336Y-48405014D01*
X124305780Y-48492368D01*
X124218426Y-48608924D01*
X124167296Y-48745313D01*
X124160541Y-48807495D01*
X124160541Y-48837874D01*
X124140539Y-48905995D01*
X124086883Y-48952488D01*
X124016609Y-48962592D01*
X123955869Y-48936295D01*
X123937026Y-48921233D01*
X123923578Y-48928302D01*
X123255063Y-49596817D01*
X123247449Y-49610761D01*
X122517397Y-49610761D01*
X122518633Y-49608497D01*
X122518502Y-49606664D01*
X122514251Y-49600049D01*
X121841782Y-48927580D01*
X121830008Y-48921150D01*
X121817992Y-48930446D01*
X121789096Y-48971714D01*
X121783617Y-48981204D01*
X121727512Y-49101522D01*
X121680595Y-49154807D01*
X121612317Y-49174268D01*
X121544357Y-49153726D01*
X121499122Y-49101522D01*
X121442898Y-48980949D01*
X121442896Y-48980946D01*
X121440575Y-48975968D01*
X121313867Y-48795009D01*
X121157661Y-48638803D01*
X121153153Y-48635646D01*
X121153150Y-48635644D01*
X121038898Y-48555644D01*
X122194645Y-48555644D01*
X122201714Y-48569092D01*
X122870229Y-49237607D01*
X122884173Y-49245221D01*
X122886006Y-49245090D01*
X122892621Y-49240839D01*
X123565090Y-48568370D01*
X123571520Y-48556595D01*
X123562224Y-48544580D01*
X123520960Y-48515687D01*
X123511465Y-48510204D01*
X123321301Y-48421530D01*
X123311009Y-48417784D01*
X123108337Y-48363478D01*
X123097542Y-48361575D01*
X122888516Y-48343287D01*
X122877566Y-48343287D01*
X122668540Y-48361575D01*
X122657745Y-48363478D01*
X122455073Y-48417784D01*
X122444781Y-48421530D01*
X122254616Y-48510206D01*
X122245126Y-48515684D01*
X122203019Y-48545168D01*
X122194645Y-48555644D01*
X121038898Y-48555644D01*
X120981212Y-48515252D01*
X120981209Y-48515250D01*
X120976703Y-48512095D01*
X120971721Y-48509772D01*
X120971716Y-48509769D01*
X120781473Y-48421058D01*
X120781472Y-48421058D01*
X120776491Y-48418735D01*
X120771183Y-48417313D01*
X120771181Y-48417312D01*
X120705523Y-48399719D01*
X120563109Y-48361559D01*
X120343041Y-48342306D01*
X120122973Y-48361559D01*
X119980559Y-48399719D01*
X119914901Y-48417312D01*
X119914899Y-48417313D01*
X119909591Y-48418735D01*
X119904610Y-48421057D01*
X119904609Y-48421058D01*
X119714361Y-48509772D01*
X119714358Y-48509774D01*
X119709380Y-48512095D01*
X119528421Y-48638803D01*
X119372215Y-48795009D01*
X119245507Y-48975968D01*
X119243186Y-48980946D01*
X119243184Y-48980949D01*
X119187236Y-49100930D01*
X119140319Y-49154215D01*
X119072041Y-49173676D01*
X119004081Y-49153134D01*
X118958846Y-49100930D01*
X118902898Y-48980949D01*
X118902896Y-48980946D01*
X118900575Y-48975968D01*
X118773867Y-48795009D01*
X118617661Y-48638803D01*
X118613153Y-48635646D01*
X118613150Y-48635644D01*
X118441212Y-48515252D01*
X118441209Y-48515250D01*
X118436703Y-48512095D01*
X118431721Y-48509772D01*
X118431716Y-48509769D01*
X118241473Y-48421058D01*
X118241472Y-48421058D01*
X118236491Y-48418735D01*
X118231183Y-48417313D01*
X118231181Y-48417312D01*
X118165523Y-48399719D01*
X118023109Y-48361559D01*
X117803041Y-48342306D01*
X117582973Y-48361559D01*
X117440559Y-48399719D01*
X117374901Y-48417312D01*
X117374899Y-48417313D01*
X117369591Y-48418735D01*
X117364610Y-48421057D01*
X117364609Y-48421058D01*
X117174361Y-48509772D01*
X117174358Y-48509774D01*
X117169380Y-48512095D01*
X116988421Y-48638803D01*
X116832215Y-48795009D01*
X116705507Y-48975968D01*
X116703186Y-48980946D01*
X116703184Y-48980949D01*
X116647236Y-49100930D01*
X116600319Y-49154215D01*
X116532041Y-49173676D01*
X116464081Y-49153134D01*
X116418846Y-49100930D01*
X116362898Y-48980949D01*
X116362896Y-48980946D01*
X116360575Y-48975968D01*
X116233867Y-48795009D01*
X116077661Y-48638803D01*
X116073153Y-48635646D01*
X116073150Y-48635644D01*
X115901212Y-48515252D01*
X115901209Y-48515250D01*
X115896703Y-48512095D01*
X115891721Y-48509772D01*
X115891716Y-48509769D01*
X115701473Y-48421058D01*
X115701472Y-48421058D01*
X115696491Y-48418735D01*
X115691183Y-48417313D01*
X115691181Y-48417312D01*
X115625523Y-48399719D01*
X115483109Y-48361559D01*
X115263041Y-48342306D01*
X115042973Y-48361559D01*
X114900559Y-48399719D01*
X114834901Y-48417312D01*
X114834899Y-48417313D01*
X114829591Y-48418735D01*
X114824610Y-48421057D01*
X114824609Y-48421058D01*
X114634361Y-48509772D01*
X114634358Y-48509774D01*
X114629380Y-48512095D01*
X114448421Y-48638803D01*
X114292215Y-48795009D01*
X114165507Y-48975968D01*
X114163186Y-48980946D01*
X114163184Y-48980949D01*
X114107236Y-49100930D01*
X114060319Y-49154215D01*
X113992041Y-49173676D01*
X113924081Y-49153134D01*
X113878846Y-49100930D01*
X113822898Y-48980949D01*
X113822896Y-48980946D01*
X113820575Y-48975968D01*
X113693867Y-48795009D01*
X113537661Y-48638803D01*
X113533153Y-48635646D01*
X113533150Y-48635644D01*
X113361212Y-48515252D01*
X113361209Y-48515250D01*
X113356703Y-48512095D01*
X113351721Y-48509772D01*
X113351716Y-48509769D01*
X113161473Y-48421058D01*
X113161472Y-48421058D01*
X113156491Y-48418735D01*
X113151183Y-48417313D01*
X113151181Y-48417312D01*
X113085523Y-48399719D01*
X112943109Y-48361559D01*
X112723041Y-48342306D01*
X112502973Y-48361559D01*
X112360559Y-48399719D01*
X112294901Y-48417312D01*
X112294899Y-48417313D01*
X112289591Y-48418735D01*
X112284610Y-48421057D01*
X112284609Y-48421058D01*
X112094361Y-48509772D01*
X112094358Y-48509774D01*
X112089380Y-48512095D01*
X111908421Y-48638803D01*
X111752215Y-48795009D01*
X111625507Y-48975968D01*
X111623186Y-48980946D01*
X111623184Y-48980949D01*
X111567236Y-49100930D01*
X111520319Y-49154215D01*
X111452041Y-49173676D01*
X111384081Y-49153134D01*
X111338846Y-49100930D01*
X111282898Y-48980949D01*
X111282896Y-48980946D01*
X111280575Y-48975968D01*
X111153867Y-48795009D01*
X110997661Y-48638803D01*
X110993153Y-48635646D01*
X110993150Y-48635644D01*
X110821212Y-48515252D01*
X110821209Y-48515250D01*
X110816703Y-48512095D01*
X110811721Y-48509772D01*
X110811716Y-48509769D01*
X110621473Y-48421058D01*
X110621472Y-48421058D01*
X110616491Y-48418735D01*
X110611183Y-48417313D01*
X110611181Y-48417312D01*
X110545523Y-48399719D01*
X110403109Y-48361559D01*
X110183041Y-48342306D01*
X109962973Y-48361559D01*
X109820559Y-48399719D01*
X109754901Y-48417312D01*
X109754899Y-48417313D01*
X109749591Y-48418735D01*
X109744610Y-48421057D01*
X109744609Y-48421058D01*
X109554361Y-48509772D01*
X109554358Y-48509774D01*
X109549380Y-48512095D01*
X109368421Y-48638803D01*
X109212215Y-48795009D01*
X109085507Y-48975968D01*
X109083186Y-48980946D01*
X109083184Y-48980949D01*
X109027236Y-49100930D01*
X108980319Y-49154215D01*
X108912041Y-49173676D01*
X108844081Y-49153134D01*
X108798846Y-49100930D01*
X108742898Y-48980949D01*
X108742896Y-48980946D01*
X108740575Y-48975968D01*
X108613867Y-48795009D01*
X108457661Y-48638803D01*
X108453153Y-48635646D01*
X108453150Y-48635644D01*
X108281212Y-48515252D01*
X108281209Y-48515250D01*
X108276703Y-48512095D01*
X108271721Y-48509772D01*
X108271716Y-48509769D01*
X108081473Y-48421058D01*
X108081472Y-48421058D01*
X108076491Y-48418735D01*
X108071183Y-48417313D01*
X108071181Y-48417312D01*
X108005523Y-48399719D01*
X107863109Y-48361559D01*
X107643041Y-48342306D01*
X107422973Y-48361559D01*
X107280559Y-48399719D01*
X107214901Y-48417312D01*
X107214899Y-48417313D01*
X107209591Y-48418735D01*
X107204610Y-48421057D01*
X107204609Y-48421058D01*
X107014361Y-48509772D01*
X107014358Y-48509774D01*
X107009380Y-48512095D01*
X106828421Y-48638803D01*
X106672215Y-48795009D01*
X106545507Y-48975968D01*
X106543186Y-48980946D01*
X106543184Y-48980949D01*
X106487236Y-49100930D01*
X106440319Y-49154215D01*
X106372041Y-49173676D01*
X106304081Y-49153134D01*
X106258846Y-49100930D01*
X106202898Y-48980949D01*
X106202896Y-48980946D01*
X106200575Y-48975968D01*
X106073867Y-48795009D01*
X105917661Y-48638803D01*
X105913153Y-48635646D01*
X105913150Y-48635644D01*
X105741212Y-48515252D01*
X105741209Y-48515250D01*
X105736703Y-48512095D01*
X105731721Y-48509772D01*
X105731716Y-48509769D01*
X105541473Y-48421058D01*
X105541472Y-48421058D01*
X105536491Y-48418735D01*
X105531183Y-48417313D01*
X105531181Y-48417312D01*
X105465523Y-48399719D01*
X105323109Y-48361559D01*
X105103041Y-48342306D01*
X104882973Y-48361559D01*
X104740559Y-48399719D01*
X104674901Y-48417312D01*
X104674899Y-48417313D01*
X104669591Y-48418735D01*
X104664610Y-48421057D01*
X104664609Y-48421058D01*
X104474361Y-48509772D01*
X104474358Y-48509774D01*
X104469380Y-48512095D01*
X104288421Y-48638803D01*
X104132215Y-48795009D01*
X104005507Y-48975968D01*
X104003186Y-48980946D01*
X104003184Y-48980949D01*
X103947236Y-49100930D01*
X103900319Y-49154215D01*
X103832041Y-49173676D01*
X103764081Y-49153134D01*
X103718846Y-49100930D01*
X103662898Y-48980949D01*
X103662896Y-48980946D01*
X103660575Y-48975968D01*
X103533867Y-48795009D01*
X103377661Y-48638803D01*
X103373153Y-48635646D01*
X103373150Y-48635644D01*
X103201212Y-48515252D01*
X103201209Y-48515250D01*
X103196703Y-48512095D01*
X103191721Y-48509772D01*
X103191716Y-48509769D01*
X103001473Y-48421058D01*
X103001472Y-48421058D01*
X102996491Y-48418735D01*
X102991183Y-48417313D01*
X102991181Y-48417312D01*
X102925523Y-48399719D01*
X102783109Y-48361559D01*
X102563041Y-48342306D01*
X102342973Y-48361559D01*
X102200559Y-48399719D01*
X102134901Y-48417312D01*
X102134899Y-48417313D01*
X102129591Y-48418735D01*
X102124610Y-48421057D01*
X102124609Y-48421058D01*
X101934361Y-48509772D01*
X101934358Y-48509774D01*
X101929380Y-48512095D01*
X101748421Y-48638803D01*
X101592215Y-48795009D01*
X101465507Y-48975968D01*
X101463186Y-48980946D01*
X101463184Y-48980949D01*
X101407236Y-49100930D01*
X101360319Y-49154215D01*
X101292041Y-49173676D01*
X101224081Y-49153134D01*
X101178846Y-49100930D01*
X101122898Y-48980949D01*
X101122896Y-48980946D01*
X101120575Y-48975968D01*
X100993867Y-48795009D01*
X100837661Y-48638803D01*
X100833153Y-48635646D01*
X100833150Y-48635644D01*
X100661212Y-48515252D01*
X100661209Y-48515250D01*
X100656703Y-48512095D01*
X100651721Y-48509772D01*
X100651716Y-48509769D01*
X100461473Y-48421058D01*
X100461472Y-48421058D01*
X100456491Y-48418735D01*
X100451183Y-48417313D01*
X100451181Y-48417312D01*
X100385523Y-48399719D01*
X100243109Y-48361559D01*
X100023041Y-48342306D01*
X99802973Y-48361559D01*
X99660559Y-48399719D01*
X99594901Y-48417312D01*
X99594899Y-48417313D01*
X99589591Y-48418735D01*
X99584610Y-48421057D01*
X99584609Y-48421058D01*
X99394361Y-48509772D01*
X99394358Y-48509774D01*
X99389380Y-48512095D01*
X99208421Y-48638803D01*
X99052215Y-48795009D01*
X98925507Y-48975968D01*
X98923186Y-48980946D01*
X98923184Y-48980949D01*
X98867236Y-49100930D01*
X98820319Y-49154215D01*
X98752041Y-49173676D01*
X98684081Y-49153134D01*
X98638846Y-49100930D01*
X98582898Y-48980949D01*
X98582896Y-48980946D01*
X98580575Y-48975968D01*
X98453867Y-48795009D01*
X98297661Y-48638803D01*
X98293153Y-48635646D01*
X98293150Y-48635644D01*
X98121212Y-48515252D01*
X98121209Y-48515250D01*
X98116703Y-48512095D01*
X98111721Y-48509772D01*
X98111716Y-48509769D01*
X97921473Y-48421058D01*
X97921472Y-48421058D01*
X97916491Y-48418735D01*
X97911183Y-48417313D01*
X97911181Y-48417312D01*
X97845523Y-48399719D01*
X97703109Y-48361559D01*
X97483041Y-48342306D01*
X97262973Y-48361559D01*
X97120559Y-48399719D01*
X97054901Y-48417312D01*
X97054899Y-48417313D01*
X97049591Y-48418735D01*
X97044610Y-48421057D01*
X97044609Y-48421058D01*
X96854361Y-48509772D01*
X96854358Y-48509774D01*
X96849380Y-48512095D01*
X96668421Y-48638803D01*
X96512215Y-48795009D01*
X96385507Y-48975968D01*
X96383186Y-48980946D01*
X96383184Y-48980949D01*
X96327236Y-49100930D01*
X96280319Y-49154215D01*
X96212041Y-49173676D01*
X96144081Y-49153134D01*
X96098846Y-49100930D01*
X96042898Y-48980949D01*
X96042896Y-48980946D01*
X96040575Y-48975968D01*
X95913867Y-48795009D01*
X95757661Y-48638803D01*
X95753153Y-48635646D01*
X95753150Y-48635644D01*
X95581212Y-48515252D01*
X95581209Y-48515250D01*
X95576703Y-48512095D01*
X95571721Y-48509772D01*
X95571716Y-48509769D01*
X95381473Y-48421058D01*
X95381472Y-48421058D01*
X95376491Y-48418735D01*
X95371183Y-48417313D01*
X95371181Y-48417312D01*
X95305523Y-48399719D01*
X95163109Y-48361559D01*
X94943041Y-48342306D01*
X94722973Y-48361559D01*
X94580559Y-48399719D01*
X94514901Y-48417312D01*
X94514899Y-48417313D01*
X94509591Y-48418735D01*
X94504610Y-48421057D01*
X94504609Y-48421058D01*
X94314361Y-48509772D01*
X94314358Y-48509774D01*
X94309380Y-48512095D01*
X94128421Y-48638803D01*
X93972215Y-48795009D01*
X93845507Y-48975968D01*
X93843186Y-48980946D01*
X93843184Y-48980949D01*
X93782950Y-49110122D01*
X93752147Y-49176179D01*
X93694971Y-49389561D01*
X93675718Y-49609629D01*
X93694971Y-49829697D01*
X93696395Y-49835010D01*
X93746548Y-50022182D01*
X93752147Y-50043079D01*
X93754469Y-50048060D01*
X93754470Y-50048061D01*
X93786885Y-50117574D01*
X93845507Y-50243290D01*
X93972215Y-50424249D01*
X94128421Y-50580455D01*
X94132929Y-50583612D01*
X94132932Y-50583614D01*
X94304249Y-50703571D01*
X94309379Y-50707163D01*
X94314361Y-50709486D01*
X94314366Y-50709489D01*
X94503597Y-50797728D01*
X94509591Y-50800523D01*
X94514899Y-50801945D01*
X94514901Y-50801946D01*
X94540697Y-50808858D01*
X94722973Y-50857699D01*
X94943041Y-50876952D01*
X95163109Y-50857699D01*
X95345385Y-50808858D01*
X95371181Y-50801946D01*
X95371183Y-50801945D01*
X95376491Y-50800523D01*
X95382485Y-50797728D01*
X95571716Y-50709489D01*
X95571721Y-50709486D01*
X95576703Y-50707163D01*
X95581833Y-50703571D01*
X95753150Y-50583614D01*
X95753153Y-50583612D01*
X95757661Y-50580455D01*
X95913867Y-50424249D01*
X96040575Y-50243290D01*
X96098846Y-50118328D01*
X96145763Y-50065043D01*
X96214041Y-50045582D01*
X96282001Y-50066124D01*
X96327236Y-50118328D01*
X96385507Y-50243290D01*
X96512215Y-50424249D01*
X96668421Y-50580455D01*
X96672929Y-50583612D01*
X96672932Y-50583614D01*
X96844249Y-50703571D01*
X96849379Y-50707163D01*
X96854361Y-50709486D01*
X96854366Y-50709489D01*
X97043597Y-50797728D01*
X97049591Y-50800523D01*
X97054899Y-50801945D01*
X97054901Y-50801946D01*
X97080697Y-50808858D01*
X97262973Y-50857699D01*
X97483041Y-50876952D01*
X97703109Y-50857699D01*
X97885385Y-50808858D01*
X97911181Y-50801946D01*
X97911183Y-50801945D01*
X97916491Y-50800523D01*
X97922485Y-50797728D01*
X98111716Y-50709489D01*
X98111721Y-50709486D01*
X98116703Y-50707163D01*
X98121833Y-50703571D01*
X98293150Y-50583614D01*
X98293153Y-50583612D01*
X98297661Y-50580455D01*
X98453867Y-50424249D01*
X98580575Y-50243290D01*
X98638846Y-50118328D01*
X98685763Y-50065043D01*
X98754041Y-50045582D01*
X98822001Y-50066124D01*
X98867236Y-50118328D01*
X98925507Y-50243290D01*
X99052215Y-50424249D01*
X99208421Y-50580455D01*
X99212929Y-50583612D01*
X99212932Y-50583614D01*
X99384249Y-50703571D01*
X99389379Y-50707163D01*
X99394361Y-50709486D01*
X99394366Y-50709489D01*
X99583597Y-50797728D01*
X99589591Y-50800523D01*
X99594899Y-50801945D01*
X99594901Y-50801946D01*
X99620697Y-50808858D01*
X99802973Y-50857699D01*
X100023041Y-50876952D01*
X100243109Y-50857699D01*
X100425385Y-50808858D01*
X100451181Y-50801946D01*
X100451183Y-50801945D01*
X100456491Y-50800523D01*
X100462485Y-50797728D01*
X100651716Y-50709489D01*
X100651721Y-50709486D01*
X100656703Y-50707163D01*
X100661833Y-50703571D01*
X100833150Y-50583614D01*
X100833153Y-50583612D01*
X100837661Y-50580455D01*
X100993867Y-50424249D01*
X101120575Y-50243290D01*
X101178846Y-50118328D01*
X101225763Y-50065043D01*
X101294041Y-50045582D01*
X101362001Y-50066124D01*
X101407236Y-50118328D01*
X101465507Y-50243290D01*
X101592215Y-50424249D01*
X101748421Y-50580455D01*
X101752929Y-50583612D01*
X101752932Y-50583614D01*
X101924249Y-50703571D01*
X101929379Y-50707163D01*
X101934361Y-50709486D01*
X101934366Y-50709489D01*
X102123597Y-50797728D01*
X102129591Y-50800523D01*
X102134899Y-50801945D01*
X102134901Y-50801946D01*
X102160697Y-50808858D01*
X102342973Y-50857699D01*
X102563041Y-50876952D01*
X102783109Y-50857699D01*
X102965385Y-50808858D01*
X102991181Y-50801946D01*
X102991183Y-50801945D01*
X102996491Y-50800523D01*
X103002485Y-50797728D01*
X103191716Y-50709489D01*
X103191721Y-50709486D01*
X103196703Y-50707163D01*
X103201833Y-50703571D01*
X103373150Y-50583614D01*
X103373153Y-50583612D01*
X103377661Y-50580455D01*
X103533867Y-50424249D01*
X103660575Y-50243290D01*
X103718846Y-50118328D01*
X103765763Y-50065043D01*
X103834041Y-50045582D01*
X103902001Y-50066124D01*
X103947236Y-50118328D01*
X104005507Y-50243290D01*
X104132215Y-50424249D01*
X104288421Y-50580455D01*
X104292929Y-50583612D01*
X104292932Y-50583614D01*
X104464249Y-50703571D01*
X104469379Y-50707163D01*
X104474361Y-50709486D01*
X104474366Y-50709489D01*
X104663597Y-50797728D01*
X104669591Y-50800523D01*
X104674899Y-50801945D01*
X104674901Y-50801946D01*
X104700697Y-50808858D01*
X104882973Y-50857699D01*
X105103041Y-50876952D01*
X105323109Y-50857699D01*
X105505385Y-50808858D01*
X105531181Y-50801946D01*
X105531183Y-50801945D01*
X105536491Y-50800523D01*
X105542485Y-50797728D01*
X105731716Y-50709489D01*
X105731721Y-50709486D01*
X105736703Y-50707163D01*
X105741833Y-50703571D01*
X105913150Y-50583614D01*
X105913153Y-50583612D01*
X105917661Y-50580455D01*
X106073867Y-50424249D01*
X106200575Y-50243290D01*
X106258846Y-50118328D01*
X106305763Y-50065043D01*
X106374041Y-50045582D01*
X106442001Y-50066124D01*
X106487236Y-50118328D01*
X106545507Y-50243290D01*
X106672215Y-50424249D01*
X106828421Y-50580455D01*
X106832929Y-50583612D01*
X106832932Y-50583614D01*
X107004249Y-50703571D01*
X107009379Y-50707163D01*
X107014361Y-50709486D01*
X107014366Y-50709489D01*
X107203597Y-50797728D01*
X107209591Y-50800523D01*
X107214899Y-50801945D01*
X107214901Y-50801946D01*
X107240697Y-50808858D01*
X107422973Y-50857699D01*
X107643041Y-50876952D01*
X107863109Y-50857699D01*
X108045385Y-50808858D01*
X108071181Y-50801946D01*
X108071183Y-50801945D01*
X108076491Y-50800523D01*
X108082485Y-50797728D01*
X108271716Y-50709489D01*
X108271721Y-50709486D01*
X108276703Y-50707163D01*
X108281833Y-50703571D01*
X108453150Y-50583614D01*
X108453153Y-50583612D01*
X108457661Y-50580455D01*
X108613867Y-50424249D01*
X108740575Y-50243290D01*
X108798846Y-50118328D01*
X108845763Y-50065043D01*
X108914041Y-50045582D01*
X108982001Y-50066124D01*
X109027236Y-50118328D01*
X109085507Y-50243290D01*
X109212215Y-50424249D01*
X109368421Y-50580455D01*
X109372929Y-50583612D01*
X109372932Y-50583614D01*
X109544249Y-50703571D01*
X109549379Y-50707163D01*
X109554361Y-50709486D01*
X109554366Y-50709489D01*
X109743597Y-50797728D01*
X109749591Y-50800523D01*
X109754899Y-50801945D01*
X109754901Y-50801946D01*
X109780697Y-50808858D01*
X109962973Y-50857699D01*
X110183041Y-50876952D01*
X110403109Y-50857699D01*
X110585385Y-50808858D01*
X110611181Y-50801946D01*
X110611183Y-50801945D01*
X110616491Y-50800523D01*
X110622485Y-50797728D01*
X110811716Y-50709489D01*
X110811721Y-50709486D01*
X110816703Y-50707163D01*
X110821833Y-50703571D01*
X110993150Y-50583614D01*
X110993153Y-50583612D01*
X110997661Y-50580455D01*
X111153867Y-50424249D01*
X111280575Y-50243290D01*
X111338846Y-50118328D01*
X111385763Y-50065043D01*
X111454041Y-50045582D01*
X111522001Y-50066124D01*
X111567236Y-50118328D01*
X111625507Y-50243290D01*
X111752215Y-50424249D01*
X111908421Y-50580455D01*
X111912929Y-50583612D01*
X111912932Y-50583614D01*
X112084249Y-50703571D01*
X112089379Y-50707163D01*
X112094361Y-50709486D01*
X112094366Y-50709489D01*
X112283597Y-50797728D01*
X112289591Y-50800523D01*
X112294899Y-50801945D01*
X112294901Y-50801946D01*
X112320697Y-50808858D01*
X112502973Y-50857699D01*
X112723041Y-50876952D01*
X112943109Y-50857699D01*
X113125385Y-50808858D01*
X113151181Y-50801946D01*
X113151183Y-50801945D01*
X113156491Y-50800523D01*
X113162485Y-50797728D01*
X113351716Y-50709489D01*
X113351721Y-50709486D01*
X113356703Y-50707163D01*
X113361833Y-50703571D01*
X113533150Y-50583614D01*
X113533153Y-50583612D01*
X113537661Y-50580455D01*
X113693867Y-50424249D01*
X113820575Y-50243290D01*
X113878846Y-50118328D01*
X113925763Y-50065043D01*
X113994041Y-50045582D01*
X114062001Y-50066124D01*
X114107236Y-50118328D01*
X114165507Y-50243290D01*
X114292215Y-50424249D01*
X114448421Y-50580455D01*
X114452929Y-50583612D01*
X114452932Y-50583614D01*
X114624249Y-50703571D01*
X114629379Y-50707163D01*
X114634361Y-50709486D01*
X114634366Y-50709489D01*
X114823597Y-50797728D01*
X114829591Y-50800523D01*
X114834896Y-50801945D01*
X114834903Y-50801947D01*
X114855873Y-50807565D01*
X114863823Y-50809695D01*
X114924445Y-50846646D01*
X114955467Y-50910506D01*
X114947039Y-50981001D01*
X114901837Y-51035748D01*
X114829892Y-51057395D01*
X114824733Y-51057341D01*
X114818611Y-51056676D01*
X114796956Y-51058571D01*
X114768609Y-51061050D01*
X114763784Y-51061379D01*
X114761313Y-51061500D01*
X114758231Y-51061500D01*
X114735763Y-51063703D01*
X114715489Y-51065691D01*
X114714174Y-51065813D01*
X114681913Y-51068636D01*
X114621587Y-51073913D01*
X114616468Y-51075400D01*
X114611167Y-51075920D01*
X114605262Y-51077703D01*
X114605261Y-51077703D01*
X114585907Y-51083546D01*
X114522194Y-51102782D01*
X114521054Y-51103120D01*
X114431663Y-51129091D01*
X114426929Y-51131545D01*
X114421831Y-51133084D01*
X114416387Y-51135978D01*
X114416386Y-51135979D01*
X114339831Y-51176684D01*
X114338663Y-51177298D01*
X114282516Y-51206402D01*
X114256074Y-51220108D01*
X114251911Y-51223431D01*
X114247204Y-51225934D01*
X114175082Y-51284755D01*
X114174226Y-51285446D01*
X114135027Y-51316738D01*
X114132523Y-51319242D01*
X114131805Y-51319884D01*
X114127472Y-51323585D01*
X114093938Y-51350935D01*
X114090011Y-51355682D01*
X114090009Y-51355684D01*
X114064713Y-51386262D01*
X114056723Y-51395042D01*
X112868621Y-52583145D01*
X112858478Y-52592247D01*
X112828975Y-52615968D01*
X112804513Y-52645121D01*
X112796709Y-52654421D01*
X112793528Y-52658069D01*
X112791885Y-52659881D01*
X112789691Y-52662075D01*
X112762358Y-52695349D01*
X112761696Y-52696147D01*
X112701846Y-52767474D01*
X112699278Y-52772144D01*
X112695897Y-52776261D01*
X112686404Y-52793966D01*
X112652023Y-52858086D01*
X112651394Y-52859245D01*
X112609538Y-52935381D01*
X112609535Y-52935389D01*
X112606567Y-52940787D01*
X112604955Y-52945869D01*
X112602438Y-52950563D01*
X112575238Y-53039531D01*
X112574918Y-53040559D01*
X112546765Y-53129306D01*
X112546171Y-53134602D01*
X112544613Y-53139698D01*
X112543990Y-53145834D01*
X112535218Y-53232187D01*
X112535089Y-53233393D01*
X112529500Y-53283227D01*
X112529500Y-53286754D01*
X112529445Y-53287739D01*
X112528998Y-53293419D01*
X112524626Y-53336462D01*
X112525206Y-53342593D01*
X112528941Y-53382109D01*
X112529500Y-53393967D01*
X112529500Y-58207934D01*
X112509498Y-58276055D01*
X112455842Y-58322548D01*
X112385568Y-58332652D01*
X112327935Y-58308760D01*
X112247892Y-58248771D01*
X112247890Y-58248770D01*
X112240705Y-58243385D01*
X112104316Y-58192255D01*
X112042134Y-58185500D01*
X109445866Y-58185500D01*
X109383684Y-58192255D01*
X109247295Y-58243385D01*
X109130739Y-58330739D01*
X109043385Y-58447295D01*
X108992255Y-58583684D01*
X108985500Y-58645866D01*
X108985500Y-61242134D01*
X108992255Y-61304316D01*
X109043385Y-61440705D01*
X109130739Y-61557261D01*
X109247295Y-61644615D01*
X109383684Y-61695745D01*
X109445866Y-61702500D01*
X112042134Y-61702500D01*
X112104316Y-61695745D01*
X112240705Y-61644615D01*
X112274058Y-61619619D01*
X112327935Y-61579240D01*
X112394442Y-61554392D01*
X112463824Y-61569445D01*
X112514054Y-61619619D01*
X112529500Y-61680066D01*
X112529500Y-62674181D01*
X112528715Y-62688225D01*
X112524719Y-62723851D01*
X112525235Y-62729995D01*
X112529058Y-62775524D01*
X112529314Y-62781619D01*
X112529350Y-62781617D01*
X112529500Y-62784684D01*
X112529500Y-62787769D01*
X112529801Y-62790837D01*
X112533498Y-62828549D01*
X112533657Y-62830299D01*
X112541268Y-62920934D01*
X112542925Y-62926714D01*
X112542963Y-62926904D01*
X112543295Y-62928645D01*
X112543334Y-62928858D01*
X112543920Y-62934833D01*
X112545702Y-62940735D01*
X112570191Y-63021848D01*
X112570688Y-63023535D01*
X112595783Y-63111050D01*
X112598533Y-63116399D01*
X112598600Y-63116563D01*
X112599240Y-63118148D01*
X112599351Y-63118429D01*
X112601084Y-63124169D01*
X112603975Y-63129606D01*
X112603979Y-63129616D01*
X112643824Y-63204553D01*
X112644568Y-63205975D01*
X112686187Y-63286956D01*
X112689914Y-63291659D01*
X112690060Y-63291878D01*
X112691017Y-63293340D01*
X112691109Y-63293482D01*
X112693934Y-63298796D01*
X112707941Y-63315970D01*
X112751439Y-63369304D01*
X112752531Y-63370663D01*
X112809035Y-63441953D01*
X112813613Y-63445849D01*
X112813743Y-63445980D01*
X112814983Y-63447246D01*
X112815138Y-63447407D01*
X112818935Y-63452062D01*
X112823682Y-63455989D01*
X112823685Y-63455992D01*
X112889011Y-63510034D01*
X112890359Y-63511165D01*
X112954960Y-63566145D01*
X112954963Y-63566147D01*
X112959650Y-63570136D01*
X112964898Y-63573069D01*
X112965074Y-63573188D01*
X112966548Y-63574198D01*
X112966695Y-63574300D01*
X112971325Y-63578130D01*
X112976745Y-63581060D01*
X112976747Y-63581062D01*
X113051335Y-63621392D01*
X113052876Y-63622239D01*
X113123022Y-63661442D01*
X113132294Y-63666624D01*
X113138009Y-63668481D01*
X113138183Y-63668554D01*
X113139785Y-63669241D01*
X113140022Y-63669345D01*
X113145299Y-63672198D01*
X113151188Y-63674021D01*
X113232234Y-63699109D01*
X113233897Y-63699637D01*
X113320392Y-63727740D01*
X113326354Y-63728451D01*
X113326574Y-63728496D01*
X113328291Y-63728861D01*
X113328493Y-63728905D01*
X113334232Y-63730682D01*
X113340359Y-63731326D01*
X113424676Y-63740188D01*
X113426424Y-63740384D01*
X113482824Y-63747109D01*
X113516777Y-63751158D01*
X113522772Y-63750697D01*
X113522920Y-63750698D01*
X113524668Y-63750722D01*
X113524957Y-63750728D01*
X113530925Y-63751355D01*
X113621512Y-63743111D01*
X113623148Y-63742973D01*
X113713972Y-63735984D01*
X113719760Y-63734368D01*
X113719949Y-63734332D01*
X113721685Y-63734013D01*
X113721900Y-63733975D01*
X113727888Y-63733430D01*
X113733794Y-63731692D01*
X113733798Y-63731691D01*
X113815171Y-63707742D01*
X113816861Y-63707258D01*
X113898521Y-63684458D01*
X113898530Y-63684455D01*
X113904463Y-63682798D01*
X113909819Y-63680093D01*
X113910063Y-63679994D01*
X113911699Y-63679346D01*
X113911845Y-63679290D01*
X113917619Y-63677590D01*
X113931122Y-63670531D01*
X113998251Y-63635437D01*
X113999815Y-63634633D01*
X114075503Y-63596400D01*
X114075505Y-63596399D01*
X114080996Y-63593625D01*
X114085721Y-63589934D01*
X114085921Y-63589803D01*
X114087398Y-63588851D01*
X114087571Y-63588741D01*
X114092890Y-63585960D01*
X114102629Y-63578130D01*
X114163741Y-63528994D01*
X114165120Y-63527900D01*
X114187266Y-63510598D01*
X114236847Y-63471861D01*
X114240771Y-63467315D01*
X114240923Y-63467166D01*
X114242161Y-63465971D01*
X114242352Y-63465789D01*
X114247025Y-63462032D01*
X114305565Y-63392266D01*
X114306563Y-63391093D01*
X114339104Y-63353395D01*
X114398756Y-63314899D01*
X114469752Y-63314765D01*
X114529551Y-63353035D01*
X114559166Y-63417560D01*
X114560483Y-63435728D01*
X114560483Y-70994666D01*
X114560481Y-70995436D01*
X114560007Y-71073010D01*
X114562474Y-71081641D01*
X114568133Y-71101442D01*
X114571711Y-71118204D01*
X114575903Y-71147476D01*
X114579617Y-71155644D01*
X114579617Y-71155645D01*
X114586531Y-71170851D01*
X114592979Y-71188375D01*
X114600034Y-71213060D01*
X114604826Y-71220654D01*
X114604827Y-71220657D01*
X114615813Y-71238069D01*
X114623952Y-71253152D01*
X114636191Y-71280071D01*
X114642052Y-71286873D01*
X114652953Y-71299524D01*
X114664056Y-71314528D01*
X114677759Y-71336247D01*
X114684484Y-71342186D01*
X114684487Y-71342190D01*
X114699921Y-71355821D01*
X114711965Y-71368013D01*
X114725410Y-71383616D01*
X114725413Y-71383618D01*
X114731270Y-71390416D01*
X114738799Y-71395296D01*
X114738800Y-71395297D01*
X114752818Y-71404383D01*
X114767692Y-71415674D01*
X114780200Y-71426720D01*
X114786934Y-71432667D01*
X114813694Y-71445231D01*
X114828674Y-71453552D01*
X114845966Y-71464760D01*
X114845971Y-71464762D01*
X114853498Y-71469641D01*
X114862091Y-71472211D01*
X114862096Y-71472213D01*
X114878103Y-71477000D01*
X114895547Y-71483661D01*
X114910659Y-71490756D01*
X114910661Y-71490757D01*
X114918783Y-71494570D01*
X114927650Y-71495951D01*
X114927651Y-71495951D01*
X114930336Y-71496369D01*
X114948000Y-71499119D01*
X114964715Y-71502902D01*
X114984449Y-71508804D01*
X114984455Y-71508805D01*
X114993049Y-71511375D01*
X115002020Y-71511430D01*
X115002021Y-71511430D01*
X115012080Y-71511491D01*
X115027489Y-71511585D01*
X115028272Y-71511618D01*
X115029369Y-71511789D01*
X115060360Y-71511789D01*
X115061130Y-71511791D01*
X115134768Y-71512241D01*
X115134769Y-71512241D01*
X115138704Y-71512265D01*
X115140048Y-71511881D01*
X115141393Y-71511789D01*
X137034000Y-71511789D01*
X137102121Y-71531791D01*
X137148614Y-71585447D01*
X137160000Y-71637789D01*
X137160000Y-93720531D01*
X137139998Y-93788652D01*
X137086342Y-93835145D01*
X137034000Y-93846531D01*
X130142303Y-93846531D01*
X130074182Y-93826529D01*
X130027689Y-93772873D01*
X130017585Y-93702599D01*
X130019720Y-93691387D01*
X130022105Y-93681356D01*
X130027631Y-93630486D01*
X130028000Y-93623672D01*
X130028000Y-92601115D01*
X130023525Y-92585876D01*
X130022135Y-92584671D01*
X130014452Y-92583000D01*
X126530116Y-92583000D01*
X126514877Y-92587475D01*
X126513672Y-92588865D01*
X126512001Y-92596548D01*
X126512001Y-93623669D01*
X126512371Y-93630490D01*
X126517894Y-93681347D01*
X126520281Y-93691385D01*
X126516579Y-93762285D01*
X126475133Y-93819928D01*
X126409102Y-93846014D01*
X126397698Y-93846531D01*
X126332822Y-93846531D01*
X126264701Y-93826529D01*
X126218208Y-93772873D01*
X126208104Y-93702599D01*
X126209486Y-93695342D01*
X126211745Y-93689316D01*
X126218500Y-93627134D01*
X126218500Y-92056885D01*
X126512000Y-92056885D01*
X126516475Y-92072124D01*
X126517865Y-92073329D01*
X126525548Y-92075000D01*
X127997885Y-92075000D01*
X128013124Y-92070525D01*
X128014329Y-92069135D01*
X128016000Y-92061452D01*
X128016000Y-92056885D01*
X128524000Y-92056885D01*
X128528475Y-92072124D01*
X128529865Y-92073329D01*
X128537548Y-92075000D01*
X130009884Y-92075000D01*
X130025123Y-92070525D01*
X130026328Y-92069135D01*
X130027999Y-92061452D01*
X130027999Y-91034331D01*
X130027629Y-91027510D01*
X130022105Y-90976648D01*
X130018479Y-90961396D01*
X129973324Y-90840946D01*
X129964786Y-90825351D01*
X129888285Y-90723276D01*
X129875728Y-90710719D01*
X129797148Y-90651827D01*
X129754633Y-90594967D01*
X129749607Y-90524149D01*
X129783667Y-90461855D01*
X129797148Y-90450173D01*
X129875728Y-90391281D01*
X129888285Y-90378724D01*
X129964786Y-90276649D01*
X129973324Y-90261054D01*
X130018478Y-90140606D01*
X130022105Y-90125351D01*
X130027631Y-90074486D01*
X130028000Y-90067672D01*
X130028000Y-89045115D01*
X130023525Y-89029876D01*
X130022135Y-89028671D01*
X130014452Y-89027000D01*
X128542115Y-89027000D01*
X128526876Y-89031475D01*
X128525671Y-89032865D01*
X128524000Y-89040548D01*
X128524000Y-90515466D01*
X128526119Y-90574802D01*
X128524000Y-90584544D01*
X128524000Y-92056885D01*
X128016000Y-92056885D01*
X128016000Y-90586534D01*
X128013881Y-90527198D01*
X128016000Y-90517456D01*
X128016000Y-89045115D01*
X128011525Y-89029876D01*
X128010135Y-89028671D01*
X128002452Y-89027000D01*
X126530116Y-89027000D01*
X126514877Y-89031475D01*
X126513672Y-89032865D01*
X126512001Y-89040548D01*
X126512001Y-90067669D01*
X126512371Y-90074490D01*
X126517895Y-90125352D01*
X126521521Y-90140604D01*
X126566676Y-90261054D01*
X126575214Y-90276649D01*
X126651715Y-90378724D01*
X126664272Y-90391281D01*
X126742852Y-90450173D01*
X126785367Y-90507033D01*
X126790393Y-90577851D01*
X126756333Y-90640145D01*
X126742852Y-90651827D01*
X126664272Y-90710719D01*
X126651715Y-90723276D01*
X126575214Y-90825351D01*
X126566676Y-90840946D01*
X126521522Y-90961394D01*
X126517895Y-90976649D01*
X126512369Y-91027514D01*
X126512000Y-91034328D01*
X126512000Y-92056885D01*
X126218500Y-92056885D01*
X126218500Y-91030866D01*
X126211745Y-90968684D01*
X126160615Y-90832295D01*
X126073261Y-90715739D01*
X125987982Y-90651826D01*
X125945467Y-90594967D01*
X125940441Y-90524148D01*
X125974501Y-90461855D01*
X125987982Y-90450174D01*
X125987984Y-90450173D01*
X126073261Y-90386261D01*
X126160615Y-90269705D01*
X126211745Y-90133316D01*
X126218500Y-90071134D01*
X126218500Y-88500885D01*
X126512000Y-88500885D01*
X126516475Y-88516124D01*
X126517865Y-88517329D01*
X126525548Y-88519000D01*
X127997885Y-88519000D01*
X128013124Y-88514525D01*
X128014329Y-88513135D01*
X128016000Y-88505452D01*
X128016000Y-88500885D01*
X128524000Y-88500885D01*
X128528475Y-88516124D01*
X128529865Y-88517329D01*
X128537548Y-88519000D01*
X130009884Y-88519000D01*
X130025123Y-88514525D01*
X130026328Y-88513135D01*
X130027999Y-88505452D01*
X130027999Y-87478331D01*
X130027629Y-87471510D01*
X130022105Y-87420648D01*
X130018479Y-87405396D01*
X129973324Y-87284946D01*
X129964786Y-87269351D01*
X129888285Y-87167276D01*
X129875724Y-87154715D01*
X129773649Y-87078214D01*
X129758054Y-87069676D01*
X129637606Y-87024522D01*
X129622351Y-87020895D01*
X129571486Y-87015369D01*
X129564672Y-87015000D01*
X128542115Y-87015000D01*
X128526876Y-87019475D01*
X128525671Y-87020865D01*
X128524000Y-87028548D01*
X128524000Y-88500885D01*
X128016000Y-88500885D01*
X128016000Y-87033116D01*
X128011525Y-87017877D01*
X128010135Y-87016672D01*
X128002452Y-87015001D01*
X126975331Y-87015001D01*
X126968510Y-87015371D01*
X126917648Y-87020895D01*
X126902396Y-87024521D01*
X126781946Y-87069676D01*
X126766351Y-87078214D01*
X126664276Y-87154715D01*
X126651715Y-87167276D01*
X126575214Y-87269351D01*
X126566676Y-87284946D01*
X126521522Y-87405394D01*
X126517895Y-87420649D01*
X126512369Y-87471514D01*
X126512000Y-87478328D01*
X126512000Y-88500885D01*
X126218500Y-88500885D01*
X126218500Y-87474866D01*
X126211745Y-87412684D01*
X126160615Y-87276295D01*
X126073261Y-87159739D01*
X125956705Y-87072385D01*
X125820316Y-87021255D01*
X125758134Y-87014500D01*
X123161866Y-87014500D01*
X123099684Y-87021255D01*
X122963295Y-87072385D01*
X122846739Y-87159739D01*
X122759385Y-87276295D01*
X122708255Y-87412684D01*
X122701500Y-87474866D01*
X122701500Y-90071134D01*
X122708255Y-90133316D01*
X122759385Y-90269705D01*
X122846739Y-90386261D01*
X122932017Y-90450173D01*
X122932018Y-90450174D01*
X122974533Y-90507033D01*
X122979559Y-90577852D01*
X122945499Y-90640145D01*
X122932019Y-90651825D01*
X122846739Y-90715739D01*
X122759385Y-90832295D01*
X122708255Y-90968684D01*
X122701500Y-91030866D01*
X122701500Y-93627134D01*
X122708255Y-93689316D01*
X122709672Y-93693095D01*
X122706058Y-93762287D01*
X122664611Y-93819930D01*
X122598580Y-93846014D01*
X122587178Y-93846531D01*
X120104014Y-93846531D01*
X120103244Y-93846529D01*
X120102428Y-93846524D01*
X120025670Y-93846055D01*
X120003309Y-93852446D01*
X119997238Y-93854181D01*
X119980476Y-93857759D01*
X119951204Y-93861951D01*
X119943036Y-93865665D01*
X119943035Y-93865665D01*
X119927829Y-93872579D01*
X119910305Y-93879027D01*
X119885620Y-93886082D01*
X119878026Y-93890874D01*
X119878023Y-93890875D01*
X119860611Y-93901861D01*
X119845528Y-93910000D01*
X119818609Y-93922239D01*
X119811807Y-93928100D01*
X119799156Y-93939001D01*
X119784152Y-93950104D01*
X119762433Y-93963807D01*
X119756494Y-93970532D01*
X119756490Y-93970535D01*
X119742859Y-93985969D01*
X119730667Y-93998013D01*
X119715064Y-94011458D01*
X119715062Y-94011461D01*
X119708264Y-94017318D01*
X119703384Y-94024847D01*
X119703383Y-94024848D01*
X119694297Y-94038866D01*
X119683006Y-94053740D01*
X119671960Y-94066248D01*
X119666013Y-94072982D01*
X119653449Y-94099742D01*
X119645128Y-94114722D01*
X119633920Y-94132014D01*
X119633918Y-94132019D01*
X119629039Y-94139546D01*
X119626469Y-94148139D01*
X119626467Y-94148144D01*
X119621680Y-94164151D01*
X119615019Y-94181595D01*
X119604110Y-94204831D01*
X119602729Y-94213698D01*
X119602729Y-94213699D01*
X119599561Y-94234046D01*
X119595778Y-94250763D01*
X119589876Y-94270497D01*
X119589875Y-94270503D01*
X119587305Y-94279097D01*
X119587250Y-94288068D01*
X119587250Y-94288069D01*
X119587095Y-94313528D01*
X119587062Y-94314320D01*
X119586891Y-94315417D01*
X119586891Y-94346408D01*
X119586889Y-94347178D01*
X119586415Y-94424752D01*
X119586799Y-94426096D01*
X119586891Y-94427441D01*
X119586891Y-101966408D01*
X119586889Y-101967178D01*
X119586415Y-102044752D01*
X119588882Y-102053383D01*
X119594541Y-102073184D01*
X119598119Y-102089946D01*
X119602311Y-102119218D01*
X119606025Y-102127386D01*
X119606025Y-102127387D01*
X119612939Y-102142593D01*
X119619387Y-102160117D01*
X119626442Y-102184802D01*
X119631234Y-102192396D01*
X119631235Y-102192399D01*
X119642221Y-102209811D01*
X119650360Y-102224894D01*
X119662599Y-102251813D01*
X119668460Y-102258615D01*
X119679361Y-102271266D01*
X119690464Y-102286270D01*
X119704167Y-102307989D01*
X119710892Y-102313928D01*
X119710895Y-102313932D01*
X119726329Y-102327563D01*
X119738373Y-102339755D01*
X119751818Y-102355358D01*
X119751821Y-102355360D01*
X119757678Y-102362158D01*
X119765207Y-102367038D01*
X119765208Y-102367039D01*
X119779226Y-102376125D01*
X119794100Y-102387416D01*
X119806608Y-102398462D01*
X119813342Y-102404409D01*
X119840102Y-102416973D01*
X119855082Y-102425294D01*
X119872374Y-102436502D01*
X119872379Y-102436504D01*
X119879906Y-102441383D01*
X119888499Y-102443953D01*
X119888504Y-102443955D01*
X119904511Y-102448742D01*
X119921955Y-102455403D01*
X119937067Y-102462498D01*
X119937069Y-102462499D01*
X119945191Y-102466312D01*
X119954058Y-102467693D01*
X119954059Y-102467693D01*
X119956744Y-102468111D01*
X119974408Y-102470861D01*
X119991123Y-102474644D01*
X120010857Y-102480546D01*
X120010863Y-102480547D01*
X120019457Y-102483117D01*
X120028428Y-102483172D01*
X120028429Y-102483172D01*
X120038488Y-102483233D01*
X120053897Y-102483327D01*
X120054680Y-102483360D01*
X120055777Y-102483531D01*
X120086768Y-102483531D01*
X120087538Y-102483533D01*
X120161176Y-102483983D01*
X120161177Y-102483983D01*
X120165112Y-102484007D01*
X120166456Y-102483623D01*
X120167801Y-102483531D01*
X133361880Y-102483531D01*
X133430001Y-102503533D01*
X133476494Y-102557189D01*
X133486598Y-102627463D01*
X133457104Y-102692043D01*
X133397378Y-102730427D01*
X133388722Y-102732639D01*
X133246846Y-102763573D01*
X133243419Y-102764746D01*
X133243413Y-102764748D01*
X132922028Y-102874783D01*
X132918602Y-102875956D01*
X132605451Y-103025322D01*
X132311542Y-103209691D01*
X132308706Y-103211963D01*
X132308699Y-103211968D01*
X132099355Y-103379684D01*
X132040772Y-103426618D01*
X131796729Y-103673230D01*
X131794488Y-103676088D01*
X131669326Y-103835714D01*
X131582649Y-103946257D01*
X131580756Y-103949346D01*
X131580754Y-103949349D01*
X131534496Y-104024835D01*
X131401368Y-104242080D01*
X131399843Y-104245365D01*
X131399841Y-104245369D01*
X131360768Y-104329545D01*
X131255290Y-104556779D01*
X131146350Y-104886182D01*
X131145614Y-104889737D01*
X131145613Y-104889740D01*
X131089208Y-105162108D01*
X131075993Y-105225923D01*
X131075671Y-105229534D01*
X131045502Y-105567571D01*
X131045151Y-105571500D01*
X131045246Y-105575130D01*
X131045246Y-105575131D01*
X131054114Y-105913772D01*
X131054233Y-105918330D01*
X131103119Y-106261819D01*
X131191160Y-106597412D01*
X131317190Y-106920662D01*
X131318887Y-106923867D01*
X131452376Y-107175984D01*
X131479538Y-107227285D01*
X131481588Y-107230268D01*
X131481590Y-107230271D01*
X131673996Y-107510223D01*
X131674002Y-107510230D01*
X131676053Y-107513215D01*
X131684003Y-107522328D01*
X131857988Y-107721771D01*
X131904129Y-107774664D01*
X131963018Y-107828249D01*
X132116531Y-107967934D01*
X132160744Y-108008165D01*
X132442496Y-108210625D01*
X132745651Y-108379359D01*
X133066191Y-108512131D01*
X133069685Y-108513126D01*
X133069687Y-108513127D01*
X133396366Y-108606184D01*
X133396371Y-108606185D01*
X133399867Y-108607181D01*
X133596567Y-108639392D01*
X133738675Y-108662663D01*
X133738682Y-108662664D01*
X133742256Y-108663249D01*
X133915539Y-108671421D01*
X134085194Y-108679422D01*
X134085195Y-108679422D01*
X134088821Y-108679593D01*
X134097678Y-108678989D01*
X134431336Y-108656243D01*
X134431344Y-108656242D01*
X134434967Y-108655995D01*
X134438542Y-108655332D01*
X134438545Y-108655332D01*
X134772542Y-108593429D01*
X134772546Y-108593428D01*
X134776107Y-108592768D01*
X135107719Y-108490751D01*
X135425408Y-108351295D01*
X135519811Y-108296131D01*
X135721823Y-108178085D01*
X135721825Y-108178084D01*
X135724963Y-108176250D01*
X135869653Y-108067614D01*
X135999507Y-107970117D01*
X135999511Y-107970114D01*
X136002414Y-107967934D01*
X136254082Y-107729109D01*
X136476633Y-107462942D01*
X136483894Y-107451889D01*
X136627218Y-107233697D01*
X136667116Y-107172958D01*
X136795709Y-106917280D01*
X136821380Y-106866239D01*
X136821383Y-106866231D01*
X136823007Y-106863003D01*
X136848419Y-106793561D01*
X136915674Y-106609780D01*
X136957868Y-106552682D01*
X137024234Y-106527460D01*
X137093700Y-106542122D01*
X137144212Y-106592013D01*
X137160000Y-106653081D01*
X137160000Y-109094000D01*
X137139998Y-109162121D01*
X137086342Y-109208614D01*
X137034000Y-109220000D01*
X114292120Y-109220000D01*
X114223999Y-109199998D01*
X114177506Y-109146342D01*
X114167402Y-109076068D01*
X114196896Y-109011488D01*
X114203025Y-109004905D01*
X114915235Y-108292695D01*
X114977547Y-108258669D01*
X115032128Y-108259968D01*
X115032242Y-108259320D01*
X115036505Y-108260072D01*
X115036936Y-108260082D01*
X115037653Y-108260274D01*
X115037658Y-108260275D01*
X115042973Y-108261699D01*
X115263041Y-108280952D01*
X115483109Y-108261699D01*
X115667113Y-108212395D01*
X115691181Y-108205946D01*
X115691183Y-108205945D01*
X115696491Y-108204523D01*
X115761807Y-108174066D01*
X115891716Y-108113489D01*
X115891721Y-108113486D01*
X115896703Y-108111163D01*
X115901833Y-108107571D01*
X116073150Y-107987614D01*
X116073153Y-107987612D01*
X116077661Y-107984455D01*
X116233867Y-107828249D01*
X116360575Y-107647290D01*
X116418846Y-107522328D01*
X116465763Y-107469043D01*
X116534041Y-107449582D01*
X116602001Y-107470124D01*
X116647236Y-107522328D01*
X116705507Y-107647290D01*
X116832215Y-107828249D01*
X116988421Y-107984455D01*
X116992929Y-107987612D01*
X116992932Y-107987614D01*
X117164249Y-108107571D01*
X117169379Y-108111163D01*
X117174361Y-108113486D01*
X117174366Y-108113489D01*
X117304275Y-108174066D01*
X117369591Y-108204523D01*
X117374899Y-108205945D01*
X117374901Y-108205946D01*
X117398969Y-108212395D01*
X117582973Y-108261699D01*
X117803041Y-108280952D01*
X118023109Y-108261699D01*
X118207113Y-108212395D01*
X118231181Y-108205946D01*
X118231183Y-108205945D01*
X118236491Y-108204523D01*
X118301807Y-108174066D01*
X118431716Y-108113489D01*
X118431721Y-108113486D01*
X118436703Y-108111163D01*
X118441833Y-108107571D01*
X118613150Y-107987614D01*
X118613153Y-107987612D01*
X118617661Y-107984455D01*
X118773867Y-107828249D01*
X118900575Y-107647290D01*
X118958846Y-107522328D01*
X119005763Y-107469043D01*
X119074041Y-107449582D01*
X119142001Y-107470124D01*
X119187236Y-107522328D01*
X119245507Y-107647290D01*
X119372215Y-107828249D01*
X119528421Y-107984455D01*
X119532929Y-107987612D01*
X119532932Y-107987614D01*
X119704249Y-108107571D01*
X119709379Y-108111163D01*
X119714361Y-108113486D01*
X119714366Y-108113489D01*
X119844275Y-108174066D01*
X119909591Y-108204523D01*
X119914899Y-108205945D01*
X119914901Y-108205946D01*
X119938969Y-108212395D01*
X120122973Y-108261699D01*
X120343041Y-108280952D01*
X120563109Y-108261699D01*
X120747113Y-108212395D01*
X120771181Y-108205946D01*
X120771183Y-108205945D01*
X120776491Y-108204523D01*
X120841807Y-108174066D01*
X120971716Y-108113489D01*
X120971721Y-108113486D01*
X120976703Y-108111163D01*
X120981833Y-108107571D01*
X121153150Y-107987614D01*
X121153153Y-107987612D01*
X121157661Y-107984455D01*
X121313867Y-107828249D01*
X121440575Y-107647290D01*
X121498846Y-107522328D01*
X121545763Y-107469043D01*
X121614041Y-107449582D01*
X121682001Y-107470124D01*
X121727236Y-107522328D01*
X121785507Y-107647290D01*
X121912215Y-107828249D01*
X122068421Y-107984455D01*
X122072929Y-107987612D01*
X122072932Y-107987614D01*
X122244249Y-108107571D01*
X122249379Y-108111163D01*
X122254361Y-108113486D01*
X122254366Y-108113489D01*
X122384275Y-108174066D01*
X122449591Y-108204523D01*
X122454899Y-108205945D01*
X122454901Y-108205946D01*
X122478969Y-108212395D01*
X122662973Y-108261699D01*
X122883041Y-108280952D01*
X123103109Y-108261699D01*
X123287113Y-108212395D01*
X123311181Y-108205946D01*
X123311183Y-108205945D01*
X123316491Y-108204523D01*
X123381807Y-108174066D01*
X123511716Y-108113489D01*
X123511721Y-108113486D01*
X123516703Y-108111163D01*
X123521833Y-108107571D01*
X123580256Y-108066663D01*
X124734562Y-108066663D01*
X124743858Y-108078678D01*
X124785122Y-108107571D01*
X124794617Y-108113054D01*
X124984781Y-108201728D01*
X124995073Y-108205474D01*
X125197745Y-108259780D01*
X125208540Y-108261683D01*
X125417566Y-108279971D01*
X125428516Y-108279971D01*
X125637542Y-108261683D01*
X125648337Y-108259780D01*
X125851009Y-108205474D01*
X125861301Y-108201728D01*
X126051465Y-108113054D01*
X126060960Y-108107571D01*
X126103062Y-108078091D01*
X126111437Y-108067614D01*
X126104369Y-108054167D01*
X125435853Y-107385651D01*
X125421909Y-107378037D01*
X125420076Y-107378168D01*
X125413461Y-107382419D01*
X124740992Y-108054888D01*
X124734562Y-108066663D01*
X123580256Y-108066663D01*
X123693150Y-107987614D01*
X123693153Y-107987612D01*
X123697661Y-107984455D01*
X123853867Y-107828249D01*
X123980575Y-107647290D01*
X124039122Y-107521736D01*
X124086039Y-107468451D01*
X124154317Y-107448990D01*
X124222277Y-107469532D01*
X124267512Y-107521736D01*
X124323617Y-107642054D01*
X124329096Y-107651544D01*
X124358580Y-107693651D01*
X124369056Y-107702025D01*
X124382504Y-107694956D01*
X125051019Y-107026441D01*
X125057397Y-107014761D01*
X125787449Y-107014761D01*
X125787580Y-107016594D01*
X125791831Y-107023209D01*
X126464300Y-107695678D01*
X126476074Y-107702108D01*
X126488090Y-107692812D01*
X126516986Y-107651544D01*
X126522464Y-107642054D01*
X126611140Y-107451889D01*
X126614886Y-107441597D01*
X126669192Y-107238925D01*
X126671095Y-107228130D01*
X126689383Y-107019104D01*
X126689383Y-107008154D01*
X126671095Y-106799128D01*
X126669192Y-106788333D01*
X126614886Y-106585661D01*
X126611140Y-106575369D01*
X126522464Y-106385204D01*
X126516986Y-106375714D01*
X126487502Y-106333607D01*
X126477026Y-106325233D01*
X126463578Y-106332302D01*
X125795063Y-107000817D01*
X125787449Y-107014761D01*
X125057397Y-107014761D01*
X125058633Y-107012497D01*
X125058502Y-107010664D01*
X125054251Y-107004049D01*
X124381782Y-106331580D01*
X124370008Y-106325150D01*
X124357992Y-106334446D01*
X124329096Y-106375714D01*
X124323617Y-106385204D01*
X124267512Y-106505522D01*
X124220595Y-106558807D01*
X124152317Y-106578268D01*
X124084357Y-106557726D01*
X124039122Y-106505522D01*
X123982898Y-106384949D01*
X123982896Y-106384946D01*
X123980575Y-106379968D01*
X123853867Y-106199009D01*
X123697661Y-106042803D01*
X123693153Y-106039646D01*
X123693150Y-106039644D01*
X123521212Y-105919252D01*
X123521209Y-105919250D01*
X123516703Y-105916095D01*
X123511721Y-105913772D01*
X123511716Y-105913769D01*
X123391740Y-105857824D01*
X123338455Y-105810907D01*
X123318994Y-105742630D01*
X123339536Y-105674670D01*
X123391740Y-105629434D01*
X123511716Y-105573489D01*
X123511721Y-105573486D01*
X123516703Y-105571163D01*
X123557471Y-105542617D01*
X123693150Y-105447614D01*
X123693153Y-105447612D01*
X123697661Y-105444455D01*
X123853867Y-105288249D01*
X123980575Y-105107290D01*
X124038846Y-104982328D01*
X124085763Y-104929043D01*
X124154041Y-104909582D01*
X124222001Y-104930124D01*
X124267236Y-104982328D01*
X124325507Y-105107290D01*
X124452215Y-105288249D01*
X124608421Y-105444455D01*
X124612929Y-105447612D01*
X124612932Y-105447614D01*
X124748611Y-105542617D01*
X124789379Y-105571163D01*
X124794361Y-105573486D01*
X124794366Y-105573489D01*
X124914934Y-105629710D01*
X124968219Y-105676627D01*
X124987680Y-105744904D01*
X124967138Y-105812864D01*
X124914934Y-105858100D01*
X124794616Y-105914205D01*
X124785126Y-105919684D01*
X124743019Y-105949168D01*
X124734645Y-105959644D01*
X124741714Y-105973092D01*
X125410229Y-106641607D01*
X125424173Y-106649221D01*
X125426006Y-106649090D01*
X125432621Y-106644839D01*
X126105090Y-105972370D01*
X126111520Y-105960595D01*
X126102224Y-105948580D01*
X126060960Y-105919687D01*
X126051465Y-105914204D01*
X125931148Y-105858100D01*
X125877863Y-105811183D01*
X125872890Y-105793734D01*
X127171900Y-105793734D01*
X127178655Y-105855916D01*
X127229785Y-105992305D01*
X127317139Y-106108861D01*
X127433695Y-106196215D01*
X127570084Y-106247345D01*
X127632266Y-106254100D01*
X130228534Y-106254100D01*
X130290716Y-106247345D01*
X130427105Y-106196215D01*
X130543661Y-106108861D01*
X130631015Y-105992305D01*
X130682145Y-105855916D01*
X130688900Y-105793734D01*
X130688900Y-103197466D01*
X130682145Y-103135284D01*
X130631015Y-102998895D01*
X130543661Y-102882339D01*
X130427105Y-102794985D01*
X130290716Y-102743855D01*
X130228534Y-102737100D01*
X127632266Y-102737100D01*
X127570084Y-102743855D01*
X127433695Y-102794985D01*
X127317139Y-102882339D01*
X127229785Y-102998895D01*
X127178655Y-103135284D01*
X127171900Y-103197466D01*
X127171900Y-105793734D01*
X125872890Y-105793734D01*
X125858402Y-105742906D01*
X125878944Y-105674946D01*
X125931148Y-105629710D01*
X126051716Y-105573489D01*
X126051721Y-105573486D01*
X126056703Y-105571163D01*
X126097471Y-105542617D01*
X126233150Y-105447614D01*
X126233153Y-105447612D01*
X126237661Y-105444455D01*
X126393867Y-105288249D01*
X126520575Y-105107290D01*
X126579198Y-104981574D01*
X126611612Y-104912061D01*
X126611613Y-104912060D01*
X126613935Y-104907079D01*
X126619535Y-104886182D01*
X126669687Y-104699010D01*
X126671111Y-104693697D01*
X126690364Y-104473629D01*
X126671111Y-104253561D01*
X126613935Y-104040179D01*
X126571580Y-103949349D01*
X126522898Y-103844949D01*
X126522896Y-103844946D01*
X126520575Y-103839968D01*
X126393867Y-103659009D01*
X126237661Y-103502803D01*
X126233153Y-103499646D01*
X126233150Y-103499644D01*
X126061212Y-103379252D01*
X126061209Y-103379250D01*
X126056703Y-103376095D01*
X126051721Y-103373772D01*
X126051716Y-103373769D01*
X125861473Y-103285058D01*
X125861472Y-103285058D01*
X125856491Y-103282735D01*
X125851183Y-103281313D01*
X125851181Y-103281312D01*
X125740354Y-103251616D01*
X125643109Y-103225559D01*
X125423041Y-103206306D01*
X125202973Y-103225559D01*
X125105728Y-103251616D01*
X124994901Y-103281312D01*
X124994899Y-103281313D01*
X124989591Y-103282735D01*
X124984610Y-103285057D01*
X124984609Y-103285058D01*
X124794361Y-103373772D01*
X124794358Y-103373774D01*
X124789380Y-103376095D01*
X124608421Y-103502803D01*
X124452215Y-103659009D01*
X124325507Y-103839968D01*
X124323186Y-103844946D01*
X124323184Y-103844949D01*
X124267236Y-103964930D01*
X124220319Y-104018215D01*
X124152041Y-104037676D01*
X124084081Y-104017134D01*
X124038846Y-103964930D01*
X123982898Y-103844949D01*
X123982896Y-103844946D01*
X123980575Y-103839968D01*
X123853867Y-103659009D01*
X123697661Y-103502803D01*
X123693153Y-103499646D01*
X123693150Y-103499644D01*
X123521212Y-103379252D01*
X123521209Y-103379250D01*
X123516703Y-103376095D01*
X123511721Y-103373772D01*
X123511716Y-103373769D01*
X123321473Y-103285058D01*
X123321472Y-103285058D01*
X123316491Y-103282735D01*
X123311183Y-103281313D01*
X123311181Y-103281312D01*
X123200354Y-103251616D01*
X123103109Y-103225559D01*
X122883041Y-103206306D01*
X122662973Y-103225559D01*
X122565728Y-103251616D01*
X122454901Y-103281312D01*
X122454899Y-103281313D01*
X122449591Y-103282735D01*
X122444610Y-103285057D01*
X122444609Y-103285058D01*
X122254361Y-103373772D01*
X122254358Y-103373774D01*
X122249380Y-103376095D01*
X122068421Y-103502803D01*
X121912215Y-103659009D01*
X121785507Y-103839968D01*
X121783186Y-103844946D01*
X121783184Y-103844949D01*
X121727236Y-103964930D01*
X121680319Y-104018215D01*
X121612041Y-104037676D01*
X121544081Y-104017134D01*
X121498846Y-103964930D01*
X121442898Y-103844949D01*
X121442896Y-103844946D01*
X121440575Y-103839968D01*
X121313867Y-103659009D01*
X121157661Y-103502803D01*
X121153153Y-103499646D01*
X121153150Y-103499644D01*
X120981212Y-103379252D01*
X120981209Y-103379250D01*
X120976703Y-103376095D01*
X120971721Y-103373772D01*
X120971716Y-103373769D01*
X120781473Y-103285058D01*
X120781472Y-103285058D01*
X120776491Y-103282735D01*
X120771183Y-103281313D01*
X120771181Y-103281312D01*
X120660354Y-103251616D01*
X120563109Y-103225559D01*
X120343041Y-103206306D01*
X120122973Y-103225559D01*
X120025728Y-103251616D01*
X119914901Y-103281312D01*
X119914899Y-103281313D01*
X119909591Y-103282735D01*
X119904610Y-103285057D01*
X119904609Y-103285058D01*
X119714361Y-103373772D01*
X119714358Y-103373774D01*
X119709380Y-103376095D01*
X119528421Y-103502803D01*
X119372215Y-103659009D01*
X119245507Y-103839968D01*
X119243186Y-103844946D01*
X119243184Y-103844949D01*
X119186960Y-103965522D01*
X119140043Y-104018807D01*
X119071765Y-104038268D01*
X119003805Y-104017726D01*
X118958570Y-103965522D01*
X118902465Y-103845204D01*
X118896986Y-103835714D01*
X118867502Y-103793607D01*
X118857026Y-103785233D01*
X118843578Y-103792302D01*
X118175063Y-104460817D01*
X118167449Y-104474761D01*
X118167580Y-104476594D01*
X118171831Y-104483209D01*
X118844300Y-105155678D01*
X118856074Y-105162108D01*
X118868090Y-105152812D01*
X118896986Y-105111544D01*
X118902465Y-105102054D01*
X118958570Y-104981736D01*
X119005487Y-104928451D01*
X119073765Y-104908990D01*
X119141725Y-104929532D01*
X119186960Y-104981736D01*
X119245507Y-105107290D01*
X119372215Y-105288249D01*
X119528421Y-105444455D01*
X119532929Y-105447612D01*
X119532932Y-105447614D01*
X119668611Y-105542617D01*
X119709379Y-105571163D01*
X119714361Y-105573486D01*
X119714366Y-105573489D01*
X119834342Y-105629434D01*
X119887627Y-105676351D01*
X119907088Y-105744628D01*
X119886546Y-105812588D01*
X119834342Y-105857824D01*
X119714361Y-105913772D01*
X119714358Y-105913774D01*
X119709380Y-105916095D01*
X119528421Y-106042803D01*
X119372215Y-106199009D01*
X119245507Y-106379968D01*
X119243186Y-106384946D01*
X119243184Y-106384949D01*
X119187236Y-106504930D01*
X119140319Y-106558215D01*
X119072041Y-106577676D01*
X119004081Y-106557134D01*
X118958846Y-106504930D01*
X118902898Y-106384949D01*
X118902896Y-106384946D01*
X118900575Y-106379968D01*
X118773867Y-106199009D01*
X118617661Y-106042803D01*
X118613153Y-106039646D01*
X118613150Y-106039644D01*
X118441212Y-105919252D01*
X118441209Y-105919250D01*
X118436703Y-105916095D01*
X118431721Y-105913772D01*
X118431716Y-105913769D01*
X118311148Y-105857548D01*
X118257863Y-105810631D01*
X118238402Y-105742354D01*
X118258944Y-105674394D01*
X118311148Y-105629158D01*
X118431465Y-105573054D01*
X118440960Y-105567571D01*
X118483062Y-105538091D01*
X118491437Y-105527614D01*
X118484369Y-105514167D01*
X117815853Y-104845651D01*
X117801909Y-104838037D01*
X117800076Y-104838168D01*
X117793461Y-104842419D01*
X117120992Y-105514888D01*
X117114562Y-105526663D01*
X117123858Y-105538678D01*
X117165122Y-105567571D01*
X117174617Y-105573054D01*
X117294934Y-105629158D01*
X117348219Y-105676075D01*
X117367680Y-105744352D01*
X117347138Y-105812312D01*
X117294934Y-105857548D01*
X117174361Y-105913772D01*
X117174358Y-105913774D01*
X117169380Y-105916095D01*
X116988421Y-106042803D01*
X116832215Y-106199009D01*
X116705507Y-106379968D01*
X116703186Y-106384946D01*
X116703184Y-106384949D01*
X116647236Y-106504930D01*
X116600319Y-106558215D01*
X116532041Y-106577676D01*
X116464081Y-106557134D01*
X116418846Y-106504930D01*
X116362898Y-106384949D01*
X116362896Y-106384946D01*
X116360575Y-106379968D01*
X116233867Y-106199009D01*
X116077661Y-106042803D01*
X116073153Y-106039646D01*
X116073150Y-106039644D01*
X115901212Y-105919252D01*
X115901209Y-105919250D01*
X115896703Y-105916095D01*
X115891721Y-105913772D01*
X115891716Y-105913769D01*
X115771740Y-105857824D01*
X115718455Y-105810907D01*
X115698994Y-105742630D01*
X115719536Y-105674670D01*
X115771740Y-105629434D01*
X115891716Y-105573489D01*
X115891721Y-105573486D01*
X115896703Y-105571163D01*
X115937471Y-105542617D01*
X116073150Y-105447614D01*
X116073153Y-105447612D01*
X116077661Y-105444455D01*
X116233867Y-105288249D01*
X116360575Y-105107290D01*
X116419122Y-104981736D01*
X116466039Y-104928451D01*
X116534317Y-104908990D01*
X116602277Y-104929532D01*
X116647512Y-104981736D01*
X116703617Y-105102054D01*
X116709096Y-105111544D01*
X116738580Y-105153651D01*
X116749056Y-105162025D01*
X116762504Y-105154956D01*
X117431019Y-104486441D01*
X117438633Y-104472497D01*
X117438502Y-104470664D01*
X117434251Y-104464049D01*
X116761782Y-103791580D01*
X116750008Y-103785150D01*
X116737992Y-103794446D01*
X116709096Y-103835714D01*
X116703617Y-103845204D01*
X116647512Y-103965522D01*
X116600595Y-104018807D01*
X116532317Y-104038268D01*
X116464357Y-104017726D01*
X116419122Y-103965522D01*
X116362898Y-103844949D01*
X116362896Y-103844946D01*
X116360575Y-103839968D01*
X116233867Y-103659009D01*
X116077661Y-103502803D01*
X116073153Y-103499646D01*
X116073150Y-103499644D01*
X115958898Y-103419644D01*
X117114645Y-103419644D01*
X117121714Y-103433092D01*
X117790229Y-104101607D01*
X117804173Y-104109221D01*
X117806006Y-104109090D01*
X117812621Y-104104839D01*
X118485090Y-103432370D01*
X118491520Y-103420595D01*
X118482224Y-103408580D01*
X118440960Y-103379687D01*
X118431465Y-103374204D01*
X118241301Y-103285530D01*
X118231009Y-103281784D01*
X118028337Y-103227478D01*
X118017542Y-103225575D01*
X117808516Y-103207287D01*
X117797566Y-103207287D01*
X117588540Y-103225575D01*
X117577745Y-103227478D01*
X117375073Y-103281784D01*
X117364781Y-103285530D01*
X117174616Y-103374206D01*
X117165126Y-103379684D01*
X117123019Y-103409168D01*
X117114645Y-103419644D01*
X115958898Y-103419644D01*
X115901212Y-103379252D01*
X115901209Y-103379250D01*
X115896703Y-103376095D01*
X115891721Y-103373772D01*
X115891716Y-103373769D01*
X115701473Y-103285058D01*
X115701472Y-103285058D01*
X115696491Y-103282735D01*
X115691183Y-103281313D01*
X115691181Y-103281312D01*
X115580354Y-103251616D01*
X115483109Y-103225559D01*
X115263041Y-103206306D01*
X115042973Y-103225559D01*
X114945728Y-103251616D01*
X114834901Y-103281312D01*
X114834899Y-103281313D01*
X114829591Y-103282735D01*
X114824610Y-103285057D01*
X114824609Y-103285058D01*
X114634361Y-103373772D01*
X114634358Y-103373774D01*
X114629380Y-103376095D01*
X114448421Y-103502803D01*
X114292215Y-103659009D01*
X114165507Y-103839968D01*
X114163186Y-103844946D01*
X114163184Y-103844949D01*
X114107236Y-103964930D01*
X114060319Y-104018215D01*
X113992041Y-104037676D01*
X113924081Y-104017134D01*
X113878846Y-103964930D01*
X113822898Y-103844949D01*
X113822896Y-103844946D01*
X113820575Y-103839968D01*
X113693867Y-103659009D01*
X113537661Y-103502803D01*
X113533153Y-103499646D01*
X113533150Y-103499644D01*
X113361212Y-103379252D01*
X113361209Y-103379250D01*
X113356703Y-103376095D01*
X113351721Y-103373772D01*
X113351716Y-103373769D01*
X113161473Y-103285058D01*
X113161472Y-103285058D01*
X113156491Y-103282735D01*
X113151183Y-103281313D01*
X113151181Y-103281312D01*
X113040354Y-103251616D01*
X112943109Y-103225559D01*
X112723041Y-103206306D01*
X112502973Y-103225559D01*
X112405728Y-103251616D01*
X112294901Y-103281312D01*
X112294899Y-103281313D01*
X112289591Y-103282735D01*
X112284610Y-103285057D01*
X112284609Y-103285058D01*
X112094361Y-103373772D01*
X112094358Y-103373774D01*
X112089380Y-103376095D01*
X111908421Y-103502803D01*
X111752215Y-103659009D01*
X111625507Y-103839968D01*
X111623186Y-103844946D01*
X111623184Y-103844949D01*
X111566960Y-103965522D01*
X111520043Y-104018807D01*
X111451765Y-104038268D01*
X111383805Y-104017726D01*
X111338570Y-103965522D01*
X111282465Y-103845204D01*
X111276986Y-103835714D01*
X111247502Y-103793607D01*
X111237026Y-103785233D01*
X111223578Y-103792302D01*
X110555063Y-104460817D01*
X110547449Y-104474761D01*
X110547580Y-104476594D01*
X110551831Y-104483209D01*
X111224300Y-105155678D01*
X111236074Y-105162108D01*
X111248090Y-105152812D01*
X111276986Y-105111544D01*
X111282465Y-105102054D01*
X111338570Y-104981736D01*
X111385487Y-104928451D01*
X111453765Y-104908990D01*
X111521725Y-104929532D01*
X111566960Y-104981736D01*
X111625507Y-105107290D01*
X111752215Y-105288249D01*
X111908421Y-105444455D01*
X111912929Y-105447612D01*
X111912932Y-105447614D01*
X112048611Y-105542617D01*
X112089379Y-105571163D01*
X112094361Y-105573486D01*
X112094366Y-105573489D01*
X112214342Y-105629434D01*
X112267627Y-105676351D01*
X112287088Y-105744628D01*
X112266546Y-105812588D01*
X112214342Y-105857824D01*
X112094361Y-105913772D01*
X112094358Y-105913774D01*
X112089380Y-105916095D01*
X111908421Y-106042803D01*
X111752215Y-106199009D01*
X111625507Y-106379968D01*
X111623186Y-106384946D01*
X111623184Y-106384949D01*
X111567236Y-106504930D01*
X111520319Y-106558215D01*
X111452041Y-106577676D01*
X111384081Y-106557134D01*
X111338846Y-106504930D01*
X111282898Y-106384949D01*
X111282896Y-106384946D01*
X111280575Y-106379968D01*
X111153867Y-106199009D01*
X110997661Y-106042803D01*
X110993153Y-106039646D01*
X110993150Y-106039644D01*
X110821212Y-105919252D01*
X110821209Y-105919250D01*
X110816703Y-105916095D01*
X110811721Y-105913772D01*
X110811716Y-105913769D01*
X110691148Y-105857548D01*
X110637863Y-105810631D01*
X110618402Y-105742354D01*
X110638944Y-105674394D01*
X110691148Y-105629158D01*
X110811465Y-105573054D01*
X110820960Y-105567571D01*
X110863062Y-105538091D01*
X110871437Y-105527614D01*
X110864369Y-105514167D01*
X110195853Y-104845651D01*
X110181909Y-104838037D01*
X110180076Y-104838168D01*
X110173461Y-104842419D01*
X109500992Y-105514888D01*
X109494562Y-105526663D01*
X109503858Y-105538678D01*
X109545122Y-105567571D01*
X109554617Y-105573054D01*
X109674934Y-105629158D01*
X109728219Y-105676075D01*
X109747680Y-105744352D01*
X109727138Y-105812312D01*
X109674934Y-105857548D01*
X109554361Y-105913772D01*
X109554358Y-105913774D01*
X109549380Y-105916095D01*
X109368421Y-106042803D01*
X109212215Y-106199009D01*
X109085507Y-106379968D01*
X109083186Y-106384946D01*
X109083184Y-106384949D01*
X109027236Y-106504930D01*
X108980319Y-106558215D01*
X108912041Y-106577676D01*
X108844081Y-106557134D01*
X108798846Y-106504930D01*
X108742898Y-106384949D01*
X108742896Y-106384946D01*
X108740575Y-106379968D01*
X108613867Y-106199009D01*
X108457661Y-106042803D01*
X108453153Y-106039646D01*
X108453150Y-106039644D01*
X108281212Y-105919252D01*
X108281209Y-105919250D01*
X108276703Y-105916095D01*
X108271721Y-105913772D01*
X108271716Y-105913769D01*
X108151740Y-105857824D01*
X108098455Y-105810907D01*
X108078994Y-105742630D01*
X108099536Y-105674670D01*
X108151740Y-105629434D01*
X108271716Y-105573489D01*
X108271721Y-105573486D01*
X108276703Y-105571163D01*
X108317471Y-105542617D01*
X108453150Y-105447614D01*
X108453153Y-105447612D01*
X108457661Y-105444455D01*
X108613867Y-105288249D01*
X108740575Y-105107290D01*
X108799122Y-104981736D01*
X108846039Y-104928451D01*
X108914317Y-104908990D01*
X108982277Y-104929532D01*
X109027512Y-104981736D01*
X109083617Y-105102054D01*
X109089096Y-105111544D01*
X109118580Y-105153651D01*
X109129056Y-105162025D01*
X109142504Y-105154956D01*
X109811019Y-104486441D01*
X109818633Y-104472497D01*
X109818502Y-104470664D01*
X109814251Y-104464049D01*
X109141782Y-103791580D01*
X109130008Y-103785150D01*
X109117992Y-103794446D01*
X109089096Y-103835714D01*
X109083617Y-103845204D01*
X109027512Y-103965522D01*
X108980595Y-104018807D01*
X108912317Y-104038268D01*
X108844357Y-104017726D01*
X108799122Y-103965522D01*
X108742898Y-103844949D01*
X108742896Y-103844946D01*
X108740575Y-103839968D01*
X108613867Y-103659009D01*
X108457661Y-103502803D01*
X108453153Y-103499646D01*
X108453150Y-103499644D01*
X108338898Y-103419644D01*
X109494645Y-103419644D01*
X109501714Y-103433092D01*
X110170229Y-104101607D01*
X110184173Y-104109221D01*
X110186006Y-104109090D01*
X110192621Y-104104839D01*
X110865090Y-103432370D01*
X110871520Y-103420595D01*
X110862224Y-103408580D01*
X110820960Y-103379687D01*
X110811465Y-103374204D01*
X110621301Y-103285530D01*
X110611009Y-103281784D01*
X110408337Y-103227478D01*
X110397542Y-103225575D01*
X110188516Y-103207287D01*
X110177566Y-103207287D01*
X109968540Y-103225575D01*
X109957745Y-103227478D01*
X109755073Y-103281784D01*
X109744781Y-103285530D01*
X109554616Y-103374206D01*
X109545126Y-103379684D01*
X109503019Y-103409168D01*
X109494645Y-103419644D01*
X108338898Y-103419644D01*
X108281212Y-103379252D01*
X108281209Y-103379250D01*
X108276703Y-103376095D01*
X108271721Y-103373772D01*
X108271716Y-103373769D01*
X108081473Y-103285058D01*
X108081472Y-103285058D01*
X108076491Y-103282735D01*
X108071183Y-103281313D01*
X108071181Y-103281312D01*
X107960354Y-103251616D01*
X107863109Y-103225559D01*
X107643041Y-103206306D01*
X107422973Y-103225559D01*
X107325728Y-103251616D01*
X107214901Y-103281312D01*
X107214899Y-103281313D01*
X107209591Y-103282735D01*
X107204610Y-103285057D01*
X107204609Y-103285058D01*
X107014361Y-103373772D01*
X107014358Y-103373774D01*
X107009380Y-103376095D01*
X106828421Y-103502803D01*
X106672215Y-103659009D01*
X106545507Y-103839968D01*
X106543186Y-103844946D01*
X106543184Y-103844949D01*
X106487236Y-103964930D01*
X106440319Y-104018215D01*
X106372041Y-104037676D01*
X106304081Y-104017134D01*
X106258846Y-103964930D01*
X106202898Y-103844949D01*
X106202896Y-103844946D01*
X106200575Y-103839968D01*
X106073867Y-103659009D01*
X105917661Y-103502803D01*
X105913153Y-103499646D01*
X105913150Y-103499644D01*
X105741212Y-103379252D01*
X105741209Y-103379250D01*
X105736703Y-103376095D01*
X105731721Y-103373772D01*
X105731716Y-103373769D01*
X105541473Y-103285058D01*
X105541472Y-103285058D01*
X105536491Y-103282735D01*
X105531183Y-103281313D01*
X105531181Y-103281312D01*
X105420354Y-103251616D01*
X105323109Y-103225559D01*
X105103041Y-103206306D01*
X104882973Y-103225559D01*
X104785728Y-103251616D01*
X104674901Y-103281312D01*
X104674899Y-103281313D01*
X104669591Y-103282735D01*
X104664610Y-103285057D01*
X104664609Y-103285058D01*
X104474361Y-103373772D01*
X104474358Y-103373774D01*
X104469380Y-103376095D01*
X104288421Y-103502803D01*
X104132215Y-103659009D01*
X104005507Y-103839968D01*
X104003186Y-103844946D01*
X104003184Y-103844949D01*
X103947236Y-103964930D01*
X103900319Y-104018215D01*
X103832041Y-104037676D01*
X103764081Y-104017134D01*
X103718846Y-103964930D01*
X103662898Y-103844949D01*
X103662896Y-103844946D01*
X103660575Y-103839968D01*
X103533867Y-103659009D01*
X103377661Y-103502803D01*
X103373153Y-103499646D01*
X103373150Y-103499644D01*
X103201212Y-103379252D01*
X103201209Y-103379250D01*
X103196703Y-103376095D01*
X103191721Y-103373772D01*
X103191716Y-103373769D01*
X103001473Y-103285058D01*
X103001472Y-103285058D01*
X102996491Y-103282735D01*
X102991183Y-103281313D01*
X102991181Y-103281312D01*
X102880354Y-103251616D01*
X102783109Y-103225559D01*
X102563041Y-103206306D01*
X102342973Y-103225559D01*
X102245728Y-103251616D01*
X102134901Y-103281312D01*
X102134899Y-103281313D01*
X102129591Y-103282735D01*
X102124610Y-103285057D01*
X102124609Y-103285058D01*
X101934361Y-103373772D01*
X101934358Y-103373774D01*
X101929380Y-103376095D01*
X101748421Y-103502803D01*
X101592215Y-103659009D01*
X101465507Y-103839968D01*
X101463186Y-103844946D01*
X101463184Y-103844949D01*
X101406960Y-103965522D01*
X101360043Y-104018807D01*
X101291765Y-104038268D01*
X101223805Y-104017726D01*
X101178570Y-103965522D01*
X101122465Y-103845204D01*
X101116986Y-103835714D01*
X101087502Y-103793607D01*
X101077026Y-103785233D01*
X101063578Y-103792302D01*
X100395063Y-104460817D01*
X100387449Y-104474761D01*
X100387580Y-104476594D01*
X100391831Y-104483209D01*
X101064300Y-105155678D01*
X101076074Y-105162108D01*
X101088090Y-105152812D01*
X101116986Y-105111544D01*
X101122465Y-105102054D01*
X101178570Y-104981736D01*
X101225487Y-104928451D01*
X101293765Y-104908990D01*
X101361725Y-104929532D01*
X101406960Y-104981736D01*
X101465507Y-105107290D01*
X101592215Y-105288249D01*
X101748421Y-105444455D01*
X101752929Y-105447612D01*
X101752932Y-105447614D01*
X101888611Y-105542617D01*
X101929379Y-105571163D01*
X101934361Y-105573486D01*
X101934366Y-105573489D01*
X102054342Y-105629434D01*
X102107627Y-105676351D01*
X102127088Y-105744628D01*
X102106546Y-105812588D01*
X102054342Y-105857824D01*
X101934361Y-105913772D01*
X101934358Y-105913774D01*
X101929380Y-105916095D01*
X101748421Y-106042803D01*
X101592215Y-106199009D01*
X101465507Y-106379968D01*
X101463186Y-106384946D01*
X101463184Y-106384949D01*
X101407236Y-106504930D01*
X101360319Y-106558215D01*
X101292041Y-106577676D01*
X101224081Y-106557134D01*
X101178846Y-106504930D01*
X101122898Y-106384949D01*
X101122896Y-106384946D01*
X101120575Y-106379968D01*
X100993867Y-106199009D01*
X100837661Y-106042803D01*
X100833153Y-106039646D01*
X100833150Y-106039644D01*
X100661212Y-105919252D01*
X100661209Y-105919250D01*
X100656703Y-105916095D01*
X100651721Y-105913772D01*
X100651716Y-105913769D01*
X100531148Y-105857548D01*
X100477863Y-105810631D01*
X100458402Y-105742354D01*
X100478944Y-105674394D01*
X100531148Y-105629158D01*
X100651465Y-105573054D01*
X100660960Y-105567571D01*
X100703062Y-105538091D01*
X100711437Y-105527614D01*
X100704369Y-105514167D01*
X100035853Y-104845651D01*
X100021909Y-104838037D01*
X100020076Y-104838168D01*
X100013461Y-104842419D01*
X99340992Y-105514888D01*
X99334562Y-105526663D01*
X99343858Y-105538678D01*
X99385122Y-105567571D01*
X99394617Y-105573054D01*
X99514934Y-105629158D01*
X99568219Y-105676075D01*
X99587680Y-105744352D01*
X99567138Y-105812312D01*
X99514934Y-105857548D01*
X99394361Y-105913772D01*
X99394358Y-105913774D01*
X99389380Y-105916095D01*
X99208421Y-106042803D01*
X99052215Y-106199009D01*
X98925507Y-106379968D01*
X98923186Y-106384946D01*
X98923184Y-106384949D01*
X98867236Y-106504930D01*
X98820319Y-106558215D01*
X98752041Y-106577676D01*
X98684081Y-106557134D01*
X98638846Y-106504930D01*
X98582898Y-106384949D01*
X98582896Y-106384946D01*
X98580575Y-106379968D01*
X98453867Y-106199009D01*
X98297661Y-106042803D01*
X98293153Y-106039646D01*
X98293150Y-106039644D01*
X98121212Y-105919252D01*
X98121209Y-105919250D01*
X98116703Y-105916095D01*
X98111721Y-105913772D01*
X98111716Y-105913769D01*
X97991740Y-105857824D01*
X97938455Y-105810907D01*
X97918994Y-105742630D01*
X97939536Y-105674670D01*
X97991740Y-105629434D01*
X98111716Y-105573489D01*
X98111721Y-105573486D01*
X98116703Y-105571163D01*
X98157471Y-105542617D01*
X98293150Y-105447614D01*
X98293153Y-105447612D01*
X98297661Y-105444455D01*
X98453867Y-105288249D01*
X98580575Y-105107290D01*
X98639122Y-104981736D01*
X98686039Y-104928451D01*
X98754317Y-104908990D01*
X98822277Y-104929532D01*
X98867512Y-104981736D01*
X98923617Y-105102054D01*
X98929096Y-105111544D01*
X98958580Y-105153651D01*
X98969056Y-105162025D01*
X98982504Y-105154956D01*
X99651019Y-104486441D01*
X99658633Y-104472497D01*
X99658502Y-104470664D01*
X99654251Y-104464049D01*
X98981782Y-103791580D01*
X98970008Y-103785150D01*
X98957992Y-103794446D01*
X98929096Y-103835714D01*
X98923617Y-103845204D01*
X98867512Y-103965522D01*
X98820595Y-104018807D01*
X98752317Y-104038268D01*
X98684357Y-104017726D01*
X98639122Y-103965522D01*
X98582898Y-103844949D01*
X98582896Y-103844946D01*
X98580575Y-103839968D01*
X98453867Y-103659009D01*
X98297661Y-103502803D01*
X98293153Y-103499646D01*
X98293150Y-103499644D01*
X98178898Y-103419644D01*
X99334645Y-103419644D01*
X99341714Y-103433092D01*
X100010229Y-104101607D01*
X100024173Y-104109221D01*
X100026006Y-104109090D01*
X100032621Y-104104839D01*
X100705090Y-103432370D01*
X100711520Y-103420595D01*
X100702224Y-103408580D01*
X100660960Y-103379687D01*
X100651465Y-103374204D01*
X100461301Y-103285530D01*
X100451009Y-103281784D01*
X100248337Y-103227478D01*
X100237542Y-103225575D01*
X100028516Y-103207287D01*
X100017566Y-103207287D01*
X99808540Y-103225575D01*
X99797745Y-103227478D01*
X99595073Y-103281784D01*
X99584781Y-103285530D01*
X99394616Y-103374206D01*
X99385126Y-103379684D01*
X99343019Y-103409168D01*
X99334645Y-103419644D01*
X98178898Y-103419644D01*
X98121212Y-103379252D01*
X98121209Y-103379250D01*
X98116703Y-103376095D01*
X98111721Y-103373772D01*
X98111716Y-103373769D01*
X97921473Y-103285058D01*
X97921472Y-103285058D01*
X97916491Y-103282735D01*
X97911183Y-103281313D01*
X97911181Y-103281312D01*
X97800354Y-103251616D01*
X97703109Y-103225559D01*
X97483041Y-103206306D01*
X97262973Y-103225559D01*
X97165728Y-103251616D01*
X97054901Y-103281312D01*
X97054899Y-103281313D01*
X97049591Y-103282735D01*
X97044610Y-103285057D01*
X97044609Y-103285058D01*
X96854361Y-103373772D01*
X96854358Y-103373774D01*
X96849380Y-103376095D01*
X96668421Y-103502803D01*
X96512215Y-103659009D01*
X96385507Y-103839968D01*
X96383186Y-103844946D01*
X96383184Y-103844949D01*
X96327236Y-103964930D01*
X96280319Y-104018215D01*
X96212041Y-104037676D01*
X96144081Y-104017134D01*
X96098846Y-103964930D01*
X96042898Y-103844949D01*
X96042896Y-103844946D01*
X96040575Y-103839968D01*
X95913867Y-103659009D01*
X95757661Y-103502803D01*
X95753153Y-103499646D01*
X95753150Y-103499644D01*
X95578984Y-103377692D01*
X95534656Y-103322235D01*
X95527347Y-103251616D01*
X95559378Y-103188255D01*
X95616106Y-103153481D01*
X95626336Y-103150509D01*
X95631068Y-103148056D01*
X95636169Y-103146516D01*
X95641612Y-103143622D01*
X95718260Y-103102869D01*
X95719426Y-103102257D01*
X95796453Y-103062329D01*
X95801926Y-103059492D01*
X95806089Y-103056169D01*
X95810796Y-103053666D01*
X95882918Y-102994845D01*
X95883774Y-102994154D01*
X95922973Y-102962862D01*
X95925477Y-102960358D01*
X95926195Y-102959716D01*
X95930528Y-102956015D01*
X95964062Y-102928665D01*
X95969094Y-102922583D01*
X95993287Y-102893338D01*
X96001277Y-102884558D01*
X97138579Y-101747255D01*
X97148722Y-101738153D01*
X97173418Y-101718297D01*
X97178225Y-101714432D01*
X97210492Y-101675978D01*
X97213672Y-101672331D01*
X97215315Y-101670519D01*
X97217509Y-101668325D01*
X97244842Y-101635051D01*
X97245548Y-101634200D01*
X97245573Y-101634171D01*
X97305354Y-101562926D01*
X97307922Y-101558256D01*
X97311303Y-101554139D01*
X97355177Y-101472314D01*
X97355806Y-101471155D01*
X97397662Y-101395019D01*
X97397665Y-101395011D01*
X97400633Y-101389613D01*
X97402245Y-101384531D01*
X97404762Y-101379837D01*
X97431962Y-101290869D01*
X97432308Y-101289758D01*
X97435571Y-101279475D01*
X97460435Y-101201094D01*
X97461029Y-101195798D01*
X97462587Y-101190702D01*
X97471990Y-101098143D01*
X97472111Y-101097007D01*
X97477700Y-101047173D01*
X97477700Y-101043646D01*
X97477755Y-101042661D01*
X97478202Y-101036981D01*
X97482574Y-100993938D01*
X97478259Y-100948291D01*
X97477700Y-100936433D01*
X97477700Y-100431600D01*
X98356102Y-100431600D01*
X98376057Y-100659687D01*
X98377481Y-100665000D01*
X98377481Y-100665002D01*
X98402911Y-100759905D01*
X98435316Y-100880843D01*
X98437639Y-100885824D01*
X98437639Y-100885825D01*
X98529751Y-101083362D01*
X98529754Y-101083367D01*
X98532077Y-101088349D01*
X98538525Y-101097557D01*
X98659278Y-101270010D01*
X98663402Y-101275900D01*
X98825300Y-101437798D01*
X98829808Y-101440955D01*
X98829811Y-101440957D01*
X98873677Y-101471672D01*
X99012851Y-101569123D01*
X99017833Y-101571446D01*
X99017838Y-101571449D01*
X99178695Y-101646457D01*
X99220357Y-101665884D01*
X99225665Y-101667306D01*
X99225667Y-101667307D01*
X99436198Y-101723719D01*
X99436200Y-101723719D01*
X99441513Y-101725143D01*
X99669600Y-101745098D01*
X99897687Y-101725143D01*
X99903000Y-101723719D01*
X99903002Y-101723719D01*
X100113533Y-101667307D01*
X100113535Y-101667306D01*
X100118843Y-101665884D01*
X100160505Y-101646457D01*
X100321362Y-101571449D01*
X100321367Y-101571446D01*
X100326349Y-101569123D01*
X100465523Y-101471672D01*
X100509389Y-101440957D01*
X100509392Y-101440955D01*
X100513900Y-101437798D01*
X100675798Y-101275900D01*
X100679923Y-101270010D01*
X100800675Y-101097557D01*
X100807123Y-101088349D01*
X100809446Y-101083367D01*
X100809449Y-101083362D01*
X100901561Y-100885825D01*
X100901561Y-100885824D01*
X100903884Y-100880843D01*
X100936290Y-100759905D01*
X100952845Y-100698122D01*
X106006873Y-100698122D01*
X106054364Y-100875361D01*
X106058110Y-100885653D01*
X106150186Y-101083111D01*
X106155669Y-101092607D01*
X106280628Y-101271067D01*
X106287684Y-101279475D01*
X106441725Y-101433516D01*
X106450133Y-101440572D01*
X106628593Y-101565531D01*
X106638089Y-101571014D01*
X106835547Y-101663090D01*
X106845839Y-101666836D01*
X107018103Y-101712994D01*
X107032199Y-101712658D01*
X107035600Y-101704716D01*
X107035600Y-101699567D01*
X107543600Y-101699567D01*
X107547573Y-101713098D01*
X107556122Y-101714327D01*
X107733361Y-101666836D01*
X107743653Y-101663090D01*
X107941111Y-101571014D01*
X107950607Y-101565531D01*
X108129067Y-101440572D01*
X108137475Y-101433516D01*
X108291516Y-101279475D01*
X108298572Y-101271067D01*
X108423531Y-101092607D01*
X108429014Y-101083111D01*
X108521090Y-100885653D01*
X108524836Y-100875361D01*
X108570994Y-100703097D01*
X108570658Y-100689001D01*
X108562716Y-100685600D01*
X107561715Y-100685600D01*
X107546476Y-100690075D01*
X107545271Y-100691465D01*
X107543600Y-100699148D01*
X107543600Y-101699567D01*
X107035600Y-101699567D01*
X107035600Y-100703715D01*
X107031125Y-100688476D01*
X107029735Y-100687271D01*
X107022052Y-100685600D01*
X106021633Y-100685600D01*
X106008102Y-100689573D01*
X106006873Y-100698122D01*
X100952845Y-100698122D01*
X100961719Y-100665002D01*
X100961719Y-100665000D01*
X100963143Y-100659687D01*
X100971748Y-100561334D01*
X109544300Y-100561334D01*
X109551055Y-100623516D01*
X109602185Y-100759905D01*
X109689539Y-100876461D01*
X109806095Y-100963815D01*
X109942484Y-101014945D01*
X110004666Y-101021700D01*
X112600934Y-101021700D01*
X112663116Y-101014945D01*
X112799505Y-100963815D01*
X112916061Y-100876461D01*
X113003415Y-100759905D01*
X113054545Y-100623516D01*
X113061300Y-100561334D01*
X113061300Y-97965066D01*
X113054545Y-97902884D01*
X113041878Y-97869095D01*
X113891001Y-97869095D01*
X113891338Y-97875614D01*
X113901257Y-97971206D01*
X113904149Y-97984600D01*
X113955588Y-98138784D01*
X113961761Y-98151962D01*
X114047063Y-98289807D01*
X114056099Y-98301208D01*
X114170829Y-98415739D01*
X114182240Y-98424751D01*
X114320243Y-98509816D01*
X114333424Y-98515963D01*
X114487710Y-98567138D01*
X114501086Y-98570005D01*
X114595438Y-98579672D01*
X114601854Y-98580000D01*
X115001885Y-98580000D01*
X115017124Y-98575525D01*
X115018329Y-98574135D01*
X115020000Y-98566452D01*
X115020000Y-98561884D01*
X115528000Y-98561884D01*
X115532475Y-98577123D01*
X115533865Y-98578328D01*
X115541548Y-98579999D01*
X115946095Y-98579999D01*
X115952614Y-98579662D01*
X116048206Y-98569743D01*
X116061600Y-98566851D01*
X116215784Y-98515412D01*
X116228962Y-98509239D01*
X116366807Y-98423937D01*
X116378208Y-98414901D01*
X116492739Y-98300171D01*
X116501751Y-98288760D01*
X116586816Y-98150757D01*
X116592963Y-98137576D01*
X116644138Y-97983290D01*
X116647005Y-97969914D01*
X116656672Y-97875562D01*
X116657000Y-97869146D01*
X116657000Y-97744115D01*
X116652525Y-97728876D01*
X116651135Y-97727671D01*
X116643452Y-97726000D01*
X115546115Y-97726000D01*
X115530876Y-97730475D01*
X115529671Y-97731865D01*
X115528000Y-97739548D01*
X115528000Y-98561884D01*
X115020000Y-98561884D01*
X115020000Y-97744115D01*
X115015525Y-97728876D01*
X115014135Y-97727671D01*
X115006452Y-97726000D01*
X113909116Y-97726000D01*
X113893877Y-97730475D01*
X113892672Y-97731865D01*
X113891001Y-97739548D01*
X113891001Y-97869095D01*
X113041878Y-97869095D01*
X113003415Y-97766495D01*
X112916061Y-97649939D01*
X112799505Y-97562585D01*
X112663116Y-97511455D01*
X112600934Y-97504700D01*
X110004666Y-97504700D01*
X109942484Y-97511455D01*
X109806095Y-97562585D01*
X109689539Y-97649939D01*
X109602185Y-97766495D01*
X109551055Y-97902884D01*
X109544300Y-97965066D01*
X109544300Y-100561334D01*
X100971748Y-100561334D01*
X100983098Y-100431600D01*
X100963143Y-100203513D01*
X100928110Y-100072770D01*
X100905307Y-99987667D01*
X100905306Y-99987665D01*
X100903884Y-99982357D01*
X100901561Y-99977375D01*
X100809449Y-99779838D01*
X100809446Y-99779833D01*
X100807123Y-99774851D01*
X100696751Y-99617224D01*
X100678957Y-99591811D01*
X100678955Y-99591808D01*
X100675798Y-99587300D01*
X100513900Y-99425402D01*
X100509389Y-99422243D01*
X100505176Y-99418708D01*
X100506127Y-99417574D01*
X100466129Y-99367529D01*
X100458824Y-99296910D01*
X100490858Y-99233551D01*
X100552062Y-99197570D01*
X100569117Y-99194518D01*
X100579916Y-99193345D01*
X100716305Y-99142215D01*
X100832861Y-99054861D01*
X100920215Y-98938305D01*
X100971345Y-98801916D01*
X100978100Y-98739734D01*
X100978100Y-97891600D01*
X105976102Y-97891600D01*
X105996057Y-98119687D01*
X105997481Y-98125000D01*
X105997481Y-98125002D01*
X106048346Y-98314829D01*
X106055316Y-98340843D01*
X106057639Y-98345824D01*
X106057639Y-98345825D01*
X106149751Y-98543362D01*
X106149754Y-98543367D01*
X106152077Y-98548349D01*
X106283402Y-98735900D01*
X106445300Y-98897798D01*
X106449808Y-98900955D01*
X106449811Y-98900957D01*
X106491142Y-98929897D01*
X106632851Y-99029123D01*
X106637833Y-99031446D01*
X106637838Y-99031449D01*
X106672649Y-99047681D01*
X106725934Y-99094598D01*
X106745395Y-99162875D01*
X106724853Y-99230835D01*
X106672649Y-99276071D01*
X106638089Y-99292186D01*
X106628593Y-99297669D01*
X106450133Y-99422628D01*
X106441725Y-99429684D01*
X106287684Y-99583725D01*
X106280628Y-99592133D01*
X106155669Y-99770593D01*
X106150186Y-99780089D01*
X106058110Y-99977547D01*
X106054364Y-99987839D01*
X106008206Y-100160103D01*
X106008542Y-100174199D01*
X106016484Y-100177600D01*
X108557567Y-100177600D01*
X108571098Y-100173627D01*
X108572327Y-100165078D01*
X108524836Y-99987839D01*
X108521090Y-99977547D01*
X108429014Y-99780089D01*
X108423531Y-99770593D01*
X108298572Y-99592133D01*
X108291516Y-99583725D01*
X108137475Y-99429684D01*
X108129067Y-99422628D01*
X107950607Y-99297669D01*
X107941111Y-99292186D01*
X107906551Y-99276071D01*
X107853266Y-99229154D01*
X107833805Y-99160877D01*
X107854347Y-99092917D01*
X107906551Y-99047681D01*
X107941362Y-99031449D01*
X107941367Y-99031446D01*
X107946349Y-99029123D01*
X108088058Y-98929897D01*
X108129389Y-98900957D01*
X108129392Y-98900955D01*
X108133900Y-98897798D01*
X108295798Y-98735900D01*
X108427123Y-98548349D01*
X108429446Y-98543367D01*
X108429449Y-98543362D01*
X108521561Y-98345825D01*
X108521561Y-98345824D01*
X108523884Y-98340843D01*
X108530855Y-98314829D01*
X108581719Y-98125002D01*
X108581719Y-98125000D01*
X108583143Y-98119687D01*
X108603098Y-97891600D01*
X108583143Y-97663513D01*
X108578064Y-97644558D01*
X108525307Y-97447667D01*
X108525306Y-97447665D01*
X108523884Y-97442357D01*
X108497579Y-97385945D01*
X108429449Y-97239838D01*
X108429446Y-97239833D01*
X108427123Y-97234851D01*
X108353698Y-97129989D01*
X108298957Y-97051811D01*
X108298955Y-97051808D01*
X108295798Y-97047300D01*
X108133900Y-96885402D01*
X108129392Y-96882245D01*
X108129389Y-96882243D01*
X108019383Y-96805216D01*
X107946349Y-96754077D01*
X107941367Y-96751754D01*
X107941362Y-96751751D01*
X107743825Y-96659639D01*
X107743824Y-96659639D01*
X107738843Y-96657316D01*
X107733535Y-96655894D01*
X107733533Y-96655893D01*
X107523002Y-96599481D01*
X107523000Y-96599481D01*
X107517687Y-96598057D01*
X107289600Y-96578102D01*
X107061513Y-96598057D01*
X107056200Y-96599481D01*
X107056198Y-96599481D01*
X106845667Y-96655893D01*
X106845665Y-96655894D01*
X106840357Y-96657316D01*
X106835376Y-96659639D01*
X106835375Y-96659639D01*
X106637838Y-96751751D01*
X106637833Y-96751754D01*
X106632851Y-96754077D01*
X106559817Y-96805216D01*
X106449811Y-96882243D01*
X106449808Y-96882245D01*
X106445300Y-96885402D01*
X106283402Y-97047300D01*
X106280245Y-97051808D01*
X106280243Y-97051811D01*
X106225502Y-97129989D01*
X106152077Y-97234851D01*
X106149754Y-97239833D01*
X106149751Y-97239838D01*
X106081621Y-97385945D01*
X106055316Y-97442357D01*
X106053894Y-97447665D01*
X106053893Y-97447667D01*
X106001136Y-97644558D01*
X105996057Y-97663513D01*
X105976102Y-97891600D01*
X100978100Y-97891600D01*
X100978100Y-97043466D01*
X100971345Y-96981284D01*
X100920215Y-96844895D01*
X100832861Y-96728339D01*
X100716305Y-96640985D01*
X100579916Y-96589855D01*
X100517734Y-96583100D01*
X98821466Y-96583100D01*
X98759284Y-96589855D01*
X98622895Y-96640985D01*
X98506339Y-96728339D01*
X98418985Y-96844895D01*
X98367855Y-96981284D01*
X98361100Y-97043466D01*
X98361100Y-98739734D01*
X98367855Y-98801916D01*
X98418985Y-98938305D01*
X98506339Y-99054861D01*
X98622895Y-99142215D01*
X98759284Y-99193345D01*
X98770074Y-99194517D01*
X98772206Y-99195403D01*
X98774822Y-99196025D01*
X98774721Y-99196448D01*
X98835635Y-99221755D01*
X98876063Y-99280117D01*
X98878522Y-99351071D01*
X98842229Y-99412090D01*
X98833569Y-99419089D01*
X98829807Y-99422246D01*
X98825300Y-99425402D01*
X98663402Y-99587300D01*
X98660245Y-99591808D01*
X98660243Y-99591811D01*
X98642449Y-99617224D01*
X98532077Y-99774851D01*
X98529754Y-99779833D01*
X98529751Y-99779838D01*
X98437639Y-99977375D01*
X98435316Y-99982357D01*
X98433894Y-99987665D01*
X98433893Y-99987667D01*
X98411090Y-100072770D01*
X98376057Y-100203513D01*
X98356102Y-100431600D01*
X97477700Y-100431600D01*
X97477700Y-95417604D01*
X113886787Y-95417604D01*
X113896567Y-95628899D01*
X113946125Y-95834534D01*
X113948607Y-95839992D01*
X113948608Y-95839996D01*
X113992053Y-95935546D01*
X114033674Y-96027087D01*
X114156054Y-96199611D01*
X114160377Y-96203749D01*
X114160381Y-96203754D01*
X114251691Y-96291164D01*
X114287067Y-96352720D01*
X114283548Y-96423629D01*
X114242251Y-96481379D01*
X114230863Y-96489326D01*
X114181193Y-96520063D01*
X114169792Y-96529099D01*
X114055261Y-96643829D01*
X114046249Y-96655240D01*
X113961184Y-96793243D01*
X113955037Y-96806424D01*
X113903862Y-96960710D01*
X113900995Y-96974086D01*
X113891328Y-97068438D01*
X113891000Y-97074855D01*
X113891000Y-97199885D01*
X113895475Y-97215124D01*
X113896865Y-97216329D01*
X113904548Y-97218000D01*
X116638884Y-97218000D01*
X116654123Y-97213525D01*
X116655328Y-97212135D01*
X116656999Y-97204452D01*
X116656999Y-97074905D01*
X116656662Y-97068386D01*
X116646743Y-96972794D01*
X116643851Y-96959400D01*
X116592412Y-96805216D01*
X116586239Y-96792038D01*
X116500937Y-96654193D01*
X116491901Y-96642792D01*
X116377171Y-96528261D01*
X116365760Y-96519249D01*
X116320345Y-96491255D01*
X116272852Y-96438483D01*
X116261428Y-96368411D01*
X116289702Y-96303287D01*
X116308625Y-96284912D01*
X116316920Y-96278396D01*
X116320852Y-96273865D01*
X116320855Y-96273862D01*
X116451621Y-96123167D01*
X116455552Y-96118637D01*
X116458552Y-96113451D01*
X116458555Y-96113447D01*
X116558467Y-95940742D01*
X116561473Y-95935546D01*
X116630861Y-95735729D01*
X116661213Y-95526396D01*
X116651433Y-95315101D01*
X116619819Y-95183923D01*
X116603281Y-95115299D01*
X116603280Y-95115297D01*
X116601875Y-95109466D01*
X116592397Y-95088619D01*
X116524891Y-94940150D01*
X116514326Y-94916913D01*
X116391946Y-94744389D01*
X116239150Y-94598119D01*
X116233255Y-94594312D01*
X116206837Y-94577254D01*
X116160460Y-94523499D01*
X116150507Y-94453203D01*
X116180139Y-94388686D01*
X116197353Y-94372317D01*
X116204446Y-94366746D01*
X116316920Y-94278396D01*
X116320852Y-94273865D01*
X116320855Y-94273862D01*
X116451621Y-94123167D01*
X116455552Y-94118637D01*
X116458552Y-94113451D01*
X116458555Y-94113447D01*
X116558467Y-93940742D01*
X116561473Y-93935546D01*
X116630861Y-93735729D01*
X116633414Y-93718124D01*
X116660352Y-93532336D01*
X116660352Y-93532333D01*
X116661213Y-93526396D01*
X116651433Y-93315101D01*
X116601875Y-93109466D01*
X116592361Y-93088540D01*
X116516806Y-92922368D01*
X116514326Y-92916913D01*
X116400962Y-92757099D01*
X116395412Y-92749275D01*
X116395411Y-92749274D01*
X116391946Y-92744389D01*
X116251682Y-92610116D01*
X116243480Y-92602264D01*
X116239150Y-92598119D01*
X116230197Y-92592338D01*
X116206837Y-92577254D01*
X116160460Y-92523499D01*
X116150507Y-92453203D01*
X116180139Y-92388686D01*
X116197353Y-92372317D01*
X116204446Y-92366746D01*
X116316920Y-92278396D01*
X116320852Y-92273865D01*
X116320855Y-92273862D01*
X116451621Y-92123167D01*
X116455552Y-92118637D01*
X116458552Y-92113451D01*
X116458555Y-92113447D01*
X116558467Y-91940742D01*
X116561473Y-91935546D01*
X116630861Y-91735729D01*
X116661213Y-91526396D01*
X116651433Y-91315101D01*
X116601875Y-91109466D01*
X116564614Y-91027514D01*
X116516806Y-90922368D01*
X116514326Y-90916913D01*
X116391946Y-90744389D01*
X116239150Y-90598119D01*
X116233255Y-90594312D01*
X116206837Y-90577254D01*
X116160460Y-90523499D01*
X116150507Y-90453203D01*
X116180139Y-90388686D01*
X116197353Y-90372317D01*
X116202111Y-90368580D01*
X116316920Y-90278396D01*
X116320852Y-90273865D01*
X116320855Y-90273862D01*
X116451621Y-90123167D01*
X116455552Y-90118637D01*
X116458552Y-90113451D01*
X116458555Y-90113447D01*
X116558467Y-89940742D01*
X116561473Y-89935546D01*
X116630861Y-89735729D01*
X116631722Y-89729792D01*
X116660352Y-89532336D01*
X116660352Y-89532333D01*
X116661213Y-89526396D01*
X116651433Y-89315101D01*
X116606189Y-89127365D01*
X116603281Y-89115299D01*
X116603280Y-89115297D01*
X116601875Y-89109466D01*
X116583736Y-89069570D01*
X116516806Y-88922368D01*
X116514326Y-88916913D01*
X116391946Y-88744389D01*
X116252401Y-88610804D01*
X116243480Y-88602264D01*
X116239150Y-88598119D01*
X116061452Y-88483380D01*
X116001354Y-88459160D01*
X115870832Y-88406558D01*
X115870829Y-88406557D01*
X115865263Y-88404314D01*
X115657663Y-88363772D01*
X115652101Y-88363500D01*
X114946154Y-88363500D01*
X114788434Y-88378548D01*
X114585466Y-88438092D01*
X114580139Y-88440836D01*
X114580138Y-88440836D01*
X114402751Y-88532196D01*
X114402748Y-88532198D01*
X114397420Y-88534942D01*
X114231080Y-88665604D01*
X114227148Y-88670135D01*
X114227145Y-88670138D01*
X114120890Y-88792586D01*
X114092448Y-88825363D01*
X114089448Y-88830549D01*
X114089445Y-88830553D01*
X114002223Y-88981323D01*
X113986527Y-89008454D01*
X113917139Y-89208271D01*
X113916278Y-89214206D01*
X113916278Y-89214208D01*
X113891443Y-89385495D01*
X113886787Y-89417604D01*
X113896567Y-89628899D01*
X113897971Y-89634724D01*
X113897971Y-89634725D01*
X113930423Y-89769379D01*
X113946125Y-89834534D01*
X113948607Y-89839992D01*
X113948608Y-89839996D01*
X113990586Y-89932321D01*
X114033674Y-90027087D01*
X114156054Y-90199611D01*
X114308850Y-90345881D01*
X114313888Y-90349134D01*
X114341163Y-90366746D01*
X114387540Y-90420501D01*
X114397493Y-90490797D01*
X114367861Y-90555314D01*
X114350649Y-90571681D01*
X114231080Y-90665604D01*
X114227148Y-90670135D01*
X114227145Y-90670138D01*
X114158474Y-90749275D01*
X114092448Y-90825363D01*
X114089448Y-90830549D01*
X114089445Y-90830553D01*
X114004990Y-90976540D01*
X113986527Y-91008454D01*
X113917139Y-91208271D01*
X113886787Y-91417604D01*
X113896567Y-91628899D01*
X113946125Y-91834534D01*
X113948607Y-91839992D01*
X113948608Y-91839996D01*
X113992053Y-91935546D01*
X114033674Y-92027087D01*
X114156054Y-92199611D01*
X114308850Y-92345881D01*
X114313888Y-92349134D01*
X114341163Y-92366746D01*
X114387540Y-92420501D01*
X114397493Y-92490797D01*
X114367861Y-92555314D01*
X114350649Y-92571681D01*
X114231080Y-92665604D01*
X114227148Y-92670135D01*
X114227145Y-92670138D01*
X114122748Y-92790445D01*
X114092448Y-92825363D01*
X114089448Y-92830549D01*
X114089445Y-92830553D01*
X113998608Y-92987572D01*
X113986527Y-93008454D01*
X113917139Y-93208271D01*
X113916278Y-93214206D01*
X113916278Y-93214208D01*
X113891698Y-93383737D01*
X113886787Y-93417604D01*
X113896567Y-93628899D01*
X113897971Y-93634724D01*
X113897971Y-93634725D01*
X113918361Y-93719329D01*
X113946125Y-93834534D01*
X113948607Y-93839992D01*
X113948608Y-93839996D01*
X113994415Y-93940742D01*
X114033674Y-94027087D01*
X114156054Y-94199611D01*
X114308850Y-94345881D01*
X114313888Y-94349134D01*
X114341163Y-94366746D01*
X114387540Y-94420501D01*
X114397493Y-94490797D01*
X114367861Y-94555314D01*
X114350649Y-94571681D01*
X114231080Y-94665604D01*
X114227148Y-94670135D01*
X114227145Y-94670138D01*
X114159655Y-94747914D01*
X114092448Y-94825363D01*
X114089448Y-94830549D01*
X114089445Y-94830553D01*
X114042312Y-94912026D01*
X113986527Y-95008454D01*
X113917139Y-95208271D01*
X113916278Y-95214206D01*
X113916278Y-95214208D01*
X113894859Y-95361935D01*
X113886787Y-95417604D01*
X97477700Y-95417604D01*
X97477700Y-94302846D01*
X98152500Y-94302846D01*
X98167548Y-94460566D01*
X98227092Y-94663534D01*
X98229836Y-94668861D01*
X98229836Y-94668862D01*
X98277440Y-94761290D01*
X98323942Y-94851580D01*
X98454604Y-95017920D01*
X98459135Y-95021852D01*
X98459138Y-95021855D01*
X98545058Y-95096412D01*
X98614363Y-95156552D01*
X98619549Y-95159552D01*
X98619553Y-95159555D01*
X98714025Y-95214208D01*
X98797454Y-95262473D01*
X98997271Y-95331861D01*
X99003206Y-95332722D01*
X99003208Y-95332722D01*
X99200664Y-95361352D01*
X99200667Y-95361352D01*
X99206604Y-95362213D01*
X99417899Y-95352433D01*
X99572804Y-95315101D01*
X99617701Y-95304281D01*
X99617703Y-95304280D01*
X99623534Y-95302875D01*
X99628992Y-95300393D01*
X99628996Y-95300392D01*
X99744041Y-95248084D01*
X99816087Y-95215326D01*
X99988611Y-95092946D01*
X100134881Y-94940150D01*
X100138688Y-94934255D01*
X100155746Y-94907837D01*
X100209501Y-94861460D01*
X100279797Y-94851507D01*
X100344314Y-94881139D01*
X100360681Y-94898351D01*
X100454604Y-95017920D01*
X100459135Y-95021852D01*
X100459138Y-95021855D01*
X100545058Y-95096412D01*
X100614363Y-95156552D01*
X100619549Y-95159552D01*
X100619553Y-95159555D01*
X100714025Y-95214208D01*
X100797454Y-95262473D01*
X100997271Y-95331861D01*
X101003206Y-95332722D01*
X101003208Y-95332722D01*
X101200664Y-95361352D01*
X101200667Y-95361352D01*
X101206604Y-95362213D01*
X101417899Y-95352433D01*
X101572804Y-95315101D01*
X101617701Y-95304281D01*
X101617703Y-95304280D01*
X101623534Y-95302875D01*
X101628992Y-95300393D01*
X101628996Y-95300392D01*
X101744041Y-95248084D01*
X101816087Y-95215326D01*
X101988611Y-95092946D01*
X101992749Y-95088623D01*
X101992754Y-95088619D01*
X102080164Y-94997309D01*
X102141720Y-94961933D01*
X102212629Y-94965452D01*
X102270379Y-95006749D01*
X102278326Y-95018137D01*
X102309063Y-95067807D01*
X102318099Y-95079208D01*
X102432829Y-95193739D01*
X102444240Y-95202751D01*
X102582243Y-95287816D01*
X102595424Y-95293963D01*
X102749710Y-95345138D01*
X102763086Y-95348005D01*
X102857438Y-95357672D01*
X102863854Y-95358000D01*
X102988885Y-95358000D01*
X103004124Y-95353525D01*
X103005329Y-95352135D01*
X103007000Y-95344452D01*
X103007000Y-95339884D01*
X103515000Y-95339884D01*
X103519475Y-95355123D01*
X103520865Y-95356328D01*
X103528548Y-95357999D01*
X103658095Y-95357999D01*
X103664614Y-95357662D01*
X103760206Y-95347743D01*
X103773600Y-95344851D01*
X103927784Y-95293412D01*
X103940962Y-95287239D01*
X104078807Y-95201937D01*
X104090208Y-95192901D01*
X104204739Y-95078171D01*
X104213751Y-95066760D01*
X104298816Y-94928757D01*
X104304963Y-94915576D01*
X104356138Y-94761290D01*
X104359005Y-94747914D01*
X104368672Y-94653562D01*
X104369000Y-94647146D01*
X104369000Y-94247115D01*
X104364525Y-94231876D01*
X104363135Y-94230671D01*
X104355452Y-94229000D01*
X103533115Y-94229000D01*
X103517876Y-94233475D01*
X103516671Y-94234865D01*
X103515000Y-94242548D01*
X103515000Y-95339884D01*
X103007000Y-95339884D01*
X103007000Y-93702885D01*
X103515000Y-93702885D01*
X103519475Y-93718124D01*
X103520865Y-93719329D01*
X103528548Y-93721000D01*
X104350884Y-93721000D01*
X104366123Y-93716525D01*
X104367328Y-93715135D01*
X104368999Y-93707452D01*
X104368999Y-93302905D01*
X104368662Y-93296386D01*
X104358743Y-93200794D01*
X104355851Y-93187400D01*
X104304412Y-93033216D01*
X104298239Y-93020038D01*
X104212937Y-92882193D01*
X104203901Y-92870792D01*
X104089171Y-92756261D01*
X104077760Y-92747249D01*
X103939757Y-92662184D01*
X103926576Y-92656037D01*
X103772290Y-92604862D01*
X103758914Y-92601995D01*
X103664562Y-92592328D01*
X103658145Y-92592000D01*
X103533115Y-92592000D01*
X103517876Y-92596475D01*
X103516671Y-92597865D01*
X103515000Y-92605548D01*
X103515000Y-93702885D01*
X103007000Y-93702885D01*
X103007000Y-92610116D01*
X103002525Y-92594877D01*
X103001135Y-92593672D01*
X102993452Y-92592001D01*
X102863905Y-92592001D01*
X102857386Y-92592338D01*
X102761794Y-92602257D01*
X102748400Y-92605149D01*
X102594216Y-92656588D01*
X102581038Y-92662761D01*
X102443193Y-92748063D01*
X102431792Y-92757099D01*
X102317261Y-92871829D01*
X102308249Y-92883240D01*
X102280255Y-92928655D01*
X102227483Y-92976148D01*
X102157411Y-92987572D01*
X102092287Y-92959298D01*
X102073912Y-92940375D01*
X102067396Y-92932080D01*
X102062865Y-92928148D01*
X102062862Y-92928145D01*
X101912167Y-92797379D01*
X101907637Y-92793448D01*
X101902451Y-92790448D01*
X101902447Y-92790445D01*
X101729742Y-92690533D01*
X101724546Y-92687527D01*
X101524729Y-92618139D01*
X101518794Y-92617278D01*
X101518792Y-92617278D01*
X101321336Y-92588648D01*
X101321333Y-92588648D01*
X101315396Y-92587787D01*
X101104101Y-92597567D01*
X100972923Y-92629181D01*
X100904299Y-92645719D01*
X100904297Y-92645720D01*
X100898466Y-92647125D01*
X100893008Y-92649607D01*
X100893004Y-92649608D01*
X100777959Y-92701916D01*
X100705913Y-92734674D01*
X100533389Y-92857054D01*
X100387119Y-93009850D01*
X100383868Y-93014885D01*
X100383866Y-93014888D01*
X100366254Y-93042163D01*
X100312499Y-93088540D01*
X100242203Y-93098493D01*
X100177686Y-93068861D01*
X100161317Y-93051647D01*
X100146840Y-93033216D01*
X100067396Y-92932080D01*
X100062865Y-92928148D01*
X100062862Y-92928145D01*
X99912167Y-92797379D01*
X99907637Y-92793448D01*
X99902451Y-92790448D01*
X99902447Y-92790445D01*
X99729742Y-92690533D01*
X99724546Y-92687527D01*
X99524729Y-92618139D01*
X99518794Y-92617278D01*
X99518792Y-92617278D01*
X99321336Y-92588648D01*
X99321333Y-92588648D01*
X99315396Y-92587787D01*
X99104101Y-92597567D01*
X98972923Y-92629181D01*
X98904299Y-92645719D01*
X98904297Y-92645720D01*
X98898466Y-92647125D01*
X98893008Y-92649607D01*
X98893004Y-92649608D01*
X98777959Y-92701916D01*
X98705913Y-92734674D01*
X98533389Y-92857054D01*
X98387119Y-93009850D01*
X98272380Y-93187548D01*
X98193314Y-93383737D01*
X98152772Y-93591337D01*
X98152500Y-93596899D01*
X98152500Y-94302846D01*
X97477700Y-94302846D01*
X97477700Y-92062325D01*
X97497702Y-91994204D01*
X97514605Y-91973230D01*
X99085229Y-90402605D01*
X99147541Y-90368580D01*
X99174324Y-90365700D01*
X107577426Y-90365700D01*
X107592345Y-90366586D01*
X107623977Y-90370358D01*
X107630112Y-90369886D01*
X107630114Y-90369886D01*
X107679689Y-90366071D01*
X107689356Y-90365700D01*
X107694969Y-90365700D01*
X107731791Y-90362090D01*
X107734412Y-90361860D01*
X107741018Y-90361352D01*
X107815031Y-90355657D01*
X107815035Y-90355656D01*
X107821172Y-90355184D01*
X107827103Y-90353528D01*
X107831545Y-90352745D01*
X107835908Y-90351881D01*
X107842033Y-90351280D01*
X107925331Y-90326131D01*
X107927865Y-90325395D01*
X108005725Y-90303656D01*
X108005726Y-90303656D01*
X108011663Y-90301998D01*
X108017167Y-90299218D01*
X108021364Y-90297590D01*
X108025473Y-90295896D01*
X108031369Y-90294116D01*
X108108194Y-90253268D01*
X108110536Y-90252054D01*
X108182702Y-90215600D01*
X108188196Y-90212825D01*
X108193049Y-90209033D01*
X108196808Y-90206648D01*
X108200551Y-90204161D01*
X108205996Y-90201266D01*
X108273448Y-90146253D01*
X108275489Y-90144624D01*
X108339187Y-90094859D01*
X108339193Y-90094853D01*
X108344047Y-90091061D01*
X108348073Y-90086397D01*
X108351294Y-90083329D01*
X108354483Y-90080163D01*
X108359262Y-90076265D01*
X108414741Y-90009203D01*
X108416375Y-90007269D01*
X108473278Y-89941345D01*
X108476321Y-89935988D01*
X108478908Y-89932321D01*
X108481404Y-89928621D01*
X108485330Y-89923875D01*
X108526737Y-89847295D01*
X108528008Y-89845003D01*
X108530853Y-89839996D01*
X108570969Y-89769379D01*
X108572913Y-89763535D01*
X108574747Y-89759416D01*
X108576472Y-89755313D01*
X108579398Y-89749901D01*
X108592456Y-89707719D01*
X108605128Y-89666780D01*
X108605935Y-89664267D01*
X108631449Y-89587569D01*
X108633397Y-89581713D01*
X108634170Y-89575592D01*
X108635169Y-89571195D01*
X108636060Y-89566852D01*
X108637882Y-89560968D01*
X108646980Y-89474405D01*
X108647282Y-89471797D01*
X108657743Y-89388996D01*
X108657743Y-89388991D01*
X108658185Y-89385495D01*
X108658470Y-89365084D01*
X108658555Y-89364275D01*
X108658491Y-89363572D01*
X108658580Y-89357200D01*
X108649305Y-89262603D01*
X108649223Y-89261728D01*
X108641188Y-89173445D01*
X108640630Y-89167312D01*
X108639627Y-89163903D01*
X108639280Y-89160367D01*
X108611839Y-89069479D01*
X108611614Y-89068725D01*
X108584790Y-88977581D01*
X108583142Y-88974428D01*
X108582116Y-88971031D01*
X108537489Y-88887099D01*
X108537122Y-88886401D01*
X108496014Y-88807769D01*
X108493160Y-88802310D01*
X108490935Y-88799542D01*
X108489266Y-88796404D01*
X108474510Y-88778311D01*
X108429259Y-88722828D01*
X108428706Y-88722144D01*
X108373098Y-88652982D01*
X108373092Y-88652976D01*
X108369232Y-88648175D01*
X108366511Y-88645892D01*
X108364265Y-88643138D01*
X108358218Y-88638135D01*
X108316880Y-88603938D01*
X108291064Y-88582581D01*
X108290529Y-88582135D01*
X108231014Y-88532196D01*
X108222447Y-88525007D01*
X108222444Y-88525005D01*
X108217726Y-88521046D01*
X108214611Y-88519334D01*
X108211875Y-88517070D01*
X108128301Y-88471882D01*
X108127563Y-88471479D01*
X108114947Y-88464543D01*
X108044413Y-88425767D01*
X108041030Y-88424694D01*
X108037901Y-88423002D01*
X107947174Y-88394918D01*
X107946358Y-88394662D01*
X107861765Y-88367827D01*
X107861761Y-88367826D01*
X107855894Y-88365965D01*
X107852363Y-88365569D01*
X107848968Y-88364518D01*
X107754493Y-88354589D01*
X107753779Y-88354511D01*
X107701973Y-88348700D01*
X107699400Y-88348700D01*
X107695424Y-88348380D01*
X107658404Y-88344489D01*
X107658402Y-88344489D01*
X107652275Y-88343845D01*
X107604630Y-88348181D01*
X107593210Y-88348700D01*
X98766242Y-88348700D01*
X98752635Y-88347963D01*
X98721137Y-88344541D01*
X98721132Y-88344541D01*
X98715011Y-88343876D01*
X98697011Y-88345451D01*
X98665009Y-88348250D01*
X98660184Y-88348579D01*
X98657713Y-88348700D01*
X98654631Y-88348700D01*
X98632163Y-88350903D01*
X98611889Y-88352891D01*
X98610574Y-88353013D01*
X98578313Y-88355836D01*
X98517987Y-88361113D01*
X98512868Y-88362600D01*
X98507567Y-88363120D01*
X98418566Y-88389991D01*
X98417433Y-88390326D01*
X98333986Y-88414570D01*
X98333982Y-88414572D01*
X98328064Y-88416291D01*
X98323332Y-88418744D01*
X98318231Y-88420284D01*
X98312788Y-88423178D01*
X98236140Y-88463931D01*
X98234974Y-88464543D01*
X98164865Y-88500885D01*
X98152474Y-88507308D01*
X98148311Y-88510631D01*
X98143604Y-88513134D01*
X98071482Y-88571955D01*
X98070626Y-88572646D01*
X98031427Y-88603938D01*
X98028923Y-88606442D01*
X98028205Y-88607084D01*
X98023872Y-88610785D01*
X97990338Y-88638135D01*
X97986411Y-88642882D01*
X97986409Y-88642884D01*
X97961113Y-88673462D01*
X97953123Y-88682242D01*
X96968586Y-89666780D01*
X96168795Y-90466571D01*
X96106483Y-90500596D01*
X96035668Y-90495532D01*
X95978832Y-90452985D01*
X95954021Y-90386465D01*
X95953700Y-90377476D01*
X95953700Y-84774588D01*
X98249876Y-84774588D01*
X98250390Y-84780464D01*
X98250390Y-84780465D01*
X98256940Y-84855331D01*
X98258334Y-84871271D01*
X98266468Y-84968134D01*
X98266958Y-84969844D01*
X98267113Y-84971613D01*
X98294196Y-85064834D01*
X98320983Y-85158250D01*
X98321796Y-85159832D01*
X98322291Y-85161536D01*
X98366988Y-85247765D01*
X98411387Y-85334156D01*
X98412490Y-85335547D01*
X98413308Y-85337126D01*
X98473926Y-85413061D01*
X98534235Y-85489153D01*
X98559411Y-85510579D01*
X98575933Y-85527569D01*
X98589968Y-85545025D01*
X98594692Y-85548989D01*
X98628421Y-85577291D01*
X98632069Y-85580472D01*
X98633881Y-85582115D01*
X98636075Y-85584309D01*
X98669349Y-85611642D01*
X98670147Y-85612304D01*
X98741474Y-85672154D01*
X98746144Y-85674722D01*
X98750261Y-85678103D01*
X98808145Y-85709140D01*
X98832086Y-85721977D01*
X98833245Y-85722606D01*
X98909381Y-85764462D01*
X98909389Y-85764465D01*
X98914787Y-85767433D01*
X98919869Y-85769045D01*
X98924563Y-85771562D01*
X99013531Y-85798762D01*
X99014559Y-85799082D01*
X99103306Y-85827235D01*
X99108602Y-85827829D01*
X99113698Y-85829387D01*
X99206257Y-85838790D01*
X99207393Y-85838911D01*
X99241008Y-85842681D01*
X99253730Y-85844108D01*
X99253734Y-85844108D01*
X99257227Y-85844500D01*
X99260754Y-85844500D01*
X99261739Y-85844555D01*
X99267419Y-85845002D01*
X99296825Y-85847989D01*
X99304337Y-85848752D01*
X99304339Y-85848752D01*
X99310462Y-85849374D01*
X99356108Y-85845059D01*
X99367967Y-85844500D01*
X121496626Y-85844500D01*
X121511545Y-85845386D01*
X121543177Y-85849158D01*
X121549312Y-85848686D01*
X121549314Y-85848686D01*
X121598889Y-85844871D01*
X121608556Y-85844500D01*
X121614169Y-85844500D01*
X121650991Y-85840890D01*
X121653612Y-85840660D01*
X121660218Y-85840152D01*
X121734231Y-85834457D01*
X121734235Y-85834456D01*
X121740372Y-85833984D01*
X121746303Y-85832328D01*
X121750745Y-85831545D01*
X121755108Y-85830681D01*
X121761233Y-85830080D01*
X121844531Y-85804931D01*
X121847065Y-85804195D01*
X121924925Y-85782456D01*
X121924926Y-85782456D01*
X121930863Y-85780798D01*
X121936367Y-85778018D01*
X121940564Y-85776390D01*
X121944673Y-85774696D01*
X121950569Y-85772916D01*
X122027394Y-85732068D01*
X122029736Y-85730854D01*
X122101902Y-85694400D01*
X122107396Y-85691625D01*
X122112249Y-85687833D01*
X122116008Y-85685448D01*
X122119751Y-85682961D01*
X122125196Y-85680066D01*
X122192648Y-85625053D01*
X122194689Y-85623424D01*
X122258387Y-85573659D01*
X122258393Y-85573653D01*
X122263247Y-85569861D01*
X122267273Y-85565197D01*
X122270494Y-85562129D01*
X122273683Y-85558963D01*
X122278462Y-85555065D01*
X122333941Y-85488003D01*
X122335575Y-85486069D01*
X122392478Y-85420145D01*
X122395521Y-85414788D01*
X122398108Y-85411121D01*
X122400604Y-85407421D01*
X122404530Y-85402675D01*
X122445937Y-85326095D01*
X122447208Y-85323803D01*
X122487125Y-85253537D01*
X122490169Y-85248179D01*
X122492113Y-85242335D01*
X122493947Y-85238216D01*
X122495672Y-85234113D01*
X122498598Y-85228701D01*
X122524332Y-85145568D01*
X122525135Y-85143067D01*
X122550649Y-85066369D01*
X122552597Y-85060513D01*
X122553370Y-85054392D01*
X122554369Y-85049995D01*
X122555260Y-85045652D01*
X122557082Y-85039768D01*
X122566180Y-84953205D01*
X122566482Y-84950597D01*
X122576943Y-84867796D01*
X122576943Y-84867791D01*
X122577385Y-84864295D01*
X122577510Y-84855331D01*
X122577625Y-84847133D01*
X122577625Y-84847131D01*
X122577670Y-84843884D01*
X122577755Y-84843075D01*
X122577691Y-84842372D01*
X122577780Y-84836000D01*
X122568505Y-84741403D01*
X122568423Y-84740528D01*
X122566176Y-84715842D01*
X122559830Y-84646112D01*
X122558827Y-84642703D01*
X122558480Y-84639167D01*
X122531039Y-84548279D01*
X122530814Y-84547525D01*
X122511521Y-84481971D01*
X122503990Y-84456381D01*
X122502342Y-84453228D01*
X122501316Y-84449831D01*
X122456689Y-84365899D01*
X122456322Y-84365201D01*
X122422612Y-84300719D01*
X122412360Y-84281110D01*
X122410135Y-84278342D01*
X122408466Y-84275204D01*
X122359851Y-84215596D01*
X122348459Y-84201628D01*
X122347906Y-84200944D01*
X122292298Y-84131782D01*
X122292292Y-84131776D01*
X122288432Y-84126975D01*
X122285711Y-84124692D01*
X122283465Y-84121938D01*
X122210264Y-84061381D01*
X122209729Y-84060935D01*
X122136926Y-83999846D01*
X122133811Y-83998134D01*
X122131075Y-83995870D01*
X122047501Y-83950682D01*
X122046763Y-83950279D01*
X121969012Y-83907535D01*
X121969011Y-83907535D01*
X121963613Y-83904567D01*
X121960230Y-83903494D01*
X121957101Y-83901802D01*
X121866374Y-83873718D01*
X121865558Y-83873462D01*
X121780965Y-83846627D01*
X121780961Y-83846626D01*
X121775094Y-83844765D01*
X121771563Y-83844369D01*
X121768168Y-83843318D01*
X121673693Y-83833389D01*
X121672979Y-83833311D01*
X121621173Y-83827500D01*
X121618600Y-83827500D01*
X121614624Y-83827180D01*
X121577604Y-83823289D01*
X121577602Y-83823289D01*
X121571475Y-83822645D01*
X121523830Y-83826981D01*
X121512410Y-83827500D01*
X99599058Y-83827500D01*
X99562222Y-83821995D01*
X99560207Y-83821379D01*
X99559784Y-83821249D01*
X99472586Y-83794257D01*
X99466968Y-83792518D01*
X99465200Y-83792332D01*
X99463502Y-83791813D01*
X99367004Y-83782011D01*
X99366740Y-83781984D01*
X99270275Y-83771845D01*
X99268508Y-83772006D01*
X99266738Y-83771826D01*
X99260856Y-83772382D01*
X99260855Y-83772382D01*
X99170022Y-83780968D01*
X99169585Y-83781008D01*
X99124469Y-83785114D01*
X99073312Y-83789770D01*
X99071607Y-83790272D01*
X99069838Y-83790439D01*
X99064189Y-83792123D01*
X99064184Y-83792124D01*
X98976928Y-83818136D01*
X98976507Y-83818261D01*
X98883581Y-83845610D01*
X98882005Y-83846434D01*
X98880304Y-83846941D01*
X98875094Y-83849688D01*
X98829770Y-83873585D01*
X98794452Y-83892206D01*
X98708310Y-83937240D01*
X98706925Y-83938354D01*
X98705354Y-83939182D01*
X98700772Y-83942892D01*
X98700768Y-83942895D01*
X98630118Y-84000107D01*
X98629776Y-84000383D01*
X98558791Y-84057456D01*
X98558788Y-84057459D01*
X98554175Y-84061168D01*
X98553032Y-84062531D01*
X98551653Y-84063647D01*
X98547863Y-84068196D01*
X98489725Y-84137975D01*
X98489443Y-84138312D01*
X98427046Y-84212674D01*
X98426188Y-84214235D01*
X98425054Y-84215596D01*
X98422237Y-84220763D01*
X98422234Y-84220767D01*
X98386887Y-84285597D01*
X98378575Y-84300842D01*
X98331767Y-84385987D01*
X98331231Y-84387676D01*
X98330378Y-84389241D01*
X98328620Y-84394852D01*
X98328618Y-84394856D01*
X98312432Y-84446509D01*
X98301274Y-84482114D01*
X98271965Y-84574506D01*
X98271767Y-84576270D01*
X98271235Y-84577968D01*
X98270600Y-84583815D01*
X98270599Y-84583819D01*
X98268723Y-84601091D01*
X98263167Y-84652245D01*
X98260789Y-84674135D01*
X98260741Y-84674573D01*
X98253245Y-84741403D01*
X98249919Y-84771051D01*
X98250068Y-84772823D01*
X98249876Y-84774588D01*
X95953700Y-84774588D01*
X95953700Y-83273925D01*
X95973702Y-83205804D01*
X95990605Y-83184830D01*
X98129975Y-81045460D01*
X113018888Y-81045460D01*
X113059961Y-81251945D01*
X113062449Y-81260917D01*
X113150095Y-81505033D01*
X113153895Y-81513568D01*
X113276658Y-81742042D01*
X113281669Y-81749908D01*
X113436867Y-81957743D01*
X113442973Y-81964767D01*
X113627188Y-82147381D01*
X113634270Y-82153430D01*
X113843452Y-82306809D01*
X113851351Y-82311745D01*
X114080905Y-82432519D01*
X114089454Y-82436236D01*
X114334327Y-82521749D01*
X114343336Y-82524163D01*
X114536201Y-82560780D01*
X114549261Y-82559496D01*
X114553885Y-82544963D01*
X115062000Y-82544963D01*
X115066171Y-82559168D01*
X115078934Y-82561223D01*
X115133765Y-82555218D01*
X115142919Y-82553522D01*
X115393758Y-82487481D01*
X115402574Y-82484445D01*
X115640880Y-82382062D01*
X115649167Y-82377748D01*
X115869713Y-82241269D01*
X115877273Y-82235776D01*
X116075225Y-82068198D01*
X116081883Y-82061655D01*
X116252901Y-81866646D01*
X116258509Y-81859205D01*
X116398832Y-81641048D01*
X116403275Y-81632864D01*
X116509807Y-81396370D01*
X116512997Y-81387605D01*
X116562231Y-81213037D01*
X116599973Y-81152904D01*
X116664234Y-81122721D01*
X116734612Y-81132071D01*
X116788762Y-81177987D01*
X116809500Y-81247239D01*
X116809500Y-82120134D01*
X116816255Y-82182316D01*
X116867385Y-82318705D01*
X116954739Y-82435261D01*
X117071295Y-82522615D01*
X117207684Y-82573745D01*
X117269866Y-82580500D01*
X119966134Y-82580500D01*
X120028316Y-82573745D01*
X120164705Y-82522615D01*
X120281261Y-82435261D01*
X120368615Y-82318705D01*
X120419745Y-82182316D01*
X120426500Y-82120134D01*
X120426500Y-79423866D01*
X120419745Y-79361684D01*
X120368615Y-79225295D01*
X120281261Y-79108739D01*
X120164705Y-79021385D01*
X120028316Y-78970255D01*
X119966134Y-78963500D01*
X117269866Y-78963500D01*
X117207684Y-78970255D01*
X117071295Y-79021385D01*
X116954739Y-79108739D01*
X116867385Y-79225295D01*
X116816255Y-79361684D01*
X116809500Y-79423866D01*
X116809500Y-80297008D01*
X116789498Y-80365129D01*
X116735842Y-80411622D01*
X116665568Y-80421726D01*
X116600988Y-80392232D01*
X116562604Y-80332506D01*
X116560607Y-80324816D01*
X116542878Y-80246467D01*
X116540154Y-80237556D01*
X116446143Y-79995806D01*
X116442132Y-79987397D01*
X116313422Y-79762202D01*
X116308211Y-79754476D01*
X116147627Y-79550776D01*
X116141333Y-79543908D01*
X115952410Y-79366186D01*
X115945156Y-79360312D01*
X115732045Y-79212471D01*
X115724010Y-79207738D01*
X115491376Y-79093016D01*
X115482743Y-79089528D01*
X115235711Y-79010452D01*
X115226629Y-79008272D01*
X115079880Y-78984372D01*
X115066286Y-78986068D01*
X115062000Y-79000178D01*
X115062000Y-82544963D01*
X114553885Y-82544963D01*
X114554000Y-82544600D01*
X114554000Y-81044115D01*
X114549525Y-81028876D01*
X114548135Y-81027671D01*
X114540452Y-81026000D01*
X113033132Y-81026000D01*
X113020731Y-81029641D01*
X113018888Y-81045460D01*
X98129975Y-81045460D01*
X98675461Y-80499974D01*
X113018164Y-80499974D01*
X113020924Y-80514703D01*
X113033102Y-80518000D01*
X114535885Y-80518000D01*
X114551124Y-80513525D01*
X114552329Y-80512135D01*
X114554000Y-80504452D01*
X114554000Y-78999931D01*
X114549982Y-78986247D01*
X114536290Y-78984226D01*
X114435682Y-78997918D01*
X114426546Y-78999860D01*
X114177543Y-79072439D01*
X114168800Y-79075707D01*
X113933252Y-79184296D01*
X113925097Y-79188816D01*
X113708186Y-79331029D01*
X113700781Y-79336712D01*
X113507279Y-79509419D01*
X113500794Y-79516135D01*
X113334941Y-79715551D01*
X113329529Y-79723138D01*
X113194965Y-79944891D01*
X113190736Y-79953192D01*
X113090432Y-80192389D01*
X113087471Y-80201239D01*
X113023628Y-80452625D01*
X113022006Y-80461822D01*
X113018164Y-80499974D01*
X98675461Y-80499974D01*
X103990997Y-75184437D01*
X104002509Y-75174251D01*
X104026047Y-75155861D01*
X104063887Y-75112023D01*
X104070159Y-75105275D01*
X104075509Y-75099925D01*
X104097759Y-75072838D01*
X104099677Y-75070559D01*
X104155278Y-75006145D01*
X104158324Y-75000783D01*
X104161874Y-74995751D01*
X104162130Y-74995932D01*
X104162224Y-74995794D01*
X104161964Y-74995620D01*
X104165389Y-74990504D01*
X104169303Y-74985739D01*
X104196903Y-74934266D01*
X104209472Y-74910825D01*
X104210960Y-74908129D01*
X104249921Y-74839545D01*
X104249922Y-74839543D01*
X104252969Y-74834179D01*
X104254916Y-74828324D01*
X104257419Y-74822703D01*
X104257705Y-74822830D01*
X104257769Y-74822681D01*
X104257480Y-74822561D01*
X104259849Y-74816870D01*
X104262762Y-74811437D01*
X104287619Y-74730133D01*
X104288547Y-74727226D01*
X104300863Y-74690205D01*
X104315397Y-74646513D01*
X104316170Y-74640398D01*
X104317535Y-74634390D01*
X104317838Y-74634459D01*
X104317874Y-74634292D01*
X104317568Y-74634230D01*
X104318784Y-74628200D01*
X104320587Y-74622302D01*
X104329178Y-74537732D01*
X104329526Y-74534675D01*
X104335559Y-74486918D01*
X104340185Y-74450295D01*
X104340524Y-74426033D01*
X104340574Y-74425538D01*
X104340536Y-74425138D01*
X104340580Y-74422000D01*
X104992835Y-74422000D01*
X105011465Y-74658711D01*
X105012619Y-74663518D01*
X105012620Y-74663524D01*
X105035635Y-74759388D01*
X105066895Y-74889594D01*
X105068788Y-74894165D01*
X105068789Y-74894167D01*
X105153034Y-75097553D01*
X105157760Y-75108963D01*
X105160346Y-75113183D01*
X105279241Y-75307202D01*
X105279245Y-75307208D01*
X105281824Y-75311416D01*
X105436031Y-75491969D01*
X105616584Y-75646176D01*
X105620792Y-75648755D01*
X105620798Y-75648759D01*
X105802583Y-75760157D01*
X105819037Y-75770240D01*
X105823607Y-75772133D01*
X105823611Y-75772135D01*
X106033833Y-75859211D01*
X106038406Y-75861105D01*
X106113473Y-75879127D01*
X106264476Y-75915380D01*
X106264482Y-75915381D01*
X106269289Y-75916535D01*
X106506000Y-75935165D01*
X106742711Y-75916535D01*
X106747518Y-75915381D01*
X106747524Y-75915380D01*
X106898527Y-75879127D01*
X106973594Y-75861105D01*
X106978167Y-75859211D01*
X107188389Y-75772135D01*
X107188393Y-75772133D01*
X107192963Y-75770240D01*
X107209417Y-75760157D01*
X107391202Y-75648759D01*
X107391208Y-75648755D01*
X107395416Y-75646176D01*
X107575969Y-75491969D01*
X107730176Y-75311416D01*
X107732755Y-75307208D01*
X107732759Y-75307202D01*
X107851654Y-75113183D01*
X107854240Y-75108963D01*
X107858967Y-75097553D01*
X107943211Y-74894167D01*
X107943212Y-74894165D01*
X107945105Y-74889594D01*
X107976365Y-74759388D01*
X107999380Y-74663524D01*
X107999381Y-74663518D01*
X108000535Y-74658711D01*
X108019165Y-74422000D01*
X114992835Y-74422000D01*
X115011465Y-74658711D01*
X115012619Y-74663518D01*
X115012620Y-74663524D01*
X115035635Y-74759388D01*
X115066895Y-74889594D01*
X115068788Y-74894165D01*
X115068789Y-74894167D01*
X115153034Y-75097553D01*
X115157760Y-75108963D01*
X115160346Y-75113183D01*
X115279241Y-75307202D01*
X115279245Y-75307208D01*
X115281824Y-75311416D01*
X115436031Y-75491969D01*
X115616584Y-75646176D01*
X115620792Y-75648755D01*
X115620798Y-75648759D01*
X115802583Y-75760157D01*
X115819037Y-75770240D01*
X115823607Y-75772133D01*
X115823611Y-75772135D01*
X116033833Y-75859211D01*
X116038406Y-75861105D01*
X116113473Y-75879127D01*
X116264476Y-75915380D01*
X116264482Y-75915381D01*
X116269289Y-75916535D01*
X116506000Y-75935165D01*
X116742711Y-75916535D01*
X116747518Y-75915381D01*
X116747524Y-75915380D01*
X116898527Y-75879127D01*
X116973594Y-75861105D01*
X116978167Y-75859211D01*
X117188389Y-75772135D01*
X117188393Y-75772133D01*
X117192963Y-75770240D01*
X117209417Y-75760157D01*
X117391202Y-75648759D01*
X117391208Y-75648755D01*
X117395416Y-75646176D01*
X117575969Y-75491969D01*
X117730176Y-75311416D01*
X117732755Y-75307208D01*
X117732759Y-75307202D01*
X117851654Y-75113183D01*
X117854240Y-75108963D01*
X117858967Y-75097553D01*
X117943211Y-74894167D01*
X117943212Y-74894165D01*
X117945105Y-74889594D01*
X117976365Y-74759388D01*
X117999380Y-74663524D01*
X117999381Y-74663518D01*
X118000535Y-74658711D01*
X118019165Y-74422000D01*
X118000535Y-74185289D01*
X117987802Y-74132249D01*
X117946260Y-73959218D01*
X117945105Y-73954406D01*
X117907271Y-73863065D01*
X117856135Y-73739611D01*
X117856133Y-73739607D01*
X117854240Y-73735037D01*
X117838727Y-73709722D01*
X117732759Y-73536798D01*
X117732755Y-73536792D01*
X117730176Y-73532584D01*
X117575969Y-73352031D01*
X117395416Y-73197824D01*
X117391208Y-73195245D01*
X117391202Y-73195241D01*
X117197183Y-73076346D01*
X117192963Y-73073760D01*
X117188393Y-73071867D01*
X117188389Y-73071865D01*
X116978167Y-72984789D01*
X116978165Y-72984788D01*
X116973594Y-72982895D01*
X116893391Y-72963640D01*
X116747524Y-72928620D01*
X116747518Y-72928619D01*
X116742711Y-72927465D01*
X116506000Y-72908835D01*
X116269289Y-72927465D01*
X116264482Y-72928619D01*
X116264476Y-72928620D01*
X116118609Y-72963640D01*
X116038406Y-72982895D01*
X116033835Y-72984788D01*
X116033833Y-72984789D01*
X115823611Y-73071865D01*
X115823607Y-73071867D01*
X115819037Y-73073760D01*
X115814817Y-73076346D01*
X115620798Y-73195241D01*
X115620792Y-73195245D01*
X115616584Y-73197824D01*
X115436031Y-73352031D01*
X115281824Y-73532584D01*
X115279245Y-73536792D01*
X115279241Y-73536798D01*
X115173273Y-73709722D01*
X115157760Y-73735037D01*
X115155867Y-73739607D01*
X115155865Y-73739611D01*
X115104729Y-73863065D01*
X115066895Y-73954406D01*
X115065740Y-73959218D01*
X115024199Y-74132249D01*
X115011465Y-74185289D01*
X114992835Y-74422000D01*
X108019165Y-74422000D01*
X108000535Y-74185289D01*
X107987802Y-74132249D01*
X107946260Y-73959218D01*
X107945105Y-73954406D01*
X107907271Y-73863065D01*
X107856135Y-73739611D01*
X107856133Y-73739607D01*
X107854240Y-73735037D01*
X107838727Y-73709722D01*
X107732759Y-73536798D01*
X107732755Y-73536792D01*
X107730176Y-73532584D01*
X107575969Y-73352031D01*
X107395416Y-73197824D01*
X107391208Y-73195245D01*
X107391202Y-73195241D01*
X107197183Y-73076346D01*
X107192963Y-73073760D01*
X107188393Y-73071867D01*
X107188389Y-73071865D01*
X106978167Y-72984789D01*
X106978165Y-72984788D01*
X106973594Y-72982895D01*
X106893391Y-72963640D01*
X106747524Y-72928620D01*
X106747518Y-72928619D01*
X106742711Y-72927465D01*
X106506000Y-72908835D01*
X106269289Y-72927465D01*
X106264482Y-72928619D01*
X106264476Y-72928620D01*
X106118609Y-72963640D01*
X106038406Y-72982895D01*
X106033835Y-72984788D01*
X106033833Y-72984789D01*
X105823611Y-73071865D01*
X105823607Y-73071867D01*
X105819037Y-73073760D01*
X105814817Y-73076346D01*
X105620798Y-73195241D01*
X105620792Y-73195245D01*
X105616584Y-73197824D01*
X105436031Y-73352031D01*
X105281824Y-73532584D01*
X105279245Y-73536792D01*
X105279241Y-73536798D01*
X105173273Y-73709722D01*
X105157760Y-73735037D01*
X105155867Y-73739607D01*
X105155865Y-73739611D01*
X105104729Y-73863065D01*
X105066895Y-73954406D01*
X105065740Y-73959218D01*
X105024199Y-74132249D01*
X105011465Y-74185289D01*
X104992835Y-74422000D01*
X104340580Y-74422000D01*
X104334716Y-74362195D01*
X104331120Y-74325517D01*
X104331078Y-74325080D01*
X104322518Y-74234526D01*
X104322517Y-74234522D01*
X104321961Y-74228638D01*
X104321453Y-74226935D01*
X104321280Y-74225167D01*
X104319575Y-74219521D01*
X104319574Y-74219514D01*
X104293354Y-74132669D01*
X104293227Y-74132249D01*
X104267137Y-74044732D01*
X104267136Y-74044730D01*
X104265459Y-74039104D01*
X104264629Y-74037529D01*
X104264116Y-74035831D01*
X104218523Y-73950083D01*
X104173218Y-73864154D01*
X104172101Y-73862775D01*
X104171266Y-73861204D01*
X104109787Y-73785823D01*
X104109631Y-73785630D01*
X104052453Y-73715021D01*
X104052448Y-73715016D01*
X104048753Y-73710453D01*
X104047390Y-73709317D01*
X104046265Y-73707938D01*
X103971280Y-73645905D01*
X103896804Y-73583854D01*
X103895247Y-73583005D01*
X103893875Y-73581870D01*
X103808360Y-73535632D01*
X103723159Y-73489178D01*
X103721463Y-73488646D01*
X103719901Y-73487802D01*
X103711279Y-73485133D01*
X103627363Y-73459157D01*
X103626943Y-73459026D01*
X103593343Y-73448496D01*
X103534432Y-73430035D01*
X103532664Y-73429843D01*
X103530968Y-73429318D01*
X103525117Y-73428703D01*
X103525112Y-73428702D01*
X103458171Y-73421667D01*
X103434419Y-73419170D01*
X103434256Y-73419152D01*
X103337811Y-73408676D01*
X103336042Y-73408831D01*
X103334275Y-73408645D01*
X103328396Y-73409180D01*
X103238024Y-73417404D01*
X103237587Y-73417444D01*
X103146648Y-73425400D01*
X103146646Y-73425400D01*
X103140787Y-73425913D01*
X103139079Y-73426409D01*
X103137312Y-73426570D01*
X103131681Y-73428227D01*
X103131672Y-73428229D01*
X103044143Y-73453991D01*
X103043996Y-73454034D01*
X102950864Y-73481091D01*
X102949289Y-73481907D01*
X102947581Y-73482410D01*
X102942374Y-73485132D01*
X102942372Y-73485133D01*
X102861586Y-73527367D01*
X102861292Y-73527520D01*
X102775274Y-73572108D01*
X102773886Y-73573216D01*
X102772310Y-73574040D01*
X102696647Y-73634875D01*
X102654227Y-73668738D01*
X102653304Y-73669661D01*
X102651888Y-73670862D01*
X102618175Y-73697968D01*
X102614208Y-73702696D01*
X102586133Y-73736154D01*
X102578707Y-73744258D01*
X94275821Y-82047145D01*
X94265678Y-82056247D01*
X94236175Y-82079968D01*
X94232208Y-82084696D01*
X94203909Y-82118421D01*
X94200728Y-82122069D01*
X94199085Y-82123881D01*
X94196891Y-82126075D01*
X94169558Y-82159349D01*
X94168896Y-82160147D01*
X94109046Y-82231474D01*
X94106478Y-82236144D01*
X94103097Y-82240261D01*
X94072060Y-82298145D01*
X94059223Y-82322086D01*
X94058594Y-82323245D01*
X94016738Y-82399381D01*
X94016735Y-82399389D01*
X94013767Y-82404787D01*
X94012155Y-82409869D01*
X94009638Y-82414563D01*
X93982438Y-82503531D01*
X93982118Y-82504559D01*
X93953965Y-82593306D01*
X93953371Y-82598602D01*
X93951813Y-82603698D01*
X93951190Y-82609834D01*
X93942418Y-82696187D01*
X93942289Y-82697393D01*
X93936700Y-82747227D01*
X93936700Y-82750754D01*
X93936645Y-82751739D01*
X93936198Y-82757419D01*
X93931826Y-82800462D01*
X93932406Y-82806593D01*
X93936141Y-82846109D01*
X93936700Y-82857967D01*
X93936700Y-98996181D01*
X93935915Y-99010225D01*
X93931919Y-99045851D01*
X93932435Y-99051995D01*
X93936258Y-99097524D01*
X93936514Y-99103619D01*
X93936550Y-99103617D01*
X93936700Y-99106684D01*
X93936700Y-99109769D01*
X93937001Y-99112837D01*
X93940698Y-99150549D01*
X93940857Y-99152299D01*
X93948468Y-99242934D01*
X93950125Y-99248714D01*
X93950163Y-99248904D01*
X93950495Y-99250645D01*
X93950534Y-99250858D01*
X93951120Y-99256833D01*
X93952902Y-99262735D01*
X93977391Y-99343848D01*
X93977888Y-99345535D01*
X93981144Y-99356889D01*
X94002983Y-99433050D01*
X94005733Y-99438399D01*
X94005800Y-99438563D01*
X94006440Y-99440148D01*
X94006551Y-99440429D01*
X94008284Y-99446169D01*
X94011175Y-99451606D01*
X94011179Y-99451616D01*
X94051024Y-99526553D01*
X94051768Y-99527975D01*
X94093387Y-99608956D01*
X94097114Y-99613659D01*
X94097260Y-99613878D01*
X94098217Y-99615340D01*
X94098309Y-99615482D01*
X94101134Y-99620796D01*
X94135206Y-99662572D01*
X94158639Y-99691304D01*
X94159731Y-99692663D01*
X94216235Y-99763953D01*
X94220813Y-99767849D01*
X94220943Y-99767980D01*
X94222183Y-99769246D01*
X94222338Y-99769407D01*
X94226135Y-99774062D01*
X94273573Y-99813306D01*
X94296197Y-99832022D01*
X94297545Y-99833153D01*
X94362160Y-99888145D01*
X94362163Y-99888147D01*
X94366850Y-99892136D01*
X94372098Y-99895069D01*
X94372274Y-99895188D01*
X94373748Y-99896198D01*
X94373895Y-99896300D01*
X94378525Y-99900130D01*
X94383945Y-99903060D01*
X94383947Y-99903062D01*
X94458535Y-99943392D01*
X94460076Y-99944239D01*
X94534117Y-99985619D01*
X94539494Y-99988624D01*
X94545209Y-99990481D01*
X94545383Y-99990554D01*
X94546985Y-99991241D01*
X94547222Y-99991345D01*
X94552499Y-99994198D01*
X94558388Y-99996021D01*
X94639434Y-100021109D01*
X94641097Y-100021637D01*
X94727592Y-100049740D01*
X94733554Y-100050451D01*
X94733774Y-100050496D01*
X94735491Y-100050861D01*
X94735693Y-100050905D01*
X94741432Y-100052682D01*
X94747559Y-100053326D01*
X94831876Y-100062188D01*
X94833624Y-100062384D01*
X94890024Y-100069109D01*
X94923977Y-100073158D01*
X94929972Y-100072697D01*
X94930120Y-100072698D01*
X94931868Y-100072722D01*
X94932157Y-100072728D01*
X94938125Y-100073355D01*
X95028712Y-100065111D01*
X95030348Y-100064973D01*
X95121172Y-100057984D01*
X95126960Y-100056368D01*
X95127149Y-100056332D01*
X95128885Y-100056013D01*
X95129100Y-100055975D01*
X95135088Y-100055430D01*
X95140994Y-100053692D01*
X95140998Y-100053691D01*
X95222371Y-100029742D01*
X95224062Y-100029257D01*
X95300817Y-100007827D01*
X95371807Y-100008774D01*
X95431016Y-100047950D01*
X95459645Y-100112919D01*
X95460700Y-100129186D01*
X95460700Y-100520474D01*
X95440698Y-100588595D01*
X95423796Y-100609569D01*
X94869171Y-101164195D01*
X94806858Y-101198220D01*
X94780075Y-101201100D01*
X92719073Y-101201100D01*
X92705903Y-101200410D01*
X92672404Y-101196889D01*
X92672402Y-101196889D01*
X92666275Y-101196245D01*
X92616027Y-101200818D01*
X92611993Y-101201100D01*
X92609431Y-101201100D01*
X92606373Y-101201400D01*
X92606369Y-101201400D01*
X92564604Y-101205495D01*
X92563729Y-101205577D01*
X92542030Y-101207552D01*
X92469312Y-101214170D01*
X92465903Y-101215173D01*
X92462367Y-101215520D01*
X92371479Y-101242961D01*
X92370810Y-101243161D01*
X92279581Y-101270010D01*
X92276428Y-101271658D01*
X92273031Y-101272684D01*
X92267601Y-101275571D01*
X92267599Y-101275572D01*
X92259653Y-101279797D01*
X92189099Y-101317311D01*
X92188519Y-101317616D01*
X92104310Y-101361640D01*
X92101542Y-101363865D01*
X92098404Y-101365534D01*
X92093626Y-101369431D01*
X92024828Y-101425541D01*
X92024144Y-101426094D01*
X91954982Y-101481702D01*
X91954976Y-101481708D01*
X91950175Y-101485568D01*
X91947892Y-101488289D01*
X91945138Y-101490535D01*
X91884771Y-101563507D01*
X91884641Y-101563664D01*
X91884135Y-101564271D01*
X91823046Y-101637074D01*
X91821334Y-101640189D01*
X91819070Y-101642925D01*
X91781128Y-101713098D01*
X91773900Y-101726465D01*
X91773498Y-101727203D01*
X91727767Y-101810387D01*
X91726694Y-101813770D01*
X91725002Y-101816899D01*
X91723178Y-101822792D01*
X91696925Y-101907602D01*
X91696662Y-101908442D01*
X91678030Y-101967178D01*
X91667965Y-101998906D01*
X91667569Y-102002437D01*
X91666518Y-102005832D01*
X91665874Y-102011963D01*
X91656597Y-102100225D01*
X91656502Y-102101100D01*
X91646606Y-102189325D01*
X91645919Y-102195451D01*
X91646216Y-102198992D01*
X91645845Y-102202525D01*
X91654454Y-102297118D01*
X91654510Y-102297759D01*
X91662468Y-102392534D01*
X91663448Y-102395953D01*
X91663770Y-102399488D01*
X91688645Y-102484007D01*
X91690564Y-102490528D01*
X91690777Y-102491260D01*
X91716983Y-102582650D01*
X91718606Y-102585808D01*
X91719610Y-102589219D01*
X91730229Y-102609531D01*
X91763610Y-102673383D01*
X91764014Y-102674163D01*
X91799393Y-102743002D01*
X91807387Y-102758556D01*
X91809593Y-102761339D01*
X91811240Y-102764490D01*
X91870666Y-102838400D01*
X91871215Y-102839088D01*
X91901672Y-102877515D01*
X91930235Y-102913553D01*
X91932943Y-102915858D01*
X91935168Y-102918625D01*
X92007981Y-102979723D01*
X92008447Y-102980116D01*
X92080850Y-103041736D01*
X92083951Y-103043469D01*
X92086674Y-103045754D01*
X92092069Y-103048720D01*
X92092072Y-103048722D01*
X92169918Y-103091519D01*
X92170685Y-103091944D01*
X92253494Y-103138224D01*
X92256877Y-103139323D01*
X92259987Y-103141033D01*
X92265868Y-103142898D01*
X92265869Y-103142899D01*
X92350433Y-103169724D01*
X92351271Y-103169993D01*
X92435732Y-103197436D01*
X92441592Y-103199340D01*
X92445119Y-103199761D01*
X92448506Y-103200835D01*
X92454627Y-103201522D01*
X92454629Y-103201522D01*
X92542794Y-103211411D01*
X92543668Y-103211512D01*
X92637977Y-103222758D01*
X92644112Y-103222286D01*
X92644114Y-103222286D01*
X92693689Y-103218471D01*
X92703356Y-103218100D01*
X94135399Y-103218100D01*
X94203520Y-103238102D01*
X94250013Y-103291758D01*
X94260117Y-103362032D01*
X94230623Y-103426612D01*
X94207672Y-103447311D01*
X94128421Y-103502803D01*
X93972215Y-103659009D01*
X93845507Y-103839968D01*
X93843186Y-103844946D01*
X93843184Y-103844949D01*
X93794502Y-103949349D01*
X93752147Y-104040179D01*
X93694971Y-104253561D01*
X93675718Y-104473629D01*
X93694971Y-104693697D01*
X93696395Y-104699010D01*
X93746548Y-104886182D01*
X93752147Y-104907079D01*
X93754469Y-104912060D01*
X93754470Y-104912061D01*
X93786885Y-104981574D01*
X93845507Y-105107290D01*
X93972215Y-105288249D01*
X94128421Y-105444455D01*
X94132929Y-105447612D01*
X94132932Y-105447614D01*
X94239047Y-105521916D01*
X94283375Y-105577373D01*
X94290684Y-105647992D01*
X94258653Y-105711353D01*
X94197452Y-105747338D01*
X94166776Y-105751129D01*
X94140907Y-105751129D01*
X94078725Y-105757884D01*
X93942336Y-105809014D01*
X93825780Y-105896368D01*
X93738426Y-106012924D01*
X93687296Y-106149313D01*
X93680541Y-106211495D01*
X93680541Y-107815763D01*
X93687296Y-107877945D01*
X93738426Y-108014334D01*
X93825780Y-108130890D01*
X93942336Y-108218244D01*
X94078725Y-108269374D01*
X94140907Y-108276129D01*
X94541879Y-108276129D01*
X94610000Y-108296131D01*
X94630974Y-108313034D01*
X95322845Y-109004905D01*
X95356871Y-109067217D01*
X95351806Y-109138032D01*
X95309259Y-109194868D01*
X95242739Y-109219679D01*
X95233750Y-109220000D01*
X83103305Y-109220000D01*
X83035184Y-109199998D01*
X83020227Y-109188731D01*
X82893796Y-109077853D01*
X82882148Y-109066206D01*
X82717818Y-108878823D01*
X82707791Y-108865755D01*
X82571235Y-108661386D01*
X82550000Y-108591384D01*
X82550000Y-105571500D01*
X83293151Y-105571500D01*
X83293246Y-105575130D01*
X83293246Y-105575131D01*
X83302114Y-105913772D01*
X83302233Y-105918330D01*
X83351119Y-106261819D01*
X83439160Y-106597412D01*
X83565190Y-106920662D01*
X83566887Y-106923867D01*
X83700376Y-107175984D01*
X83727538Y-107227285D01*
X83729588Y-107230268D01*
X83729590Y-107230271D01*
X83921996Y-107510223D01*
X83922002Y-107510230D01*
X83924053Y-107513215D01*
X83932003Y-107522328D01*
X84105988Y-107721771D01*
X84152129Y-107774664D01*
X84211018Y-107828249D01*
X84364531Y-107967934D01*
X84408744Y-108008165D01*
X84690496Y-108210625D01*
X84993651Y-108379359D01*
X85314191Y-108512131D01*
X85317685Y-108513126D01*
X85317687Y-108513127D01*
X85644366Y-108606184D01*
X85644371Y-108606185D01*
X85647867Y-108607181D01*
X85844567Y-108639392D01*
X85986675Y-108662663D01*
X85986682Y-108662664D01*
X85990256Y-108663249D01*
X86163539Y-108671421D01*
X86333194Y-108679422D01*
X86333195Y-108679422D01*
X86336821Y-108679593D01*
X86345678Y-108678989D01*
X86679336Y-108656243D01*
X86679344Y-108656242D01*
X86682967Y-108655995D01*
X86686542Y-108655332D01*
X86686545Y-108655332D01*
X87020542Y-108593429D01*
X87020546Y-108593428D01*
X87024107Y-108592768D01*
X87355719Y-108490751D01*
X87673408Y-108351295D01*
X87767811Y-108296131D01*
X87969823Y-108178085D01*
X87969825Y-108178084D01*
X87972963Y-108176250D01*
X88117653Y-108067614D01*
X88247507Y-107970117D01*
X88247511Y-107970114D01*
X88250414Y-107967934D01*
X88502082Y-107729109D01*
X88724633Y-107462942D01*
X88731894Y-107451889D01*
X88875218Y-107233697D01*
X88915116Y-107172958D01*
X89043709Y-106917280D01*
X89069380Y-106866239D01*
X89069383Y-106866231D01*
X89071007Y-106863003D01*
X89096419Y-106793561D01*
X89188992Y-106540596D01*
X89188993Y-106540592D01*
X89190240Y-106537185D01*
X89191085Y-106533663D01*
X89191088Y-106533655D01*
X89270387Y-106203350D01*
X89270388Y-106203346D01*
X89271234Y-106199821D01*
X89272322Y-106190829D01*
X89312579Y-105858163D01*
X89312579Y-105858156D01*
X89312915Y-105855384D01*
X89314252Y-105812864D01*
X89318586Y-105674946D01*
X89318862Y-105666159D01*
X89318701Y-105663363D01*
X89299099Y-105323405D01*
X89299098Y-105323400D01*
X89298890Y-105319785D01*
X89271371Y-105162108D01*
X89239863Y-104981574D01*
X89239861Y-104981567D01*
X89239239Y-104978001D01*
X89218973Y-104909582D01*
X89153401Y-104688218D01*
X89140700Y-104645339D01*
X89101526Y-104553496D01*
X89006003Y-104329545D01*
X89006001Y-104329542D01*
X89004579Y-104326207D01*
X88954832Y-104238990D01*
X88834471Y-104027975D01*
X88832680Y-104024835D01*
X88627281Y-103745219D01*
X88391105Y-103491063D01*
X88127282Y-103265737D01*
X87839310Y-103072228D01*
X87807325Y-103055719D01*
X87534224Y-102914761D01*
X87531004Y-102913099D01*
X87206452Y-102790461D01*
X87202931Y-102789577D01*
X87202926Y-102789575D01*
X86972653Y-102731735D01*
X86869955Y-102705939D01*
X86847739Y-102703014D01*
X86529578Y-102661127D01*
X86529570Y-102661126D01*
X86525974Y-102660653D01*
X86381308Y-102658380D01*
X86182709Y-102655260D01*
X86182705Y-102655260D01*
X86179067Y-102655203D01*
X86175453Y-102655564D01*
X86175447Y-102655564D01*
X85932106Y-102679853D01*
X85833832Y-102689662D01*
X85494846Y-102763573D01*
X85491419Y-102764746D01*
X85491413Y-102764748D01*
X85170028Y-102874783D01*
X85166602Y-102875956D01*
X84853451Y-103025322D01*
X84559542Y-103209691D01*
X84556706Y-103211963D01*
X84556699Y-103211968D01*
X84347355Y-103379684D01*
X84288772Y-103426618D01*
X84044729Y-103673230D01*
X84042488Y-103676088D01*
X83917326Y-103835714D01*
X83830649Y-103946257D01*
X83828756Y-103949346D01*
X83828754Y-103949349D01*
X83782496Y-104024835D01*
X83649368Y-104242080D01*
X83647843Y-104245365D01*
X83647841Y-104245369D01*
X83608768Y-104329545D01*
X83503290Y-104556779D01*
X83394350Y-104886182D01*
X83393614Y-104889737D01*
X83393613Y-104889740D01*
X83337208Y-105162108D01*
X83323993Y-105225923D01*
X83323671Y-105229534D01*
X83293502Y-105567571D01*
X83293151Y-105571500D01*
X82550000Y-105571500D01*
X82550000Y-98895332D01*
X84207800Y-98895332D01*
X84208085Y-98901308D01*
X84222271Y-99049994D01*
X84224530Y-99061728D01*
X84280672Y-99253099D01*
X84285102Y-99264175D01*
X84376419Y-99441478D01*
X84382869Y-99451524D01*
X84506062Y-99608357D01*
X84514299Y-99617006D01*
X84664923Y-99747712D01*
X84674647Y-99754647D01*
X84847267Y-99854510D01*
X84858131Y-99859484D01*
X85046527Y-99924907D01*
X85047516Y-99925148D01*
X85057808Y-99923680D01*
X85061800Y-99910115D01*
X85061800Y-99905902D01*
X85569800Y-99905902D01*
X85573773Y-99919433D01*
X85583199Y-99920788D01*
X85672337Y-99899306D01*
X85683632Y-99895417D01*
X85865182Y-99812871D01*
X85875524Y-99806924D01*
X86038197Y-99691532D01*
X86047225Y-99683739D01*
X86185142Y-99539669D01*
X86192541Y-99530300D01*
X86210218Y-99502923D01*
X86263972Y-99456545D01*
X86334268Y-99446591D01*
X86398785Y-99476222D01*
X86415156Y-99493437D01*
X86509404Y-99613420D01*
X86513935Y-99617352D01*
X86513938Y-99617355D01*
X86599157Y-99691304D01*
X86669163Y-99752052D01*
X86674349Y-99755052D01*
X86674353Y-99755055D01*
X86770757Y-99810826D01*
X86852254Y-99857973D01*
X87052071Y-99927361D01*
X87058006Y-99928222D01*
X87058008Y-99928222D01*
X87255464Y-99956852D01*
X87255467Y-99956852D01*
X87261404Y-99957713D01*
X87472699Y-99947933D01*
X87603877Y-99916319D01*
X87672501Y-99899781D01*
X87672503Y-99899780D01*
X87678334Y-99898375D01*
X87683792Y-99895893D01*
X87683796Y-99895892D01*
X87798841Y-99843584D01*
X87870887Y-99810826D01*
X88043411Y-99688446D01*
X88189681Y-99535650D01*
X88205410Y-99511291D01*
X88210546Y-99503337D01*
X88264301Y-99456960D01*
X88334597Y-99447007D01*
X88399114Y-99476639D01*
X88415481Y-99493851D01*
X88509404Y-99613420D01*
X88513935Y-99617352D01*
X88513938Y-99617355D01*
X88599157Y-99691304D01*
X88669163Y-99752052D01*
X88674349Y-99755052D01*
X88674353Y-99755055D01*
X88770757Y-99810826D01*
X88852254Y-99857973D01*
X89052071Y-99927361D01*
X89058006Y-99928222D01*
X89058008Y-99928222D01*
X89255464Y-99956852D01*
X89255467Y-99956852D01*
X89261404Y-99957713D01*
X89472699Y-99947933D01*
X89603877Y-99916319D01*
X89672501Y-99899781D01*
X89672503Y-99899780D01*
X89678334Y-99898375D01*
X89683792Y-99895893D01*
X89683796Y-99895892D01*
X89798841Y-99843584D01*
X89870887Y-99810826D01*
X90043411Y-99688446D01*
X90047553Y-99684119D01*
X90047559Y-99684114D01*
X90134606Y-99593183D01*
X90196161Y-99557806D01*
X90267070Y-99561325D01*
X90324821Y-99602621D01*
X90332765Y-99614004D01*
X90367322Y-99669848D01*
X90492497Y-99794805D01*
X90498727Y-99798645D01*
X90498728Y-99798646D01*
X90635890Y-99883194D01*
X90643062Y-99887615D01*
X90679742Y-99899781D01*
X90804411Y-99941132D01*
X90804413Y-99941132D01*
X90810939Y-99943297D01*
X90817775Y-99943997D01*
X90817778Y-99943998D01*
X90856186Y-99947933D01*
X90915400Y-99954000D01*
X91716200Y-99954000D01*
X91719446Y-99953663D01*
X91719450Y-99953663D01*
X91815108Y-99943738D01*
X91815112Y-99943737D01*
X91821966Y-99943026D01*
X91828502Y-99940845D01*
X91828504Y-99940845D01*
X91964667Y-99895417D01*
X91989746Y-99887050D01*
X92140148Y-99793978D01*
X92265105Y-99668803D01*
X92298881Y-99614009D01*
X92354075Y-99524468D01*
X92354076Y-99524466D01*
X92357915Y-99518238D01*
X92413597Y-99350361D01*
X92424300Y-99245900D01*
X92424300Y-97895100D01*
X92413326Y-97789334D01*
X92408512Y-97774903D01*
X92359668Y-97628502D01*
X92357350Y-97621554D01*
X92264278Y-97471152D01*
X92139103Y-97346195D01*
X92132872Y-97342354D01*
X91994768Y-97257225D01*
X91994766Y-97257224D01*
X91988538Y-97253385D01*
X91876817Y-97216329D01*
X91827189Y-97199868D01*
X91827187Y-97199868D01*
X91820661Y-97197703D01*
X91813825Y-97197003D01*
X91813822Y-97197002D01*
X91770769Y-97192591D01*
X91716200Y-97187000D01*
X90915400Y-97187000D01*
X90912154Y-97187337D01*
X90912150Y-97187337D01*
X90816492Y-97197262D01*
X90816488Y-97197263D01*
X90809634Y-97197974D01*
X90803098Y-97200155D01*
X90803096Y-97200155D01*
X90698360Y-97235098D01*
X90641854Y-97253950D01*
X90491452Y-97347022D01*
X90366495Y-97472197D01*
X90362655Y-97478427D01*
X90362654Y-97478428D01*
X90334726Y-97523736D01*
X90281954Y-97571229D01*
X90211882Y-97582653D01*
X90146758Y-97554379D01*
X90128382Y-97535455D01*
X90122196Y-97527580D01*
X90117665Y-97523648D01*
X90117662Y-97523645D01*
X89966967Y-97392879D01*
X89962437Y-97388948D01*
X89957251Y-97385948D01*
X89957247Y-97385945D01*
X89784542Y-97286033D01*
X89779346Y-97283027D01*
X89579529Y-97213639D01*
X89573594Y-97212778D01*
X89573592Y-97212778D01*
X89376136Y-97184148D01*
X89376133Y-97184148D01*
X89370196Y-97183287D01*
X89158901Y-97193067D01*
X89046266Y-97220212D01*
X88959099Y-97241219D01*
X88959097Y-97241220D01*
X88953266Y-97242625D01*
X88947808Y-97245107D01*
X88947804Y-97245108D01*
X88856790Y-97286490D01*
X88760713Y-97330174D01*
X88588189Y-97452554D01*
X88441919Y-97605350D01*
X88438666Y-97610388D01*
X88421054Y-97637663D01*
X88367299Y-97684040D01*
X88297003Y-97693993D01*
X88232486Y-97664361D01*
X88216117Y-97647147D01*
X88214084Y-97644558D01*
X88122196Y-97527580D01*
X88117665Y-97523648D01*
X88117662Y-97523645D01*
X87966967Y-97392879D01*
X87962437Y-97388948D01*
X87957251Y-97385948D01*
X87957247Y-97385945D01*
X87784542Y-97286033D01*
X87779346Y-97283027D01*
X87579529Y-97213639D01*
X87573594Y-97212778D01*
X87573592Y-97212778D01*
X87376136Y-97184148D01*
X87376133Y-97184148D01*
X87370196Y-97183287D01*
X87158901Y-97193067D01*
X87046266Y-97220212D01*
X86959099Y-97241219D01*
X86959097Y-97241220D01*
X86953266Y-97242625D01*
X86947808Y-97245107D01*
X86947804Y-97245108D01*
X86856790Y-97286490D01*
X86760713Y-97330174D01*
X86588189Y-97452554D01*
X86441919Y-97605350D01*
X86438670Y-97610381D01*
X86438665Y-97610388D01*
X86420767Y-97638107D01*
X86367011Y-97684484D01*
X86296715Y-97694437D01*
X86232198Y-97664804D01*
X86215830Y-97647591D01*
X86125538Y-97532643D01*
X86117301Y-97523994D01*
X85966677Y-97393288D01*
X85956953Y-97386353D01*
X85784333Y-97286490D01*
X85773469Y-97281516D01*
X85585073Y-97216093D01*
X85584084Y-97215852D01*
X85573792Y-97217320D01*
X85569800Y-97230885D01*
X85569800Y-99905902D01*
X85061800Y-99905902D01*
X85061800Y-98842615D01*
X85057325Y-98827376D01*
X85055935Y-98826171D01*
X85048252Y-98824500D01*
X84225915Y-98824500D01*
X84210676Y-98828975D01*
X84209471Y-98830365D01*
X84207800Y-98838048D01*
X84207800Y-98895332D01*
X82550000Y-98895332D01*
X82550000Y-98298385D01*
X84207800Y-98298385D01*
X84212275Y-98313624D01*
X84213665Y-98314829D01*
X84221348Y-98316500D01*
X85043685Y-98316500D01*
X85058924Y-98312025D01*
X85060129Y-98310635D01*
X85061800Y-98302952D01*
X85061800Y-97235098D01*
X85057827Y-97221567D01*
X85048401Y-97220212D01*
X84959263Y-97241694D01*
X84947968Y-97245583D01*
X84766418Y-97328129D01*
X84756076Y-97334076D01*
X84593403Y-97449468D01*
X84584375Y-97457261D01*
X84446458Y-97601331D01*
X84439062Y-97610696D01*
X84330879Y-97778241D01*
X84325383Y-97788845D01*
X84250839Y-97973812D01*
X84247445Y-97985270D01*
X84208943Y-98182428D01*
X84207866Y-98191291D01*
X84207800Y-98194000D01*
X84207800Y-98298385D01*
X82550000Y-98298385D01*
X82550000Y-89492106D01*
X85838439Y-89492106D01*
X85847153Y-89503627D01*
X85954052Y-89582009D01*
X85961951Y-89586945D01*
X86191505Y-89707719D01*
X86200054Y-89711436D01*
X86444927Y-89796949D01*
X86453936Y-89799363D01*
X86708766Y-89847744D01*
X86718023Y-89848798D01*
X86977207Y-89858983D01*
X86986521Y-89858657D01*
X87244353Y-89830420D01*
X87253530Y-89828719D01*
X87504358Y-89762681D01*
X87513174Y-89759645D01*
X87751480Y-89657262D01*
X87759767Y-89652948D01*
X87980318Y-89516466D01*
X87987868Y-89510980D01*
X87993159Y-89506501D01*
X88001597Y-89493697D01*
X87995535Y-89483345D01*
X86931412Y-88419222D01*
X86917468Y-88411608D01*
X86915635Y-88411739D01*
X86909020Y-88415990D01*
X85845097Y-89479913D01*
X85838439Y-89492106D01*
X82550000Y-89492106D01*
X82550000Y-88004411D01*
X85106375Y-88004411D01*
X85118820Y-88263488D01*
X85119956Y-88272743D01*
X85170561Y-88527145D01*
X85173049Y-88536117D01*
X85260695Y-88780233D01*
X85264495Y-88788768D01*
X85387258Y-89017242D01*
X85392266Y-89025104D01*
X85462320Y-89118916D01*
X85473579Y-89127365D01*
X85485997Y-89120593D01*
X86546578Y-88060012D01*
X86552956Y-88048332D01*
X87283008Y-88048332D01*
X87283139Y-88050165D01*
X87287390Y-88056780D01*
X88354694Y-89124084D01*
X88367074Y-89130844D01*
X88375415Y-89124600D01*
X88509432Y-88916248D01*
X88513875Y-88908064D01*
X88620407Y-88671570D01*
X88623597Y-88662805D01*
X88694002Y-88413172D01*
X88695862Y-88404030D01*
X88728787Y-88145219D01*
X88729268Y-88138933D01*
X88731587Y-88050360D01*
X88731436Y-88044051D01*
X88712101Y-87783863D01*
X88710725Y-87774657D01*
X88653478Y-87521667D01*
X88650754Y-87512756D01*
X88556743Y-87271006D01*
X88552732Y-87262597D01*
X88424022Y-87037402D01*
X88418811Y-87029676D01*
X88375596Y-86974858D01*
X88363671Y-86966387D01*
X88352137Y-86972873D01*
X87290622Y-88034388D01*
X87283008Y-88048332D01*
X86552956Y-88048332D01*
X86554192Y-88046068D01*
X86554061Y-88044235D01*
X86549810Y-88037620D01*
X85484416Y-86972226D01*
X85471107Y-86964958D01*
X85461072Y-86972078D01*
X85445537Y-86990756D01*
X85440131Y-86998335D01*
X85305565Y-87220091D01*
X85301336Y-87228392D01*
X85201032Y-87467589D01*
X85198071Y-87476439D01*
X85134228Y-87727825D01*
X85132606Y-87737022D01*
X85106620Y-87995085D01*
X85106375Y-88004411D01*
X82550000Y-88004411D01*
X82550000Y-86599889D01*
X85835702Y-86599889D01*
X85840275Y-86609665D01*
X86905788Y-87675178D01*
X86919732Y-87682792D01*
X86921565Y-87682661D01*
X86928180Y-87678410D01*
X87992949Y-86613641D01*
X87999333Y-86601951D01*
X87989921Y-86589841D01*
X87842645Y-86487671D01*
X87834610Y-86482938D01*
X87601976Y-86368216D01*
X87593343Y-86364728D01*
X87346303Y-86285650D01*
X87337243Y-86283474D01*
X87081230Y-86241780D01*
X87071943Y-86240968D01*
X86812592Y-86237573D01*
X86803281Y-86238143D01*
X86546282Y-86273119D01*
X86537146Y-86275060D01*
X86288143Y-86347639D01*
X86279400Y-86350907D01*
X86043852Y-86459496D01*
X86035697Y-86464016D01*
X85844840Y-86589147D01*
X85835702Y-86599889D01*
X82550000Y-86599889D01*
X82550000Y-84395334D01*
X85110100Y-84395334D01*
X85116855Y-84457516D01*
X85167985Y-84593905D01*
X85255339Y-84710461D01*
X85371895Y-84797815D01*
X85508284Y-84848945D01*
X85570466Y-84855700D01*
X88266734Y-84855700D01*
X88328916Y-84848945D01*
X88465305Y-84797815D01*
X88581861Y-84710461D01*
X88669215Y-84593905D01*
X88720345Y-84457516D01*
X88727100Y-84395334D01*
X88727100Y-81699066D01*
X88720345Y-81636884D01*
X88669215Y-81500495D01*
X88581861Y-81383939D01*
X88465305Y-81296585D01*
X88328916Y-81245455D01*
X88266734Y-81238700D01*
X85570466Y-81238700D01*
X85508284Y-81245455D01*
X85371895Y-81296585D01*
X85255339Y-81383939D01*
X85167985Y-81500495D01*
X85116855Y-81636884D01*
X85110100Y-81699066D01*
X85110100Y-84395334D01*
X82550000Y-84395334D01*
X82550000Y-77558533D01*
X82570002Y-77490412D01*
X82623658Y-77443919D01*
X82693932Y-77433815D01*
X82736701Y-77448118D01*
X82851093Y-77511006D01*
X82862358Y-77515834D01*
X83039038Y-77571880D01*
X83051032Y-77574430D01*
X83195261Y-77590607D01*
X83202285Y-77591000D01*
X83283385Y-77591000D01*
X83298624Y-77586525D01*
X83299829Y-77585135D01*
X83301500Y-77577452D01*
X83301500Y-77572885D01*
X83809500Y-77572885D01*
X83813975Y-77588124D01*
X83815365Y-77589329D01*
X83823048Y-77591000D01*
X83902157Y-77591000D01*
X83908305Y-77590699D01*
X84046103Y-77577188D01*
X84058138Y-77574805D01*
X84235576Y-77521233D01*
X84246916Y-77516559D01*
X84410577Y-77429540D01*
X84420794Y-77422751D01*
X84564433Y-77305603D01*
X84573137Y-77296959D01*
X84691284Y-77154144D01*
X84698144Y-77143973D01*
X84786304Y-76980924D01*
X84791056Y-76969619D01*
X84826750Y-76854308D01*
X84826831Y-76848768D01*
X86212925Y-76848768D01*
X86244638Y-76956521D01*
X86249231Y-76967889D01*
X86335107Y-77132154D01*
X86341821Y-77142415D01*
X86457968Y-77286873D01*
X86466546Y-77295632D01*
X86608539Y-77414778D01*
X86618659Y-77421708D01*
X86781085Y-77511002D01*
X86792358Y-77515834D01*
X86969038Y-77571880D01*
X86981032Y-77574430D01*
X87125261Y-77590607D01*
X87132285Y-77591000D01*
X87463385Y-77591000D01*
X87478624Y-77586525D01*
X87479829Y-77585135D01*
X87481500Y-77577452D01*
X87481500Y-77572885D01*
X87989500Y-77572885D01*
X87993975Y-77588124D01*
X87995365Y-77589329D01*
X88003048Y-77591000D01*
X88332157Y-77591000D01*
X88338305Y-77590699D01*
X88476103Y-77577188D01*
X88488138Y-77574805D01*
X88665576Y-77521233D01*
X88676916Y-77516559D01*
X88840577Y-77429540D01*
X88850794Y-77422751D01*
X88994433Y-77305603D01*
X89003137Y-77296959D01*
X89121284Y-77154144D01*
X89128144Y-77143973D01*
X89216304Y-76980924D01*
X89221056Y-76969619D01*
X89256750Y-76854308D01*
X89256956Y-76840205D01*
X89250201Y-76837000D01*
X88007615Y-76837000D01*
X87992376Y-76841475D01*
X87991171Y-76842865D01*
X87989500Y-76850548D01*
X87989500Y-77572885D01*
X87481500Y-77572885D01*
X87481500Y-76855115D01*
X87477025Y-76839876D01*
X87475635Y-76838671D01*
X87467952Y-76837000D01*
X86227576Y-76837000D01*
X86214045Y-76840973D01*
X86212925Y-76848768D01*
X84826831Y-76848768D01*
X84826956Y-76840205D01*
X84820201Y-76837000D01*
X83827615Y-76837000D01*
X83812376Y-76841475D01*
X83811171Y-76842865D01*
X83809500Y-76850548D01*
X83809500Y-77572885D01*
X83301500Y-77572885D01*
X83301500Y-76310885D01*
X83809500Y-76310885D01*
X83813975Y-76326124D01*
X83815365Y-76327329D01*
X83823048Y-76329000D01*
X84813424Y-76329000D01*
X84824339Y-76325795D01*
X86214044Y-76325795D01*
X86220799Y-76329000D01*
X89243424Y-76329000D01*
X89256955Y-76325027D01*
X89258075Y-76317232D01*
X89226362Y-76209479D01*
X89221769Y-76198111D01*
X89135893Y-76033846D01*
X89129179Y-76023585D01*
X89013032Y-75879127D01*
X89004454Y-75870368D01*
X88862461Y-75751222D01*
X88852341Y-75744292D01*
X88689915Y-75654998D01*
X88678642Y-75650166D01*
X88501962Y-75594120D01*
X88489968Y-75591570D01*
X88345739Y-75575393D01*
X88338715Y-75575000D01*
X88120523Y-75575000D01*
X88052402Y-75554998D01*
X88005909Y-75501342D01*
X87995805Y-75431068D01*
X88003534Y-75402208D01*
X88010495Y-75384803D01*
X88013030Y-75378466D01*
X88014144Y-75371738D01*
X88014145Y-75371734D01*
X88041493Y-75206539D01*
X88041493Y-75206536D01*
X88042608Y-75199802D01*
X88041518Y-75178987D01*
X88033487Y-75025766D01*
X88033130Y-75018953D01*
X88026627Y-74995342D01*
X87986852Y-74850941D01*
X87985039Y-74844359D01*
X87900578Y-74684164D01*
X87896173Y-74678951D01*
X87896170Y-74678947D01*
X87788094Y-74551057D01*
X87788090Y-74551053D01*
X87783687Y-74545843D01*
X87778262Y-74541695D01*
X87645243Y-74439994D01*
X87645239Y-74439991D01*
X87639822Y-74435850D01*
X87534686Y-74386825D01*
X87481869Y-74362195D01*
X87481866Y-74362194D01*
X87475692Y-74359315D01*
X87469044Y-74357829D01*
X87469041Y-74357828D01*
X87341684Y-74329361D01*
X87298957Y-74319810D01*
X87293412Y-74319500D01*
X87160256Y-74319500D01*
X87025463Y-74334143D01*
X86942109Y-74362195D01*
X86860296Y-74389728D01*
X86860294Y-74389729D01*
X86853825Y-74391906D01*
X86698595Y-74485177D01*
X86693638Y-74489865D01*
X86693635Y-74489867D01*
X86644657Y-74536184D01*
X86567015Y-74609607D01*
X86563183Y-74615245D01*
X86563180Y-74615249D01*
X86512240Y-74690205D01*
X86465223Y-74759388D01*
X86397970Y-74927534D01*
X86396856Y-74934262D01*
X86396855Y-74934266D01*
X86374299Y-75070518D01*
X86368392Y-75106198D01*
X86368749Y-75113015D01*
X86368749Y-75113019D01*
X86373651Y-75206539D01*
X86377870Y-75287047D01*
X86379681Y-75293620D01*
X86379681Y-75293623D01*
X86403051Y-75378466D01*
X86425961Y-75461641D01*
X86510422Y-75621836D01*
X86514827Y-75627049D01*
X86514830Y-75627053D01*
X86533194Y-75648783D01*
X86561886Y-75713724D01*
X86550913Y-75783868D01*
X86516592Y-75827754D01*
X86476567Y-75860397D01*
X86467863Y-75869041D01*
X86349716Y-76011856D01*
X86342856Y-76022027D01*
X86254696Y-76185076D01*
X86249944Y-76196381D01*
X86214250Y-76311692D01*
X86214044Y-76325795D01*
X84824339Y-76325795D01*
X84826955Y-76325027D01*
X84828075Y-76317232D01*
X84796362Y-76209479D01*
X84791769Y-76198111D01*
X84705893Y-76033846D01*
X84699179Y-76023585D01*
X84583032Y-75879127D01*
X84574454Y-75870368D01*
X84432461Y-75751222D01*
X84422341Y-75744292D01*
X84259915Y-75654998D01*
X84248642Y-75650166D01*
X84071962Y-75594120D01*
X84059968Y-75591570D01*
X83915739Y-75575393D01*
X83908715Y-75575000D01*
X83827615Y-75575000D01*
X83812376Y-75579475D01*
X83811171Y-75580865D01*
X83809500Y-75588548D01*
X83809500Y-76310885D01*
X83301500Y-76310885D01*
X83301500Y-75593115D01*
X83297025Y-75577876D01*
X83295635Y-75576671D01*
X83287952Y-75575000D01*
X83208843Y-75575000D01*
X83202695Y-75575301D01*
X83064897Y-75588812D01*
X83052862Y-75591195D01*
X82875424Y-75644767D01*
X82864084Y-75649441D01*
X82735153Y-75717994D01*
X82665615Y-75732313D01*
X82599375Y-75706765D01*
X82557462Y-75649460D01*
X82550000Y-75606742D01*
X82550000Y-68918533D01*
X82570002Y-68850412D01*
X82623658Y-68803919D01*
X82693932Y-68793815D01*
X82736701Y-68808118D01*
X82851093Y-68871006D01*
X82862358Y-68875834D01*
X83039038Y-68931880D01*
X83051032Y-68934430D01*
X83195261Y-68950607D01*
X83202285Y-68951000D01*
X83283385Y-68951000D01*
X83298624Y-68946525D01*
X83299829Y-68945135D01*
X83301500Y-68937452D01*
X83301500Y-68932885D01*
X83809500Y-68932885D01*
X83813975Y-68948124D01*
X83815365Y-68949329D01*
X83823048Y-68951000D01*
X83902157Y-68951000D01*
X83908305Y-68950699D01*
X84046103Y-68937188D01*
X84058138Y-68934805D01*
X84235576Y-68881233D01*
X84246916Y-68876559D01*
X84410577Y-68789540D01*
X84420794Y-68782751D01*
X84564433Y-68665603D01*
X84573137Y-68656959D01*
X84691284Y-68514144D01*
X84698144Y-68503973D01*
X84786304Y-68340924D01*
X84791056Y-68329619D01*
X84826750Y-68214308D01*
X84826831Y-68208768D01*
X86212925Y-68208768D01*
X86244638Y-68316521D01*
X86249231Y-68327889D01*
X86335107Y-68492154D01*
X86341821Y-68502415D01*
X86457968Y-68646873D01*
X86466545Y-68655632D01*
X86518610Y-68699319D01*
X86557936Y-68758428D01*
X86559063Y-68829416D01*
X86541831Y-68866663D01*
X86465223Y-68979388D01*
X86397970Y-69147534D01*
X86396856Y-69154262D01*
X86396855Y-69154266D01*
X86369507Y-69319461D01*
X86368392Y-69326198D01*
X86368749Y-69333015D01*
X86368749Y-69333019D01*
X86373651Y-69426539D01*
X86377870Y-69507047D01*
X86379681Y-69513620D01*
X86379681Y-69513623D01*
X86403051Y-69598466D01*
X86425961Y-69681641D01*
X86510422Y-69841836D01*
X86514827Y-69847049D01*
X86514830Y-69847053D01*
X86622906Y-69974943D01*
X86622910Y-69974947D01*
X86627313Y-69980157D01*
X86632737Y-69984304D01*
X86632738Y-69984305D01*
X86765757Y-70086006D01*
X86765761Y-70086009D01*
X86771178Y-70090150D01*
X86857872Y-70130576D01*
X86929131Y-70163805D01*
X86929134Y-70163806D01*
X86935308Y-70166685D01*
X86941956Y-70168171D01*
X86941959Y-70168172D01*
X87047921Y-70191857D01*
X87112043Y-70206190D01*
X87117588Y-70206500D01*
X87250744Y-70206500D01*
X87385537Y-70191857D01*
X87503690Y-70152094D01*
X87550704Y-70136272D01*
X87550706Y-70136271D01*
X87557175Y-70134094D01*
X87712405Y-70040823D01*
X87717362Y-70036135D01*
X87717365Y-70036133D01*
X87839027Y-69921082D01*
X87839029Y-69921080D01*
X87843985Y-69916393D01*
X87847817Y-69910755D01*
X87847820Y-69910751D01*
X87941942Y-69772255D01*
X87945777Y-69766612D01*
X88013030Y-69598466D01*
X88014144Y-69591738D01*
X88014145Y-69591734D01*
X88041493Y-69426539D01*
X88041493Y-69426536D01*
X88042608Y-69419802D01*
X88037703Y-69326198D01*
X88033487Y-69245766D01*
X88033130Y-69238953D01*
X87997737Y-69110459D01*
X87998931Y-69039474D01*
X88038314Y-68980401D01*
X88103381Y-68951999D01*
X88119213Y-68951000D01*
X88332157Y-68951000D01*
X88338305Y-68950699D01*
X88476103Y-68937188D01*
X88488138Y-68934805D01*
X88665576Y-68881233D01*
X88676916Y-68876559D01*
X88840577Y-68789540D01*
X88850794Y-68782751D01*
X88994433Y-68665603D01*
X89003137Y-68656959D01*
X89121284Y-68514144D01*
X89128144Y-68503973D01*
X89216304Y-68340924D01*
X89221056Y-68329619D01*
X89256750Y-68214308D01*
X89256956Y-68200205D01*
X89250201Y-68197000D01*
X86227576Y-68197000D01*
X86214045Y-68200973D01*
X86212925Y-68208768D01*
X84826831Y-68208768D01*
X84826956Y-68200205D01*
X84820201Y-68197000D01*
X83827615Y-68197000D01*
X83812376Y-68201475D01*
X83811171Y-68202865D01*
X83809500Y-68210548D01*
X83809500Y-68932885D01*
X83301500Y-68932885D01*
X83301500Y-67842669D01*
X103906001Y-67842669D01*
X103906371Y-67849490D01*
X103911895Y-67900352D01*
X103915521Y-67915604D01*
X103960676Y-68036054D01*
X103969214Y-68051649D01*
X104045715Y-68153724D01*
X104058276Y-68166285D01*
X104160351Y-68242786D01*
X104175946Y-68251324D01*
X104296394Y-68296478D01*
X104311649Y-68300105D01*
X104362514Y-68305631D01*
X104369328Y-68306000D01*
X105391885Y-68306000D01*
X105407124Y-68301525D01*
X105408329Y-68300135D01*
X105410000Y-68292452D01*
X105410000Y-68287884D01*
X105918000Y-68287884D01*
X105922475Y-68303123D01*
X105923865Y-68304328D01*
X105931548Y-68305999D01*
X106958669Y-68305999D01*
X106965490Y-68305629D01*
X107016352Y-68300105D01*
X107031604Y-68296479D01*
X107152054Y-68251324D01*
X107167649Y-68242786D01*
X107269724Y-68166285D01*
X107282285Y-68153724D01*
X107358786Y-68051649D01*
X107367324Y-68036054D01*
X107412478Y-67915606D01*
X107416105Y-67900351D01*
X107421631Y-67849486D01*
X107422000Y-67842672D01*
X107422000Y-67474095D01*
X109128001Y-67474095D01*
X109128338Y-67480614D01*
X109138257Y-67576206D01*
X109141149Y-67589600D01*
X109192588Y-67743784D01*
X109198761Y-67756962D01*
X109284063Y-67894807D01*
X109293099Y-67906208D01*
X109407829Y-68020739D01*
X109419240Y-68029751D01*
X109557243Y-68114816D01*
X109570424Y-68120963D01*
X109724710Y-68172138D01*
X109738086Y-68175005D01*
X109832438Y-68184672D01*
X109838854Y-68185000D01*
X109963885Y-68185000D01*
X109979124Y-68180525D01*
X109980329Y-68179135D01*
X109982000Y-68171452D01*
X109982000Y-68166884D01*
X110490000Y-68166884D01*
X110494475Y-68182123D01*
X110495865Y-68183328D01*
X110503548Y-68184999D01*
X110633095Y-68184999D01*
X110639614Y-68184662D01*
X110735206Y-68174743D01*
X110748600Y-68171851D01*
X110902784Y-68120412D01*
X110915962Y-68114239D01*
X111053807Y-68028937D01*
X111065208Y-68019901D01*
X111179739Y-67905171D01*
X111188751Y-67893760D01*
X111216745Y-67848345D01*
X111269517Y-67800852D01*
X111339589Y-67789428D01*
X111404713Y-67817702D01*
X111423088Y-67836625D01*
X111429604Y-67844920D01*
X111434135Y-67848852D01*
X111434138Y-67848855D01*
X111520058Y-67923412D01*
X111589363Y-67983552D01*
X111594549Y-67986552D01*
X111594553Y-67986555D01*
X111690957Y-68042326D01*
X111772454Y-68089473D01*
X111972271Y-68158861D01*
X111978206Y-68159722D01*
X111978208Y-68159722D01*
X112175664Y-68188352D01*
X112175667Y-68188352D01*
X112181604Y-68189213D01*
X112392899Y-68179433D01*
X112524077Y-68147819D01*
X112592701Y-68131281D01*
X112592703Y-68131280D01*
X112598534Y-68129875D01*
X112603992Y-68127393D01*
X112603996Y-68127392D01*
X112770582Y-68051649D01*
X112791087Y-68042326D01*
X112963611Y-67919946D01*
X113109881Y-67767150D01*
X113224620Y-67589452D01*
X113303686Y-67393263D01*
X113344228Y-67185663D01*
X113344500Y-67180101D01*
X113344500Y-66474154D01*
X113329452Y-66316434D01*
X113269908Y-66113466D01*
X113267164Y-66108138D01*
X113175804Y-65930751D01*
X113175802Y-65930748D01*
X113173058Y-65925420D01*
X113042396Y-65759080D01*
X113037865Y-65755148D01*
X113037862Y-65755145D01*
X112887167Y-65624379D01*
X112882637Y-65620448D01*
X112877451Y-65617448D01*
X112877447Y-65617445D01*
X112704742Y-65517533D01*
X112699546Y-65514527D01*
X112499729Y-65445139D01*
X112493794Y-65444278D01*
X112493792Y-65444278D01*
X112296336Y-65415648D01*
X112296333Y-65415648D01*
X112290396Y-65414787D01*
X112079101Y-65424567D01*
X111947923Y-65456181D01*
X111879299Y-65472719D01*
X111879297Y-65472720D01*
X111873466Y-65474125D01*
X111868008Y-65476607D01*
X111868004Y-65476608D01*
X111752959Y-65528916D01*
X111680913Y-65561674D01*
X111508389Y-65684054D01*
X111504251Y-65688377D01*
X111504246Y-65688381D01*
X111416836Y-65779691D01*
X111355280Y-65815067D01*
X111284371Y-65811548D01*
X111226621Y-65770251D01*
X111218674Y-65758863D01*
X111187937Y-65709193D01*
X111178901Y-65697792D01*
X111064171Y-65583261D01*
X111052760Y-65574249D01*
X110914757Y-65489184D01*
X110901576Y-65483037D01*
X110747290Y-65431862D01*
X110733914Y-65428995D01*
X110639562Y-65419328D01*
X110633145Y-65419000D01*
X110508115Y-65419000D01*
X110492876Y-65423475D01*
X110491671Y-65424865D01*
X110490000Y-65432548D01*
X110490000Y-68166884D01*
X109982000Y-68166884D01*
X109982000Y-67074115D01*
X109977525Y-67058876D01*
X109976135Y-67057671D01*
X109968452Y-67056000D01*
X109146116Y-67056000D01*
X109130877Y-67060475D01*
X109129672Y-67061865D01*
X109128001Y-67069548D01*
X109128001Y-67474095D01*
X107422000Y-67474095D01*
X107422000Y-66820115D01*
X107417525Y-66804876D01*
X107416135Y-66803671D01*
X107408452Y-66802000D01*
X105936115Y-66802000D01*
X105920876Y-66806475D01*
X105919671Y-66807865D01*
X105918000Y-66815548D01*
X105918000Y-68287884D01*
X105410000Y-68287884D01*
X105410000Y-66820115D01*
X105405525Y-66804876D01*
X105404135Y-66803671D01*
X105396452Y-66802000D01*
X103924116Y-66802000D01*
X103908877Y-66806475D01*
X103907672Y-66807865D01*
X103906001Y-66815548D01*
X103906001Y-67842669D01*
X83301500Y-67842669D01*
X83301500Y-67670885D01*
X83809500Y-67670885D01*
X83813975Y-67686124D01*
X83815365Y-67687329D01*
X83823048Y-67689000D01*
X84813424Y-67689000D01*
X84824339Y-67685795D01*
X86214044Y-67685795D01*
X86220799Y-67689000D01*
X87463385Y-67689000D01*
X87478624Y-67684525D01*
X87479829Y-67683135D01*
X87481500Y-67675452D01*
X87481500Y-67670885D01*
X87989500Y-67670885D01*
X87993975Y-67686124D01*
X87995365Y-67687329D01*
X88003048Y-67689000D01*
X89243424Y-67689000D01*
X89256955Y-67685027D01*
X89258075Y-67677232D01*
X89226362Y-67569479D01*
X89221769Y-67558111D01*
X89135893Y-67393846D01*
X89129179Y-67383585D01*
X89013032Y-67239127D01*
X89004454Y-67230368D01*
X88862461Y-67111222D01*
X88852341Y-67104292D01*
X88689915Y-67014998D01*
X88678642Y-67010166D01*
X88501962Y-66954120D01*
X88489968Y-66951570D01*
X88345739Y-66935393D01*
X88338715Y-66935000D01*
X88007615Y-66935000D01*
X87992376Y-66939475D01*
X87991171Y-66940865D01*
X87989500Y-66948548D01*
X87989500Y-67670885D01*
X87481500Y-67670885D01*
X87481500Y-66953115D01*
X87477025Y-66937876D01*
X87475635Y-66936671D01*
X87467952Y-66935000D01*
X87138843Y-66935000D01*
X87132695Y-66935301D01*
X86994897Y-66948812D01*
X86982862Y-66951195D01*
X86805424Y-67004767D01*
X86794084Y-67009441D01*
X86630423Y-67096460D01*
X86620206Y-67103249D01*
X86476567Y-67220397D01*
X86467863Y-67229041D01*
X86349716Y-67371856D01*
X86342856Y-67382027D01*
X86254696Y-67545076D01*
X86249944Y-67556381D01*
X86214250Y-67671692D01*
X86214044Y-67685795D01*
X84824339Y-67685795D01*
X84826955Y-67685027D01*
X84828075Y-67677232D01*
X84796362Y-67569479D01*
X84791769Y-67558111D01*
X84705893Y-67393846D01*
X84699179Y-67383585D01*
X84583032Y-67239127D01*
X84574454Y-67230368D01*
X84432461Y-67111222D01*
X84422341Y-67104292D01*
X84259915Y-67014998D01*
X84248642Y-67010166D01*
X84071962Y-66954120D01*
X84059968Y-66951570D01*
X83915739Y-66935393D01*
X83908715Y-66935000D01*
X83827615Y-66935000D01*
X83812376Y-66939475D01*
X83811171Y-66940865D01*
X83809500Y-66948548D01*
X83809500Y-67670885D01*
X83301500Y-67670885D01*
X83301500Y-66953115D01*
X83297025Y-66937876D01*
X83295635Y-66936671D01*
X83287952Y-66935000D01*
X83208843Y-66935000D01*
X83202695Y-66935301D01*
X83064897Y-66948812D01*
X83052862Y-66951195D01*
X82875424Y-67004767D01*
X82864084Y-67009441D01*
X82735153Y-67077994D01*
X82665615Y-67092313D01*
X82599375Y-67066765D01*
X82557462Y-67009460D01*
X82550000Y-66966742D01*
X82550000Y-66529885D01*
X109128000Y-66529885D01*
X109132475Y-66545124D01*
X109133865Y-66546329D01*
X109141548Y-66548000D01*
X109963885Y-66548000D01*
X109979124Y-66543525D01*
X109980329Y-66542135D01*
X109982000Y-66534452D01*
X109982000Y-65437116D01*
X109977525Y-65421877D01*
X109976135Y-65420672D01*
X109968452Y-65419001D01*
X109838905Y-65419001D01*
X109832386Y-65419338D01*
X109736794Y-65429257D01*
X109723400Y-65432149D01*
X109569216Y-65483588D01*
X109556038Y-65489761D01*
X109418193Y-65575063D01*
X109406792Y-65584099D01*
X109292261Y-65698829D01*
X109283249Y-65710240D01*
X109198184Y-65848243D01*
X109192037Y-65861424D01*
X109140862Y-66015710D01*
X109137995Y-66029086D01*
X109128328Y-66123438D01*
X109128000Y-66129855D01*
X109128000Y-66529885D01*
X82550000Y-66529885D01*
X82550000Y-66275885D01*
X103906000Y-66275885D01*
X103910475Y-66291124D01*
X103911865Y-66292329D01*
X103919548Y-66294000D01*
X105391885Y-66294000D01*
X105407124Y-66289525D01*
X105408329Y-66288135D01*
X105410000Y-66280452D01*
X105410000Y-66275885D01*
X105918000Y-66275885D01*
X105922475Y-66291124D01*
X105923865Y-66292329D01*
X105931548Y-66294000D01*
X107403884Y-66294000D01*
X107419123Y-66289525D01*
X107420328Y-66288135D01*
X107421999Y-66280452D01*
X107421999Y-65253331D01*
X107421629Y-65246510D01*
X107416105Y-65195648D01*
X107412479Y-65180396D01*
X107367324Y-65059946D01*
X107358786Y-65044351D01*
X107282285Y-64942276D01*
X107269724Y-64929715D01*
X107167649Y-64853214D01*
X107152054Y-64844676D01*
X107031606Y-64799522D01*
X107016351Y-64795895D01*
X106965486Y-64790369D01*
X106958672Y-64790000D01*
X105936115Y-64790000D01*
X105920876Y-64794475D01*
X105919671Y-64795865D01*
X105918000Y-64803548D01*
X105918000Y-66275885D01*
X105410000Y-66275885D01*
X105410000Y-64808116D01*
X105405525Y-64792877D01*
X105404135Y-64791672D01*
X105396452Y-64790001D01*
X104369331Y-64790001D01*
X104362510Y-64790371D01*
X104311648Y-64795895D01*
X104296396Y-64799521D01*
X104175946Y-64844676D01*
X104160351Y-64853214D01*
X104058276Y-64929715D01*
X104045715Y-64942276D01*
X103969214Y-65044351D01*
X103960676Y-65059946D01*
X103915522Y-65180394D01*
X103911895Y-65195649D01*
X103906369Y-65246514D01*
X103906000Y-65253328D01*
X103906000Y-66275885D01*
X82550000Y-66275885D01*
X82550000Y-62826064D01*
X86192207Y-62826064D01*
X86221325Y-63018599D01*
X86223528Y-63024585D01*
X86223529Y-63024591D01*
X86286360Y-63195360D01*
X86286362Y-63195365D01*
X86288563Y-63201346D01*
X86291925Y-63206768D01*
X86382615Y-63353035D01*
X86391174Y-63366840D01*
X86524966Y-63508322D01*
X86530196Y-63511984D01*
X86530197Y-63511985D01*
X86615791Y-63571918D01*
X86684475Y-63620011D01*
X86690338Y-63622548D01*
X86857325Y-63694810D01*
X86857329Y-63694811D01*
X86863184Y-63697345D01*
X86869431Y-63698650D01*
X86869434Y-63698651D01*
X87049057Y-63736176D01*
X87049062Y-63736177D01*
X87053793Y-63737165D01*
X87060185Y-63737500D01*
X87203163Y-63737500D01*
X87288213Y-63728861D01*
X87341878Y-63723410D01*
X87341879Y-63723410D01*
X87348227Y-63722765D01*
X87429343Y-63697345D01*
X87527951Y-63666444D01*
X87527956Y-63666442D01*
X87534041Y-63664535D01*
X87620975Y-63616346D01*
X87698771Y-63573223D01*
X87698774Y-63573221D01*
X87704350Y-63570130D01*
X87709191Y-63565981D01*
X87709195Y-63565978D01*
X87847355Y-63447560D01*
X87852198Y-63443409D01*
X87922300Y-63353035D01*
X87964372Y-63298796D01*
X87971546Y-63289547D01*
X88012279Y-63206768D01*
X88054700Y-63120556D01*
X88057518Y-63114829D01*
X88074484Y-63049697D01*
X88104992Y-62932575D01*
X88104992Y-62932572D01*
X88106602Y-62926393D01*
X88114189Y-62781619D01*
X88116459Y-62738317D01*
X88116459Y-62738313D01*
X88116793Y-62731936D01*
X88087675Y-62539401D01*
X88085472Y-62533415D01*
X88085471Y-62533409D01*
X88022640Y-62362640D01*
X88022638Y-62362635D01*
X88020437Y-62356654D01*
X87917826Y-62191160D01*
X87784034Y-62049678D01*
X87624525Y-61937989D01*
X87576513Y-61917212D01*
X87451675Y-61863190D01*
X87451671Y-61863189D01*
X87445816Y-61860655D01*
X87439569Y-61859350D01*
X87439566Y-61859349D01*
X87259943Y-61821824D01*
X87259938Y-61821823D01*
X87255207Y-61820835D01*
X87248815Y-61820500D01*
X87105837Y-61820500D01*
X87036549Y-61827538D01*
X86967122Y-61834590D01*
X86967121Y-61834590D01*
X86960773Y-61835235D01*
X86904439Y-61852889D01*
X86781049Y-61891556D01*
X86781044Y-61891558D01*
X86774959Y-61893465D01*
X86699213Y-61935452D01*
X86610229Y-61984777D01*
X86610226Y-61984779D01*
X86604650Y-61987870D01*
X86599809Y-61992019D01*
X86599805Y-61992022D01*
X86536811Y-62046015D01*
X86456802Y-62114591D01*
X86337454Y-62268453D01*
X86334638Y-62274176D01*
X86334636Y-62274179D01*
X86291108Y-62362640D01*
X86251482Y-62443171D01*
X86249873Y-62449349D01*
X86249872Y-62449351D01*
X86227977Y-62533409D01*
X86202398Y-62631607D01*
X86197996Y-62715597D01*
X86194856Y-62775524D01*
X86192207Y-62826064D01*
X82550000Y-62826064D01*
X82550000Y-58426064D01*
X86192207Y-58426064D01*
X86221325Y-58618599D01*
X86223528Y-58624585D01*
X86223529Y-58624591D01*
X86286360Y-58795360D01*
X86286362Y-58795365D01*
X86288563Y-58801346D01*
X86391174Y-58966840D01*
X86524966Y-59108322D01*
X86684475Y-59220011D01*
X86690338Y-59222548D01*
X86857325Y-59294810D01*
X86857329Y-59294811D01*
X86863184Y-59297345D01*
X86869431Y-59298650D01*
X86869434Y-59298651D01*
X87049057Y-59336176D01*
X87049062Y-59336177D01*
X87053793Y-59337165D01*
X87060185Y-59337500D01*
X87203163Y-59337500D01*
X87272451Y-59330462D01*
X87341878Y-59323410D01*
X87341879Y-59323410D01*
X87348227Y-59322765D01*
X87429343Y-59297345D01*
X87527951Y-59266444D01*
X87527956Y-59266442D01*
X87534041Y-59264535D01*
X87620975Y-59216346D01*
X87698771Y-59173223D01*
X87698774Y-59173221D01*
X87704350Y-59170130D01*
X87709191Y-59165981D01*
X87709195Y-59165978D01*
X87847355Y-59047560D01*
X87852198Y-59043409D01*
X87971546Y-58889547D01*
X88012279Y-58806768D01*
X88054700Y-58720556D01*
X88057518Y-58714829D01*
X88059128Y-58708649D01*
X88104992Y-58532575D01*
X88104992Y-58532572D01*
X88106602Y-58526393D01*
X88116793Y-58331936D01*
X88087675Y-58139401D01*
X88085472Y-58133415D01*
X88085471Y-58133409D01*
X88022640Y-57962640D01*
X88022638Y-57962635D01*
X88020437Y-57956654D01*
X87929302Y-57809669D01*
X92857001Y-57809669D01*
X92857371Y-57816490D01*
X92862895Y-57867352D01*
X92866521Y-57882604D01*
X92911676Y-58003054D01*
X92920214Y-58018649D01*
X92996715Y-58120724D01*
X93009276Y-58133285D01*
X93111351Y-58209786D01*
X93126946Y-58218324D01*
X93247394Y-58263478D01*
X93262649Y-58267105D01*
X93313514Y-58272631D01*
X93320328Y-58273000D01*
X94342885Y-58273000D01*
X94358124Y-58268525D01*
X94359329Y-58267135D01*
X94361000Y-58259452D01*
X94361000Y-58254884D01*
X94869000Y-58254884D01*
X94873475Y-58270123D01*
X94874865Y-58271328D01*
X94882548Y-58272999D01*
X95909669Y-58272999D01*
X95916490Y-58272629D01*
X95967352Y-58267105D01*
X95982604Y-58263479D01*
X96103054Y-58218324D01*
X96118649Y-58209786D01*
X96220724Y-58133285D01*
X96233281Y-58120728D01*
X96292173Y-58042148D01*
X96349033Y-57999633D01*
X96419851Y-57994607D01*
X96482145Y-58028667D01*
X96493827Y-58042148D01*
X96552719Y-58120728D01*
X96565276Y-58133285D01*
X96667351Y-58209786D01*
X96682946Y-58218324D01*
X96803394Y-58263478D01*
X96818649Y-58267105D01*
X96869514Y-58272631D01*
X96876328Y-58273000D01*
X97898885Y-58273000D01*
X97914124Y-58268525D01*
X97915329Y-58267135D01*
X97917000Y-58259452D01*
X97917000Y-58254884D01*
X98425000Y-58254884D01*
X98429475Y-58270123D01*
X98430865Y-58271328D01*
X98438548Y-58272999D01*
X99465669Y-58272999D01*
X99472490Y-58272629D01*
X99523352Y-58267105D01*
X99538604Y-58263479D01*
X99659054Y-58218324D01*
X99674649Y-58209786D01*
X99776724Y-58133285D01*
X99789281Y-58120728D01*
X99848173Y-58042148D01*
X99905033Y-57999633D01*
X99975851Y-57994607D01*
X100038145Y-58028667D01*
X100049827Y-58042148D01*
X100108719Y-58120728D01*
X100121276Y-58133285D01*
X100223351Y-58209786D01*
X100238946Y-58218324D01*
X100359394Y-58263478D01*
X100374649Y-58267105D01*
X100425514Y-58272631D01*
X100432328Y-58273000D01*
X101454885Y-58273000D01*
X101470124Y-58268525D01*
X101471329Y-58267135D01*
X101473000Y-58259452D01*
X101473000Y-58254884D01*
X101981000Y-58254884D01*
X101985475Y-58270123D01*
X101986865Y-58271328D01*
X101994548Y-58272999D01*
X103021669Y-58272999D01*
X103028490Y-58272629D01*
X103079352Y-58267105D01*
X103094604Y-58263479D01*
X103215054Y-58218324D01*
X103230649Y-58209786D01*
X103332724Y-58133285D01*
X103345285Y-58120724D01*
X103421786Y-58018649D01*
X103430324Y-58003054D01*
X103475478Y-57882606D01*
X103479105Y-57867351D01*
X103484631Y-57816486D01*
X103485000Y-57809672D01*
X103485000Y-56787115D01*
X103480525Y-56771876D01*
X103479135Y-56770671D01*
X103471452Y-56769000D01*
X101999115Y-56769000D01*
X101983876Y-56773475D01*
X101982671Y-56774865D01*
X101981000Y-56782548D01*
X101981000Y-58254884D01*
X101473000Y-58254884D01*
X101473000Y-56787115D01*
X101468525Y-56771876D01*
X101467135Y-56770671D01*
X101459452Y-56769000D01*
X99984534Y-56769000D01*
X99925198Y-56771119D01*
X99915456Y-56769000D01*
X98443115Y-56769000D01*
X98427876Y-56773475D01*
X98426671Y-56774865D01*
X98425000Y-56782548D01*
X98425000Y-58254884D01*
X97917000Y-58254884D01*
X97917000Y-56787115D01*
X97912525Y-56771876D01*
X97911135Y-56770671D01*
X97903452Y-56769000D01*
X96428534Y-56769000D01*
X96369198Y-56771119D01*
X96359456Y-56769000D01*
X94887115Y-56769000D01*
X94871876Y-56773475D01*
X94870671Y-56774865D01*
X94869000Y-56782548D01*
X94869000Y-58254884D01*
X94361000Y-58254884D01*
X94361000Y-56787115D01*
X94356525Y-56771876D01*
X94355135Y-56770671D01*
X94347452Y-56769000D01*
X92875116Y-56769000D01*
X92859877Y-56773475D01*
X92858672Y-56774865D01*
X92857001Y-56782548D01*
X92857001Y-57809669D01*
X87929302Y-57809669D01*
X87917826Y-57791160D01*
X87784034Y-57649678D01*
X87624525Y-57537989D01*
X87576513Y-57517212D01*
X87451675Y-57463190D01*
X87451671Y-57463189D01*
X87445816Y-57460655D01*
X87439569Y-57459350D01*
X87439566Y-57459349D01*
X87259943Y-57421824D01*
X87259938Y-57421823D01*
X87255207Y-57420835D01*
X87248815Y-57420500D01*
X87105837Y-57420500D01*
X87036549Y-57427538D01*
X86967122Y-57434590D01*
X86967121Y-57434590D01*
X86960773Y-57435235D01*
X86904439Y-57452889D01*
X86781049Y-57491556D01*
X86781044Y-57491558D01*
X86774959Y-57493465D01*
X86699213Y-57535452D01*
X86610229Y-57584777D01*
X86610226Y-57584779D01*
X86604650Y-57587870D01*
X86599809Y-57592019D01*
X86599805Y-57592022D01*
X86536811Y-57646015D01*
X86456802Y-57714591D01*
X86337454Y-57868453D01*
X86334638Y-57874176D01*
X86334636Y-57874179D01*
X86291108Y-57962640D01*
X86251482Y-58043171D01*
X86249873Y-58049349D01*
X86249872Y-58049351D01*
X86212871Y-58191402D01*
X86202398Y-58231607D01*
X86192207Y-58426064D01*
X82550000Y-58426064D01*
X82550000Y-54257134D01*
X92856500Y-54257134D01*
X92863255Y-54319316D01*
X92914385Y-54455705D01*
X93001739Y-54572261D01*
X93087438Y-54636489D01*
X93129950Y-54693345D01*
X93134976Y-54764163D01*
X93100916Y-54826457D01*
X93087435Y-54838138D01*
X93009276Y-54896715D01*
X92996715Y-54909276D01*
X92920214Y-55011351D01*
X92911676Y-55026946D01*
X92866522Y-55147394D01*
X92862895Y-55162649D01*
X92857369Y-55213514D01*
X92857000Y-55220328D01*
X92857000Y-56242885D01*
X92861475Y-56258124D01*
X92862865Y-56259329D01*
X92870548Y-56261000D01*
X96357466Y-56261000D01*
X96416802Y-56258881D01*
X96426544Y-56261000D01*
X99913466Y-56261000D01*
X99972802Y-56258881D01*
X99982544Y-56261000D01*
X103466884Y-56261000D01*
X103482123Y-56256525D01*
X103483328Y-56255135D01*
X103484999Y-56247452D01*
X103484999Y-55976065D01*
X103505001Y-55907944D01*
X103558657Y-55861451D01*
X103628931Y-55851347D01*
X103686564Y-55875239D01*
X103767352Y-55935786D01*
X103782946Y-55944324D01*
X103903394Y-55989478D01*
X103918649Y-55993105D01*
X103969514Y-55998631D01*
X103976328Y-55999000D01*
X104248885Y-55999000D01*
X104264124Y-55994525D01*
X104265329Y-55993135D01*
X104267000Y-55985452D01*
X104267000Y-55980884D01*
X104775000Y-55980884D01*
X104779475Y-55996123D01*
X104780865Y-55997328D01*
X104788548Y-55998999D01*
X105065669Y-55998999D01*
X105072490Y-55998629D01*
X105123352Y-55993105D01*
X105138604Y-55989479D01*
X105259054Y-55944324D01*
X105274649Y-55935786D01*
X105376724Y-55859285D01*
X105389285Y-55846724D01*
X105465786Y-55744649D01*
X105474324Y-55729054D01*
X105519478Y-55608606D01*
X105523105Y-55593351D01*
X105528631Y-55542486D01*
X105529000Y-55535672D01*
X105529000Y-55263115D01*
X105524525Y-55247876D01*
X105523135Y-55246671D01*
X105515452Y-55245000D01*
X104793115Y-55245000D01*
X104777876Y-55249475D01*
X104776671Y-55250865D01*
X104775000Y-55258548D01*
X104775000Y-55980884D01*
X104267000Y-55980884D01*
X104267000Y-54863000D01*
X104287002Y-54794879D01*
X104340658Y-54748386D01*
X104393000Y-54737000D01*
X105510884Y-54737000D01*
X105526123Y-54732525D01*
X105527328Y-54731135D01*
X105528999Y-54723452D01*
X105528999Y-54446331D01*
X105528629Y-54439510D01*
X105523105Y-54388648D01*
X105519479Y-54373396D01*
X105474324Y-54252946D01*
X105465786Y-54237351D01*
X105389285Y-54135276D01*
X105376723Y-54122714D01*
X105314577Y-54076138D01*
X105272062Y-54019279D01*
X105267036Y-53948460D01*
X105301096Y-53886167D01*
X105314577Y-53874486D01*
X105377081Y-53827642D01*
X105384261Y-53822261D01*
X105389643Y-53815080D01*
X105436174Y-53752994D01*
X105493033Y-53710479D01*
X105563852Y-53705453D01*
X105626145Y-53739513D01*
X105637826Y-53752994D01*
X105684357Y-53815080D01*
X105689739Y-53822261D01*
X105806295Y-53909615D01*
X105942684Y-53960745D01*
X106004866Y-53967500D01*
X107101134Y-53967500D01*
X107163316Y-53960745D01*
X107299705Y-53909615D01*
X107416261Y-53822261D01*
X107503615Y-53705705D01*
X107554745Y-53569316D01*
X107561500Y-53507134D01*
X107561500Y-52410866D01*
X107554745Y-52348684D01*
X107503615Y-52212295D01*
X107416261Y-52095739D01*
X107299705Y-52008385D01*
X107163316Y-51957255D01*
X107101134Y-51950500D01*
X106004866Y-51950500D01*
X105942684Y-51957255D01*
X105806295Y-52008385D01*
X105689739Y-52095739D01*
X105684358Y-52102919D01*
X105684357Y-52102920D01*
X105637826Y-52165006D01*
X105580967Y-52207521D01*
X105510148Y-52212547D01*
X105447855Y-52178487D01*
X105436174Y-52165006D01*
X105389643Y-52102920D01*
X105389642Y-52102919D01*
X105384261Y-52095739D01*
X105267705Y-52008385D01*
X105131316Y-51957255D01*
X105069134Y-51950500D01*
X103972866Y-51950500D01*
X103910684Y-51957255D01*
X103774295Y-52008385D01*
X103767110Y-52013770D01*
X103767108Y-52013771D01*
X103687065Y-52073760D01*
X103620558Y-52098608D01*
X103551176Y-52083555D01*
X103500946Y-52033381D01*
X103485500Y-51972934D01*
X103485500Y-51660866D01*
X103478745Y-51598684D01*
X103427615Y-51462295D01*
X103340261Y-51345739D01*
X103223705Y-51258385D01*
X103087316Y-51207255D01*
X103025134Y-51200500D01*
X100428866Y-51200500D01*
X100366684Y-51207255D01*
X100230295Y-51258385D01*
X100113739Y-51345739D01*
X100076789Y-51395042D01*
X100049826Y-51431018D01*
X99992967Y-51473533D01*
X99922148Y-51478559D01*
X99859855Y-51444499D01*
X99848174Y-51431018D01*
X99821212Y-51395042D01*
X99784261Y-51345739D01*
X99667705Y-51258385D01*
X99531316Y-51207255D01*
X99469134Y-51200500D01*
X96872866Y-51200500D01*
X96810684Y-51207255D01*
X96674295Y-51258385D01*
X96557739Y-51345739D01*
X96520789Y-51395042D01*
X96493826Y-51431018D01*
X96436967Y-51473533D01*
X96366148Y-51478559D01*
X96303855Y-51444499D01*
X96292174Y-51431018D01*
X96265212Y-51395042D01*
X96228261Y-51345739D01*
X96111705Y-51258385D01*
X95975316Y-51207255D01*
X95913134Y-51200500D01*
X93316866Y-51200500D01*
X93254684Y-51207255D01*
X93118295Y-51258385D01*
X93001739Y-51345739D01*
X92914385Y-51462295D01*
X92863255Y-51598684D01*
X92856500Y-51660866D01*
X92856500Y-54257134D01*
X82550000Y-54257134D01*
X82550000Y-50707500D01*
X83293151Y-50707500D01*
X83293246Y-50711130D01*
X83293246Y-50711131D01*
X83295587Y-50800523D01*
X83302233Y-51054330D01*
X83351119Y-51397819D01*
X83439160Y-51733412D01*
X83565190Y-52056662D01*
X83578147Y-52081133D01*
X83723967Y-52356540D01*
X83727538Y-52363285D01*
X83729588Y-52366268D01*
X83729590Y-52366271D01*
X83921996Y-52646223D01*
X83922002Y-52646230D01*
X83924053Y-52649215D01*
X84152129Y-52910664D01*
X84154814Y-52913107D01*
X84405187Y-53140928D01*
X84408744Y-53144165D01*
X84690496Y-53346625D01*
X84993651Y-53515359D01*
X85314191Y-53648131D01*
X85317685Y-53649126D01*
X85317687Y-53649127D01*
X85644366Y-53742184D01*
X85644371Y-53742185D01*
X85647867Y-53743181D01*
X85844567Y-53775392D01*
X85986675Y-53798663D01*
X85986682Y-53798664D01*
X85990256Y-53799249D01*
X86163539Y-53807421D01*
X86333194Y-53815422D01*
X86333195Y-53815422D01*
X86336821Y-53815593D01*
X86345678Y-53814989D01*
X86679336Y-53792243D01*
X86679344Y-53792242D01*
X86682967Y-53791995D01*
X86686542Y-53791332D01*
X86686545Y-53791332D01*
X87020542Y-53729429D01*
X87020546Y-53729428D01*
X87024107Y-53728768D01*
X87355719Y-53626751D01*
X87673408Y-53487295D01*
X87755084Y-53439568D01*
X87969823Y-53314085D01*
X87969825Y-53314084D01*
X87972963Y-53312250D01*
X87975872Y-53310066D01*
X88247507Y-53106117D01*
X88247511Y-53106114D01*
X88250414Y-53103934D01*
X88502082Y-52865109D01*
X88724633Y-52598942D01*
X88731837Y-52587976D01*
X88870377Y-52377067D01*
X88915116Y-52308958D01*
X89020911Y-52098608D01*
X89069380Y-52002239D01*
X89069383Y-52002231D01*
X89071007Y-51999003D01*
X89118395Y-51869511D01*
X89188992Y-51676596D01*
X89188993Y-51676592D01*
X89190240Y-51673185D01*
X89191085Y-51669663D01*
X89191088Y-51669655D01*
X89270387Y-51339350D01*
X89270388Y-51339346D01*
X89271234Y-51335821D01*
X89271671Y-51332211D01*
X89312579Y-50994163D01*
X89312579Y-50994156D01*
X89312915Y-50991384D01*
X89313027Y-50987842D01*
X89318774Y-50804956D01*
X89318862Y-50802159D01*
X89314108Y-50719710D01*
X89299099Y-50459405D01*
X89299098Y-50459400D01*
X89298890Y-50455785D01*
X89271371Y-50298108D01*
X89239863Y-50117574D01*
X89239861Y-50117567D01*
X89239239Y-50114001D01*
X89218973Y-50045582D01*
X89153401Y-49824218D01*
X89140700Y-49781339D01*
X89101526Y-49689496D01*
X89006003Y-49465545D01*
X89006001Y-49465542D01*
X89004579Y-49462207D01*
X88954832Y-49374990D01*
X88834471Y-49163975D01*
X88832680Y-49160835D01*
X88795428Y-49110122D01*
X88702980Y-48984271D01*
X88627281Y-48881219D01*
X88587003Y-48837874D01*
X88393572Y-48629718D01*
X88391105Y-48627063D01*
X88127282Y-48401737D01*
X87839310Y-48208228D01*
X87531004Y-48049099D01*
X87206452Y-47926461D01*
X87202931Y-47925577D01*
X87202926Y-47925575D01*
X87040333Y-47884735D01*
X86869955Y-47841939D01*
X86847739Y-47839014D01*
X86529578Y-47797127D01*
X86529570Y-47797126D01*
X86525974Y-47796653D01*
X86381308Y-47794380D01*
X86182709Y-47791260D01*
X86182705Y-47791260D01*
X86179067Y-47791203D01*
X86175453Y-47791564D01*
X86175447Y-47791564D01*
X85932106Y-47815853D01*
X85833832Y-47825662D01*
X85494846Y-47899573D01*
X85491419Y-47900746D01*
X85491413Y-47900748D01*
X85412559Y-47927746D01*
X85166602Y-48011956D01*
X84853451Y-48161322D01*
X84559542Y-48345691D01*
X84556706Y-48347963D01*
X84556699Y-48347968D01*
X84347355Y-48515684D01*
X84288772Y-48562618D01*
X84250060Y-48601738D01*
X84049808Y-48804098D01*
X84044729Y-48809230D01*
X84042488Y-48812088D01*
X83908686Y-48982733D01*
X83830649Y-49082257D01*
X83828756Y-49085346D01*
X83828754Y-49085349D01*
X83782496Y-49160835D01*
X83649368Y-49378080D01*
X83647843Y-49381365D01*
X83647841Y-49381369D01*
X83608768Y-49465545D01*
X83503290Y-49692779D01*
X83394350Y-50022182D01*
X83393614Y-50025737D01*
X83393613Y-50025740D01*
X83337208Y-50298108D01*
X83323993Y-50361923D01*
X83313995Y-50473945D01*
X83293502Y-50703571D01*
X83293151Y-50707500D01*
X82550000Y-50707500D01*
X82550000Y-47872601D01*
X82571235Y-47802599D01*
X82707781Y-47598245D01*
X82717814Y-47585170D01*
X82882136Y-47397796D01*
X82893790Y-47386141D01*
X83081161Y-47221820D01*
X83094237Y-47211787D01*
X83301453Y-47073328D01*
X83315726Y-47065087D01*
X83441636Y-47002994D01*
X83497365Y-46990000D01*
X136974694Y-46990000D01*
X137030420Y-47002994D01*
G37*
G04 #@! TD.AperFunction*
G04 #@! TA.AperFunction,Conductor*
G36*
X106442001Y-104930124D02*
G01*
X106487236Y-104982328D01*
X106545507Y-105107290D01*
X106672215Y-105288249D01*
X106828421Y-105444455D01*
X106832929Y-105447612D01*
X106832932Y-105447614D01*
X106968611Y-105542617D01*
X107009379Y-105571163D01*
X107014361Y-105573486D01*
X107014366Y-105573489D01*
X107134342Y-105629434D01*
X107187627Y-105676351D01*
X107207088Y-105744628D01*
X107186546Y-105812588D01*
X107134342Y-105857824D01*
X107014361Y-105913772D01*
X107014358Y-105913774D01*
X107009380Y-105916095D01*
X106828421Y-106042803D01*
X106672215Y-106199009D01*
X106545507Y-106379968D01*
X106543186Y-106384946D01*
X106543184Y-106384949D01*
X106486960Y-106505522D01*
X106440043Y-106558807D01*
X106371765Y-106578268D01*
X106303805Y-106557726D01*
X106258570Y-106505522D01*
X106202465Y-106385204D01*
X106196986Y-106375714D01*
X106167502Y-106333607D01*
X106157026Y-106325233D01*
X106143578Y-106332302D01*
X105475063Y-107000817D01*
X105467449Y-107014761D01*
X105467580Y-107016594D01*
X105471831Y-107023209D01*
X106144300Y-107695678D01*
X106156074Y-107702108D01*
X106168090Y-107692812D01*
X106196986Y-107651544D01*
X106202465Y-107642054D01*
X106258570Y-107521736D01*
X106305487Y-107468451D01*
X106373765Y-107448990D01*
X106441725Y-107469532D01*
X106486960Y-107521736D01*
X106545507Y-107647290D01*
X106672215Y-107828249D01*
X106828421Y-107984455D01*
X106832929Y-107987612D01*
X106832932Y-107987614D01*
X107004249Y-108107571D01*
X107009379Y-108111163D01*
X107014361Y-108113486D01*
X107014366Y-108113489D01*
X107144275Y-108174066D01*
X107209591Y-108204523D01*
X107214899Y-108205945D01*
X107214901Y-108205946D01*
X107417661Y-108260276D01*
X107417665Y-108260277D01*
X107420351Y-108260996D01*
X107420352Y-108260997D01*
X107422973Y-108261699D01*
X107422832Y-108262226D01*
X107483192Y-108292141D01*
X107519662Y-108353054D01*
X107517410Y-108424015D01*
X107477151Y-108482494D01*
X107411668Y-108509924D01*
X107397701Y-108510700D01*
X105345488Y-108510700D01*
X105277367Y-108490698D01*
X105230874Y-108437042D01*
X105220770Y-108366768D01*
X105250264Y-108302188D01*
X105309990Y-108263804D01*
X105323606Y-108260615D01*
X105328327Y-108259782D01*
X105531009Y-108205474D01*
X105541301Y-108201728D01*
X105731465Y-108113054D01*
X105740960Y-108107571D01*
X105783062Y-108078091D01*
X105791437Y-108067614D01*
X105784369Y-108054167D01*
X105115853Y-107385651D01*
X105101909Y-107378037D01*
X105100076Y-107378168D01*
X105093461Y-107382419D01*
X104420992Y-108054888D01*
X104414562Y-108066663D01*
X104423858Y-108078678D01*
X104465122Y-108107571D01*
X104474617Y-108113054D01*
X104664781Y-108201728D01*
X104675073Y-108205474D01*
X104877755Y-108259782D01*
X104882476Y-108260615D01*
X104946088Y-108292143D01*
X104982556Y-108353057D01*
X104980302Y-108424018D01*
X104940042Y-108482496D01*
X104874558Y-108509924D01*
X104860594Y-108510700D01*
X102808381Y-108510700D01*
X102740260Y-108490698D01*
X102693767Y-108437042D01*
X102683663Y-108366768D01*
X102713157Y-108302188D01*
X102772883Y-108263804D01*
X102781131Y-108261872D01*
X102783109Y-108261699D01*
X102788417Y-108260277D01*
X102788421Y-108260276D01*
X102991181Y-108205946D01*
X102991183Y-108205945D01*
X102996491Y-108204523D01*
X103061807Y-108174066D01*
X103191716Y-108113489D01*
X103191721Y-108113486D01*
X103196703Y-108111163D01*
X103201833Y-108107571D01*
X103373150Y-107987614D01*
X103373153Y-107987612D01*
X103377661Y-107984455D01*
X103533867Y-107828249D01*
X103660575Y-107647290D01*
X103719122Y-107521736D01*
X103766039Y-107468451D01*
X103834317Y-107448990D01*
X103902277Y-107469532D01*
X103947512Y-107521736D01*
X104003617Y-107642054D01*
X104009096Y-107651544D01*
X104038580Y-107693651D01*
X104049056Y-107702025D01*
X104062504Y-107694956D01*
X104731019Y-107026441D01*
X104738633Y-107012497D01*
X104738502Y-107010664D01*
X104734251Y-107004049D01*
X104061782Y-106331580D01*
X104050008Y-106325150D01*
X104037992Y-106334446D01*
X104009096Y-106375714D01*
X104003617Y-106385204D01*
X103947512Y-106505522D01*
X103900595Y-106558807D01*
X103832317Y-106578268D01*
X103764357Y-106557726D01*
X103719122Y-106505522D01*
X103662898Y-106384949D01*
X103662896Y-106384946D01*
X103660575Y-106379968D01*
X103533867Y-106199009D01*
X103377661Y-106042803D01*
X103373153Y-106039646D01*
X103373150Y-106039644D01*
X103201212Y-105919252D01*
X103201209Y-105919250D01*
X103196703Y-105916095D01*
X103191721Y-105913772D01*
X103191716Y-105913769D01*
X103071740Y-105857824D01*
X103018455Y-105810907D01*
X102998994Y-105742630D01*
X103019536Y-105674670D01*
X103071740Y-105629434D01*
X103191716Y-105573489D01*
X103191721Y-105573486D01*
X103196703Y-105571163D01*
X103237471Y-105542617D01*
X103373150Y-105447614D01*
X103373153Y-105447612D01*
X103377661Y-105444455D01*
X103533867Y-105288249D01*
X103660575Y-105107290D01*
X103718846Y-104982328D01*
X103765763Y-104929043D01*
X103834041Y-104909582D01*
X103902001Y-104930124D01*
X103947236Y-104982328D01*
X104005507Y-105107290D01*
X104132215Y-105288249D01*
X104288421Y-105444455D01*
X104292929Y-105447612D01*
X104292932Y-105447614D01*
X104428611Y-105542617D01*
X104469379Y-105571163D01*
X104474361Y-105573486D01*
X104474366Y-105573489D01*
X104594934Y-105629710D01*
X104648219Y-105676627D01*
X104667680Y-105744904D01*
X104647138Y-105812864D01*
X104594934Y-105858100D01*
X104474616Y-105914205D01*
X104465126Y-105919684D01*
X104423019Y-105949168D01*
X104414645Y-105959644D01*
X104421714Y-105973092D01*
X105090229Y-106641607D01*
X105104173Y-106649221D01*
X105106006Y-106649090D01*
X105112621Y-106644839D01*
X105785090Y-105972370D01*
X105791520Y-105960595D01*
X105782224Y-105948580D01*
X105740960Y-105919687D01*
X105731465Y-105914204D01*
X105611148Y-105858100D01*
X105557863Y-105811183D01*
X105538402Y-105742906D01*
X105558944Y-105674946D01*
X105611148Y-105629710D01*
X105731716Y-105573489D01*
X105731721Y-105573486D01*
X105736703Y-105571163D01*
X105777471Y-105542617D01*
X105913150Y-105447614D01*
X105913153Y-105447612D01*
X105917661Y-105444455D01*
X106073867Y-105288249D01*
X106200575Y-105107290D01*
X106258846Y-104982328D01*
X106305763Y-104929043D01*
X106374041Y-104909582D01*
X106442001Y-104930124D01*
G37*
G04 #@! TD.AperFunction*
M02*
