G04 #@! TF.GenerationSoftware,KiCad,Pcbnew,6.0.5*
G04 #@! TF.CreationDate,2022-10-03T09:57:03+03:00*
G04 #@! TF.ProjectId,opi-hat,6f70692d-6861-4742-9e6b-696361645f70,rev?*
G04 #@! TF.SameCoordinates,Original*
G04 #@! TF.FileFunction,Soldermask,Top*
G04 #@! TF.FilePolarity,Negative*
%FSLAX46Y46*%
G04 Gerber Fmt 4.6, Leading zero omitted, Abs format (unit mm)*
G04 Created by KiCad (PCBNEW 6.0.5) date 2022-10-03 09:57:03*
%MOMM*%
%LPD*%
G01*
G04 APERTURE LIST*
G04 Aperture macros list*
%AMRoundRect*
0 Rectangle with rounded corners*
0 $1 Rounding radius*
0 $2 $3 $4 $5 $6 $7 $8 $9 X,Y pos of 4 corners*
0 Add a 4 corners polygon primitive as box body*
4,1,4,$2,$3,$4,$5,$6,$7,$8,$9,$2,$3,0*
0 Add four circle primitives for the rounded corners*
1,1,$1+$1,$2,$3*
1,1,$1+$1,$4,$5*
1,1,$1+$1,$6,$7*
1,1,$1+$1,$8,$9*
0 Add four rect primitives between the rounded corners*
20,1,$1+$1,$2,$3,$4,$5,0*
20,1,$1+$1,$4,$5,$6,$7,0*
20,1,$1+$1,$6,$7,$8,$9,0*
20,1,$1+$1,$8,$9,$2,$3,0*%
G04 Aperture macros list end*
G04 #@! TA.AperFunction,Profile*
%ADD10C,0.200000*%
G04 #@! TD*
%ADD11R,2.500000X2.500000*%
%ADD12R,1.000000X1.000000*%
%ADD13C,2.000000*%
%ADD14C,1.508000*%
%ADD15R,1.508000X1.508000*%
%ADD16C,5.000000*%
%ADD17RoundRect,0.250000X-0.350000X-0.625000X0.350000X-0.625000X0.350000X0.625000X-0.350000X0.625000X0*%
%ADD18O,1.200000X1.750000*%
%ADD19O,2.600000X2.600000*%
%ADD20R,2.600000X2.600000*%
%ADD21O,1.750000X1.200000*%
%ADD22RoundRect,0.250000X0.625000X-0.350000X0.625000X0.350000X-0.625000X0.350000X-0.625000X-0.350000X0*%
%ADD23C,2.600000*%
%ADD24R,1.600000X1.600000*%
%ADD25O,1.600000X1.600000*%
%ADD26RoundRect,0.250000X0.350000X0.625000X-0.350000X0.625000X-0.350000X-0.625000X0.350000X-0.625000X0*%
%ADD27C,0.900000*%
%ADD28C,0.650000*%
%ADD29O,1.600000X1.000000*%
%ADD30O,2.100000X1.000000*%
G04 APERTURE END LIST*
D10*
X81784059Y-107635933D02*
G75*
G03*
X84324059Y-110175933I2540001J1D01*
G01*
X136147941Y-110175927D02*
G75*
G03*
X138687941Y-107635933I2J2539998D01*
G01*
X138687955Y-48828067D02*
G75*
G03*
X136147941Y-46288067I-2539992J8D01*
G01*
X84324059Y-46288067D02*
G75*
G03*
X81784059Y-48828067I1J-2540001D01*
G01*
X120095391Y-94355031D02*
X138687941Y-94355031D01*
X138687941Y-107635933D02*
X138687941Y-101975031D01*
X84324059Y-110175933D02*
X136147941Y-110175933D01*
X138687941Y-53509289D02*
X138687941Y-48828067D01*
X120095391Y-101975031D02*
X120095391Y-94355031D01*
X138687941Y-53509289D02*
X115068983Y-53509289D01*
X138687941Y-94355031D02*
X138687941Y-71003289D01*
X115068983Y-53509289D02*
X115068983Y-71003289D01*
X136147941Y-46288067D02*
X84324059Y-46288067D01*
X81784059Y-48828067D02*
X81784059Y-107635933D01*
X138687941Y-101975031D02*
X120095391Y-101975031D01*
X115068983Y-71003289D02*
X138687941Y-71003289D01*
D11*
X101727000Y-56515000D03*
X124460000Y-88773000D03*
X98171000Y-56515000D03*
X94615000Y-56515000D03*
X128270000Y-88773000D03*
D12*
X104521000Y-54991000D03*
X106553000Y-52959000D03*
X104521000Y-52959000D03*
D11*
X98171000Y-52959000D03*
X94615000Y-52959000D03*
X101727000Y-52959000D03*
X128930400Y-104495600D03*
X124460000Y-92329000D03*
X110744000Y-59944000D03*
X128270000Y-92329000D03*
X105664000Y-66548000D03*
D13*
X106506000Y-74422000D03*
X116506000Y-74422000D03*
D14*
X94943041Y-49609629D03*
X97483041Y-49609629D03*
X100023041Y-49609629D03*
X102563041Y-49609629D03*
X105103041Y-49609629D03*
X107643041Y-49609629D03*
X110183041Y-49609629D03*
X112723041Y-49609629D03*
X115263041Y-49609629D03*
X117803041Y-49609629D03*
X120343041Y-49609629D03*
X122883041Y-49609629D03*
D15*
X125423041Y-49609629D03*
D14*
X125423041Y-104473629D03*
X125423041Y-107013629D03*
X122883041Y-104473629D03*
X122883041Y-107013629D03*
X120343041Y-104473629D03*
X120343041Y-107013629D03*
X117803041Y-104473629D03*
X117803041Y-107013629D03*
X115263041Y-104473629D03*
X115263041Y-107013629D03*
X112723041Y-104473629D03*
X112723041Y-107013629D03*
X110183041Y-104473629D03*
X110183041Y-107013629D03*
X107643041Y-104473629D03*
X107643041Y-107013629D03*
X105103041Y-104473629D03*
X105103041Y-107013629D03*
X102563041Y-104473629D03*
X102563041Y-107013629D03*
X100023041Y-104473629D03*
X100023041Y-107013629D03*
X97483041Y-104473629D03*
X97483041Y-107013629D03*
X94943041Y-104473629D03*
D15*
X94943041Y-107013629D03*
D16*
X134057263Y-105666159D03*
X86305263Y-50802159D03*
X86305263Y-105666159D03*
X134565263Y-50802159D03*
D17*
X110236000Y-66802000D03*
D18*
X112236000Y-66802000D03*
D19*
X114808000Y-80772000D03*
D20*
X118618000Y-80772000D03*
D21*
X115274000Y-89472000D03*
X115274000Y-91472000D03*
X115274000Y-93472000D03*
X115274000Y-95472000D03*
D22*
X115274000Y-97472000D03*
D20*
X86918600Y-83047200D03*
D23*
X86918600Y-88047200D03*
D24*
X99669600Y-97891600D03*
D25*
X99669600Y-100431600D03*
X107289600Y-100431600D03*
X107289600Y-97891600D03*
D11*
X111302800Y-99263200D03*
D26*
X103261000Y-93975000D03*
D18*
X101261000Y-93975000D03*
X99261000Y-93975000D03*
D26*
X91315800Y-98570500D03*
D18*
X89315800Y-98570500D03*
X87315800Y-98570500D03*
X85315800Y-98570500D03*
D27*
X87154500Y-62779000D03*
X87154500Y-58379000D03*
D28*
X87205500Y-69373000D03*
X87205500Y-75153000D03*
D29*
X83555500Y-76583000D03*
D30*
X87735500Y-76583000D03*
X87735500Y-67943000D03*
D29*
X83555500Y-67943000D03*
M02*
