G04 #@! TF.GenerationSoftware,KiCad,Pcbnew,6.0.5*
G04 #@! TF.CreationDate,2022-10-03T09:57:03+03:00*
G04 #@! TF.ProjectId,opi-hat,6f70692d-6861-4742-9e6b-696361645f70,rev?*
G04 #@! TF.SameCoordinates,Original*
G04 #@! TF.FileFunction,Legend,Bot*
G04 #@! TF.FilePolarity,Positive*
%FSLAX46Y46*%
G04 Gerber Fmt 4.6, Leading zero omitted, Abs format (unit mm)*
G04 Created by KiCad (PCBNEW 6.0.5) date 2022-10-03 09:57:03*
%MOMM*%
%LPD*%
G01*
G04 APERTURE LIST*
%ADD10C,0.150000*%
G04 #@! TA.AperFunction,Profile*
%ADD11C,0.200000*%
G04 #@! TD*
%ADD12C,0.120000*%
G04 APERTURE END LIST*
D10*
X126237904Y-108386619D02*
X126190285Y-108339000D01*
X126095047Y-108291380D01*
X125856952Y-108291380D01*
X125761714Y-108339000D01*
X125714095Y-108386619D01*
X125666476Y-108481857D01*
X125666476Y-108577095D01*
X125714095Y-108719952D01*
X126285523Y-109291380D01*
X125666476Y-109291380D01*
X124761714Y-108291380D02*
X125237904Y-108291380D01*
X125285523Y-108767571D01*
X125237904Y-108719952D01*
X125142666Y-108672333D01*
X124904571Y-108672333D01*
X124809333Y-108719952D01*
X124761714Y-108767571D01*
X124714095Y-108862809D01*
X124714095Y-109100904D01*
X124761714Y-109196142D01*
X124809333Y-109243761D01*
X124904571Y-109291380D01*
X125142666Y-109291380D01*
X125237904Y-109243761D01*
X125285523Y-109196142D01*
X126237904Y-102417619D02*
X126190285Y-102370000D01*
X126095047Y-102322380D01*
X125856952Y-102322380D01*
X125761714Y-102370000D01*
X125714095Y-102417619D01*
X125666476Y-102512857D01*
X125666476Y-102608095D01*
X125714095Y-102750952D01*
X126285523Y-103322380D01*
X125666476Y-103322380D01*
X124809333Y-102322380D02*
X124999809Y-102322380D01*
X125095047Y-102370000D01*
X125142666Y-102417619D01*
X125237904Y-102560476D01*
X125285523Y-102750952D01*
X125285523Y-103131904D01*
X125237904Y-103227142D01*
X125190285Y-103274761D01*
X125095047Y-103322380D01*
X124904571Y-103322380D01*
X124809333Y-103274761D01*
X124761714Y-103227142D01*
X124714095Y-103131904D01*
X124714095Y-102893809D01*
X124761714Y-102798571D01*
X124809333Y-102750952D01*
X124904571Y-102703333D01*
X125095047Y-102703333D01*
X125190285Y-102750952D01*
X125237904Y-102798571D01*
X125285523Y-102893809D01*
X93503714Y-104068619D02*
X93456095Y-104021000D01*
X93360857Y-103973380D01*
X93122761Y-103973380D01*
X93027523Y-104021000D01*
X92979904Y-104068619D01*
X92932285Y-104163857D01*
X92932285Y-104259095D01*
X92979904Y-104401952D01*
X93551333Y-104973380D01*
X92932285Y-104973380D01*
X92678285Y-107513380D02*
X93249714Y-107513380D01*
X92964000Y-107513380D02*
X92964000Y-106513380D01*
X93059238Y-106656238D01*
X93154476Y-106751476D01*
X93249714Y-106799095D01*
X93646523Y-48982380D02*
X93027476Y-48982380D01*
X93360809Y-49363333D01*
X93217952Y-49363333D01*
X93122714Y-49410952D01*
X93075095Y-49458571D01*
X93027476Y-49553809D01*
X93027476Y-49791904D01*
X93075095Y-49887142D01*
X93122714Y-49934761D01*
X93217952Y-49982380D01*
X93503666Y-49982380D01*
X93598904Y-49934761D01*
X93646523Y-49887142D01*
X92551285Y-49982380D02*
X92360809Y-49982380D01*
X92265571Y-49934761D01*
X92217952Y-49887142D01*
X92122714Y-49744285D01*
X92075095Y-49553809D01*
X92075095Y-49172857D01*
X92122714Y-49077619D01*
X92170333Y-49030000D01*
X92265571Y-48982380D01*
X92456047Y-48982380D01*
X92551285Y-49030000D01*
X92598904Y-49077619D01*
X92646523Y-49172857D01*
X92646523Y-49410952D01*
X92598904Y-49506190D01*
X92551285Y-49553809D01*
X92456047Y-49601428D01*
X92265571Y-49601428D01*
X92170333Y-49553809D01*
X92122714Y-49506190D01*
X92075095Y-49410952D01*
X128269904Y-49204619D02*
X128222285Y-49157000D01*
X128127047Y-49109380D01*
X127888952Y-49109380D01*
X127793714Y-49157000D01*
X127746095Y-49204619D01*
X127698476Y-49299857D01*
X127698476Y-49395095D01*
X127746095Y-49537952D01*
X128317523Y-50109380D01*
X127698476Y-50109380D01*
X127365142Y-49109380D02*
X126698476Y-49109380D01*
X127127047Y-50109380D01*
X135635904Y-83018380D02*
X135635904Y-83827904D01*
X135588285Y-83923142D01*
X135540666Y-83970761D01*
X135445428Y-84018380D01*
X135254952Y-84018380D01*
X135159714Y-83970761D01*
X135112095Y-83923142D01*
X135064476Y-83827904D01*
X135064476Y-83018380D01*
X134635904Y-83113619D02*
X134588285Y-83066000D01*
X134493047Y-83018380D01*
X134254952Y-83018380D01*
X134159714Y-83066000D01*
X134112095Y-83113619D01*
X134064476Y-83208857D01*
X134064476Y-83304095D01*
X134112095Y-83446952D01*
X134683523Y-84018380D01*
X134064476Y-84018380D01*
X119546666Y-88088742D02*
X119594285Y-88136361D01*
X119737142Y-88183980D01*
X119832380Y-88183980D01*
X119975238Y-88136361D01*
X120070476Y-88041123D01*
X120118095Y-87945885D01*
X120165714Y-87755409D01*
X120165714Y-87612552D01*
X120118095Y-87422076D01*
X120070476Y-87326838D01*
X119975238Y-87231600D01*
X119832380Y-87183980D01*
X119737142Y-87183980D01*
X119594285Y-87231600D01*
X119546666Y-87279219D01*
X119213333Y-87183980D02*
X118546666Y-87183980D01*
X118975238Y-88183980D01*
X103835104Y-83170780D02*
X103835104Y-83980304D01*
X103787485Y-84075542D01*
X103739866Y-84123161D01*
X103644628Y-84170780D01*
X103454152Y-84170780D01*
X103358914Y-84123161D01*
X103311295Y-84075542D01*
X103263676Y-83980304D01*
X103263676Y-83170780D01*
X102882723Y-83170780D02*
X102263676Y-83170780D01*
X102597009Y-83551733D01*
X102454152Y-83551733D01*
X102358914Y-83599352D01*
X102311295Y-83646971D01*
X102263676Y-83742209D01*
X102263676Y-83980304D01*
X102311295Y-84075542D01*
X102358914Y-84123161D01*
X102454152Y-84170780D01*
X102739866Y-84170780D01*
X102835104Y-84123161D01*
X102882723Y-84075542D01*
X110148666Y-69953142D02*
X110196285Y-70000761D01*
X110339142Y-70048380D01*
X110434380Y-70048380D01*
X110577238Y-70000761D01*
X110672476Y-69905523D01*
X110720095Y-69810285D01*
X110767714Y-69619809D01*
X110767714Y-69476952D01*
X110720095Y-69286476D01*
X110672476Y-69191238D01*
X110577238Y-69096000D01*
X110434380Y-69048380D01*
X110339142Y-69048380D01*
X110196285Y-69096000D01*
X110148666Y-69143619D01*
X109243904Y-69048380D02*
X109720095Y-69048380D01*
X109767714Y-69524571D01*
X109720095Y-69476952D01*
X109624857Y-69429333D01*
X109386761Y-69429333D01*
X109291523Y-69476952D01*
X109243904Y-69524571D01*
X109196285Y-69619809D01*
X109196285Y-69857904D01*
X109243904Y-69953142D01*
X109291523Y-70000761D01*
X109386761Y-70048380D01*
X109624857Y-70048380D01*
X109720095Y-70000761D01*
X109767714Y-69953142D01*
X96686666Y-85447142D02*
X96734285Y-85494761D01*
X96877142Y-85542380D01*
X96972380Y-85542380D01*
X97115238Y-85494761D01*
X97210476Y-85399523D01*
X97258095Y-85304285D01*
X97305714Y-85113809D01*
X97305714Y-84970952D01*
X97258095Y-84780476D01*
X97210476Y-84685238D01*
X97115238Y-84590000D01*
X96972380Y-84542380D01*
X96877142Y-84542380D01*
X96734285Y-84590000D01*
X96686666Y-84637619D01*
X95734285Y-85542380D02*
X96305714Y-85542380D01*
X96020000Y-85542380D02*
X96020000Y-84542380D01*
X96115238Y-84685238D01*
X96210476Y-84780476D01*
X96305714Y-84828095D01*
X94908666Y-98496380D02*
X95242000Y-98020190D01*
X95480095Y-98496380D02*
X95480095Y-97496380D01*
X95099142Y-97496380D01*
X95003904Y-97544000D01*
X94956285Y-97591619D01*
X94908666Y-97686857D01*
X94908666Y-97829714D01*
X94956285Y-97924952D01*
X95003904Y-97972571D01*
X95099142Y-98020190D01*
X95480095Y-98020190D01*
X94051523Y-97829714D02*
X94051523Y-98496380D01*
X94289619Y-97448761D02*
X94527714Y-98163047D01*
X93908666Y-98163047D01*
X100480404Y-67778380D02*
X100480404Y-68587904D01*
X100432785Y-68683142D01*
X100385166Y-68730761D01*
X100289928Y-68778380D01*
X100099452Y-68778380D01*
X100004214Y-68730761D01*
X99956595Y-68683142D01*
X99908976Y-68587904D01*
X99908976Y-67778380D01*
X99004214Y-68111714D02*
X99004214Y-68778380D01*
X99242309Y-67730761D02*
X99480404Y-68445047D01*
X98861357Y-68445047D01*
X94749857Y-59253380D02*
X95083190Y-58777190D01*
X95321285Y-59253380D02*
X95321285Y-58253380D01*
X94940333Y-58253380D01*
X94845095Y-58301000D01*
X94797476Y-58348619D01*
X94749857Y-58443857D01*
X94749857Y-58586714D01*
X94797476Y-58681952D01*
X94845095Y-58729571D01*
X94940333Y-58777190D01*
X95321285Y-58777190D01*
X93797476Y-59253380D02*
X94368904Y-59253380D01*
X94083190Y-59253380D02*
X94083190Y-58253380D01*
X94178428Y-58396238D01*
X94273666Y-58491476D01*
X94368904Y-58539095D01*
X92845095Y-59253380D02*
X93416523Y-59253380D01*
X93130809Y-59253380D02*
X93130809Y-58253380D01*
X93226047Y-58396238D01*
X93321285Y-58491476D01*
X93416523Y-58539095D01*
X101385666Y-81383142D02*
X101433285Y-81430761D01*
X101576142Y-81478380D01*
X101671380Y-81478380D01*
X101814238Y-81430761D01*
X101909476Y-81335523D01*
X101957095Y-81240285D01*
X102004714Y-81049809D01*
X102004714Y-80906952D01*
X101957095Y-80716476D01*
X101909476Y-80621238D01*
X101814238Y-80526000D01*
X101671380Y-80478380D01*
X101576142Y-80478380D01*
X101433285Y-80526000D01*
X101385666Y-80573619D01*
X100528523Y-80811714D02*
X100528523Y-81478380D01*
X100766619Y-80430761D02*
X101004714Y-81145047D01*
X100385666Y-81145047D01*
X94170166Y-73731380D02*
X94503500Y-73255190D01*
X94741595Y-73731380D02*
X94741595Y-72731380D01*
X94360642Y-72731380D01*
X94265404Y-72779000D01*
X94217785Y-72826619D01*
X94170166Y-72921857D01*
X94170166Y-73064714D01*
X94217785Y-73159952D01*
X94265404Y-73207571D01*
X94360642Y-73255190D01*
X94741595Y-73255190D01*
X93693976Y-73731380D02*
X93503500Y-73731380D01*
X93408261Y-73683761D01*
X93360642Y-73636142D01*
X93265404Y-73493285D01*
X93217785Y-73302809D01*
X93217785Y-72921857D01*
X93265404Y-72826619D01*
X93313023Y-72779000D01*
X93408261Y-72731380D01*
X93598738Y-72731380D01*
X93693976Y-72779000D01*
X93741595Y-72826619D01*
X93789214Y-72921857D01*
X93789214Y-73159952D01*
X93741595Y-73255190D01*
X93693976Y-73302809D01*
X93598738Y-73350428D01*
X93408261Y-73350428D01*
X93313023Y-73302809D01*
X93265404Y-73255190D01*
X93217785Y-73159952D01*
X94773357Y-63604380D02*
X95106690Y-63128190D01*
X95344785Y-63604380D02*
X95344785Y-62604380D01*
X94963833Y-62604380D01*
X94868595Y-62652000D01*
X94820976Y-62699619D01*
X94773357Y-62794857D01*
X94773357Y-62937714D01*
X94820976Y-63032952D01*
X94868595Y-63080571D01*
X94963833Y-63128190D01*
X95344785Y-63128190D01*
X93820976Y-63604380D02*
X94392404Y-63604380D01*
X94106690Y-63604380D02*
X94106690Y-62604380D01*
X94201928Y-62747238D01*
X94297166Y-62842476D01*
X94392404Y-62890095D01*
X93201928Y-62604380D02*
X93106690Y-62604380D01*
X93011452Y-62652000D01*
X92963833Y-62699619D01*
X92916214Y-62794857D01*
X92868595Y-62985333D01*
X92868595Y-63223428D01*
X92916214Y-63413904D01*
X92963833Y-63509142D01*
X93011452Y-63556761D01*
X93106690Y-63604380D01*
X93201928Y-63604380D01*
X93297166Y-63556761D01*
X93344785Y-63509142D01*
X93392404Y-63413904D01*
X93440023Y-63223428D01*
X93440023Y-62985333D01*
X93392404Y-62794857D01*
X93344785Y-62699619D01*
X93297166Y-62652000D01*
X93201928Y-62604380D01*
X104560666Y-102433380D02*
X104894000Y-101957190D01*
X105132095Y-102433380D02*
X105132095Y-101433380D01*
X104751142Y-101433380D01*
X104655904Y-101481000D01*
X104608285Y-101528619D01*
X104560666Y-101623857D01*
X104560666Y-101766714D01*
X104608285Y-101861952D01*
X104655904Y-101909571D01*
X104751142Y-101957190D01*
X105132095Y-101957190D01*
X104227333Y-101433380D02*
X103608285Y-101433380D01*
X103941619Y-101814333D01*
X103798761Y-101814333D01*
X103703523Y-101861952D01*
X103655904Y-101909571D01*
X103608285Y-102004809D01*
X103608285Y-102242904D01*
X103655904Y-102338142D01*
X103703523Y-102385761D01*
X103798761Y-102433380D01*
X104084476Y-102433380D01*
X104179714Y-102385761D01*
X104227333Y-102338142D01*
X90145833Y-53173380D02*
X90145833Y-53887666D01*
X90193452Y-54030523D01*
X90288690Y-54125761D01*
X90431547Y-54173380D01*
X90526785Y-54173380D01*
X89241071Y-53173380D02*
X89431547Y-53173380D01*
X89526785Y-53221000D01*
X89574404Y-53268619D01*
X89669642Y-53411476D01*
X89717261Y-53601952D01*
X89717261Y-53982904D01*
X89669642Y-54078142D01*
X89622023Y-54125761D01*
X89526785Y-54173380D01*
X89336309Y-54173380D01*
X89241071Y-54125761D01*
X89193452Y-54078142D01*
X89145833Y-53982904D01*
X89145833Y-53744809D01*
X89193452Y-53649571D01*
X89241071Y-53601952D01*
X89336309Y-53554333D01*
X89526785Y-53554333D01*
X89622023Y-53601952D01*
X89669642Y-53649571D01*
X89717261Y-53744809D01*
X93408166Y-67635380D02*
X93741500Y-67159190D01*
X93979595Y-67635380D02*
X93979595Y-66635380D01*
X93598642Y-66635380D01*
X93503404Y-66683000D01*
X93455785Y-66730619D01*
X93408166Y-66825857D01*
X93408166Y-66968714D01*
X93455785Y-67063952D01*
X93503404Y-67111571D01*
X93598642Y-67159190D01*
X93979595Y-67159190D01*
X92551023Y-66635380D02*
X92741500Y-66635380D01*
X92836738Y-66683000D01*
X92884357Y-66730619D01*
X92979595Y-66873476D01*
X93027214Y-67063952D01*
X93027214Y-67444904D01*
X92979595Y-67540142D01*
X92931976Y-67587761D01*
X92836738Y-67635380D01*
X92646261Y-67635380D01*
X92551023Y-67587761D01*
X92503404Y-67540142D01*
X92455785Y-67444904D01*
X92455785Y-67206809D01*
X92503404Y-67111571D01*
X92551023Y-67063952D01*
X92646261Y-67016333D01*
X92836738Y-67016333D01*
X92931976Y-67063952D01*
X92979595Y-67111571D01*
X93027214Y-67206809D01*
X89777866Y-103627180D02*
X90111200Y-103150990D01*
X90349295Y-103627180D02*
X90349295Y-102627180D01*
X89968342Y-102627180D01*
X89873104Y-102674800D01*
X89825485Y-102722419D01*
X89777866Y-102817657D01*
X89777866Y-102960514D01*
X89825485Y-103055752D01*
X89873104Y-103103371D01*
X89968342Y-103150990D01*
X90349295Y-103150990D01*
X88825485Y-103627180D02*
X89396914Y-103627180D01*
X89111200Y-103627180D02*
X89111200Y-102627180D01*
X89206438Y-102770038D01*
X89301676Y-102865276D01*
X89396914Y-102912895D01*
X92749666Y-75509380D02*
X93083000Y-75033190D01*
X93321095Y-75509380D02*
X93321095Y-74509380D01*
X92940142Y-74509380D01*
X92844904Y-74557000D01*
X92797285Y-74604619D01*
X92749666Y-74699857D01*
X92749666Y-74842714D01*
X92797285Y-74937952D01*
X92844904Y-74985571D01*
X92940142Y-75033190D01*
X93321095Y-75033190D01*
X92416333Y-74509380D02*
X91749666Y-74509380D01*
X92178238Y-75509380D01*
X99972404Y-63079380D02*
X99972404Y-63888904D01*
X99924785Y-63984142D01*
X99877166Y-64031761D01*
X99781928Y-64079380D01*
X99591452Y-64079380D01*
X99496214Y-64031761D01*
X99448595Y-63984142D01*
X99400976Y-63888904D01*
X99400976Y-63079380D01*
X98448595Y-63079380D02*
X98924785Y-63079380D01*
X98972404Y-63555571D01*
X98924785Y-63507952D01*
X98829547Y-63460333D01*
X98591452Y-63460333D01*
X98496214Y-63507952D01*
X98448595Y-63555571D01*
X98400976Y-63650809D01*
X98400976Y-63888904D01*
X98448595Y-63984142D01*
X98496214Y-64031761D01*
X98591452Y-64079380D01*
X98829547Y-64079380D01*
X98924785Y-64031761D01*
X98972404Y-63984142D01*
X113196666Y-83923142D02*
X113244285Y-83970761D01*
X113387142Y-84018380D01*
X113482380Y-84018380D01*
X113625238Y-83970761D01*
X113720476Y-83875523D01*
X113768095Y-83780285D01*
X113815714Y-83589809D01*
X113815714Y-83446952D01*
X113768095Y-83256476D01*
X113720476Y-83161238D01*
X113625238Y-83066000D01*
X113482380Y-83018380D01*
X113387142Y-83018380D01*
X113244285Y-83066000D01*
X113196666Y-83113619D01*
X112863333Y-83018380D02*
X112244285Y-83018380D01*
X112577619Y-83399333D01*
X112434761Y-83399333D01*
X112339523Y-83446952D01*
X112291904Y-83494571D01*
X112244285Y-83589809D01*
X112244285Y-83827904D01*
X112291904Y-83923142D01*
X112339523Y-83970761D01*
X112434761Y-84018380D01*
X112720476Y-84018380D01*
X112815714Y-83970761D01*
X112863333Y-83923142D01*
X94551166Y-69413380D02*
X94884500Y-68937190D01*
X95122595Y-69413380D02*
X95122595Y-68413380D01*
X94741642Y-68413380D01*
X94646404Y-68461000D01*
X94598785Y-68508619D01*
X94551166Y-68603857D01*
X94551166Y-68746714D01*
X94598785Y-68841952D01*
X94646404Y-68889571D01*
X94741642Y-68937190D01*
X95122595Y-68937190D01*
X93979738Y-68841952D02*
X94074976Y-68794333D01*
X94122595Y-68746714D01*
X94170214Y-68651476D01*
X94170214Y-68603857D01*
X94122595Y-68508619D01*
X94074976Y-68461000D01*
X93979738Y-68413380D01*
X93789261Y-68413380D01*
X93694023Y-68461000D01*
X93646404Y-68508619D01*
X93598785Y-68603857D01*
X93598785Y-68651476D01*
X93646404Y-68746714D01*
X93694023Y-68794333D01*
X93789261Y-68841952D01*
X93979738Y-68841952D01*
X94074976Y-68889571D01*
X94122595Y-68937190D01*
X94170214Y-69032428D01*
X94170214Y-69222904D01*
X94122595Y-69318142D01*
X94074976Y-69365761D01*
X93979738Y-69413380D01*
X93789261Y-69413380D01*
X93694023Y-69365761D01*
X93646404Y-69318142D01*
X93598785Y-69222904D01*
X93598785Y-69032428D01*
X93646404Y-68937190D01*
X93694023Y-68889571D01*
X93789261Y-68841952D01*
X107811866Y-92578180D02*
X108145200Y-92101990D01*
X108383295Y-92578180D02*
X108383295Y-91578180D01*
X108002342Y-91578180D01*
X107907104Y-91625800D01*
X107859485Y-91673419D01*
X107811866Y-91768657D01*
X107811866Y-91911514D01*
X107859485Y-92006752D01*
X107907104Y-92054371D01*
X108002342Y-92101990D01*
X108383295Y-92101990D01*
X106907104Y-91578180D02*
X107383295Y-91578180D01*
X107430914Y-92054371D01*
X107383295Y-92006752D01*
X107288057Y-91959133D01*
X107049961Y-91959133D01*
X106954723Y-92006752D01*
X106907104Y-92054371D01*
X106859485Y-92149609D01*
X106859485Y-92387704D01*
X106907104Y-92482942D01*
X106954723Y-92530561D01*
X107049961Y-92578180D01*
X107288057Y-92578180D01*
X107383295Y-92530561D01*
X107430914Y-92482942D01*
X92051095Y-80208380D02*
X92051095Y-79208380D01*
X91813000Y-79208380D01*
X91670142Y-79256000D01*
X91574904Y-79351238D01*
X91527285Y-79446476D01*
X91479666Y-79636952D01*
X91479666Y-79779809D01*
X91527285Y-79970285D01*
X91574904Y-80065523D01*
X91670142Y-80160761D01*
X91813000Y-80208380D01*
X92051095Y-80208380D01*
X90622523Y-79541714D02*
X90622523Y-80208380D01*
X90860619Y-79160761D02*
X91098714Y-79875047D01*
X90479666Y-79875047D01*
X85550333Y-78065380D02*
X85550333Y-78779666D01*
X85597952Y-78922523D01*
X85693190Y-79017761D01*
X85836047Y-79065380D01*
X85931285Y-79065380D01*
X84597952Y-78065380D02*
X85074142Y-78065380D01*
X85121761Y-78541571D01*
X85074142Y-78493952D01*
X84978904Y-78446333D01*
X84740809Y-78446333D01*
X84645571Y-78493952D01*
X84597952Y-78541571D01*
X84550333Y-78636809D01*
X84550333Y-78874904D01*
X84597952Y-78970142D01*
X84645571Y-79017761D01*
X84740809Y-79065380D01*
X84978904Y-79065380D01*
X85074142Y-79017761D01*
X85121761Y-78970142D01*
X112548895Y-92501980D02*
X112548895Y-91501980D01*
X112310800Y-91501980D01*
X112167942Y-91549600D01*
X112072704Y-91644838D01*
X112025085Y-91740076D01*
X111977466Y-91930552D01*
X111977466Y-92073409D01*
X112025085Y-92263885D01*
X112072704Y-92359123D01*
X112167942Y-92454361D01*
X112310800Y-92501980D01*
X112548895Y-92501980D01*
X111644133Y-91501980D02*
X111025085Y-91501980D01*
X111358419Y-91882933D01*
X111215561Y-91882933D01*
X111120323Y-91930552D01*
X111072704Y-91978171D01*
X111025085Y-92073409D01*
X111025085Y-92311504D01*
X111072704Y-92406742D01*
X111120323Y-92454361D01*
X111215561Y-92501980D01*
X111501276Y-92501980D01*
X111596514Y-92454361D01*
X111644133Y-92406742D01*
X102401666Y-96845380D02*
X102735000Y-96369190D01*
X102973095Y-96845380D02*
X102973095Y-95845380D01*
X102592142Y-95845380D01*
X102496904Y-95893000D01*
X102449285Y-95940619D01*
X102401666Y-96035857D01*
X102401666Y-96178714D01*
X102449285Y-96273952D01*
X102496904Y-96321571D01*
X102592142Y-96369190D01*
X102973095Y-96369190D01*
X102020714Y-95940619D02*
X101973095Y-95893000D01*
X101877857Y-95845380D01*
X101639761Y-95845380D01*
X101544523Y-95893000D01*
X101496904Y-95940619D01*
X101449285Y-96035857D01*
X101449285Y-96131095D01*
X101496904Y-96273952D01*
X102068333Y-96845380D01*
X101449285Y-96845380D01*
X84304095Y-103195380D02*
X84304095Y-102195380D01*
X84066000Y-102195380D01*
X83923142Y-102243000D01*
X83827904Y-102338238D01*
X83780285Y-102433476D01*
X83732666Y-102623952D01*
X83732666Y-102766809D01*
X83780285Y-102957285D01*
X83827904Y-103052523D01*
X83923142Y-103147761D01*
X84066000Y-103195380D01*
X84304095Y-103195380D01*
X82780285Y-103195380D02*
X83351714Y-103195380D01*
X83066000Y-103195380D02*
X83066000Y-102195380D01*
X83161238Y-102338238D01*
X83256476Y-102433476D01*
X83351714Y-102481095D01*
X132119666Y-86590142D02*
X132167285Y-86637761D01*
X132310142Y-86685380D01*
X132405380Y-86685380D01*
X132548238Y-86637761D01*
X132643476Y-86542523D01*
X132691095Y-86447285D01*
X132738714Y-86256809D01*
X132738714Y-86113952D01*
X132691095Y-85923476D01*
X132643476Y-85828238D01*
X132548238Y-85733000D01*
X132405380Y-85685380D01*
X132310142Y-85685380D01*
X132167285Y-85733000D01*
X132119666Y-85780619D01*
X131738714Y-85780619D02*
X131691095Y-85733000D01*
X131595857Y-85685380D01*
X131357761Y-85685380D01*
X131262523Y-85733000D01*
X131214904Y-85780619D01*
X131167285Y-85875857D01*
X131167285Y-85971095D01*
X131214904Y-86113952D01*
X131786333Y-86685380D01*
X131167285Y-86685380D01*
D11*
X81784059Y-107635933D02*
G75*
G03*
X84324059Y-110175933I2540001J1D01*
G01*
X136147941Y-110175927D02*
G75*
G03*
X138687941Y-107635933I2J2539998D01*
G01*
X138687955Y-48828067D02*
G75*
G03*
X136147941Y-46288067I-2539992J8D01*
G01*
X84324059Y-46288067D02*
G75*
G03*
X81784059Y-48828067I1J-2540001D01*
G01*
X120095391Y-94355031D02*
X138687941Y-94355031D01*
X138687941Y-107635933D02*
X138687941Y-101975031D01*
X84324059Y-110175933D02*
X136147941Y-110175933D01*
X138687941Y-53509289D02*
X138687941Y-48828067D01*
X120095391Y-101975031D02*
X120095391Y-94355031D01*
X138687941Y-53509289D02*
X115068983Y-53509289D01*
X138687941Y-94355031D02*
X138687941Y-71003289D01*
X115068983Y-53509289D02*
X115068983Y-71003289D01*
X136147941Y-46288067D02*
X84324059Y-46288067D01*
X81784059Y-48828067D02*
X81784059Y-107635933D01*
X138687941Y-101975031D02*
X120095391Y-101975031D01*
X115068983Y-71003289D02*
X138687941Y-71003289D01*
D10*
X93927041Y-103457629D02*
X126439041Y-103457629D01*
X126439041Y-103457629D02*
X126439041Y-108029629D01*
X126439041Y-108029629D02*
X93927041Y-108029629D01*
X93927041Y-108029629D02*
X93927041Y-103457629D01*
X93927041Y-48593629D02*
X126439041Y-48593629D01*
X126439041Y-48593629D02*
X126439041Y-50625629D01*
X126439041Y-50625629D02*
X93927041Y-50625629D01*
X93927041Y-50625629D02*
X93927041Y-48593629D01*
D12*
X128640000Y-71743000D02*
X127140000Y-71743000D01*
X127140000Y-71743000D02*
X127140000Y-72693000D01*
X128640000Y-82143000D02*
X127140000Y-82143000D01*
X127140000Y-81193000D02*
X122015000Y-81193000D01*
X127140000Y-82143000D02*
X127140000Y-81193000D01*
X127140000Y-72693000D02*
X126040000Y-72693000D01*
X116981500Y-88574600D02*
X121066500Y-88574600D01*
X121066500Y-90444600D02*
X116981500Y-90444600D01*
X116981500Y-90444600D02*
X116981500Y-88574600D01*
X111055200Y-85272400D02*
X109795200Y-85272400D01*
X111055200Y-81512400D02*
X111055200Y-85272400D01*
X104235200Y-85272400D02*
X105495200Y-85272400D01*
X104235200Y-79262400D02*
X104235200Y-85272400D01*
X111692000Y-78347000D02*
X108272000Y-78347000D01*
X108272000Y-78347000D02*
X108272000Y-71412000D01*
X111692000Y-71412000D02*
X111692000Y-78347000D01*
X94333600Y-84892933D02*
X94333600Y-85185467D01*
X95353600Y-84892933D02*
X95353600Y-85185467D01*
X93537300Y-98805276D02*
X93537300Y-99314724D01*
X92492300Y-98805276D02*
X92492300Y-99314724D01*
X99428500Y-72410000D02*
X96478500Y-72410000D01*
X97628500Y-69190000D02*
X99428500Y-69190000D01*
X93875776Y-60720500D02*
X94385224Y-60720500D01*
X93875776Y-59675500D02*
X94385224Y-59675500D01*
X103583200Y-81224167D02*
X103583200Y-80931633D01*
X102563200Y-81224167D02*
X102563200Y-80931633D01*
X94026276Y-72404500D02*
X94535724Y-72404500D01*
X94026276Y-71359500D02*
X94535724Y-71359500D01*
X93875776Y-62244500D02*
X94385224Y-62244500D01*
X93875776Y-61199500D02*
X94385224Y-61199500D01*
X104027676Y-99909100D02*
X104537124Y-99909100D01*
X104027676Y-100954100D02*
X104537124Y-100954100D01*
X91204500Y-62629000D02*
X91204500Y-61929000D01*
X90614500Y-58529000D02*
X90614500Y-57379000D01*
X82804500Y-64539000D02*
X81144500Y-64539000D01*
X81144500Y-64539000D02*
X81144500Y-56619000D01*
X81144500Y-56619000D02*
X82804500Y-56619000D01*
X90614500Y-62629000D02*
X91204500Y-62629000D01*
X85704500Y-64539000D02*
X88304500Y-64539000D01*
X90614500Y-63779000D02*
X90614500Y-62629000D01*
X88304500Y-56619000D02*
X85704500Y-56619000D01*
X91068000Y-69239224D02*
X91068000Y-68729776D01*
X92113000Y-69239224D02*
X92113000Y-68729776D01*
X89434576Y-101181000D02*
X89944024Y-101181000D01*
X89434576Y-102226000D02*
X89944024Y-102226000D01*
X91351000Y-74778776D02*
X91351000Y-75288224D01*
X90306000Y-74778776D02*
X90306000Y-75288224D01*
X98564500Y-59350000D02*
X100364500Y-59350000D01*
X100364500Y-62570000D02*
X97414500Y-62570000D01*
X112727200Y-80931633D02*
X112727200Y-81224167D01*
X111707200Y-80931633D02*
X111707200Y-81224167D01*
X93979276Y-70880500D02*
X94488724Y-70880500D01*
X93979276Y-69835500D02*
X94488724Y-69835500D01*
X108167700Y-94284076D02*
X108167700Y-94793524D01*
X107122700Y-94284076D02*
X107122700Y-94793524D01*
X89137600Y-80697200D02*
X93437600Y-80697200D01*
X93437600Y-80697200D02*
X93437600Y-88247200D01*
X89137600Y-80697200D02*
X89137600Y-88247200D01*
X86505500Y-76963000D02*
X84505500Y-76963000D01*
X82605500Y-67563000D02*
X80705500Y-67563000D01*
X82605500Y-76963000D02*
X80705500Y-76963000D01*
X86505500Y-67563000D02*
X84505500Y-67563000D01*
X80705500Y-76963000D02*
X80705500Y-67563000D01*
X112014000Y-96048000D02*
X112814000Y-96048000D01*
X112014000Y-92928000D02*
X112814000Y-92928000D01*
X112014000Y-92928000D02*
X111214000Y-92928000D01*
X112014000Y-96048000D02*
X110214000Y-96048000D01*
X102198876Y-98419100D02*
X102708324Y-98419100D01*
X102198876Y-97374100D02*
X102708324Y-97374100D01*
X87822800Y-101918500D02*
X84672800Y-101918500D01*
X87822800Y-100218500D02*
X87822800Y-101918500D01*
X87822800Y-100218500D02*
X84672800Y-100218500D01*
X122953400Y-83126000D02*
X129888400Y-83126000D01*
X122953400Y-86546000D02*
X122953400Y-83126000D01*
X129888400Y-86546000D02*
X122953400Y-86546000D01*
M02*
