G04 #@! TF.GenerationSoftware,KiCad,Pcbnew,6.0.5*
G04 #@! TF.CreationDate,2022-10-03T09:57:03+03:00*
G04 #@! TF.ProjectId,opi-hat,6f70692d-6861-4742-9e6b-696361645f70,rev?*
G04 #@! TF.SameCoordinates,Original*
G04 #@! TF.FileFunction,Soldermask,Bot*
G04 #@! TF.FilePolarity,Negative*
%FSLAX46Y46*%
G04 Gerber Fmt 4.6, Leading zero omitted, Abs format (unit mm)*
G04 Created by KiCad (PCBNEW 6.0.5) date 2022-10-03 09:57:03*
%MOMM*%
%LPD*%
G01*
G04 APERTURE LIST*
G04 Aperture macros list*
%AMRoundRect*
0 Rectangle with rounded corners*
0 $1 Rounding radius*
0 $2 $3 $4 $5 $6 $7 $8 $9 X,Y pos of 4 corners*
0 Add a 4 corners polygon primitive as box body*
4,1,4,$2,$3,$4,$5,$6,$7,$8,$9,$2,$3,0*
0 Add four circle primitives for the rounded corners*
1,1,$1+$1,$2,$3*
1,1,$1+$1,$4,$5*
1,1,$1+$1,$6,$7*
1,1,$1+$1,$8,$9*
0 Add four rect primitives between the rounded corners*
20,1,$1+$1,$2,$3,$4,$5,0*
20,1,$1+$1,$4,$5,$6,$7,0*
20,1,$1+$1,$6,$7,$8,$9,0*
20,1,$1+$1,$8,$9,$2,$3,0*%
%AMOutline4P*
0 Free polygon, 4 corners , with rotation*
0 The origin of the aperture is its center*
0 number of corners: always 4*
0 $1 to $8 corner X, Y*
0 $9 Rotation angle, in degrees counterclockwise*
0 create outline with 4 corners*
4,1,4,$1,$2,$3,$4,$5,$6,$7,$8,$1,$2,$9*%
G04 Aperture macros list end*
G04 #@! TA.AperFunction,Profile*
%ADD10C,0.200000*%
G04 #@! TD*
%ADD11R,2.500000X2.500000*%
%ADD12R,1.000000X1.000000*%
%ADD13C,2.000000*%
%ADD14C,1.508000*%
%ADD15R,1.508000X1.508000*%
%ADD16C,5.000000*%
%ADD17R,4.600000X1.100000*%
%ADD18R,9.400000X10.800000*%
%ADD19RoundRect,0.250000X-0.350000X-0.625000X0.350000X-0.625000X0.350000X0.625000X-0.350000X0.625000X0*%
%ADD20O,1.200000X1.750000*%
%ADD21O,2.600000X2.600000*%
%ADD22R,2.600000X2.600000*%
%ADD23O,1.750000X1.200000*%
%ADD24RoundRect,0.250000X0.625000X-0.350000X0.625000X0.350000X-0.625000X0.350000X-0.625000X-0.350000X0*%
%ADD25C,2.600000*%
%ADD26RoundRect,0.250000X-0.537500X-0.425000X0.537500X-0.425000X0.537500X0.425000X-0.537500X0.425000X0*%
%ADD27R,1.500000X2.000000*%
%ADD28R,3.800000X2.000000*%
%ADD29R,1.600000X1.600000*%
%ADD30O,1.600000X1.600000*%
%ADD31RoundRect,0.250000X0.350000X0.625000X-0.350000X0.625000X-0.350000X-0.625000X0.350000X-0.625000X0*%
%ADD32RoundRect,0.250000X0.925000X-0.875000X0.925000X0.875000X-0.925000X0.875000X-0.925000X-0.875000X0*%
%ADD33RoundRect,0.237500X-0.237500X0.300000X-0.237500X-0.300000X0.237500X-0.300000X0.237500X0.300000X0*%
%ADD34RoundRect,0.237500X-0.237500X0.250000X-0.237500X-0.250000X0.237500X-0.250000X0.237500X0.250000X0*%
%ADD35R,1.560000X0.650000*%
%ADD36RoundRect,0.237500X-0.250000X-0.237500X0.250000X-0.237500X0.250000X0.237500X-0.250000X0.237500X0*%
%ADD37RoundRect,0.237500X0.237500X-0.300000X0.237500X0.300000X-0.237500X0.300000X-0.237500X-0.300000X0*%
%ADD38C,0.900000*%
%ADD39R,2.500000X0.500000*%
%ADD40R,2.500000X2.000000*%
%ADD41RoundRect,0.237500X0.237500X-0.250000X0.237500X0.250000X-0.237500X0.250000X-0.237500X-0.250000X0*%
%ADD42Outline4P,-1.800000X-1.150000X1.800000X-0.550000X1.800000X0.550000X-1.800000X1.150000X270.000000*%
%ADD43Outline4P,-1.800000X-1.150000X1.800000X-0.550000X1.800000X0.550000X-1.800000X1.150000X90.000000*%
%ADD44C,0.650000*%
%ADD45R,1.450000X0.600000*%
%ADD46R,1.450000X0.300000*%
%ADD47O,1.600000X1.000000*%
%ADD48O,2.100000X1.000000*%
%ADD49RoundRect,0.150000X-0.512500X-0.150000X0.512500X-0.150000X0.512500X0.150000X-0.512500X0.150000X0*%
%ADD50RoundRect,0.250000X-0.875000X-0.925000X0.875000X-0.925000X0.875000X0.925000X-0.875000X0.925000X0*%
G04 APERTURE END LIST*
D10*
X81784059Y-107635933D02*
G75*
G03*
X84324059Y-110175933I2540001J1D01*
G01*
X136147941Y-110175927D02*
G75*
G03*
X138687941Y-107635933I2J2539998D01*
G01*
X138687955Y-48828067D02*
G75*
G03*
X136147941Y-46288067I-2539992J8D01*
G01*
X84324059Y-46288067D02*
G75*
G03*
X81784059Y-48828067I1J-2540001D01*
G01*
X120095391Y-94355031D02*
X138687941Y-94355031D01*
X138687941Y-107635933D02*
X138687941Y-101975031D01*
X84324059Y-110175933D02*
X136147941Y-110175933D01*
X138687941Y-53509289D02*
X138687941Y-48828067D01*
X120095391Y-101975031D02*
X120095391Y-94355031D01*
X138687941Y-53509289D02*
X115068983Y-53509289D01*
X138687941Y-94355031D02*
X138687941Y-71003289D01*
X115068983Y-53509289D02*
X115068983Y-71003289D01*
X136147941Y-46288067D02*
X84324059Y-46288067D01*
X81784059Y-48828067D02*
X81784059Y-107635933D01*
X138687941Y-101975031D02*
X120095391Y-101975031D01*
X115068983Y-71003289D02*
X138687941Y-71003289D01*
D11*
X101727000Y-56515000D03*
X124460000Y-88773000D03*
X98171000Y-56515000D03*
X94615000Y-56515000D03*
X128270000Y-88773000D03*
D12*
X104521000Y-54991000D03*
X106553000Y-52959000D03*
X104521000Y-52959000D03*
D11*
X98171000Y-52959000D03*
X94615000Y-52959000D03*
X101727000Y-52959000D03*
X128930400Y-104495600D03*
X124460000Y-92329000D03*
X110744000Y-59944000D03*
X128270000Y-92329000D03*
X105664000Y-66548000D03*
D13*
X106506000Y-74422000D03*
X116506000Y-74422000D03*
D14*
X94943041Y-49609629D03*
X97483041Y-49609629D03*
X100023041Y-49609629D03*
X102563041Y-49609629D03*
X105103041Y-49609629D03*
X107643041Y-49609629D03*
X110183041Y-49609629D03*
X112723041Y-49609629D03*
X115263041Y-49609629D03*
X117803041Y-49609629D03*
X120343041Y-49609629D03*
X122883041Y-49609629D03*
D15*
X125423041Y-49609629D03*
D14*
X125423041Y-104473629D03*
X125423041Y-107013629D03*
X122883041Y-104473629D03*
X122883041Y-107013629D03*
X120343041Y-104473629D03*
X120343041Y-107013629D03*
X117803041Y-104473629D03*
X117803041Y-107013629D03*
X115263041Y-104473629D03*
X115263041Y-107013629D03*
X112723041Y-104473629D03*
X112723041Y-107013629D03*
X110183041Y-104473629D03*
X110183041Y-107013629D03*
X107643041Y-104473629D03*
X107643041Y-107013629D03*
X105103041Y-104473629D03*
X105103041Y-107013629D03*
X102563041Y-104473629D03*
X102563041Y-107013629D03*
X100023041Y-104473629D03*
X100023041Y-107013629D03*
X97483041Y-104473629D03*
X97483041Y-107013629D03*
X94943041Y-104473629D03*
D15*
X94943041Y-107013629D03*
D16*
X134057263Y-105666159D03*
X86305263Y-50802159D03*
X86305263Y-105666159D03*
X134565263Y-50802159D03*
D17*
X124315000Y-80343000D03*
X124315000Y-78643000D03*
D18*
X133465000Y-76943000D03*
D17*
X124315000Y-76943000D03*
X124315000Y-75243000D03*
X124315000Y-73543000D03*
D19*
X110236000Y-66802000D03*
D20*
X112236000Y-66802000D03*
D21*
X114808000Y-80772000D03*
D22*
X118618000Y-80772000D03*
D23*
X115274000Y-89472000D03*
X115274000Y-91472000D03*
X115274000Y-93472000D03*
X115274000Y-95472000D03*
D24*
X115274000Y-97472000D03*
D22*
X86918600Y-83047200D03*
D25*
X86918600Y-88047200D03*
D26*
X118029000Y-89509600D03*
X120904000Y-89509600D03*
D27*
X105345200Y-80212400D03*
X107645200Y-80212400D03*
D28*
X107645200Y-86512400D03*
D27*
X109945200Y-80212400D03*
D29*
X99669600Y-97891600D03*
D30*
X99669600Y-100431600D03*
X107289600Y-100431600D03*
X107289600Y-97891600D03*
D11*
X111302800Y-99263200D03*
D31*
X103261000Y-93975000D03*
D20*
X101261000Y-93975000D03*
X99261000Y-93975000D03*
D31*
X91315800Y-98570500D03*
D20*
X89315800Y-98570500D03*
X87315800Y-98570500D03*
X85315800Y-98570500D03*
D32*
X109982000Y-76962000D03*
X109982000Y-71862000D03*
D33*
X94843600Y-84176700D03*
X94843600Y-85901700D03*
D34*
X93014800Y-98147500D03*
X93014800Y-99972500D03*
D35*
X97178500Y-71750000D03*
X97178500Y-70800000D03*
X97178500Y-69850000D03*
X99878500Y-69850000D03*
X99878500Y-70800000D03*
X99878500Y-71750000D03*
D36*
X93218000Y-60198000D03*
X95043000Y-60198000D03*
D37*
X103073200Y-81940400D03*
X103073200Y-80215400D03*
D36*
X93368500Y-71882000D03*
X95193500Y-71882000D03*
X93218000Y-61722000D03*
X95043000Y-61722000D03*
X103369900Y-100431600D03*
X105194900Y-100431600D03*
D38*
X87154500Y-62779000D03*
X87154500Y-58379000D03*
D39*
X89754500Y-62179000D03*
X89754500Y-61379000D03*
X89754500Y-60579000D03*
X89754500Y-59779000D03*
X89754500Y-58979000D03*
D40*
X84254500Y-56179000D03*
X84254500Y-64979000D03*
X89754500Y-64979000D03*
X89754500Y-56179000D03*
D41*
X91590500Y-69897000D03*
X91590500Y-68072000D03*
D36*
X88776800Y-101703500D03*
X90601800Y-101703500D03*
D34*
X90828500Y-74121000D03*
X90828500Y-75946000D03*
D35*
X98114500Y-61910000D03*
X98114500Y-60960000D03*
X98114500Y-60010000D03*
X100814500Y-60010000D03*
X100814500Y-60960000D03*
X100814500Y-61910000D03*
D33*
X112217200Y-80215400D03*
X112217200Y-81940400D03*
D36*
X93321500Y-70358000D03*
X95146500Y-70358000D03*
D34*
X107645200Y-93626300D03*
X107645200Y-95451300D03*
D42*
X91287600Y-82647200D03*
D43*
X91287600Y-88447200D03*
D44*
X87205500Y-69373000D03*
X87205500Y-75153000D03*
D45*
X88650500Y-75513000D03*
X88650500Y-74713000D03*
D46*
X88650500Y-73513000D03*
X88650500Y-72513000D03*
X88650500Y-72013000D03*
X88650500Y-71013000D03*
D45*
X88650500Y-69813000D03*
X88650500Y-69013000D03*
X88650500Y-69013000D03*
X88650500Y-69813000D03*
D46*
X88650500Y-70513000D03*
X88650500Y-71513000D03*
X88650500Y-73013000D03*
X88650500Y-74013000D03*
D45*
X88650500Y-74713000D03*
X88650500Y-75513000D03*
D47*
X83555500Y-76583000D03*
D48*
X87735500Y-76583000D03*
X87735500Y-67943000D03*
D47*
X83555500Y-67943000D03*
D49*
X110876500Y-95438000D03*
X110876500Y-94488000D03*
X110876500Y-93538000D03*
X113151500Y-93538000D03*
X113151500Y-95438000D03*
D36*
X101541100Y-97896600D03*
X103366100Y-97896600D03*
D12*
X87172800Y-101068500D03*
X84672800Y-101068500D03*
D50*
X124338400Y-84836000D03*
X129438400Y-84836000D03*
M02*
