M48
; DRILL file {KiCad 6.0.5} date Mon Oct  3 09:57:01 2022
; FORMAT={-:-/ absolute / metric / decimal}
; #@! TF.CreationDate,2022-10-03T09:57:01+03:00
; #@! TF.GenerationSoftware,Kicad,Pcbnew,6.0.5
; #@! TF.FileFunction,MixedPlating,1,2
FMAT,2
METRIC
; #@! TA.AperFunction,Plated,PTH,ComponentDrill
T1C0.500
; #@! TA.AperFunction,Plated,PTH,ViaDrill
T2C0.600
; #@! TA.AperFunction,Plated,PTH,ComponentDrill
T3C0.600
; #@! TA.AperFunction,Plated,PTH,ComponentDrill
T4C0.750
; #@! TA.AperFunction,Plated,PTH,ComponentDrill
T5C0.800
; #@! TA.AperFunction,Plated,PTH,ComponentDrill
T6C1.000
; #@! TA.AperFunction,Plated,PTH,ComponentDrill
T7C1.200
; #@! TA.AperFunction,Plated,PTH,ComponentDrill
T8C1.300
; #@! TA.AperFunction,NonPlated,NPTH,ComponentDrill
T9C0.650
; #@! TA.AperFunction,NonPlated,NPTH,ComponentDrill
T10C0.900
; #@! TA.AperFunction,NonPlated,NPTH,ComponentDrill
T11C3.000
%
G90
G05
T1
X104.521Y-52.959
X104.521Y-54.991
X106.553Y-52.959
T2
X92.659Y-102.21
X94.945Y-99.06
X99.263Y-84.785
X103.327Y-74.422
X107.645Y-89.357
X110.185Y-102.362
X112.217Y-87.782
X113.538Y-62.738
X115.316Y-102.362
X121.285Y-86.487
X121.564Y-84.836
X124.206Y-52.07
T4
X85.316Y-98.57
X87.316Y-98.57
X89.316Y-98.57
X91.316Y-98.57
X99.261Y-93.975
X101.261Y-93.975
X103.261Y-93.975
X110.236Y-66.802
X112.236Y-66.802
X115.274Y-89.472
X115.274Y-91.472
X115.274Y-93.472
X115.274Y-95.472
X115.274Y-97.472
T5
X99.67Y-97.892
X99.67Y-100.432
X107.29Y-97.892
X107.29Y-100.432
T6
X94.943Y-49.61
X94.943Y-104.474
X94.943Y-107.014
X97.483Y-49.61
X97.483Y-104.474
X97.483Y-107.014
X100.023Y-49.61
X100.023Y-104.474
X100.023Y-107.014
X102.563Y-49.61
X102.563Y-104.474
X102.563Y-107.014
X105.103Y-49.61
X105.103Y-104.474
X105.103Y-107.014
X106.506Y-74.422
X107.643Y-49.61
X107.643Y-104.474
X107.643Y-107.014
X110.183Y-49.61
X110.183Y-104.474
X110.183Y-107.014
X112.723Y-49.61
X112.723Y-104.474
X112.723Y-107.014
X115.263Y-49.61
X115.263Y-104.474
X115.263Y-107.014
X116.506Y-74.422
X117.803Y-49.61
X117.803Y-104.474
X117.803Y-107.014
X120.343Y-49.61
X120.343Y-104.474
X120.343Y-107.014
X122.883Y-49.61
X122.883Y-104.474
X122.883Y-107.014
X125.423Y-49.61
X125.423Y-104.474
X125.423Y-107.014
T7
X94.615Y-52.959
X94.615Y-56.515
X98.171Y-52.959
X98.171Y-56.515
X101.727Y-52.959
X101.727Y-56.515
X105.664Y-66.548
X110.744Y-59.944
X111.303Y-99.263
X124.46Y-88.773
X124.46Y-92.329
X128.27Y-88.773
X128.27Y-92.329
X128.93Y-104.496
T8
X86.919Y-83.047
X86.919Y-88.047
X114.808Y-80.772
X118.618Y-80.772
T9
X87.206Y-69.373
X87.206Y-75.153
T10
X87.154Y-58.379
X87.154Y-62.779
T11
X86.305Y-50.802
X86.305Y-105.666
X134.057Y-105.666
X134.565Y-50.802
T3
G00X83.255Y-67.943
M15
G01X83.855Y-67.943
M16
G05
G00X83.255Y-76.583
M15
G01X83.855Y-76.583
M16
G05
G00X87.185Y-67.943
M15
G01X88.285Y-67.943
M16
G05
G00X87.185Y-76.583
M15
G01X88.285Y-76.583
M16
G05
T0
M30
